G04 #@! TF.GenerationSoftware,KiCad,Pcbnew,5.1.5+dfsg1-2build2*
G04 #@! TF.CreationDate,2021-12-30T10:18:34+00:00*
G04 #@! TF.ProjectId,psion-org2-bluetooth-adapter,7073696f-6e2d-46f7-9267-322d626c7565,rev?*
G04 #@! TF.SameCoordinates,Original*
G04 #@! TF.FileFunction,Paste,Top*
G04 #@! TF.FilePolarity,Positive*
%FSLAX46Y46*%
G04 Gerber Fmt 4.6, Leading zero omitted, Abs format (unit mm)*
G04 Created by KiCad (PCBNEW 5.1.5+dfsg1-2build2) date 2021-12-30 10:18:34*
%MOMM*%
%LPD*%
G04 APERTURE LIST*
%ADD10C,0.100000*%
%ADD11R,1.500000X2.000000*%
%ADD12R,3.800000X2.000000*%
%ADD13R,0.900000X1.200000*%
%ADD14R,6.350000X7.340000*%
%ADD15R,0.800000X0.900000*%
%ADD16R,0.900000X0.800000*%
%ADD17R,2.000000X0.900000*%
%ADD18R,0.900000X2.000000*%
%ADD19R,5.000000X5.000000*%
%ADD20R,2.510000X1.000000*%
G04 APERTURE END LIST*
D10*
G36*
X173805142Y-138701174D02*
G01*
X173828803Y-138704684D01*
X173852007Y-138710496D01*
X173874529Y-138718554D01*
X173896153Y-138728782D01*
X173916670Y-138741079D01*
X173935883Y-138755329D01*
X173953607Y-138771393D01*
X173969671Y-138789117D01*
X173983921Y-138808330D01*
X173996218Y-138828847D01*
X174006446Y-138850471D01*
X174014504Y-138872993D01*
X174020316Y-138896197D01*
X174023826Y-138919858D01*
X174025000Y-138943750D01*
X174025000Y-139856250D01*
X174023826Y-139880142D01*
X174020316Y-139903803D01*
X174014504Y-139927007D01*
X174006446Y-139949529D01*
X173996218Y-139971153D01*
X173983921Y-139991670D01*
X173969671Y-140010883D01*
X173953607Y-140028607D01*
X173935883Y-140044671D01*
X173916670Y-140058921D01*
X173896153Y-140071218D01*
X173874529Y-140081446D01*
X173852007Y-140089504D01*
X173828803Y-140095316D01*
X173805142Y-140098826D01*
X173781250Y-140100000D01*
X173293750Y-140100000D01*
X173269858Y-140098826D01*
X173246197Y-140095316D01*
X173222993Y-140089504D01*
X173200471Y-140081446D01*
X173178847Y-140071218D01*
X173158330Y-140058921D01*
X173139117Y-140044671D01*
X173121393Y-140028607D01*
X173105329Y-140010883D01*
X173091079Y-139991670D01*
X173078782Y-139971153D01*
X173068554Y-139949529D01*
X173060496Y-139927007D01*
X173054684Y-139903803D01*
X173051174Y-139880142D01*
X173050000Y-139856250D01*
X173050000Y-138943750D01*
X173051174Y-138919858D01*
X173054684Y-138896197D01*
X173060496Y-138872993D01*
X173068554Y-138850471D01*
X173078782Y-138828847D01*
X173091079Y-138808330D01*
X173105329Y-138789117D01*
X173121393Y-138771393D01*
X173139117Y-138755329D01*
X173158330Y-138741079D01*
X173178847Y-138728782D01*
X173200471Y-138718554D01*
X173222993Y-138710496D01*
X173246197Y-138704684D01*
X173269858Y-138701174D01*
X173293750Y-138700000D01*
X173781250Y-138700000D01*
X173805142Y-138701174D01*
G37*
G36*
X171930142Y-138701174D02*
G01*
X171953803Y-138704684D01*
X171977007Y-138710496D01*
X171999529Y-138718554D01*
X172021153Y-138728782D01*
X172041670Y-138741079D01*
X172060883Y-138755329D01*
X172078607Y-138771393D01*
X172094671Y-138789117D01*
X172108921Y-138808330D01*
X172121218Y-138828847D01*
X172131446Y-138850471D01*
X172139504Y-138872993D01*
X172145316Y-138896197D01*
X172148826Y-138919858D01*
X172150000Y-138943750D01*
X172150000Y-139856250D01*
X172148826Y-139880142D01*
X172145316Y-139903803D01*
X172139504Y-139927007D01*
X172131446Y-139949529D01*
X172121218Y-139971153D01*
X172108921Y-139991670D01*
X172094671Y-140010883D01*
X172078607Y-140028607D01*
X172060883Y-140044671D01*
X172041670Y-140058921D01*
X172021153Y-140071218D01*
X171999529Y-140081446D01*
X171977007Y-140089504D01*
X171953803Y-140095316D01*
X171930142Y-140098826D01*
X171906250Y-140100000D01*
X171418750Y-140100000D01*
X171394858Y-140098826D01*
X171371197Y-140095316D01*
X171347993Y-140089504D01*
X171325471Y-140081446D01*
X171303847Y-140071218D01*
X171283330Y-140058921D01*
X171264117Y-140044671D01*
X171246393Y-140028607D01*
X171230329Y-140010883D01*
X171216079Y-139991670D01*
X171203782Y-139971153D01*
X171193554Y-139949529D01*
X171185496Y-139927007D01*
X171179684Y-139903803D01*
X171176174Y-139880142D01*
X171175000Y-139856250D01*
X171175000Y-138943750D01*
X171176174Y-138919858D01*
X171179684Y-138896197D01*
X171185496Y-138872993D01*
X171193554Y-138850471D01*
X171203782Y-138828847D01*
X171216079Y-138808330D01*
X171230329Y-138789117D01*
X171246393Y-138771393D01*
X171264117Y-138755329D01*
X171283330Y-138741079D01*
X171303847Y-138728782D01*
X171325471Y-138718554D01*
X171347993Y-138710496D01*
X171371197Y-138704684D01*
X171394858Y-138701174D01*
X171418750Y-138700000D01*
X171906250Y-138700000D01*
X171930142Y-138701174D01*
G37*
G36*
X169480142Y-137751174D02*
G01*
X169503803Y-137754684D01*
X169527007Y-137760496D01*
X169549529Y-137768554D01*
X169571153Y-137778782D01*
X169591670Y-137791079D01*
X169610883Y-137805329D01*
X169628607Y-137821393D01*
X169644671Y-137839117D01*
X169658921Y-137858330D01*
X169671218Y-137878847D01*
X169681446Y-137900471D01*
X169689504Y-137922993D01*
X169695316Y-137946197D01*
X169698826Y-137969858D01*
X169700000Y-137993750D01*
X169700000Y-138481250D01*
X169698826Y-138505142D01*
X169695316Y-138528803D01*
X169689504Y-138552007D01*
X169681446Y-138574529D01*
X169671218Y-138596153D01*
X169658921Y-138616670D01*
X169644671Y-138635883D01*
X169628607Y-138653607D01*
X169610883Y-138669671D01*
X169591670Y-138683921D01*
X169571153Y-138696218D01*
X169549529Y-138706446D01*
X169527007Y-138714504D01*
X169503803Y-138720316D01*
X169480142Y-138723826D01*
X169456250Y-138725000D01*
X168543750Y-138725000D01*
X168519858Y-138723826D01*
X168496197Y-138720316D01*
X168472993Y-138714504D01*
X168450471Y-138706446D01*
X168428847Y-138696218D01*
X168408330Y-138683921D01*
X168389117Y-138669671D01*
X168371393Y-138653607D01*
X168355329Y-138635883D01*
X168341079Y-138616670D01*
X168328782Y-138596153D01*
X168318554Y-138574529D01*
X168310496Y-138552007D01*
X168304684Y-138528803D01*
X168301174Y-138505142D01*
X168300000Y-138481250D01*
X168300000Y-137993750D01*
X168301174Y-137969858D01*
X168304684Y-137946197D01*
X168310496Y-137922993D01*
X168318554Y-137900471D01*
X168328782Y-137878847D01*
X168341079Y-137858330D01*
X168355329Y-137839117D01*
X168371393Y-137821393D01*
X168389117Y-137805329D01*
X168408330Y-137791079D01*
X168428847Y-137778782D01*
X168450471Y-137768554D01*
X168472993Y-137760496D01*
X168496197Y-137754684D01*
X168519858Y-137751174D01*
X168543750Y-137750000D01*
X169456250Y-137750000D01*
X169480142Y-137751174D01*
G37*
G36*
X169480142Y-135876174D02*
G01*
X169503803Y-135879684D01*
X169527007Y-135885496D01*
X169549529Y-135893554D01*
X169571153Y-135903782D01*
X169591670Y-135916079D01*
X169610883Y-135930329D01*
X169628607Y-135946393D01*
X169644671Y-135964117D01*
X169658921Y-135983330D01*
X169671218Y-136003847D01*
X169681446Y-136025471D01*
X169689504Y-136047993D01*
X169695316Y-136071197D01*
X169698826Y-136094858D01*
X169700000Y-136118750D01*
X169700000Y-136606250D01*
X169698826Y-136630142D01*
X169695316Y-136653803D01*
X169689504Y-136677007D01*
X169681446Y-136699529D01*
X169671218Y-136721153D01*
X169658921Y-136741670D01*
X169644671Y-136760883D01*
X169628607Y-136778607D01*
X169610883Y-136794671D01*
X169591670Y-136808921D01*
X169571153Y-136821218D01*
X169549529Y-136831446D01*
X169527007Y-136839504D01*
X169503803Y-136845316D01*
X169480142Y-136848826D01*
X169456250Y-136850000D01*
X168543750Y-136850000D01*
X168519858Y-136848826D01*
X168496197Y-136845316D01*
X168472993Y-136839504D01*
X168450471Y-136831446D01*
X168428847Y-136821218D01*
X168408330Y-136808921D01*
X168389117Y-136794671D01*
X168371393Y-136778607D01*
X168355329Y-136760883D01*
X168341079Y-136741670D01*
X168328782Y-136721153D01*
X168318554Y-136699529D01*
X168310496Y-136677007D01*
X168304684Y-136653803D01*
X168301174Y-136630142D01*
X168300000Y-136606250D01*
X168300000Y-136118750D01*
X168301174Y-136094858D01*
X168304684Y-136071197D01*
X168310496Y-136047993D01*
X168318554Y-136025471D01*
X168328782Y-136003847D01*
X168341079Y-135983330D01*
X168355329Y-135964117D01*
X168371393Y-135946393D01*
X168389117Y-135930329D01*
X168408330Y-135916079D01*
X168428847Y-135903782D01*
X168450471Y-135893554D01*
X168472993Y-135885496D01*
X168496197Y-135879684D01*
X168519858Y-135876174D01*
X168543750Y-135875000D01*
X169456250Y-135875000D01*
X169480142Y-135876174D01*
G37*
D11*
X160500000Y-75600000D03*
X165100000Y-75600000D03*
X162800000Y-75600000D03*
D12*
X162800000Y-69300000D03*
D11*
X160500000Y-98150000D03*
X165100000Y-98150000D03*
X162800000Y-98150000D03*
D12*
X162800000Y-91850000D03*
D10*
G36*
X173818626Y-133400301D02*
G01*
X173824693Y-133401201D01*
X173830643Y-133402691D01*
X173836418Y-133404758D01*
X173841962Y-133407380D01*
X173847223Y-133410533D01*
X173852150Y-133414187D01*
X173856694Y-133418306D01*
X173860813Y-133422850D01*
X173864467Y-133427777D01*
X173867620Y-133433038D01*
X173870242Y-133438582D01*
X173872309Y-133444357D01*
X173873799Y-133450307D01*
X173874699Y-133456374D01*
X173875000Y-133462500D01*
X173875000Y-134212500D01*
X173874699Y-134218626D01*
X173873799Y-134224693D01*
X173872309Y-134230643D01*
X173870242Y-134236418D01*
X173867620Y-134241962D01*
X173864467Y-134247223D01*
X173860813Y-134252150D01*
X173856694Y-134256694D01*
X173852150Y-134260813D01*
X173847223Y-134264467D01*
X173841962Y-134267620D01*
X173836418Y-134270242D01*
X173830643Y-134272309D01*
X173824693Y-134273799D01*
X173818626Y-134274699D01*
X173812500Y-134275000D01*
X173687500Y-134275000D01*
X173681374Y-134274699D01*
X173675307Y-134273799D01*
X173669357Y-134272309D01*
X173663582Y-134270242D01*
X173658038Y-134267620D01*
X173652777Y-134264467D01*
X173647850Y-134260813D01*
X173643306Y-134256694D01*
X173639187Y-134252150D01*
X173635533Y-134247223D01*
X173632380Y-134241962D01*
X173629758Y-134236418D01*
X173627691Y-134230643D01*
X173626201Y-134224693D01*
X173625301Y-134218626D01*
X173625000Y-134212500D01*
X173625000Y-133462500D01*
X173625301Y-133456374D01*
X173626201Y-133450307D01*
X173627691Y-133444357D01*
X173629758Y-133438582D01*
X173632380Y-133433038D01*
X173635533Y-133427777D01*
X173639187Y-133422850D01*
X173643306Y-133418306D01*
X173647850Y-133414187D01*
X173652777Y-133410533D01*
X173658038Y-133407380D01*
X173663582Y-133404758D01*
X173669357Y-133402691D01*
X173675307Y-133401201D01*
X173681374Y-133400301D01*
X173687500Y-133400000D01*
X173812500Y-133400000D01*
X173818626Y-133400301D01*
G37*
G36*
X173318626Y-133400301D02*
G01*
X173324693Y-133401201D01*
X173330643Y-133402691D01*
X173336418Y-133404758D01*
X173341962Y-133407380D01*
X173347223Y-133410533D01*
X173352150Y-133414187D01*
X173356694Y-133418306D01*
X173360813Y-133422850D01*
X173364467Y-133427777D01*
X173367620Y-133433038D01*
X173370242Y-133438582D01*
X173372309Y-133444357D01*
X173373799Y-133450307D01*
X173374699Y-133456374D01*
X173375000Y-133462500D01*
X173375000Y-134212500D01*
X173374699Y-134218626D01*
X173373799Y-134224693D01*
X173372309Y-134230643D01*
X173370242Y-134236418D01*
X173367620Y-134241962D01*
X173364467Y-134247223D01*
X173360813Y-134252150D01*
X173356694Y-134256694D01*
X173352150Y-134260813D01*
X173347223Y-134264467D01*
X173341962Y-134267620D01*
X173336418Y-134270242D01*
X173330643Y-134272309D01*
X173324693Y-134273799D01*
X173318626Y-134274699D01*
X173312500Y-134275000D01*
X173187500Y-134275000D01*
X173181374Y-134274699D01*
X173175307Y-134273799D01*
X173169357Y-134272309D01*
X173163582Y-134270242D01*
X173158038Y-134267620D01*
X173152777Y-134264467D01*
X173147850Y-134260813D01*
X173143306Y-134256694D01*
X173139187Y-134252150D01*
X173135533Y-134247223D01*
X173132380Y-134241962D01*
X173129758Y-134236418D01*
X173127691Y-134230643D01*
X173126201Y-134224693D01*
X173125301Y-134218626D01*
X173125000Y-134212500D01*
X173125000Y-133462500D01*
X173125301Y-133456374D01*
X173126201Y-133450307D01*
X173127691Y-133444357D01*
X173129758Y-133438582D01*
X173132380Y-133433038D01*
X173135533Y-133427777D01*
X173139187Y-133422850D01*
X173143306Y-133418306D01*
X173147850Y-133414187D01*
X173152777Y-133410533D01*
X173158038Y-133407380D01*
X173163582Y-133404758D01*
X173169357Y-133402691D01*
X173175307Y-133401201D01*
X173181374Y-133400301D01*
X173187500Y-133400000D01*
X173312500Y-133400000D01*
X173318626Y-133400301D01*
G37*
G36*
X172818626Y-133400301D02*
G01*
X172824693Y-133401201D01*
X172830643Y-133402691D01*
X172836418Y-133404758D01*
X172841962Y-133407380D01*
X172847223Y-133410533D01*
X172852150Y-133414187D01*
X172856694Y-133418306D01*
X172860813Y-133422850D01*
X172864467Y-133427777D01*
X172867620Y-133433038D01*
X172870242Y-133438582D01*
X172872309Y-133444357D01*
X172873799Y-133450307D01*
X172874699Y-133456374D01*
X172875000Y-133462500D01*
X172875000Y-134212500D01*
X172874699Y-134218626D01*
X172873799Y-134224693D01*
X172872309Y-134230643D01*
X172870242Y-134236418D01*
X172867620Y-134241962D01*
X172864467Y-134247223D01*
X172860813Y-134252150D01*
X172856694Y-134256694D01*
X172852150Y-134260813D01*
X172847223Y-134264467D01*
X172841962Y-134267620D01*
X172836418Y-134270242D01*
X172830643Y-134272309D01*
X172824693Y-134273799D01*
X172818626Y-134274699D01*
X172812500Y-134275000D01*
X172687500Y-134275000D01*
X172681374Y-134274699D01*
X172675307Y-134273799D01*
X172669357Y-134272309D01*
X172663582Y-134270242D01*
X172658038Y-134267620D01*
X172652777Y-134264467D01*
X172647850Y-134260813D01*
X172643306Y-134256694D01*
X172639187Y-134252150D01*
X172635533Y-134247223D01*
X172632380Y-134241962D01*
X172629758Y-134236418D01*
X172627691Y-134230643D01*
X172626201Y-134224693D01*
X172625301Y-134218626D01*
X172625000Y-134212500D01*
X172625000Y-133462500D01*
X172625301Y-133456374D01*
X172626201Y-133450307D01*
X172627691Y-133444357D01*
X172629758Y-133438582D01*
X172632380Y-133433038D01*
X172635533Y-133427777D01*
X172639187Y-133422850D01*
X172643306Y-133418306D01*
X172647850Y-133414187D01*
X172652777Y-133410533D01*
X172658038Y-133407380D01*
X172663582Y-133404758D01*
X172669357Y-133402691D01*
X172675307Y-133401201D01*
X172681374Y-133400301D01*
X172687500Y-133400000D01*
X172812500Y-133400000D01*
X172818626Y-133400301D01*
G37*
G36*
X172318626Y-133400301D02*
G01*
X172324693Y-133401201D01*
X172330643Y-133402691D01*
X172336418Y-133404758D01*
X172341962Y-133407380D01*
X172347223Y-133410533D01*
X172352150Y-133414187D01*
X172356694Y-133418306D01*
X172360813Y-133422850D01*
X172364467Y-133427777D01*
X172367620Y-133433038D01*
X172370242Y-133438582D01*
X172372309Y-133444357D01*
X172373799Y-133450307D01*
X172374699Y-133456374D01*
X172375000Y-133462500D01*
X172375000Y-134212500D01*
X172374699Y-134218626D01*
X172373799Y-134224693D01*
X172372309Y-134230643D01*
X172370242Y-134236418D01*
X172367620Y-134241962D01*
X172364467Y-134247223D01*
X172360813Y-134252150D01*
X172356694Y-134256694D01*
X172352150Y-134260813D01*
X172347223Y-134264467D01*
X172341962Y-134267620D01*
X172336418Y-134270242D01*
X172330643Y-134272309D01*
X172324693Y-134273799D01*
X172318626Y-134274699D01*
X172312500Y-134275000D01*
X172187500Y-134275000D01*
X172181374Y-134274699D01*
X172175307Y-134273799D01*
X172169357Y-134272309D01*
X172163582Y-134270242D01*
X172158038Y-134267620D01*
X172152777Y-134264467D01*
X172147850Y-134260813D01*
X172143306Y-134256694D01*
X172139187Y-134252150D01*
X172135533Y-134247223D01*
X172132380Y-134241962D01*
X172129758Y-134236418D01*
X172127691Y-134230643D01*
X172126201Y-134224693D01*
X172125301Y-134218626D01*
X172125000Y-134212500D01*
X172125000Y-133462500D01*
X172125301Y-133456374D01*
X172126201Y-133450307D01*
X172127691Y-133444357D01*
X172129758Y-133438582D01*
X172132380Y-133433038D01*
X172135533Y-133427777D01*
X172139187Y-133422850D01*
X172143306Y-133418306D01*
X172147850Y-133414187D01*
X172152777Y-133410533D01*
X172158038Y-133407380D01*
X172163582Y-133404758D01*
X172169357Y-133402691D01*
X172175307Y-133401201D01*
X172181374Y-133400301D01*
X172187500Y-133400000D01*
X172312500Y-133400000D01*
X172318626Y-133400301D01*
G37*
G36*
X171943626Y-133025301D02*
G01*
X171949693Y-133026201D01*
X171955643Y-133027691D01*
X171961418Y-133029758D01*
X171966962Y-133032380D01*
X171972223Y-133035533D01*
X171977150Y-133039187D01*
X171981694Y-133043306D01*
X171985813Y-133047850D01*
X171989467Y-133052777D01*
X171992620Y-133058038D01*
X171995242Y-133063582D01*
X171997309Y-133069357D01*
X171998799Y-133075307D01*
X171999699Y-133081374D01*
X172000000Y-133087500D01*
X172000000Y-133212500D01*
X171999699Y-133218626D01*
X171998799Y-133224693D01*
X171997309Y-133230643D01*
X171995242Y-133236418D01*
X171992620Y-133241962D01*
X171989467Y-133247223D01*
X171985813Y-133252150D01*
X171981694Y-133256694D01*
X171977150Y-133260813D01*
X171972223Y-133264467D01*
X171966962Y-133267620D01*
X171961418Y-133270242D01*
X171955643Y-133272309D01*
X171949693Y-133273799D01*
X171943626Y-133274699D01*
X171937500Y-133275000D01*
X171187500Y-133275000D01*
X171181374Y-133274699D01*
X171175307Y-133273799D01*
X171169357Y-133272309D01*
X171163582Y-133270242D01*
X171158038Y-133267620D01*
X171152777Y-133264467D01*
X171147850Y-133260813D01*
X171143306Y-133256694D01*
X171139187Y-133252150D01*
X171135533Y-133247223D01*
X171132380Y-133241962D01*
X171129758Y-133236418D01*
X171127691Y-133230643D01*
X171126201Y-133224693D01*
X171125301Y-133218626D01*
X171125000Y-133212500D01*
X171125000Y-133087500D01*
X171125301Y-133081374D01*
X171126201Y-133075307D01*
X171127691Y-133069357D01*
X171129758Y-133063582D01*
X171132380Y-133058038D01*
X171135533Y-133052777D01*
X171139187Y-133047850D01*
X171143306Y-133043306D01*
X171147850Y-133039187D01*
X171152777Y-133035533D01*
X171158038Y-133032380D01*
X171163582Y-133029758D01*
X171169357Y-133027691D01*
X171175307Y-133026201D01*
X171181374Y-133025301D01*
X171187500Y-133025000D01*
X171937500Y-133025000D01*
X171943626Y-133025301D01*
G37*
G36*
X171943626Y-132525301D02*
G01*
X171949693Y-132526201D01*
X171955643Y-132527691D01*
X171961418Y-132529758D01*
X171966962Y-132532380D01*
X171972223Y-132535533D01*
X171977150Y-132539187D01*
X171981694Y-132543306D01*
X171985813Y-132547850D01*
X171989467Y-132552777D01*
X171992620Y-132558038D01*
X171995242Y-132563582D01*
X171997309Y-132569357D01*
X171998799Y-132575307D01*
X171999699Y-132581374D01*
X172000000Y-132587500D01*
X172000000Y-132712500D01*
X171999699Y-132718626D01*
X171998799Y-132724693D01*
X171997309Y-132730643D01*
X171995242Y-132736418D01*
X171992620Y-132741962D01*
X171989467Y-132747223D01*
X171985813Y-132752150D01*
X171981694Y-132756694D01*
X171977150Y-132760813D01*
X171972223Y-132764467D01*
X171966962Y-132767620D01*
X171961418Y-132770242D01*
X171955643Y-132772309D01*
X171949693Y-132773799D01*
X171943626Y-132774699D01*
X171937500Y-132775000D01*
X171187500Y-132775000D01*
X171181374Y-132774699D01*
X171175307Y-132773799D01*
X171169357Y-132772309D01*
X171163582Y-132770242D01*
X171158038Y-132767620D01*
X171152777Y-132764467D01*
X171147850Y-132760813D01*
X171143306Y-132756694D01*
X171139187Y-132752150D01*
X171135533Y-132747223D01*
X171132380Y-132741962D01*
X171129758Y-132736418D01*
X171127691Y-132730643D01*
X171126201Y-132724693D01*
X171125301Y-132718626D01*
X171125000Y-132712500D01*
X171125000Y-132587500D01*
X171125301Y-132581374D01*
X171126201Y-132575307D01*
X171127691Y-132569357D01*
X171129758Y-132563582D01*
X171132380Y-132558038D01*
X171135533Y-132552777D01*
X171139187Y-132547850D01*
X171143306Y-132543306D01*
X171147850Y-132539187D01*
X171152777Y-132535533D01*
X171158038Y-132532380D01*
X171163582Y-132529758D01*
X171169357Y-132527691D01*
X171175307Y-132526201D01*
X171181374Y-132525301D01*
X171187500Y-132525000D01*
X171937500Y-132525000D01*
X171943626Y-132525301D01*
G37*
G36*
X171943626Y-132025301D02*
G01*
X171949693Y-132026201D01*
X171955643Y-132027691D01*
X171961418Y-132029758D01*
X171966962Y-132032380D01*
X171972223Y-132035533D01*
X171977150Y-132039187D01*
X171981694Y-132043306D01*
X171985813Y-132047850D01*
X171989467Y-132052777D01*
X171992620Y-132058038D01*
X171995242Y-132063582D01*
X171997309Y-132069357D01*
X171998799Y-132075307D01*
X171999699Y-132081374D01*
X172000000Y-132087500D01*
X172000000Y-132212500D01*
X171999699Y-132218626D01*
X171998799Y-132224693D01*
X171997309Y-132230643D01*
X171995242Y-132236418D01*
X171992620Y-132241962D01*
X171989467Y-132247223D01*
X171985813Y-132252150D01*
X171981694Y-132256694D01*
X171977150Y-132260813D01*
X171972223Y-132264467D01*
X171966962Y-132267620D01*
X171961418Y-132270242D01*
X171955643Y-132272309D01*
X171949693Y-132273799D01*
X171943626Y-132274699D01*
X171937500Y-132275000D01*
X171187500Y-132275000D01*
X171181374Y-132274699D01*
X171175307Y-132273799D01*
X171169357Y-132272309D01*
X171163582Y-132270242D01*
X171158038Y-132267620D01*
X171152777Y-132264467D01*
X171147850Y-132260813D01*
X171143306Y-132256694D01*
X171139187Y-132252150D01*
X171135533Y-132247223D01*
X171132380Y-132241962D01*
X171129758Y-132236418D01*
X171127691Y-132230643D01*
X171126201Y-132224693D01*
X171125301Y-132218626D01*
X171125000Y-132212500D01*
X171125000Y-132087500D01*
X171125301Y-132081374D01*
X171126201Y-132075307D01*
X171127691Y-132069357D01*
X171129758Y-132063582D01*
X171132380Y-132058038D01*
X171135533Y-132052777D01*
X171139187Y-132047850D01*
X171143306Y-132043306D01*
X171147850Y-132039187D01*
X171152777Y-132035533D01*
X171158038Y-132032380D01*
X171163582Y-132029758D01*
X171169357Y-132027691D01*
X171175307Y-132026201D01*
X171181374Y-132025301D01*
X171187500Y-132025000D01*
X171937500Y-132025000D01*
X171943626Y-132025301D01*
G37*
G36*
X171943626Y-131525301D02*
G01*
X171949693Y-131526201D01*
X171955643Y-131527691D01*
X171961418Y-131529758D01*
X171966962Y-131532380D01*
X171972223Y-131535533D01*
X171977150Y-131539187D01*
X171981694Y-131543306D01*
X171985813Y-131547850D01*
X171989467Y-131552777D01*
X171992620Y-131558038D01*
X171995242Y-131563582D01*
X171997309Y-131569357D01*
X171998799Y-131575307D01*
X171999699Y-131581374D01*
X172000000Y-131587500D01*
X172000000Y-131712500D01*
X171999699Y-131718626D01*
X171998799Y-131724693D01*
X171997309Y-131730643D01*
X171995242Y-131736418D01*
X171992620Y-131741962D01*
X171989467Y-131747223D01*
X171985813Y-131752150D01*
X171981694Y-131756694D01*
X171977150Y-131760813D01*
X171972223Y-131764467D01*
X171966962Y-131767620D01*
X171961418Y-131770242D01*
X171955643Y-131772309D01*
X171949693Y-131773799D01*
X171943626Y-131774699D01*
X171937500Y-131775000D01*
X171187500Y-131775000D01*
X171181374Y-131774699D01*
X171175307Y-131773799D01*
X171169357Y-131772309D01*
X171163582Y-131770242D01*
X171158038Y-131767620D01*
X171152777Y-131764467D01*
X171147850Y-131760813D01*
X171143306Y-131756694D01*
X171139187Y-131752150D01*
X171135533Y-131747223D01*
X171132380Y-131741962D01*
X171129758Y-131736418D01*
X171127691Y-131730643D01*
X171126201Y-131724693D01*
X171125301Y-131718626D01*
X171125000Y-131712500D01*
X171125000Y-131587500D01*
X171125301Y-131581374D01*
X171126201Y-131575307D01*
X171127691Y-131569357D01*
X171129758Y-131563582D01*
X171132380Y-131558038D01*
X171135533Y-131552777D01*
X171139187Y-131547850D01*
X171143306Y-131543306D01*
X171147850Y-131539187D01*
X171152777Y-131535533D01*
X171158038Y-131532380D01*
X171163582Y-131529758D01*
X171169357Y-131527691D01*
X171175307Y-131526201D01*
X171181374Y-131525301D01*
X171187500Y-131525000D01*
X171937500Y-131525000D01*
X171943626Y-131525301D01*
G37*
G36*
X172318626Y-130525301D02*
G01*
X172324693Y-130526201D01*
X172330643Y-130527691D01*
X172336418Y-130529758D01*
X172341962Y-130532380D01*
X172347223Y-130535533D01*
X172352150Y-130539187D01*
X172356694Y-130543306D01*
X172360813Y-130547850D01*
X172364467Y-130552777D01*
X172367620Y-130558038D01*
X172370242Y-130563582D01*
X172372309Y-130569357D01*
X172373799Y-130575307D01*
X172374699Y-130581374D01*
X172375000Y-130587500D01*
X172375000Y-131337500D01*
X172374699Y-131343626D01*
X172373799Y-131349693D01*
X172372309Y-131355643D01*
X172370242Y-131361418D01*
X172367620Y-131366962D01*
X172364467Y-131372223D01*
X172360813Y-131377150D01*
X172356694Y-131381694D01*
X172352150Y-131385813D01*
X172347223Y-131389467D01*
X172341962Y-131392620D01*
X172336418Y-131395242D01*
X172330643Y-131397309D01*
X172324693Y-131398799D01*
X172318626Y-131399699D01*
X172312500Y-131400000D01*
X172187500Y-131400000D01*
X172181374Y-131399699D01*
X172175307Y-131398799D01*
X172169357Y-131397309D01*
X172163582Y-131395242D01*
X172158038Y-131392620D01*
X172152777Y-131389467D01*
X172147850Y-131385813D01*
X172143306Y-131381694D01*
X172139187Y-131377150D01*
X172135533Y-131372223D01*
X172132380Y-131366962D01*
X172129758Y-131361418D01*
X172127691Y-131355643D01*
X172126201Y-131349693D01*
X172125301Y-131343626D01*
X172125000Y-131337500D01*
X172125000Y-130587500D01*
X172125301Y-130581374D01*
X172126201Y-130575307D01*
X172127691Y-130569357D01*
X172129758Y-130563582D01*
X172132380Y-130558038D01*
X172135533Y-130552777D01*
X172139187Y-130547850D01*
X172143306Y-130543306D01*
X172147850Y-130539187D01*
X172152777Y-130535533D01*
X172158038Y-130532380D01*
X172163582Y-130529758D01*
X172169357Y-130527691D01*
X172175307Y-130526201D01*
X172181374Y-130525301D01*
X172187500Y-130525000D01*
X172312500Y-130525000D01*
X172318626Y-130525301D01*
G37*
G36*
X172818626Y-130525301D02*
G01*
X172824693Y-130526201D01*
X172830643Y-130527691D01*
X172836418Y-130529758D01*
X172841962Y-130532380D01*
X172847223Y-130535533D01*
X172852150Y-130539187D01*
X172856694Y-130543306D01*
X172860813Y-130547850D01*
X172864467Y-130552777D01*
X172867620Y-130558038D01*
X172870242Y-130563582D01*
X172872309Y-130569357D01*
X172873799Y-130575307D01*
X172874699Y-130581374D01*
X172875000Y-130587500D01*
X172875000Y-131337500D01*
X172874699Y-131343626D01*
X172873799Y-131349693D01*
X172872309Y-131355643D01*
X172870242Y-131361418D01*
X172867620Y-131366962D01*
X172864467Y-131372223D01*
X172860813Y-131377150D01*
X172856694Y-131381694D01*
X172852150Y-131385813D01*
X172847223Y-131389467D01*
X172841962Y-131392620D01*
X172836418Y-131395242D01*
X172830643Y-131397309D01*
X172824693Y-131398799D01*
X172818626Y-131399699D01*
X172812500Y-131400000D01*
X172687500Y-131400000D01*
X172681374Y-131399699D01*
X172675307Y-131398799D01*
X172669357Y-131397309D01*
X172663582Y-131395242D01*
X172658038Y-131392620D01*
X172652777Y-131389467D01*
X172647850Y-131385813D01*
X172643306Y-131381694D01*
X172639187Y-131377150D01*
X172635533Y-131372223D01*
X172632380Y-131366962D01*
X172629758Y-131361418D01*
X172627691Y-131355643D01*
X172626201Y-131349693D01*
X172625301Y-131343626D01*
X172625000Y-131337500D01*
X172625000Y-130587500D01*
X172625301Y-130581374D01*
X172626201Y-130575307D01*
X172627691Y-130569357D01*
X172629758Y-130563582D01*
X172632380Y-130558038D01*
X172635533Y-130552777D01*
X172639187Y-130547850D01*
X172643306Y-130543306D01*
X172647850Y-130539187D01*
X172652777Y-130535533D01*
X172658038Y-130532380D01*
X172663582Y-130529758D01*
X172669357Y-130527691D01*
X172675307Y-130526201D01*
X172681374Y-130525301D01*
X172687500Y-130525000D01*
X172812500Y-130525000D01*
X172818626Y-130525301D01*
G37*
G36*
X173318626Y-130525301D02*
G01*
X173324693Y-130526201D01*
X173330643Y-130527691D01*
X173336418Y-130529758D01*
X173341962Y-130532380D01*
X173347223Y-130535533D01*
X173352150Y-130539187D01*
X173356694Y-130543306D01*
X173360813Y-130547850D01*
X173364467Y-130552777D01*
X173367620Y-130558038D01*
X173370242Y-130563582D01*
X173372309Y-130569357D01*
X173373799Y-130575307D01*
X173374699Y-130581374D01*
X173375000Y-130587500D01*
X173375000Y-131337500D01*
X173374699Y-131343626D01*
X173373799Y-131349693D01*
X173372309Y-131355643D01*
X173370242Y-131361418D01*
X173367620Y-131366962D01*
X173364467Y-131372223D01*
X173360813Y-131377150D01*
X173356694Y-131381694D01*
X173352150Y-131385813D01*
X173347223Y-131389467D01*
X173341962Y-131392620D01*
X173336418Y-131395242D01*
X173330643Y-131397309D01*
X173324693Y-131398799D01*
X173318626Y-131399699D01*
X173312500Y-131400000D01*
X173187500Y-131400000D01*
X173181374Y-131399699D01*
X173175307Y-131398799D01*
X173169357Y-131397309D01*
X173163582Y-131395242D01*
X173158038Y-131392620D01*
X173152777Y-131389467D01*
X173147850Y-131385813D01*
X173143306Y-131381694D01*
X173139187Y-131377150D01*
X173135533Y-131372223D01*
X173132380Y-131366962D01*
X173129758Y-131361418D01*
X173127691Y-131355643D01*
X173126201Y-131349693D01*
X173125301Y-131343626D01*
X173125000Y-131337500D01*
X173125000Y-130587500D01*
X173125301Y-130581374D01*
X173126201Y-130575307D01*
X173127691Y-130569357D01*
X173129758Y-130563582D01*
X173132380Y-130558038D01*
X173135533Y-130552777D01*
X173139187Y-130547850D01*
X173143306Y-130543306D01*
X173147850Y-130539187D01*
X173152777Y-130535533D01*
X173158038Y-130532380D01*
X173163582Y-130529758D01*
X173169357Y-130527691D01*
X173175307Y-130526201D01*
X173181374Y-130525301D01*
X173187500Y-130525000D01*
X173312500Y-130525000D01*
X173318626Y-130525301D01*
G37*
G36*
X173818626Y-130525301D02*
G01*
X173824693Y-130526201D01*
X173830643Y-130527691D01*
X173836418Y-130529758D01*
X173841962Y-130532380D01*
X173847223Y-130535533D01*
X173852150Y-130539187D01*
X173856694Y-130543306D01*
X173860813Y-130547850D01*
X173864467Y-130552777D01*
X173867620Y-130558038D01*
X173870242Y-130563582D01*
X173872309Y-130569357D01*
X173873799Y-130575307D01*
X173874699Y-130581374D01*
X173875000Y-130587500D01*
X173875000Y-131337500D01*
X173874699Y-131343626D01*
X173873799Y-131349693D01*
X173872309Y-131355643D01*
X173870242Y-131361418D01*
X173867620Y-131366962D01*
X173864467Y-131372223D01*
X173860813Y-131377150D01*
X173856694Y-131381694D01*
X173852150Y-131385813D01*
X173847223Y-131389467D01*
X173841962Y-131392620D01*
X173836418Y-131395242D01*
X173830643Y-131397309D01*
X173824693Y-131398799D01*
X173818626Y-131399699D01*
X173812500Y-131400000D01*
X173687500Y-131400000D01*
X173681374Y-131399699D01*
X173675307Y-131398799D01*
X173669357Y-131397309D01*
X173663582Y-131395242D01*
X173658038Y-131392620D01*
X173652777Y-131389467D01*
X173647850Y-131385813D01*
X173643306Y-131381694D01*
X173639187Y-131377150D01*
X173635533Y-131372223D01*
X173632380Y-131366962D01*
X173629758Y-131361418D01*
X173627691Y-131355643D01*
X173626201Y-131349693D01*
X173625301Y-131343626D01*
X173625000Y-131337500D01*
X173625000Y-130587500D01*
X173625301Y-130581374D01*
X173626201Y-130575307D01*
X173627691Y-130569357D01*
X173629758Y-130563582D01*
X173632380Y-130558038D01*
X173635533Y-130552777D01*
X173639187Y-130547850D01*
X173643306Y-130543306D01*
X173647850Y-130539187D01*
X173652777Y-130535533D01*
X173658038Y-130532380D01*
X173663582Y-130529758D01*
X173669357Y-130527691D01*
X173675307Y-130526201D01*
X173681374Y-130525301D01*
X173687500Y-130525000D01*
X173812500Y-130525000D01*
X173818626Y-130525301D01*
G37*
G36*
X174818626Y-131525301D02*
G01*
X174824693Y-131526201D01*
X174830643Y-131527691D01*
X174836418Y-131529758D01*
X174841962Y-131532380D01*
X174847223Y-131535533D01*
X174852150Y-131539187D01*
X174856694Y-131543306D01*
X174860813Y-131547850D01*
X174864467Y-131552777D01*
X174867620Y-131558038D01*
X174870242Y-131563582D01*
X174872309Y-131569357D01*
X174873799Y-131575307D01*
X174874699Y-131581374D01*
X174875000Y-131587500D01*
X174875000Y-131712500D01*
X174874699Y-131718626D01*
X174873799Y-131724693D01*
X174872309Y-131730643D01*
X174870242Y-131736418D01*
X174867620Y-131741962D01*
X174864467Y-131747223D01*
X174860813Y-131752150D01*
X174856694Y-131756694D01*
X174852150Y-131760813D01*
X174847223Y-131764467D01*
X174841962Y-131767620D01*
X174836418Y-131770242D01*
X174830643Y-131772309D01*
X174824693Y-131773799D01*
X174818626Y-131774699D01*
X174812500Y-131775000D01*
X174062500Y-131775000D01*
X174056374Y-131774699D01*
X174050307Y-131773799D01*
X174044357Y-131772309D01*
X174038582Y-131770242D01*
X174033038Y-131767620D01*
X174027777Y-131764467D01*
X174022850Y-131760813D01*
X174018306Y-131756694D01*
X174014187Y-131752150D01*
X174010533Y-131747223D01*
X174007380Y-131741962D01*
X174004758Y-131736418D01*
X174002691Y-131730643D01*
X174001201Y-131724693D01*
X174000301Y-131718626D01*
X174000000Y-131712500D01*
X174000000Y-131587500D01*
X174000301Y-131581374D01*
X174001201Y-131575307D01*
X174002691Y-131569357D01*
X174004758Y-131563582D01*
X174007380Y-131558038D01*
X174010533Y-131552777D01*
X174014187Y-131547850D01*
X174018306Y-131543306D01*
X174022850Y-131539187D01*
X174027777Y-131535533D01*
X174033038Y-131532380D01*
X174038582Y-131529758D01*
X174044357Y-131527691D01*
X174050307Y-131526201D01*
X174056374Y-131525301D01*
X174062500Y-131525000D01*
X174812500Y-131525000D01*
X174818626Y-131525301D01*
G37*
G36*
X174818626Y-132025301D02*
G01*
X174824693Y-132026201D01*
X174830643Y-132027691D01*
X174836418Y-132029758D01*
X174841962Y-132032380D01*
X174847223Y-132035533D01*
X174852150Y-132039187D01*
X174856694Y-132043306D01*
X174860813Y-132047850D01*
X174864467Y-132052777D01*
X174867620Y-132058038D01*
X174870242Y-132063582D01*
X174872309Y-132069357D01*
X174873799Y-132075307D01*
X174874699Y-132081374D01*
X174875000Y-132087500D01*
X174875000Y-132212500D01*
X174874699Y-132218626D01*
X174873799Y-132224693D01*
X174872309Y-132230643D01*
X174870242Y-132236418D01*
X174867620Y-132241962D01*
X174864467Y-132247223D01*
X174860813Y-132252150D01*
X174856694Y-132256694D01*
X174852150Y-132260813D01*
X174847223Y-132264467D01*
X174841962Y-132267620D01*
X174836418Y-132270242D01*
X174830643Y-132272309D01*
X174824693Y-132273799D01*
X174818626Y-132274699D01*
X174812500Y-132275000D01*
X174062500Y-132275000D01*
X174056374Y-132274699D01*
X174050307Y-132273799D01*
X174044357Y-132272309D01*
X174038582Y-132270242D01*
X174033038Y-132267620D01*
X174027777Y-132264467D01*
X174022850Y-132260813D01*
X174018306Y-132256694D01*
X174014187Y-132252150D01*
X174010533Y-132247223D01*
X174007380Y-132241962D01*
X174004758Y-132236418D01*
X174002691Y-132230643D01*
X174001201Y-132224693D01*
X174000301Y-132218626D01*
X174000000Y-132212500D01*
X174000000Y-132087500D01*
X174000301Y-132081374D01*
X174001201Y-132075307D01*
X174002691Y-132069357D01*
X174004758Y-132063582D01*
X174007380Y-132058038D01*
X174010533Y-132052777D01*
X174014187Y-132047850D01*
X174018306Y-132043306D01*
X174022850Y-132039187D01*
X174027777Y-132035533D01*
X174033038Y-132032380D01*
X174038582Y-132029758D01*
X174044357Y-132027691D01*
X174050307Y-132026201D01*
X174056374Y-132025301D01*
X174062500Y-132025000D01*
X174812500Y-132025000D01*
X174818626Y-132025301D01*
G37*
G36*
X174818626Y-132525301D02*
G01*
X174824693Y-132526201D01*
X174830643Y-132527691D01*
X174836418Y-132529758D01*
X174841962Y-132532380D01*
X174847223Y-132535533D01*
X174852150Y-132539187D01*
X174856694Y-132543306D01*
X174860813Y-132547850D01*
X174864467Y-132552777D01*
X174867620Y-132558038D01*
X174870242Y-132563582D01*
X174872309Y-132569357D01*
X174873799Y-132575307D01*
X174874699Y-132581374D01*
X174875000Y-132587500D01*
X174875000Y-132712500D01*
X174874699Y-132718626D01*
X174873799Y-132724693D01*
X174872309Y-132730643D01*
X174870242Y-132736418D01*
X174867620Y-132741962D01*
X174864467Y-132747223D01*
X174860813Y-132752150D01*
X174856694Y-132756694D01*
X174852150Y-132760813D01*
X174847223Y-132764467D01*
X174841962Y-132767620D01*
X174836418Y-132770242D01*
X174830643Y-132772309D01*
X174824693Y-132773799D01*
X174818626Y-132774699D01*
X174812500Y-132775000D01*
X174062500Y-132775000D01*
X174056374Y-132774699D01*
X174050307Y-132773799D01*
X174044357Y-132772309D01*
X174038582Y-132770242D01*
X174033038Y-132767620D01*
X174027777Y-132764467D01*
X174022850Y-132760813D01*
X174018306Y-132756694D01*
X174014187Y-132752150D01*
X174010533Y-132747223D01*
X174007380Y-132741962D01*
X174004758Y-132736418D01*
X174002691Y-132730643D01*
X174001201Y-132724693D01*
X174000301Y-132718626D01*
X174000000Y-132712500D01*
X174000000Y-132587500D01*
X174000301Y-132581374D01*
X174001201Y-132575307D01*
X174002691Y-132569357D01*
X174004758Y-132563582D01*
X174007380Y-132558038D01*
X174010533Y-132552777D01*
X174014187Y-132547850D01*
X174018306Y-132543306D01*
X174022850Y-132539187D01*
X174027777Y-132535533D01*
X174033038Y-132532380D01*
X174038582Y-132529758D01*
X174044357Y-132527691D01*
X174050307Y-132526201D01*
X174056374Y-132525301D01*
X174062500Y-132525000D01*
X174812500Y-132525000D01*
X174818626Y-132525301D01*
G37*
G36*
X174818626Y-133025301D02*
G01*
X174824693Y-133026201D01*
X174830643Y-133027691D01*
X174836418Y-133029758D01*
X174841962Y-133032380D01*
X174847223Y-133035533D01*
X174852150Y-133039187D01*
X174856694Y-133043306D01*
X174860813Y-133047850D01*
X174864467Y-133052777D01*
X174867620Y-133058038D01*
X174870242Y-133063582D01*
X174872309Y-133069357D01*
X174873799Y-133075307D01*
X174874699Y-133081374D01*
X174875000Y-133087500D01*
X174875000Y-133212500D01*
X174874699Y-133218626D01*
X174873799Y-133224693D01*
X174872309Y-133230643D01*
X174870242Y-133236418D01*
X174867620Y-133241962D01*
X174864467Y-133247223D01*
X174860813Y-133252150D01*
X174856694Y-133256694D01*
X174852150Y-133260813D01*
X174847223Y-133264467D01*
X174841962Y-133267620D01*
X174836418Y-133270242D01*
X174830643Y-133272309D01*
X174824693Y-133273799D01*
X174818626Y-133274699D01*
X174812500Y-133275000D01*
X174062500Y-133275000D01*
X174056374Y-133274699D01*
X174050307Y-133273799D01*
X174044357Y-133272309D01*
X174038582Y-133270242D01*
X174033038Y-133267620D01*
X174027777Y-133264467D01*
X174022850Y-133260813D01*
X174018306Y-133256694D01*
X174014187Y-133252150D01*
X174010533Y-133247223D01*
X174007380Y-133241962D01*
X174004758Y-133236418D01*
X174002691Y-133230643D01*
X174001201Y-133224693D01*
X174000301Y-133218626D01*
X174000000Y-133212500D01*
X174000000Y-133087500D01*
X174000301Y-133081374D01*
X174001201Y-133075307D01*
X174002691Y-133069357D01*
X174004758Y-133063582D01*
X174007380Y-133058038D01*
X174010533Y-133052777D01*
X174014187Y-133047850D01*
X174018306Y-133043306D01*
X174022850Y-133039187D01*
X174027777Y-133035533D01*
X174033038Y-133032380D01*
X174038582Y-133029758D01*
X174044357Y-133027691D01*
X174050307Y-133026201D01*
X174056374Y-133025301D01*
X174062500Y-133025000D01*
X174812500Y-133025000D01*
X174818626Y-133025301D01*
G37*
G36*
X172775683Y-131680770D02*
G01*
X172791214Y-131683074D01*
X172806446Y-131686890D01*
X172821229Y-131692179D01*
X172835423Y-131698893D01*
X172848891Y-131706965D01*
X172861503Y-131716318D01*
X172873137Y-131726863D01*
X172883682Y-131738497D01*
X172893035Y-131751109D01*
X172901107Y-131764577D01*
X172907821Y-131778771D01*
X172913110Y-131793554D01*
X172916926Y-131808786D01*
X172919230Y-131824317D01*
X172920000Y-131840000D01*
X172920000Y-132160000D01*
X172919230Y-132175683D01*
X172916926Y-132191214D01*
X172913110Y-132206446D01*
X172907821Y-132221229D01*
X172901107Y-132235423D01*
X172893035Y-132248891D01*
X172883682Y-132261503D01*
X172873137Y-132273137D01*
X172861503Y-132283682D01*
X172848891Y-132293035D01*
X172835423Y-132301107D01*
X172821229Y-132307821D01*
X172806446Y-132313110D01*
X172791214Y-132316926D01*
X172775683Y-132319230D01*
X172760000Y-132320000D01*
X172440000Y-132320000D01*
X172424317Y-132319230D01*
X172408786Y-132316926D01*
X172393554Y-132313110D01*
X172378771Y-132307821D01*
X172364577Y-132301107D01*
X172351109Y-132293035D01*
X172338497Y-132283682D01*
X172326863Y-132273137D01*
X172316318Y-132261503D01*
X172306965Y-132248891D01*
X172298893Y-132235423D01*
X172292179Y-132221229D01*
X172286890Y-132206446D01*
X172283074Y-132191214D01*
X172280770Y-132175683D01*
X172280000Y-132160000D01*
X172280000Y-131840000D01*
X172280770Y-131824317D01*
X172283074Y-131808786D01*
X172286890Y-131793554D01*
X172292179Y-131778771D01*
X172298893Y-131764577D01*
X172306965Y-131751109D01*
X172316318Y-131738497D01*
X172326863Y-131726863D01*
X172338497Y-131716318D01*
X172351109Y-131706965D01*
X172364577Y-131698893D01*
X172378771Y-131692179D01*
X172393554Y-131686890D01*
X172408786Y-131683074D01*
X172424317Y-131680770D01*
X172440000Y-131680000D01*
X172760000Y-131680000D01*
X172775683Y-131680770D01*
G37*
G36*
X172775683Y-132480770D02*
G01*
X172791214Y-132483074D01*
X172806446Y-132486890D01*
X172821229Y-132492179D01*
X172835423Y-132498893D01*
X172848891Y-132506965D01*
X172861503Y-132516318D01*
X172873137Y-132526863D01*
X172883682Y-132538497D01*
X172893035Y-132551109D01*
X172901107Y-132564577D01*
X172907821Y-132578771D01*
X172913110Y-132593554D01*
X172916926Y-132608786D01*
X172919230Y-132624317D01*
X172920000Y-132640000D01*
X172920000Y-132960000D01*
X172919230Y-132975683D01*
X172916926Y-132991214D01*
X172913110Y-133006446D01*
X172907821Y-133021229D01*
X172901107Y-133035423D01*
X172893035Y-133048891D01*
X172883682Y-133061503D01*
X172873137Y-133073137D01*
X172861503Y-133083682D01*
X172848891Y-133093035D01*
X172835423Y-133101107D01*
X172821229Y-133107821D01*
X172806446Y-133113110D01*
X172791214Y-133116926D01*
X172775683Y-133119230D01*
X172760000Y-133120000D01*
X172440000Y-133120000D01*
X172424317Y-133119230D01*
X172408786Y-133116926D01*
X172393554Y-133113110D01*
X172378771Y-133107821D01*
X172364577Y-133101107D01*
X172351109Y-133093035D01*
X172338497Y-133083682D01*
X172326863Y-133073137D01*
X172316318Y-133061503D01*
X172306965Y-133048891D01*
X172298893Y-133035423D01*
X172292179Y-133021229D01*
X172286890Y-133006446D01*
X172283074Y-132991214D01*
X172280770Y-132975683D01*
X172280000Y-132960000D01*
X172280000Y-132640000D01*
X172280770Y-132624317D01*
X172283074Y-132608786D01*
X172286890Y-132593554D01*
X172292179Y-132578771D01*
X172298893Y-132564577D01*
X172306965Y-132551109D01*
X172316318Y-132538497D01*
X172326863Y-132526863D01*
X172338497Y-132516318D01*
X172351109Y-132506965D01*
X172364577Y-132498893D01*
X172378771Y-132492179D01*
X172393554Y-132486890D01*
X172408786Y-132483074D01*
X172424317Y-132480770D01*
X172440000Y-132480000D01*
X172760000Y-132480000D01*
X172775683Y-132480770D01*
G37*
G36*
X173575683Y-131680770D02*
G01*
X173591214Y-131683074D01*
X173606446Y-131686890D01*
X173621229Y-131692179D01*
X173635423Y-131698893D01*
X173648891Y-131706965D01*
X173661503Y-131716318D01*
X173673137Y-131726863D01*
X173683682Y-131738497D01*
X173693035Y-131751109D01*
X173701107Y-131764577D01*
X173707821Y-131778771D01*
X173713110Y-131793554D01*
X173716926Y-131808786D01*
X173719230Y-131824317D01*
X173720000Y-131840000D01*
X173720000Y-132160000D01*
X173719230Y-132175683D01*
X173716926Y-132191214D01*
X173713110Y-132206446D01*
X173707821Y-132221229D01*
X173701107Y-132235423D01*
X173693035Y-132248891D01*
X173683682Y-132261503D01*
X173673137Y-132273137D01*
X173661503Y-132283682D01*
X173648891Y-132293035D01*
X173635423Y-132301107D01*
X173621229Y-132307821D01*
X173606446Y-132313110D01*
X173591214Y-132316926D01*
X173575683Y-132319230D01*
X173560000Y-132320000D01*
X173240000Y-132320000D01*
X173224317Y-132319230D01*
X173208786Y-132316926D01*
X173193554Y-132313110D01*
X173178771Y-132307821D01*
X173164577Y-132301107D01*
X173151109Y-132293035D01*
X173138497Y-132283682D01*
X173126863Y-132273137D01*
X173116318Y-132261503D01*
X173106965Y-132248891D01*
X173098893Y-132235423D01*
X173092179Y-132221229D01*
X173086890Y-132206446D01*
X173083074Y-132191214D01*
X173080770Y-132175683D01*
X173080000Y-132160000D01*
X173080000Y-131840000D01*
X173080770Y-131824317D01*
X173083074Y-131808786D01*
X173086890Y-131793554D01*
X173092179Y-131778771D01*
X173098893Y-131764577D01*
X173106965Y-131751109D01*
X173116318Y-131738497D01*
X173126863Y-131726863D01*
X173138497Y-131716318D01*
X173151109Y-131706965D01*
X173164577Y-131698893D01*
X173178771Y-131692179D01*
X173193554Y-131686890D01*
X173208786Y-131683074D01*
X173224317Y-131680770D01*
X173240000Y-131680000D01*
X173560000Y-131680000D01*
X173575683Y-131680770D01*
G37*
G36*
X173575683Y-132480770D02*
G01*
X173591214Y-132483074D01*
X173606446Y-132486890D01*
X173621229Y-132492179D01*
X173635423Y-132498893D01*
X173648891Y-132506965D01*
X173661503Y-132516318D01*
X173673137Y-132526863D01*
X173683682Y-132538497D01*
X173693035Y-132551109D01*
X173701107Y-132564577D01*
X173707821Y-132578771D01*
X173713110Y-132593554D01*
X173716926Y-132608786D01*
X173719230Y-132624317D01*
X173720000Y-132640000D01*
X173720000Y-132960000D01*
X173719230Y-132975683D01*
X173716926Y-132991214D01*
X173713110Y-133006446D01*
X173707821Y-133021229D01*
X173701107Y-133035423D01*
X173693035Y-133048891D01*
X173683682Y-133061503D01*
X173673137Y-133073137D01*
X173661503Y-133083682D01*
X173648891Y-133093035D01*
X173635423Y-133101107D01*
X173621229Y-133107821D01*
X173606446Y-133113110D01*
X173591214Y-133116926D01*
X173575683Y-133119230D01*
X173560000Y-133120000D01*
X173240000Y-133120000D01*
X173224317Y-133119230D01*
X173208786Y-133116926D01*
X173193554Y-133113110D01*
X173178771Y-133107821D01*
X173164577Y-133101107D01*
X173151109Y-133093035D01*
X173138497Y-133083682D01*
X173126863Y-133073137D01*
X173116318Y-133061503D01*
X173106965Y-133048891D01*
X173098893Y-133035423D01*
X173092179Y-133021229D01*
X173086890Y-133006446D01*
X173083074Y-132991214D01*
X173080770Y-132975683D01*
X173080000Y-132960000D01*
X173080000Y-132640000D01*
X173080770Y-132624317D01*
X173083074Y-132608786D01*
X173086890Y-132593554D01*
X173092179Y-132578771D01*
X173098893Y-132564577D01*
X173106965Y-132551109D01*
X173116318Y-132538497D01*
X173126863Y-132526863D01*
X173138497Y-132516318D01*
X173151109Y-132506965D01*
X173164577Y-132498893D01*
X173178771Y-132492179D01*
X173193554Y-132486890D01*
X173208786Y-132483074D01*
X173224317Y-132480770D01*
X173240000Y-132480000D01*
X173560000Y-132480000D01*
X173575683Y-132480770D01*
G37*
G36*
X164480142Y-136776174D02*
G01*
X164503803Y-136779684D01*
X164527007Y-136785496D01*
X164549529Y-136793554D01*
X164571153Y-136803782D01*
X164591670Y-136816079D01*
X164610883Y-136830329D01*
X164628607Y-136846393D01*
X164644671Y-136864117D01*
X164658921Y-136883330D01*
X164671218Y-136903847D01*
X164681446Y-136925471D01*
X164689504Y-136947993D01*
X164695316Y-136971197D01*
X164698826Y-136994858D01*
X164700000Y-137018750D01*
X164700000Y-137506250D01*
X164698826Y-137530142D01*
X164695316Y-137553803D01*
X164689504Y-137577007D01*
X164681446Y-137599529D01*
X164671218Y-137621153D01*
X164658921Y-137641670D01*
X164644671Y-137660883D01*
X164628607Y-137678607D01*
X164610883Y-137694671D01*
X164591670Y-137708921D01*
X164571153Y-137721218D01*
X164549529Y-137731446D01*
X164527007Y-137739504D01*
X164503803Y-137745316D01*
X164480142Y-137748826D01*
X164456250Y-137750000D01*
X163543750Y-137750000D01*
X163519858Y-137748826D01*
X163496197Y-137745316D01*
X163472993Y-137739504D01*
X163450471Y-137731446D01*
X163428847Y-137721218D01*
X163408330Y-137708921D01*
X163389117Y-137694671D01*
X163371393Y-137678607D01*
X163355329Y-137660883D01*
X163341079Y-137641670D01*
X163328782Y-137621153D01*
X163318554Y-137599529D01*
X163310496Y-137577007D01*
X163304684Y-137553803D01*
X163301174Y-137530142D01*
X163300000Y-137506250D01*
X163300000Y-137018750D01*
X163301174Y-136994858D01*
X163304684Y-136971197D01*
X163310496Y-136947993D01*
X163318554Y-136925471D01*
X163328782Y-136903847D01*
X163341079Y-136883330D01*
X163355329Y-136864117D01*
X163371393Y-136846393D01*
X163389117Y-136830329D01*
X163408330Y-136816079D01*
X163428847Y-136803782D01*
X163450471Y-136793554D01*
X163472993Y-136785496D01*
X163496197Y-136779684D01*
X163519858Y-136776174D01*
X163543750Y-136775000D01*
X164456250Y-136775000D01*
X164480142Y-136776174D01*
G37*
G36*
X164480142Y-138651174D02*
G01*
X164503803Y-138654684D01*
X164527007Y-138660496D01*
X164549529Y-138668554D01*
X164571153Y-138678782D01*
X164591670Y-138691079D01*
X164610883Y-138705329D01*
X164628607Y-138721393D01*
X164644671Y-138739117D01*
X164658921Y-138758330D01*
X164671218Y-138778847D01*
X164681446Y-138800471D01*
X164689504Y-138822993D01*
X164695316Y-138846197D01*
X164698826Y-138869858D01*
X164700000Y-138893750D01*
X164700000Y-139381250D01*
X164698826Y-139405142D01*
X164695316Y-139428803D01*
X164689504Y-139452007D01*
X164681446Y-139474529D01*
X164671218Y-139496153D01*
X164658921Y-139516670D01*
X164644671Y-139535883D01*
X164628607Y-139553607D01*
X164610883Y-139569671D01*
X164591670Y-139583921D01*
X164571153Y-139596218D01*
X164549529Y-139606446D01*
X164527007Y-139614504D01*
X164503803Y-139620316D01*
X164480142Y-139623826D01*
X164456250Y-139625000D01*
X163543750Y-139625000D01*
X163519858Y-139623826D01*
X163496197Y-139620316D01*
X163472993Y-139614504D01*
X163450471Y-139606446D01*
X163428847Y-139596218D01*
X163408330Y-139583921D01*
X163389117Y-139569671D01*
X163371393Y-139553607D01*
X163355329Y-139535883D01*
X163341079Y-139516670D01*
X163328782Y-139496153D01*
X163318554Y-139474529D01*
X163310496Y-139452007D01*
X163304684Y-139428803D01*
X163301174Y-139405142D01*
X163300000Y-139381250D01*
X163300000Y-138893750D01*
X163301174Y-138869858D01*
X163304684Y-138846197D01*
X163310496Y-138822993D01*
X163318554Y-138800471D01*
X163328782Y-138778847D01*
X163341079Y-138758330D01*
X163355329Y-138739117D01*
X163371393Y-138721393D01*
X163389117Y-138705329D01*
X163408330Y-138691079D01*
X163428847Y-138678782D01*
X163450471Y-138668554D01*
X163472993Y-138660496D01*
X163496197Y-138654684D01*
X163519858Y-138651174D01*
X163543750Y-138650000D01*
X164456250Y-138650000D01*
X164480142Y-138651174D01*
G37*
G36*
X167180142Y-136776174D02*
G01*
X167203803Y-136779684D01*
X167227007Y-136785496D01*
X167249529Y-136793554D01*
X167271153Y-136803782D01*
X167291670Y-136816079D01*
X167310883Y-136830329D01*
X167328607Y-136846393D01*
X167344671Y-136864117D01*
X167358921Y-136883330D01*
X167371218Y-136903847D01*
X167381446Y-136925471D01*
X167389504Y-136947993D01*
X167395316Y-136971197D01*
X167398826Y-136994858D01*
X167400000Y-137018750D01*
X167400000Y-137506250D01*
X167398826Y-137530142D01*
X167395316Y-137553803D01*
X167389504Y-137577007D01*
X167381446Y-137599529D01*
X167371218Y-137621153D01*
X167358921Y-137641670D01*
X167344671Y-137660883D01*
X167328607Y-137678607D01*
X167310883Y-137694671D01*
X167291670Y-137708921D01*
X167271153Y-137721218D01*
X167249529Y-137731446D01*
X167227007Y-137739504D01*
X167203803Y-137745316D01*
X167180142Y-137748826D01*
X167156250Y-137750000D01*
X166243750Y-137750000D01*
X166219858Y-137748826D01*
X166196197Y-137745316D01*
X166172993Y-137739504D01*
X166150471Y-137731446D01*
X166128847Y-137721218D01*
X166108330Y-137708921D01*
X166089117Y-137694671D01*
X166071393Y-137678607D01*
X166055329Y-137660883D01*
X166041079Y-137641670D01*
X166028782Y-137621153D01*
X166018554Y-137599529D01*
X166010496Y-137577007D01*
X166004684Y-137553803D01*
X166001174Y-137530142D01*
X166000000Y-137506250D01*
X166000000Y-137018750D01*
X166001174Y-136994858D01*
X166004684Y-136971197D01*
X166010496Y-136947993D01*
X166018554Y-136925471D01*
X166028782Y-136903847D01*
X166041079Y-136883330D01*
X166055329Y-136864117D01*
X166071393Y-136846393D01*
X166089117Y-136830329D01*
X166108330Y-136816079D01*
X166128847Y-136803782D01*
X166150471Y-136793554D01*
X166172993Y-136785496D01*
X166196197Y-136779684D01*
X166219858Y-136776174D01*
X166243750Y-136775000D01*
X167156250Y-136775000D01*
X167180142Y-136776174D01*
G37*
G36*
X167180142Y-138651174D02*
G01*
X167203803Y-138654684D01*
X167227007Y-138660496D01*
X167249529Y-138668554D01*
X167271153Y-138678782D01*
X167291670Y-138691079D01*
X167310883Y-138705329D01*
X167328607Y-138721393D01*
X167344671Y-138739117D01*
X167358921Y-138758330D01*
X167371218Y-138778847D01*
X167381446Y-138800471D01*
X167389504Y-138822993D01*
X167395316Y-138846197D01*
X167398826Y-138869858D01*
X167400000Y-138893750D01*
X167400000Y-139381250D01*
X167398826Y-139405142D01*
X167395316Y-139428803D01*
X167389504Y-139452007D01*
X167381446Y-139474529D01*
X167371218Y-139496153D01*
X167358921Y-139516670D01*
X167344671Y-139535883D01*
X167328607Y-139553607D01*
X167310883Y-139569671D01*
X167291670Y-139583921D01*
X167271153Y-139596218D01*
X167249529Y-139606446D01*
X167227007Y-139614504D01*
X167203803Y-139620316D01*
X167180142Y-139623826D01*
X167156250Y-139625000D01*
X166243750Y-139625000D01*
X166219858Y-139623826D01*
X166196197Y-139620316D01*
X166172993Y-139614504D01*
X166150471Y-139606446D01*
X166128847Y-139596218D01*
X166108330Y-139583921D01*
X166089117Y-139569671D01*
X166071393Y-139553607D01*
X166055329Y-139535883D01*
X166041079Y-139516670D01*
X166028782Y-139496153D01*
X166018554Y-139474529D01*
X166010496Y-139452007D01*
X166004684Y-139428803D01*
X166001174Y-139405142D01*
X166000000Y-139381250D01*
X166000000Y-138893750D01*
X166001174Y-138869858D01*
X166004684Y-138846197D01*
X166010496Y-138822993D01*
X166018554Y-138800471D01*
X166028782Y-138778847D01*
X166041079Y-138758330D01*
X166055329Y-138739117D01*
X166071393Y-138721393D01*
X166089117Y-138705329D01*
X166108330Y-138691079D01*
X166128847Y-138678782D01*
X166150471Y-138668554D01*
X166172993Y-138660496D01*
X166196197Y-138654684D01*
X166219858Y-138651174D01*
X166243750Y-138650000D01*
X167156250Y-138650000D01*
X167180142Y-138651174D01*
G37*
G36*
X178980142Y-129676174D02*
G01*
X179003803Y-129679684D01*
X179027007Y-129685496D01*
X179049529Y-129693554D01*
X179071153Y-129703782D01*
X179091670Y-129716079D01*
X179110883Y-129730329D01*
X179128607Y-129746393D01*
X179144671Y-129764117D01*
X179158921Y-129783330D01*
X179171218Y-129803847D01*
X179181446Y-129825471D01*
X179189504Y-129847993D01*
X179195316Y-129871197D01*
X179198826Y-129894858D01*
X179200000Y-129918750D01*
X179200000Y-130406250D01*
X179198826Y-130430142D01*
X179195316Y-130453803D01*
X179189504Y-130477007D01*
X179181446Y-130499529D01*
X179171218Y-130521153D01*
X179158921Y-130541670D01*
X179144671Y-130560883D01*
X179128607Y-130578607D01*
X179110883Y-130594671D01*
X179091670Y-130608921D01*
X179071153Y-130621218D01*
X179049529Y-130631446D01*
X179027007Y-130639504D01*
X179003803Y-130645316D01*
X178980142Y-130648826D01*
X178956250Y-130650000D01*
X178043750Y-130650000D01*
X178019858Y-130648826D01*
X177996197Y-130645316D01*
X177972993Y-130639504D01*
X177950471Y-130631446D01*
X177928847Y-130621218D01*
X177908330Y-130608921D01*
X177889117Y-130594671D01*
X177871393Y-130578607D01*
X177855329Y-130560883D01*
X177841079Y-130541670D01*
X177828782Y-130521153D01*
X177818554Y-130499529D01*
X177810496Y-130477007D01*
X177804684Y-130453803D01*
X177801174Y-130430142D01*
X177800000Y-130406250D01*
X177800000Y-129918750D01*
X177801174Y-129894858D01*
X177804684Y-129871197D01*
X177810496Y-129847993D01*
X177818554Y-129825471D01*
X177828782Y-129803847D01*
X177841079Y-129783330D01*
X177855329Y-129764117D01*
X177871393Y-129746393D01*
X177889117Y-129730329D01*
X177908330Y-129716079D01*
X177928847Y-129703782D01*
X177950471Y-129693554D01*
X177972993Y-129685496D01*
X177996197Y-129679684D01*
X178019858Y-129676174D01*
X178043750Y-129675000D01*
X178956250Y-129675000D01*
X178980142Y-129676174D01*
G37*
G36*
X178980142Y-131551174D02*
G01*
X179003803Y-131554684D01*
X179027007Y-131560496D01*
X179049529Y-131568554D01*
X179071153Y-131578782D01*
X179091670Y-131591079D01*
X179110883Y-131605329D01*
X179128607Y-131621393D01*
X179144671Y-131639117D01*
X179158921Y-131658330D01*
X179171218Y-131678847D01*
X179181446Y-131700471D01*
X179189504Y-131722993D01*
X179195316Y-131746197D01*
X179198826Y-131769858D01*
X179200000Y-131793750D01*
X179200000Y-132281250D01*
X179198826Y-132305142D01*
X179195316Y-132328803D01*
X179189504Y-132352007D01*
X179181446Y-132374529D01*
X179171218Y-132396153D01*
X179158921Y-132416670D01*
X179144671Y-132435883D01*
X179128607Y-132453607D01*
X179110883Y-132469671D01*
X179091670Y-132483921D01*
X179071153Y-132496218D01*
X179049529Y-132506446D01*
X179027007Y-132514504D01*
X179003803Y-132520316D01*
X178980142Y-132523826D01*
X178956250Y-132525000D01*
X178043750Y-132525000D01*
X178019858Y-132523826D01*
X177996197Y-132520316D01*
X177972993Y-132514504D01*
X177950471Y-132506446D01*
X177928847Y-132496218D01*
X177908330Y-132483921D01*
X177889117Y-132469671D01*
X177871393Y-132453607D01*
X177855329Y-132435883D01*
X177841079Y-132416670D01*
X177828782Y-132396153D01*
X177818554Y-132374529D01*
X177810496Y-132352007D01*
X177804684Y-132328803D01*
X177801174Y-132305142D01*
X177800000Y-132281250D01*
X177800000Y-131793750D01*
X177801174Y-131769858D01*
X177804684Y-131746197D01*
X177810496Y-131722993D01*
X177818554Y-131700471D01*
X177828782Y-131678847D01*
X177841079Y-131658330D01*
X177855329Y-131639117D01*
X177871393Y-131621393D01*
X177889117Y-131605329D01*
X177908330Y-131591079D01*
X177928847Y-131578782D01*
X177950471Y-131568554D01*
X177972993Y-131560496D01*
X177996197Y-131554684D01*
X178019858Y-131551174D01*
X178043750Y-131550000D01*
X178956250Y-131550000D01*
X178980142Y-131551174D01*
G37*
G36*
X177380142Y-140251174D02*
G01*
X177403803Y-140254684D01*
X177427007Y-140260496D01*
X177449529Y-140268554D01*
X177471153Y-140278782D01*
X177491670Y-140291079D01*
X177510883Y-140305329D01*
X177528607Y-140321393D01*
X177544671Y-140339117D01*
X177558921Y-140358330D01*
X177571218Y-140378847D01*
X177581446Y-140400471D01*
X177589504Y-140422993D01*
X177595316Y-140446197D01*
X177598826Y-140469858D01*
X177600000Y-140493750D01*
X177600000Y-140981250D01*
X177598826Y-141005142D01*
X177595316Y-141028803D01*
X177589504Y-141052007D01*
X177581446Y-141074529D01*
X177571218Y-141096153D01*
X177558921Y-141116670D01*
X177544671Y-141135883D01*
X177528607Y-141153607D01*
X177510883Y-141169671D01*
X177491670Y-141183921D01*
X177471153Y-141196218D01*
X177449529Y-141206446D01*
X177427007Y-141214504D01*
X177403803Y-141220316D01*
X177380142Y-141223826D01*
X177356250Y-141225000D01*
X176443750Y-141225000D01*
X176419858Y-141223826D01*
X176396197Y-141220316D01*
X176372993Y-141214504D01*
X176350471Y-141206446D01*
X176328847Y-141196218D01*
X176308330Y-141183921D01*
X176289117Y-141169671D01*
X176271393Y-141153607D01*
X176255329Y-141135883D01*
X176241079Y-141116670D01*
X176228782Y-141096153D01*
X176218554Y-141074529D01*
X176210496Y-141052007D01*
X176204684Y-141028803D01*
X176201174Y-141005142D01*
X176200000Y-140981250D01*
X176200000Y-140493750D01*
X176201174Y-140469858D01*
X176204684Y-140446197D01*
X176210496Y-140422993D01*
X176218554Y-140400471D01*
X176228782Y-140378847D01*
X176241079Y-140358330D01*
X176255329Y-140339117D01*
X176271393Y-140321393D01*
X176289117Y-140305329D01*
X176308330Y-140291079D01*
X176328847Y-140278782D01*
X176350471Y-140268554D01*
X176372993Y-140260496D01*
X176396197Y-140254684D01*
X176419858Y-140251174D01*
X176443750Y-140250000D01*
X177356250Y-140250000D01*
X177380142Y-140251174D01*
G37*
G36*
X177380142Y-138376174D02*
G01*
X177403803Y-138379684D01*
X177427007Y-138385496D01*
X177449529Y-138393554D01*
X177471153Y-138403782D01*
X177491670Y-138416079D01*
X177510883Y-138430329D01*
X177528607Y-138446393D01*
X177544671Y-138464117D01*
X177558921Y-138483330D01*
X177571218Y-138503847D01*
X177581446Y-138525471D01*
X177589504Y-138547993D01*
X177595316Y-138571197D01*
X177598826Y-138594858D01*
X177600000Y-138618750D01*
X177600000Y-139106250D01*
X177598826Y-139130142D01*
X177595316Y-139153803D01*
X177589504Y-139177007D01*
X177581446Y-139199529D01*
X177571218Y-139221153D01*
X177558921Y-139241670D01*
X177544671Y-139260883D01*
X177528607Y-139278607D01*
X177510883Y-139294671D01*
X177491670Y-139308921D01*
X177471153Y-139321218D01*
X177449529Y-139331446D01*
X177427007Y-139339504D01*
X177403803Y-139345316D01*
X177380142Y-139348826D01*
X177356250Y-139350000D01*
X176443750Y-139350000D01*
X176419858Y-139348826D01*
X176396197Y-139345316D01*
X176372993Y-139339504D01*
X176350471Y-139331446D01*
X176328847Y-139321218D01*
X176308330Y-139308921D01*
X176289117Y-139294671D01*
X176271393Y-139278607D01*
X176255329Y-139260883D01*
X176241079Y-139241670D01*
X176228782Y-139221153D01*
X176218554Y-139199529D01*
X176210496Y-139177007D01*
X176204684Y-139153803D01*
X176201174Y-139130142D01*
X176200000Y-139106250D01*
X176200000Y-138618750D01*
X176201174Y-138594858D01*
X176204684Y-138571197D01*
X176210496Y-138547993D01*
X176218554Y-138525471D01*
X176228782Y-138503847D01*
X176241079Y-138483330D01*
X176255329Y-138464117D01*
X176271393Y-138446393D01*
X176289117Y-138430329D01*
X176308330Y-138416079D01*
X176328847Y-138403782D01*
X176350471Y-138393554D01*
X176372993Y-138385496D01*
X176396197Y-138379684D01*
X176419858Y-138376174D01*
X176443750Y-138375000D01*
X177356250Y-138375000D01*
X177380142Y-138376174D01*
G37*
G36*
X166130142Y-132701174D02*
G01*
X166153803Y-132704684D01*
X166177007Y-132710496D01*
X166199529Y-132718554D01*
X166221153Y-132728782D01*
X166241670Y-132741079D01*
X166260883Y-132755329D01*
X166278607Y-132771393D01*
X166294671Y-132789117D01*
X166308921Y-132808330D01*
X166321218Y-132828847D01*
X166331446Y-132850471D01*
X166339504Y-132872993D01*
X166345316Y-132896197D01*
X166348826Y-132919858D01*
X166350000Y-132943750D01*
X166350000Y-133856250D01*
X166348826Y-133880142D01*
X166345316Y-133903803D01*
X166339504Y-133927007D01*
X166331446Y-133949529D01*
X166321218Y-133971153D01*
X166308921Y-133991670D01*
X166294671Y-134010883D01*
X166278607Y-134028607D01*
X166260883Y-134044671D01*
X166241670Y-134058921D01*
X166221153Y-134071218D01*
X166199529Y-134081446D01*
X166177007Y-134089504D01*
X166153803Y-134095316D01*
X166130142Y-134098826D01*
X166106250Y-134100000D01*
X165618750Y-134100000D01*
X165594858Y-134098826D01*
X165571197Y-134095316D01*
X165547993Y-134089504D01*
X165525471Y-134081446D01*
X165503847Y-134071218D01*
X165483330Y-134058921D01*
X165464117Y-134044671D01*
X165446393Y-134028607D01*
X165430329Y-134010883D01*
X165416079Y-133991670D01*
X165403782Y-133971153D01*
X165393554Y-133949529D01*
X165385496Y-133927007D01*
X165379684Y-133903803D01*
X165376174Y-133880142D01*
X165375000Y-133856250D01*
X165375000Y-132943750D01*
X165376174Y-132919858D01*
X165379684Y-132896197D01*
X165385496Y-132872993D01*
X165393554Y-132850471D01*
X165403782Y-132828847D01*
X165416079Y-132808330D01*
X165430329Y-132789117D01*
X165446393Y-132771393D01*
X165464117Y-132755329D01*
X165483330Y-132741079D01*
X165503847Y-132728782D01*
X165525471Y-132718554D01*
X165547993Y-132710496D01*
X165571197Y-132704684D01*
X165594858Y-132701174D01*
X165618750Y-132700000D01*
X166106250Y-132700000D01*
X166130142Y-132701174D01*
G37*
G36*
X168005142Y-132701174D02*
G01*
X168028803Y-132704684D01*
X168052007Y-132710496D01*
X168074529Y-132718554D01*
X168096153Y-132728782D01*
X168116670Y-132741079D01*
X168135883Y-132755329D01*
X168153607Y-132771393D01*
X168169671Y-132789117D01*
X168183921Y-132808330D01*
X168196218Y-132828847D01*
X168206446Y-132850471D01*
X168214504Y-132872993D01*
X168220316Y-132896197D01*
X168223826Y-132919858D01*
X168225000Y-132943750D01*
X168225000Y-133856250D01*
X168223826Y-133880142D01*
X168220316Y-133903803D01*
X168214504Y-133927007D01*
X168206446Y-133949529D01*
X168196218Y-133971153D01*
X168183921Y-133991670D01*
X168169671Y-134010883D01*
X168153607Y-134028607D01*
X168135883Y-134044671D01*
X168116670Y-134058921D01*
X168096153Y-134071218D01*
X168074529Y-134081446D01*
X168052007Y-134089504D01*
X168028803Y-134095316D01*
X168005142Y-134098826D01*
X167981250Y-134100000D01*
X167493750Y-134100000D01*
X167469858Y-134098826D01*
X167446197Y-134095316D01*
X167422993Y-134089504D01*
X167400471Y-134081446D01*
X167378847Y-134071218D01*
X167358330Y-134058921D01*
X167339117Y-134044671D01*
X167321393Y-134028607D01*
X167305329Y-134010883D01*
X167291079Y-133991670D01*
X167278782Y-133971153D01*
X167268554Y-133949529D01*
X167260496Y-133927007D01*
X167254684Y-133903803D01*
X167251174Y-133880142D01*
X167250000Y-133856250D01*
X167250000Y-132943750D01*
X167251174Y-132919858D01*
X167254684Y-132896197D01*
X167260496Y-132872993D01*
X167268554Y-132850471D01*
X167278782Y-132828847D01*
X167291079Y-132808330D01*
X167305329Y-132789117D01*
X167321393Y-132771393D01*
X167339117Y-132755329D01*
X167358330Y-132741079D01*
X167378847Y-132728782D01*
X167400471Y-132718554D01*
X167422993Y-132710496D01*
X167446197Y-132704684D01*
X167469858Y-132701174D01*
X167493750Y-132700000D01*
X167981250Y-132700000D01*
X168005142Y-132701174D01*
G37*
G36*
X164474505Y-142751204D02*
G01*
X164498773Y-142754804D01*
X164522572Y-142760765D01*
X164545671Y-142769030D01*
X164567850Y-142779520D01*
X164588893Y-142792132D01*
X164608599Y-142806747D01*
X164626777Y-142823223D01*
X164643253Y-142841401D01*
X164657868Y-142861107D01*
X164670480Y-142882150D01*
X164680970Y-142904329D01*
X164689235Y-142927428D01*
X164695196Y-142951227D01*
X164698796Y-142975495D01*
X164700000Y-142999999D01*
X164700000Y-143650001D01*
X164698796Y-143674505D01*
X164695196Y-143698773D01*
X164689235Y-143722572D01*
X164680970Y-143745671D01*
X164670480Y-143767850D01*
X164657868Y-143788893D01*
X164643253Y-143808599D01*
X164626777Y-143826777D01*
X164608599Y-143843253D01*
X164588893Y-143857868D01*
X164567850Y-143870480D01*
X164545671Y-143880970D01*
X164522572Y-143889235D01*
X164498773Y-143895196D01*
X164474505Y-143898796D01*
X164450001Y-143900000D01*
X163549999Y-143900000D01*
X163525495Y-143898796D01*
X163501227Y-143895196D01*
X163477428Y-143889235D01*
X163454329Y-143880970D01*
X163432150Y-143870480D01*
X163411107Y-143857868D01*
X163391401Y-143843253D01*
X163373223Y-143826777D01*
X163356747Y-143808599D01*
X163342132Y-143788893D01*
X163329520Y-143767850D01*
X163319030Y-143745671D01*
X163310765Y-143722572D01*
X163304804Y-143698773D01*
X163301204Y-143674505D01*
X163300000Y-143650001D01*
X163300000Y-142999999D01*
X163301204Y-142975495D01*
X163304804Y-142951227D01*
X163310765Y-142927428D01*
X163319030Y-142904329D01*
X163329520Y-142882150D01*
X163342132Y-142861107D01*
X163356747Y-142841401D01*
X163373223Y-142823223D01*
X163391401Y-142806747D01*
X163411107Y-142792132D01*
X163432150Y-142779520D01*
X163454329Y-142769030D01*
X163477428Y-142760765D01*
X163501227Y-142754804D01*
X163525495Y-142751204D01*
X163549999Y-142750000D01*
X164450001Y-142750000D01*
X164474505Y-142751204D01*
G37*
G36*
X164474505Y-140701204D02*
G01*
X164498773Y-140704804D01*
X164522572Y-140710765D01*
X164545671Y-140719030D01*
X164567850Y-140729520D01*
X164588893Y-140742132D01*
X164608599Y-140756747D01*
X164626777Y-140773223D01*
X164643253Y-140791401D01*
X164657868Y-140811107D01*
X164670480Y-140832150D01*
X164680970Y-140854329D01*
X164689235Y-140877428D01*
X164695196Y-140901227D01*
X164698796Y-140925495D01*
X164700000Y-140949999D01*
X164700000Y-141600001D01*
X164698796Y-141624505D01*
X164695196Y-141648773D01*
X164689235Y-141672572D01*
X164680970Y-141695671D01*
X164670480Y-141717850D01*
X164657868Y-141738893D01*
X164643253Y-141758599D01*
X164626777Y-141776777D01*
X164608599Y-141793253D01*
X164588893Y-141807868D01*
X164567850Y-141820480D01*
X164545671Y-141830970D01*
X164522572Y-141839235D01*
X164498773Y-141845196D01*
X164474505Y-141848796D01*
X164450001Y-141850000D01*
X163549999Y-141850000D01*
X163525495Y-141848796D01*
X163501227Y-141845196D01*
X163477428Y-141839235D01*
X163454329Y-141830970D01*
X163432150Y-141820480D01*
X163411107Y-141807868D01*
X163391401Y-141793253D01*
X163373223Y-141776777D01*
X163356747Y-141758599D01*
X163342132Y-141738893D01*
X163329520Y-141717850D01*
X163319030Y-141695671D01*
X163310765Y-141672572D01*
X163304804Y-141648773D01*
X163301204Y-141624505D01*
X163300000Y-141600001D01*
X163300000Y-140949999D01*
X163301204Y-140925495D01*
X163304804Y-140901227D01*
X163310765Y-140877428D01*
X163319030Y-140854329D01*
X163329520Y-140832150D01*
X163342132Y-140811107D01*
X163356747Y-140791401D01*
X163373223Y-140773223D01*
X163391401Y-140756747D01*
X163411107Y-140742132D01*
X163432150Y-140729520D01*
X163454329Y-140719030D01*
X163477428Y-140710765D01*
X163501227Y-140704804D01*
X163525495Y-140701204D01*
X163549999Y-140700000D01*
X164450001Y-140700000D01*
X164474505Y-140701204D01*
G37*
G36*
X168274505Y-142751204D02*
G01*
X168298773Y-142754804D01*
X168322572Y-142760765D01*
X168345671Y-142769030D01*
X168367850Y-142779520D01*
X168388893Y-142792132D01*
X168408599Y-142806747D01*
X168426777Y-142823223D01*
X168443253Y-142841401D01*
X168457868Y-142861107D01*
X168470480Y-142882150D01*
X168480970Y-142904329D01*
X168489235Y-142927428D01*
X168495196Y-142951227D01*
X168498796Y-142975495D01*
X168500000Y-142999999D01*
X168500000Y-143650001D01*
X168498796Y-143674505D01*
X168495196Y-143698773D01*
X168489235Y-143722572D01*
X168480970Y-143745671D01*
X168470480Y-143767850D01*
X168457868Y-143788893D01*
X168443253Y-143808599D01*
X168426777Y-143826777D01*
X168408599Y-143843253D01*
X168388893Y-143857868D01*
X168367850Y-143870480D01*
X168345671Y-143880970D01*
X168322572Y-143889235D01*
X168298773Y-143895196D01*
X168274505Y-143898796D01*
X168250001Y-143900000D01*
X167349999Y-143900000D01*
X167325495Y-143898796D01*
X167301227Y-143895196D01*
X167277428Y-143889235D01*
X167254329Y-143880970D01*
X167232150Y-143870480D01*
X167211107Y-143857868D01*
X167191401Y-143843253D01*
X167173223Y-143826777D01*
X167156747Y-143808599D01*
X167142132Y-143788893D01*
X167129520Y-143767850D01*
X167119030Y-143745671D01*
X167110765Y-143722572D01*
X167104804Y-143698773D01*
X167101204Y-143674505D01*
X167100000Y-143650001D01*
X167100000Y-142999999D01*
X167101204Y-142975495D01*
X167104804Y-142951227D01*
X167110765Y-142927428D01*
X167119030Y-142904329D01*
X167129520Y-142882150D01*
X167142132Y-142861107D01*
X167156747Y-142841401D01*
X167173223Y-142823223D01*
X167191401Y-142806747D01*
X167211107Y-142792132D01*
X167232150Y-142779520D01*
X167254329Y-142769030D01*
X167277428Y-142760765D01*
X167301227Y-142754804D01*
X167325495Y-142751204D01*
X167349999Y-142750000D01*
X168250001Y-142750000D01*
X168274505Y-142751204D01*
G37*
G36*
X168274505Y-140701204D02*
G01*
X168298773Y-140704804D01*
X168322572Y-140710765D01*
X168345671Y-140719030D01*
X168367850Y-140729520D01*
X168388893Y-140742132D01*
X168408599Y-140756747D01*
X168426777Y-140773223D01*
X168443253Y-140791401D01*
X168457868Y-140811107D01*
X168470480Y-140832150D01*
X168480970Y-140854329D01*
X168489235Y-140877428D01*
X168495196Y-140901227D01*
X168498796Y-140925495D01*
X168500000Y-140949999D01*
X168500000Y-141600001D01*
X168498796Y-141624505D01*
X168495196Y-141648773D01*
X168489235Y-141672572D01*
X168480970Y-141695671D01*
X168470480Y-141717850D01*
X168457868Y-141738893D01*
X168443253Y-141758599D01*
X168426777Y-141776777D01*
X168408599Y-141793253D01*
X168388893Y-141807868D01*
X168367850Y-141820480D01*
X168345671Y-141830970D01*
X168322572Y-141839235D01*
X168298773Y-141845196D01*
X168274505Y-141848796D01*
X168250001Y-141850000D01*
X167349999Y-141850000D01*
X167325495Y-141848796D01*
X167301227Y-141845196D01*
X167277428Y-141839235D01*
X167254329Y-141830970D01*
X167232150Y-141820480D01*
X167211107Y-141807868D01*
X167191401Y-141793253D01*
X167173223Y-141776777D01*
X167156747Y-141758599D01*
X167142132Y-141738893D01*
X167129520Y-141717850D01*
X167119030Y-141695671D01*
X167110765Y-141672572D01*
X167104804Y-141648773D01*
X167101204Y-141624505D01*
X167100000Y-141600001D01*
X167100000Y-140949999D01*
X167101204Y-140925495D01*
X167104804Y-140901227D01*
X167110765Y-140877428D01*
X167119030Y-140854329D01*
X167129520Y-140832150D01*
X167142132Y-140811107D01*
X167156747Y-140791401D01*
X167173223Y-140773223D01*
X167191401Y-140756747D01*
X167211107Y-140742132D01*
X167232150Y-140729520D01*
X167254329Y-140719030D01*
X167277428Y-140710765D01*
X167301227Y-140704804D01*
X167325495Y-140701204D01*
X167349999Y-140700000D01*
X168250001Y-140700000D01*
X168274505Y-140701204D01*
G37*
D13*
X163650000Y-81100000D03*
X160350000Y-81100000D03*
D10*
G36*
X165105142Y-66001174D02*
G01*
X165128803Y-66004684D01*
X165152007Y-66010496D01*
X165174529Y-66018554D01*
X165196153Y-66028782D01*
X165216670Y-66041079D01*
X165235883Y-66055329D01*
X165253607Y-66071393D01*
X165269671Y-66089117D01*
X165283921Y-66108330D01*
X165296218Y-66128847D01*
X165306446Y-66150471D01*
X165314504Y-66172993D01*
X165320316Y-66196197D01*
X165323826Y-66219858D01*
X165325000Y-66243750D01*
X165325000Y-67156250D01*
X165323826Y-67180142D01*
X165320316Y-67203803D01*
X165314504Y-67227007D01*
X165306446Y-67249529D01*
X165296218Y-67271153D01*
X165283921Y-67291670D01*
X165269671Y-67310883D01*
X165253607Y-67328607D01*
X165235883Y-67344671D01*
X165216670Y-67358921D01*
X165196153Y-67371218D01*
X165174529Y-67381446D01*
X165152007Y-67389504D01*
X165128803Y-67395316D01*
X165105142Y-67398826D01*
X165081250Y-67400000D01*
X164593750Y-67400000D01*
X164569858Y-67398826D01*
X164546197Y-67395316D01*
X164522993Y-67389504D01*
X164500471Y-67381446D01*
X164478847Y-67371218D01*
X164458330Y-67358921D01*
X164439117Y-67344671D01*
X164421393Y-67328607D01*
X164405329Y-67310883D01*
X164391079Y-67291670D01*
X164378782Y-67271153D01*
X164368554Y-67249529D01*
X164360496Y-67227007D01*
X164354684Y-67203803D01*
X164351174Y-67180142D01*
X164350000Y-67156250D01*
X164350000Y-66243750D01*
X164351174Y-66219858D01*
X164354684Y-66196197D01*
X164360496Y-66172993D01*
X164368554Y-66150471D01*
X164378782Y-66128847D01*
X164391079Y-66108330D01*
X164405329Y-66089117D01*
X164421393Y-66071393D01*
X164439117Y-66055329D01*
X164458330Y-66041079D01*
X164478847Y-66028782D01*
X164500471Y-66018554D01*
X164522993Y-66010496D01*
X164546197Y-66004684D01*
X164569858Y-66001174D01*
X164593750Y-66000000D01*
X165081250Y-66000000D01*
X165105142Y-66001174D01*
G37*
G36*
X163230142Y-66001174D02*
G01*
X163253803Y-66004684D01*
X163277007Y-66010496D01*
X163299529Y-66018554D01*
X163321153Y-66028782D01*
X163341670Y-66041079D01*
X163360883Y-66055329D01*
X163378607Y-66071393D01*
X163394671Y-66089117D01*
X163408921Y-66108330D01*
X163421218Y-66128847D01*
X163431446Y-66150471D01*
X163439504Y-66172993D01*
X163445316Y-66196197D01*
X163448826Y-66219858D01*
X163450000Y-66243750D01*
X163450000Y-67156250D01*
X163448826Y-67180142D01*
X163445316Y-67203803D01*
X163439504Y-67227007D01*
X163431446Y-67249529D01*
X163421218Y-67271153D01*
X163408921Y-67291670D01*
X163394671Y-67310883D01*
X163378607Y-67328607D01*
X163360883Y-67344671D01*
X163341670Y-67358921D01*
X163321153Y-67371218D01*
X163299529Y-67381446D01*
X163277007Y-67389504D01*
X163253803Y-67395316D01*
X163230142Y-67398826D01*
X163206250Y-67400000D01*
X162718750Y-67400000D01*
X162694858Y-67398826D01*
X162671197Y-67395316D01*
X162647993Y-67389504D01*
X162625471Y-67381446D01*
X162603847Y-67371218D01*
X162583330Y-67358921D01*
X162564117Y-67344671D01*
X162546393Y-67328607D01*
X162530329Y-67310883D01*
X162516079Y-67291670D01*
X162503782Y-67271153D01*
X162493554Y-67249529D01*
X162485496Y-67227007D01*
X162479684Y-67203803D01*
X162476174Y-67180142D01*
X162475000Y-67156250D01*
X162475000Y-66243750D01*
X162476174Y-66219858D01*
X162479684Y-66196197D01*
X162485496Y-66172993D01*
X162493554Y-66150471D01*
X162503782Y-66128847D01*
X162516079Y-66108330D01*
X162530329Y-66089117D01*
X162546393Y-66071393D01*
X162564117Y-66055329D01*
X162583330Y-66041079D01*
X162603847Y-66028782D01*
X162625471Y-66018554D01*
X162647993Y-66010496D01*
X162671197Y-66004684D01*
X162694858Y-66001174D01*
X162718750Y-66000000D01*
X163206250Y-66000000D01*
X163230142Y-66001174D01*
G37*
G36*
X165105142Y-88301174D02*
G01*
X165128803Y-88304684D01*
X165152007Y-88310496D01*
X165174529Y-88318554D01*
X165196153Y-88328782D01*
X165216670Y-88341079D01*
X165235883Y-88355329D01*
X165253607Y-88371393D01*
X165269671Y-88389117D01*
X165283921Y-88408330D01*
X165296218Y-88428847D01*
X165306446Y-88450471D01*
X165314504Y-88472993D01*
X165320316Y-88496197D01*
X165323826Y-88519858D01*
X165325000Y-88543750D01*
X165325000Y-89456250D01*
X165323826Y-89480142D01*
X165320316Y-89503803D01*
X165314504Y-89527007D01*
X165306446Y-89549529D01*
X165296218Y-89571153D01*
X165283921Y-89591670D01*
X165269671Y-89610883D01*
X165253607Y-89628607D01*
X165235883Y-89644671D01*
X165216670Y-89658921D01*
X165196153Y-89671218D01*
X165174529Y-89681446D01*
X165152007Y-89689504D01*
X165128803Y-89695316D01*
X165105142Y-89698826D01*
X165081250Y-89700000D01*
X164593750Y-89700000D01*
X164569858Y-89698826D01*
X164546197Y-89695316D01*
X164522993Y-89689504D01*
X164500471Y-89681446D01*
X164478847Y-89671218D01*
X164458330Y-89658921D01*
X164439117Y-89644671D01*
X164421393Y-89628607D01*
X164405329Y-89610883D01*
X164391079Y-89591670D01*
X164378782Y-89571153D01*
X164368554Y-89549529D01*
X164360496Y-89527007D01*
X164354684Y-89503803D01*
X164351174Y-89480142D01*
X164350000Y-89456250D01*
X164350000Y-88543750D01*
X164351174Y-88519858D01*
X164354684Y-88496197D01*
X164360496Y-88472993D01*
X164368554Y-88450471D01*
X164378782Y-88428847D01*
X164391079Y-88408330D01*
X164405329Y-88389117D01*
X164421393Y-88371393D01*
X164439117Y-88355329D01*
X164458330Y-88341079D01*
X164478847Y-88328782D01*
X164500471Y-88318554D01*
X164522993Y-88310496D01*
X164546197Y-88304684D01*
X164569858Y-88301174D01*
X164593750Y-88300000D01*
X165081250Y-88300000D01*
X165105142Y-88301174D01*
G37*
G36*
X163230142Y-88301174D02*
G01*
X163253803Y-88304684D01*
X163277007Y-88310496D01*
X163299529Y-88318554D01*
X163321153Y-88328782D01*
X163341670Y-88341079D01*
X163360883Y-88355329D01*
X163378607Y-88371393D01*
X163394671Y-88389117D01*
X163408921Y-88408330D01*
X163421218Y-88428847D01*
X163431446Y-88450471D01*
X163439504Y-88472993D01*
X163445316Y-88496197D01*
X163448826Y-88519858D01*
X163450000Y-88543750D01*
X163450000Y-89456250D01*
X163448826Y-89480142D01*
X163445316Y-89503803D01*
X163439504Y-89527007D01*
X163431446Y-89549529D01*
X163421218Y-89571153D01*
X163408921Y-89591670D01*
X163394671Y-89610883D01*
X163378607Y-89628607D01*
X163360883Y-89644671D01*
X163341670Y-89658921D01*
X163321153Y-89671218D01*
X163299529Y-89681446D01*
X163277007Y-89689504D01*
X163253803Y-89695316D01*
X163230142Y-89698826D01*
X163206250Y-89700000D01*
X162718750Y-89700000D01*
X162694858Y-89698826D01*
X162671197Y-89695316D01*
X162647993Y-89689504D01*
X162625471Y-89681446D01*
X162603847Y-89671218D01*
X162583330Y-89658921D01*
X162564117Y-89644671D01*
X162546393Y-89628607D01*
X162530329Y-89610883D01*
X162516079Y-89591670D01*
X162503782Y-89571153D01*
X162493554Y-89549529D01*
X162485496Y-89527007D01*
X162479684Y-89503803D01*
X162476174Y-89480142D01*
X162475000Y-89456250D01*
X162475000Y-88543750D01*
X162476174Y-88519858D01*
X162479684Y-88496197D01*
X162485496Y-88472993D01*
X162493554Y-88450471D01*
X162503782Y-88428847D01*
X162516079Y-88408330D01*
X162530329Y-88389117D01*
X162546393Y-88371393D01*
X162564117Y-88355329D01*
X162583330Y-88341079D01*
X162603847Y-88328782D01*
X162625471Y-88318554D01*
X162647993Y-88310496D01*
X162671197Y-88304684D01*
X162694858Y-88301174D01*
X162718750Y-88300000D01*
X163206250Y-88300000D01*
X163230142Y-88301174D01*
G37*
G36*
X163530142Y-77301174D02*
G01*
X163553803Y-77304684D01*
X163577007Y-77310496D01*
X163599529Y-77318554D01*
X163621153Y-77328782D01*
X163641670Y-77341079D01*
X163660883Y-77355329D01*
X163678607Y-77371393D01*
X163694671Y-77389117D01*
X163708921Y-77408330D01*
X163721218Y-77428847D01*
X163731446Y-77450471D01*
X163739504Y-77472993D01*
X163745316Y-77496197D01*
X163748826Y-77519858D01*
X163750000Y-77543750D01*
X163750000Y-78456250D01*
X163748826Y-78480142D01*
X163745316Y-78503803D01*
X163739504Y-78527007D01*
X163731446Y-78549529D01*
X163721218Y-78571153D01*
X163708921Y-78591670D01*
X163694671Y-78610883D01*
X163678607Y-78628607D01*
X163660883Y-78644671D01*
X163641670Y-78658921D01*
X163621153Y-78671218D01*
X163599529Y-78681446D01*
X163577007Y-78689504D01*
X163553803Y-78695316D01*
X163530142Y-78698826D01*
X163506250Y-78700000D01*
X163018750Y-78700000D01*
X162994858Y-78698826D01*
X162971197Y-78695316D01*
X162947993Y-78689504D01*
X162925471Y-78681446D01*
X162903847Y-78671218D01*
X162883330Y-78658921D01*
X162864117Y-78644671D01*
X162846393Y-78628607D01*
X162830329Y-78610883D01*
X162816079Y-78591670D01*
X162803782Y-78571153D01*
X162793554Y-78549529D01*
X162785496Y-78527007D01*
X162779684Y-78503803D01*
X162776174Y-78480142D01*
X162775000Y-78456250D01*
X162775000Y-77543750D01*
X162776174Y-77519858D01*
X162779684Y-77496197D01*
X162785496Y-77472993D01*
X162793554Y-77450471D01*
X162803782Y-77428847D01*
X162816079Y-77408330D01*
X162830329Y-77389117D01*
X162846393Y-77371393D01*
X162864117Y-77355329D01*
X162883330Y-77341079D01*
X162903847Y-77328782D01*
X162925471Y-77318554D01*
X162947993Y-77310496D01*
X162971197Y-77304684D01*
X162994858Y-77301174D01*
X163018750Y-77300000D01*
X163506250Y-77300000D01*
X163530142Y-77301174D01*
G37*
G36*
X165405142Y-77301174D02*
G01*
X165428803Y-77304684D01*
X165452007Y-77310496D01*
X165474529Y-77318554D01*
X165496153Y-77328782D01*
X165516670Y-77341079D01*
X165535883Y-77355329D01*
X165553607Y-77371393D01*
X165569671Y-77389117D01*
X165583921Y-77408330D01*
X165596218Y-77428847D01*
X165606446Y-77450471D01*
X165614504Y-77472993D01*
X165620316Y-77496197D01*
X165623826Y-77519858D01*
X165625000Y-77543750D01*
X165625000Y-78456250D01*
X165623826Y-78480142D01*
X165620316Y-78503803D01*
X165614504Y-78527007D01*
X165606446Y-78549529D01*
X165596218Y-78571153D01*
X165583921Y-78591670D01*
X165569671Y-78610883D01*
X165553607Y-78628607D01*
X165535883Y-78644671D01*
X165516670Y-78658921D01*
X165496153Y-78671218D01*
X165474529Y-78681446D01*
X165452007Y-78689504D01*
X165428803Y-78695316D01*
X165405142Y-78698826D01*
X165381250Y-78700000D01*
X164893750Y-78700000D01*
X164869858Y-78698826D01*
X164846197Y-78695316D01*
X164822993Y-78689504D01*
X164800471Y-78681446D01*
X164778847Y-78671218D01*
X164758330Y-78658921D01*
X164739117Y-78644671D01*
X164721393Y-78628607D01*
X164705329Y-78610883D01*
X164691079Y-78591670D01*
X164678782Y-78571153D01*
X164668554Y-78549529D01*
X164660496Y-78527007D01*
X164654684Y-78503803D01*
X164651174Y-78480142D01*
X164650000Y-78456250D01*
X164650000Y-77543750D01*
X164651174Y-77519858D01*
X164654684Y-77496197D01*
X164660496Y-77472993D01*
X164668554Y-77450471D01*
X164678782Y-77428847D01*
X164691079Y-77408330D01*
X164705329Y-77389117D01*
X164721393Y-77371393D01*
X164739117Y-77355329D01*
X164758330Y-77341079D01*
X164778847Y-77328782D01*
X164800471Y-77318554D01*
X164822993Y-77310496D01*
X164846197Y-77304684D01*
X164869858Y-77301174D01*
X164893750Y-77300000D01*
X165381250Y-77300000D01*
X165405142Y-77301174D01*
G37*
G36*
X163030142Y-100401174D02*
G01*
X163053803Y-100404684D01*
X163077007Y-100410496D01*
X163099529Y-100418554D01*
X163121153Y-100428782D01*
X163141670Y-100441079D01*
X163160883Y-100455329D01*
X163178607Y-100471393D01*
X163194671Y-100489117D01*
X163208921Y-100508330D01*
X163221218Y-100528847D01*
X163231446Y-100550471D01*
X163239504Y-100572993D01*
X163245316Y-100596197D01*
X163248826Y-100619858D01*
X163250000Y-100643750D01*
X163250000Y-101556250D01*
X163248826Y-101580142D01*
X163245316Y-101603803D01*
X163239504Y-101627007D01*
X163231446Y-101649529D01*
X163221218Y-101671153D01*
X163208921Y-101691670D01*
X163194671Y-101710883D01*
X163178607Y-101728607D01*
X163160883Y-101744671D01*
X163141670Y-101758921D01*
X163121153Y-101771218D01*
X163099529Y-101781446D01*
X163077007Y-101789504D01*
X163053803Y-101795316D01*
X163030142Y-101798826D01*
X163006250Y-101800000D01*
X162518750Y-101800000D01*
X162494858Y-101798826D01*
X162471197Y-101795316D01*
X162447993Y-101789504D01*
X162425471Y-101781446D01*
X162403847Y-101771218D01*
X162383330Y-101758921D01*
X162364117Y-101744671D01*
X162346393Y-101728607D01*
X162330329Y-101710883D01*
X162316079Y-101691670D01*
X162303782Y-101671153D01*
X162293554Y-101649529D01*
X162285496Y-101627007D01*
X162279684Y-101603803D01*
X162276174Y-101580142D01*
X162275000Y-101556250D01*
X162275000Y-100643750D01*
X162276174Y-100619858D01*
X162279684Y-100596197D01*
X162285496Y-100572993D01*
X162293554Y-100550471D01*
X162303782Y-100528847D01*
X162316079Y-100508330D01*
X162330329Y-100489117D01*
X162346393Y-100471393D01*
X162364117Y-100455329D01*
X162383330Y-100441079D01*
X162403847Y-100428782D01*
X162425471Y-100418554D01*
X162447993Y-100410496D01*
X162471197Y-100404684D01*
X162494858Y-100401174D01*
X162518750Y-100400000D01*
X163006250Y-100400000D01*
X163030142Y-100401174D01*
G37*
G36*
X164905142Y-100401174D02*
G01*
X164928803Y-100404684D01*
X164952007Y-100410496D01*
X164974529Y-100418554D01*
X164996153Y-100428782D01*
X165016670Y-100441079D01*
X165035883Y-100455329D01*
X165053607Y-100471393D01*
X165069671Y-100489117D01*
X165083921Y-100508330D01*
X165096218Y-100528847D01*
X165106446Y-100550471D01*
X165114504Y-100572993D01*
X165120316Y-100596197D01*
X165123826Y-100619858D01*
X165125000Y-100643750D01*
X165125000Y-101556250D01*
X165123826Y-101580142D01*
X165120316Y-101603803D01*
X165114504Y-101627007D01*
X165106446Y-101649529D01*
X165096218Y-101671153D01*
X165083921Y-101691670D01*
X165069671Y-101710883D01*
X165053607Y-101728607D01*
X165035883Y-101744671D01*
X165016670Y-101758921D01*
X164996153Y-101771218D01*
X164974529Y-101781446D01*
X164952007Y-101789504D01*
X164928803Y-101795316D01*
X164905142Y-101798826D01*
X164881250Y-101800000D01*
X164393750Y-101800000D01*
X164369858Y-101798826D01*
X164346197Y-101795316D01*
X164322993Y-101789504D01*
X164300471Y-101781446D01*
X164278847Y-101771218D01*
X164258330Y-101758921D01*
X164239117Y-101744671D01*
X164221393Y-101728607D01*
X164205329Y-101710883D01*
X164191079Y-101691670D01*
X164178782Y-101671153D01*
X164168554Y-101649529D01*
X164160496Y-101627007D01*
X164154684Y-101603803D01*
X164151174Y-101580142D01*
X164150000Y-101556250D01*
X164150000Y-100643750D01*
X164151174Y-100619858D01*
X164154684Y-100596197D01*
X164160496Y-100572993D01*
X164168554Y-100550471D01*
X164178782Y-100528847D01*
X164191079Y-100508330D01*
X164205329Y-100489117D01*
X164221393Y-100471393D01*
X164239117Y-100455329D01*
X164258330Y-100441079D01*
X164278847Y-100428782D01*
X164300471Y-100418554D01*
X164322993Y-100410496D01*
X164346197Y-100404684D01*
X164369858Y-100401174D01*
X164393750Y-100400000D01*
X164881250Y-100400000D01*
X164905142Y-100401174D01*
G37*
G36*
X166130142Y-130501174D02*
G01*
X166153803Y-130504684D01*
X166177007Y-130510496D01*
X166199529Y-130518554D01*
X166221153Y-130528782D01*
X166241670Y-130541079D01*
X166260883Y-130555329D01*
X166278607Y-130571393D01*
X166294671Y-130589117D01*
X166308921Y-130608330D01*
X166321218Y-130628847D01*
X166331446Y-130650471D01*
X166339504Y-130672993D01*
X166345316Y-130696197D01*
X166348826Y-130719858D01*
X166350000Y-130743750D01*
X166350000Y-131656250D01*
X166348826Y-131680142D01*
X166345316Y-131703803D01*
X166339504Y-131727007D01*
X166331446Y-131749529D01*
X166321218Y-131771153D01*
X166308921Y-131791670D01*
X166294671Y-131810883D01*
X166278607Y-131828607D01*
X166260883Y-131844671D01*
X166241670Y-131858921D01*
X166221153Y-131871218D01*
X166199529Y-131881446D01*
X166177007Y-131889504D01*
X166153803Y-131895316D01*
X166130142Y-131898826D01*
X166106250Y-131900000D01*
X165618750Y-131900000D01*
X165594858Y-131898826D01*
X165571197Y-131895316D01*
X165547993Y-131889504D01*
X165525471Y-131881446D01*
X165503847Y-131871218D01*
X165483330Y-131858921D01*
X165464117Y-131844671D01*
X165446393Y-131828607D01*
X165430329Y-131810883D01*
X165416079Y-131791670D01*
X165403782Y-131771153D01*
X165393554Y-131749529D01*
X165385496Y-131727007D01*
X165379684Y-131703803D01*
X165376174Y-131680142D01*
X165375000Y-131656250D01*
X165375000Y-130743750D01*
X165376174Y-130719858D01*
X165379684Y-130696197D01*
X165385496Y-130672993D01*
X165393554Y-130650471D01*
X165403782Y-130628847D01*
X165416079Y-130608330D01*
X165430329Y-130589117D01*
X165446393Y-130571393D01*
X165464117Y-130555329D01*
X165483330Y-130541079D01*
X165503847Y-130528782D01*
X165525471Y-130518554D01*
X165547993Y-130510496D01*
X165571197Y-130504684D01*
X165594858Y-130501174D01*
X165618750Y-130500000D01*
X166106250Y-130500000D01*
X166130142Y-130501174D01*
G37*
G36*
X168005142Y-130501174D02*
G01*
X168028803Y-130504684D01*
X168052007Y-130510496D01*
X168074529Y-130518554D01*
X168096153Y-130528782D01*
X168116670Y-130541079D01*
X168135883Y-130555329D01*
X168153607Y-130571393D01*
X168169671Y-130589117D01*
X168183921Y-130608330D01*
X168196218Y-130628847D01*
X168206446Y-130650471D01*
X168214504Y-130672993D01*
X168220316Y-130696197D01*
X168223826Y-130719858D01*
X168225000Y-130743750D01*
X168225000Y-131656250D01*
X168223826Y-131680142D01*
X168220316Y-131703803D01*
X168214504Y-131727007D01*
X168206446Y-131749529D01*
X168196218Y-131771153D01*
X168183921Y-131791670D01*
X168169671Y-131810883D01*
X168153607Y-131828607D01*
X168135883Y-131844671D01*
X168116670Y-131858921D01*
X168096153Y-131871218D01*
X168074529Y-131881446D01*
X168052007Y-131889504D01*
X168028803Y-131895316D01*
X168005142Y-131898826D01*
X167981250Y-131900000D01*
X167493750Y-131900000D01*
X167469858Y-131898826D01*
X167446197Y-131895316D01*
X167422993Y-131889504D01*
X167400471Y-131881446D01*
X167378847Y-131871218D01*
X167358330Y-131858921D01*
X167339117Y-131844671D01*
X167321393Y-131828607D01*
X167305329Y-131810883D01*
X167291079Y-131791670D01*
X167278782Y-131771153D01*
X167268554Y-131749529D01*
X167260496Y-131727007D01*
X167254684Y-131703803D01*
X167251174Y-131680142D01*
X167250000Y-131656250D01*
X167250000Y-130743750D01*
X167251174Y-130719858D01*
X167254684Y-130696197D01*
X167260496Y-130672993D01*
X167268554Y-130650471D01*
X167278782Y-130628847D01*
X167291079Y-130608330D01*
X167305329Y-130589117D01*
X167321393Y-130571393D01*
X167339117Y-130555329D01*
X167358330Y-130541079D01*
X167378847Y-130528782D01*
X167400471Y-130518554D01*
X167422993Y-130510496D01*
X167446197Y-130504684D01*
X167469858Y-130501174D01*
X167493750Y-130500000D01*
X167981250Y-130500000D01*
X168005142Y-130501174D01*
G37*
G36*
X164999504Y-127926204D02*
G01*
X165023773Y-127929804D01*
X165047571Y-127935765D01*
X165070671Y-127944030D01*
X165092849Y-127954520D01*
X165113893Y-127967133D01*
X165133598Y-127981747D01*
X165151777Y-127998223D01*
X165168253Y-128016402D01*
X165182867Y-128036107D01*
X165195480Y-128057151D01*
X165205970Y-128079329D01*
X165214235Y-128102429D01*
X165220196Y-128126227D01*
X165223796Y-128150496D01*
X165225000Y-128175000D01*
X165225000Y-129425000D01*
X165223796Y-129449504D01*
X165220196Y-129473773D01*
X165214235Y-129497571D01*
X165205970Y-129520671D01*
X165195480Y-129542849D01*
X165182867Y-129563893D01*
X165168253Y-129583598D01*
X165151777Y-129601777D01*
X165133598Y-129618253D01*
X165113893Y-129632867D01*
X165092849Y-129645480D01*
X165070671Y-129655970D01*
X165047571Y-129664235D01*
X165023773Y-129670196D01*
X164999504Y-129673796D01*
X164975000Y-129675000D01*
X164050000Y-129675000D01*
X164025496Y-129673796D01*
X164001227Y-129670196D01*
X163977429Y-129664235D01*
X163954329Y-129655970D01*
X163932151Y-129645480D01*
X163911107Y-129632867D01*
X163891402Y-129618253D01*
X163873223Y-129601777D01*
X163856747Y-129583598D01*
X163842133Y-129563893D01*
X163829520Y-129542849D01*
X163819030Y-129520671D01*
X163810765Y-129497571D01*
X163804804Y-129473773D01*
X163801204Y-129449504D01*
X163800000Y-129425000D01*
X163800000Y-128175000D01*
X163801204Y-128150496D01*
X163804804Y-128126227D01*
X163810765Y-128102429D01*
X163819030Y-128079329D01*
X163829520Y-128057151D01*
X163842133Y-128036107D01*
X163856747Y-128016402D01*
X163873223Y-127998223D01*
X163891402Y-127981747D01*
X163911107Y-127967133D01*
X163932151Y-127954520D01*
X163954329Y-127944030D01*
X163977429Y-127935765D01*
X164001227Y-127929804D01*
X164025496Y-127926204D01*
X164050000Y-127925000D01*
X164975000Y-127925000D01*
X164999504Y-127926204D01*
G37*
G36*
X167974504Y-127926204D02*
G01*
X167998773Y-127929804D01*
X168022571Y-127935765D01*
X168045671Y-127944030D01*
X168067849Y-127954520D01*
X168088893Y-127967133D01*
X168108598Y-127981747D01*
X168126777Y-127998223D01*
X168143253Y-128016402D01*
X168157867Y-128036107D01*
X168170480Y-128057151D01*
X168180970Y-128079329D01*
X168189235Y-128102429D01*
X168195196Y-128126227D01*
X168198796Y-128150496D01*
X168200000Y-128175000D01*
X168200000Y-129425000D01*
X168198796Y-129449504D01*
X168195196Y-129473773D01*
X168189235Y-129497571D01*
X168180970Y-129520671D01*
X168170480Y-129542849D01*
X168157867Y-129563893D01*
X168143253Y-129583598D01*
X168126777Y-129601777D01*
X168108598Y-129618253D01*
X168088893Y-129632867D01*
X168067849Y-129645480D01*
X168045671Y-129655970D01*
X168022571Y-129664235D01*
X167998773Y-129670196D01*
X167974504Y-129673796D01*
X167950000Y-129675000D01*
X167025000Y-129675000D01*
X167000496Y-129673796D01*
X166976227Y-129670196D01*
X166952429Y-129664235D01*
X166929329Y-129655970D01*
X166907151Y-129645480D01*
X166886107Y-129632867D01*
X166866402Y-129618253D01*
X166848223Y-129601777D01*
X166831747Y-129583598D01*
X166817133Y-129563893D01*
X166804520Y-129542849D01*
X166794030Y-129520671D01*
X166785765Y-129497571D01*
X166779804Y-129473773D01*
X166776204Y-129449504D01*
X166775000Y-129425000D01*
X166775000Y-128175000D01*
X166776204Y-128150496D01*
X166779804Y-128126227D01*
X166785765Y-128102429D01*
X166794030Y-128079329D01*
X166804520Y-128057151D01*
X166817133Y-128036107D01*
X166831747Y-128016402D01*
X166848223Y-127998223D01*
X166866402Y-127981747D01*
X166886107Y-127967133D01*
X166907151Y-127954520D01*
X166929329Y-127944030D01*
X166952429Y-127935765D01*
X166976227Y-127929804D01*
X167000496Y-127926204D01*
X167025000Y-127925000D01*
X167950000Y-127925000D01*
X167974504Y-127926204D01*
G37*
G36*
X179249504Y-136376204D02*
G01*
X179273773Y-136379804D01*
X179297571Y-136385765D01*
X179320671Y-136394030D01*
X179342849Y-136404520D01*
X179363893Y-136417133D01*
X179383598Y-136431747D01*
X179401777Y-136448223D01*
X179418253Y-136466402D01*
X179432867Y-136486107D01*
X179445480Y-136507151D01*
X179455970Y-136529329D01*
X179464235Y-136552429D01*
X179470196Y-136576227D01*
X179473796Y-136600496D01*
X179475000Y-136625000D01*
X179475000Y-137550000D01*
X179473796Y-137574504D01*
X179470196Y-137598773D01*
X179464235Y-137622571D01*
X179455970Y-137645671D01*
X179445480Y-137667849D01*
X179432867Y-137688893D01*
X179418253Y-137708598D01*
X179401777Y-137726777D01*
X179383598Y-137743253D01*
X179363893Y-137757867D01*
X179342849Y-137770480D01*
X179320671Y-137780970D01*
X179297571Y-137789235D01*
X179273773Y-137795196D01*
X179249504Y-137798796D01*
X179225000Y-137800000D01*
X177975000Y-137800000D01*
X177950496Y-137798796D01*
X177926227Y-137795196D01*
X177902429Y-137789235D01*
X177879329Y-137780970D01*
X177857151Y-137770480D01*
X177836107Y-137757867D01*
X177816402Y-137743253D01*
X177798223Y-137726777D01*
X177781747Y-137708598D01*
X177767133Y-137688893D01*
X177754520Y-137667849D01*
X177744030Y-137645671D01*
X177735765Y-137622571D01*
X177729804Y-137598773D01*
X177726204Y-137574504D01*
X177725000Y-137550000D01*
X177725000Y-136625000D01*
X177726204Y-136600496D01*
X177729804Y-136576227D01*
X177735765Y-136552429D01*
X177744030Y-136529329D01*
X177754520Y-136507151D01*
X177767133Y-136486107D01*
X177781747Y-136466402D01*
X177798223Y-136448223D01*
X177816402Y-136431747D01*
X177836107Y-136417133D01*
X177857151Y-136404520D01*
X177879329Y-136394030D01*
X177902429Y-136385765D01*
X177926227Y-136379804D01*
X177950496Y-136376204D01*
X177975000Y-136375000D01*
X179225000Y-136375000D01*
X179249504Y-136376204D01*
G37*
G36*
X179249504Y-133401204D02*
G01*
X179273773Y-133404804D01*
X179297571Y-133410765D01*
X179320671Y-133419030D01*
X179342849Y-133429520D01*
X179363893Y-133442133D01*
X179383598Y-133456747D01*
X179401777Y-133473223D01*
X179418253Y-133491402D01*
X179432867Y-133511107D01*
X179445480Y-133532151D01*
X179455970Y-133554329D01*
X179464235Y-133577429D01*
X179470196Y-133601227D01*
X179473796Y-133625496D01*
X179475000Y-133650000D01*
X179475000Y-134575000D01*
X179473796Y-134599504D01*
X179470196Y-134623773D01*
X179464235Y-134647571D01*
X179455970Y-134670671D01*
X179445480Y-134692849D01*
X179432867Y-134713893D01*
X179418253Y-134733598D01*
X179401777Y-134751777D01*
X179383598Y-134768253D01*
X179363893Y-134782867D01*
X179342849Y-134795480D01*
X179320671Y-134805970D01*
X179297571Y-134814235D01*
X179273773Y-134820196D01*
X179249504Y-134823796D01*
X179225000Y-134825000D01*
X177975000Y-134825000D01*
X177950496Y-134823796D01*
X177926227Y-134820196D01*
X177902429Y-134814235D01*
X177879329Y-134805970D01*
X177857151Y-134795480D01*
X177836107Y-134782867D01*
X177816402Y-134768253D01*
X177798223Y-134751777D01*
X177781747Y-134733598D01*
X177767133Y-134713893D01*
X177754520Y-134692849D01*
X177744030Y-134670671D01*
X177735765Y-134647571D01*
X177729804Y-134623773D01*
X177726204Y-134599504D01*
X177725000Y-134575000D01*
X177725000Y-133650000D01*
X177726204Y-133625496D01*
X177729804Y-133601227D01*
X177735765Y-133577429D01*
X177744030Y-133554329D01*
X177754520Y-133532151D01*
X177767133Y-133511107D01*
X177781747Y-133491402D01*
X177798223Y-133473223D01*
X177816402Y-133456747D01*
X177836107Y-133442133D01*
X177857151Y-133429520D01*
X177879329Y-133419030D01*
X177902429Y-133410765D01*
X177926227Y-133404804D01*
X177950496Y-133401204D01*
X177975000Y-133400000D01*
X179225000Y-133400000D01*
X179249504Y-133401204D01*
G37*
G36*
X174674504Y-136126204D02*
G01*
X174698773Y-136129804D01*
X174722571Y-136135765D01*
X174745671Y-136144030D01*
X174767849Y-136154520D01*
X174788893Y-136167133D01*
X174808598Y-136181747D01*
X174826777Y-136198223D01*
X174843253Y-136216402D01*
X174857867Y-136236107D01*
X174870480Y-136257151D01*
X174880970Y-136279329D01*
X174889235Y-136302429D01*
X174895196Y-136326227D01*
X174898796Y-136350496D01*
X174900000Y-136375000D01*
X174900000Y-137625000D01*
X174898796Y-137649504D01*
X174895196Y-137673773D01*
X174889235Y-137697571D01*
X174880970Y-137720671D01*
X174870480Y-137742849D01*
X174857867Y-137763893D01*
X174843253Y-137783598D01*
X174826777Y-137801777D01*
X174808598Y-137818253D01*
X174788893Y-137832867D01*
X174767849Y-137845480D01*
X174745671Y-137855970D01*
X174722571Y-137864235D01*
X174698773Y-137870196D01*
X174674504Y-137873796D01*
X174650000Y-137875000D01*
X173725000Y-137875000D01*
X173700496Y-137873796D01*
X173676227Y-137870196D01*
X173652429Y-137864235D01*
X173629329Y-137855970D01*
X173607151Y-137845480D01*
X173586107Y-137832867D01*
X173566402Y-137818253D01*
X173548223Y-137801777D01*
X173531747Y-137783598D01*
X173517133Y-137763893D01*
X173504520Y-137742849D01*
X173494030Y-137720671D01*
X173485765Y-137697571D01*
X173479804Y-137673773D01*
X173476204Y-137649504D01*
X173475000Y-137625000D01*
X173475000Y-136375000D01*
X173476204Y-136350496D01*
X173479804Y-136326227D01*
X173485765Y-136302429D01*
X173494030Y-136279329D01*
X173504520Y-136257151D01*
X173517133Y-136236107D01*
X173531747Y-136216402D01*
X173548223Y-136198223D01*
X173566402Y-136181747D01*
X173586107Y-136167133D01*
X173607151Y-136154520D01*
X173629329Y-136144030D01*
X173652429Y-136135765D01*
X173676227Y-136129804D01*
X173700496Y-136126204D01*
X173725000Y-136125000D01*
X174650000Y-136125000D01*
X174674504Y-136126204D01*
G37*
G36*
X171699504Y-136126204D02*
G01*
X171723773Y-136129804D01*
X171747571Y-136135765D01*
X171770671Y-136144030D01*
X171792849Y-136154520D01*
X171813893Y-136167133D01*
X171833598Y-136181747D01*
X171851777Y-136198223D01*
X171868253Y-136216402D01*
X171882867Y-136236107D01*
X171895480Y-136257151D01*
X171905970Y-136279329D01*
X171914235Y-136302429D01*
X171920196Y-136326227D01*
X171923796Y-136350496D01*
X171925000Y-136375000D01*
X171925000Y-137625000D01*
X171923796Y-137649504D01*
X171920196Y-137673773D01*
X171914235Y-137697571D01*
X171905970Y-137720671D01*
X171895480Y-137742849D01*
X171882867Y-137763893D01*
X171868253Y-137783598D01*
X171851777Y-137801777D01*
X171833598Y-137818253D01*
X171813893Y-137832867D01*
X171792849Y-137845480D01*
X171770671Y-137855970D01*
X171747571Y-137864235D01*
X171723773Y-137870196D01*
X171699504Y-137873796D01*
X171675000Y-137875000D01*
X170750000Y-137875000D01*
X170725496Y-137873796D01*
X170701227Y-137870196D01*
X170677429Y-137864235D01*
X170654329Y-137855970D01*
X170632151Y-137845480D01*
X170611107Y-137832867D01*
X170591402Y-137818253D01*
X170573223Y-137801777D01*
X170556747Y-137783598D01*
X170542133Y-137763893D01*
X170529520Y-137742849D01*
X170519030Y-137720671D01*
X170510765Y-137697571D01*
X170504804Y-137673773D01*
X170501204Y-137649504D01*
X170500000Y-137625000D01*
X170500000Y-136375000D01*
X170501204Y-136350496D01*
X170504804Y-136326227D01*
X170510765Y-136302429D01*
X170519030Y-136279329D01*
X170529520Y-136257151D01*
X170542133Y-136236107D01*
X170556747Y-136216402D01*
X170573223Y-136198223D01*
X170591402Y-136181747D01*
X170611107Y-136167133D01*
X170632151Y-136154520D01*
X170654329Y-136144030D01*
X170677429Y-136135765D01*
X170701227Y-136129804D01*
X170725496Y-136126204D01*
X170750000Y-136125000D01*
X171675000Y-136125000D01*
X171699504Y-136126204D01*
G37*
D14*
X194600000Y-60770000D03*
X194600000Y-139430000D03*
D15*
X116700000Y-55300000D03*
X115750000Y-53300000D03*
X117650000Y-53300000D03*
D16*
X117800000Y-58600000D03*
X115800000Y-59550000D03*
X115800000Y-57650000D03*
D17*
X153000000Y-53445000D03*
X153000000Y-54715000D03*
X153000000Y-55985000D03*
X153000000Y-57255000D03*
X153000000Y-58525000D03*
X153000000Y-59795000D03*
X153000000Y-61065000D03*
X153000000Y-62335000D03*
X153000000Y-63605000D03*
X153000000Y-64875000D03*
X153000000Y-66145000D03*
X153000000Y-67415000D03*
X153000000Y-68685000D03*
X153000000Y-69955000D03*
D18*
X150215000Y-70955000D03*
X148945000Y-70955000D03*
X147675000Y-70955000D03*
X146405000Y-70955000D03*
X145135000Y-70955000D03*
X143865000Y-70955000D03*
X142595000Y-70955000D03*
X141325000Y-70955000D03*
X140055000Y-70955000D03*
X138785000Y-70955000D03*
D17*
X136000000Y-69955000D03*
X136000000Y-68685000D03*
X136000000Y-67415000D03*
X136000000Y-66145000D03*
X136000000Y-64875000D03*
X136000000Y-63605000D03*
X136000000Y-62335000D03*
X136000000Y-61065000D03*
X136000000Y-59795000D03*
X136000000Y-58525000D03*
X136000000Y-57255000D03*
X136000000Y-55985000D03*
X136000000Y-54715000D03*
X136000000Y-53445000D03*
D19*
X143500000Y-60945000D03*
D10*
G36*
X126339703Y-98685722D02*
G01*
X126354264Y-98687882D01*
X126368543Y-98691459D01*
X126382403Y-98696418D01*
X126395710Y-98702712D01*
X126408336Y-98710280D01*
X126420159Y-98719048D01*
X126431066Y-98728934D01*
X126440952Y-98739841D01*
X126449720Y-98751664D01*
X126457288Y-98764290D01*
X126463582Y-98777597D01*
X126468541Y-98791457D01*
X126472118Y-98805736D01*
X126474278Y-98820297D01*
X126475000Y-98835000D01*
X126475000Y-99135000D01*
X126474278Y-99149703D01*
X126472118Y-99164264D01*
X126468541Y-99178543D01*
X126463582Y-99192403D01*
X126457288Y-99205710D01*
X126449720Y-99218336D01*
X126440952Y-99230159D01*
X126431066Y-99241066D01*
X126420159Y-99250952D01*
X126408336Y-99259720D01*
X126395710Y-99267288D01*
X126382403Y-99273582D01*
X126368543Y-99278541D01*
X126354264Y-99282118D01*
X126339703Y-99284278D01*
X126325000Y-99285000D01*
X124575000Y-99285000D01*
X124560297Y-99284278D01*
X124545736Y-99282118D01*
X124531457Y-99278541D01*
X124517597Y-99273582D01*
X124504290Y-99267288D01*
X124491664Y-99259720D01*
X124479841Y-99250952D01*
X124468934Y-99241066D01*
X124459048Y-99230159D01*
X124450280Y-99218336D01*
X124442712Y-99205710D01*
X124436418Y-99192403D01*
X124431459Y-99178543D01*
X124427882Y-99164264D01*
X124425722Y-99149703D01*
X124425000Y-99135000D01*
X124425000Y-98835000D01*
X124425722Y-98820297D01*
X124427882Y-98805736D01*
X124431459Y-98791457D01*
X124436418Y-98777597D01*
X124442712Y-98764290D01*
X124450280Y-98751664D01*
X124459048Y-98739841D01*
X124468934Y-98728934D01*
X124479841Y-98719048D01*
X124491664Y-98710280D01*
X124504290Y-98702712D01*
X124517597Y-98696418D01*
X124531457Y-98691459D01*
X124545736Y-98687882D01*
X124560297Y-98685722D01*
X124575000Y-98685000D01*
X126325000Y-98685000D01*
X126339703Y-98685722D01*
G37*
G36*
X126339703Y-99955722D02*
G01*
X126354264Y-99957882D01*
X126368543Y-99961459D01*
X126382403Y-99966418D01*
X126395710Y-99972712D01*
X126408336Y-99980280D01*
X126420159Y-99989048D01*
X126431066Y-99998934D01*
X126440952Y-100009841D01*
X126449720Y-100021664D01*
X126457288Y-100034290D01*
X126463582Y-100047597D01*
X126468541Y-100061457D01*
X126472118Y-100075736D01*
X126474278Y-100090297D01*
X126475000Y-100105000D01*
X126475000Y-100405000D01*
X126474278Y-100419703D01*
X126472118Y-100434264D01*
X126468541Y-100448543D01*
X126463582Y-100462403D01*
X126457288Y-100475710D01*
X126449720Y-100488336D01*
X126440952Y-100500159D01*
X126431066Y-100511066D01*
X126420159Y-100520952D01*
X126408336Y-100529720D01*
X126395710Y-100537288D01*
X126382403Y-100543582D01*
X126368543Y-100548541D01*
X126354264Y-100552118D01*
X126339703Y-100554278D01*
X126325000Y-100555000D01*
X124575000Y-100555000D01*
X124560297Y-100554278D01*
X124545736Y-100552118D01*
X124531457Y-100548541D01*
X124517597Y-100543582D01*
X124504290Y-100537288D01*
X124491664Y-100529720D01*
X124479841Y-100520952D01*
X124468934Y-100511066D01*
X124459048Y-100500159D01*
X124450280Y-100488336D01*
X124442712Y-100475710D01*
X124436418Y-100462403D01*
X124431459Y-100448543D01*
X124427882Y-100434264D01*
X124425722Y-100419703D01*
X124425000Y-100405000D01*
X124425000Y-100105000D01*
X124425722Y-100090297D01*
X124427882Y-100075736D01*
X124431459Y-100061457D01*
X124436418Y-100047597D01*
X124442712Y-100034290D01*
X124450280Y-100021664D01*
X124459048Y-100009841D01*
X124468934Y-99998934D01*
X124479841Y-99989048D01*
X124491664Y-99980280D01*
X124504290Y-99972712D01*
X124517597Y-99966418D01*
X124531457Y-99961459D01*
X124545736Y-99957882D01*
X124560297Y-99955722D01*
X124575000Y-99955000D01*
X126325000Y-99955000D01*
X126339703Y-99955722D01*
G37*
G36*
X126339703Y-101225722D02*
G01*
X126354264Y-101227882D01*
X126368543Y-101231459D01*
X126382403Y-101236418D01*
X126395710Y-101242712D01*
X126408336Y-101250280D01*
X126420159Y-101259048D01*
X126431066Y-101268934D01*
X126440952Y-101279841D01*
X126449720Y-101291664D01*
X126457288Y-101304290D01*
X126463582Y-101317597D01*
X126468541Y-101331457D01*
X126472118Y-101345736D01*
X126474278Y-101360297D01*
X126475000Y-101375000D01*
X126475000Y-101675000D01*
X126474278Y-101689703D01*
X126472118Y-101704264D01*
X126468541Y-101718543D01*
X126463582Y-101732403D01*
X126457288Y-101745710D01*
X126449720Y-101758336D01*
X126440952Y-101770159D01*
X126431066Y-101781066D01*
X126420159Y-101790952D01*
X126408336Y-101799720D01*
X126395710Y-101807288D01*
X126382403Y-101813582D01*
X126368543Y-101818541D01*
X126354264Y-101822118D01*
X126339703Y-101824278D01*
X126325000Y-101825000D01*
X124575000Y-101825000D01*
X124560297Y-101824278D01*
X124545736Y-101822118D01*
X124531457Y-101818541D01*
X124517597Y-101813582D01*
X124504290Y-101807288D01*
X124491664Y-101799720D01*
X124479841Y-101790952D01*
X124468934Y-101781066D01*
X124459048Y-101770159D01*
X124450280Y-101758336D01*
X124442712Y-101745710D01*
X124436418Y-101732403D01*
X124431459Y-101718543D01*
X124427882Y-101704264D01*
X124425722Y-101689703D01*
X124425000Y-101675000D01*
X124425000Y-101375000D01*
X124425722Y-101360297D01*
X124427882Y-101345736D01*
X124431459Y-101331457D01*
X124436418Y-101317597D01*
X124442712Y-101304290D01*
X124450280Y-101291664D01*
X124459048Y-101279841D01*
X124468934Y-101268934D01*
X124479841Y-101259048D01*
X124491664Y-101250280D01*
X124504290Y-101242712D01*
X124517597Y-101236418D01*
X124531457Y-101231459D01*
X124545736Y-101227882D01*
X124560297Y-101225722D01*
X124575000Y-101225000D01*
X126325000Y-101225000D01*
X126339703Y-101225722D01*
G37*
G36*
X126339703Y-102495722D02*
G01*
X126354264Y-102497882D01*
X126368543Y-102501459D01*
X126382403Y-102506418D01*
X126395710Y-102512712D01*
X126408336Y-102520280D01*
X126420159Y-102529048D01*
X126431066Y-102538934D01*
X126440952Y-102549841D01*
X126449720Y-102561664D01*
X126457288Y-102574290D01*
X126463582Y-102587597D01*
X126468541Y-102601457D01*
X126472118Y-102615736D01*
X126474278Y-102630297D01*
X126475000Y-102645000D01*
X126475000Y-102945000D01*
X126474278Y-102959703D01*
X126472118Y-102974264D01*
X126468541Y-102988543D01*
X126463582Y-103002403D01*
X126457288Y-103015710D01*
X126449720Y-103028336D01*
X126440952Y-103040159D01*
X126431066Y-103051066D01*
X126420159Y-103060952D01*
X126408336Y-103069720D01*
X126395710Y-103077288D01*
X126382403Y-103083582D01*
X126368543Y-103088541D01*
X126354264Y-103092118D01*
X126339703Y-103094278D01*
X126325000Y-103095000D01*
X124575000Y-103095000D01*
X124560297Y-103094278D01*
X124545736Y-103092118D01*
X124531457Y-103088541D01*
X124517597Y-103083582D01*
X124504290Y-103077288D01*
X124491664Y-103069720D01*
X124479841Y-103060952D01*
X124468934Y-103051066D01*
X124459048Y-103040159D01*
X124450280Y-103028336D01*
X124442712Y-103015710D01*
X124436418Y-103002403D01*
X124431459Y-102988543D01*
X124427882Y-102974264D01*
X124425722Y-102959703D01*
X124425000Y-102945000D01*
X124425000Y-102645000D01*
X124425722Y-102630297D01*
X124427882Y-102615736D01*
X124431459Y-102601457D01*
X124436418Y-102587597D01*
X124442712Y-102574290D01*
X124450280Y-102561664D01*
X124459048Y-102549841D01*
X124468934Y-102538934D01*
X124479841Y-102529048D01*
X124491664Y-102520280D01*
X124504290Y-102512712D01*
X124517597Y-102506418D01*
X124531457Y-102501459D01*
X124545736Y-102497882D01*
X124560297Y-102495722D01*
X124575000Y-102495000D01*
X126325000Y-102495000D01*
X126339703Y-102495722D01*
G37*
G36*
X126339703Y-103765722D02*
G01*
X126354264Y-103767882D01*
X126368543Y-103771459D01*
X126382403Y-103776418D01*
X126395710Y-103782712D01*
X126408336Y-103790280D01*
X126420159Y-103799048D01*
X126431066Y-103808934D01*
X126440952Y-103819841D01*
X126449720Y-103831664D01*
X126457288Y-103844290D01*
X126463582Y-103857597D01*
X126468541Y-103871457D01*
X126472118Y-103885736D01*
X126474278Y-103900297D01*
X126475000Y-103915000D01*
X126475000Y-104215000D01*
X126474278Y-104229703D01*
X126472118Y-104244264D01*
X126468541Y-104258543D01*
X126463582Y-104272403D01*
X126457288Y-104285710D01*
X126449720Y-104298336D01*
X126440952Y-104310159D01*
X126431066Y-104321066D01*
X126420159Y-104330952D01*
X126408336Y-104339720D01*
X126395710Y-104347288D01*
X126382403Y-104353582D01*
X126368543Y-104358541D01*
X126354264Y-104362118D01*
X126339703Y-104364278D01*
X126325000Y-104365000D01*
X124575000Y-104365000D01*
X124560297Y-104364278D01*
X124545736Y-104362118D01*
X124531457Y-104358541D01*
X124517597Y-104353582D01*
X124504290Y-104347288D01*
X124491664Y-104339720D01*
X124479841Y-104330952D01*
X124468934Y-104321066D01*
X124459048Y-104310159D01*
X124450280Y-104298336D01*
X124442712Y-104285710D01*
X124436418Y-104272403D01*
X124431459Y-104258543D01*
X124427882Y-104244264D01*
X124425722Y-104229703D01*
X124425000Y-104215000D01*
X124425000Y-103915000D01*
X124425722Y-103900297D01*
X124427882Y-103885736D01*
X124431459Y-103871457D01*
X124436418Y-103857597D01*
X124442712Y-103844290D01*
X124450280Y-103831664D01*
X124459048Y-103819841D01*
X124468934Y-103808934D01*
X124479841Y-103799048D01*
X124491664Y-103790280D01*
X124504290Y-103782712D01*
X124517597Y-103776418D01*
X124531457Y-103771459D01*
X124545736Y-103767882D01*
X124560297Y-103765722D01*
X124575000Y-103765000D01*
X126325000Y-103765000D01*
X126339703Y-103765722D01*
G37*
G36*
X126339703Y-105035722D02*
G01*
X126354264Y-105037882D01*
X126368543Y-105041459D01*
X126382403Y-105046418D01*
X126395710Y-105052712D01*
X126408336Y-105060280D01*
X126420159Y-105069048D01*
X126431066Y-105078934D01*
X126440952Y-105089841D01*
X126449720Y-105101664D01*
X126457288Y-105114290D01*
X126463582Y-105127597D01*
X126468541Y-105141457D01*
X126472118Y-105155736D01*
X126474278Y-105170297D01*
X126475000Y-105185000D01*
X126475000Y-105485000D01*
X126474278Y-105499703D01*
X126472118Y-105514264D01*
X126468541Y-105528543D01*
X126463582Y-105542403D01*
X126457288Y-105555710D01*
X126449720Y-105568336D01*
X126440952Y-105580159D01*
X126431066Y-105591066D01*
X126420159Y-105600952D01*
X126408336Y-105609720D01*
X126395710Y-105617288D01*
X126382403Y-105623582D01*
X126368543Y-105628541D01*
X126354264Y-105632118D01*
X126339703Y-105634278D01*
X126325000Y-105635000D01*
X124575000Y-105635000D01*
X124560297Y-105634278D01*
X124545736Y-105632118D01*
X124531457Y-105628541D01*
X124517597Y-105623582D01*
X124504290Y-105617288D01*
X124491664Y-105609720D01*
X124479841Y-105600952D01*
X124468934Y-105591066D01*
X124459048Y-105580159D01*
X124450280Y-105568336D01*
X124442712Y-105555710D01*
X124436418Y-105542403D01*
X124431459Y-105528543D01*
X124427882Y-105514264D01*
X124425722Y-105499703D01*
X124425000Y-105485000D01*
X124425000Y-105185000D01*
X124425722Y-105170297D01*
X124427882Y-105155736D01*
X124431459Y-105141457D01*
X124436418Y-105127597D01*
X124442712Y-105114290D01*
X124450280Y-105101664D01*
X124459048Y-105089841D01*
X124468934Y-105078934D01*
X124479841Y-105069048D01*
X124491664Y-105060280D01*
X124504290Y-105052712D01*
X124517597Y-105046418D01*
X124531457Y-105041459D01*
X124545736Y-105037882D01*
X124560297Y-105035722D01*
X124575000Y-105035000D01*
X126325000Y-105035000D01*
X126339703Y-105035722D01*
G37*
G36*
X126339703Y-106305722D02*
G01*
X126354264Y-106307882D01*
X126368543Y-106311459D01*
X126382403Y-106316418D01*
X126395710Y-106322712D01*
X126408336Y-106330280D01*
X126420159Y-106339048D01*
X126431066Y-106348934D01*
X126440952Y-106359841D01*
X126449720Y-106371664D01*
X126457288Y-106384290D01*
X126463582Y-106397597D01*
X126468541Y-106411457D01*
X126472118Y-106425736D01*
X126474278Y-106440297D01*
X126475000Y-106455000D01*
X126475000Y-106755000D01*
X126474278Y-106769703D01*
X126472118Y-106784264D01*
X126468541Y-106798543D01*
X126463582Y-106812403D01*
X126457288Y-106825710D01*
X126449720Y-106838336D01*
X126440952Y-106850159D01*
X126431066Y-106861066D01*
X126420159Y-106870952D01*
X126408336Y-106879720D01*
X126395710Y-106887288D01*
X126382403Y-106893582D01*
X126368543Y-106898541D01*
X126354264Y-106902118D01*
X126339703Y-106904278D01*
X126325000Y-106905000D01*
X124575000Y-106905000D01*
X124560297Y-106904278D01*
X124545736Y-106902118D01*
X124531457Y-106898541D01*
X124517597Y-106893582D01*
X124504290Y-106887288D01*
X124491664Y-106879720D01*
X124479841Y-106870952D01*
X124468934Y-106861066D01*
X124459048Y-106850159D01*
X124450280Y-106838336D01*
X124442712Y-106825710D01*
X124436418Y-106812403D01*
X124431459Y-106798543D01*
X124427882Y-106784264D01*
X124425722Y-106769703D01*
X124425000Y-106755000D01*
X124425000Y-106455000D01*
X124425722Y-106440297D01*
X124427882Y-106425736D01*
X124431459Y-106411457D01*
X124436418Y-106397597D01*
X124442712Y-106384290D01*
X124450280Y-106371664D01*
X124459048Y-106359841D01*
X124468934Y-106348934D01*
X124479841Y-106339048D01*
X124491664Y-106330280D01*
X124504290Y-106322712D01*
X124517597Y-106316418D01*
X124531457Y-106311459D01*
X124545736Y-106307882D01*
X124560297Y-106305722D01*
X124575000Y-106305000D01*
X126325000Y-106305000D01*
X126339703Y-106305722D01*
G37*
G36*
X126339703Y-107575722D02*
G01*
X126354264Y-107577882D01*
X126368543Y-107581459D01*
X126382403Y-107586418D01*
X126395710Y-107592712D01*
X126408336Y-107600280D01*
X126420159Y-107609048D01*
X126431066Y-107618934D01*
X126440952Y-107629841D01*
X126449720Y-107641664D01*
X126457288Y-107654290D01*
X126463582Y-107667597D01*
X126468541Y-107681457D01*
X126472118Y-107695736D01*
X126474278Y-107710297D01*
X126475000Y-107725000D01*
X126475000Y-108025000D01*
X126474278Y-108039703D01*
X126472118Y-108054264D01*
X126468541Y-108068543D01*
X126463582Y-108082403D01*
X126457288Y-108095710D01*
X126449720Y-108108336D01*
X126440952Y-108120159D01*
X126431066Y-108131066D01*
X126420159Y-108140952D01*
X126408336Y-108149720D01*
X126395710Y-108157288D01*
X126382403Y-108163582D01*
X126368543Y-108168541D01*
X126354264Y-108172118D01*
X126339703Y-108174278D01*
X126325000Y-108175000D01*
X124575000Y-108175000D01*
X124560297Y-108174278D01*
X124545736Y-108172118D01*
X124531457Y-108168541D01*
X124517597Y-108163582D01*
X124504290Y-108157288D01*
X124491664Y-108149720D01*
X124479841Y-108140952D01*
X124468934Y-108131066D01*
X124459048Y-108120159D01*
X124450280Y-108108336D01*
X124442712Y-108095710D01*
X124436418Y-108082403D01*
X124431459Y-108068543D01*
X124427882Y-108054264D01*
X124425722Y-108039703D01*
X124425000Y-108025000D01*
X124425000Y-107725000D01*
X124425722Y-107710297D01*
X124427882Y-107695736D01*
X124431459Y-107681457D01*
X124436418Y-107667597D01*
X124442712Y-107654290D01*
X124450280Y-107641664D01*
X124459048Y-107629841D01*
X124468934Y-107618934D01*
X124479841Y-107609048D01*
X124491664Y-107600280D01*
X124504290Y-107592712D01*
X124517597Y-107586418D01*
X124531457Y-107581459D01*
X124545736Y-107577882D01*
X124560297Y-107575722D01*
X124575000Y-107575000D01*
X126325000Y-107575000D01*
X126339703Y-107575722D01*
G37*
G36*
X126339703Y-108845722D02*
G01*
X126354264Y-108847882D01*
X126368543Y-108851459D01*
X126382403Y-108856418D01*
X126395710Y-108862712D01*
X126408336Y-108870280D01*
X126420159Y-108879048D01*
X126431066Y-108888934D01*
X126440952Y-108899841D01*
X126449720Y-108911664D01*
X126457288Y-108924290D01*
X126463582Y-108937597D01*
X126468541Y-108951457D01*
X126472118Y-108965736D01*
X126474278Y-108980297D01*
X126475000Y-108995000D01*
X126475000Y-109295000D01*
X126474278Y-109309703D01*
X126472118Y-109324264D01*
X126468541Y-109338543D01*
X126463582Y-109352403D01*
X126457288Y-109365710D01*
X126449720Y-109378336D01*
X126440952Y-109390159D01*
X126431066Y-109401066D01*
X126420159Y-109410952D01*
X126408336Y-109419720D01*
X126395710Y-109427288D01*
X126382403Y-109433582D01*
X126368543Y-109438541D01*
X126354264Y-109442118D01*
X126339703Y-109444278D01*
X126325000Y-109445000D01*
X124575000Y-109445000D01*
X124560297Y-109444278D01*
X124545736Y-109442118D01*
X124531457Y-109438541D01*
X124517597Y-109433582D01*
X124504290Y-109427288D01*
X124491664Y-109419720D01*
X124479841Y-109410952D01*
X124468934Y-109401066D01*
X124459048Y-109390159D01*
X124450280Y-109378336D01*
X124442712Y-109365710D01*
X124436418Y-109352403D01*
X124431459Y-109338543D01*
X124427882Y-109324264D01*
X124425722Y-109309703D01*
X124425000Y-109295000D01*
X124425000Y-108995000D01*
X124425722Y-108980297D01*
X124427882Y-108965736D01*
X124431459Y-108951457D01*
X124436418Y-108937597D01*
X124442712Y-108924290D01*
X124450280Y-108911664D01*
X124459048Y-108899841D01*
X124468934Y-108888934D01*
X124479841Y-108879048D01*
X124491664Y-108870280D01*
X124504290Y-108862712D01*
X124517597Y-108856418D01*
X124531457Y-108851459D01*
X124545736Y-108847882D01*
X124560297Y-108845722D01*
X124575000Y-108845000D01*
X126325000Y-108845000D01*
X126339703Y-108845722D01*
G37*
G36*
X126339703Y-110115722D02*
G01*
X126354264Y-110117882D01*
X126368543Y-110121459D01*
X126382403Y-110126418D01*
X126395710Y-110132712D01*
X126408336Y-110140280D01*
X126420159Y-110149048D01*
X126431066Y-110158934D01*
X126440952Y-110169841D01*
X126449720Y-110181664D01*
X126457288Y-110194290D01*
X126463582Y-110207597D01*
X126468541Y-110221457D01*
X126472118Y-110235736D01*
X126474278Y-110250297D01*
X126475000Y-110265000D01*
X126475000Y-110565000D01*
X126474278Y-110579703D01*
X126472118Y-110594264D01*
X126468541Y-110608543D01*
X126463582Y-110622403D01*
X126457288Y-110635710D01*
X126449720Y-110648336D01*
X126440952Y-110660159D01*
X126431066Y-110671066D01*
X126420159Y-110680952D01*
X126408336Y-110689720D01*
X126395710Y-110697288D01*
X126382403Y-110703582D01*
X126368543Y-110708541D01*
X126354264Y-110712118D01*
X126339703Y-110714278D01*
X126325000Y-110715000D01*
X124575000Y-110715000D01*
X124560297Y-110714278D01*
X124545736Y-110712118D01*
X124531457Y-110708541D01*
X124517597Y-110703582D01*
X124504290Y-110697288D01*
X124491664Y-110689720D01*
X124479841Y-110680952D01*
X124468934Y-110671066D01*
X124459048Y-110660159D01*
X124450280Y-110648336D01*
X124442712Y-110635710D01*
X124436418Y-110622403D01*
X124431459Y-110608543D01*
X124427882Y-110594264D01*
X124425722Y-110579703D01*
X124425000Y-110565000D01*
X124425000Y-110265000D01*
X124425722Y-110250297D01*
X124427882Y-110235736D01*
X124431459Y-110221457D01*
X124436418Y-110207597D01*
X124442712Y-110194290D01*
X124450280Y-110181664D01*
X124459048Y-110169841D01*
X124468934Y-110158934D01*
X124479841Y-110149048D01*
X124491664Y-110140280D01*
X124504290Y-110132712D01*
X124517597Y-110126418D01*
X124531457Y-110121459D01*
X124545736Y-110117882D01*
X124560297Y-110115722D01*
X124575000Y-110115000D01*
X126325000Y-110115000D01*
X126339703Y-110115722D01*
G37*
G36*
X117039703Y-110115722D02*
G01*
X117054264Y-110117882D01*
X117068543Y-110121459D01*
X117082403Y-110126418D01*
X117095710Y-110132712D01*
X117108336Y-110140280D01*
X117120159Y-110149048D01*
X117131066Y-110158934D01*
X117140952Y-110169841D01*
X117149720Y-110181664D01*
X117157288Y-110194290D01*
X117163582Y-110207597D01*
X117168541Y-110221457D01*
X117172118Y-110235736D01*
X117174278Y-110250297D01*
X117175000Y-110265000D01*
X117175000Y-110565000D01*
X117174278Y-110579703D01*
X117172118Y-110594264D01*
X117168541Y-110608543D01*
X117163582Y-110622403D01*
X117157288Y-110635710D01*
X117149720Y-110648336D01*
X117140952Y-110660159D01*
X117131066Y-110671066D01*
X117120159Y-110680952D01*
X117108336Y-110689720D01*
X117095710Y-110697288D01*
X117082403Y-110703582D01*
X117068543Y-110708541D01*
X117054264Y-110712118D01*
X117039703Y-110714278D01*
X117025000Y-110715000D01*
X115275000Y-110715000D01*
X115260297Y-110714278D01*
X115245736Y-110712118D01*
X115231457Y-110708541D01*
X115217597Y-110703582D01*
X115204290Y-110697288D01*
X115191664Y-110689720D01*
X115179841Y-110680952D01*
X115168934Y-110671066D01*
X115159048Y-110660159D01*
X115150280Y-110648336D01*
X115142712Y-110635710D01*
X115136418Y-110622403D01*
X115131459Y-110608543D01*
X115127882Y-110594264D01*
X115125722Y-110579703D01*
X115125000Y-110565000D01*
X115125000Y-110265000D01*
X115125722Y-110250297D01*
X115127882Y-110235736D01*
X115131459Y-110221457D01*
X115136418Y-110207597D01*
X115142712Y-110194290D01*
X115150280Y-110181664D01*
X115159048Y-110169841D01*
X115168934Y-110158934D01*
X115179841Y-110149048D01*
X115191664Y-110140280D01*
X115204290Y-110132712D01*
X115217597Y-110126418D01*
X115231457Y-110121459D01*
X115245736Y-110117882D01*
X115260297Y-110115722D01*
X115275000Y-110115000D01*
X117025000Y-110115000D01*
X117039703Y-110115722D01*
G37*
G36*
X117039703Y-108845722D02*
G01*
X117054264Y-108847882D01*
X117068543Y-108851459D01*
X117082403Y-108856418D01*
X117095710Y-108862712D01*
X117108336Y-108870280D01*
X117120159Y-108879048D01*
X117131066Y-108888934D01*
X117140952Y-108899841D01*
X117149720Y-108911664D01*
X117157288Y-108924290D01*
X117163582Y-108937597D01*
X117168541Y-108951457D01*
X117172118Y-108965736D01*
X117174278Y-108980297D01*
X117175000Y-108995000D01*
X117175000Y-109295000D01*
X117174278Y-109309703D01*
X117172118Y-109324264D01*
X117168541Y-109338543D01*
X117163582Y-109352403D01*
X117157288Y-109365710D01*
X117149720Y-109378336D01*
X117140952Y-109390159D01*
X117131066Y-109401066D01*
X117120159Y-109410952D01*
X117108336Y-109419720D01*
X117095710Y-109427288D01*
X117082403Y-109433582D01*
X117068543Y-109438541D01*
X117054264Y-109442118D01*
X117039703Y-109444278D01*
X117025000Y-109445000D01*
X115275000Y-109445000D01*
X115260297Y-109444278D01*
X115245736Y-109442118D01*
X115231457Y-109438541D01*
X115217597Y-109433582D01*
X115204290Y-109427288D01*
X115191664Y-109419720D01*
X115179841Y-109410952D01*
X115168934Y-109401066D01*
X115159048Y-109390159D01*
X115150280Y-109378336D01*
X115142712Y-109365710D01*
X115136418Y-109352403D01*
X115131459Y-109338543D01*
X115127882Y-109324264D01*
X115125722Y-109309703D01*
X115125000Y-109295000D01*
X115125000Y-108995000D01*
X115125722Y-108980297D01*
X115127882Y-108965736D01*
X115131459Y-108951457D01*
X115136418Y-108937597D01*
X115142712Y-108924290D01*
X115150280Y-108911664D01*
X115159048Y-108899841D01*
X115168934Y-108888934D01*
X115179841Y-108879048D01*
X115191664Y-108870280D01*
X115204290Y-108862712D01*
X115217597Y-108856418D01*
X115231457Y-108851459D01*
X115245736Y-108847882D01*
X115260297Y-108845722D01*
X115275000Y-108845000D01*
X117025000Y-108845000D01*
X117039703Y-108845722D01*
G37*
G36*
X117039703Y-107575722D02*
G01*
X117054264Y-107577882D01*
X117068543Y-107581459D01*
X117082403Y-107586418D01*
X117095710Y-107592712D01*
X117108336Y-107600280D01*
X117120159Y-107609048D01*
X117131066Y-107618934D01*
X117140952Y-107629841D01*
X117149720Y-107641664D01*
X117157288Y-107654290D01*
X117163582Y-107667597D01*
X117168541Y-107681457D01*
X117172118Y-107695736D01*
X117174278Y-107710297D01*
X117175000Y-107725000D01*
X117175000Y-108025000D01*
X117174278Y-108039703D01*
X117172118Y-108054264D01*
X117168541Y-108068543D01*
X117163582Y-108082403D01*
X117157288Y-108095710D01*
X117149720Y-108108336D01*
X117140952Y-108120159D01*
X117131066Y-108131066D01*
X117120159Y-108140952D01*
X117108336Y-108149720D01*
X117095710Y-108157288D01*
X117082403Y-108163582D01*
X117068543Y-108168541D01*
X117054264Y-108172118D01*
X117039703Y-108174278D01*
X117025000Y-108175000D01*
X115275000Y-108175000D01*
X115260297Y-108174278D01*
X115245736Y-108172118D01*
X115231457Y-108168541D01*
X115217597Y-108163582D01*
X115204290Y-108157288D01*
X115191664Y-108149720D01*
X115179841Y-108140952D01*
X115168934Y-108131066D01*
X115159048Y-108120159D01*
X115150280Y-108108336D01*
X115142712Y-108095710D01*
X115136418Y-108082403D01*
X115131459Y-108068543D01*
X115127882Y-108054264D01*
X115125722Y-108039703D01*
X115125000Y-108025000D01*
X115125000Y-107725000D01*
X115125722Y-107710297D01*
X115127882Y-107695736D01*
X115131459Y-107681457D01*
X115136418Y-107667597D01*
X115142712Y-107654290D01*
X115150280Y-107641664D01*
X115159048Y-107629841D01*
X115168934Y-107618934D01*
X115179841Y-107609048D01*
X115191664Y-107600280D01*
X115204290Y-107592712D01*
X115217597Y-107586418D01*
X115231457Y-107581459D01*
X115245736Y-107577882D01*
X115260297Y-107575722D01*
X115275000Y-107575000D01*
X117025000Y-107575000D01*
X117039703Y-107575722D01*
G37*
G36*
X117039703Y-106305722D02*
G01*
X117054264Y-106307882D01*
X117068543Y-106311459D01*
X117082403Y-106316418D01*
X117095710Y-106322712D01*
X117108336Y-106330280D01*
X117120159Y-106339048D01*
X117131066Y-106348934D01*
X117140952Y-106359841D01*
X117149720Y-106371664D01*
X117157288Y-106384290D01*
X117163582Y-106397597D01*
X117168541Y-106411457D01*
X117172118Y-106425736D01*
X117174278Y-106440297D01*
X117175000Y-106455000D01*
X117175000Y-106755000D01*
X117174278Y-106769703D01*
X117172118Y-106784264D01*
X117168541Y-106798543D01*
X117163582Y-106812403D01*
X117157288Y-106825710D01*
X117149720Y-106838336D01*
X117140952Y-106850159D01*
X117131066Y-106861066D01*
X117120159Y-106870952D01*
X117108336Y-106879720D01*
X117095710Y-106887288D01*
X117082403Y-106893582D01*
X117068543Y-106898541D01*
X117054264Y-106902118D01*
X117039703Y-106904278D01*
X117025000Y-106905000D01*
X115275000Y-106905000D01*
X115260297Y-106904278D01*
X115245736Y-106902118D01*
X115231457Y-106898541D01*
X115217597Y-106893582D01*
X115204290Y-106887288D01*
X115191664Y-106879720D01*
X115179841Y-106870952D01*
X115168934Y-106861066D01*
X115159048Y-106850159D01*
X115150280Y-106838336D01*
X115142712Y-106825710D01*
X115136418Y-106812403D01*
X115131459Y-106798543D01*
X115127882Y-106784264D01*
X115125722Y-106769703D01*
X115125000Y-106755000D01*
X115125000Y-106455000D01*
X115125722Y-106440297D01*
X115127882Y-106425736D01*
X115131459Y-106411457D01*
X115136418Y-106397597D01*
X115142712Y-106384290D01*
X115150280Y-106371664D01*
X115159048Y-106359841D01*
X115168934Y-106348934D01*
X115179841Y-106339048D01*
X115191664Y-106330280D01*
X115204290Y-106322712D01*
X115217597Y-106316418D01*
X115231457Y-106311459D01*
X115245736Y-106307882D01*
X115260297Y-106305722D01*
X115275000Y-106305000D01*
X117025000Y-106305000D01*
X117039703Y-106305722D01*
G37*
G36*
X117039703Y-105035722D02*
G01*
X117054264Y-105037882D01*
X117068543Y-105041459D01*
X117082403Y-105046418D01*
X117095710Y-105052712D01*
X117108336Y-105060280D01*
X117120159Y-105069048D01*
X117131066Y-105078934D01*
X117140952Y-105089841D01*
X117149720Y-105101664D01*
X117157288Y-105114290D01*
X117163582Y-105127597D01*
X117168541Y-105141457D01*
X117172118Y-105155736D01*
X117174278Y-105170297D01*
X117175000Y-105185000D01*
X117175000Y-105485000D01*
X117174278Y-105499703D01*
X117172118Y-105514264D01*
X117168541Y-105528543D01*
X117163582Y-105542403D01*
X117157288Y-105555710D01*
X117149720Y-105568336D01*
X117140952Y-105580159D01*
X117131066Y-105591066D01*
X117120159Y-105600952D01*
X117108336Y-105609720D01*
X117095710Y-105617288D01*
X117082403Y-105623582D01*
X117068543Y-105628541D01*
X117054264Y-105632118D01*
X117039703Y-105634278D01*
X117025000Y-105635000D01*
X115275000Y-105635000D01*
X115260297Y-105634278D01*
X115245736Y-105632118D01*
X115231457Y-105628541D01*
X115217597Y-105623582D01*
X115204290Y-105617288D01*
X115191664Y-105609720D01*
X115179841Y-105600952D01*
X115168934Y-105591066D01*
X115159048Y-105580159D01*
X115150280Y-105568336D01*
X115142712Y-105555710D01*
X115136418Y-105542403D01*
X115131459Y-105528543D01*
X115127882Y-105514264D01*
X115125722Y-105499703D01*
X115125000Y-105485000D01*
X115125000Y-105185000D01*
X115125722Y-105170297D01*
X115127882Y-105155736D01*
X115131459Y-105141457D01*
X115136418Y-105127597D01*
X115142712Y-105114290D01*
X115150280Y-105101664D01*
X115159048Y-105089841D01*
X115168934Y-105078934D01*
X115179841Y-105069048D01*
X115191664Y-105060280D01*
X115204290Y-105052712D01*
X115217597Y-105046418D01*
X115231457Y-105041459D01*
X115245736Y-105037882D01*
X115260297Y-105035722D01*
X115275000Y-105035000D01*
X117025000Y-105035000D01*
X117039703Y-105035722D01*
G37*
G36*
X117039703Y-103765722D02*
G01*
X117054264Y-103767882D01*
X117068543Y-103771459D01*
X117082403Y-103776418D01*
X117095710Y-103782712D01*
X117108336Y-103790280D01*
X117120159Y-103799048D01*
X117131066Y-103808934D01*
X117140952Y-103819841D01*
X117149720Y-103831664D01*
X117157288Y-103844290D01*
X117163582Y-103857597D01*
X117168541Y-103871457D01*
X117172118Y-103885736D01*
X117174278Y-103900297D01*
X117175000Y-103915000D01*
X117175000Y-104215000D01*
X117174278Y-104229703D01*
X117172118Y-104244264D01*
X117168541Y-104258543D01*
X117163582Y-104272403D01*
X117157288Y-104285710D01*
X117149720Y-104298336D01*
X117140952Y-104310159D01*
X117131066Y-104321066D01*
X117120159Y-104330952D01*
X117108336Y-104339720D01*
X117095710Y-104347288D01*
X117082403Y-104353582D01*
X117068543Y-104358541D01*
X117054264Y-104362118D01*
X117039703Y-104364278D01*
X117025000Y-104365000D01*
X115275000Y-104365000D01*
X115260297Y-104364278D01*
X115245736Y-104362118D01*
X115231457Y-104358541D01*
X115217597Y-104353582D01*
X115204290Y-104347288D01*
X115191664Y-104339720D01*
X115179841Y-104330952D01*
X115168934Y-104321066D01*
X115159048Y-104310159D01*
X115150280Y-104298336D01*
X115142712Y-104285710D01*
X115136418Y-104272403D01*
X115131459Y-104258543D01*
X115127882Y-104244264D01*
X115125722Y-104229703D01*
X115125000Y-104215000D01*
X115125000Y-103915000D01*
X115125722Y-103900297D01*
X115127882Y-103885736D01*
X115131459Y-103871457D01*
X115136418Y-103857597D01*
X115142712Y-103844290D01*
X115150280Y-103831664D01*
X115159048Y-103819841D01*
X115168934Y-103808934D01*
X115179841Y-103799048D01*
X115191664Y-103790280D01*
X115204290Y-103782712D01*
X115217597Y-103776418D01*
X115231457Y-103771459D01*
X115245736Y-103767882D01*
X115260297Y-103765722D01*
X115275000Y-103765000D01*
X117025000Y-103765000D01*
X117039703Y-103765722D01*
G37*
G36*
X117039703Y-102495722D02*
G01*
X117054264Y-102497882D01*
X117068543Y-102501459D01*
X117082403Y-102506418D01*
X117095710Y-102512712D01*
X117108336Y-102520280D01*
X117120159Y-102529048D01*
X117131066Y-102538934D01*
X117140952Y-102549841D01*
X117149720Y-102561664D01*
X117157288Y-102574290D01*
X117163582Y-102587597D01*
X117168541Y-102601457D01*
X117172118Y-102615736D01*
X117174278Y-102630297D01*
X117175000Y-102645000D01*
X117175000Y-102945000D01*
X117174278Y-102959703D01*
X117172118Y-102974264D01*
X117168541Y-102988543D01*
X117163582Y-103002403D01*
X117157288Y-103015710D01*
X117149720Y-103028336D01*
X117140952Y-103040159D01*
X117131066Y-103051066D01*
X117120159Y-103060952D01*
X117108336Y-103069720D01*
X117095710Y-103077288D01*
X117082403Y-103083582D01*
X117068543Y-103088541D01*
X117054264Y-103092118D01*
X117039703Y-103094278D01*
X117025000Y-103095000D01*
X115275000Y-103095000D01*
X115260297Y-103094278D01*
X115245736Y-103092118D01*
X115231457Y-103088541D01*
X115217597Y-103083582D01*
X115204290Y-103077288D01*
X115191664Y-103069720D01*
X115179841Y-103060952D01*
X115168934Y-103051066D01*
X115159048Y-103040159D01*
X115150280Y-103028336D01*
X115142712Y-103015710D01*
X115136418Y-103002403D01*
X115131459Y-102988543D01*
X115127882Y-102974264D01*
X115125722Y-102959703D01*
X115125000Y-102945000D01*
X115125000Y-102645000D01*
X115125722Y-102630297D01*
X115127882Y-102615736D01*
X115131459Y-102601457D01*
X115136418Y-102587597D01*
X115142712Y-102574290D01*
X115150280Y-102561664D01*
X115159048Y-102549841D01*
X115168934Y-102538934D01*
X115179841Y-102529048D01*
X115191664Y-102520280D01*
X115204290Y-102512712D01*
X115217597Y-102506418D01*
X115231457Y-102501459D01*
X115245736Y-102497882D01*
X115260297Y-102495722D01*
X115275000Y-102495000D01*
X117025000Y-102495000D01*
X117039703Y-102495722D01*
G37*
G36*
X117039703Y-101225722D02*
G01*
X117054264Y-101227882D01*
X117068543Y-101231459D01*
X117082403Y-101236418D01*
X117095710Y-101242712D01*
X117108336Y-101250280D01*
X117120159Y-101259048D01*
X117131066Y-101268934D01*
X117140952Y-101279841D01*
X117149720Y-101291664D01*
X117157288Y-101304290D01*
X117163582Y-101317597D01*
X117168541Y-101331457D01*
X117172118Y-101345736D01*
X117174278Y-101360297D01*
X117175000Y-101375000D01*
X117175000Y-101675000D01*
X117174278Y-101689703D01*
X117172118Y-101704264D01*
X117168541Y-101718543D01*
X117163582Y-101732403D01*
X117157288Y-101745710D01*
X117149720Y-101758336D01*
X117140952Y-101770159D01*
X117131066Y-101781066D01*
X117120159Y-101790952D01*
X117108336Y-101799720D01*
X117095710Y-101807288D01*
X117082403Y-101813582D01*
X117068543Y-101818541D01*
X117054264Y-101822118D01*
X117039703Y-101824278D01*
X117025000Y-101825000D01*
X115275000Y-101825000D01*
X115260297Y-101824278D01*
X115245736Y-101822118D01*
X115231457Y-101818541D01*
X115217597Y-101813582D01*
X115204290Y-101807288D01*
X115191664Y-101799720D01*
X115179841Y-101790952D01*
X115168934Y-101781066D01*
X115159048Y-101770159D01*
X115150280Y-101758336D01*
X115142712Y-101745710D01*
X115136418Y-101732403D01*
X115131459Y-101718543D01*
X115127882Y-101704264D01*
X115125722Y-101689703D01*
X115125000Y-101675000D01*
X115125000Y-101375000D01*
X115125722Y-101360297D01*
X115127882Y-101345736D01*
X115131459Y-101331457D01*
X115136418Y-101317597D01*
X115142712Y-101304290D01*
X115150280Y-101291664D01*
X115159048Y-101279841D01*
X115168934Y-101268934D01*
X115179841Y-101259048D01*
X115191664Y-101250280D01*
X115204290Y-101242712D01*
X115217597Y-101236418D01*
X115231457Y-101231459D01*
X115245736Y-101227882D01*
X115260297Y-101225722D01*
X115275000Y-101225000D01*
X117025000Y-101225000D01*
X117039703Y-101225722D01*
G37*
G36*
X117039703Y-99955722D02*
G01*
X117054264Y-99957882D01*
X117068543Y-99961459D01*
X117082403Y-99966418D01*
X117095710Y-99972712D01*
X117108336Y-99980280D01*
X117120159Y-99989048D01*
X117131066Y-99998934D01*
X117140952Y-100009841D01*
X117149720Y-100021664D01*
X117157288Y-100034290D01*
X117163582Y-100047597D01*
X117168541Y-100061457D01*
X117172118Y-100075736D01*
X117174278Y-100090297D01*
X117175000Y-100105000D01*
X117175000Y-100405000D01*
X117174278Y-100419703D01*
X117172118Y-100434264D01*
X117168541Y-100448543D01*
X117163582Y-100462403D01*
X117157288Y-100475710D01*
X117149720Y-100488336D01*
X117140952Y-100500159D01*
X117131066Y-100511066D01*
X117120159Y-100520952D01*
X117108336Y-100529720D01*
X117095710Y-100537288D01*
X117082403Y-100543582D01*
X117068543Y-100548541D01*
X117054264Y-100552118D01*
X117039703Y-100554278D01*
X117025000Y-100555000D01*
X115275000Y-100555000D01*
X115260297Y-100554278D01*
X115245736Y-100552118D01*
X115231457Y-100548541D01*
X115217597Y-100543582D01*
X115204290Y-100537288D01*
X115191664Y-100529720D01*
X115179841Y-100520952D01*
X115168934Y-100511066D01*
X115159048Y-100500159D01*
X115150280Y-100488336D01*
X115142712Y-100475710D01*
X115136418Y-100462403D01*
X115131459Y-100448543D01*
X115127882Y-100434264D01*
X115125722Y-100419703D01*
X115125000Y-100405000D01*
X115125000Y-100105000D01*
X115125722Y-100090297D01*
X115127882Y-100075736D01*
X115131459Y-100061457D01*
X115136418Y-100047597D01*
X115142712Y-100034290D01*
X115150280Y-100021664D01*
X115159048Y-100009841D01*
X115168934Y-99998934D01*
X115179841Y-99989048D01*
X115191664Y-99980280D01*
X115204290Y-99972712D01*
X115217597Y-99966418D01*
X115231457Y-99961459D01*
X115245736Y-99957882D01*
X115260297Y-99955722D01*
X115275000Y-99955000D01*
X117025000Y-99955000D01*
X117039703Y-99955722D01*
G37*
G36*
X117039703Y-98685722D02*
G01*
X117054264Y-98687882D01*
X117068543Y-98691459D01*
X117082403Y-98696418D01*
X117095710Y-98702712D01*
X117108336Y-98710280D01*
X117120159Y-98719048D01*
X117131066Y-98728934D01*
X117140952Y-98739841D01*
X117149720Y-98751664D01*
X117157288Y-98764290D01*
X117163582Y-98777597D01*
X117168541Y-98791457D01*
X117172118Y-98805736D01*
X117174278Y-98820297D01*
X117175000Y-98835000D01*
X117175000Y-99135000D01*
X117174278Y-99149703D01*
X117172118Y-99164264D01*
X117168541Y-99178543D01*
X117163582Y-99192403D01*
X117157288Y-99205710D01*
X117149720Y-99218336D01*
X117140952Y-99230159D01*
X117131066Y-99241066D01*
X117120159Y-99250952D01*
X117108336Y-99259720D01*
X117095710Y-99267288D01*
X117082403Y-99273582D01*
X117068543Y-99278541D01*
X117054264Y-99282118D01*
X117039703Y-99284278D01*
X117025000Y-99285000D01*
X115275000Y-99285000D01*
X115260297Y-99284278D01*
X115245736Y-99282118D01*
X115231457Y-99278541D01*
X115217597Y-99273582D01*
X115204290Y-99267288D01*
X115191664Y-99259720D01*
X115179841Y-99250952D01*
X115168934Y-99241066D01*
X115159048Y-99230159D01*
X115150280Y-99218336D01*
X115142712Y-99205710D01*
X115136418Y-99192403D01*
X115131459Y-99178543D01*
X115127882Y-99164264D01*
X115125722Y-99149703D01*
X115125000Y-99135000D01*
X115125000Y-98835000D01*
X115125722Y-98820297D01*
X115127882Y-98805736D01*
X115131459Y-98791457D01*
X115136418Y-98777597D01*
X115142712Y-98764290D01*
X115150280Y-98751664D01*
X115159048Y-98739841D01*
X115168934Y-98728934D01*
X115179841Y-98719048D01*
X115191664Y-98710280D01*
X115204290Y-98702712D01*
X115217597Y-98696418D01*
X115231457Y-98691459D01*
X115245736Y-98687882D01*
X115260297Y-98685722D01*
X115275000Y-98685000D01*
X117025000Y-98685000D01*
X117039703Y-98685722D01*
G37*
G36*
X124939703Y-76485722D02*
G01*
X124954264Y-76487882D01*
X124968543Y-76491459D01*
X124982403Y-76496418D01*
X124995710Y-76502712D01*
X125008336Y-76510280D01*
X125020159Y-76519048D01*
X125031066Y-76528934D01*
X125040952Y-76539841D01*
X125049720Y-76551664D01*
X125057288Y-76564290D01*
X125063582Y-76577597D01*
X125068541Y-76591457D01*
X125072118Y-76605736D01*
X125074278Y-76620297D01*
X125075000Y-76635000D01*
X125075000Y-76935000D01*
X125074278Y-76949703D01*
X125072118Y-76964264D01*
X125068541Y-76978543D01*
X125063582Y-76992403D01*
X125057288Y-77005710D01*
X125049720Y-77018336D01*
X125040952Y-77030159D01*
X125031066Y-77041066D01*
X125020159Y-77050952D01*
X125008336Y-77059720D01*
X124995710Y-77067288D01*
X124982403Y-77073582D01*
X124968543Y-77078541D01*
X124954264Y-77082118D01*
X124939703Y-77084278D01*
X124925000Y-77085000D01*
X123175000Y-77085000D01*
X123160297Y-77084278D01*
X123145736Y-77082118D01*
X123131457Y-77078541D01*
X123117597Y-77073582D01*
X123104290Y-77067288D01*
X123091664Y-77059720D01*
X123079841Y-77050952D01*
X123068934Y-77041066D01*
X123059048Y-77030159D01*
X123050280Y-77018336D01*
X123042712Y-77005710D01*
X123036418Y-76992403D01*
X123031459Y-76978543D01*
X123027882Y-76964264D01*
X123025722Y-76949703D01*
X123025000Y-76935000D01*
X123025000Y-76635000D01*
X123025722Y-76620297D01*
X123027882Y-76605736D01*
X123031459Y-76591457D01*
X123036418Y-76577597D01*
X123042712Y-76564290D01*
X123050280Y-76551664D01*
X123059048Y-76539841D01*
X123068934Y-76528934D01*
X123079841Y-76519048D01*
X123091664Y-76510280D01*
X123104290Y-76502712D01*
X123117597Y-76496418D01*
X123131457Y-76491459D01*
X123145736Y-76487882D01*
X123160297Y-76485722D01*
X123175000Y-76485000D01*
X124925000Y-76485000D01*
X124939703Y-76485722D01*
G37*
G36*
X124939703Y-77755722D02*
G01*
X124954264Y-77757882D01*
X124968543Y-77761459D01*
X124982403Y-77766418D01*
X124995710Y-77772712D01*
X125008336Y-77780280D01*
X125020159Y-77789048D01*
X125031066Y-77798934D01*
X125040952Y-77809841D01*
X125049720Y-77821664D01*
X125057288Y-77834290D01*
X125063582Y-77847597D01*
X125068541Y-77861457D01*
X125072118Y-77875736D01*
X125074278Y-77890297D01*
X125075000Y-77905000D01*
X125075000Y-78205000D01*
X125074278Y-78219703D01*
X125072118Y-78234264D01*
X125068541Y-78248543D01*
X125063582Y-78262403D01*
X125057288Y-78275710D01*
X125049720Y-78288336D01*
X125040952Y-78300159D01*
X125031066Y-78311066D01*
X125020159Y-78320952D01*
X125008336Y-78329720D01*
X124995710Y-78337288D01*
X124982403Y-78343582D01*
X124968543Y-78348541D01*
X124954264Y-78352118D01*
X124939703Y-78354278D01*
X124925000Y-78355000D01*
X123175000Y-78355000D01*
X123160297Y-78354278D01*
X123145736Y-78352118D01*
X123131457Y-78348541D01*
X123117597Y-78343582D01*
X123104290Y-78337288D01*
X123091664Y-78329720D01*
X123079841Y-78320952D01*
X123068934Y-78311066D01*
X123059048Y-78300159D01*
X123050280Y-78288336D01*
X123042712Y-78275710D01*
X123036418Y-78262403D01*
X123031459Y-78248543D01*
X123027882Y-78234264D01*
X123025722Y-78219703D01*
X123025000Y-78205000D01*
X123025000Y-77905000D01*
X123025722Y-77890297D01*
X123027882Y-77875736D01*
X123031459Y-77861457D01*
X123036418Y-77847597D01*
X123042712Y-77834290D01*
X123050280Y-77821664D01*
X123059048Y-77809841D01*
X123068934Y-77798934D01*
X123079841Y-77789048D01*
X123091664Y-77780280D01*
X123104290Y-77772712D01*
X123117597Y-77766418D01*
X123131457Y-77761459D01*
X123145736Y-77757882D01*
X123160297Y-77755722D01*
X123175000Y-77755000D01*
X124925000Y-77755000D01*
X124939703Y-77755722D01*
G37*
G36*
X124939703Y-79025722D02*
G01*
X124954264Y-79027882D01*
X124968543Y-79031459D01*
X124982403Y-79036418D01*
X124995710Y-79042712D01*
X125008336Y-79050280D01*
X125020159Y-79059048D01*
X125031066Y-79068934D01*
X125040952Y-79079841D01*
X125049720Y-79091664D01*
X125057288Y-79104290D01*
X125063582Y-79117597D01*
X125068541Y-79131457D01*
X125072118Y-79145736D01*
X125074278Y-79160297D01*
X125075000Y-79175000D01*
X125075000Y-79475000D01*
X125074278Y-79489703D01*
X125072118Y-79504264D01*
X125068541Y-79518543D01*
X125063582Y-79532403D01*
X125057288Y-79545710D01*
X125049720Y-79558336D01*
X125040952Y-79570159D01*
X125031066Y-79581066D01*
X125020159Y-79590952D01*
X125008336Y-79599720D01*
X124995710Y-79607288D01*
X124982403Y-79613582D01*
X124968543Y-79618541D01*
X124954264Y-79622118D01*
X124939703Y-79624278D01*
X124925000Y-79625000D01*
X123175000Y-79625000D01*
X123160297Y-79624278D01*
X123145736Y-79622118D01*
X123131457Y-79618541D01*
X123117597Y-79613582D01*
X123104290Y-79607288D01*
X123091664Y-79599720D01*
X123079841Y-79590952D01*
X123068934Y-79581066D01*
X123059048Y-79570159D01*
X123050280Y-79558336D01*
X123042712Y-79545710D01*
X123036418Y-79532403D01*
X123031459Y-79518543D01*
X123027882Y-79504264D01*
X123025722Y-79489703D01*
X123025000Y-79475000D01*
X123025000Y-79175000D01*
X123025722Y-79160297D01*
X123027882Y-79145736D01*
X123031459Y-79131457D01*
X123036418Y-79117597D01*
X123042712Y-79104290D01*
X123050280Y-79091664D01*
X123059048Y-79079841D01*
X123068934Y-79068934D01*
X123079841Y-79059048D01*
X123091664Y-79050280D01*
X123104290Y-79042712D01*
X123117597Y-79036418D01*
X123131457Y-79031459D01*
X123145736Y-79027882D01*
X123160297Y-79025722D01*
X123175000Y-79025000D01*
X124925000Y-79025000D01*
X124939703Y-79025722D01*
G37*
G36*
X124939703Y-80295722D02*
G01*
X124954264Y-80297882D01*
X124968543Y-80301459D01*
X124982403Y-80306418D01*
X124995710Y-80312712D01*
X125008336Y-80320280D01*
X125020159Y-80329048D01*
X125031066Y-80338934D01*
X125040952Y-80349841D01*
X125049720Y-80361664D01*
X125057288Y-80374290D01*
X125063582Y-80387597D01*
X125068541Y-80401457D01*
X125072118Y-80415736D01*
X125074278Y-80430297D01*
X125075000Y-80445000D01*
X125075000Y-80745000D01*
X125074278Y-80759703D01*
X125072118Y-80774264D01*
X125068541Y-80788543D01*
X125063582Y-80802403D01*
X125057288Y-80815710D01*
X125049720Y-80828336D01*
X125040952Y-80840159D01*
X125031066Y-80851066D01*
X125020159Y-80860952D01*
X125008336Y-80869720D01*
X124995710Y-80877288D01*
X124982403Y-80883582D01*
X124968543Y-80888541D01*
X124954264Y-80892118D01*
X124939703Y-80894278D01*
X124925000Y-80895000D01*
X123175000Y-80895000D01*
X123160297Y-80894278D01*
X123145736Y-80892118D01*
X123131457Y-80888541D01*
X123117597Y-80883582D01*
X123104290Y-80877288D01*
X123091664Y-80869720D01*
X123079841Y-80860952D01*
X123068934Y-80851066D01*
X123059048Y-80840159D01*
X123050280Y-80828336D01*
X123042712Y-80815710D01*
X123036418Y-80802403D01*
X123031459Y-80788543D01*
X123027882Y-80774264D01*
X123025722Y-80759703D01*
X123025000Y-80745000D01*
X123025000Y-80445000D01*
X123025722Y-80430297D01*
X123027882Y-80415736D01*
X123031459Y-80401457D01*
X123036418Y-80387597D01*
X123042712Y-80374290D01*
X123050280Y-80361664D01*
X123059048Y-80349841D01*
X123068934Y-80338934D01*
X123079841Y-80329048D01*
X123091664Y-80320280D01*
X123104290Y-80312712D01*
X123117597Y-80306418D01*
X123131457Y-80301459D01*
X123145736Y-80297882D01*
X123160297Y-80295722D01*
X123175000Y-80295000D01*
X124925000Y-80295000D01*
X124939703Y-80295722D01*
G37*
G36*
X124939703Y-81565722D02*
G01*
X124954264Y-81567882D01*
X124968543Y-81571459D01*
X124982403Y-81576418D01*
X124995710Y-81582712D01*
X125008336Y-81590280D01*
X125020159Y-81599048D01*
X125031066Y-81608934D01*
X125040952Y-81619841D01*
X125049720Y-81631664D01*
X125057288Y-81644290D01*
X125063582Y-81657597D01*
X125068541Y-81671457D01*
X125072118Y-81685736D01*
X125074278Y-81700297D01*
X125075000Y-81715000D01*
X125075000Y-82015000D01*
X125074278Y-82029703D01*
X125072118Y-82044264D01*
X125068541Y-82058543D01*
X125063582Y-82072403D01*
X125057288Y-82085710D01*
X125049720Y-82098336D01*
X125040952Y-82110159D01*
X125031066Y-82121066D01*
X125020159Y-82130952D01*
X125008336Y-82139720D01*
X124995710Y-82147288D01*
X124982403Y-82153582D01*
X124968543Y-82158541D01*
X124954264Y-82162118D01*
X124939703Y-82164278D01*
X124925000Y-82165000D01*
X123175000Y-82165000D01*
X123160297Y-82164278D01*
X123145736Y-82162118D01*
X123131457Y-82158541D01*
X123117597Y-82153582D01*
X123104290Y-82147288D01*
X123091664Y-82139720D01*
X123079841Y-82130952D01*
X123068934Y-82121066D01*
X123059048Y-82110159D01*
X123050280Y-82098336D01*
X123042712Y-82085710D01*
X123036418Y-82072403D01*
X123031459Y-82058543D01*
X123027882Y-82044264D01*
X123025722Y-82029703D01*
X123025000Y-82015000D01*
X123025000Y-81715000D01*
X123025722Y-81700297D01*
X123027882Y-81685736D01*
X123031459Y-81671457D01*
X123036418Y-81657597D01*
X123042712Y-81644290D01*
X123050280Y-81631664D01*
X123059048Y-81619841D01*
X123068934Y-81608934D01*
X123079841Y-81599048D01*
X123091664Y-81590280D01*
X123104290Y-81582712D01*
X123117597Y-81576418D01*
X123131457Y-81571459D01*
X123145736Y-81567882D01*
X123160297Y-81565722D01*
X123175000Y-81565000D01*
X124925000Y-81565000D01*
X124939703Y-81565722D01*
G37*
G36*
X124939703Y-82835722D02*
G01*
X124954264Y-82837882D01*
X124968543Y-82841459D01*
X124982403Y-82846418D01*
X124995710Y-82852712D01*
X125008336Y-82860280D01*
X125020159Y-82869048D01*
X125031066Y-82878934D01*
X125040952Y-82889841D01*
X125049720Y-82901664D01*
X125057288Y-82914290D01*
X125063582Y-82927597D01*
X125068541Y-82941457D01*
X125072118Y-82955736D01*
X125074278Y-82970297D01*
X125075000Y-82985000D01*
X125075000Y-83285000D01*
X125074278Y-83299703D01*
X125072118Y-83314264D01*
X125068541Y-83328543D01*
X125063582Y-83342403D01*
X125057288Y-83355710D01*
X125049720Y-83368336D01*
X125040952Y-83380159D01*
X125031066Y-83391066D01*
X125020159Y-83400952D01*
X125008336Y-83409720D01*
X124995710Y-83417288D01*
X124982403Y-83423582D01*
X124968543Y-83428541D01*
X124954264Y-83432118D01*
X124939703Y-83434278D01*
X124925000Y-83435000D01*
X123175000Y-83435000D01*
X123160297Y-83434278D01*
X123145736Y-83432118D01*
X123131457Y-83428541D01*
X123117597Y-83423582D01*
X123104290Y-83417288D01*
X123091664Y-83409720D01*
X123079841Y-83400952D01*
X123068934Y-83391066D01*
X123059048Y-83380159D01*
X123050280Y-83368336D01*
X123042712Y-83355710D01*
X123036418Y-83342403D01*
X123031459Y-83328543D01*
X123027882Y-83314264D01*
X123025722Y-83299703D01*
X123025000Y-83285000D01*
X123025000Y-82985000D01*
X123025722Y-82970297D01*
X123027882Y-82955736D01*
X123031459Y-82941457D01*
X123036418Y-82927597D01*
X123042712Y-82914290D01*
X123050280Y-82901664D01*
X123059048Y-82889841D01*
X123068934Y-82878934D01*
X123079841Y-82869048D01*
X123091664Y-82860280D01*
X123104290Y-82852712D01*
X123117597Y-82846418D01*
X123131457Y-82841459D01*
X123145736Y-82837882D01*
X123160297Y-82835722D01*
X123175000Y-82835000D01*
X124925000Y-82835000D01*
X124939703Y-82835722D01*
G37*
G36*
X124939703Y-84105722D02*
G01*
X124954264Y-84107882D01*
X124968543Y-84111459D01*
X124982403Y-84116418D01*
X124995710Y-84122712D01*
X125008336Y-84130280D01*
X125020159Y-84139048D01*
X125031066Y-84148934D01*
X125040952Y-84159841D01*
X125049720Y-84171664D01*
X125057288Y-84184290D01*
X125063582Y-84197597D01*
X125068541Y-84211457D01*
X125072118Y-84225736D01*
X125074278Y-84240297D01*
X125075000Y-84255000D01*
X125075000Y-84555000D01*
X125074278Y-84569703D01*
X125072118Y-84584264D01*
X125068541Y-84598543D01*
X125063582Y-84612403D01*
X125057288Y-84625710D01*
X125049720Y-84638336D01*
X125040952Y-84650159D01*
X125031066Y-84661066D01*
X125020159Y-84670952D01*
X125008336Y-84679720D01*
X124995710Y-84687288D01*
X124982403Y-84693582D01*
X124968543Y-84698541D01*
X124954264Y-84702118D01*
X124939703Y-84704278D01*
X124925000Y-84705000D01*
X123175000Y-84705000D01*
X123160297Y-84704278D01*
X123145736Y-84702118D01*
X123131457Y-84698541D01*
X123117597Y-84693582D01*
X123104290Y-84687288D01*
X123091664Y-84679720D01*
X123079841Y-84670952D01*
X123068934Y-84661066D01*
X123059048Y-84650159D01*
X123050280Y-84638336D01*
X123042712Y-84625710D01*
X123036418Y-84612403D01*
X123031459Y-84598543D01*
X123027882Y-84584264D01*
X123025722Y-84569703D01*
X123025000Y-84555000D01*
X123025000Y-84255000D01*
X123025722Y-84240297D01*
X123027882Y-84225736D01*
X123031459Y-84211457D01*
X123036418Y-84197597D01*
X123042712Y-84184290D01*
X123050280Y-84171664D01*
X123059048Y-84159841D01*
X123068934Y-84148934D01*
X123079841Y-84139048D01*
X123091664Y-84130280D01*
X123104290Y-84122712D01*
X123117597Y-84116418D01*
X123131457Y-84111459D01*
X123145736Y-84107882D01*
X123160297Y-84105722D01*
X123175000Y-84105000D01*
X124925000Y-84105000D01*
X124939703Y-84105722D01*
G37*
G36*
X124939703Y-85375722D02*
G01*
X124954264Y-85377882D01*
X124968543Y-85381459D01*
X124982403Y-85386418D01*
X124995710Y-85392712D01*
X125008336Y-85400280D01*
X125020159Y-85409048D01*
X125031066Y-85418934D01*
X125040952Y-85429841D01*
X125049720Y-85441664D01*
X125057288Y-85454290D01*
X125063582Y-85467597D01*
X125068541Y-85481457D01*
X125072118Y-85495736D01*
X125074278Y-85510297D01*
X125075000Y-85525000D01*
X125075000Y-85825000D01*
X125074278Y-85839703D01*
X125072118Y-85854264D01*
X125068541Y-85868543D01*
X125063582Y-85882403D01*
X125057288Y-85895710D01*
X125049720Y-85908336D01*
X125040952Y-85920159D01*
X125031066Y-85931066D01*
X125020159Y-85940952D01*
X125008336Y-85949720D01*
X124995710Y-85957288D01*
X124982403Y-85963582D01*
X124968543Y-85968541D01*
X124954264Y-85972118D01*
X124939703Y-85974278D01*
X124925000Y-85975000D01*
X123175000Y-85975000D01*
X123160297Y-85974278D01*
X123145736Y-85972118D01*
X123131457Y-85968541D01*
X123117597Y-85963582D01*
X123104290Y-85957288D01*
X123091664Y-85949720D01*
X123079841Y-85940952D01*
X123068934Y-85931066D01*
X123059048Y-85920159D01*
X123050280Y-85908336D01*
X123042712Y-85895710D01*
X123036418Y-85882403D01*
X123031459Y-85868543D01*
X123027882Y-85854264D01*
X123025722Y-85839703D01*
X123025000Y-85825000D01*
X123025000Y-85525000D01*
X123025722Y-85510297D01*
X123027882Y-85495736D01*
X123031459Y-85481457D01*
X123036418Y-85467597D01*
X123042712Y-85454290D01*
X123050280Y-85441664D01*
X123059048Y-85429841D01*
X123068934Y-85418934D01*
X123079841Y-85409048D01*
X123091664Y-85400280D01*
X123104290Y-85392712D01*
X123117597Y-85386418D01*
X123131457Y-85381459D01*
X123145736Y-85377882D01*
X123160297Y-85375722D01*
X123175000Y-85375000D01*
X124925000Y-85375000D01*
X124939703Y-85375722D01*
G37*
G36*
X124939703Y-86645722D02*
G01*
X124954264Y-86647882D01*
X124968543Y-86651459D01*
X124982403Y-86656418D01*
X124995710Y-86662712D01*
X125008336Y-86670280D01*
X125020159Y-86679048D01*
X125031066Y-86688934D01*
X125040952Y-86699841D01*
X125049720Y-86711664D01*
X125057288Y-86724290D01*
X125063582Y-86737597D01*
X125068541Y-86751457D01*
X125072118Y-86765736D01*
X125074278Y-86780297D01*
X125075000Y-86795000D01*
X125075000Y-87095000D01*
X125074278Y-87109703D01*
X125072118Y-87124264D01*
X125068541Y-87138543D01*
X125063582Y-87152403D01*
X125057288Y-87165710D01*
X125049720Y-87178336D01*
X125040952Y-87190159D01*
X125031066Y-87201066D01*
X125020159Y-87210952D01*
X125008336Y-87219720D01*
X124995710Y-87227288D01*
X124982403Y-87233582D01*
X124968543Y-87238541D01*
X124954264Y-87242118D01*
X124939703Y-87244278D01*
X124925000Y-87245000D01*
X123175000Y-87245000D01*
X123160297Y-87244278D01*
X123145736Y-87242118D01*
X123131457Y-87238541D01*
X123117597Y-87233582D01*
X123104290Y-87227288D01*
X123091664Y-87219720D01*
X123079841Y-87210952D01*
X123068934Y-87201066D01*
X123059048Y-87190159D01*
X123050280Y-87178336D01*
X123042712Y-87165710D01*
X123036418Y-87152403D01*
X123031459Y-87138543D01*
X123027882Y-87124264D01*
X123025722Y-87109703D01*
X123025000Y-87095000D01*
X123025000Y-86795000D01*
X123025722Y-86780297D01*
X123027882Y-86765736D01*
X123031459Y-86751457D01*
X123036418Y-86737597D01*
X123042712Y-86724290D01*
X123050280Y-86711664D01*
X123059048Y-86699841D01*
X123068934Y-86688934D01*
X123079841Y-86679048D01*
X123091664Y-86670280D01*
X123104290Y-86662712D01*
X123117597Y-86656418D01*
X123131457Y-86651459D01*
X123145736Y-86647882D01*
X123160297Y-86645722D01*
X123175000Y-86645000D01*
X124925000Y-86645000D01*
X124939703Y-86645722D01*
G37*
G36*
X124939703Y-87915722D02*
G01*
X124954264Y-87917882D01*
X124968543Y-87921459D01*
X124982403Y-87926418D01*
X124995710Y-87932712D01*
X125008336Y-87940280D01*
X125020159Y-87949048D01*
X125031066Y-87958934D01*
X125040952Y-87969841D01*
X125049720Y-87981664D01*
X125057288Y-87994290D01*
X125063582Y-88007597D01*
X125068541Y-88021457D01*
X125072118Y-88035736D01*
X125074278Y-88050297D01*
X125075000Y-88065000D01*
X125075000Y-88365000D01*
X125074278Y-88379703D01*
X125072118Y-88394264D01*
X125068541Y-88408543D01*
X125063582Y-88422403D01*
X125057288Y-88435710D01*
X125049720Y-88448336D01*
X125040952Y-88460159D01*
X125031066Y-88471066D01*
X125020159Y-88480952D01*
X125008336Y-88489720D01*
X124995710Y-88497288D01*
X124982403Y-88503582D01*
X124968543Y-88508541D01*
X124954264Y-88512118D01*
X124939703Y-88514278D01*
X124925000Y-88515000D01*
X123175000Y-88515000D01*
X123160297Y-88514278D01*
X123145736Y-88512118D01*
X123131457Y-88508541D01*
X123117597Y-88503582D01*
X123104290Y-88497288D01*
X123091664Y-88489720D01*
X123079841Y-88480952D01*
X123068934Y-88471066D01*
X123059048Y-88460159D01*
X123050280Y-88448336D01*
X123042712Y-88435710D01*
X123036418Y-88422403D01*
X123031459Y-88408543D01*
X123027882Y-88394264D01*
X123025722Y-88379703D01*
X123025000Y-88365000D01*
X123025000Y-88065000D01*
X123025722Y-88050297D01*
X123027882Y-88035736D01*
X123031459Y-88021457D01*
X123036418Y-88007597D01*
X123042712Y-87994290D01*
X123050280Y-87981664D01*
X123059048Y-87969841D01*
X123068934Y-87958934D01*
X123079841Y-87949048D01*
X123091664Y-87940280D01*
X123104290Y-87932712D01*
X123117597Y-87926418D01*
X123131457Y-87921459D01*
X123145736Y-87917882D01*
X123160297Y-87915722D01*
X123175000Y-87915000D01*
X124925000Y-87915000D01*
X124939703Y-87915722D01*
G37*
G36*
X115639703Y-87915722D02*
G01*
X115654264Y-87917882D01*
X115668543Y-87921459D01*
X115682403Y-87926418D01*
X115695710Y-87932712D01*
X115708336Y-87940280D01*
X115720159Y-87949048D01*
X115731066Y-87958934D01*
X115740952Y-87969841D01*
X115749720Y-87981664D01*
X115757288Y-87994290D01*
X115763582Y-88007597D01*
X115768541Y-88021457D01*
X115772118Y-88035736D01*
X115774278Y-88050297D01*
X115775000Y-88065000D01*
X115775000Y-88365000D01*
X115774278Y-88379703D01*
X115772118Y-88394264D01*
X115768541Y-88408543D01*
X115763582Y-88422403D01*
X115757288Y-88435710D01*
X115749720Y-88448336D01*
X115740952Y-88460159D01*
X115731066Y-88471066D01*
X115720159Y-88480952D01*
X115708336Y-88489720D01*
X115695710Y-88497288D01*
X115682403Y-88503582D01*
X115668543Y-88508541D01*
X115654264Y-88512118D01*
X115639703Y-88514278D01*
X115625000Y-88515000D01*
X113875000Y-88515000D01*
X113860297Y-88514278D01*
X113845736Y-88512118D01*
X113831457Y-88508541D01*
X113817597Y-88503582D01*
X113804290Y-88497288D01*
X113791664Y-88489720D01*
X113779841Y-88480952D01*
X113768934Y-88471066D01*
X113759048Y-88460159D01*
X113750280Y-88448336D01*
X113742712Y-88435710D01*
X113736418Y-88422403D01*
X113731459Y-88408543D01*
X113727882Y-88394264D01*
X113725722Y-88379703D01*
X113725000Y-88365000D01*
X113725000Y-88065000D01*
X113725722Y-88050297D01*
X113727882Y-88035736D01*
X113731459Y-88021457D01*
X113736418Y-88007597D01*
X113742712Y-87994290D01*
X113750280Y-87981664D01*
X113759048Y-87969841D01*
X113768934Y-87958934D01*
X113779841Y-87949048D01*
X113791664Y-87940280D01*
X113804290Y-87932712D01*
X113817597Y-87926418D01*
X113831457Y-87921459D01*
X113845736Y-87917882D01*
X113860297Y-87915722D01*
X113875000Y-87915000D01*
X115625000Y-87915000D01*
X115639703Y-87915722D01*
G37*
G36*
X115639703Y-86645722D02*
G01*
X115654264Y-86647882D01*
X115668543Y-86651459D01*
X115682403Y-86656418D01*
X115695710Y-86662712D01*
X115708336Y-86670280D01*
X115720159Y-86679048D01*
X115731066Y-86688934D01*
X115740952Y-86699841D01*
X115749720Y-86711664D01*
X115757288Y-86724290D01*
X115763582Y-86737597D01*
X115768541Y-86751457D01*
X115772118Y-86765736D01*
X115774278Y-86780297D01*
X115775000Y-86795000D01*
X115775000Y-87095000D01*
X115774278Y-87109703D01*
X115772118Y-87124264D01*
X115768541Y-87138543D01*
X115763582Y-87152403D01*
X115757288Y-87165710D01*
X115749720Y-87178336D01*
X115740952Y-87190159D01*
X115731066Y-87201066D01*
X115720159Y-87210952D01*
X115708336Y-87219720D01*
X115695710Y-87227288D01*
X115682403Y-87233582D01*
X115668543Y-87238541D01*
X115654264Y-87242118D01*
X115639703Y-87244278D01*
X115625000Y-87245000D01*
X113875000Y-87245000D01*
X113860297Y-87244278D01*
X113845736Y-87242118D01*
X113831457Y-87238541D01*
X113817597Y-87233582D01*
X113804290Y-87227288D01*
X113791664Y-87219720D01*
X113779841Y-87210952D01*
X113768934Y-87201066D01*
X113759048Y-87190159D01*
X113750280Y-87178336D01*
X113742712Y-87165710D01*
X113736418Y-87152403D01*
X113731459Y-87138543D01*
X113727882Y-87124264D01*
X113725722Y-87109703D01*
X113725000Y-87095000D01*
X113725000Y-86795000D01*
X113725722Y-86780297D01*
X113727882Y-86765736D01*
X113731459Y-86751457D01*
X113736418Y-86737597D01*
X113742712Y-86724290D01*
X113750280Y-86711664D01*
X113759048Y-86699841D01*
X113768934Y-86688934D01*
X113779841Y-86679048D01*
X113791664Y-86670280D01*
X113804290Y-86662712D01*
X113817597Y-86656418D01*
X113831457Y-86651459D01*
X113845736Y-86647882D01*
X113860297Y-86645722D01*
X113875000Y-86645000D01*
X115625000Y-86645000D01*
X115639703Y-86645722D01*
G37*
G36*
X115639703Y-85375722D02*
G01*
X115654264Y-85377882D01*
X115668543Y-85381459D01*
X115682403Y-85386418D01*
X115695710Y-85392712D01*
X115708336Y-85400280D01*
X115720159Y-85409048D01*
X115731066Y-85418934D01*
X115740952Y-85429841D01*
X115749720Y-85441664D01*
X115757288Y-85454290D01*
X115763582Y-85467597D01*
X115768541Y-85481457D01*
X115772118Y-85495736D01*
X115774278Y-85510297D01*
X115775000Y-85525000D01*
X115775000Y-85825000D01*
X115774278Y-85839703D01*
X115772118Y-85854264D01*
X115768541Y-85868543D01*
X115763582Y-85882403D01*
X115757288Y-85895710D01*
X115749720Y-85908336D01*
X115740952Y-85920159D01*
X115731066Y-85931066D01*
X115720159Y-85940952D01*
X115708336Y-85949720D01*
X115695710Y-85957288D01*
X115682403Y-85963582D01*
X115668543Y-85968541D01*
X115654264Y-85972118D01*
X115639703Y-85974278D01*
X115625000Y-85975000D01*
X113875000Y-85975000D01*
X113860297Y-85974278D01*
X113845736Y-85972118D01*
X113831457Y-85968541D01*
X113817597Y-85963582D01*
X113804290Y-85957288D01*
X113791664Y-85949720D01*
X113779841Y-85940952D01*
X113768934Y-85931066D01*
X113759048Y-85920159D01*
X113750280Y-85908336D01*
X113742712Y-85895710D01*
X113736418Y-85882403D01*
X113731459Y-85868543D01*
X113727882Y-85854264D01*
X113725722Y-85839703D01*
X113725000Y-85825000D01*
X113725000Y-85525000D01*
X113725722Y-85510297D01*
X113727882Y-85495736D01*
X113731459Y-85481457D01*
X113736418Y-85467597D01*
X113742712Y-85454290D01*
X113750280Y-85441664D01*
X113759048Y-85429841D01*
X113768934Y-85418934D01*
X113779841Y-85409048D01*
X113791664Y-85400280D01*
X113804290Y-85392712D01*
X113817597Y-85386418D01*
X113831457Y-85381459D01*
X113845736Y-85377882D01*
X113860297Y-85375722D01*
X113875000Y-85375000D01*
X115625000Y-85375000D01*
X115639703Y-85375722D01*
G37*
G36*
X115639703Y-84105722D02*
G01*
X115654264Y-84107882D01*
X115668543Y-84111459D01*
X115682403Y-84116418D01*
X115695710Y-84122712D01*
X115708336Y-84130280D01*
X115720159Y-84139048D01*
X115731066Y-84148934D01*
X115740952Y-84159841D01*
X115749720Y-84171664D01*
X115757288Y-84184290D01*
X115763582Y-84197597D01*
X115768541Y-84211457D01*
X115772118Y-84225736D01*
X115774278Y-84240297D01*
X115775000Y-84255000D01*
X115775000Y-84555000D01*
X115774278Y-84569703D01*
X115772118Y-84584264D01*
X115768541Y-84598543D01*
X115763582Y-84612403D01*
X115757288Y-84625710D01*
X115749720Y-84638336D01*
X115740952Y-84650159D01*
X115731066Y-84661066D01*
X115720159Y-84670952D01*
X115708336Y-84679720D01*
X115695710Y-84687288D01*
X115682403Y-84693582D01*
X115668543Y-84698541D01*
X115654264Y-84702118D01*
X115639703Y-84704278D01*
X115625000Y-84705000D01*
X113875000Y-84705000D01*
X113860297Y-84704278D01*
X113845736Y-84702118D01*
X113831457Y-84698541D01*
X113817597Y-84693582D01*
X113804290Y-84687288D01*
X113791664Y-84679720D01*
X113779841Y-84670952D01*
X113768934Y-84661066D01*
X113759048Y-84650159D01*
X113750280Y-84638336D01*
X113742712Y-84625710D01*
X113736418Y-84612403D01*
X113731459Y-84598543D01*
X113727882Y-84584264D01*
X113725722Y-84569703D01*
X113725000Y-84555000D01*
X113725000Y-84255000D01*
X113725722Y-84240297D01*
X113727882Y-84225736D01*
X113731459Y-84211457D01*
X113736418Y-84197597D01*
X113742712Y-84184290D01*
X113750280Y-84171664D01*
X113759048Y-84159841D01*
X113768934Y-84148934D01*
X113779841Y-84139048D01*
X113791664Y-84130280D01*
X113804290Y-84122712D01*
X113817597Y-84116418D01*
X113831457Y-84111459D01*
X113845736Y-84107882D01*
X113860297Y-84105722D01*
X113875000Y-84105000D01*
X115625000Y-84105000D01*
X115639703Y-84105722D01*
G37*
G36*
X115639703Y-82835722D02*
G01*
X115654264Y-82837882D01*
X115668543Y-82841459D01*
X115682403Y-82846418D01*
X115695710Y-82852712D01*
X115708336Y-82860280D01*
X115720159Y-82869048D01*
X115731066Y-82878934D01*
X115740952Y-82889841D01*
X115749720Y-82901664D01*
X115757288Y-82914290D01*
X115763582Y-82927597D01*
X115768541Y-82941457D01*
X115772118Y-82955736D01*
X115774278Y-82970297D01*
X115775000Y-82985000D01*
X115775000Y-83285000D01*
X115774278Y-83299703D01*
X115772118Y-83314264D01*
X115768541Y-83328543D01*
X115763582Y-83342403D01*
X115757288Y-83355710D01*
X115749720Y-83368336D01*
X115740952Y-83380159D01*
X115731066Y-83391066D01*
X115720159Y-83400952D01*
X115708336Y-83409720D01*
X115695710Y-83417288D01*
X115682403Y-83423582D01*
X115668543Y-83428541D01*
X115654264Y-83432118D01*
X115639703Y-83434278D01*
X115625000Y-83435000D01*
X113875000Y-83435000D01*
X113860297Y-83434278D01*
X113845736Y-83432118D01*
X113831457Y-83428541D01*
X113817597Y-83423582D01*
X113804290Y-83417288D01*
X113791664Y-83409720D01*
X113779841Y-83400952D01*
X113768934Y-83391066D01*
X113759048Y-83380159D01*
X113750280Y-83368336D01*
X113742712Y-83355710D01*
X113736418Y-83342403D01*
X113731459Y-83328543D01*
X113727882Y-83314264D01*
X113725722Y-83299703D01*
X113725000Y-83285000D01*
X113725000Y-82985000D01*
X113725722Y-82970297D01*
X113727882Y-82955736D01*
X113731459Y-82941457D01*
X113736418Y-82927597D01*
X113742712Y-82914290D01*
X113750280Y-82901664D01*
X113759048Y-82889841D01*
X113768934Y-82878934D01*
X113779841Y-82869048D01*
X113791664Y-82860280D01*
X113804290Y-82852712D01*
X113817597Y-82846418D01*
X113831457Y-82841459D01*
X113845736Y-82837882D01*
X113860297Y-82835722D01*
X113875000Y-82835000D01*
X115625000Y-82835000D01*
X115639703Y-82835722D01*
G37*
G36*
X115639703Y-81565722D02*
G01*
X115654264Y-81567882D01*
X115668543Y-81571459D01*
X115682403Y-81576418D01*
X115695710Y-81582712D01*
X115708336Y-81590280D01*
X115720159Y-81599048D01*
X115731066Y-81608934D01*
X115740952Y-81619841D01*
X115749720Y-81631664D01*
X115757288Y-81644290D01*
X115763582Y-81657597D01*
X115768541Y-81671457D01*
X115772118Y-81685736D01*
X115774278Y-81700297D01*
X115775000Y-81715000D01*
X115775000Y-82015000D01*
X115774278Y-82029703D01*
X115772118Y-82044264D01*
X115768541Y-82058543D01*
X115763582Y-82072403D01*
X115757288Y-82085710D01*
X115749720Y-82098336D01*
X115740952Y-82110159D01*
X115731066Y-82121066D01*
X115720159Y-82130952D01*
X115708336Y-82139720D01*
X115695710Y-82147288D01*
X115682403Y-82153582D01*
X115668543Y-82158541D01*
X115654264Y-82162118D01*
X115639703Y-82164278D01*
X115625000Y-82165000D01*
X113875000Y-82165000D01*
X113860297Y-82164278D01*
X113845736Y-82162118D01*
X113831457Y-82158541D01*
X113817597Y-82153582D01*
X113804290Y-82147288D01*
X113791664Y-82139720D01*
X113779841Y-82130952D01*
X113768934Y-82121066D01*
X113759048Y-82110159D01*
X113750280Y-82098336D01*
X113742712Y-82085710D01*
X113736418Y-82072403D01*
X113731459Y-82058543D01*
X113727882Y-82044264D01*
X113725722Y-82029703D01*
X113725000Y-82015000D01*
X113725000Y-81715000D01*
X113725722Y-81700297D01*
X113727882Y-81685736D01*
X113731459Y-81671457D01*
X113736418Y-81657597D01*
X113742712Y-81644290D01*
X113750280Y-81631664D01*
X113759048Y-81619841D01*
X113768934Y-81608934D01*
X113779841Y-81599048D01*
X113791664Y-81590280D01*
X113804290Y-81582712D01*
X113817597Y-81576418D01*
X113831457Y-81571459D01*
X113845736Y-81567882D01*
X113860297Y-81565722D01*
X113875000Y-81565000D01*
X115625000Y-81565000D01*
X115639703Y-81565722D01*
G37*
G36*
X115639703Y-80295722D02*
G01*
X115654264Y-80297882D01*
X115668543Y-80301459D01*
X115682403Y-80306418D01*
X115695710Y-80312712D01*
X115708336Y-80320280D01*
X115720159Y-80329048D01*
X115731066Y-80338934D01*
X115740952Y-80349841D01*
X115749720Y-80361664D01*
X115757288Y-80374290D01*
X115763582Y-80387597D01*
X115768541Y-80401457D01*
X115772118Y-80415736D01*
X115774278Y-80430297D01*
X115775000Y-80445000D01*
X115775000Y-80745000D01*
X115774278Y-80759703D01*
X115772118Y-80774264D01*
X115768541Y-80788543D01*
X115763582Y-80802403D01*
X115757288Y-80815710D01*
X115749720Y-80828336D01*
X115740952Y-80840159D01*
X115731066Y-80851066D01*
X115720159Y-80860952D01*
X115708336Y-80869720D01*
X115695710Y-80877288D01*
X115682403Y-80883582D01*
X115668543Y-80888541D01*
X115654264Y-80892118D01*
X115639703Y-80894278D01*
X115625000Y-80895000D01*
X113875000Y-80895000D01*
X113860297Y-80894278D01*
X113845736Y-80892118D01*
X113831457Y-80888541D01*
X113817597Y-80883582D01*
X113804290Y-80877288D01*
X113791664Y-80869720D01*
X113779841Y-80860952D01*
X113768934Y-80851066D01*
X113759048Y-80840159D01*
X113750280Y-80828336D01*
X113742712Y-80815710D01*
X113736418Y-80802403D01*
X113731459Y-80788543D01*
X113727882Y-80774264D01*
X113725722Y-80759703D01*
X113725000Y-80745000D01*
X113725000Y-80445000D01*
X113725722Y-80430297D01*
X113727882Y-80415736D01*
X113731459Y-80401457D01*
X113736418Y-80387597D01*
X113742712Y-80374290D01*
X113750280Y-80361664D01*
X113759048Y-80349841D01*
X113768934Y-80338934D01*
X113779841Y-80329048D01*
X113791664Y-80320280D01*
X113804290Y-80312712D01*
X113817597Y-80306418D01*
X113831457Y-80301459D01*
X113845736Y-80297882D01*
X113860297Y-80295722D01*
X113875000Y-80295000D01*
X115625000Y-80295000D01*
X115639703Y-80295722D01*
G37*
G36*
X115639703Y-79025722D02*
G01*
X115654264Y-79027882D01*
X115668543Y-79031459D01*
X115682403Y-79036418D01*
X115695710Y-79042712D01*
X115708336Y-79050280D01*
X115720159Y-79059048D01*
X115731066Y-79068934D01*
X115740952Y-79079841D01*
X115749720Y-79091664D01*
X115757288Y-79104290D01*
X115763582Y-79117597D01*
X115768541Y-79131457D01*
X115772118Y-79145736D01*
X115774278Y-79160297D01*
X115775000Y-79175000D01*
X115775000Y-79475000D01*
X115774278Y-79489703D01*
X115772118Y-79504264D01*
X115768541Y-79518543D01*
X115763582Y-79532403D01*
X115757288Y-79545710D01*
X115749720Y-79558336D01*
X115740952Y-79570159D01*
X115731066Y-79581066D01*
X115720159Y-79590952D01*
X115708336Y-79599720D01*
X115695710Y-79607288D01*
X115682403Y-79613582D01*
X115668543Y-79618541D01*
X115654264Y-79622118D01*
X115639703Y-79624278D01*
X115625000Y-79625000D01*
X113875000Y-79625000D01*
X113860297Y-79624278D01*
X113845736Y-79622118D01*
X113831457Y-79618541D01*
X113817597Y-79613582D01*
X113804290Y-79607288D01*
X113791664Y-79599720D01*
X113779841Y-79590952D01*
X113768934Y-79581066D01*
X113759048Y-79570159D01*
X113750280Y-79558336D01*
X113742712Y-79545710D01*
X113736418Y-79532403D01*
X113731459Y-79518543D01*
X113727882Y-79504264D01*
X113725722Y-79489703D01*
X113725000Y-79475000D01*
X113725000Y-79175000D01*
X113725722Y-79160297D01*
X113727882Y-79145736D01*
X113731459Y-79131457D01*
X113736418Y-79117597D01*
X113742712Y-79104290D01*
X113750280Y-79091664D01*
X113759048Y-79079841D01*
X113768934Y-79068934D01*
X113779841Y-79059048D01*
X113791664Y-79050280D01*
X113804290Y-79042712D01*
X113817597Y-79036418D01*
X113831457Y-79031459D01*
X113845736Y-79027882D01*
X113860297Y-79025722D01*
X113875000Y-79025000D01*
X115625000Y-79025000D01*
X115639703Y-79025722D01*
G37*
G36*
X115639703Y-77755722D02*
G01*
X115654264Y-77757882D01*
X115668543Y-77761459D01*
X115682403Y-77766418D01*
X115695710Y-77772712D01*
X115708336Y-77780280D01*
X115720159Y-77789048D01*
X115731066Y-77798934D01*
X115740952Y-77809841D01*
X115749720Y-77821664D01*
X115757288Y-77834290D01*
X115763582Y-77847597D01*
X115768541Y-77861457D01*
X115772118Y-77875736D01*
X115774278Y-77890297D01*
X115775000Y-77905000D01*
X115775000Y-78205000D01*
X115774278Y-78219703D01*
X115772118Y-78234264D01*
X115768541Y-78248543D01*
X115763582Y-78262403D01*
X115757288Y-78275710D01*
X115749720Y-78288336D01*
X115740952Y-78300159D01*
X115731066Y-78311066D01*
X115720159Y-78320952D01*
X115708336Y-78329720D01*
X115695710Y-78337288D01*
X115682403Y-78343582D01*
X115668543Y-78348541D01*
X115654264Y-78352118D01*
X115639703Y-78354278D01*
X115625000Y-78355000D01*
X113875000Y-78355000D01*
X113860297Y-78354278D01*
X113845736Y-78352118D01*
X113831457Y-78348541D01*
X113817597Y-78343582D01*
X113804290Y-78337288D01*
X113791664Y-78329720D01*
X113779841Y-78320952D01*
X113768934Y-78311066D01*
X113759048Y-78300159D01*
X113750280Y-78288336D01*
X113742712Y-78275710D01*
X113736418Y-78262403D01*
X113731459Y-78248543D01*
X113727882Y-78234264D01*
X113725722Y-78219703D01*
X113725000Y-78205000D01*
X113725000Y-77905000D01*
X113725722Y-77890297D01*
X113727882Y-77875736D01*
X113731459Y-77861457D01*
X113736418Y-77847597D01*
X113742712Y-77834290D01*
X113750280Y-77821664D01*
X113759048Y-77809841D01*
X113768934Y-77798934D01*
X113779841Y-77789048D01*
X113791664Y-77780280D01*
X113804290Y-77772712D01*
X113817597Y-77766418D01*
X113831457Y-77761459D01*
X113845736Y-77757882D01*
X113860297Y-77755722D01*
X113875000Y-77755000D01*
X115625000Y-77755000D01*
X115639703Y-77755722D01*
G37*
G36*
X115639703Y-76485722D02*
G01*
X115654264Y-76487882D01*
X115668543Y-76491459D01*
X115682403Y-76496418D01*
X115695710Y-76502712D01*
X115708336Y-76510280D01*
X115720159Y-76519048D01*
X115731066Y-76528934D01*
X115740952Y-76539841D01*
X115749720Y-76551664D01*
X115757288Y-76564290D01*
X115763582Y-76577597D01*
X115768541Y-76591457D01*
X115772118Y-76605736D01*
X115774278Y-76620297D01*
X115775000Y-76635000D01*
X115775000Y-76935000D01*
X115774278Y-76949703D01*
X115772118Y-76964264D01*
X115768541Y-76978543D01*
X115763582Y-76992403D01*
X115757288Y-77005710D01*
X115749720Y-77018336D01*
X115740952Y-77030159D01*
X115731066Y-77041066D01*
X115720159Y-77050952D01*
X115708336Y-77059720D01*
X115695710Y-77067288D01*
X115682403Y-77073582D01*
X115668543Y-77078541D01*
X115654264Y-77082118D01*
X115639703Y-77084278D01*
X115625000Y-77085000D01*
X113875000Y-77085000D01*
X113860297Y-77084278D01*
X113845736Y-77082118D01*
X113831457Y-77078541D01*
X113817597Y-77073582D01*
X113804290Y-77067288D01*
X113791664Y-77059720D01*
X113779841Y-77050952D01*
X113768934Y-77041066D01*
X113759048Y-77030159D01*
X113750280Y-77018336D01*
X113742712Y-77005710D01*
X113736418Y-76992403D01*
X113731459Y-76978543D01*
X113727882Y-76964264D01*
X113725722Y-76949703D01*
X113725000Y-76935000D01*
X113725000Y-76635000D01*
X113725722Y-76620297D01*
X113727882Y-76605736D01*
X113731459Y-76591457D01*
X113736418Y-76577597D01*
X113742712Y-76564290D01*
X113750280Y-76551664D01*
X113759048Y-76539841D01*
X113768934Y-76528934D01*
X113779841Y-76519048D01*
X113791664Y-76510280D01*
X113804290Y-76502712D01*
X113817597Y-76496418D01*
X113831457Y-76491459D01*
X113845736Y-76487882D01*
X113860297Y-76485722D01*
X113875000Y-76485000D01*
X115625000Y-76485000D01*
X115639703Y-76485722D01*
G37*
G36*
X116205142Y-129701174D02*
G01*
X116228803Y-129704684D01*
X116252007Y-129710496D01*
X116274529Y-129718554D01*
X116296153Y-129728782D01*
X116316670Y-129741079D01*
X116335883Y-129755329D01*
X116353607Y-129771393D01*
X116369671Y-129789117D01*
X116383921Y-129808330D01*
X116396218Y-129828847D01*
X116406446Y-129850471D01*
X116414504Y-129872993D01*
X116420316Y-129896197D01*
X116423826Y-129919858D01*
X116425000Y-129943750D01*
X116425000Y-130856250D01*
X116423826Y-130880142D01*
X116420316Y-130903803D01*
X116414504Y-130927007D01*
X116406446Y-130949529D01*
X116396218Y-130971153D01*
X116383921Y-130991670D01*
X116369671Y-131010883D01*
X116353607Y-131028607D01*
X116335883Y-131044671D01*
X116316670Y-131058921D01*
X116296153Y-131071218D01*
X116274529Y-131081446D01*
X116252007Y-131089504D01*
X116228803Y-131095316D01*
X116205142Y-131098826D01*
X116181250Y-131100000D01*
X115693750Y-131100000D01*
X115669858Y-131098826D01*
X115646197Y-131095316D01*
X115622993Y-131089504D01*
X115600471Y-131081446D01*
X115578847Y-131071218D01*
X115558330Y-131058921D01*
X115539117Y-131044671D01*
X115521393Y-131028607D01*
X115505329Y-131010883D01*
X115491079Y-130991670D01*
X115478782Y-130971153D01*
X115468554Y-130949529D01*
X115460496Y-130927007D01*
X115454684Y-130903803D01*
X115451174Y-130880142D01*
X115450000Y-130856250D01*
X115450000Y-129943750D01*
X115451174Y-129919858D01*
X115454684Y-129896197D01*
X115460496Y-129872993D01*
X115468554Y-129850471D01*
X115478782Y-129828847D01*
X115491079Y-129808330D01*
X115505329Y-129789117D01*
X115521393Y-129771393D01*
X115539117Y-129755329D01*
X115558330Y-129741079D01*
X115578847Y-129728782D01*
X115600471Y-129718554D01*
X115622993Y-129710496D01*
X115646197Y-129704684D01*
X115669858Y-129701174D01*
X115693750Y-129700000D01*
X116181250Y-129700000D01*
X116205142Y-129701174D01*
G37*
G36*
X114330142Y-129701174D02*
G01*
X114353803Y-129704684D01*
X114377007Y-129710496D01*
X114399529Y-129718554D01*
X114421153Y-129728782D01*
X114441670Y-129741079D01*
X114460883Y-129755329D01*
X114478607Y-129771393D01*
X114494671Y-129789117D01*
X114508921Y-129808330D01*
X114521218Y-129828847D01*
X114531446Y-129850471D01*
X114539504Y-129872993D01*
X114545316Y-129896197D01*
X114548826Y-129919858D01*
X114550000Y-129943750D01*
X114550000Y-130856250D01*
X114548826Y-130880142D01*
X114545316Y-130903803D01*
X114539504Y-130927007D01*
X114531446Y-130949529D01*
X114521218Y-130971153D01*
X114508921Y-130991670D01*
X114494671Y-131010883D01*
X114478607Y-131028607D01*
X114460883Y-131044671D01*
X114441670Y-131058921D01*
X114421153Y-131071218D01*
X114399529Y-131081446D01*
X114377007Y-131089504D01*
X114353803Y-131095316D01*
X114330142Y-131098826D01*
X114306250Y-131100000D01*
X113818750Y-131100000D01*
X113794858Y-131098826D01*
X113771197Y-131095316D01*
X113747993Y-131089504D01*
X113725471Y-131081446D01*
X113703847Y-131071218D01*
X113683330Y-131058921D01*
X113664117Y-131044671D01*
X113646393Y-131028607D01*
X113630329Y-131010883D01*
X113616079Y-130991670D01*
X113603782Y-130971153D01*
X113593554Y-130949529D01*
X113585496Y-130927007D01*
X113579684Y-130903803D01*
X113576174Y-130880142D01*
X113575000Y-130856250D01*
X113575000Y-129943750D01*
X113576174Y-129919858D01*
X113579684Y-129896197D01*
X113585496Y-129872993D01*
X113593554Y-129850471D01*
X113603782Y-129828847D01*
X113616079Y-129808330D01*
X113630329Y-129789117D01*
X113646393Y-129771393D01*
X113664117Y-129755329D01*
X113683330Y-129741079D01*
X113703847Y-129728782D01*
X113725471Y-129718554D01*
X113747993Y-129710496D01*
X113771197Y-129704684D01*
X113794858Y-129701174D01*
X113818750Y-129700000D01*
X114306250Y-129700000D01*
X114330142Y-129701174D01*
G37*
G36*
X116205142Y-127101174D02*
G01*
X116228803Y-127104684D01*
X116252007Y-127110496D01*
X116274529Y-127118554D01*
X116296153Y-127128782D01*
X116316670Y-127141079D01*
X116335883Y-127155329D01*
X116353607Y-127171393D01*
X116369671Y-127189117D01*
X116383921Y-127208330D01*
X116396218Y-127228847D01*
X116406446Y-127250471D01*
X116414504Y-127272993D01*
X116420316Y-127296197D01*
X116423826Y-127319858D01*
X116425000Y-127343750D01*
X116425000Y-128256250D01*
X116423826Y-128280142D01*
X116420316Y-128303803D01*
X116414504Y-128327007D01*
X116406446Y-128349529D01*
X116396218Y-128371153D01*
X116383921Y-128391670D01*
X116369671Y-128410883D01*
X116353607Y-128428607D01*
X116335883Y-128444671D01*
X116316670Y-128458921D01*
X116296153Y-128471218D01*
X116274529Y-128481446D01*
X116252007Y-128489504D01*
X116228803Y-128495316D01*
X116205142Y-128498826D01*
X116181250Y-128500000D01*
X115693750Y-128500000D01*
X115669858Y-128498826D01*
X115646197Y-128495316D01*
X115622993Y-128489504D01*
X115600471Y-128481446D01*
X115578847Y-128471218D01*
X115558330Y-128458921D01*
X115539117Y-128444671D01*
X115521393Y-128428607D01*
X115505329Y-128410883D01*
X115491079Y-128391670D01*
X115478782Y-128371153D01*
X115468554Y-128349529D01*
X115460496Y-128327007D01*
X115454684Y-128303803D01*
X115451174Y-128280142D01*
X115450000Y-128256250D01*
X115450000Y-127343750D01*
X115451174Y-127319858D01*
X115454684Y-127296197D01*
X115460496Y-127272993D01*
X115468554Y-127250471D01*
X115478782Y-127228847D01*
X115491079Y-127208330D01*
X115505329Y-127189117D01*
X115521393Y-127171393D01*
X115539117Y-127155329D01*
X115558330Y-127141079D01*
X115578847Y-127128782D01*
X115600471Y-127118554D01*
X115622993Y-127110496D01*
X115646197Y-127104684D01*
X115669858Y-127101174D01*
X115693750Y-127100000D01*
X116181250Y-127100000D01*
X116205142Y-127101174D01*
G37*
G36*
X114330142Y-127101174D02*
G01*
X114353803Y-127104684D01*
X114377007Y-127110496D01*
X114399529Y-127118554D01*
X114421153Y-127128782D01*
X114441670Y-127141079D01*
X114460883Y-127155329D01*
X114478607Y-127171393D01*
X114494671Y-127189117D01*
X114508921Y-127208330D01*
X114521218Y-127228847D01*
X114531446Y-127250471D01*
X114539504Y-127272993D01*
X114545316Y-127296197D01*
X114548826Y-127319858D01*
X114550000Y-127343750D01*
X114550000Y-128256250D01*
X114548826Y-128280142D01*
X114545316Y-128303803D01*
X114539504Y-128327007D01*
X114531446Y-128349529D01*
X114521218Y-128371153D01*
X114508921Y-128391670D01*
X114494671Y-128410883D01*
X114478607Y-128428607D01*
X114460883Y-128444671D01*
X114441670Y-128458921D01*
X114421153Y-128471218D01*
X114399529Y-128481446D01*
X114377007Y-128489504D01*
X114353803Y-128495316D01*
X114330142Y-128498826D01*
X114306250Y-128500000D01*
X113818750Y-128500000D01*
X113794858Y-128498826D01*
X113771197Y-128495316D01*
X113747993Y-128489504D01*
X113725471Y-128481446D01*
X113703847Y-128471218D01*
X113683330Y-128458921D01*
X113664117Y-128444671D01*
X113646393Y-128428607D01*
X113630329Y-128410883D01*
X113616079Y-128391670D01*
X113603782Y-128371153D01*
X113593554Y-128349529D01*
X113585496Y-128327007D01*
X113579684Y-128303803D01*
X113576174Y-128280142D01*
X113575000Y-128256250D01*
X113575000Y-127343750D01*
X113576174Y-127319858D01*
X113579684Y-127296197D01*
X113585496Y-127272993D01*
X113593554Y-127250471D01*
X113603782Y-127228847D01*
X113616079Y-127208330D01*
X113630329Y-127189117D01*
X113646393Y-127171393D01*
X113664117Y-127155329D01*
X113683330Y-127141079D01*
X113703847Y-127128782D01*
X113725471Y-127118554D01*
X113747993Y-127110496D01*
X113771197Y-127104684D01*
X113794858Y-127101174D01*
X113818750Y-127100000D01*
X114306250Y-127100000D01*
X114330142Y-127101174D01*
G37*
G36*
X115680142Y-92651174D02*
G01*
X115703803Y-92654684D01*
X115727007Y-92660496D01*
X115749529Y-92668554D01*
X115771153Y-92678782D01*
X115791670Y-92691079D01*
X115810883Y-92705329D01*
X115828607Y-92721393D01*
X115844671Y-92739117D01*
X115858921Y-92758330D01*
X115871218Y-92778847D01*
X115881446Y-92800471D01*
X115889504Y-92822993D01*
X115895316Y-92846197D01*
X115898826Y-92869858D01*
X115900000Y-92893750D01*
X115900000Y-93381250D01*
X115898826Y-93405142D01*
X115895316Y-93428803D01*
X115889504Y-93452007D01*
X115881446Y-93474529D01*
X115871218Y-93496153D01*
X115858921Y-93516670D01*
X115844671Y-93535883D01*
X115828607Y-93553607D01*
X115810883Y-93569671D01*
X115791670Y-93583921D01*
X115771153Y-93596218D01*
X115749529Y-93606446D01*
X115727007Y-93614504D01*
X115703803Y-93620316D01*
X115680142Y-93623826D01*
X115656250Y-93625000D01*
X114743750Y-93625000D01*
X114719858Y-93623826D01*
X114696197Y-93620316D01*
X114672993Y-93614504D01*
X114650471Y-93606446D01*
X114628847Y-93596218D01*
X114608330Y-93583921D01*
X114589117Y-93569671D01*
X114571393Y-93553607D01*
X114555329Y-93535883D01*
X114541079Y-93516670D01*
X114528782Y-93496153D01*
X114518554Y-93474529D01*
X114510496Y-93452007D01*
X114504684Y-93428803D01*
X114501174Y-93405142D01*
X114500000Y-93381250D01*
X114500000Y-92893750D01*
X114501174Y-92869858D01*
X114504684Y-92846197D01*
X114510496Y-92822993D01*
X114518554Y-92800471D01*
X114528782Y-92778847D01*
X114541079Y-92758330D01*
X114555329Y-92739117D01*
X114571393Y-92721393D01*
X114589117Y-92705329D01*
X114608330Y-92691079D01*
X114628847Y-92678782D01*
X114650471Y-92668554D01*
X114672993Y-92660496D01*
X114696197Y-92654684D01*
X114719858Y-92651174D01*
X114743750Y-92650000D01*
X115656250Y-92650000D01*
X115680142Y-92651174D01*
G37*
G36*
X115680142Y-90776174D02*
G01*
X115703803Y-90779684D01*
X115727007Y-90785496D01*
X115749529Y-90793554D01*
X115771153Y-90803782D01*
X115791670Y-90816079D01*
X115810883Y-90830329D01*
X115828607Y-90846393D01*
X115844671Y-90864117D01*
X115858921Y-90883330D01*
X115871218Y-90903847D01*
X115881446Y-90925471D01*
X115889504Y-90947993D01*
X115895316Y-90971197D01*
X115898826Y-90994858D01*
X115900000Y-91018750D01*
X115900000Y-91506250D01*
X115898826Y-91530142D01*
X115895316Y-91553803D01*
X115889504Y-91577007D01*
X115881446Y-91599529D01*
X115871218Y-91621153D01*
X115858921Y-91641670D01*
X115844671Y-91660883D01*
X115828607Y-91678607D01*
X115810883Y-91694671D01*
X115791670Y-91708921D01*
X115771153Y-91721218D01*
X115749529Y-91731446D01*
X115727007Y-91739504D01*
X115703803Y-91745316D01*
X115680142Y-91748826D01*
X115656250Y-91750000D01*
X114743750Y-91750000D01*
X114719858Y-91748826D01*
X114696197Y-91745316D01*
X114672993Y-91739504D01*
X114650471Y-91731446D01*
X114628847Y-91721218D01*
X114608330Y-91708921D01*
X114589117Y-91694671D01*
X114571393Y-91678607D01*
X114555329Y-91660883D01*
X114541079Y-91641670D01*
X114528782Y-91621153D01*
X114518554Y-91599529D01*
X114510496Y-91577007D01*
X114504684Y-91553803D01*
X114501174Y-91530142D01*
X114500000Y-91506250D01*
X114500000Y-91018750D01*
X114501174Y-90994858D01*
X114504684Y-90971197D01*
X114510496Y-90947993D01*
X114518554Y-90925471D01*
X114528782Y-90903847D01*
X114541079Y-90883330D01*
X114555329Y-90864117D01*
X114571393Y-90846393D01*
X114589117Y-90830329D01*
X114608330Y-90816079D01*
X114628847Y-90803782D01*
X114650471Y-90793554D01*
X114672993Y-90785496D01*
X114696197Y-90779684D01*
X114719858Y-90776174D01*
X114743750Y-90775000D01*
X115656250Y-90775000D01*
X115680142Y-90776174D01*
G37*
G36*
X112780142Y-56976174D02*
G01*
X112803803Y-56979684D01*
X112827007Y-56985496D01*
X112849529Y-56993554D01*
X112871153Y-57003782D01*
X112891670Y-57016079D01*
X112910883Y-57030329D01*
X112928607Y-57046393D01*
X112944671Y-57064117D01*
X112958921Y-57083330D01*
X112971218Y-57103847D01*
X112981446Y-57125471D01*
X112989504Y-57147993D01*
X112995316Y-57171197D01*
X112998826Y-57194858D01*
X113000000Y-57218750D01*
X113000000Y-57706250D01*
X112998826Y-57730142D01*
X112995316Y-57753803D01*
X112989504Y-57777007D01*
X112981446Y-57799529D01*
X112971218Y-57821153D01*
X112958921Y-57841670D01*
X112944671Y-57860883D01*
X112928607Y-57878607D01*
X112910883Y-57894671D01*
X112891670Y-57908921D01*
X112871153Y-57921218D01*
X112849529Y-57931446D01*
X112827007Y-57939504D01*
X112803803Y-57945316D01*
X112780142Y-57948826D01*
X112756250Y-57950000D01*
X111843750Y-57950000D01*
X111819858Y-57948826D01*
X111796197Y-57945316D01*
X111772993Y-57939504D01*
X111750471Y-57931446D01*
X111728847Y-57921218D01*
X111708330Y-57908921D01*
X111689117Y-57894671D01*
X111671393Y-57878607D01*
X111655329Y-57860883D01*
X111641079Y-57841670D01*
X111628782Y-57821153D01*
X111618554Y-57799529D01*
X111610496Y-57777007D01*
X111604684Y-57753803D01*
X111601174Y-57730142D01*
X111600000Y-57706250D01*
X111600000Y-57218750D01*
X111601174Y-57194858D01*
X111604684Y-57171197D01*
X111610496Y-57147993D01*
X111618554Y-57125471D01*
X111628782Y-57103847D01*
X111641079Y-57083330D01*
X111655329Y-57064117D01*
X111671393Y-57046393D01*
X111689117Y-57030329D01*
X111708330Y-57016079D01*
X111728847Y-57003782D01*
X111750471Y-56993554D01*
X111772993Y-56985496D01*
X111796197Y-56979684D01*
X111819858Y-56976174D01*
X111843750Y-56975000D01*
X112756250Y-56975000D01*
X112780142Y-56976174D01*
G37*
G36*
X112780142Y-58851174D02*
G01*
X112803803Y-58854684D01*
X112827007Y-58860496D01*
X112849529Y-58868554D01*
X112871153Y-58878782D01*
X112891670Y-58891079D01*
X112910883Y-58905329D01*
X112928607Y-58921393D01*
X112944671Y-58939117D01*
X112958921Y-58958330D01*
X112971218Y-58978847D01*
X112981446Y-59000471D01*
X112989504Y-59022993D01*
X112995316Y-59046197D01*
X112998826Y-59069858D01*
X113000000Y-59093750D01*
X113000000Y-59581250D01*
X112998826Y-59605142D01*
X112995316Y-59628803D01*
X112989504Y-59652007D01*
X112981446Y-59674529D01*
X112971218Y-59696153D01*
X112958921Y-59716670D01*
X112944671Y-59735883D01*
X112928607Y-59753607D01*
X112910883Y-59769671D01*
X112891670Y-59783921D01*
X112871153Y-59796218D01*
X112849529Y-59806446D01*
X112827007Y-59814504D01*
X112803803Y-59820316D01*
X112780142Y-59823826D01*
X112756250Y-59825000D01*
X111843750Y-59825000D01*
X111819858Y-59823826D01*
X111796197Y-59820316D01*
X111772993Y-59814504D01*
X111750471Y-59806446D01*
X111728847Y-59796218D01*
X111708330Y-59783921D01*
X111689117Y-59769671D01*
X111671393Y-59753607D01*
X111655329Y-59735883D01*
X111641079Y-59716670D01*
X111628782Y-59696153D01*
X111618554Y-59674529D01*
X111610496Y-59652007D01*
X111604684Y-59628803D01*
X111601174Y-59605142D01*
X111600000Y-59581250D01*
X111600000Y-59093750D01*
X111601174Y-59069858D01*
X111604684Y-59046197D01*
X111610496Y-59022993D01*
X111618554Y-59000471D01*
X111628782Y-58978847D01*
X111641079Y-58958330D01*
X111655329Y-58939117D01*
X111671393Y-58921393D01*
X111689117Y-58905329D01*
X111708330Y-58891079D01*
X111728847Y-58878782D01*
X111750471Y-58868554D01*
X111772993Y-58860496D01*
X111796197Y-58854684D01*
X111819858Y-58851174D01*
X111843750Y-58850000D01*
X112756250Y-58850000D01*
X112780142Y-58851174D01*
G37*
G36*
X115930142Y-50101174D02*
G01*
X115953803Y-50104684D01*
X115977007Y-50110496D01*
X115999529Y-50118554D01*
X116021153Y-50128782D01*
X116041670Y-50141079D01*
X116060883Y-50155329D01*
X116078607Y-50171393D01*
X116094671Y-50189117D01*
X116108921Y-50208330D01*
X116121218Y-50228847D01*
X116131446Y-50250471D01*
X116139504Y-50272993D01*
X116145316Y-50296197D01*
X116148826Y-50319858D01*
X116150000Y-50343750D01*
X116150000Y-51256250D01*
X116148826Y-51280142D01*
X116145316Y-51303803D01*
X116139504Y-51327007D01*
X116131446Y-51349529D01*
X116121218Y-51371153D01*
X116108921Y-51391670D01*
X116094671Y-51410883D01*
X116078607Y-51428607D01*
X116060883Y-51444671D01*
X116041670Y-51458921D01*
X116021153Y-51471218D01*
X115999529Y-51481446D01*
X115977007Y-51489504D01*
X115953803Y-51495316D01*
X115930142Y-51498826D01*
X115906250Y-51500000D01*
X115418750Y-51500000D01*
X115394858Y-51498826D01*
X115371197Y-51495316D01*
X115347993Y-51489504D01*
X115325471Y-51481446D01*
X115303847Y-51471218D01*
X115283330Y-51458921D01*
X115264117Y-51444671D01*
X115246393Y-51428607D01*
X115230329Y-51410883D01*
X115216079Y-51391670D01*
X115203782Y-51371153D01*
X115193554Y-51349529D01*
X115185496Y-51327007D01*
X115179684Y-51303803D01*
X115176174Y-51280142D01*
X115175000Y-51256250D01*
X115175000Y-50343750D01*
X115176174Y-50319858D01*
X115179684Y-50296197D01*
X115185496Y-50272993D01*
X115193554Y-50250471D01*
X115203782Y-50228847D01*
X115216079Y-50208330D01*
X115230329Y-50189117D01*
X115246393Y-50171393D01*
X115264117Y-50155329D01*
X115283330Y-50141079D01*
X115303847Y-50128782D01*
X115325471Y-50118554D01*
X115347993Y-50110496D01*
X115371197Y-50104684D01*
X115394858Y-50101174D01*
X115418750Y-50100000D01*
X115906250Y-50100000D01*
X115930142Y-50101174D01*
G37*
G36*
X117805142Y-50101174D02*
G01*
X117828803Y-50104684D01*
X117852007Y-50110496D01*
X117874529Y-50118554D01*
X117896153Y-50128782D01*
X117916670Y-50141079D01*
X117935883Y-50155329D01*
X117953607Y-50171393D01*
X117969671Y-50189117D01*
X117983921Y-50208330D01*
X117996218Y-50228847D01*
X118006446Y-50250471D01*
X118014504Y-50272993D01*
X118020316Y-50296197D01*
X118023826Y-50319858D01*
X118025000Y-50343750D01*
X118025000Y-51256250D01*
X118023826Y-51280142D01*
X118020316Y-51303803D01*
X118014504Y-51327007D01*
X118006446Y-51349529D01*
X117996218Y-51371153D01*
X117983921Y-51391670D01*
X117969671Y-51410883D01*
X117953607Y-51428607D01*
X117935883Y-51444671D01*
X117916670Y-51458921D01*
X117896153Y-51471218D01*
X117874529Y-51481446D01*
X117852007Y-51489504D01*
X117828803Y-51495316D01*
X117805142Y-51498826D01*
X117781250Y-51500000D01*
X117293750Y-51500000D01*
X117269858Y-51498826D01*
X117246197Y-51495316D01*
X117222993Y-51489504D01*
X117200471Y-51481446D01*
X117178847Y-51471218D01*
X117158330Y-51458921D01*
X117139117Y-51444671D01*
X117121393Y-51428607D01*
X117105329Y-51410883D01*
X117091079Y-51391670D01*
X117078782Y-51371153D01*
X117068554Y-51349529D01*
X117060496Y-51327007D01*
X117054684Y-51303803D01*
X117051174Y-51280142D01*
X117050000Y-51256250D01*
X117050000Y-50343750D01*
X117051174Y-50319858D01*
X117054684Y-50296197D01*
X117060496Y-50272993D01*
X117068554Y-50250471D01*
X117078782Y-50228847D01*
X117091079Y-50208330D01*
X117105329Y-50189117D01*
X117121393Y-50171393D01*
X117139117Y-50155329D01*
X117158330Y-50141079D01*
X117178847Y-50128782D01*
X117200471Y-50118554D01*
X117222993Y-50110496D01*
X117246197Y-50104684D01*
X117269858Y-50101174D01*
X117293750Y-50100000D01*
X117781250Y-50100000D01*
X117805142Y-50101174D01*
G37*
D20*
X127955000Y-60000000D03*
X124645000Y-62540000D03*
X124645000Y-57460000D03*
D10*
G36*
X120842642Y-91201174D02*
G01*
X120866303Y-91204684D01*
X120889507Y-91210496D01*
X120912029Y-91218554D01*
X120933653Y-91228782D01*
X120954170Y-91241079D01*
X120973383Y-91255329D01*
X120991107Y-91271393D01*
X121007171Y-91289117D01*
X121021421Y-91308330D01*
X121033718Y-91328847D01*
X121043946Y-91350471D01*
X121052004Y-91372993D01*
X121057816Y-91396197D01*
X121061326Y-91419858D01*
X121062500Y-91443750D01*
X121062500Y-92356250D01*
X121061326Y-92380142D01*
X121057816Y-92403803D01*
X121052004Y-92427007D01*
X121043946Y-92449529D01*
X121033718Y-92471153D01*
X121021421Y-92491670D01*
X121007171Y-92510883D01*
X120991107Y-92528607D01*
X120973383Y-92544671D01*
X120954170Y-92558921D01*
X120933653Y-92571218D01*
X120912029Y-92581446D01*
X120889507Y-92589504D01*
X120866303Y-92595316D01*
X120842642Y-92598826D01*
X120818750Y-92600000D01*
X120331250Y-92600000D01*
X120307358Y-92598826D01*
X120283697Y-92595316D01*
X120260493Y-92589504D01*
X120237971Y-92581446D01*
X120216347Y-92571218D01*
X120195830Y-92558921D01*
X120176617Y-92544671D01*
X120158893Y-92528607D01*
X120142829Y-92510883D01*
X120128579Y-92491670D01*
X120116282Y-92471153D01*
X120106054Y-92449529D01*
X120097996Y-92427007D01*
X120092184Y-92403803D01*
X120088674Y-92380142D01*
X120087500Y-92356250D01*
X120087500Y-91443750D01*
X120088674Y-91419858D01*
X120092184Y-91396197D01*
X120097996Y-91372993D01*
X120106054Y-91350471D01*
X120116282Y-91328847D01*
X120128579Y-91308330D01*
X120142829Y-91289117D01*
X120158893Y-91271393D01*
X120176617Y-91255329D01*
X120195830Y-91241079D01*
X120216347Y-91228782D01*
X120237971Y-91218554D01*
X120260493Y-91210496D01*
X120283697Y-91204684D01*
X120307358Y-91201174D01*
X120331250Y-91200000D01*
X120818750Y-91200000D01*
X120842642Y-91201174D01*
G37*
G36*
X118967642Y-91201174D02*
G01*
X118991303Y-91204684D01*
X119014507Y-91210496D01*
X119037029Y-91218554D01*
X119058653Y-91228782D01*
X119079170Y-91241079D01*
X119098383Y-91255329D01*
X119116107Y-91271393D01*
X119132171Y-91289117D01*
X119146421Y-91308330D01*
X119158718Y-91328847D01*
X119168946Y-91350471D01*
X119177004Y-91372993D01*
X119182816Y-91396197D01*
X119186326Y-91419858D01*
X119187500Y-91443750D01*
X119187500Y-92356250D01*
X119186326Y-92380142D01*
X119182816Y-92403803D01*
X119177004Y-92427007D01*
X119168946Y-92449529D01*
X119158718Y-92471153D01*
X119146421Y-92491670D01*
X119132171Y-92510883D01*
X119116107Y-92528607D01*
X119098383Y-92544671D01*
X119079170Y-92558921D01*
X119058653Y-92571218D01*
X119037029Y-92581446D01*
X119014507Y-92589504D01*
X118991303Y-92595316D01*
X118967642Y-92598826D01*
X118943750Y-92600000D01*
X118456250Y-92600000D01*
X118432358Y-92598826D01*
X118408697Y-92595316D01*
X118385493Y-92589504D01*
X118362971Y-92581446D01*
X118341347Y-92571218D01*
X118320830Y-92558921D01*
X118301617Y-92544671D01*
X118283893Y-92528607D01*
X118267829Y-92510883D01*
X118253579Y-92491670D01*
X118241282Y-92471153D01*
X118231054Y-92449529D01*
X118222996Y-92427007D01*
X118217184Y-92403803D01*
X118213674Y-92380142D01*
X118212500Y-92356250D01*
X118212500Y-91443750D01*
X118213674Y-91419858D01*
X118217184Y-91396197D01*
X118222996Y-91372993D01*
X118231054Y-91350471D01*
X118241282Y-91328847D01*
X118253579Y-91308330D01*
X118267829Y-91289117D01*
X118283893Y-91271393D01*
X118301617Y-91255329D01*
X118320830Y-91241079D01*
X118341347Y-91228782D01*
X118362971Y-91218554D01*
X118385493Y-91210496D01*
X118408697Y-91204684D01*
X118432358Y-91201174D01*
X118456250Y-91200000D01*
X118943750Y-91200000D01*
X118967642Y-91201174D01*
G37*
G36*
X120705142Y-70501174D02*
G01*
X120728803Y-70504684D01*
X120752007Y-70510496D01*
X120774529Y-70518554D01*
X120796153Y-70528782D01*
X120816670Y-70541079D01*
X120835883Y-70555329D01*
X120853607Y-70571393D01*
X120869671Y-70589117D01*
X120883921Y-70608330D01*
X120896218Y-70628847D01*
X120906446Y-70650471D01*
X120914504Y-70672993D01*
X120920316Y-70696197D01*
X120923826Y-70719858D01*
X120925000Y-70743750D01*
X120925000Y-71656250D01*
X120923826Y-71680142D01*
X120920316Y-71703803D01*
X120914504Y-71727007D01*
X120906446Y-71749529D01*
X120896218Y-71771153D01*
X120883921Y-71791670D01*
X120869671Y-71810883D01*
X120853607Y-71828607D01*
X120835883Y-71844671D01*
X120816670Y-71858921D01*
X120796153Y-71871218D01*
X120774529Y-71881446D01*
X120752007Y-71889504D01*
X120728803Y-71895316D01*
X120705142Y-71898826D01*
X120681250Y-71900000D01*
X120193750Y-71900000D01*
X120169858Y-71898826D01*
X120146197Y-71895316D01*
X120122993Y-71889504D01*
X120100471Y-71881446D01*
X120078847Y-71871218D01*
X120058330Y-71858921D01*
X120039117Y-71844671D01*
X120021393Y-71828607D01*
X120005329Y-71810883D01*
X119991079Y-71791670D01*
X119978782Y-71771153D01*
X119968554Y-71749529D01*
X119960496Y-71727007D01*
X119954684Y-71703803D01*
X119951174Y-71680142D01*
X119950000Y-71656250D01*
X119950000Y-70743750D01*
X119951174Y-70719858D01*
X119954684Y-70696197D01*
X119960496Y-70672993D01*
X119968554Y-70650471D01*
X119978782Y-70628847D01*
X119991079Y-70608330D01*
X120005329Y-70589117D01*
X120021393Y-70571393D01*
X120039117Y-70555329D01*
X120058330Y-70541079D01*
X120078847Y-70528782D01*
X120100471Y-70518554D01*
X120122993Y-70510496D01*
X120146197Y-70504684D01*
X120169858Y-70501174D01*
X120193750Y-70500000D01*
X120681250Y-70500000D01*
X120705142Y-70501174D01*
G37*
G36*
X118830142Y-70501174D02*
G01*
X118853803Y-70504684D01*
X118877007Y-70510496D01*
X118899529Y-70518554D01*
X118921153Y-70528782D01*
X118941670Y-70541079D01*
X118960883Y-70555329D01*
X118978607Y-70571393D01*
X118994671Y-70589117D01*
X119008921Y-70608330D01*
X119021218Y-70628847D01*
X119031446Y-70650471D01*
X119039504Y-70672993D01*
X119045316Y-70696197D01*
X119048826Y-70719858D01*
X119050000Y-70743750D01*
X119050000Y-71656250D01*
X119048826Y-71680142D01*
X119045316Y-71703803D01*
X119039504Y-71727007D01*
X119031446Y-71749529D01*
X119021218Y-71771153D01*
X119008921Y-71791670D01*
X118994671Y-71810883D01*
X118978607Y-71828607D01*
X118960883Y-71844671D01*
X118941670Y-71858921D01*
X118921153Y-71871218D01*
X118899529Y-71881446D01*
X118877007Y-71889504D01*
X118853803Y-71895316D01*
X118830142Y-71898826D01*
X118806250Y-71900000D01*
X118318750Y-71900000D01*
X118294858Y-71898826D01*
X118271197Y-71895316D01*
X118247993Y-71889504D01*
X118225471Y-71881446D01*
X118203847Y-71871218D01*
X118183330Y-71858921D01*
X118164117Y-71844671D01*
X118146393Y-71828607D01*
X118130329Y-71810883D01*
X118116079Y-71791670D01*
X118103782Y-71771153D01*
X118093554Y-71749529D01*
X118085496Y-71727007D01*
X118079684Y-71703803D01*
X118076174Y-71680142D01*
X118075000Y-71656250D01*
X118075000Y-70743750D01*
X118076174Y-70719858D01*
X118079684Y-70696197D01*
X118085496Y-70672993D01*
X118093554Y-70650471D01*
X118103782Y-70628847D01*
X118116079Y-70608330D01*
X118130329Y-70589117D01*
X118146393Y-70571393D01*
X118164117Y-70555329D01*
X118183330Y-70541079D01*
X118203847Y-70528782D01*
X118225471Y-70518554D01*
X118247993Y-70510496D01*
X118271197Y-70504684D01*
X118294858Y-70501174D01*
X118318750Y-70500000D01*
X118806250Y-70500000D01*
X118830142Y-70501174D01*
G37*
M02*
