G04 #@! TF.GenerationSoftware,KiCad,Pcbnew,5.1.5+dfsg1-2build2*
G04 #@! TF.CreationDate,2022-02-11T05:24:06+00:00*
G04 #@! TF.ProjectId,psion-org2-bluetooth-adapter,7073696f-6e2d-46f7-9267-322d626c7565,rev?*
G04 #@! TF.SameCoordinates,Original*
G04 #@! TF.FileFunction,Soldermask,Top*
G04 #@! TF.FilePolarity,Negative*
%FSLAX46Y46*%
G04 Gerber Fmt 4.6, Leading zero omitted, Abs format (unit mm)*
G04 Created by KiCad (PCBNEW 5.1.5+dfsg1-2build2) date 2022-02-11 05:24:06*
%MOMM*%
%LPD*%
G04 APERTURE LIST*
%ADD10C,0.100000*%
G04 APERTURE END LIST*
D10*
G36*
X189287915Y-141807334D02*
G01*
X189396491Y-141840271D01*
X189396494Y-141840272D01*
X189429857Y-141858105D01*
X189496556Y-141893756D01*
X189584264Y-141965736D01*
X189656244Y-142053443D01*
X189690429Y-142117399D01*
X189709728Y-142153505D01*
X189709728Y-142153506D01*
X189709729Y-142153508D01*
X189742666Y-142262084D01*
X189751000Y-142346702D01*
X189751000Y-143253298D01*
X189742666Y-143337916D01*
X189709729Y-143446491D01*
X189709728Y-143446495D01*
X189690429Y-143482601D01*
X189656244Y-143546557D01*
X189584264Y-143634264D01*
X189496557Y-143706244D01*
X189432601Y-143740429D01*
X189396495Y-143759728D01*
X189396492Y-143759729D01*
X189287916Y-143792666D01*
X189175000Y-143803787D01*
X189062085Y-143792666D01*
X188953509Y-143759729D01*
X188953506Y-143759728D01*
X188917400Y-143740429D01*
X188853444Y-143706244D01*
X188765737Y-143634264D01*
X188693757Y-143546557D01*
X188659572Y-143482601D01*
X188640273Y-143446495D01*
X188640272Y-143446491D01*
X188607335Y-143337916D01*
X188599000Y-143253298D01*
X188599000Y-142346703D01*
X188607334Y-142262085D01*
X188640271Y-142153509D01*
X188640272Y-142153506D01*
X188659571Y-142117400D01*
X188693756Y-142053444D01*
X188765736Y-141965736D01*
X188853443Y-141893756D01*
X188920142Y-141858105D01*
X188953505Y-141840272D01*
X188953508Y-141840271D01*
X189062084Y-141807334D01*
X189175000Y-141796213D01*
X189287915Y-141807334D01*
G37*
G36*
X182137916Y-141807334D02*
G01*
X182246492Y-141840271D01*
X182246495Y-141840272D01*
X182279858Y-141858105D01*
X182346557Y-141893756D01*
X182434264Y-141965736D01*
X182506244Y-142053443D01*
X182540429Y-142117399D01*
X182559728Y-142153505D01*
X182559728Y-142153506D01*
X182559729Y-142153508D01*
X182592666Y-142262084D01*
X182601000Y-142346702D01*
X182601000Y-143253298D01*
X182592666Y-143337916D01*
X182559729Y-143446491D01*
X182559728Y-143446495D01*
X182540429Y-143482601D01*
X182506244Y-143546557D01*
X182434264Y-143634264D01*
X182346556Y-143706244D01*
X182282600Y-143740429D01*
X182246494Y-143759728D01*
X182246491Y-143759729D01*
X182137915Y-143792666D01*
X182025000Y-143803787D01*
X181912084Y-143792666D01*
X181803508Y-143759729D01*
X181803505Y-143759728D01*
X181767399Y-143740429D01*
X181703443Y-143706244D01*
X181615736Y-143634264D01*
X181543756Y-143546556D01*
X181490273Y-143446495D01*
X181490272Y-143446494D01*
X181490271Y-143446491D01*
X181457334Y-143337915D01*
X181449000Y-143253297D01*
X181449000Y-142346702D01*
X181457335Y-142262084D01*
X181490272Y-142153508D01*
X181490273Y-142153506D01*
X181490273Y-142153505D01*
X181509572Y-142117399D01*
X181543757Y-142053443D01*
X181615737Y-141965736D01*
X181703444Y-141893756D01*
X181770143Y-141858105D01*
X181803506Y-141840272D01*
X181803509Y-141840271D01*
X181912085Y-141807334D01*
X182025000Y-141796213D01*
X182137916Y-141807334D01*
G37*
G36*
X187651000Y-143801000D02*
G01*
X185799000Y-143801000D01*
X185799000Y-141799000D01*
X187651000Y-141799000D01*
X187651000Y-143801000D01*
G37*
G36*
X185401000Y-143801000D02*
G01*
X183549000Y-143801000D01*
X183549000Y-141799000D01*
X185401000Y-141799000D01*
X185401000Y-143801000D01*
G37*
G36*
X153434468Y-141353565D02*
G01*
X153473138Y-141365296D01*
X153508777Y-141384346D01*
X153540017Y-141409983D01*
X153565654Y-141441223D01*
X153584704Y-141476862D01*
X153596435Y-141515532D01*
X153601000Y-141561888D01*
X153601000Y-142638112D01*
X153596435Y-142684468D01*
X153584704Y-142723138D01*
X153565654Y-142758777D01*
X153540017Y-142790017D01*
X153508777Y-142815654D01*
X153473138Y-142834704D01*
X153434468Y-142846435D01*
X153388112Y-142851000D01*
X152736888Y-142851000D01*
X152690532Y-142846435D01*
X152651862Y-142834704D01*
X152616223Y-142815654D01*
X152584983Y-142790017D01*
X152559346Y-142758777D01*
X152540296Y-142723138D01*
X152528565Y-142684468D01*
X152524000Y-142638112D01*
X152524000Y-141561888D01*
X152528565Y-141515532D01*
X152540296Y-141476862D01*
X152559346Y-141441223D01*
X152584983Y-141409983D01*
X152616223Y-141384346D01*
X152651862Y-141365296D01*
X152690532Y-141353565D01*
X152736888Y-141349000D01*
X153388112Y-141349000D01*
X153434468Y-141353565D01*
G37*
G36*
X155309468Y-141353565D02*
G01*
X155348138Y-141365296D01*
X155383777Y-141384346D01*
X155415017Y-141409983D01*
X155440654Y-141441223D01*
X155459704Y-141476862D01*
X155471435Y-141515532D01*
X155476000Y-141561888D01*
X155476000Y-142638112D01*
X155471435Y-142684468D01*
X155459704Y-142723138D01*
X155440654Y-142758777D01*
X155415017Y-142790017D01*
X155383777Y-142815654D01*
X155348138Y-142834704D01*
X155309468Y-142846435D01*
X155263112Y-142851000D01*
X154611888Y-142851000D01*
X154565532Y-142846435D01*
X154526862Y-142834704D01*
X154491223Y-142815654D01*
X154459983Y-142790017D01*
X154434346Y-142758777D01*
X154415296Y-142723138D01*
X154403565Y-142684468D01*
X154399000Y-142638112D01*
X154399000Y-141561888D01*
X154403565Y-141515532D01*
X154415296Y-141476862D01*
X154434346Y-141441223D01*
X154459983Y-141409983D01*
X154491223Y-141384346D01*
X154526862Y-141365296D01*
X154565532Y-141353565D01*
X154611888Y-141349000D01*
X155263112Y-141349000D01*
X155309468Y-141353565D01*
G37*
G36*
X177375562Y-140528181D02*
G01*
X177410481Y-140538774D01*
X177442663Y-140555976D01*
X177470873Y-140579127D01*
X177494024Y-140607337D01*
X177511226Y-140639519D01*
X177521819Y-140674438D01*
X177526000Y-140716895D01*
X177526000Y-141858105D01*
X177521819Y-141900562D01*
X177511226Y-141935481D01*
X177494024Y-141967663D01*
X177470873Y-141995873D01*
X177442663Y-142019024D01*
X177410481Y-142036226D01*
X177375562Y-142046819D01*
X177333105Y-142051000D01*
X175866895Y-142051000D01*
X175824438Y-142046819D01*
X175789519Y-142036226D01*
X175757337Y-142019024D01*
X175729127Y-141995873D01*
X175705976Y-141967663D01*
X175688774Y-141935481D01*
X175678181Y-141900562D01*
X175674000Y-141858105D01*
X175674000Y-140716895D01*
X175678181Y-140674438D01*
X175688774Y-140639519D01*
X175705976Y-140607337D01*
X175729127Y-140579127D01*
X175757337Y-140555976D01*
X175789519Y-140538774D01*
X175824438Y-140528181D01*
X175866895Y-140524000D01*
X177333105Y-140524000D01*
X177375562Y-140528181D01*
G37*
G36*
X174575562Y-140428181D02*
G01*
X174610481Y-140438774D01*
X174642663Y-140455976D01*
X174670873Y-140479127D01*
X174694024Y-140507337D01*
X174711226Y-140539519D01*
X174721819Y-140574438D01*
X174726000Y-140616895D01*
X174726000Y-141758105D01*
X174721819Y-141800562D01*
X174711226Y-141835481D01*
X174694024Y-141867663D01*
X174670873Y-141895873D01*
X174642663Y-141919024D01*
X174610481Y-141936226D01*
X174575562Y-141946819D01*
X174533105Y-141951000D01*
X173066895Y-141951000D01*
X173024438Y-141946819D01*
X172989519Y-141936226D01*
X172957337Y-141919024D01*
X172929127Y-141895873D01*
X172905976Y-141867663D01*
X172888774Y-141835481D01*
X172878181Y-141800562D01*
X172874000Y-141758105D01*
X172874000Y-140616895D01*
X172878181Y-140574438D01*
X172888774Y-140539519D01*
X172905976Y-140507337D01*
X172929127Y-140479127D01*
X172957337Y-140455976D01*
X172989519Y-140438774D01*
X173024438Y-140428181D01*
X173066895Y-140424000D01*
X174533105Y-140424000D01*
X174575562Y-140428181D01*
G37*
G36*
X158638674Y-139953465D02*
G01*
X158676367Y-139964899D01*
X158711103Y-139983466D01*
X158741548Y-140008452D01*
X158766534Y-140038897D01*
X158785101Y-140073633D01*
X158796535Y-140111326D01*
X158801000Y-140156661D01*
X158801000Y-141243339D01*
X158796535Y-141288674D01*
X158785101Y-141326367D01*
X158766534Y-141361103D01*
X158741548Y-141391548D01*
X158711103Y-141416534D01*
X158676367Y-141435101D01*
X158638674Y-141446535D01*
X158593339Y-141451000D01*
X157756661Y-141451000D01*
X157711326Y-141446535D01*
X157673633Y-141435101D01*
X157638897Y-141416534D01*
X157608452Y-141391548D01*
X157583466Y-141361103D01*
X157564899Y-141326367D01*
X157553465Y-141288674D01*
X157549000Y-141243339D01*
X157549000Y-140156661D01*
X157553465Y-140111326D01*
X157564899Y-140073633D01*
X157583466Y-140038897D01*
X157608452Y-140008452D01*
X157638897Y-139983466D01*
X157673633Y-139964899D01*
X157711326Y-139953465D01*
X157756661Y-139949000D01*
X158593339Y-139949000D01*
X158638674Y-139953465D01*
G37*
G36*
X160688674Y-139953465D02*
G01*
X160726367Y-139964899D01*
X160761103Y-139983466D01*
X160791548Y-140008452D01*
X160816534Y-140038897D01*
X160835101Y-140073633D01*
X160846535Y-140111326D01*
X160851000Y-140156661D01*
X160851000Y-141243339D01*
X160846535Y-141288674D01*
X160835101Y-141326367D01*
X160816534Y-141361103D01*
X160791548Y-141391548D01*
X160761103Y-141416534D01*
X160726367Y-141435101D01*
X160688674Y-141446535D01*
X160643339Y-141451000D01*
X159806661Y-141451000D01*
X159761326Y-141446535D01*
X159723633Y-141435101D01*
X159688897Y-141416534D01*
X159658452Y-141391548D01*
X159633466Y-141361103D01*
X159614899Y-141326367D01*
X159603465Y-141288674D01*
X159599000Y-141243339D01*
X159599000Y-140156661D01*
X159603465Y-140111326D01*
X159614899Y-140073633D01*
X159633466Y-140038897D01*
X159658452Y-140008452D01*
X159688897Y-139983466D01*
X159723633Y-139964899D01*
X159761326Y-139953465D01*
X159806661Y-139949000D01*
X160643339Y-139949000D01*
X160688674Y-139953465D01*
G37*
G36*
X163734468Y-139853565D02*
G01*
X163773138Y-139865296D01*
X163808777Y-139884346D01*
X163840017Y-139909983D01*
X163865654Y-139941223D01*
X163884704Y-139976862D01*
X163896435Y-140015532D01*
X163901000Y-140061888D01*
X163901000Y-141138112D01*
X163896435Y-141184468D01*
X163884704Y-141223138D01*
X163865654Y-141258777D01*
X163840017Y-141290017D01*
X163808777Y-141315654D01*
X163773138Y-141334704D01*
X163734468Y-141346435D01*
X163688112Y-141351000D01*
X163036888Y-141351000D01*
X162990532Y-141346435D01*
X162951862Y-141334704D01*
X162916223Y-141315654D01*
X162884983Y-141290017D01*
X162859346Y-141258777D01*
X162840296Y-141223138D01*
X162828565Y-141184468D01*
X162824000Y-141138112D01*
X162824000Y-140061888D01*
X162828565Y-140015532D01*
X162840296Y-139976862D01*
X162859346Y-139941223D01*
X162884983Y-139909983D01*
X162916223Y-139884346D01*
X162951862Y-139865296D01*
X162990532Y-139853565D01*
X163036888Y-139849000D01*
X163688112Y-139849000D01*
X163734468Y-139853565D01*
G37*
G36*
X165609468Y-139853565D02*
G01*
X165648138Y-139865296D01*
X165683777Y-139884346D01*
X165715017Y-139909983D01*
X165740654Y-139941223D01*
X165759704Y-139976862D01*
X165771435Y-140015532D01*
X165776000Y-140061888D01*
X165776000Y-141138112D01*
X165771435Y-141184468D01*
X165759704Y-141223138D01*
X165740654Y-141258777D01*
X165715017Y-141290017D01*
X165683777Y-141315654D01*
X165648138Y-141334704D01*
X165609468Y-141346435D01*
X165563112Y-141351000D01*
X164911888Y-141351000D01*
X164865532Y-141346435D01*
X164826862Y-141334704D01*
X164791223Y-141315654D01*
X164759983Y-141290017D01*
X164734346Y-141258777D01*
X164715296Y-141223138D01*
X164703565Y-141184468D01*
X164699000Y-141138112D01*
X164699000Y-140061888D01*
X164703565Y-140015532D01*
X164715296Y-139976862D01*
X164734346Y-139941223D01*
X164759983Y-139909983D01*
X164791223Y-139884346D01*
X164826862Y-139865296D01*
X164865532Y-139853565D01*
X164911888Y-139849000D01*
X165563112Y-139849000D01*
X165609468Y-139853565D01*
G37*
G36*
X187151000Y-139669001D02*
G01*
X187153402Y-139693387D01*
X187160515Y-139716836D01*
X187172066Y-139738447D01*
X187187611Y-139757389D01*
X187206553Y-139772934D01*
X187228164Y-139784485D01*
X187251613Y-139791598D01*
X187275999Y-139794000D01*
X188546000Y-139794000D01*
X188546000Y-141346000D01*
X187294000Y-141346000D01*
X187294000Y-141025999D01*
X187291598Y-141001613D01*
X187284485Y-140978164D01*
X187272934Y-140956553D01*
X187257389Y-140937611D01*
X187238447Y-140922066D01*
X187216836Y-140910515D01*
X187193387Y-140903402D01*
X187169001Y-140901000D01*
X184030999Y-140901000D01*
X184006613Y-140903402D01*
X183983164Y-140910515D01*
X183961553Y-140922066D01*
X183942611Y-140937611D01*
X183927066Y-140956553D01*
X183915515Y-140978164D01*
X183908402Y-141001613D01*
X183906000Y-141025999D01*
X183906000Y-141346000D01*
X182654000Y-141346000D01*
X182654000Y-139794000D01*
X183924001Y-139794000D01*
X183948387Y-139791598D01*
X183971836Y-139784485D01*
X183993447Y-139772934D01*
X184012389Y-139757389D01*
X184027934Y-139738447D01*
X184039485Y-139716836D01*
X184046598Y-139693387D01*
X184049000Y-139669001D01*
X184049000Y-139399000D01*
X187151000Y-139399000D01*
X187151000Y-139669001D01*
G37*
G36*
X177375562Y-137553181D02*
G01*
X177410481Y-137563774D01*
X177442663Y-137580976D01*
X177470873Y-137604127D01*
X177494024Y-137632337D01*
X177511226Y-137664519D01*
X177521819Y-137699438D01*
X177526000Y-137741895D01*
X177526000Y-138883105D01*
X177521819Y-138925562D01*
X177511226Y-138960481D01*
X177494024Y-138992663D01*
X177470873Y-139020873D01*
X177442663Y-139044024D01*
X177410481Y-139061226D01*
X177375562Y-139071819D01*
X177333105Y-139076000D01*
X175866895Y-139076000D01*
X175824438Y-139071819D01*
X175789519Y-139061226D01*
X175757337Y-139044024D01*
X175729127Y-139020873D01*
X175705976Y-138992663D01*
X175688774Y-138960481D01*
X175678181Y-138925562D01*
X175674000Y-138883105D01*
X175674000Y-137741895D01*
X175678181Y-137699438D01*
X175688774Y-137664519D01*
X175705976Y-137632337D01*
X175729127Y-137604127D01*
X175757337Y-137580976D01*
X175789519Y-137563774D01*
X175824438Y-137553181D01*
X175866895Y-137549000D01*
X177333105Y-137549000D01*
X177375562Y-137553181D01*
G37*
G36*
X174575562Y-137453181D02*
G01*
X174610481Y-137463774D01*
X174642663Y-137480976D01*
X174670873Y-137504127D01*
X174694024Y-137532337D01*
X174711226Y-137564519D01*
X174721819Y-137599438D01*
X174726000Y-137641895D01*
X174726000Y-138783105D01*
X174721819Y-138825562D01*
X174711226Y-138860481D01*
X174694024Y-138892663D01*
X174670873Y-138920873D01*
X174642663Y-138944024D01*
X174610481Y-138961226D01*
X174575562Y-138971819D01*
X174533105Y-138976000D01*
X173066895Y-138976000D01*
X173024438Y-138971819D01*
X172989519Y-138961226D01*
X172957337Y-138944024D01*
X172929127Y-138920873D01*
X172905976Y-138892663D01*
X172888774Y-138860481D01*
X172878181Y-138825562D01*
X172874000Y-138783105D01*
X172874000Y-137641895D01*
X172878181Y-137599438D01*
X172888774Y-137564519D01*
X172905976Y-137532337D01*
X172929127Y-137504127D01*
X172957337Y-137480976D01*
X172989519Y-137463774D01*
X173024438Y-137453181D01*
X173066895Y-137449000D01*
X174533105Y-137449000D01*
X174575562Y-137453181D01*
G37*
G36*
X166034928Y-137556764D02*
G01*
X166056009Y-137563160D01*
X166075445Y-137573548D01*
X166092476Y-137587524D01*
X166106452Y-137604555D01*
X166116840Y-137623991D01*
X166123236Y-137645072D01*
X166126000Y-137673140D01*
X166126000Y-138136860D01*
X166123236Y-138164928D01*
X166116840Y-138186009D01*
X166106452Y-138205445D01*
X166092476Y-138222476D01*
X166075445Y-138236452D01*
X166056009Y-138246840D01*
X166034928Y-138253236D01*
X166006860Y-138256000D01*
X164518140Y-138256000D01*
X164490072Y-138253236D01*
X164468991Y-138246840D01*
X164449555Y-138236452D01*
X164432524Y-138222476D01*
X164418548Y-138205445D01*
X164408160Y-138186009D01*
X164401764Y-138164928D01*
X164399000Y-138136860D01*
X164399000Y-137673140D01*
X164401764Y-137645072D01*
X164408160Y-137623991D01*
X164418548Y-137604555D01*
X164432524Y-137587524D01*
X164449555Y-137573548D01*
X164468991Y-137563160D01*
X164490072Y-137556764D01*
X164518140Y-137554000D01*
X166006860Y-137554000D01*
X166034928Y-137556764D01*
G37*
G36*
X171309928Y-137556764D02*
G01*
X171331009Y-137563160D01*
X171350445Y-137573548D01*
X171367476Y-137587524D01*
X171381452Y-137604555D01*
X171391840Y-137623991D01*
X171398236Y-137645072D01*
X171401000Y-137673140D01*
X171401000Y-138136860D01*
X171398236Y-138164928D01*
X171391840Y-138186009D01*
X171381452Y-138205445D01*
X171367476Y-138222476D01*
X171350445Y-138236452D01*
X171331009Y-138246840D01*
X171309928Y-138253236D01*
X171281860Y-138256000D01*
X169793140Y-138256000D01*
X169765072Y-138253236D01*
X169743991Y-138246840D01*
X169724555Y-138236452D01*
X169707524Y-138222476D01*
X169693548Y-138205445D01*
X169683160Y-138186009D01*
X169676764Y-138164928D01*
X169674000Y-138136860D01*
X169674000Y-137673140D01*
X169676764Y-137645072D01*
X169683160Y-137623991D01*
X169693548Y-137604555D01*
X169707524Y-137587524D01*
X169724555Y-137573548D01*
X169743991Y-137563160D01*
X169765072Y-137556764D01*
X169793140Y-137554000D01*
X171281860Y-137554000D01*
X171309928Y-137556764D01*
G37*
G36*
X162109999Y-132394737D02*
G01*
X162119608Y-132397652D01*
X162128472Y-132402390D01*
X162141007Y-132412677D01*
X163187323Y-133458993D01*
X163197610Y-133471528D01*
X163202348Y-133480392D01*
X163205263Y-133490001D01*
X163206852Y-133506140D01*
X163206852Y-136893860D01*
X163205263Y-136909999D01*
X163202348Y-136919608D01*
X163197610Y-136928472D01*
X163187323Y-136941007D01*
X162141007Y-137987323D01*
X162128472Y-137997610D01*
X162119608Y-138002348D01*
X162109999Y-138005263D01*
X162093860Y-138006852D01*
X161166140Y-138006852D01*
X161150001Y-138005263D01*
X161140392Y-138002348D01*
X161131528Y-137997610D01*
X161123763Y-137991237D01*
X161117390Y-137983472D01*
X161112652Y-137974608D01*
X161109737Y-137964999D01*
X161108148Y-137948860D01*
X161108148Y-136906140D01*
X161109737Y-136890001D01*
X161112652Y-136880392D01*
X161116689Y-136872839D01*
X161116691Y-136872837D01*
X161117390Y-136871529D01*
X161125506Y-136862099D01*
X161127482Y-136860301D01*
X161130732Y-136856525D01*
X162007284Y-136058770D01*
X162023702Y-136040580D01*
X162036257Y-136019536D01*
X162044464Y-135996447D01*
X162048148Y-135966325D01*
X162048148Y-134433675D01*
X162045746Y-134409289D01*
X162038633Y-134385840D01*
X162027082Y-134364229D01*
X162007284Y-134341230D01*
X161129645Y-133542485D01*
X161125516Y-133537910D01*
X161125506Y-133537901D01*
X161118775Y-133530443D01*
X161113628Y-133521815D01*
X161110263Y-133512350D01*
X161108753Y-133500000D01*
X161108753Y-133497329D01*
X161108148Y-133492381D01*
X161108148Y-132451140D01*
X161109737Y-132435001D01*
X161112652Y-132425392D01*
X161117390Y-132416528D01*
X161123763Y-132408763D01*
X161131528Y-132402390D01*
X161140392Y-132397652D01*
X161150001Y-132394737D01*
X161166140Y-132393148D01*
X162093860Y-132393148D01*
X162109999Y-132394737D01*
G37*
G36*
X159649999Y-132394737D02*
G01*
X159659608Y-132397652D01*
X159668472Y-132402390D01*
X159676237Y-132408763D01*
X159682610Y-132416528D01*
X159687348Y-132425392D01*
X159690263Y-132435001D01*
X159691852Y-132451140D01*
X159691852Y-133493860D01*
X159690263Y-133509999D01*
X159687348Y-133519608D01*
X159683311Y-133527161D01*
X159683309Y-133527163D01*
X159682610Y-133528471D01*
X159674494Y-133537901D01*
X159672518Y-133539699D01*
X159669268Y-133543475D01*
X158792716Y-134341230D01*
X158776298Y-134359420D01*
X158763743Y-134380464D01*
X158755536Y-134403553D01*
X158751852Y-134433675D01*
X158751852Y-135966325D01*
X158754254Y-135990711D01*
X158761367Y-136014160D01*
X158772918Y-136035771D01*
X158792716Y-136058770D01*
X159670355Y-136857515D01*
X159674484Y-136862090D01*
X159674494Y-136862099D01*
X159681225Y-136869557D01*
X159681228Y-136869562D01*
X159686060Y-136877661D01*
X159686372Y-136878185D01*
X159689737Y-136887650D01*
X159691247Y-136900000D01*
X159691247Y-136902671D01*
X159691852Y-136907619D01*
X159691852Y-137948860D01*
X159690263Y-137964999D01*
X159687348Y-137974608D01*
X159682610Y-137983472D01*
X159676237Y-137991237D01*
X159668472Y-137997610D01*
X159659608Y-138002348D01*
X159649999Y-138005263D01*
X159633860Y-138006852D01*
X158706140Y-138006852D01*
X158690001Y-138005263D01*
X158680392Y-138002348D01*
X158671528Y-137997610D01*
X158658993Y-137987323D01*
X157612677Y-136941007D01*
X157602390Y-136928472D01*
X157597652Y-136919608D01*
X157594737Y-136909999D01*
X157593148Y-136893860D01*
X157593148Y-133506140D01*
X157594737Y-133490001D01*
X157597652Y-133480392D01*
X157602390Y-133471528D01*
X157612677Y-133458993D01*
X158658993Y-132412677D01*
X158671528Y-132402390D01*
X158680392Y-132397652D01*
X158690001Y-132394737D01*
X158706140Y-132393148D01*
X159633860Y-132393148D01*
X159649999Y-132394737D01*
G37*
G36*
X122301000Y-137801000D02*
G01*
X120499000Y-137801000D01*
X120499000Y-135999000D01*
X122301000Y-135999000D01*
X122301000Y-137801000D01*
G37*
G36*
X169079094Y-134352667D02*
G01*
X169108995Y-134361738D01*
X169136552Y-134376468D01*
X169160708Y-134396292D01*
X169180532Y-134420448D01*
X169195262Y-134448005D01*
X169204333Y-134477906D01*
X169208000Y-134515144D01*
X169208000Y-137484856D01*
X169204333Y-137522094D01*
X169195262Y-137551995D01*
X169180532Y-137579552D01*
X169160708Y-137603708D01*
X169136552Y-137623532D01*
X169108995Y-137638262D01*
X169079094Y-137647333D01*
X169041856Y-137651000D01*
X166758144Y-137651000D01*
X166720906Y-137647333D01*
X166691005Y-137638262D01*
X166663448Y-137623532D01*
X166639292Y-137603708D01*
X166619468Y-137579552D01*
X166604738Y-137551995D01*
X166595667Y-137522094D01*
X166592000Y-137484856D01*
X166592000Y-134515144D01*
X166595667Y-134477906D01*
X166604738Y-134448005D01*
X166619468Y-134420448D01*
X166639292Y-134396292D01*
X166663448Y-134376468D01*
X166691005Y-134361738D01*
X166720906Y-134352667D01*
X166758144Y-134349000D01*
X169041856Y-134349000D01*
X169079094Y-134352667D01*
G37*
G36*
X117809468Y-136153565D02*
G01*
X117848138Y-136165296D01*
X117883777Y-136184346D01*
X117915017Y-136209983D01*
X117940654Y-136241223D01*
X117959704Y-136276862D01*
X117971435Y-136315532D01*
X117976000Y-136361888D01*
X117976000Y-137438112D01*
X117971435Y-137484468D01*
X117959704Y-137523138D01*
X117940654Y-137558777D01*
X117915017Y-137590017D01*
X117883777Y-137615654D01*
X117848138Y-137634704D01*
X117809468Y-137646435D01*
X117763112Y-137651000D01*
X117111888Y-137651000D01*
X117065532Y-137646435D01*
X117026862Y-137634704D01*
X116991223Y-137615654D01*
X116959983Y-137590017D01*
X116934346Y-137558777D01*
X116915296Y-137523138D01*
X116903565Y-137484468D01*
X116899000Y-137438112D01*
X116899000Y-136361888D01*
X116903565Y-136315532D01*
X116915296Y-136276862D01*
X116934346Y-136241223D01*
X116959983Y-136209983D01*
X116991223Y-136184346D01*
X117026862Y-136165296D01*
X117065532Y-136153565D01*
X117111888Y-136149000D01*
X117763112Y-136149000D01*
X117809468Y-136153565D01*
G37*
G36*
X115934468Y-136153565D02*
G01*
X115973138Y-136165296D01*
X116008777Y-136184346D01*
X116040017Y-136209983D01*
X116065654Y-136241223D01*
X116084704Y-136276862D01*
X116096435Y-136315532D01*
X116101000Y-136361888D01*
X116101000Y-137438112D01*
X116096435Y-137484468D01*
X116084704Y-137523138D01*
X116065654Y-137558777D01*
X116040017Y-137590017D01*
X116008777Y-137615654D01*
X115973138Y-137634704D01*
X115934468Y-137646435D01*
X115888112Y-137651000D01*
X115236888Y-137651000D01*
X115190532Y-137646435D01*
X115151862Y-137634704D01*
X115116223Y-137615654D01*
X115084983Y-137590017D01*
X115059346Y-137558777D01*
X115040296Y-137523138D01*
X115028565Y-137484468D01*
X115024000Y-137438112D01*
X115024000Y-136361888D01*
X115028565Y-136315532D01*
X115040296Y-136276862D01*
X115059346Y-136241223D01*
X115084983Y-136209983D01*
X115116223Y-136184346D01*
X115151862Y-136165296D01*
X115190532Y-136153565D01*
X115236888Y-136149000D01*
X115888112Y-136149000D01*
X115934468Y-136153565D01*
G37*
G36*
X142373512Y-135603927D02*
G01*
X142522812Y-135633624D01*
X142686784Y-135701544D01*
X142834354Y-135800147D01*
X142959853Y-135925646D01*
X143058456Y-136073216D01*
X143126376Y-136237188D01*
X143161000Y-136411259D01*
X143161000Y-136588741D01*
X143126376Y-136762812D01*
X143058456Y-136926784D01*
X142959853Y-137074354D01*
X142834354Y-137199853D01*
X142686784Y-137298456D01*
X142522812Y-137366376D01*
X142373512Y-137396073D01*
X142348742Y-137401000D01*
X142171258Y-137401000D01*
X142146488Y-137396073D01*
X141997188Y-137366376D01*
X141833216Y-137298456D01*
X141685646Y-137199853D01*
X141560147Y-137074354D01*
X141461544Y-136926784D01*
X141393624Y-136762812D01*
X141359000Y-136588741D01*
X141359000Y-136411259D01*
X141393624Y-136237188D01*
X141461544Y-136073216D01*
X141560147Y-135925646D01*
X141685646Y-135800147D01*
X141833216Y-135701544D01*
X141997188Y-135633624D01*
X142146488Y-135603927D01*
X142171258Y-135599000D01*
X142348742Y-135599000D01*
X142373512Y-135603927D01*
G37*
G36*
X144913512Y-135603927D02*
G01*
X145062812Y-135633624D01*
X145226784Y-135701544D01*
X145374354Y-135800147D01*
X145499853Y-135925646D01*
X145598456Y-136073216D01*
X145666376Y-136237188D01*
X145701000Y-136411259D01*
X145701000Y-136588741D01*
X145666376Y-136762812D01*
X145598456Y-136926784D01*
X145499853Y-137074354D01*
X145374354Y-137199853D01*
X145226784Y-137298456D01*
X145062812Y-137366376D01*
X144913512Y-137396073D01*
X144888742Y-137401000D01*
X144711258Y-137401000D01*
X144686488Y-137396073D01*
X144537188Y-137366376D01*
X144373216Y-137298456D01*
X144225646Y-137199853D01*
X144100147Y-137074354D01*
X144001544Y-136926784D01*
X143933624Y-136762812D01*
X143899000Y-136588741D01*
X143899000Y-136411259D01*
X143933624Y-136237188D01*
X144001544Y-136073216D01*
X144100147Y-135925646D01*
X144225646Y-135800147D01*
X144373216Y-135701544D01*
X144537188Y-135633624D01*
X144686488Y-135603927D01*
X144711258Y-135599000D01*
X144888742Y-135599000D01*
X144913512Y-135603927D01*
G37*
G36*
X148241000Y-137401000D02*
G01*
X146439000Y-137401000D01*
X146439000Y-135599000D01*
X148241000Y-135599000D01*
X148241000Y-137401000D01*
G37*
G36*
X197126000Y-137051000D02*
G01*
X190674000Y-137051000D01*
X190674000Y-129609000D01*
X197126000Y-129609000D01*
X197126000Y-137051000D01*
G37*
G36*
X166034928Y-136286764D02*
G01*
X166056009Y-136293160D01*
X166075445Y-136303548D01*
X166092476Y-136317524D01*
X166106452Y-136334555D01*
X166116840Y-136353991D01*
X166123236Y-136375072D01*
X166126000Y-136403140D01*
X166126000Y-136866860D01*
X166123236Y-136894928D01*
X166116840Y-136916009D01*
X166106452Y-136935445D01*
X166092476Y-136952476D01*
X166075445Y-136966452D01*
X166056009Y-136976840D01*
X166034928Y-136983236D01*
X166006860Y-136986000D01*
X164518140Y-136986000D01*
X164490072Y-136983236D01*
X164468991Y-136976840D01*
X164449555Y-136966452D01*
X164432524Y-136952476D01*
X164418548Y-136935445D01*
X164408160Y-136916009D01*
X164401764Y-136894928D01*
X164399000Y-136866860D01*
X164399000Y-136403140D01*
X164401764Y-136375072D01*
X164408160Y-136353991D01*
X164418548Y-136334555D01*
X164432524Y-136317524D01*
X164449555Y-136303548D01*
X164468991Y-136293160D01*
X164490072Y-136286764D01*
X164518140Y-136284000D01*
X166006860Y-136284000D01*
X166034928Y-136286764D01*
G37*
G36*
X171309928Y-136286764D02*
G01*
X171331009Y-136293160D01*
X171350445Y-136303548D01*
X171367476Y-136317524D01*
X171381452Y-136334555D01*
X171391840Y-136353991D01*
X171398236Y-136375072D01*
X171401000Y-136403140D01*
X171401000Y-136866860D01*
X171398236Y-136894928D01*
X171391840Y-136916009D01*
X171381452Y-136935445D01*
X171367476Y-136952476D01*
X171350445Y-136966452D01*
X171331009Y-136976840D01*
X171309928Y-136983236D01*
X171281860Y-136986000D01*
X169793140Y-136986000D01*
X169765072Y-136983236D01*
X169743991Y-136976840D01*
X169724555Y-136966452D01*
X169707524Y-136952476D01*
X169693548Y-136935445D01*
X169683160Y-136916009D01*
X169676764Y-136894928D01*
X169674000Y-136866860D01*
X169674000Y-136403140D01*
X169676764Y-136375072D01*
X169683160Y-136353991D01*
X169693548Y-136334555D01*
X169707524Y-136317524D01*
X169724555Y-136303548D01*
X169743991Y-136293160D01*
X169765072Y-136286764D01*
X169793140Y-136284000D01*
X171281860Y-136284000D01*
X171309928Y-136286764D01*
G37*
G36*
X127959999Y-134599737D02*
G01*
X127969608Y-134602652D01*
X127978472Y-134607390D01*
X127986237Y-134613763D01*
X127996448Y-134626206D01*
X128003378Y-134636575D01*
X128020705Y-134653902D01*
X128041080Y-134667515D01*
X128063720Y-134676891D01*
X128087753Y-134681671D01*
X128112257Y-134681670D01*
X128136290Y-134676888D01*
X128158929Y-134667510D01*
X128179302Y-134653895D01*
X128196629Y-134636568D01*
X128203558Y-134626198D01*
X128213763Y-134613763D01*
X128221528Y-134607390D01*
X128230392Y-134602652D01*
X128240001Y-134599737D01*
X128256140Y-134598148D01*
X128743861Y-134598148D01*
X128762199Y-134599954D01*
X128774450Y-134600556D01*
X128792869Y-134600556D01*
X128815149Y-134602750D01*
X128899233Y-134619476D01*
X128920660Y-134625976D01*
X128999858Y-134658780D01*
X129005303Y-134661691D01*
X129005309Y-134661693D01*
X129014169Y-134666429D01*
X129014173Y-134666432D01*
X129019614Y-134669340D01*
X129090899Y-134716971D01*
X129108204Y-134731172D01*
X129168828Y-134791796D01*
X129183029Y-134809101D01*
X129230660Y-134880386D01*
X129233568Y-134885827D01*
X129233571Y-134885831D01*
X129238307Y-134894691D01*
X129238309Y-134894697D01*
X129241220Y-134900142D01*
X129274024Y-134979340D01*
X129280524Y-135000767D01*
X129297250Y-135084851D01*
X129299444Y-135107131D01*
X129299444Y-135125550D01*
X129300046Y-135137801D01*
X129301852Y-135156139D01*
X129301852Y-135643862D01*
X129300046Y-135662199D01*
X129299444Y-135674450D01*
X129299444Y-135692869D01*
X129297250Y-135715149D01*
X129280524Y-135799233D01*
X129274024Y-135820660D01*
X129241220Y-135899858D01*
X129238309Y-135905303D01*
X129238307Y-135905309D01*
X129233571Y-135914169D01*
X129233568Y-135914173D01*
X129230660Y-135919614D01*
X129183029Y-135990899D01*
X129168828Y-136008204D01*
X129108204Y-136068828D01*
X129090899Y-136083029D01*
X129019614Y-136130660D01*
X129014173Y-136133568D01*
X129014169Y-136133571D01*
X129005309Y-136138307D01*
X129005303Y-136138309D01*
X128999858Y-136141220D01*
X128920660Y-136174024D01*
X128899233Y-136180524D01*
X128815149Y-136197250D01*
X128792869Y-136199444D01*
X128774450Y-136199444D01*
X128762199Y-136200046D01*
X128743862Y-136201852D01*
X128256140Y-136201852D01*
X128240001Y-136200263D01*
X128230392Y-136197348D01*
X128221528Y-136192610D01*
X128213763Y-136186237D01*
X128203552Y-136173794D01*
X128196622Y-136163425D01*
X128179295Y-136146098D01*
X128158920Y-136132485D01*
X128136280Y-136123109D01*
X128112247Y-136118329D01*
X128087743Y-136118330D01*
X128063710Y-136123112D01*
X128041071Y-136132490D01*
X128020698Y-136146105D01*
X128003371Y-136163432D01*
X127996442Y-136173802D01*
X127986237Y-136186237D01*
X127978472Y-136192610D01*
X127969608Y-136197348D01*
X127959999Y-136200263D01*
X127943860Y-136201852D01*
X127456138Y-136201852D01*
X127437801Y-136200046D01*
X127425550Y-136199444D01*
X127407131Y-136199444D01*
X127384851Y-136197250D01*
X127300767Y-136180524D01*
X127279340Y-136174024D01*
X127200142Y-136141220D01*
X127194697Y-136138309D01*
X127194691Y-136138307D01*
X127185831Y-136133571D01*
X127185827Y-136133568D01*
X127180386Y-136130660D01*
X127109101Y-136083029D01*
X127091796Y-136068828D01*
X127031172Y-136008204D01*
X127016971Y-135990899D01*
X126969340Y-135919614D01*
X126966432Y-135914173D01*
X126966429Y-135914169D01*
X126961693Y-135905309D01*
X126961691Y-135905303D01*
X126958780Y-135899858D01*
X126925976Y-135820660D01*
X126919476Y-135799233D01*
X126902750Y-135715149D01*
X126900556Y-135692869D01*
X126900556Y-135674450D01*
X126899954Y-135662199D01*
X126898148Y-135643862D01*
X126898148Y-135156139D01*
X126899954Y-135137801D01*
X126900556Y-135125550D01*
X126900556Y-135107131D01*
X126902750Y-135084851D01*
X126919476Y-135000767D01*
X126925976Y-134979340D01*
X126958780Y-134900142D01*
X126961691Y-134894697D01*
X126961693Y-134894691D01*
X126966429Y-134885831D01*
X126966432Y-134885827D01*
X126969340Y-134880386D01*
X127016971Y-134809101D01*
X127031172Y-134791796D01*
X127091796Y-134731172D01*
X127109101Y-134716971D01*
X127180386Y-134669340D01*
X127185827Y-134666432D01*
X127185831Y-134666429D01*
X127194691Y-134661693D01*
X127194697Y-134661691D01*
X127200142Y-134658780D01*
X127279340Y-134625976D01*
X127300767Y-134619476D01*
X127384851Y-134602750D01*
X127407131Y-134600556D01*
X127425550Y-134600556D01*
X127437801Y-134599954D01*
X127456139Y-134598148D01*
X127943860Y-134598148D01*
X127959999Y-134599737D01*
G37*
G36*
X171309928Y-135016764D02*
G01*
X171331009Y-135023160D01*
X171350445Y-135033548D01*
X171367476Y-135047524D01*
X171381452Y-135064555D01*
X171391840Y-135083991D01*
X171398236Y-135105072D01*
X171401000Y-135133140D01*
X171401000Y-135596860D01*
X171398236Y-135624928D01*
X171391840Y-135646009D01*
X171381452Y-135665445D01*
X171367476Y-135682476D01*
X171350445Y-135696452D01*
X171331009Y-135706840D01*
X171309928Y-135713236D01*
X171281860Y-135716000D01*
X169793140Y-135716000D01*
X169765072Y-135713236D01*
X169743991Y-135706840D01*
X169724555Y-135696452D01*
X169707524Y-135682476D01*
X169693548Y-135665445D01*
X169683160Y-135646009D01*
X169676764Y-135624928D01*
X169674000Y-135596860D01*
X169674000Y-135133140D01*
X169676764Y-135105072D01*
X169683160Y-135083991D01*
X169693548Y-135064555D01*
X169707524Y-135047524D01*
X169724555Y-135033548D01*
X169743991Y-135023160D01*
X169765072Y-135016764D01*
X169793140Y-135014000D01*
X171281860Y-135014000D01*
X171309928Y-135016764D01*
G37*
G36*
X166034928Y-135016764D02*
G01*
X166056009Y-135023160D01*
X166075445Y-135033548D01*
X166092476Y-135047524D01*
X166106452Y-135064555D01*
X166116840Y-135083991D01*
X166123236Y-135105072D01*
X166126000Y-135133140D01*
X166126000Y-135596860D01*
X166123236Y-135624928D01*
X166116840Y-135646009D01*
X166106452Y-135665445D01*
X166092476Y-135682476D01*
X166075445Y-135696452D01*
X166056009Y-135706840D01*
X166034928Y-135713236D01*
X166006860Y-135716000D01*
X164518140Y-135716000D01*
X164490072Y-135713236D01*
X164468991Y-135706840D01*
X164449555Y-135696452D01*
X164432524Y-135682476D01*
X164418548Y-135665445D01*
X164408160Y-135646009D01*
X164401764Y-135624928D01*
X164399000Y-135596860D01*
X164399000Y-135133140D01*
X164401764Y-135105072D01*
X164408160Y-135083991D01*
X164418548Y-135064555D01*
X164432524Y-135047524D01*
X164449555Y-135033548D01*
X164468991Y-135023160D01*
X164490072Y-135016764D01*
X164518140Y-135014000D01*
X166006860Y-135014000D01*
X166034928Y-135016764D01*
G37*
G36*
X121510988Y-133463425D02*
G01*
X121662812Y-133493624D01*
X121826784Y-133561544D01*
X121974354Y-133660147D01*
X122099853Y-133785646D01*
X122198456Y-133933216D01*
X122266376Y-134097188D01*
X122301000Y-134271259D01*
X122301000Y-134448741D01*
X122266376Y-134622812D01*
X122198456Y-134786784D01*
X122099853Y-134934354D01*
X121974354Y-135059853D01*
X121826784Y-135158456D01*
X121662812Y-135226376D01*
X121513512Y-135256073D01*
X121488742Y-135261000D01*
X121311258Y-135261000D01*
X121286488Y-135256073D01*
X121137188Y-135226376D01*
X120973216Y-135158456D01*
X120825646Y-135059853D01*
X120700147Y-134934354D01*
X120601544Y-134786784D01*
X120533624Y-134622812D01*
X120499000Y-134448741D01*
X120499000Y-134271259D01*
X120533624Y-134097188D01*
X120601544Y-133933216D01*
X120700147Y-133785646D01*
X120825646Y-133660147D01*
X120973216Y-133561544D01*
X121137188Y-133493624D01*
X121289012Y-133463425D01*
X121311258Y-133459000D01*
X121488742Y-133459000D01*
X121510988Y-133463425D01*
G37*
G36*
X115896968Y-133553565D02*
G01*
X115935638Y-133565296D01*
X115971277Y-133584346D01*
X116002517Y-133609983D01*
X116028154Y-133641223D01*
X116047204Y-133676862D01*
X116058935Y-133715532D01*
X116063500Y-133761888D01*
X116063500Y-134838112D01*
X116058935Y-134884468D01*
X116047204Y-134923138D01*
X116028154Y-134958777D01*
X116002517Y-134990017D01*
X115971277Y-135015654D01*
X115935638Y-135034704D01*
X115896968Y-135046435D01*
X115850612Y-135051000D01*
X115199388Y-135051000D01*
X115153032Y-135046435D01*
X115114362Y-135034704D01*
X115078723Y-135015654D01*
X115047483Y-134990017D01*
X115021846Y-134958777D01*
X115002796Y-134923138D01*
X114991065Y-134884468D01*
X114986500Y-134838112D01*
X114986500Y-133761888D01*
X114991065Y-133715532D01*
X115002796Y-133676862D01*
X115021846Y-133641223D01*
X115047483Y-133609983D01*
X115078723Y-133584346D01*
X115114362Y-133565296D01*
X115153032Y-133553565D01*
X115199388Y-133549000D01*
X115850612Y-133549000D01*
X115896968Y-133553565D01*
G37*
G36*
X117771968Y-133553565D02*
G01*
X117810638Y-133565296D01*
X117846277Y-133584346D01*
X117877517Y-133609983D01*
X117903154Y-133641223D01*
X117922204Y-133676862D01*
X117933935Y-133715532D01*
X117938500Y-133761888D01*
X117938500Y-134838112D01*
X117933935Y-134884468D01*
X117922204Y-134923138D01*
X117903154Y-134958777D01*
X117877517Y-134990017D01*
X117846277Y-135015654D01*
X117810638Y-135034704D01*
X117771968Y-135046435D01*
X117725612Y-135051000D01*
X117074388Y-135051000D01*
X117028032Y-135046435D01*
X116989362Y-135034704D01*
X116953723Y-135015654D01*
X116922483Y-134990017D01*
X116896846Y-134958777D01*
X116877796Y-134923138D01*
X116866065Y-134884468D01*
X116861500Y-134838112D01*
X116861500Y-133761888D01*
X116866065Y-133715532D01*
X116877796Y-133676862D01*
X116896846Y-133641223D01*
X116922483Y-133609983D01*
X116953723Y-133584346D01*
X116989362Y-133565296D01*
X117028032Y-133553565D01*
X117074388Y-133549000D01*
X117725612Y-133549000D01*
X117771968Y-133553565D01*
G37*
G36*
X176800562Y-132978181D02*
G01*
X176835481Y-132988774D01*
X176867663Y-133005976D01*
X176895873Y-133029127D01*
X176919024Y-133057337D01*
X176936226Y-133089519D01*
X176946819Y-133124438D01*
X176951000Y-133166895D01*
X176951000Y-134633105D01*
X176946819Y-134675562D01*
X176936226Y-134710481D01*
X176919024Y-134742663D01*
X176895873Y-134770873D01*
X176867663Y-134794024D01*
X176835481Y-134811226D01*
X176800562Y-134821819D01*
X176758105Y-134826000D01*
X175616895Y-134826000D01*
X175574438Y-134821819D01*
X175539519Y-134811226D01*
X175507337Y-134794024D01*
X175479127Y-134770873D01*
X175455976Y-134742663D01*
X175438774Y-134710481D01*
X175428181Y-134675562D01*
X175424000Y-134633105D01*
X175424000Y-133166895D01*
X175428181Y-133124438D01*
X175438774Y-133089519D01*
X175455976Y-133057337D01*
X175479127Y-133029127D01*
X175507337Y-133005976D01*
X175539519Y-132988774D01*
X175574438Y-132978181D01*
X175616895Y-132974000D01*
X176758105Y-132974000D01*
X176800562Y-132978181D01*
G37*
G36*
X173825562Y-132978181D02*
G01*
X173860481Y-132988774D01*
X173892663Y-133005976D01*
X173920873Y-133029127D01*
X173944024Y-133057337D01*
X173961226Y-133089519D01*
X173971819Y-133124438D01*
X173976000Y-133166895D01*
X173976000Y-134633105D01*
X173971819Y-134675562D01*
X173961226Y-134710481D01*
X173944024Y-134742663D01*
X173920873Y-134770873D01*
X173892663Y-134794024D01*
X173860481Y-134811226D01*
X173825562Y-134821819D01*
X173783105Y-134826000D01*
X172641895Y-134826000D01*
X172599438Y-134821819D01*
X172564519Y-134811226D01*
X172532337Y-134794024D01*
X172504127Y-134770873D01*
X172480976Y-134742663D01*
X172463774Y-134710481D01*
X172453181Y-134675562D01*
X172449000Y-134633105D01*
X172449000Y-133166895D01*
X172453181Y-133124438D01*
X172463774Y-133089519D01*
X172480976Y-133057337D01*
X172504127Y-133029127D01*
X172532337Y-133005976D01*
X172564519Y-132988774D01*
X172599438Y-132978181D01*
X172641895Y-132974000D01*
X173783105Y-132974000D01*
X173825562Y-132978181D01*
G37*
G36*
X166034928Y-133746764D02*
G01*
X166056009Y-133753160D01*
X166075445Y-133763548D01*
X166092476Y-133777524D01*
X166106452Y-133794555D01*
X166116840Y-133813991D01*
X166123236Y-133835072D01*
X166126000Y-133863140D01*
X166126000Y-134326860D01*
X166123236Y-134354928D01*
X166116840Y-134376009D01*
X166106452Y-134395445D01*
X166092476Y-134412476D01*
X166075445Y-134426452D01*
X166056009Y-134436840D01*
X166034928Y-134443236D01*
X166006860Y-134446000D01*
X164518140Y-134446000D01*
X164490072Y-134443236D01*
X164468991Y-134436840D01*
X164449555Y-134426452D01*
X164432524Y-134412476D01*
X164418548Y-134395445D01*
X164408160Y-134376009D01*
X164401764Y-134354928D01*
X164399000Y-134326860D01*
X164399000Y-133863140D01*
X164401764Y-133835072D01*
X164408160Y-133813991D01*
X164418548Y-133794555D01*
X164432524Y-133777524D01*
X164449555Y-133763548D01*
X164468991Y-133753160D01*
X164490072Y-133746764D01*
X164518140Y-133744000D01*
X166006860Y-133744000D01*
X166034928Y-133746764D01*
G37*
G36*
X171309928Y-133746764D02*
G01*
X171331009Y-133753160D01*
X171350445Y-133763548D01*
X171367476Y-133777524D01*
X171381452Y-133794555D01*
X171391840Y-133813991D01*
X171398236Y-133835072D01*
X171401000Y-133863140D01*
X171401000Y-134326860D01*
X171398236Y-134354928D01*
X171391840Y-134376009D01*
X171381452Y-134395445D01*
X171367476Y-134412476D01*
X171350445Y-134426452D01*
X171331009Y-134436840D01*
X171309928Y-134443236D01*
X171281860Y-134446000D01*
X169793140Y-134446000D01*
X169765072Y-134443236D01*
X169743991Y-134436840D01*
X169724555Y-134426452D01*
X169707524Y-134412476D01*
X169693548Y-134395445D01*
X169683160Y-134376009D01*
X169676764Y-134354928D01*
X169674000Y-134326860D01*
X169674000Y-133863140D01*
X169676764Y-133835072D01*
X169683160Y-133813991D01*
X169693548Y-133794555D01*
X169707524Y-133777524D01*
X169724555Y-133763548D01*
X169743991Y-133753160D01*
X169765072Y-133746764D01*
X169793140Y-133744000D01*
X171281860Y-133744000D01*
X171309928Y-133746764D01*
G37*
G36*
X127959999Y-131899737D02*
G01*
X127969608Y-131902652D01*
X127978472Y-131907390D01*
X127986237Y-131913763D01*
X127996448Y-131926206D01*
X128003378Y-131936575D01*
X128020705Y-131953902D01*
X128041080Y-131967515D01*
X128063720Y-131976891D01*
X128087753Y-131981671D01*
X128112257Y-131981670D01*
X128136290Y-131976888D01*
X128158929Y-131967510D01*
X128179302Y-131953895D01*
X128196629Y-131936568D01*
X128203558Y-131926198D01*
X128213763Y-131913763D01*
X128221528Y-131907390D01*
X128230392Y-131902652D01*
X128240001Y-131899737D01*
X128256140Y-131898148D01*
X128743861Y-131898148D01*
X128762199Y-131899954D01*
X128774450Y-131900556D01*
X128792869Y-131900556D01*
X128815149Y-131902750D01*
X128899233Y-131919476D01*
X128920660Y-131925976D01*
X128999858Y-131958780D01*
X129005303Y-131961691D01*
X129005309Y-131961693D01*
X129014169Y-131966429D01*
X129014173Y-131966432D01*
X129019614Y-131969340D01*
X129090899Y-132016971D01*
X129108204Y-132031172D01*
X129168828Y-132091796D01*
X129183029Y-132109101D01*
X129230660Y-132180386D01*
X129233568Y-132185827D01*
X129233571Y-132185831D01*
X129238307Y-132194691D01*
X129238309Y-132194697D01*
X129241220Y-132200142D01*
X129274024Y-132279340D01*
X129280524Y-132300767D01*
X129297250Y-132384851D01*
X129299444Y-132407131D01*
X129299444Y-132425550D01*
X129300046Y-132437801D01*
X129301852Y-132456139D01*
X129301852Y-132943862D01*
X129300046Y-132962199D01*
X129299444Y-132974450D01*
X129299444Y-132992869D01*
X129297250Y-133015149D01*
X129280524Y-133099233D01*
X129274024Y-133120660D01*
X129241220Y-133199858D01*
X129238309Y-133205303D01*
X129238307Y-133205309D01*
X129233571Y-133214169D01*
X129233568Y-133214173D01*
X129230660Y-133219614D01*
X129183029Y-133290899D01*
X129168828Y-133308204D01*
X129108204Y-133368828D01*
X129090899Y-133383029D01*
X129019614Y-133430660D01*
X129014173Y-133433568D01*
X129014169Y-133433571D01*
X129005309Y-133438307D01*
X129005303Y-133438309D01*
X128999858Y-133441220D01*
X128920660Y-133474024D01*
X128899233Y-133480524D01*
X128815149Y-133497250D01*
X128792869Y-133499444D01*
X128774450Y-133499444D01*
X128762199Y-133500046D01*
X128743862Y-133501852D01*
X128256140Y-133501852D01*
X128240001Y-133500263D01*
X128230392Y-133497348D01*
X128221528Y-133492610D01*
X128213763Y-133486237D01*
X128203552Y-133473794D01*
X128196622Y-133463425D01*
X128179295Y-133446098D01*
X128158920Y-133432485D01*
X128136280Y-133423109D01*
X128112247Y-133418329D01*
X128087743Y-133418330D01*
X128063710Y-133423112D01*
X128041071Y-133432490D01*
X128020698Y-133446105D01*
X128003371Y-133463432D01*
X127996442Y-133473802D01*
X127986237Y-133486237D01*
X127978472Y-133492610D01*
X127969608Y-133497348D01*
X127959999Y-133500263D01*
X127943860Y-133501852D01*
X127456138Y-133501852D01*
X127437801Y-133500046D01*
X127425550Y-133499444D01*
X127407131Y-133499444D01*
X127384851Y-133497250D01*
X127300767Y-133480524D01*
X127279340Y-133474024D01*
X127200142Y-133441220D01*
X127194697Y-133438309D01*
X127194691Y-133438307D01*
X127185831Y-133433571D01*
X127185827Y-133433568D01*
X127180386Y-133430660D01*
X127109101Y-133383029D01*
X127091796Y-133368828D01*
X127031172Y-133308204D01*
X127016971Y-133290899D01*
X126969340Y-133219614D01*
X126966432Y-133214173D01*
X126966429Y-133214169D01*
X126961693Y-133205309D01*
X126961691Y-133205303D01*
X126958780Y-133199858D01*
X126925976Y-133120660D01*
X126919476Y-133099233D01*
X126902750Y-133015149D01*
X126900556Y-132992869D01*
X126900556Y-132974450D01*
X126899954Y-132962199D01*
X126898148Y-132943862D01*
X126898148Y-132456139D01*
X126899954Y-132437801D01*
X126900556Y-132425550D01*
X126900556Y-132407131D01*
X126902750Y-132384851D01*
X126919476Y-132300767D01*
X126925976Y-132279340D01*
X126958780Y-132200142D01*
X126961691Y-132194697D01*
X126961693Y-132194691D01*
X126966429Y-132185831D01*
X126966432Y-132185827D01*
X126969340Y-132180386D01*
X127016971Y-132109101D01*
X127031172Y-132091796D01*
X127091796Y-132031172D01*
X127109101Y-132016971D01*
X127180386Y-131969340D01*
X127185827Y-131966432D01*
X127185831Y-131966429D01*
X127194691Y-131961693D01*
X127194697Y-131961691D01*
X127200142Y-131958780D01*
X127279340Y-131925976D01*
X127300767Y-131919476D01*
X127384851Y-131902750D01*
X127407131Y-131900556D01*
X127425550Y-131900556D01*
X127437801Y-131899954D01*
X127456139Y-131898148D01*
X127943860Y-131898148D01*
X127959999Y-131899737D01*
G37*
G36*
X121513512Y-130923927D02*
G01*
X121662812Y-130953624D01*
X121826784Y-131021544D01*
X121974354Y-131120147D01*
X122099853Y-131245646D01*
X122198456Y-131393216D01*
X122266376Y-131557188D01*
X122301000Y-131731259D01*
X122301000Y-131908741D01*
X122266376Y-132082812D01*
X122198456Y-132246784D01*
X122099853Y-132394354D01*
X121974354Y-132519853D01*
X121826784Y-132618456D01*
X121662812Y-132686376D01*
X121513512Y-132716073D01*
X121488742Y-132721000D01*
X121311258Y-132721000D01*
X121286488Y-132716073D01*
X121137188Y-132686376D01*
X120973216Y-132618456D01*
X120825646Y-132519853D01*
X120700147Y-132394354D01*
X120601544Y-132246784D01*
X120533624Y-132082812D01*
X120499000Y-131908741D01*
X120499000Y-131731259D01*
X120533624Y-131557188D01*
X120601544Y-131393216D01*
X120700147Y-131245646D01*
X120825646Y-131120147D01*
X120973216Y-131021544D01*
X121137188Y-130953624D01*
X121286488Y-130923927D01*
X121311258Y-130919000D01*
X121488742Y-130919000D01*
X121513512Y-130923927D01*
G37*
G36*
X171334468Y-130953565D02*
G01*
X171373138Y-130965296D01*
X171408777Y-130984346D01*
X171440017Y-131009983D01*
X171465654Y-131041223D01*
X171484704Y-131076862D01*
X171496435Y-131115532D01*
X171501000Y-131161888D01*
X171501000Y-132238112D01*
X171496435Y-132284468D01*
X171484704Y-132323138D01*
X171465654Y-132358777D01*
X171440017Y-132390017D01*
X171408777Y-132415654D01*
X171373138Y-132434704D01*
X171334468Y-132446435D01*
X171288112Y-132451000D01*
X170636888Y-132451000D01*
X170590532Y-132446435D01*
X170551862Y-132434704D01*
X170516223Y-132415654D01*
X170484983Y-132390017D01*
X170459346Y-132358777D01*
X170440296Y-132323138D01*
X170428565Y-132284468D01*
X170424000Y-132238112D01*
X170424000Y-131161888D01*
X170428565Y-131115532D01*
X170440296Y-131076862D01*
X170459346Y-131041223D01*
X170484983Y-131009983D01*
X170516223Y-130984346D01*
X170551862Y-130965296D01*
X170590532Y-130953565D01*
X170636888Y-130949000D01*
X171288112Y-130949000D01*
X171334468Y-130953565D01*
G37*
G36*
X173209468Y-130953565D02*
G01*
X173248138Y-130965296D01*
X173283777Y-130984346D01*
X173315017Y-131009983D01*
X173340654Y-131041223D01*
X173359704Y-131076862D01*
X173371435Y-131115532D01*
X173376000Y-131161888D01*
X173376000Y-132238112D01*
X173371435Y-132284468D01*
X173359704Y-132323138D01*
X173340654Y-132358777D01*
X173315017Y-132390017D01*
X173283777Y-132415654D01*
X173248138Y-132434704D01*
X173209468Y-132446435D01*
X173163112Y-132451000D01*
X172511888Y-132451000D01*
X172465532Y-132446435D01*
X172426862Y-132434704D01*
X172391223Y-132415654D01*
X172359983Y-132390017D01*
X172334346Y-132358777D01*
X172315296Y-132323138D01*
X172303565Y-132284468D01*
X172299000Y-132238112D01*
X172299000Y-131161888D01*
X172303565Y-131115532D01*
X172315296Y-131076862D01*
X172334346Y-131041223D01*
X172359983Y-131009983D01*
X172391223Y-130984346D01*
X172426862Y-130965296D01*
X172465532Y-130953565D01*
X172511888Y-130949000D01*
X173163112Y-130949000D01*
X173209468Y-130953565D01*
G37*
G36*
X111509999Y-129999737D02*
G01*
X111519608Y-130002652D01*
X111528472Y-130007390D01*
X111536237Y-130013763D01*
X111546448Y-130026206D01*
X111553378Y-130036575D01*
X111570705Y-130053902D01*
X111591080Y-130067515D01*
X111613720Y-130076891D01*
X111637753Y-130081671D01*
X111662257Y-130081670D01*
X111686290Y-130076888D01*
X111708929Y-130067510D01*
X111729302Y-130053895D01*
X111746629Y-130036568D01*
X111753558Y-130026198D01*
X111763763Y-130013763D01*
X111771528Y-130007390D01*
X111780392Y-130002652D01*
X111790001Y-129999737D01*
X111806140Y-129998148D01*
X112293861Y-129998148D01*
X112312199Y-129999954D01*
X112324450Y-130000556D01*
X112342869Y-130000556D01*
X112365149Y-130002750D01*
X112449233Y-130019476D01*
X112470660Y-130025976D01*
X112549858Y-130058780D01*
X112555303Y-130061691D01*
X112555309Y-130061693D01*
X112564169Y-130066429D01*
X112564173Y-130066432D01*
X112569614Y-130069340D01*
X112640899Y-130116971D01*
X112658204Y-130131172D01*
X112718828Y-130191796D01*
X112733029Y-130209101D01*
X112780660Y-130280386D01*
X112783568Y-130285827D01*
X112783571Y-130285831D01*
X112788307Y-130294691D01*
X112788309Y-130294697D01*
X112791220Y-130300142D01*
X112824024Y-130379340D01*
X112830524Y-130400767D01*
X112847250Y-130484851D01*
X112849444Y-130507131D01*
X112849444Y-130525550D01*
X112850046Y-130537801D01*
X112851852Y-130556139D01*
X112851852Y-131043862D01*
X112850046Y-131062199D01*
X112849444Y-131074450D01*
X112849444Y-131092869D01*
X112847250Y-131115149D01*
X112830524Y-131199233D01*
X112824024Y-131220660D01*
X112791220Y-131299858D01*
X112788309Y-131305303D01*
X112788307Y-131305309D01*
X112783571Y-131314169D01*
X112783568Y-131314173D01*
X112780660Y-131319614D01*
X112733029Y-131390899D01*
X112718828Y-131408204D01*
X112658204Y-131468828D01*
X112640899Y-131483029D01*
X112569614Y-131530660D01*
X112564173Y-131533568D01*
X112564169Y-131533571D01*
X112555309Y-131538307D01*
X112555303Y-131538309D01*
X112549858Y-131541220D01*
X112470660Y-131574024D01*
X112449233Y-131580524D01*
X112365149Y-131597250D01*
X112342869Y-131599444D01*
X112324450Y-131599444D01*
X112312199Y-131600046D01*
X112293862Y-131601852D01*
X111806140Y-131601852D01*
X111790001Y-131600263D01*
X111780392Y-131597348D01*
X111771528Y-131592610D01*
X111763763Y-131586237D01*
X111753552Y-131573794D01*
X111746622Y-131563425D01*
X111729295Y-131546098D01*
X111708920Y-131532485D01*
X111686280Y-131523109D01*
X111662247Y-131518329D01*
X111637743Y-131518330D01*
X111613710Y-131523112D01*
X111591071Y-131532490D01*
X111570698Y-131546105D01*
X111553371Y-131563432D01*
X111546442Y-131573802D01*
X111536237Y-131586237D01*
X111528472Y-131592610D01*
X111519608Y-131597348D01*
X111509999Y-131600263D01*
X111493860Y-131601852D01*
X111006138Y-131601852D01*
X110987801Y-131600046D01*
X110975550Y-131599444D01*
X110957131Y-131599444D01*
X110934851Y-131597250D01*
X110850767Y-131580524D01*
X110829340Y-131574024D01*
X110750142Y-131541220D01*
X110744697Y-131538309D01*
X110744691Y-131538307D01*
X110735831Y-131533571D01*
X110735827Y-131533568D01*
X110730386Y-131530660D01*
X110659101Y-131483029D01*
X110641796Y-131468828D01*
X110581172Y-131408204D01*
X110566971Y-131390899D01*
X110519340Y-131319614D01*
X110516432Y-131314173D01*
X110516429Y-131314169D01*
X110511693Y-131305309D01*
X110511691Y-131305303D01*
X110508780Y-131299858D01*
X110475976Y-131220660D01*
X110469476Y-131199233D01*
X110452750Y-131115149D01*
X110450556Y-131092869D01*
X110450556Y-131074450D01*
X110449954Y-131062199D01*
X110448148Y-131043862D01*
X110448148Y-130556139D01*
X110449954Y-130537801D01*
X110450556Y-130525550D01*
X110450556Y-130507131D01*
X110452750Y-130484851D01*
X110469476Y-130400767D01*
X110475976Y-130379340D01*
X110508780Y-130300142D01*
X110511691Y-130294697D01*
X110511693Y-130294691D01*
X110516429Y-130285831D01*
X110516432Y-130285827D01*
X110519340Y-130280386D01*
X110566971Y-130209101D01*
X110581172Y-130191796D01*
X110641796Y-130131172D01*
X110659101Y-130116971D01*
X110730386Y-130069340D01*
X110735827Y-130066432D01*
X110735831Y-130066429D01*
X110744691Y-130061693D01*
X110744697Y-130061691D01*
X110750142Y-130058780D01*
X110829340Y-130025976D01*
X110850767Y-130019476D01*
X110934851Y-130002750D01*
X110957131Y-130000556D01*
X110975550Y-130000556D01*
X110987801Y-129999954D01*
X111006139Y-129998148D01*
X111493860Y-129998148D01*
X111509999Y-129999737D01*
G37*
G36*
X186263444Y-128731882D02*
G01*
X186490201Y-128825808D01*
X186526407Y-128850000D01*
X186694279Y-128962168D01*
X186867832Y-129135721D01*
X186904940Y-129191258D01*
X187004192Y-129339799D01*
X187098118Y-129566556D01*
X187146000Y-129807278D01*
X187146000Y-130052722D01*
X187098118Y-130293444D01*
X187004192Y-130520201D01*
X187004191Y-130520202D01*
X186867832Y-130724279D01*
X186694279Y-130897832D01*
X186593311Y-130965296D01*
X186490201Y-131034192D01*
X186263444Y-131128118D01*
X186022722Y-131176000D01*
X185777278Y-131176000D01*
X185536556Y-131128118D01*
X185309799Y-131034192D01*
X185206689Y-130965296D01*
X185105721Y-130897832D01*
X184932168Y-130724279D01*
X184795809Y-130520202D01*
X184795808Y-130520201D01*
X184701882Y-130293444D01*
X184654000Y-130052722D01*
X184654000Y-129807278D01*
X184701882Y-129566556D01*
X184795808Y-129339799D01*
X184895060Y-129191258D01*
X184932168Y-129135721D01*
X185105721Y-128962168D01*
X185273593Y-128850000D01*
X185309799Y-128825808D01*
X185536556Y-128731882D01*
X185777278Y-128684000D01*
X186022722Y-128684000D01*
X186263444Y-128731882D01*
G37*
G36*
X121508997Y-128383029D02*
G01*
X121662812Y-128413624D01*
X121826784Y-128481544D01*
X121974354Y-128580147D01*
X122099853Y-128705646D01*
X122198456Y-128853216D01*
X122266376Y-129017188D01*
X122301000Y-129191259D01*
X122301000Y-129368741D01*
X122266376Y-129542812D01*
X122198456Y-129706784D01*
X122099853Y-129854354D01*
X121974354Y-129979853D01*
X121826784Y-130078456D01*
X121662812Y-130146376D01*
X121513512Y-130176073D01*
X121488742Y-130181000D01*
X121311258Y-130181000D01*
X121286488Y-130176073D01*
X121137188Y-130146376D01*
X120973216Y-130078456D01*
X120825646Y-129979853D01*
X120700147Y-129854354D01*
X120601544Y-129706784D01*
X120533624Y-129542812D01*
X120499000Y-129368741D01*
X120499000Y-129191259D01*
X120533624Y-129017188D01*
X120601544Y-128853216D01*
X120700147Y-128705646D01*
X120825646Y-128580147D01*
X120973216Y-128481544D01*
X121137188Y-128413624D01*
X121291003Y-128383029D01*
X121311258Y-128379000D01*
X121488742Y-128379000D01*
X121508997Y-128383029D01*
G37*
G36*
X144901000Y-129301000D02*
G01*
X143099000Y-129301000D01*
X143099000Y-125699000D01*
X144901000Y-125699000D01*
X144901000Y-129301000D01*
G37*
G36*
X142361000Y-129301000D02*
G01*
X140559000Y-129301000D01*
X140559000Y-125699000D01*
X142361000Y-125699000D01*
X142361000Y-129301000D01*
G37*
G36*
X147441000Y-129301000D02*
G01*
X145639000Y-129301000D01*
X145639000Y-125699000D01*
X147441000Y-125699000D01*
X147441000Y-129301000D01*
G37*
G36*
X111509999Y-127299737D02*
G01*
X111519608Y-127302652D01*
X111528472Y-127307390D01*
X111536237Y-127313763D01*
X111546448Y-127326206D01*
X111553378Y-127336575D01*
X111570705Y-127353902D01*
X111591080Y-127367515D01*
X111613720Y-127376891D01*
X111637753Y-127381671D01*
X111662257Y-127381670D01*
X111686290Y-127376888D01*
X111708929Y-127367510D01*
X111729302Y-127353895D01*
X111746629Y-127336568D01*
X111753558Y-127326198D01*
X111763763Y-127313763D01*
X111771528Y-127307390D01*
X111780392Y-127302652D01*
X111790001Y-127299737D01*
X111806140Y-127298148D01*
X112293861Y-127298148D01*
X112312199Y-127299954D01*
X112324450Y-127300556D01*
X112342869Y-127300556D01*
X112365149Y-127302750D01*
X112449233Y-127319476D01*
X112470660Y-127325976D01*
X112549858Y-127358780D01*
X112555303Y-127361691D01*
X112555309Y-127361693D01*
X112564169Y-127366429D01*
X112564173Y-127366432D01*
X112569614Y-127369340D01*
X112640899Y-127416971D01*
X112658204Y-127431172D01*
X112718828Y-127491796D01*
X112733029Y-127509101D01*
X112780660Y-127580386D01*
X112783568Y-127585827D01*
X112783571Y-127585831D01*
X112788307Y-127594691D01*
X112788309Y-127594697D01*
X112791220Y-127600142D01*
X112824024Y-127679340D01*
X112830524Y-127700767D01*
X112847250Y-127784851D01*
X112849444Y-127807131D01*
X112849444Y-127825550D01*
X112850046Y-127837801D01*
X112851852Y-127856139D01*
X112851852Y-128343862D01*
X112850046Y-128362199D01*
X112849444Y-128374450D01*
X112849444Y-128392869D01*
X112847250Y-128415149D01*
X112830524Y-128499233D01*
X112824024Y-128520660D01*
X112791220Y-128599858D01*
X112788309Y-128605303D01*
X112788307Y-128605309D01*
X112783571Y-128614169D01*
X112783568Y-128614173D01*
X112780660Y-128619614D01*
X112733029Y-128690899D01*
X112718828Y-128708204D01*
X112658204Y-128768828D01*
X112640899Y-128783029D01*
X112569614Y-128830660D01*
X112564173Y-128833568D01*
X112564169Y-128833571D01*
X112555309Y-128838307D01*
X112555303Y-128838309D01*
X112549858Y-128841220D01*
X112470660Y-128874024D01*
X112449233Y-128880524D01*
X112365149Y-128897250D01*
X112342869Y-128899444D01*
X112324450Y-128899444D01*
X112312199Y-128900046D01*
X112293862Y-128901852D01*
X111806140Y-128901852D01*
X111790001Y-128900263D01*
X111780392Y-128897348D01*
X111771528Y-128892610D01*
X111763763Y-128886237D01*
X111753552Y-128873794D01*
X111746622Y-128863425D01*
X111729295Y-128846098D01*
X111708920Y-128832485D01*
X111686280Y-128823109D01*
X111662247Y-128818329D01*
X111637743Y-128818330D01*
X111613710Y-128823112D01*
X111591071Y-128832490D01*
X111570698Y-128846105D01*
X111553371Y-128863432D01*
X111546442Y-128873802D01*
X111536237Y-128886237D01*
X111528472Y-128892610D01*
X111519608Y-128897348D01*
X111509999Y-128900263D01*
X111493860Y-128901852D01*
X111006138Y-128901852D01*
X110987801Y-128900046D01*
X110975550Y-128899444D01*
X110957131Y-128899444D01*
X110934851Y-128897250D01*
X110850767Y-128880524D01*
X110829340Y-128874024D01*
X110750142Y-128841220D01*
X110744697Y-128838309D01*
X110744691Y-128838307D01*
X110735831Y-128833571D01*
X110735827Y-128833568D01*
X110730386Y-128830660D01*
X110659101Y-128783029D01*
X110641796Y-128768828D01*
X110581172Y-128708204D01*
X110566971Y-128690899D01*
X110519340Y-128619614D01*
X110516432Y-128614173D01*
X110516429Y-128614169D01*
X110511693Y-128605309D01*
X110511691Y-128605303D01*
X110508780Y-128599858D01*
X110475976Y-128520660D01*
X110469476Y-128499233D01*
X110452750Y-128415149D01*
X110450556Y-128392869D01*
X110450556Y-128374450D01*
X110449954Y-128362199D01*
X110448148Y-128343862D01*
X110448148Y-127856139D01*
X110449954Y-127837801D01*
X110450556Y-127825550D01*
X110450556Y-127807131D01*
X110452750Y-127784851D01*
X110469476Y-127700767D01*
X110475976Y-127679340D01*
X110508780Y-127600142D01*
X110511691Y-127594697D01*
X110511693Y-127594691D01*
X110516429Y-127585831D01*
X110516432Y-127585827D01*
X110519340Y-127580386D01*
X110566971Y-127509101D01*
X110581172Y-127491796D01*
X110641796Y-127431172D01*
X110659101Y-127416971D01*
X110730386Y-127369340D01*
X110735827Y-127366432D01*
X110735831Y-127366429D01*
X110744691Y-127361693D01*
X110744697Y-127361691D01*
X110750142Y-127358780D01*
X110829340Y-127325976D01*
X110850767Y-127319476D01*
X110934851Y-127302750D01*
X110957131Y-127300556D01*
X110975550Y-127300556D01*
X110987801Y-127299954D01*
X111006139Y-127298148D01*
X111493860Y-127298148D01*
X111509999Y-127299737D01*
G37*
G36*
X179562199Y-126099954D02*
G01*
X179574450Y-126100556D01*
X179592869Y-126100556D01*
X179615149Y-126102750D01*
X179699233Y-126119476D01*
X179720660Y-126125976D01*
X179799858Y-126158780D01*
X179805303Y-126161691D01*
X179805309Y-126161693D01*
X179814169Y-126166429D01*
X179814173Y-126166432D01*
X179819614Y-126169340D01*
X179890899Y-126216971D01*
X179908204Y-126231172D01*
X179968828Y-126291796D01*
X179983029Y-126309101D01*
X180030660Y-126380386D01*
X180033568Y-126385827D01*
X180033571Y-126385831D01*
X180038307Y-126394691D01*
X180038309Y-126394697D01*
X180041220Y-126400142D01*
X180074024Y-126479340D01*
X180080524Y-126500767D01*
X180097250Y-126584851D01*
X180099444Y-126607131D01*
X180099444Y-126625550D01*
X180100046Y-126637801D01*
X180101852Y-126656139D01*
X180101852Y-127143860D01*
X180100263Y-127159999D01*
X180097348Y-127169608D01*
X180092610Y-127178472D01*
X180086237Y-127186237D01*
X180073794Y-127196448D01*
X180063425Y-127203378D01*
X180046098Y-127220705D01*
X180032485Y-127241080D01*
X180023109Y-127263720D01*
X180018329Y-127287753D01*
X180018330Y-127312257D01*
X180023112Y-127336290D01*
X180032490Y-127358929D01*
X180046105Y-127379302D01*
X180063432Y-127396629D01*
X180073802Y-127403558D01*
X180086237Y-127413763D01*
X180092610Y-127421528D01*
X180097348Y-127430392D01*
X180100263Y-127440001D01*
X180101852Y-127456140D01*
X180101852Y-127943862D01*
X180100046Y-127962199D01*
X180099444Y-127974450D01*
X180099444Y-127992869D01*
X180097250Y-128015149D01*
X180080524Y-128099233D01*
X180074024Y-128120660D01*
X180041220Y-128199858D01*
X180038309Y-128205303D01*
X180038307Y-128205309D01*
X180033571Y-128214169D01*
X180033568Y-128214173D01*
X180030660Y-128219614D01*
X179983029Y-128290899D01*
X179968828Y-128308204D01*
X179908204Y-128368828D01*
X179890899Y-128383029D01*
X179819614Y-128430660D01*
X179814173Y-128433568D01*
X179814169Y-128433571D01*
X179805309Y-128438307D01*
X179805303Y-128438309D01*
X179799858Y-128441220D01*
X179720660Y-128474024D01*
X179699233Y-128480524D01*
X179615149Y-128497250D01*
X179592869Y-128499444D01*
X179574450Y-128499444D01*
X179562199Y-128500046D01*
X179543862Y-128501852D01*
X179056138Y-128501852D01*
X179037801Y-128500046D01*
X179025550Y-128499444D01*
X179007131Y-128499444D01*
X178984851Y-128497250D01*
X178900767Y-128480524D01*
X178879340Y-128474024D01*
X178800142Y-128441220D01*
X178794697Y-128438309D01*
X178794691Y-128438307D01*
X178785831Y-128433571D01*
X178785827Y-128433568D01*
X178780386Y-128430660D01*
X178709101Y-128383029D01*
X178691796Y-128368828D01*
X178631172Y-128308204D01*
X178616971Y-128290899D01*
X178569340Y-128219614D01*
X178566432Y-128214173D01*
X178566429Y-128214169D01*
X178561693Y-128205309D01*
X178561691Y-128205303D01*
X178558780Y-128199858D01*
X178525976Y-128120660D01*
X178519476Y-128099233D01*
X178502750Y-128015149D01*
X178500556Y-127992869D01*
X178500556Y-127974450D01*
X178499954Y-127962199D01*
X178498148Y-127943862D01*
X178498148Y-127456140D01*
X178499737Y-127440001D01*
X178502652Y-127430392D01*
X178507390Y-127421528D01*
X178513763Y-127413763D01*
X178526206Y-127403552D01*
X178536575Y-127396622D01*
X178553902Y-127379295D01*
X178567515Y-127358920D01*
X178576891Y-127336280D01*
X178581671Y-127312247D01*
X178581670Y-127287743D01*
X178576888Y-127263710D01*
X178567510Y-127241071D01*
X178553895Y-127220698D01*
X178536568Y-127203371D01*
X178526198Y-127196442D01*
X178513763Y-127186237D01*
X178507390Y-127178472D01*
X178502652Y-127169608D01*
X178499737Y-127159999D01*
X178498148Y-127143860D01*
X178498148Y-126656139D01*
X178499954Y-126637801D01*
X178500556Y-126625550D01*
X178500556Y-126607131D01*
X178502750Y-126584851D01*
X178519476Y-126500767D01*
X178525976Y-126479340D01*
X178558780Y-126400142D01*
X178561691Y-126394697D01*
X178561693Y-126394691D01*
X178566429Y-126385831D01*
X178566432Y-126385827D01*
X178569340Y-126380386D01*
X178616971Y-126309101D01*
X178631172Y-126291796D01*
X178691796Y-126231172D01*
X178709101Y-126216971D01*
X178780386Y-126169340D01*
X178785827Y-126166432D01*
X178785831Y-126166429D01*
X178794691Y-126161693D01*
X178794697Y-126161691D01*
X178800142Y-126158780D01*
X178879340Y-126125976D01*
X178900767Y-126119476D01*
X178984851Y-126102750D01*
X179007131Y-126100556D01*
X179025550Y-126100556D01*
X179037801Y-126099954D01*
X179056139Y-126098148D01*
X179543861Y-126098148D01*
X179562199Y-126099954D01*
G37*
G36*
X176862199Y-126099954D02*
G01*
X176874450Y-126100556D01*
X176892869Y-126100556D01*
X176915149Y-126102750D01*
X176999233Y-126119476D01*
X177020660Y-126125976D01*
X177099858Y-126158780D01*
X177105303Y-126161691D01*
X177105309Y-126161693D01*
X177114169Y-126166429D01*
X177114173Y-126166432D01*
X177119614Y-126169340D01*
X177190899Y-126216971D01*
X177208204Y-126231172D01*
X177268828Y-126291796D01*
X177283029Y-126309101D01*
X177330660Y-126380386D01*
X177333568Y-126385827D01*
X177333571Y-126385831D01*
X177338307Y-126394691D01*
X177338309Y-126394697D01*
X177341220Y-126400142D01*
X177374024Y-126479340D01*
X177380524Y-126500767D01*
X177397250Y-126584851D01*
X177399444Y-126607131D01*
X177399444Y-126625550D01*
X177400046Y-126637801D01*
X177401852Y-126656139D01*
X177401852Y-127143860D01*
X177400263Y-127159999D01*
X177397348Y-127169608D01*
X177392610Y-127178472D01*
X177386237Y-127186237D01*
X177373794Y-127196448D01*
X177363425Y-127203378D01*
X177346098Y-127220705D01*
X177332485Y-127241080D01*
X177323109Y-127263720D01*
X177318329Y-127287753D01*
X177318330Y-127312257D01*
X177323112Y-127336290D01*
X177332490Y-127358929D01*
X177346105Y-127379302D01*
X177363432Y-127396629D01*
X177373802Y-127403558D01*
X177386237Y-127413763D01*
X177392610Y-127421528D01*
X177397348Y-127430392D01*
X177400263Y-127440001D01*
X177401852Y-127456140D01*
X177401852Y-127943862D01*
X177400046Y-127962199D01*
X177399444Y-127974450D01*
X177399444Y-127992869D01*
X177397250Y-128015149D01*
X177380524Y-128099233D01*
X177374024Y-128120660D01*
X177341220Y-128199858D01*
X177338309Y-128205303D01*
X177338307Y-128205309D01*
X177333571Y-128214169D01*
X177333568Y-128214173D01*
X177330660Y-128219614D01*
X177283029Y-128290899D01*
X177268828Y-128308204D01*
X177208204Y-128368828D01*
X177190899Y-128383029D01*
X177119614Y-128430660D01*
X177114173Y-128433568D01*
X177114169Y-128433571D01*
X177105309Y-128438307D01*
X177105303Y-128438309D01*
X177099858Y-128441220D01*
X177020660Y-128474024D01*
X176999233Y-128480524D01*
X176915149Y-128497250D01*
X176892869Y-128499444D01*
X176874450Y-128499444D01*
X176862199Y-128500046D01*
X176843862Y-128501852D01*
X176356138Y-128501852D01*
X176337801Y-128500046D01*
X176325550Y-128499444D01*
X176307131Y-128499444D01*
X176284851Y-128497250D01*
X176200767Y-128480524D01*
X176179340Y-128474024D01*
X176100142Y-128441220D01*
X176094697Y-128438309D01*
X176094691Y-128438307D01*
X176085831Y-128433571D01*
X176085827Y-128433568D01*
X176080386Y-128430660D01*
X176009101Y-128383029D01*
X175991796Y-128368828D01*
X175931172Y-128308204D01*
X175916971Y-128290899D01*
X175869340Y-128219614D01*
X175866432Y-128214173D01*
X175866429Y-128214169D01*
X175861693Y-128205309D01*
X175861691Y-128205303D01*
X175858780Y-128199858D01*
X175825976Y-128120660D01*
X175819476Y-128099233D01*
X175802750Y-128015149D01*
X175800556Y-127992869D01*
X175800556Y-127974450D01*
X175799954Y-127962199D01*
X175798148Y-127943862D01*
X175798148Y-127456140D01*
X175799737Y-127440001D01*
X175802652Y-127430392D01*
X175807390Y-127421528D01*
X175813763Y-127413763D01*
X175826206Y-127403552D01*
X175836575Y-127396622D01*
X175853902Y-127379295D01*
X175867515Y-127358920D01*
X175876891Y-127336280D01*
X175881671Y-127312247D01*
X175881670Y-127287743D01*
X175876888Y-127263710D01*
X175867510Y-127241071D01*
X175853895Y-127220698D01*
X175836568Y-127203371D01*
X175826198Y-127196442D01*
X175813763Y-127186237D01*
X175807390Y-127178472D01*
X175802652Y-127169608D01*
X175799737Y-127159999D01*
X175798148Y-127143860D01*
X175798148Y-126656139D01*
X175799954Y-126637801D01*
X175800556Y-126625550D01*
X175800556Y-126607131D01*
X175802750Y-126584851D01*
X175819476Y-126500767D01*
X175825976Y-126479340D01*
X175858780Y-126400142D01*
X175861691Y-126394697D01*
X175861693Y-126394691D01*
X175866429Y-126385831D01*
X175866432Y-126385827D01*
X175869340Y-126380386D01*
X175916971Y-126309101D01*
X175931172Y-126291796D01*
X175991796Y-126231172D01*
X176009101Y-126216971D01*
X176080386Y-126169340D01*
X176085827Y-126166432D01*
X176085831Y-126166429D01*
X176094691Y-126161693D01*
X176094697Y-126161691D01*
X176100142Y-126158780D01*
X176179340Y-126125976D01*
X176200767Y-126119476D01*
X176284851Y-126102750D01*
X176307131Y-126100556D01*
X176325550Y-126100556D01*
X176337801Y-126099954D01*
X176356139Y-126098148D01*
X176843861Y-126098148D01*
X176862199Y-126099954D01*
G37*
G36*
X155591000Y-127731000D02*
G01*
X151989000Y-127731000D01*
X151989000Y-125929000D01*
X155591000Y-125929000D01*
X155591000Y-127731000D01*
G37*
G36*
X136011000Y-127731000D02*
G01*
X132409000Y-127731000D01*
X132409000Y-125929000D01*
X136011000Y-125929000D01*
X136011000Y-127731000D01*
G37*
G36*
X172700562Y-123878181D02*
G01*
X172735481Y-123888774D01*
X172767663Y-123905976D01*
X172795873Y-123929127D01*
X172819024Y-123957337D01*
X172836226Y-123989519D01*
X172846819Y-124024438D01*
X172851000Y-124066895D01*
X172851000Y-125533105D01*
X172846819Y-125575562D01*
X172836226Y-125610481D01*
X172819024Y-125642663D01*
X172795873Y-125670873D01*
X172767663Y-125694024D01*
X172735481Y-125711226D01*
X172700562Y-125721819D01*
X172658105Y-125726000D01*
X171516895Y-125726000D01*
X171474438Y-125721819D01*
X171439519Y-125711226D01*
X171407337Y-125694024D01*
X171379127Y-125670873D01*
X171355976Y-125642663D01*
X171338774Y-125610481D01*
X171328181Y-125575562D01*
X171324000Y-125533105D01*
X171324000Y-124066895D01*
X171328181Y-124024438D01*
X171338774Y-123989519D01*
X171355976Y-123957337D01*
X171379127Y-123929127D01*
X171407337Y-123905976D01*
X171439519Y-123888774D01*
X171474438Y-123878181D01*
X171516895Y-123874000D01*
X172658105Y-123874000D01*
X172700562Y-123878181D01*
G37*
G36*
X169725562Y-123878181D02*
G01*
X169760481Y-123888774D01*
X169792663Y-123905976D01*
X169820873Y-123929127D01*
X169844024Y-123957337D01*
X169861226Y-123989519D01*
X169871819Y-124024438D01*
X169876000Y-124066895D01*
X169876000Y-125533105D01*
X169871819Y-125575562D01*
X169861226Y-125610481D01*
X169844024Y-125642663D01*
X169820873Y-125670873D01*
X169792663Y-125694024D01*
X169760481Y-125711226D01*
X169725562Y-125721819D01*
X169683105Y-125726000D01*
X168541895Y-125726000D01*
X168499438Y-125721819D01*
X168464519Y-125711226D01*
X168432337Y-125694024D01*
X168404127Y-125670873D01*
X168380976Y-125642663D01*
X168363774Y-125610481D01*
X168353181Y-125575562D01*
X168349000Y-125533105D01*
X168349000Y-124066895D01*
X168353181Y-124024438D01*
X168363774Y-123989519D01*
X168380976Y-123957337D01*
X168404127Y-123929127D01*
X168432337Y-123905976D01*
X168464519Y-123888774D01*
X168499438Y-123878181D01*
X168541895Y-123874000D01*
X169683105Y-123874000D01*
X169725562Y-123878181D01*
G37*
G36*
X136011000Y-125191000D02*
G01*
X132409000Y-125191000D01*
X132409000Y-123389000D01*
X136011000Y-123389000D01*
X136011000Y-125191000D01*
G37*
G36*
X155591000Y-125191000D02*
G01*
X151989000Y-125191000D01*
X151989000Y-123389000D01*
X155591000Y-123389000D01*
X155591000Y-125191000D01*
G37*
G36*
X202418039Y-119892250D02*
G01*
X202607372Y-119970675D01*
X202741251Y-120026129D01*
X203032134Y-120220491D01*
X203279509Y-120467866D01*
X203473871Y-120758749D01*
X203473871Y-120758750D01*
X203607750Y-121081961D01*
X203676000Y-121425078D01*
X203676000Y-121774922D01*
X203607750Y-122118039D01*
X203529325Y-122307372D01*
X203473871Y-122441251D01*
X203279509Y-122732134D01*
X203032134Y-122979509D01*
X202741251Y-123173871D01*
X202607372Y-123229325D01*
X202418039Y-123307750D01*
X202074922Y-123376000D01*
X201725078Y-123376000D01*
X201381961Y-123307750D01*
X201192628Y-123229325D01*
X201058749Y-123173871D01*
X200767866Y-122979509D01*
X200520491Y-122732134D01*
X200326129Y-122441251D01*
X200270675Y-122307372D01*
X200192250Y-122118039D01*
X200124000Y-121774922D01*
X200124000Y-121425078D01*
X200192250Y-121081961D01*
X200326129Y-120758750D01*
X200326129Y-120758749D01*
X200520491Y-120467866D01*
X200767866Y-120220491D01*
X201058749Y-120026129D01*
X201192628Y-119970675D01*
X201381961Y-119892250D01*
X201725078Y-119824000D01*
X202074922Y-119824000D01*
X202418039Y-119892250D01*
G37*
G36*
X155591000Y-122651000D02*
G01*
X151989000Y-122651000D01*
X151989000Y-120849000D01*
X155591000Y-120849000D01*
X155591000Y-122651000D01*
G37*
G36*
X136011000Y-122651000D02*
G01*
X132409000Y-122651000D01*
X132409000Y-120849000D01*
X136011000Y-120849000D01*
X136011000Y-122651000D01*
G37*
G36*
X112809468Y-119153565D02*
G01*
X112848138Y-119165296D01*
X112883777Y-119184346D01*
X112915017Y-119209983D01*
X112940654Y-119241223D01*
X112959704Y-119276862D01*
X112971435Y-119315532D01*
X112976000Y-119361888D01*
X112976000Y-120438112D01*
X112971435Y-120484468D01*
X112959704Y-120523138D01*
X112940654Y-120558777D01*
X112915017Y-120590017D01*
X112883777Y-120615654D01*
X112848138Y-120634704D01*
X112809468Y-120646435D01*
X112763112Y-120651000D01*
X112111888Y-120651000D01*
X112065532Y-120646435D01*
X112026862Y-120634704D01*
X111991223Y-120615654D01*
X111959983Y-120590017D01*
X111934346Y-120558777D01*
X111915296Y-120523138D01*
X111903565Y-120484468D01*
X111899000Y-120438112D01*
X111899000Y-119361888D01*
X111903565Y-119315532D01*
X111915296Y-119276862D01*
X111934346Y-119241223D01*
X111959983Y-119209983D01*
X111991223Y-119184346D01*
X112026862Y-119165296D01*
X112065532Y-119153565D01*
X112111888Y-119149000D01*
X112763112Y-119149000D01*
X112809468Y-119153565D01*
G37*
G36*
X110934468Y-119153565D02*
G01*
X110973138Y-119165296D01*
X111008777Y-119184346D01*
X111040017Y-119209983D01*
X111065654Y-119241223D01*
X111084704Y-119276862D01*
X111096435Y-119315532D01*
X111101000Y-119361888D01*
X111101000Y-120438112D01*
X111096435Y-120484468D01*
X111084704Y-120523138D01*
X111065654Y-120558777D01*
X111040017Y-120590017D01*
X111008777Y-120615654D01*
X110973138Y-120634704D01*
X110934468Y-120646435D01*
X110888112Y-120651000D01*
X110236888Y-120651000D01*
X110190532Y-120646435D01*
X110151862Y-120634704D01*
X110116223Y-120615654D01*
X110084983Y-120590017D01*
X110059346Y-120558777D01*
X110040296Y-120523138D01*
X110028565Y-120484468D01*
X110024000Y-120438112D01*
X110024000Y-119361888D01*
X110028565Y-119315532D01*
X110040296Y-119276862D01*
X110059346Y-119241223D01*
X110084983Y-119209983D01*
X110116223Y-119184346D01*
X110151862Y-119165296D01*
X110190532Y-119153565D01*
X110236888Y-119149000D01*
X110888112Y-119149000D01*
X110934468Y-119153565D01*
G37*
G36*
X121301000Y-120501000D02*
G01*
X120299000Y-120501000D01*
X120299000Y-119599000D01*
X121301000Y-119599000D01*
X121301000Y-120501000D01*
G37*
G36*
X116801000Y-120401000D02*
G01*
X115799000Y-120401000D01*
X115799000Y-119499000D01*
X116801000Y-119499000D01*
X116801000Y-120401000D01*
G37*
G36*
X155591000Y-120111000D02*
G01*
X151989000Y-120111000D01*
X151989000Y-118309000D01*
X155591000Y-118309000D01*
X155591000Y-120111000D01*
G37*
G36*
X136011000Y-120111000D02*
G01*
X132409000Y-120111000D01*
X132409000Y-118309000D01*
X136011000Y-118309000D01*
X136011000Y-120111000D01*
G37*
G36*
X119301000Y-119551000D02*
G01*
X118299000Y-119551000D01*
X118299000Y-118649000D01*
X119301000Y-118649000D01*
X119301000Y-119551000D01*
G37*
G36*
X114801000Y-119451000D02*
G01*
X113799000Y-119451000D01*
X113799000Y-118549000D01*
X114801000Y-118549000D01*
X114801000Y-119451000D01*
G37*
G36*
X121301000Y-118601000D02*
G01*
X120299000Y-118601000D01*
X120299000Y-117699000D01*
X121301000Y-117699000D01*
X121301000Y-118601000D01*
G37*
G36*
X116801000Y-118501000D02*
G01*
X115799000Y-118501000D01*
X115799000Y-117599000D01*
X116801000Y-117599000D01*
X116801000Y-118501000D01*
G37*
G36*
X112201000Y-118001000D02*
G01*
X111199000Y-118001000D01*
X111199000Y-117099000D01*
X112201000Y-117099000D01*
X112201000Y-118001000D01*
G37*
G36*
X136011000Y-117571000D02*
G01*
X132409000Y-117571000D01*
X132409000Y-115769000D01*
X136011000Y-115769000D01*
X136011000Y-117571000D01*
G37*
G36*
X155591000Y-117571000D02*
G01*
X151989000Y-117571000D01*
X151989000Y-115769000D01*
X155591000Y-115769000D01*
X155591000Y-117571000D01*
G37*
G36*
X110201000Y-117051000D02*
G01*
X109199000Y-117051000D01*
X109199000Y-116149000D01*
X110201000Y-116149000D01*
X110201000Y-117051000D01*
G37*
G36*
X119609468Y-115053565D02*
G01*
X119648138Y-115065296D01*
X119683777Y-115084346D01*
X119715017Y-115109983D01*
X119740654Y-115141223D01*
X119759704Y-115176862D01*
X119771435Y-115215532D01*
X119776000Y-115261888D01*
X119776000Y-116338112D01*
X119771435Y-116384468D01*
X119759704Y-116423138D01*
X119740654Y-116458777D01*
X119715017Y-116490017D01*
X119683777Y-116515654D01*
X119648138Y-116534704D01*
X119609468Y-116546435D01*
X119563112Y-116551000D01*
X118911888Y-116551000D01*
X118865532Y-116546435D01*
X118826862Y-116534704D01*
X118791223Y-116515654D01*
X118759983Y-116490017D01*
X118734346Y-116458777D01*
X118715296Y-116423138D01*
X118703565Y-116384468D01*
X118699000Y-116338112D01*
X118699000Y-115261888D01*
X118703565Y-115215532D01*
X118715296Y-115176862D01*
X118734346Y-115141223D01*
X118759983Y-115109983D01*
X118791223Y-115084346D01*
X118826862Y-115065296D01*
X118865532Y-115053565D01*
X118911888Y-115049000D01*
X119563112Y-115049000D01*
X119609468Y-115053565D01*
G37*
G36*
X117734468Y-115053565D02*
G01*
X117773138Y-115065296D01*
X117808777Y-115084346D01*
X117840017Y-115109983D01*
X117865654Y-115141223D01*
X117884704Y-115176862D01*
X117896435Y-115215532D01*
X117901000Y-115261888D01*
X117901000Y-116338112D01*
X117896435Y-116384468D01*
X117884704Y-116423138D01*
X117865654Y-116458777D01*
X117840017Y-116490017D01*
X117808777Y-116515654D01*
X117773138Y-116534704D01*
X117734468Y-116546435D01*
X117688112Y-116551000D01*
X117036888Y-116551000D01*
X116990532Y-116546435D01*
X116951862Y-116534704D01*
X116916223Y-116515654D01*
X116884983Y-116490017D01*
X116859346Y-116458777D01*
X116840296Y-116423138D01*
X116828565Y-116384468D01*
X116824000Y-116338112D01*
X116824000Y-115261888D01*
X116828565Y-115215532D01*
X116840296Y-115176862D01*
X116859346Y-115141223D01*
X116884983Y-115109983D01*
X116916223Y-115084346D01*
X116951862Y-115065296D01*
X116990532Y-115053565D01*
X117036888Y-115049000D01*
X117688112Y-115049000D01*
X117734468Y-115053565D01*
G37*
G36*
X113834468Y-115053565D02*
G01*
X113873138Y-115065296D01*
X113908777Y-115084346D01*
X113940017Y-115109983D01*
X113965654Y-115141223D01*
X113984704Y-115176862D01*
X113996435Y-115215532D01*
X114001000Y-115261888D01*
X114001000Y-116338112D01*
X113996435Y-116384468D01*
X113984704Y-116423138D01*
X113965654Y-116458777D01*
X113940017Y-116490017D01*
X113908777Y-116515654D01*
X113873138Y-116534704D01*
X113834468Y-116546435D01*
X113788112Y-116551000D01*
X113136888Y-116551000D01*
X113090532Y-116546435D01*
X113051862Y-116534704D01*
X113016223Y-116515654D01*
X112984983Y-116490017D01*
X112959346Y-116458777D01*
X112940296Y-116423138D01*
X112928565Y-116384468D01*
X112924000Y-116338112D01*
X112924000Y-115261888D01*
X112928565Y-115215532D01*
X112940296Y-115176862D01*
X112959346Y-115141223D01*
X112984983Y-115109983D01*
X113016223Y-115084346D01*
X113051862Y-115065296D01*
X113090532Y-115053565D01*
X113136888Y-115049000D01*
X113788112Y-115049000D01*
X113834468Y-115053565D01*
G37*
G36*
X115709468Y-115053565D02*
G01*
X115748138Y-115065296D01*
X115783777Y-115084346D01*
X115815017Y-115109983D01*
X115840654Y-115141223D01*
X115859704Y-115176862D01*
X115871435Y-115215532D01*
X115876000Y-115261888D01*
X115876000Y-116338112D01*
X115871435Y-116384468D01*
X115859704Y-116423138D01*
X115840654Y-116458777D01*
X115815017Y-116490017D01*
X115783777Y-116515654D01*
X115748138Y-116534704D01*
X115709468Y-116546435D01*
X115663112Y-116551000D01*
X115011888Y-116551000D01*
X114965532Y-116546435D01*
X114926862Y-116534704D01*
X114891223Y-116515654D01*
X114859983Y-116490017D01*
X114834346Y-116458777D01*
X114815296Y-116423138D01*
X114803565Y-116384468D01*
X114799000Y-116338112D01*
X114799000Y-115261888D01*
X114803565Y-115215532D01*
X114815296Y-115176862D01*
X114834346Y-115141223D01*
X114859983Y-115109983D01*
X114891223Y-115084346D01*
X114926862Y-115065296D01*
X114965532Y-115053565D01*
X115011888Y-115049000D01*
X115663112Y-115049000D01*
X115709468Y-115053565D01*
G37*
G36*
X112201000Y-116101000D02*
G01*
X111199000Y-116101000D01*
X111199000Y-115199000D01*
X112201000Y-115199000D01*
X112201000Y-116101000D01*
G37*
G36*
X159884468Y-114303565D02*
G01*
X159923138Y-114315296D01*
X159958777Y-114334346D01*
X159990017Y-114359983D01*
X160015654Y-114391223D01*
X160034704Y-114426862D01*
X160046435Y-114465532D01*
X160051000Y-114511888D01*
X160051000Y-115163112D01*
X160046435Y-115209468D01*
X160034704Y-115248138D01*
X160015654Y-115283777D01*
X159990017Y-115315017D01*
X159958777Y-115340654D01*
X159923138Y-115359704D01*
X159884468Y-115371435D01*
X159838112Y-115376000D01*
X158761888Y-115376000D01*
X158715532Y-115371435D01*
X158676862Y-115359704D01*
X158641223Y-115340654D01*
X158609983Y-115315017D01*
X158584346Y-115283777D01*
X158565296Y-115248138D01*
X158553565Y-115209468D01*
X158549000Y-115163112D01*
X158549000Y-114511888D01*
X158553565Y-114465532D01*
X158565296Y-114426862D01*
X158584346Y-114391223D01*
X158609983Y-114359983D01*
X158641223Y-114334346D01*
X158676862Y-114315296D01*
X158715532Y-114303565D01*
X158761888Y-114299000D01*
X159838112Y-114299000D01*
X159884468Y-114303565D01*
G37*
G36*
X155591000Y-115031000D02*
G01*
X151989000Y-115031000D01*
X151989000Y-113229000D01*
X155591000Y-113229000D01*
X155591000Y-115031000D01*
G37*
G36*
X136011000Y-115031000D02*
G01*
X132409000Y-115031000D01*
X132409000Y-113229000D01*
X136011000Y-113229000D01*
X136011000Y-115031000D01*
G37*
G36*
X159884468Y-112428565D02*
G01*
X159923138Y-112440296D01*
X159958777Y-112459346D01*
X159990017Y-112484983D01*
X160015654Y-112516223D01*
X160034704Y-112551862D01*
X160046435Y-112590532D01*
X160051000Y-112636888D01*
X160051000Y-113288112D01*
X160046435Y-113334468D01*
X160034704Y-113373138D01*
X160015654Y-113408777D01*
X159990017Y-113440017D01*
X159958777Y-113465654D01*
X159923138Y-113484704D01*
X159884468Y-113496435D01*
X159838112Y-113501000D01*
X158761888Y-113501000D01*
X158715532Y-113496435D01*
X158676862Y-113484704D01*
X158641223Y-113465654D01*
X158609983Y-113440017D01*
X158584346Y-113408777D01*
X158565296Y-113373138D01*
X158553565Y-113334468D01*
X158549000Y-113288112D01*
X158549000Y-112636888D01*
X158553565Y-112590532D01*
X158565296Y-112551862D01*
X158584346Y-112516223D01*
X158609983Y-112484983D01*
X158641223Y-112459346D01*
X158676862Y-112440296D01*
X158715532Y-112428565D01*
X158761888Y-112424000D01*
X159838112Y-112424000D01*
X159884468Y-112428565D01*
G37*
G36*
X136011000Y-112491000D02*
G01*
X132409000Y-112491000D01*
X132409000Y-110689000D01*
X136011000Y-110689000D01*
X136011000Y-112491000D01*
G37*
G36*
X155591000Y-112491000D02*
G01*
X151989000Y-112491000D01*
X151989000Y-110689000D01*
X155591000Y-110689000D01*
X155591000Y-112491000D01*
G37*
G36*
X159534468Y-110053565D02*
G01*
X159573138Y-110065296D01*
X159608777Y-110084346D01*
X159640017Y-110109983D01*
X159665654Y-110141223D01*
X159684704Y-110176862D01*
X159696435Y-110215532D01*
X159701000Y-110261888D01*
X159701000Y-111338112D01*
X159696435Y-111384468D01*
X159684704Y-111423138D01*
X159665654Y-111458777D01*
X159640017Y-111490017D01*
X159608777Y-111515654D01*
X159573138Y-111534704D01*
X159534468Y-111546435D01*
X159488112Y-111551000D01*
X158836888Y-111551000D01*
X158790532Y-111546435D01*
X158751862Y-111534704D01*
X158716223Y-111515654D01*
X158684983Y-111490017D01*
X158659346Y-111458777D01*
X158640296Y-111423138D01*
X158628565Y-111384468D01*
X158624000Y-111338112D01*
X158624000Y-110261888D01*
X158628565Y-110215532D01*
X158640296Y-110176862D01*
X158659346Y-110141223D01*
X158684983Y-110109983D01*
X158716223Y-110084346D01*
X158751862Y-110065296D01*
X158790532Y-110053565D01*
X158836888Y-110049000D01*
X159488112Y-110049000D01*
X159534468Y-110053565D01*
G37*
G36*
X161409468Y-110053565D02*
G01*
X161448138Y-110065296D01*
X161483777Y-110084346D01*
X161515017Y-110109983D01*
X161540654Y-110141223D01*
X161559704Y-110176862D01*
X161571435Y-110215532D01*
X161576000Y-110261888D01*
X161576000Y-111338112D01*
X161571435Y-111384468D01*
X161559704Y-111423138D01*
X161540654Y-111458777D01*
X161515017Y-111490017D01*
X161483777Y-111515654D01*
X161448138Y-111534704D01*
X161409468Y-111546435D01*
X161363112Y-111551000D01*
X160711888Y-111551000D01*
X160665532Y-111546435D01*
X160626862Y-111534704D01*
X160591223Y-111515654D01*
X160559983Y-111490017D01*
X160534346Y-111458777D01*
X160515296Y-111423138D01*
X160503565Y-111384468D01*
X160499000Y-111338112D01*
X160499000Y-110261888D01*
X160503565Y-110215532D01*
X160515296Y-110176862D01*
X160534346Y-110141223D01*
X160559983Y-110109983D01*
X160591223Y-110084346D01*
X160626862Y-110065296D01*
X160665532Y-110053565D01*
X160711888Y-110049000D01*
X161363112Y-110049000D01*
X161409468Y-110053565D01*
G37*
G36*
X126434928Y-110066764D02*
G01*
X126456009Y-110073160D01*
X126475445Y-110083548D01*
X126492476Y-110097524D01*
X126506452Y-110114555D01*
X126516840Y-110133991D01*
X126523236Y-110155072D01*
X126526000Y-110183140D01*
X126526000Y-110646860D01*
X126523236Y-110674928D01*
X126516840Y-110696009D01*
X126506452Y-110715445D01*
X126492476Y-110732476D01*
X126475445Y-110746452D01*
X126456009Y-110756840D01*
X126434928Y-110763236D01*
X126406860Y-110766000D01*
X124493140Y-110766000D01*
X124465072Y-110763236D01*
X124443991Y-110756840D01*
X124424555Y-110746452D01*
X124407524Y-110732476D01*
X124393548Y-110715445D01*
X124383160Y-110696009D01*
X124376764Y-110674928D01*
X124374000Y-110646860D01*
X124374000Y-110183140D01*
X124376764Y-110155072D01*
X124383160Y-110133991D01*
X124393548Y-110114555D01*
X124407524Y-110097524D01*
X124424555Y-110083548D01*
X124443991Y-110073160D01*
X124465072Y-110066764D01*
X124493140Y-110064000D01*
X126406860Y-110064000D01*
X126434928Y-110066764D01*
G37*
G36*
X117134928Y-110066764D02*
G01*
X117156009Y-110073160D01*
X117175445Y-110083548D01*
X117192476Y-110097524D01*
X117206452Y-110114555D01*
X117216840Y-110133991D01*
X117223236Y-110155072D01*
X117226000Y-110183140D01*
X117226000Y-110646860D01*
X117223236Y-110674928D01*
X117216840Y-110696009D01*
X117206452Y-110715445D01*
X117192476Y-110732476D01*
X117175445Y-110746452D01*
X117156009Y-110756840D01*
X117134928Y-110763236D01*
X117106860Y-110766000D01*
X115193140Y-110766000D01*
X115165072Y-110763236D01*
X115143991Y-110756840D01*
X115124555Y-110746452D01*
X115107524Y-110732476D01*
X115093548Y-110715445D01*
X115083160Y-110696009D01*
X115076764Y-110674928D01*
X115074000Y-110646860D01*
X115074000Y-110183140D01*
X115076764Y-110155072D01*
X115083160Y-110133991D01*
X115093548Y-110114555D01*
X115107524Y-110097524D01*
X115124555Y-110083548D01*
X115143991Y-110073160D01*
X115165072Y-110066764D01*
X115193140Y-110064000D01*
X117106860Y-110064000D01*
X117134928Y-110066764D01*
G37*
G36*
X155591000Y-109951000D02*
G01*
X151989000Y-109951000D01*
X151989000Y-108149000D01*
X155591000Y-108149000D01*
X155591000Y-109951000D01*
G37*
G36*
X136011000Y-109951000D02*
G01*
X132409000Y-109951000D01*
X132409000Y-108149000D01*
X136011000Y-108149000D01*
X136011000Y-109951000D01*
G37*
G36*
X126434928Y-108796764D02*
G01*
X126456009Y-108803160D01*
X126475445Y-108813548D01*
X126492476Y-108827524D01*
X126506452Y-108844555D01*
X126516840Y-108863991D01*
X126523236Y-108885072D01*
X126526000Y-108913140D01*
X126526000Y-109376860D01*
X126523236Y-109404928D01*
X126516840Y-109426009D01*
X126506452Y-109445445D01*
X126492476Y-109462476D01*
X126475445Y-109476452D01*
X126456009Y-109486840D01*
X126434928Y-109493236D01*
X126406860Y-109496000D01*
X124493140Y-109496000D01*
X124465072Y-109493236D01*
X124443991Y-109486840D01*
X124424555Y-109476452D01*
X124407524Y-109462476D01*
X124393548Y-109445445D01*
X124383160Y-109426009D01*
X124376764Y-109404928D01*
X124374000Y-109376860D01*
X124374000Y-108913140D01*
X124376764Y-108885072D01*
X124383160Y-108863991D01*
X124393548Y-108844555D01*
X124407524Y-108827524D01*
X124424555Y-108813548D01*
X124443991Y-108803160D01*
X124465072Y-108796764D01*
X124493140Y-108794000D01*
X126406860Y-108794000D01*
X126434928Y-108796764D01*
G37*
G36*
X117134928Y-108796764D02*
G01*
X117156009Y-108803160D01*
X117175445Y-108813548D01*
X117192476Y-108827524D01*
X117206452Y-108844555D01*
X117216840Y-108863991D01*
X117223236Y-108885072D01*
X117226000Y-108913140D01*
X117226000Y-109376860D01*
X117223236Y-109404928D01*
X117216840Y-109426009D01*
X117206452Y-109445445D01*
X117192476Y-109462476D01*
X117175445Y-109476452D01*
X117156009Y-109486840D01*
X117134928Y-109493236D01*
X117106860Y-109496000D01*
X115193140Y-109496000D01*
X115165072Y-109493236D01*
X115143991Y-109486840D01*
X115124555Y-109476452D01*
X115107524Y-109462476D01*
X115093548Y-109445445D01*
X115083160Y-109426009D01*
X115076764Y-109404928D01*
X115074000Y-109376860D01*
X115074000Y-108913140D01*
X115076764Y-108885072D01*
X115083160Y-108863991D01*
X115093548Y-108844555D01*
X115107524Y-108827524D01*
X115124555Y-108813548D01*
X115143991Y-108803160D01*
X115165072Y-108796764D01*
X115193140Y-108794000D01*
X117106860Y-108794000D01*
X117134928Y-108796764D01*
G37*
G36*
X117134928Y-107526764D02*
G01*
X117156009Y-107533160D01*
X117175445Y-107543548D01*
X117192476Y-107557524D01*
X117206452Y-107574555D01*
X117216840Y-107593991D01*
X117223236Y-107615072D01*
X117226000Y-107643140D01*
X117226000Y-108106860D01*
X117223236Y-108134928D01*
X117216840Y-108156009D01*
X117206452Y-108175445D01*
X117192476Y-108192476D01*
X117175445Y-108206452D01*
X117156009Y-108216840D01*
X117134928Y-108223236D01*
X117106860Y-108226000D01*
X115193140Y-108226000D01*
X115165072Y-108223236D01*
X115143991Y-108216840D01*
X115124555Y-108206452D01*
X115107524Y-108192476D01*
X115093548Y-108175445D01*
X115083160Y-108156009D01*
X115076764Y-108134928D01*
X115074000Y-108106860D01*
X115074000Y-107643140D01*
X115076764Y-107615072D01*
X115083160Y-107593991D01*
X115093548Y-107574555D01*
X115107524Y-107557524D01*
X115124555Y-107543548D01*
X115143991Y-107533160D01*
X115165072Y-107526764D01*
X115193140Y-107524000D01*
X117106860Y-107524000D01*
X117134928Y-107526764D01*
G37*
G36*
X126434928Y-107526764D02*
G01*
X126456009Y-107533160D01*
X126475445Y-107543548D01*
X126492476Y-107557524D01*
X126506452Y-107574555D01*
X126516840Y-107593991D01*
X126523236Y-107615072D01*
X126526000Y-107643140D01*
X126526000Y-108106860D01*
X126523236Y-108134928D01*
X126516840Y-108156009D01*
X126506452Y-108175445D01*
X126492476Y-108192476D01*
X126475445Y-108206452D01*
X126456009Y-108216840D01*
X126434928Y-108223236D01*
X126406860Y-108226000D01*
X124493140Y-108226000D01*
X124465072Y-108223236D01*
X124443991Y-108216840D01*
X124424555Y-108206452D01*
X124407524Y-108192476D01*
X124393548Y-108175445D01*
X124383160Y-108156009D01*
X124376764Y-108134928D01*
X124374000Y-108106860D01*
X124374000Y-107643140D01*
X124376764Y-107615072D01*
X124383160Y-107593991D01*
X124393548Y-107574555D01*
X124407524Y-107557524D01*
X124424555Y-107543548D01*
X124443991Y-107533160D01*
X124465072Y-107526764D01*
X124493140Y-107524000D01*
X126406860Y-107524000D01*
X126434928Y-107526764D01*
G37*
G36*
X166834929Y-107181765D02*
G01*
X166856010Y-107188161D01*
X166875446Y-107198549D01*
X166892477Y-107212525D01*
X166906453Y-107229556D01*
X166916841Y-107248992D01*
X166923237Y-107270073D01*
X166926001Y-107298141D01*
X166926001Y-107761861D01*
X166923237Y-107789929D01*
X166916841Y-107811010D01*
X166906453Y-107830446D01*
X166892477Y-107847477D01*
X166875446Y-107861453D01*
X166856010Y-107871841D01*
X166834929Y-107878237D01*
X166806861Y-107881001D01*
X164993141Y-107881001D01*
X164965073Y-107878237D01*
X164943992Y-107871841D01*
X164924556Y-107861453D01*
X164907525Y-107847477D01*
X164893549Y-107830446D01*
X164883161Y-107811010D01*
X164876765Y-107789929D01*
X164874001Y-107761861D01*
X164874001Y-107298141D01*
X164876765Y-107270073D01*
X164883161Y-107248992D01*
X164893549Y-107229556D01*
X164907525Y-107212525D01*
X164924556Y-107198549D01*
X164943992Y-107188161D01*
X164965073Y-107181765D01*
X164993141Y-107179001D01*
X166806861Y-107179001D01*
X166834929Y-107181765D01*
G37*
G36*
X161884929Y-107181765D02*
G01*
X161906010Y-107188161D01*
X161925446Y-107198549D01*
X161942477Y-107212525D01*
X161956453Y-107229556D01*
X161966841Y-107248992D01*
X161973237Y-107270073D01*
X161976001Y-107298141D01*
X161976001Y-107761861D01*
X161973237Y-107789929D01*
X161966841Y-107811010D01*
X161956453Y-107830446D01*
X161942477Y-107847477D01*
X161925446Y-107861453D01*
X161906010Y-107871841D01*
X161884929Y-107878237D01*
X161856861Y-107881001D01*
X160043141Y-107881001D01*
X160015073Y-107878237D01*
X159993992Y-107871841D01*
X159974556Y-107861453D01*
X159957525Y-107847477D01*
X159943549Y-107830446D01*
X159933161Y-107811010D01*
X159926765Y-107789929D01*
X159924001Y-107761861D01*
X159924001Y-107298141D01*
X159926765Y-107270073D01*
X159933161Y-107248992D01*
X159943549Y-107229556D01*
X159957525Y-107212525D01*
X159974556Y-107198549D01*
X159993992Y-107188161D01*
X160015073Y-107181765D01*
X160043141Y-107179001D01*
X161856861Y-107179001D01*
X161884929Y-107181765D01*
G37*
G36*
X136011000Y-107411000D02*
G01*
X132409000Y-107411000D01*
X132409000Y-105609000D01*
X136011000Y-105609000D01*
X136011000Y-107411000D01*
G37*
G36*
X155591000Y-107411000D02*
G01*
X151989000Y-107411000D01*
X151989000Y-105609000D01*
X155591000Y-105609000D01*
X155591000Y-107411000D01*
G37*
G36*
X126434928Y-106256764D02*
G01*
X126456009Y-106263160D01*
X126475445Y-106273548D01*
X126492476Y-106287524D01*
X126506452Y-106304555D01*
X126516840Y-106323991D01*
X126523236Y-106345072D01*
X126526000Y-106373140D01*
X126526000Y-106836860D01*
X126523236Y-106864928D01*
X126516840Y-106886009D01*
X126506452Y-106905445D01*
X126492476Y-106922476D01*
X126475445Y-106936452D01*
X126456009Y-106946840D01*
X126434928Y-106953236D01*
X126406860Y-106956000D01*
X124493140Y-106956000D01*
X124465072Y-106953236D01*
X124443991Y-106946840D01*
X124424555Y-106936452D01*
X124407524Y-106922476D01*
X124393548Y-106905445D01*
X124383160Y-106886009D01*
X124376764Y-106864928D01*
X124374000Y-106836860D01*
X124374000Y-106373140D01*
X124376764Y-106345072D01*
X124383160Y-106323991D01*
X124393548Y-106304555D01*
X124407524Y-106287524D01*
X124424555Y-106273548D01*
X124443991Y-106263160D01*
X124465072Y-106256764D01*
X124493140Y-106254000D01*
X126406860Y-106254000D01*
X126434928Y-106256764D01*
G37*
G36*
X117134928Y-106256764D02*
G01*
X117156009Y-106263160D01*
X117175445Y-106273548D01*
X117192476Y-106287524D01*
X117206452Y-106304555D01*
X117216840Y-106323991D01*
X117223236Y-106345072D01*
X117226000Y-106373140D01*
X117226000Y-106836860D01*
X117223236Y-106864928D01*
X117216840Y-106886009D01*
X117206452Y-106905445D01*
X117192476Y-106922476D01*
X117175445Y-106936452D01*
X117156009Y-106946840D01*
X117134928Y-106953236D01*
X117106860Y-106956000D01*
X115193140Y-106956000D01*
X115165072Y-106953236D01*
X115143991Y-106946840D01*
X115124555Y-106936452D01*
X115107524Y-106922476D01*
X115093548Y-106905445D01*
X115083160Y-106886009D01*
X115076764Y-106864928D01*
X115074000Y-106836860D01*
X115074000Y-106373140D01*
X115076764Y-106345072D01*
X115083160Y-106323991D01*
X115093548Y-106304555D01*
X115107524Y-106287524D01*
X115124555Y-106273548D01*
X115143991Y-106263160D01*
X115165072Y-106256764D01*
X115193140Y-106254000D01*
X117106860Y-106254000D01*
X117134928Y-106256764D01*
G37*
G36*
X166834929Y-105911765D02*
G01*
X166856010Y-105918161D01*
X166875446Y-105928549D01*
X166892477Y-105942525D01*
X166906453Y-105959556D01*
X166916841Y-105978992D01*
X166923237Y-106000073D01*
X166926001Y-106028141D01*
X166926001Y-106491861D01*
X166923237Y-106519929D01*
X166916841Y-106541010D01*
X166906453Y-106560446D01*
X166892477Y-106577477D01*
X166875446Y-106591453D01*
X166856010Y-106601841D01*
X166834929Y-106608237D01*
X166806861Y-106611001D01*
X164993141Y-106611001D01*
X164965073Y-106608237D01*
X164943992Y-106601841D01*
X164924556Y-106591453D01*
X164907525Y-106577477D01*
X164893549Y-106560446D01*
X164883161Y-106541010D01*
X164876765Y-106519929D01*
X164874001Y-106491861D01*
X164874001Y-106028141D01*
X164876765Y-106000073D01*
X164883161Y-105978992D01*
X164893549Y-105959556D01*
X164907525Y-105942525D01*
X164924556Y-105928549D01*
X164943992Y-105918161D01*
X164965073Y-105911765D01*
X164993141Y-105909001D01*
X166806861Y-105909001D01*
X166834929Y-105911765D01*
G37*
G36*
X161884929Y-105911765D02*
G01*
X161906010Y-105918161D01*
X161925446Y-105928549D01*
X161942477Y-105942525D01*
X161956453Y-105959556D01*
X161966841Y-105978992D01*
X161973237Y-106000073D01*
X161976001Y-106028141D01*
X161976001Y-106491861D01*
X161973237Y-106519929D01*
X161966841Y-106541010D01*
X161956453Y-106560446D01*
X161942477Y-106577477D01*
X161925446Y-106591453D01*
X161906010Y-106601841D01*
X161884929Y-106608237D01*
X161856861Y-106611001D01*
X160043141Y-106611001D01*
X160015073Y-106608237D01*
X159993992Y-106601841D01*
X159974556Y-106591453D01*
X159957525Y-106577477D01*
X159943549Y-106560446D01*
X159933161Y-106541010D01*
X159926765Y-106519929D01*
X159924001Y-106491861D01*
X159924001Y-106028141D01*
X159926765Y-106000073D01*
X159933161Y-105978992D01*
X159943549Y-105959556D01*
X159957525Y-105942525D01*
X159974556Y-105928549D01*
X159993992Y-105918161D01*
X160015073Y-105911765D01*
X160043141Y-105909001D01*
X161856861Y-105909001D01*
X161884929Y-105911765D01*
G37*
G36*
X82113512Y-104483927D02*
G01*
X82262812Y-104513624D01*
X82426784Y-104581544D01*
X82574354Y-104680147D01*
X82699853Y-104805646D01*
X82798456Y-104953216D01*
X82866376Y-105117188D01*
X82901000Y-105291259D01*
X82901000Y-105468741D01*
X82866376Y-105642812D01*
X82798456Y-105806784D01*
X82699853Y-105954354D01*
X82574354Y-106079853D01*
X82426784Y-106178456D01*
X82262812Y-106246376D01*
X82113512Y-106276073D01*
X82088742Y-106281000D01*
X81911258Y-106281000D01*
X81886488Y-106276073D01*
X81737188Y-106246376D01*
X81573216Y-106178456D01*
X81425646Y-106079853D01*
X81300147Y-105954354D01*
X81201544Y-105806784D01*
X81133624Y-105642812D01*
X81099000Y-105468741D01*
X81099000Y-105291259D01*
X81133624Y-105117188D01*
X81201544Y-104953216D01*
X81300147Y-104805646D01*
X81425646Y-104680147D01*
X81573216Y-104581544D01*
X81737188Y-104513624D01*
X81886488Y-104483927D01*
X81911258Y-104479000D01*
X82088742Y-104479000D01*
X82113512Y-104483927D01*
G37*
G36*
X79573512Y-104483927D02*
G01*
X79722812Y-104513624D01*
X79886784Y-104581544D01*
X80034354Y-104680147D01*
X80159853Y-104805646D01*
X80258456Y-104953216D01*
X80326376Y-105117188D01*
X80361000Y-105291259D01*
X80361000Y-105468741D01*
X80326376Y-105642812D01*
X80258456Y-105806784D01*
X80159853Y-105954354D01*
X80034354Y-106079853D01*
X79886784Y-106178456D01*
X79722812Y-106246376D01*
X79573512Y-106276073D01*
X79548742Y-106281000D01*
X79371258Y-106281000D01*
X79346488Y-106276073D01*
X79197188Y-106246376D01*
X79033216Y-106178456D01*
X78885646Y-106079853D01*
X78760147Y-105954354D01*
X78661544Y-105806784D01*
X78593624Y-105642812D01*
X78559000Y-105468741D01*
X78559000Y-105291259D01*
X78593624Y-105117188D01*
X78661544Y-104953216D01*
X78760147Y-104805646D01*
X78885646Y-104680147D01*
X79033216Y-104581544D01*
X79197188Y-104513624D01*
X79346488Y-104483927D01*
X79371258Y-104479000D01*
X79548742Y-104479000D01*
X79573512Y-104483927D01*
G37*
G36*
X169384468Y-105103565D02*
G01*
X169423138Y-105115296D01*
X169458777Y-105134346D01*
X169490017Y-105159983D01*
X169515654Y-105191223D01*
X169534704Y-105226862D01*
X169546435Y-105265532D01*
X169551000Y-105311888D01*
X169551000Y-105963112D01*
X169546435Y-106009468D01*
X169534704Y-106048138D01*
X169515654Y-106083777D01*
X169490017Y-106115017D01*
X169458777Y-106140654D01*
X169423138Y-106159704D01*
X169384468Y-106171435D01*
X169338112Y-106176000D01*
X168261888Y-106176000D01*
X168215532Y-106171435D01*
X168176862Y-106159704D01*
X168141223Y-106140654D01*
X168109983Y-106115017D01*
X168084346Y-106083777D01*
X168065296Y-106048138D01*
X168053565Y-106009468D01*
X168049000Y-105963112D01*
X168049000Y-105311888D01*
X168053565Y-105265532D01*
X168065296Y-105226862D01*
X168084346Y-105191223D01*
X168109983Y-105159983D01*
X168141223Y-105134346D01*
X168176862Y-105115296D01*
X168215532Y-105103565D01*
X168261888Y-105099000D01*
X169338112Y-105099000D01*
X169384468Y-105103565D01*
G37*
G36*
X117134928Y-104986764D02*
G01*
X117156009Y-104993160D01*
X117175445Y-105003548D01*
X117192476Y-105017524D01*
X117206452Y-105034555D01*
X117216840Y-105053991D01*
X117223236Y-105075072D01*
X117226000Y-105103140D01*
X117226000Y-105566860D01*
X117223236Y-105594928D01*
X117216840Y-105616009D01*
X117206452Y-105635445D01*
X117192476Y-105652476D01*
X117175445Y-105666452D01*
X117156009Y-105676840D01*
X117134928Y-105683236D01*
X117106860Y-105686000D01*
X115193140Y-105686000D01*
X115165072Y-105683236D01*
X115143991Y-105676840D01*
X115124555Y-105666452D01*
X115107524Y-105652476D01*
X115093548Y-105635445D01*
X115083160Y-105616009D01*
X115076764Y-105594928D01*
X115074000Y-105566860D01*
X115074000Y-105103140D01*
X115076764Y-105075072D01*
X115083160Y-105053991D01*
X115093548Y-105034555D01*
X115107524Y-105017524D01*
X115124555Y-105003548D01*
X115143991Y-104993160D01*
X115165072Y-104986764D01*
X115193140Y-104984000D01*
X117106860Y-104984000D01*
X117134928Y-104986764D01*
G37*
G36*
X126434928Y-104986764D02*
G01*
X126456009Y-104993160D01*
X126475445Y-105003548D01*
X126492476Y-105017524D01*
X126506452Y-105034555D01*
X126516840Y-105053991D01*
X126523236Y-105075072D01*
X126526000Y-105103140D01*
X126526000Y-105566860D01*
X126523236Y-105594928D01*
X126516840Y-105616009D01*
X126506452Y-105635445D01*
X126492476Y-105652476D01*
X126475445Y-105666452D01*
X126456009Y-105676840D01*
X126434928Y-105683236D01*
X126406860Y-105686000D01*
X124493140Y-105686000D01*
X124465072Y-105683236D01*
X124443991Y-105676840D01*
X124424555Y-105666452D01*
X124407524Y-105652476D01*
X124393548Y-105635445D01*
X124383160Y-105616009D01*
X124376764Y-105594928D01*
X124374000Y-105566860D01*
X124374000Y-105103140D01*
X124376764Y-105075072D01*
X124383160Y-105053991D01*
X124393548Y-105034555D01*
X124407524Y-105017524D01*
X124424555Y-105003548D01*
X124443991Y-104993160D01*
X124465072Y-104986764D01*
X124493140Y-104984000D01*
X126406860Y-104984000D01*
X126434928Y-104986764D01*
G37*
G36*
X161884929Y-104641765D02*
G01*
X161906010Y-104648161D01*
X161925446Y-104658549D01*
X161942477Y-104672525D01*
X161956453Y-104689556D01*
X161966841Y-104708992D01*
X161973237Y-104730073D01*
X161976001Y-104758141D01*
X161976001Y-105221861D01*
X161973237Y-105249929D01*
X161966841Y-105271010D01*
X161956453Y-105290446D01*
X161942477Y-105307477D01*
X161925446Y-105321453D01*
X161906010Y-105331841D01*
X161884929Y-105338237D01*
X161856861Y-105341001D01*
X160043141Y-105341001D01*
X160015073Y-105338237D01*
X159993992Y-105331841D01*
X159974556Y-105321453D01*
X159957525Y-105307477D01*
X159943549Y-105290446D01*
X159933161Y-105271010D01*
X159926765Y-105249929D01*
X159924001Y-105221861D01*
X159924001Y-104758141D01*
X159926765Y-104730073D01*
X159933161Y-104708992D01*
X159943549Y-104689556D01*
X159957525Y-104672525D01*
X159974556Y-104658549D01*
X159993992Y-104648161D01*
X160015073Y-104641765D01*
X160043141Y-104639001D01*
X161856861Y-104639001D01*
X161884929Y-104641765D01*
G37*
G36*
X166834929Y-104641765D02*
G01*
X166856010Y-104648161D01*
X166875446Y-104658549D01*
X166892477Y-104672525D01*
X166906453Y-104689556D01*
X166916841Y-104708992D01*
X166923237Y-104730073D01*
X166926001Y-104758141D01*
X166926001Y-105221861D01*
X166923237Y-105249929D01*
X166916841Y-105271010D01*
X166906453Y-105290446D01*
X166892477Y-105307477D01*
X166875446Y-105321453D01*
X166856010Y-105331841D01*
X166834929Y-105338237D01*
X166806861Y-105341001D01*
X164993141Y-105341001D01*
X164965073Y-105338237D01*
X164943992Y-105331841D01*
X164924556Y-105321453D01*
X164907525Y-105307477D01*
X164893549Y-105290446D01*
X164883161Y-105271010D01*
X164876765Y-105249929D01*
X164874001Y-105221861D01*
X164874001Y-104758141D01*
X164876765Y-104730073D01*
X164883161Y-104708992D01*
X164893549Y-104689556D01*
X164907525Y-104672525D01*
X164924556Y-104658549D01*
X164943992Y-104648161D01*
X164965073Y-104641765D01*
X164993141Y-104639001D01*
X166806861Y-104639001D01*
X166834929Y-104641765D01*
G37*
G36*
X155591000Y-104871000D02*
G01*
X151989000Y-104871000D01*
X151989000Y-103069000D01*
X155591000Y-103069000D01*
X155591000Y-104871000D01*
G37*
G36*
X136011000Y-104871000D02*
G01*
X132409000Y-104871000D01*
X132409000Y-103069000D01*
X136011000Y-103069000D01*
X136011000Y-104871000D01*
G37*
G36*
X126434928Y-103716764D02*
G01*
X126456009Y-103723160D01*
X126475445Y-103733548D01*
X126492476Y-103747524D01*
X126506452Y-103764555D01*
X126516840Y-103783991D01*
X126523236Y-103805072D01*
X126526000Y-103833140D01*
X126526000Y-104296860D01*
X126523236Y-104324928D01*
X126516840Y-104346009D01*
X126506452Y-104365445D01*
X126492476Y-104382476D01*
X126475445Y-104396452D01*
X126456009Y-104406840D01*
X126434928Y-104413236D01*
X126406860Y-104416000D01*
X124493140Y-104416000D01*
X124465072Y-104413236D01*
X124443991Y-104406840D01*
X124424555Y-104396452D01*
X124407524Y-104382476D01*
X124393548Y-104365445D01*
X124383160Y-104346009D01*
X124376764Y-104324928D01*
X124374000Y-104296860D01*
X124374000Y-103833140D01*
X124376764Y-103805072D01*
X124383160Y-103783991D01*
X124393548Y-103764555D01*
X124407524Y-103747524D01*
X124424555Y-103733548D01*
X124443991Y-103723160D01*
X124465072Y-103716764D01*
X124493140Y-103714000D01*
X126406860Y-103714000D01*
X126434928Y-103716764D01*
G37*
G36*
X117134928Y-103716764D02*
G01*
X117156009Y-103723160D01*
X117175445Y-103733548D01*
X117192476Y-103747524D01*
X117206452Y-103764555D01*
X117216840Y-103783991D01*
X117223236Y-103805072D01*
X117226000Y-103833140D01*
X117226000Y-104296860D01*
X117223236Y-104324928D01*
X117216840Y-104346009D01*
X117206452Y-104365445D01*
X117192476Y-104382476D01*
X117175445Y-104396452D01*
X117156009Y-104406840D01*
X117134928Y-104413236D01*
X117106860Y-104416000D01*
X115193140Y-104416000D01*
X115165072Y-104413236D01*
X115143991Y-104406840D01*
X115124555Y-104396452D01*
X115107524Y-104382476D01*
X115093548Y-104365445D01*
X115083160Y-104346009D01*
X115076764Y-104324928D01*
X115074000Y-104296860D01*
X115074000Y-103833140D01*
X115076764Y-103805072D01*
X115083160Y-103783991D01*
X115093548Y-103764555D01*
X115107524Y-103747524D01*
X115124555Y-103733548D01*
X115143991Y-103723160D01*
X115165072Y-103716764D01*
X115193140Y-103714000D01*
X117106860Y-103714000D01*
X117134928Y-103716764D01*
G37*
G36*
X169384468Y-103228565D02*
G01*
X169423138Y-103240296D01*
X169458777Y-103259346D01*
X169490017Y-103284983D01*
X169515654Y-103316223D01*
X169534704Y-103351862D01*
X169546435Y-103390532D01*
X169551000Y-103436888D01*
X169551000Y-104088112D01*
X169546435Y-104134468D01*
X169534704Y-104173138D01*
X169515654Y-104208777D01*
X169490017Y-104240017D01*
X169458777Y-104265654D01*
X169423138Y-104284704D01*
X169384468Y-104296435D01*
X169338112Y-104301000D01*
X168261888Y-104301000D01*
X168215532Y-104296435D01*
X168176862Y-104284704D01*
X168141223Y-104265654D01*
X168109983Y-104240017D01*
X168084346Y-104208777D01*
X168065296Y-104173138D01*
X168053565Y-104134468D01*
X168049000Y-104088112D01*
X168049000Y-103436888D01*
X168053565Y-103390532D01*
X168065296Y-103351862D01*
X168084346Y-103316223D01*
X168109983Y-103284983D01*
X168141223Y-103259346D01*
X168176862Y-103240296D01*
X168215532Y-103228565D01*
X168261888Y-103224000D01*
X169338112Y-103224000D01*
X169384468Y-103228565D01*
G37*
G36*
X166834929Y-103371765D02*
G01*
X166856010Y-103378161D01*
X166875446Y-103388549D01*
X166892477Y-103402525D01*
X166906453Y-103419556D01*
X166916841Y-103438992D01*
X166923237Y-103460073D01*
X166926001Y-103488141D01*
X166926001Y-103951861D01*
X166923237Y-103979929D01*
X166916841Y-104001010D01*
X166906453Y-104020446D01*
X166892477Y-104037477D01*
X166875446Y-104051453D01*
X166856010Y-104061841D01*
X166834929Y-104068237D01*
X166806861Y-104071001D01*
X164993141Y-104071001D01*
X164965073Y-104068237D01*
X164943992Y-104061841D01*
X164924556Y-104051453D01*
X164907525Y-104037477D01*
X164893549Y-104020446D01*
X164883161Y-104001010D01*
X164876765Y-103979929D01*
X164874001Y-103951861D01*
X164874001Y-103488141D01*
X164876765Y-103460073D01*
X164883161Y-103438992D01*
X164893549Y-103419556D01*
X164907525Y-103402525D01*
X164924556Y-103388549D01*
X164943992Y-103378161D01*
X164965073Y-103371765D01*
X164993141Y-103369001D01*
X166806861Y-103369001D01*
X166834929Y-103371765D01*
G37*
G36*
X161884929Y-103371765D02*
G01*
X161906010Y-103378161D01*
X161925446Y-103388549D01*
X161942477Y-103402525D01*
X161956453Y-103419556D01*
X161966841Y-103438992D01*
X161973237Y-103460073D01*
X161976001Y-103488141D01*
X161976001Y-103951861D01*
X161973237Y-103979929D01*
X161966841Y-104001010D01*
X161956453Y-104020446D01*
X161942477Y-104037477D01*
X161925446Y-104051453D01*
X161906010Y-104061841D01*
X161884929Y-104068237D01*
X161856861Y-104071001D01*
X160043141Y-104071001D01*
X160015073Y-104068237D01*
X159993992Y-104061841D01*
X159974556Y-104051453D01*
X159957525Y-104037477D01*
X159943549Y-104020446D01*
X159933161Y-104001010D01*
X159926765Y-103979929D01*
X159924001Y-103951861D01*
X159924001Y-103488141D01*
X159926765Y-103460073D01*
X159933161Y-103438992D01*
X159943549Y-103419556D01*
X159957525Y-103402525D01*
X159974556Y-103388549D01*
X159993992Y-103378161D01*
X160015073Y-103371765D01*
X160043141Y-103369001D01*
X161856861Y-103369001D01*
X161884929Y-103371765D01*
G37*
G36*
X82113512Y-101943927D02*
G01*
X82262812Y-101973624D01*
X82426784Y-102041544D01*
X82574354Y-102140147D01*
X82699853Y-102265646D01*
X82798456Y-102413216D01*
X82866376Y-102577188D01*
X82901000Y-102751259D01*
X82901000Y-102928741D01*
X82866376Y-103102812D01*
X82798456Y-103266784D01*
X82699853Y-103414354D01*
X82574354Y-103539853D01*
X82426784Y-103638456D01*
X82262812Y-103706376D01*
X82113512Y-103736073D01*
X82088742Y-103741000D01*
X81911258Y-103741000D01*
X81886488Y-103736073D01*
X81737188Y-103706376D01*
X81573216Y-103638456D01*
X81425646Y-103539853D01*
X81300147Y-103414354D01*
X81201544Y-103266784D01*
X81133624Y-103102812D01*
X81099000Y-102928741D01*
X81099000Y-102751259D01*
X81133624Y-102577188D01*
X81201544Y-102413216D01*
X81300147Y-102265646D01*
X81425646Y-102140147D01*
X81573216Y-102041544D01*
X81737188Y-101973624D01*
X81886488Y-101943927D01*
X81911258Y-101939000D01*
X82088742Y-101939000D01*
X82113512Y-101943927D01*
G37*
G36*
X79573512Y-101943927D02*
G01*
X79722812Y-101973624D01*
X79886784Y-102041544D01*
X80034354Y-102140147D01*
X80159853Y-102265646D01*
X80258456Y-102413216D01*
X80326376Y-102577188D01*
X80361000Y-102751259D01*
X80361000Y-102928741D01*
X80326376Y-103102812D01*
X80258456Y-103266784D01*
X80159853Y-103414354D01*
X80034354Y-103539853D01*
X79886784Y-103638456D01*
X79722812Y-103706376D01*
X79573512Y-103736073D01*
X79548742Y-103741000D01*
X79371258Y-103741000D01*
X79346488Y-103736073D01*
X79197188Y-103706376D01*
X79033216Y-103638456D01*
X78885646Y-103539853D01*
X78760147Y-103414354D01*
X78661544Y-103266784D01*
X78593624Y-103102812D01*
X78559000Y-102928741D01*
X78559000Y-102751259D01*
X78593624Y-102577188D01*
X78661544Y-102413216D01*
X78760147Y-102265646D01*
X78885646Y-102140147D01*
X79033216Y-102041544D01*
X79197188Y-101973624D01*
X79346488Y-101943927D01*
X79371258Y-101939000D01*
X79548742Y-101939000D01*
X79573512Y-101943927D01*
G37*
G36*
X117134928Y-102446764D02*
G01*
X117156009Y-102453160D01*
X117175445Y-102463548D01*
X117192476Y-102477524D01*
X117206452Y-102494555D01*
X117216840Y-102513991D01*
X117223236Y-102535072D01*
X117226000Y-102563140D01*
X117226000Y-103026860D01*
X117223236Y-103054928D01*
X117216840Y-103076009D01*
X117206452Y-103095445D01*
X117192476Y-103112476D01*
X117175445Y-103126452D01*
X117156009Y-103136840D01*
X117134928Y-103143236D01*
X117106860Y-103146000D01*
X115193140Y-103146000D01*
X115165072Y-103143236D01*
X115143991Y-103136840D01*
X115124555Y-103126452D01*
X115107524Y-103112476D01*
X115093548Y-103095445D01*
X115083160Y-103076009D01*
X115076764Y-103054928D01*
X115074000Y-103026860D01*
X115074000Y-102563140D01*
X115076764Y-102535072D01*
X115083160Y-102513991D01*
X115093548Y-102494555D01*
X115107524Y-102477524D01*
X115124555Y-102463548D01*
X115143991Y-102453160D01*
X115165072Y-102446764D01*
X115193140Y-102444000D01*
X117106860Y-102444000D01*
X117134928Y-102446764D01*
G37*
G36*
X126434928Y-102446764D02*
G01*
X126456009Y-102453160D01*
X126475445Y-102463548D01*
X126492476Y-102477524D01*
X126506452Y-102494555D01*
X126516840Y-102513991D01*
X126523236Y-102535072D01*
X126526000Y-102563140D01*
X126526000Y-103026860D01*
X126523236Y-103054928D01*
X126516840Y-103076009D01*
X126506452Y-103095445D01*
X126492476Y-103112476D01*
X126475445Y-103126452D01*
X126456009Y-103136840D01*
X126434928Y-103143236D01*
X126406860Y-103146000D01*
X124493140Y-103146000D01*
X124465072Y-103143236D01*
X124443991Y-103136840D01*
X124424555Y-103126452D01*
X124407524Y-103112476D01*
X124393548Y-103095445D01*
X124383160Y-103076009D01*
X124376764Y-103054928D01*
X124374000Y-103026860D01*
X124374000Y-102563140D01*
X124376764Y-102535072D01*
X124383160Y-102513991D01*
X124393548Y-102494555D01*
X124407524Y-102477524D01*
X124424555Y-102463548D01*
X124443991Y-102453160D01*
X124465072Y-102446764D01*
X124493140Y-102444000D01*
X126406860Y-102444000D01*
X126434928Y-102446764D01*
G37*
G36*
X136011000Y-102331000D02*
G01*
X132409000Y-102331000D01*
X132409000Y-100529000D01*
X136011000Y-100529000D01*
X136011000Y-102331000D01*
G37*
G36*
X155591000Y-102331000D02*
G01*
X151989000Y-102331000D01*
X151989000Y-100529000D01*
X155591000Y-100529000D01*
X155591000Y-102331000D01*
G37*
G36*
X126434928Y-101176764D02*
G01*
X126456009Y-101183160D01*
X126475445Y-101193548D01*
X126492476Y-101207524D01*
X126506452Y-101224555D01*
X126516840Y-101243991D01*
X126523236Y-101265072D01*
X126526000Y-101293140D01*
X126526000Y-101756860D01*
X126523236Y-101784928D01*
X126516840Y-101806009D01*
X126506452Y-101825445D01*
X126492476Y-101842476D01*
X126475445Y-101856452D01*
X126456009Y-101866840D01*
X126434928Y-101873236D01*
X126406860Y-101876000D01*
X124493140Y-101876000D01*
X124465072Y-101873236D01*
X124443991Y-101866840D01*
X124424555Y-101856452D01*
X124407524Y-101842476D01*
X124393548Y-101825445D01*
X124383160Y-101806009D01*
X124376764Y-101784928D01*
X124374000Y-101756860D01*
X124374000Y-101293140D01*
X124376764Y-101265072D01*
X124383160Y-101243991D01*
X124393548Y-101224555D01*
X124407524Y-101207524D01*
X124424555Y-101193548D01*
X124443991Y-101183160D01*
X124465072Y-101176764D01*
X124493140Y-101174000D01*
X126406860Y-101174000D01*
X126434928Y-101176764D01*
G37*
G36*
X117134928Y-101176764D02*
G01*
X117156009Y-101183160D01*
X117175445Y-101193548D01*
X117192476Y-101207524D01*
X117206452Y-101224555D01*
X117216840Y-101243991D01*
X117223236Y-101265072D01*
X117226000Y-101293140D01*
X117226000Y-101756860D01*
X117223236Y-101784928D01*
X117216840Y-101806009D01*
X117206452Y-101825445D01*
X117192476Y-101842476D01*
X117175445Y-101856452D01*
X117156009Y-101866840D01*
X117134928Y-101873236D01*
X117106860Y-101876000D01*
X115193140Y-101876000D01*
X115165072Y-101873236D01*
X115143991Y-101866840D01*
X115124555Y-101856452D01*
X115107524Y-101842476D01*
X115093548Y-101825445D01*
X115083160Y-101806009D01*
X115076764Y-101784928D01*
X115074000Y-101756860D01*
X115074000Y-101293140D01*
X115076764Y-101265072D01*
X115083160Y-101243991D01*
X115093548Y-101224555D01*
X115107524Y-101207524D01*
X115124555Y-101193548D01*
X115143991Y-101183160D01*
X115165072Y-101176764D01*
X115193140Y-101174000D01*
X117106860Y-101174000D01*
X117134928Y-101176764D01*
G37*
G36*
X79573512Y-99403927D02*
G01*
X79722812Y-99433624D01*
X79886784Y-99501544D01*
X80034354Y-99600147D01*
X80159853Y-99725646D01*
X80258456Y-99873216D01*
X80326376Y-100037188D01*
X80361000Y-100211259D01*
X80361000Y-100388741D01*
X80326376Y-100562812D01*
X80258456Y-100726784D01*
X80159853Y-100874354D01*
X80034354Y-100999853D01*
X79886784Y-101098456D01*
X79722812Y-101166376D01*
X79573512Y-101196073D01*
X79548742Y-101201000D01*
X79371258Y-101201000D01*
X79346488Y-101196073D01*
X79197188Y-101166376D01*
X79033216Y-101098456D01*
X78885646Y-100999853D01*
X78760147Y-100874354D01*
X78661544Y-100726784D01*
X78593624Y-100562812D01*
X78559000Y-100388741D01*
X78559000Y-100211259D01*
X78593624Y-100037188D01*
X78661544Y-99873216D01*
X78760147Y-99725646D01*
X78885646Y-99600147D01*
X79033216Y-99501544D01*
X79197188Y-99433624D01*
X79346488Y-99403927D01*
X79371258Y-99399000D01*
X79548742Y-99399000D01*
X79573512Y-99403927D01*
G37*
G36*
X82113512Y-99403927D02*
G01*
X82262812Y-99433624D01*
X82426784Y-99501544D01*
X82574354Y-99600147D01*
X82699853Y-99725646D01*
X82798456Y-99873216D01*
X82866376Y-100037188D01*
X82901000Y-100211259D01*
X82901000Y-100388741D01*
X82866376Y-100562812D01*
X82798456Y-100726784D01*
X82699853Y-100874354D01*
X82574354Y-100999853D01*
X82426784Y-101098456D01*
X82262812Y-101166376D01*
X82113512Y-101196073D01*
X82088742Y-101201000D01*
X81911258Y-101201000D01*
X81886488Y-101196073D01*
X81737188Y-101166376D01*
X81573216Y-101098456D01*
X81425646Y-100999853D01*
X81300147Y-100874354D01*
X81201544Y-100726784D01*
X81133624Y-100562812D01*
X81099000Y-100388741D01*
X81099000Y-100211259D01*
X81133624Y-100037188D01*
X81201544Y-99873216D01*
X81300147Y-99725646D01*
X81425646Y-99600147D01*
X81573216Y-99501544D01*
X81737188Y-99433624D01*
X81886488Y-99403927D01*
X81911258Y-99399000D01*
X82088742Y-99399000D01*
X82113512Y-99403927D01*
G37*
G36*
X170433512Y-99003927D02*
G01*
X170582812Y-99033624D01*
X170746784Y-99101544D01*
X170894354Y-99200147D01*
X171019853Y-99325646D01*
X171118456Y-99473216D01*
X171186376Y-99637188D01*
X171221000Y-99811259D01*
X171221000Y-99988741D01*
X171186376Y-100162812D01*
X171118456Y-100326784D01*
X171019853Y-100474354D01*
X170894354Y-100599853D01*
X170746784Y-100698456D01*
X170582812Y-100766376D01*
X170433512Y-100796073D01*
X170408742Y-100801000D01*
X170231258Y-100801000D01*
X170206488Y-100796073D01*
X170057188Y-100766376D01*
X169893216Y-100698456D01*
X169745646Y-100599853D01*
X169620147Y-100474354D01*
X169521544Y-100326784D01*
X169453624Y-100162812D01*
X169419000Y-99988741D01*
X169419000Y-99811259D01*
X169453624Y-99637188D01*
X169521544Y-99473216D01*
X169620147Y-99325646D01*
X169745646Y-99200147D01*
X169893216Y-99101544D01*
X170057188Y-99033624D01*
X170206488Y-99003927D01*
X170231258Y-98999000D01*
X170408742Y-98999000D01*
X170433512Y-99003927D01*
G37*
G36*
X167893512Y-99003927D02*
G01*
X168042812Y-99033624D01*
X168206784Y-99101544D01*
X168354354Y-99200147D01*
X168479853Y-99325646D01*
X168578456Y-99473216D01*
X168646376Y-99637188D01*
X168681000Y-99811259D01*
X168681000Y-99988741D01*
X168646376Y-100162812D01*
X168578456Y-100326784D01*
X168479853Y-100474354D01*
X168354354Y-100599853D01*
X168206784Y-100698456D01*
X168042812Y-100766376D01*
X167893512Y-100796073D01*
X167868742Y-100801000D01*
X167691258Y-100801000D01*
X167666488Y-100796073D01*
X167517188Y-100766376D01*
X167353216Y-100698456D01*
X167205646Y-100599853D01*
X167080147Y-100474354D01*
X166981544Y-100326784D01*
X166913624Y-100162812D01*
X166879000Y-99988741D01*
X166879000Y-99811259D01*
X166913624Y-99637188D01*
X166981544Y-99473216D01*
X167080147Y-99325646D01*
X167205646Y-99200147D01*
X167353216Y-99101544D01*
X167517188Y-99033624D01*
X167666488Y-99003927D01*
X167691258Y-98999000D01*
X167868742Y-98999000D01*
X167893512Y-99003927D01*
G37*
G36*
X176301000Y-100801000D02*
G01*
X174499000Y-100801000D01*
X174499000Y-98999000D01*
X176301000Y-98999000D01*
X176301000Y-100801000D01*
G37*
G36*
X172973512Y-99003927D02*
G01*
X173122812Y-99033624D01*
X173286784Y-99101544D01*
X173434354Y-99200147D01*
X173559853Y-99325646D01*
X173658456Y-99473216D01*
X173726376Y-99637188D01*
X173761000Y-99811259D01*
X173761000Y-99988741D01*
X173726376Y-100162812D01*
X173658456Y-100326784D01*
X173559853Y-100474354D01*
X173434354Y-100599853D01*
X173286784Y-100698456D01*
X173122812Y-100766376D01*
X172973512Y-100796073D01*
X172948742Y-100801000D01*
X172771258Y-100801000D01*
X172746488Y-100796073D01*
X172597188Y-100766376D01*
X172433216Y-100698456D01*
X172285646Y-100599853D01*
X172160147Y-100474354D01*
X172061544Y-100326784D01*
X171993624Y-100162812D01*
X171959000Y-99988741D01*
X171959000Y-99811259D01*
X171993624Y-99637188D01*
X172061544Y-99473216D01*
X172160147Y-99325646D01*
X172285646Y-99200147D01*
X172433216Y-99101544D01*
X172597188Y-99033624D01*
X172746488Y-99003927D01*
X172771258Y-98999000D01*
X172948742Y-98999000D01*
X172973512Y-99003927D01*
G37*
G36*
X117134928Y-99906764D02*
G01*
X117156009Y-99913160D01*
X117175445Y-99923548D01*
X117192476Y-99937524D01*
X117206452Y-99954555D01*
X117216840Y-99973991D01*
X117223236Y-99995072D01*
X117226000Y-100023140D01*
X117226000Y-100486860D01*
X117223236Y-100514928D01*
X117216840Y-100536009D01*
X117206452Y-100555445D01*
X117192476Y-100572476D01*
X117175445Y-100586452D01*
X117156009Y-100596840D01*
X117134928Y-100603236D01*
X117106860Y-100606000D01*
X115193140Y-100606000D01*
X115165072Y-100603236D01*
X115143991Y-100596840D01*
X115124555Y-100586452D01*
X115107524Y-100572476D01*
X115093548Y-100555445D01*
X115083160Y-100536009D01*
X115076764Y-100514928D01*
X115074000Y-100486860D01*
X115074000Y-100023140D01*
X115076764Y-99995072D01*
X115083160Y-99973991D01*
X115093548Y-99954555D01*
X115107524Y-99937524D01*
X115124555Y-99923548D01*
X115143991Y-99913160D01*
X115165072Y-99906764D01*
X115193140Y-99904000D01*
X117106860Y-99904000D01*
X117134928Y-99906764D01*
G37*
G36*
X126434928Y-99906764D02*
G01*
X126456009Y-99913160D01*
X126475445Y-99923548D01*
X126492476Y-99937524D01*
X126506452Y-99954555D01*
X126516840Y-99973991D01*
X126523236Y-99995072D01*
X126526000Y-100023140D01*
X126526000Y-100486860D01*
X126523236Y-100514928D01*
X126516840Y-100536009D01*
X126506452Y-100555445D01*
X126492476Y-100572476D01*
X126475445Y-100586452D01*
X126456009Y-100596840D01*
X126434928Y-100603236D01*
X126406860Y-100606000D01*
X124493140Y-100606000D01*
X124465072Y-100603236D01*
X124443991Y-100596840D01*
X124424555Y-100586452D01*
X124407524Y-100572476D01*
X124393548Y-100555445D01*
X124383160Y-100536009D01*
X124376764Y-100514928D01*
X124374000Y-100486860D01*
X124374000Y-100023140D01*
X124376764Y-99995072D01*
X124383160Y-99973991D01*
X124393548Y-99954555D01*
X124407524Y-99937524D01*
X124424555Y-99923548D01*
X124443991Y-99913160D01*
X124465072Y-99906764D01*
X124493140Y-99904000D01*
X126406860Y-99904000D01*
X126434928Y-99906764D01*
G37*
G36*
X155591000Y-99791000D02*
G01*
X151989000Y-99791000D01*
X151989000Y-97989000D01*
X155591000Y-97989000D01*
X155591000Y-99791000D01*
G37*
G36*
X136011000Y-99791000D02*
G01*
X132409000Y-99791000D01*
X132409000Y-97989000D01*
X136011000Y-97989000D01*
X136011000Y-99791000D01*
G37*
G36*
X126434928Y-98636764D02*
G01*
X126456009Y-98643160D01*
X126475445Y-98653548D01*
X126492476Y-98667524D01*
X126506452Y-98684555D01*
X126516840Y-98703991D01*
X126523236Y-98725072D01*
X126526000Y-98753140D01*
X126526000Y-99216860D01*
X126523236Y-99244928D01*
X126516840Y-99266009D01*
X126506452Y-99285445D01*
X126492476Y-99302476D01*
X126475445Y-99316452D01*
X126456009Y-99326840D01*
X126434928Y-99333236D01*
X126406860Y-99336000D01*
X124493140Y-99336000D01*
X124465072Y-99333236D01*
X124443991Y-99326840D01*
X124424555Y-99316452D01*
X124407524Y-99302476D01*
X124393548Y-99285445D01*
X124383160Y-99266009D01*
X124376764Y-99244928D01*
X124374000Y-99216860D01*
X124374000Y-98753140D01*
X124376764Y-98725072D01*
X124383160Y-98703991D01*
X124393548Y-98684555D01*
X124407524Y-98667524D01*
X124424555Y-98653548D01*
X124443991Y-98643160D01*
X124465072Y-98636764D01*
X124493140Y-98634000D01*
X126406860Y-98634000D01*
X126434928Y-98636764D01*
G37*
G36*
X117134928Y-98636764D02*
G01*
X117156009Y-98643160D01*
X117175445Y-98653548D01*
X117192476Y-98667524D01*
X117206452Y-98684555D01*
X117216840Y-98703991D01*
X117223236Y-98725072D01*
X117226000Y-98753140D01*
X117226000Y-99216860D01*
X117223236Y-99244928D01*
X117216840Y-99266009D01*
X117206452Y-99285445D01*
X117192476Y-99302476D01*
X117175445Y-99316452D01*
X117156009Y-99326840D01*
X117134928Y-99333236D01*
X117106860Y-99336000D01*
X115193140Y-99336000D01*
X115165072Y-99333236D01*
X115143991Y-99326840D01*
X115124555Y-99316452D01*
X115107524Y-99302476D01*
X115093548Y-99285445D01*
X115083160Y-99266009D01*
X115076764Y-99244928D01*
X115074000Y-99216860D01*
X115074000Y-98753140D01*
X115076764Y-98725072D01*
X115083160Y-98703991D01*
X115093548Y-98684555D01*
X115107524Y-98667524D01*
X115124555Y-98653548D01*
X115143991Y-98643160D01*
X115165072Y-98636764D01*
X115193140Y-98634000D01*
X117106860Y-98634000D01*
X117134928Y-98636764D01*
G37*
G36*
X79573512Y-96863927D02*
G01*
X79722812Y-96893624D01*
X79886784Y-96961544D01*
X80034354Y-97060147D01*
X80159853Y-97185646D01*
X80258456Y-97333216D01*
X80326376Y-97497188D01*
X80361000Y-97671259D01*
X80361000Y-97848741D01*
X80326376Y-98022812D01*
X80258456Y-98186784D01*
X80159853Y-98334354D01*
X80034354Y-98459853D01*
X79886784Y-98558456D01*
X79722812Y-98626376D01*
X79573512Y-98656073D01*
X79548742Y-98661000D01*
X79371258Y-98661000D01*
X79346488Y-98656073D01*
X79197188Y-98626376D01*
X79033216Y-98558456D01*
X78885646Y-98459853D01*
X78760147Y-98334354D01*
X78661544Y-98186784D01*
X78593624Y-98022812D01*
X78559000Y-97848741D01*
X78559000Y-97671259D01*
X78593624Y-97497188D01*
X78661544Y-97333216D01*
X78760147Y-97185646D01*
X78885646Y-97060147D01*
X79033216Y-96961544D01*
X79197188Y-96893624D01*
X79346488Y-96863927D01*
X79371258Y-96859000D01*
X79548742Y-96859000D01*
X79573512Y-96863927D01*
G37*
G36*
X82113512Y-96863927D02*
G01*
X82262812Y-96893624D01*
X82426784Y-96961544D01*
X82574354Y-97060147D01*
X82699853Y-97185646D01*
X82798456Y-97333216D01*
X82866376Y-97497188D01*
X82901000Y-97671259D01*
X82901000Y-97848741D01*
X82866376Y-98022812D01*
X82798456Y-98186784D01*
X82699853Y-98334354D01*
X82574354Y-98459853D01*
X82426784Y-98558456D01*
X82262812Y-98626376D01*
X82113512Y-98656073D01*
X82088742Y-98661000D01*
X81911258Y-98661000D01*
X81886488Y-98656073D01*
X81737188Y-98626376D01*
X81573216Y-98558456D01*
X81425646Y-98459853D01*
X81300147Y-98334354D01*
X81201544Y-98186784D01*
X81133624Y-98022812D01*
X81099000Y-97848741D01*
X81099000Y-97671259D01*
X81133624Y-97497188D01*
X81201544Y-97333216D01*
X81300147Y-97185646D01*
X81425646Y-97060147D01*
X81573216Y-96961544D01*
X81737188Y-96893624D01*
X81886488Y-96863927D01*
X81911258Y-96859000D01*
X82088742Y-96859000D01*
X82113512Y-96863927D01*
G37*
G36*
X136011000Y-97251000D02*
G01*
X132409000Y-97251000D01*
X132409000Y-95449000D01*
X136011000Y-95449000D01*
X136011000Y-97251000D01*
G37*
G36*
X155591000Y-97251000D02*
G01*
X151989000Y-97251000D01*
X151989000Y-95449000D01*
X155591000Y-95449000D01*
X155591000Y-97251000D01*
G37*
G36*
X128309468Y-95253565D02*
G01*
X128348138Y-95265296D01*
X128383777Y-95284346D01*
X128415017Y-95309983D01*
X128440654Y-95341223D01*
X128459704Y-95376862D01*
X128471435Y-95415532D01*
X128476000Y-95461888D01*
X128476000Y-96538112D01*
X128471435Y-96584468D01*
X128459704Y-96623138D01*
X128440654Y-96658777D01*
X128415017Y-96690017D01*
X128383777Y-96715654D01*
X128348138Y-96734704D01*
X128309468Y-96746435D01*
X128263112Y-96751000D01*
X127611888Y-96751000D01*
X127565532Y-96746435D01*
X127526862Y-96734704D01*
X127491223Y-96715654D01*
X127459983Y-96690017D01*
X127434346Y-96658777D01*
X127415296Y-96623138D01*
X127403565Y-96584468D01*
X127399000Y-96538112D01*
X127399000Y-95461888D01*
X127403565Y-95415532D01*
X127415296Y-95376862D01*
X127434346Y-95341223D01*
X127459983Y-95309983D01*
X127491223Y-95284346D01*
X127526862Y-95265296D01*
X127565532Y-95253565D01*
X127611888Y-95249000D01*
X128263112Y-95249000D01*
X128309468Y-95253565D01*
G37*
G36*
X126434468Y-95253565D02*
G01*
X126473138Y-95265296D01*
X126508777Y-95284346D01*
X126540017Y-95309983D01*
X126565654Y-95341223D01*
X126584704Y-95376862D01*
X126596435Y-95415532D01*
X126601000Y-95461888D01*
X126601000Y-96538112D01*
X126596435Y-96584468D01*
X126584704Y-96623138D01*
X126565654Y-96658777D01*
X126540017Y-96690017D01*
X126508777Y-96715654D01*
X126473138Y-96734704D01*
X126434468Y-96746435D01*
X126388112Y-96751000D01*
X125736888Y-96751000D01*
X125690532Y-96746435D01*
X125651862Y-96734704D01*
X125616223Y-96715654D01*
X125584983Y-96690017D01*
X125559346Y-96658777D01*
X125540296Y-96623138D01*
X125528565Y-96584468D01*
X125524000Y-96538112D01*
X125524000Y-95461888D01*
X125528565Y-95415532D01*
X125540296Y-95376862D01*
X125559346Y-95341223D01*
X125584983Y-95309983D01*
X125616223Y-95284346D01*
X125651862Y-95265296D01*
X125690532Y-95253565D01*
X125736888Y-95249000D01*
X126388112Y-95249000D01*
X126434468Y-95253565D01*
G37*
G36*
X82113512Y-94323927D02*
G01*
X82262812Y-94353624D01*
X82426784Y-94421544D01*
X82574354Y-94520147D01*
X82699853Y-94645646D01*
X82798456Y-94793216D01*
X82866376Y-94957188D01*
X82901000Y-95131259D01*
X82901000Y-95308741D01*
X82866376Y-95482812D01*
X82798456Y-95646784D01*
X82699853Y-95794354D01*
X82574354Y-95919853D01*
X82426784Y-96018456D01*
X82262812Y-96086376D01*
X82113512Y-96116073D01*
X82088742Y-96121000D01*
X81911258Y-96121000D01*
X81886488Y-96116073D01*
X81737188Y-96086376D01*
X81573216Y-96018456D01*
X81425646Y-95919853D01*
X81300147Y-95794354D01*
X81201544Y-95646784D01*
X81133624Y-95482812D01*
X81099000Y-95308741D01*
X81099000Y-95131259D01*
X81133624Y-94957188D01*
X81201544Y-94793216D01*
X81300147Y-94645646D01*
X81425646Y-94520147D01*
X81573216Y-94421544D01*
X81737188Y-94353624D01*
X81886488Y-94323927D01*
X81911258Y-94319000D01*
X82088742Y-94319000D01*
X82113512Y-94323927D01*
G37*
G36*
X79573512Y-94323927D02*
G01*
X79722812Y-94353624D01*
X79886784Y-94421544D01*
X80034354Y-94520147D01*
X80159853Y-94645646D01*
X80258456Y-94793216D01*
X80326376Y-94957188D01*
X80361000Y-95131259D01*
X80361000Y-95308741D01*
X80326376Y-95482812D01*
X80258456Y-95646784D01*
X80159853Y-95794354D01*
X80034354Y-95919853D01*
X79886784Y-96018456D01*
X79722812Y-96086376D01*
X79573512Y-96116073D01*
X79548742Y-96121000D01*
X79371258Y-96121000D01*
X79346488Y-96116073D01*
X79197188Y-96086376D01*
X79033216Y-96018456D01*
X78885646Y-95919853D01*
X78760147Y-95794354D01*
X78661544Y-95646784D01*
X78593624Y-95482812D01*
X78559000Y-95308741D01*
X78559000Y-95131259D01*
X78593624Y-94957188D01*
X78661544Y-94793216D01*
X78760147Y-94645646D01*
X78885646Y-94520147D01*
X79033216Y-94421544D01*
X79197188Y-94353624D01*
X79346488Y-94323927D01*
X79371258Y-94319000D01*
X79548742Y-94319000D01*
X79573512Y-94323927D01*
G37*
G36*
X155591000Y-94711000D02*
G01*
X151989000Y-94711000D01*
X151989000Y-92909000D01*
X155591000Y-92909000D01*
X155591000Y-94711000D01*
G37*
G36*
X136011000Y-94711000D02*
G01*
X132409000Y-94711000D01*
X132409000Y-92909000D01*
X136011000Y-92909000D01*
X136011000Y-94711000D01*
G37*
G36*
X115784468Y-92603565D02*
G01*
X115823138Y-92615296D01*
X115858777Y-92634346D01*
X115890017Y-92659983D01*
X115915654Y-92691223D01*
X115934704Y-92726862D01*
X115946435Y-92765532D01*
X115951000Y-92811888D01*
X115951000Y-93463112D01*
X115946435Y-93509468D01*
X115934704Y-93548138D01*
X115915654Y-93583777D01*
X115890017Y-93615017D01*
X115858777Y-93640654D01*
X115823138Y-93659704D01*
X115784468Y-93671435D01*
X115738112Y-93676000D01*
X114661888Y-93676000D01*
X114615532Y-93671435D01*
X114576862Y-93659704D01*
X114541223Y-93640654D01*
X114509983Y-93615017D01*
X114484346Y-93583777D01*
X114465296Y-93548138D01*
X114453565Y-93509468D01*
X114449000Y-93463112D01*
X114449000Y-92811888D01*
X114453565Y-92765532D01*
X114465296Y-92726862D01*
X114484346Y-92691223D01*
X114509983Y-92659983D01*
X114541223Y-92634346D01*
X114576862Y-92615296D01*
X114615532Y-92603565D01*
X114661888Y-92599000D01*
X115738112Y-92599000D01*
X115784468Y-92603565D01*
G37*
G36*
X82113512Y-91783927D02*
G01*
X82262812Y-91813624D01*
X82426784Y-91881544D01*
X82574354Y-91980147D01*
X82699853Y-92105646D01*
X82798456Y-92253216D01*
X82866376Y-92417188D01*
X82901000Y-92591259D01*
X82901000Y-92768741D01*
X82866376Y-92942812D01*
X82798456Y-93106784D01*
X82699853Y-93254354D01*
X82574354Y-93379853D01*
X82426784Y-93478456D01*
X82262812Y-93546376D01*
X82113512Y-93576073D01*
X82088742Y-93581000D01*
X81911258Y-93581000D01*
X81886488Y-93576073D01*
X81737188Y-93546376D01*
X81573216Y-93478456D01*
X81425646Y-93379853D01*
X81300147Y-93254354D01*
X81201544Y-93106784D01*
X81133624Y-92942812D01*
X81099000Y-92768741D01*
X81099000Y-92591259D01*
X81133624Y-92417188D01*
X81201544Y-92253216D01*
X81300147Y-92105646D01*
X81425646Y-91980147D01*
X81573216Y-91881544D01*
X81737188Y-91813624D01*
X81886488Y-91783927D01*
X81911258Y-91779000D01*
X82088742Y-91779000D01*
X82113512Y-91783927D01*
G37*
G36*
X79573512Y-91783927D02*
G01*
X79722812Y-91813624D01*
X79886784Y-91881544D01*
X80034354Y-91980147D01*
X80159853Y-92105646D01*
X80258456Y-92253216D01*
X80326376Y-92417188D01*
X80361000Y-92591259D01*
X80361000Y-92768741D01*
X80326376Y-92942812D01*
X80258456Y-93106784D01*
X80159853Y-93254354D01*
X80034354Y-93379853D01*
X79886784Y-93478456D01*
X79722812Y-93546376D01*
X79573512Y-93576073D01*
X79548742Y-93581000D01*
X79371258Y-93581000D01*
X79346488Y-93576073D01*
X79197188Y-93546376D01*
X79033216Y-93478456D01*
X78885646Y-93379853D01*
X78760147Y-93254354D01*
X78661544Y-93106784D01*
X78593624Y-92942812D01*
X78559000Y-92768741D01*
X78559000Y-92591259D01*
X78593624Y-92417188D01*
X78661544Y-92253216D01*
X78760147Y-92105646D01*
X78885646Y-91980147D01*
X79033216Y-91881544D01*
X79197188Y-91813624D01*
X79346488Y-91783927D01*
X79371258Y-91779000D01*
X79548742Y-91779000D01*
X79573512Y-91783927D01*
G37*
G36*
X155591000Y-92171000D02*
G01*
X151989000Y-92171000D01*
X151989000Y-90369000D01*
X155591000Y-90369000D01*
X155591000Y-92171000D01*
G37*
G36*
X136011000Y-92171000D02*
G01*
X132409000Y-92171000D01*
X132409000Y-90369000D01*
X136011000Y-90369000D01*
X136011000Y-92171000D01*
G37*
G36*
X115784468Y-90728565D02*
G01*
X115823138Y-90740296D01*
X115858777Y-90759346D01*
X115890017Y-90784983D01*
X115915654Y-90816223D01*
X115934704Y-90851862D01*
X115946435Y-90890532D01*
X115951000Y-90936888D01*
X115951000Y-91588112D01*
X115946435Y-91634468D01*
X115934704Y-91673138D01*
X115915654Y-91708777D01*
X115890017Y-91740017D01*
X115858777Y-91765654D01*
X115823138Y-91784704D01*
X115784468Y-91796435D01*
X115738112Y-91801000D01*
X114661888Y-91801000D01*
X114615532Y-91796435D01*
X114576862Y-91784704D01*
X114541223Y-91765654D01*
X114509983Y-91740017D01*
X114484346Y-91708777D01*
X114465296Y-91673138D01*
X114453565Y-91634468D01*
X114449000Y-91588112D01*
X114449000Y-90936888D01*
X114453565Y-90890532D01*
X114465296Y-90851862D01*
X114484346Y-90816223D01*
X114509983Y-90784983D01*
X114541223Y-90759346D01*
X114576862Y-90740296D01*
X114615532Y-90728565D01*
X114661888Y-90724000D01*
X115738112Y-90724000D01*
X115784468Y-90728565D01*
G37*
G36*
X82113512Y-89243927D02*
G01*
X82262812Y-89273624D01*
X82426784Y-89341544D01*
X82574354Y-89440147D01*
X82699853Y-89565646D01*
X82798456Y-89713216D01*
X82866376Y-89877188D01*
X82901000Y-90051259D01*
X82901000Y-90228741D01*
X82866376Y-90402812D01*
X82798456Y-90566784D01*
X82699853Y-90714354D01*
X82574354Y-90839853D01*
X82426784Y-90938456D01*
X82262812Y-91006376D01*
X82113512Y-91036073D01*
X82088742Y-91041000D01*
X81911258Y-91041000D01*
X81886488Y-91036073D01*
X81737188Y-91006376D01*
X81573216Y-90938456D01*
X81425646Y-90839853D01*
X81300147Y-90714354D01*
X81201544Y-90566784D01*
X81133624Y-90402812D01*
X81099000Y-90228741D01*
X81099000Y-90051259D01*
X81133624Y-89877188D01*
X81201544Y-89713216D01*
X81300147Y-89565646D01*
X81425646Y-89440147D01*
X81573216Y-89341544D01*
X81737188Y-89273624D01*
X81886488Y-89243927D01*
X81911258Y-89239000D01*
X82088742Y-89239000D01*
X82113512Y-89243927D01*
G37*
G36*
X79573512Y-89243927D02*
G01*
X79722812Y-89273624D01*
X79886784Y-89341544D01*
X80034354Y-89440147D01*
X80159853Y-89565646D01*
X80258456Y-89713216D01*
X80326376Y-89877188D01*
X80361000Y-90051259D01*
X80361000Y-90228741D01*
X80326376Y-90402812D01*
X80258456Y-90566784D01*
X80159853Y-90714354D01*
X80034354Y-90839853D01*
X79886784Y-90938456D01*
X79722812Y-91006376D01*
X79573512Y-91036073D01*
X79548742Y-91041000D01*
X79371258Y-91041000D01*
X79346488Y-91036073D01*
X79197188Y-91006376D01*
X79033216Y-90938456D01*
X78885646Y-90839853D01*
X78760147Y-90714354D01*
X78661544Y-90566784D01*
X78593624Y-90402812D01*
X78559000Y-90228741D01*
X78559000Y-90051259D01*
X78593624Y-89877188D01*
X78661544Y-89713216D01*
X78760147Y-89565646D01*
X78885646Y-89440147D01*
X79033216Y-89341544D01*
X79197188Y-89273624D01*
X79346488Y-89243927D01*
X79371258Y-89239000D01*
X79548742Y-89239000D01*
X79573512Y-89243927D01*
G37*
G36*
X155591000Y-89631000D02*
G01*
X151989000Y-89631000D01*
X151989000Y-87829000D01*
X155591000Y-87829000D01*
X155591000Y-89631000D01*
G37*
G36*
X136011000Y-89631000D02*
G01*
X132409000Y-89631000D01*
X132409000Y-87829000D01*
X136011000Y-87829000D01*
X136011000Y-89631000D01*
G37*
G36*
X82901000Y-88581000D02*
G01*
X81099000Y-88581000D01*
X81099000Y-86779000D01*
X82901000Y-86779000D01*
X82901000Y-88581000D01*
G37*
G36*
X125034928Y-87866764D02*
G01*
X125056009Y-87873160D01*
X125075445Y-87883548D01*
X125092476Y-87897524D01*
X125106452Y-87914555D01*
X125116840Y-87933991D01*
X125123236Y-87955072D01*
X125126000Y-87983140D01*
X125126000Y-88446860D01*
X125123236Y-88474928D01*
X125116840Y-88496009D01*
X125106452Y-88515445D01*
X125092476Y-88532476D01*
X125075445Y-88546452D01*
X125056009Y-88556840D01*
X125034928Y-88563236D01*
X125006860Y-88566000D01*
X123093140Y-88566000D01*
X123065072Y-88563236D01*
X123043991Y-88556840D01*
X123024555Y-88546452D01*
X123007524Y-88532476D01*
X122993548Y-88515445D01*
X122983160Y-88496009D01*
X122976764Y-88474928D01*
X122974000Y-88446860D01*
X122974000Y-87983140D01*
X122976764Y-87955072D01*
X122983160Y-87933991D01*
X122993548Y-87914555D01*
X123007524Y-87897524D01*
X123024555Y-87883548D01*
X123043991Y-87873160D01*
X123065072Y-87866764D01*
X123093140Y-87864000D01*
X125006860Y-87864000D01*
X125034928Y-87866764D01*
G37*
G36*
X115734928Y-87866764D02*
G01*
X115756009Y-87873160D01*
X115775445Y-87883548D01*
X115792476Y-87897524D01*
X115806452Y-87914555D01*
X115816840Y-87933991D01*
X115823236Y-87955072D01*
X115826000Y-87983140D01*
X115826000Y-88446860D01*
X115823236Y-88474928D01*
X115816840Y-88496009D01*
X115806452Y-88515445D01*
X115792476Y-88532476D01*
X115775445Y-88546452D01*
X115756009Y-88556840D01*
X115734928Y-88563236D01*
X115706860Y-88566000D01*
X113793140Y-88566000D01*
X113765072Y-88563236D01*
X113743991Y-88556840D01*
X113724555Y-88546452D01*
X113707524Y-88532476D01*
X113693548Y-88515445D01*
X113683160Y-88496009D01*
X113676764Y-88474928D01*
X113674000Y-88446860D01*
X113674000Y-87983140D01*
X113676764Y-87955072D01*
X113683160Y-87933991D01*
X113693548Y-87914555D01*
X113707524Y-87897524D01*
X113724555Y-87883548D01*
X113743991Y-87873160D01*
X113765072Y-87866764D01*
X113793140Y-87864000D01*
X115706860Y-87864000D01*
X115734928Y-87866764D01*
G37*
G36*
X79565528Y-86702339D02*
G01*
X79722812Y-86733624D01*
X79886784Y-86801544D01*
X80034354Y-86900147D01*
X80159853Y-87025646D01*
X80258456Y-87173216D01*
X80326376Y-87337188D01*
X80361000Y-87511259D01*
X80361000Y-87688741D01*
X80326376Y-87862812D01*
X80258456Y-88026784D01*
X80159853Y-88174354D01*
X80034354Y-88299853D01*
X79886784Y-88398456D01*
X79722812Y-88466376D01*
X79573833Y-88496009D01*
X79548742Y-88501000D01*
X79371258Y-88501000D01*
X79346167Y-88496009D01*
X79197188Y-88466376D01*
X79033216Y-88398456D01*
X78885646Y-88299853D01*
X78760147Y-88174354D01*
X78661544Y-88026784D01*
X78593624Y-87862812D01*
X78559000Y-87688741D01*
X78559000Y-87511259D01*
X78593624Y-87337188D01*
X78661544Y-87173216D01*
X78760147Y-87025646D01*
X78885646Y-86900147D01*
X79033216Y-86801544D01*
X79197188Y-86733624D01*
X79354472Y-86702339D01*
X79371258Y-86699000D01*
X79548742Y-86699000D01*
X79565528Y-86702339D01*
G37*
G36*
X125034928Y-86596764D02*
G01*
X125056009Y-86603160D01*
X125075445Y-86613548D01*
X125092476Y-86627524D01*
X125106452Y-86644555D01*
X125116840Y-86663991D01*
X125123236Y-86685072D01*
X125126000Y-86713140D01*
X125126000Y-87176860D01*
X125123236Y-87204928D01*
X125116840Y-87226009D01*
X125106452Y-87245445D01*
X125092476Y-87262476D01*
X125075445Y-87276452D01*
X125056009Y-87286840D01*
X125034928Y-87293236D01*
X125006860Y-87296000D01*
X123093140Y-87296000D01*
X123065072Y-87293236D01*
X123043991Y-87286840D01*
X123024555Y-87276452D01*
X123007524Y-87262476D01*
X122993548Y-87245445D01*
X122983160Y-87226009D01*
X122976764Y-87204928D01*
X122974000Y-87176860D01*
X122974000Y-86713140D01*
X122976764Y-86685072D01*
X122983160Y-86663991D01*
X122993548Y-86644555D01*
X123007524Y-86627524D01*
X123024555Y-86613548D01*
X123043991Y-86603160D01*
X123065072Y-86596764D01*
X123093140Y-86594000D01*
X125006860Y-86594000D01*
X125034928Y-86596764D01*
G37*
G36*
X115734928Y-86596764D02*
G01*
X115756009Y-86603160D01*
X115775445Y-86613548D01*
X115792476Y-86627524D01*
X115806452Y-86644555D01*
X115816840Y-86663991D01*
X115823236Y-86685072D01*
X115826000Y-86713140D01*
X115826000Y-87176860D01*
X115823236Y-87204928D01*
X115816840Y-87226009D01*
X115806452Y-87245445D01*
X115792476Y-87262476D01*
X115775445Y-87276452D01*
X115756009Y-87286840D01*
X115734928Y-87293236D01*
X115706860Y-87296000D01*
X113793140Y-87296000D01*
X113765072Y-87293236D01*
X113743991Y-87286840D01*
X113724555Y-87276452D01*
X113707524Y-87262476D01*
X113693548Y-87245445D01*
X113683160Y-87226009D01*
X113676764Y-87204928D01*
X113674000Y-87176860D01*
X113674000Y-86713140D01*
X113676764Y-86685072D01*
X113683160Y-86663991D01*
X113693548Y-86644555D01*
X113707524Y-86627524D01*
X113724555Y-86613548D01*
X113743991Y-86603160D01*
X113765072Y-86596764D01*
X113793140Y-86594000D01*
X115706860Y-86594000D01*
X115734928Y-86596764D01*
G37*
G36*
X136011000Y-87091000D02*
G01*
X132409000Y-87091000D01*
X132409000Y-85289000D01*
X136011000Y-85289000D01*
X136011000Y-87091000D01*
G37*
G36*
X155591000Y-87091000D02*
G01*
X151989000Y-87091000D01*
X151989000Y-85289000D01*
X155591000Y-85289000D01*
X155591000Y-87091000D01*
G37*
G36*
X125034928Y-85326764D02*
G01*
X125056009Y-85333160D01*
X125075445Y-85343548D01*
X125092476Y-85357524D01*
X125106452Y-85374555D01*
X125116840Y-85393991D01*
X125123236Y-85415072D01*
X125126000Y-85443140D01*
X125126000Y-85906860D01*
X125123236Y-85934928D01*
X125116840Y-85956009D01*
X125106452Y-85975445D01*
X125092476Y-85992476D01*
X125075445Y-86006452D01*
X125056009Y-86016840D01*
X125034928Y-86023236D01*
X125006860Y-86026000D01*
X123093140Y-86026000D01*
X123065072Y-86023236D01*
X123043991Y-86016840D01*
X123024555Y-86006452D01*
X123007524Y-85992476D01*
X122993548Y-85975445D01*
X122983160Y-85956009D01*
X122976764Y-85934928D01*
X122974000Y-85906860D01*
X122974000Y-85443140D01*
X122976764Y-85415072D01*
X122983160Y-85393991D01*
X122993548Y-85374555D01*
X123007524Y-85357524D01*
X123024555Y-85343548D01*
X123043991Y-85333160D01*
X123065072Y-85326764D01*
X123093140Y-85324000D01*
X125006860Y-85324000D01*
X125034928Y-85326764D01*
G37*
G36*
X115734928Y-85326764D02*
G01*
X115756009Y-85333160D01*
X115775445Y-85343548D01*
X115792476Y-85357524D01*
X115806452Y-85374555D01*
X115816840Y-85393991D01*
X115823236Y-85415072D01*
X115826000Y-85443140D01*
X115826000Y-85906860D01*
X115823236Y-85934928D01*
X115816840Y-85956009D01*
X115806452Y-85975445D01*
X115792476Y-85992476D01*
X115775445Y-86006452D01*
X115756009Y-86016840D01*
X115734928Y-86023236D01*
X115706860Y-86026000D01*
X113793140Y-86026000D01*
X113765072Y-86023236D01*
X113743991Y-86016840D01*
X113724555Y-86006452D01*
X113707524Y-85992476D01*
X113693548Y-85975445D01*
X113683160Y-85956009D01*
X113676764Y-85934928D01*
X113674000Y-85906860D01*
X113674000Y-85443140D01*
X113676764Y-85415072D01*
X113683160Y-85393991D01*
X113693548Y-85374555D01*
X113707524Y-85357524D01*
X113724555Y-85343548D01*
X113743991Y-85333160D01*
X113765072Y-85326764D01*
X113793140Y-85324000D01*
X115706860Y-85324000D01*
X115734928Y-85326764D01*
G37*
G36*
X125034928Y-84056764D02*
G01*
X125056009Y-84063160D01*
X125075445Y-84073548D01*
X125092476Y-84087524D01*
X125106452Y-84104555D01*
X125116840Y-84123991D01*
X125123236Y-84145072D01*
X125126000Y-84173140D01*
X125126000Y-84636860D01*
X125123236Y-84664928D01*
X125116840Y-84686009D01*
X125106452Y-84705445D01*
X125092476Y-84722476D01*
X125075445Y-84736452D01*
X125056009Y-84746840D01*
X125034928Y-84753236D01*
X125006860Y-84756000D01*
X123093140Y-84756000D01*
X123065072Y-84753236D01*
X123043991Y-84746840D01*
X123024555Y-84736452D01*
X123007524Y-84722476D01*
X122993548Y-84705445D01*
X122983160Y-84686009D01*
X122976764Y-84664928D01*
X122974000Y-84636860D01*
X122974000Y-84173140D01*
X122976764Y-84145072D01*
X122983160Y-84123991D01*
X122993548Y-84104555D01*
X123007524Y-84087524D01*
X123024555Y-84073548D01*
X123043991Y-84063160D01*
X123065072Y-84056764D01*
X123093140Y-84054000D01*
X125006860Y-84054000D01*
X125034928Y-84056764D01*
G37*
G36*
X115734928Y-84056764D02*
G01*
X115756009Y-84063160D01*
X115775445Y-84073548D01*
X115792476Y-84087524D01*
X115806452Y-84104555D01*
X115816840Y-84123991D01*
X115823236Y-84145072D01*
X115826000Y-84173140D01*
X115826000Y-84636860D01*
X115823236Y-84664928D01*
X115816840Y-84686009D01*
X115806452Y-84705445D01*
X115792476Y-84722476D01*
X115775445Y-84736452D01*
X115756009Y-84746840D01*
X115734928Y-84753236D01*
X115706860Y-84756000D01*
X113793140Y-84756000D01*
X113765072Y-84753236D01*
X113743991Y-84746840D01*
X113724555Y-84736452D01*
X113707524Y-84722476D01*
X113693548Y-84705445D01*
X113683160Y-84686009D01*
X113676764Y-84664928D01*
X113674000Y-84636860D01*
X113674000Y-84173140D01*
X113676764Y-84145072D01*
X113683160Y-84123991D01*
X113693548Y-84104555D01*
X113707524Y-84087524D01*
X113724555Y-84073548D01*
X113743991Y-84063160D01*
X113765072Y-84056764D01*
X113793140Y-84054000D01*
X115706860Y-84054000D01*
X115734928Y-84056764D01*
G37*
G36*
X136011000Y-84551000D02*
G01*
X132409000Y-84551000D01*
X132409000Y-82749000D01*
X136011000Y-82749000D01*
X136011000Y-84551000D01*
G37*
G36*
X155591000Y-84551000D02*
G01*
X151989000Y-84551000D01*
X151989000Y-82749000D01*
X155591000Y-82749000D01*
X155591000Y-84551000D01*
G37*
G36*
X125034928Y-82786764D02*
G01*
X125056009Y-82793160D01*
X125075445Y-82803548D01*
X125092476Y-82817524D01*
X125106452Y-82834555D01*
X125116840Y-82853991D01*
X125123236Y-82875072D01*
X125126000Y-82903140D01*
X125126000Y-83366860D01*
X125123236Y-83394928D01*
X125116840Y-83416009D01*
X125106452Y-83435445D01*
X125092476Y-83452476D01*
X125075445Y-83466452D01*
X125056009Y-83476840D01*
X125034928Y-83483236D01*
X125006860Y-83486000D01*
X123093140Y-83486000D01*
X123065072Y-83483236D01*
X123043991Y-83476840D01*
X123024555Y-83466452D01*
X123007524Y-83452476D01*
X122993548Y-83435445D01*
X122983160Y-83416009D01*
X122976764Y-83394928D01*
X122974000Y-83366860D01*
X122974000Y-82903140D01*
X122976764Y-82875072D01*
X122983160Y-82853991D01*
X122993548Y-82834555D01*
X123007524Y-82817524D01*
X123024555Y-82803548D01*
X123043991Y-82793160D01*
X123065072Y-82786764D01*
X123093140Y-82784000D01*
X125006860Y-82784000D01*
X125034928Y-82786764D01*
G37*
G36*
X115734928Y-82786764D02*
G01*
X115756009Y-82793160D01*
X115775445Y-82803548D01*
X115792476Y-82817524D01*
X115806452Y-82834555D01*
X115816840Y-82853991D01*
X115823236Y-82875072D01*
X115826000Y-82903140D01*
X115826000Y-83366860D01*
X115823236Y-83394928D01*
X115816840Y-83416009D01*
X115806452Y-83435445D01*
X115792476Y-83452476D01*
X115775445Y-83466452D01*
X115756009Y-83476840D01*
X115734928Y-83483236D01*
X115706860Y-83486000D01*
X113793140Y-83486000D01*
X113765072Y-83483236D01*
X113743991Y-83476840D01*
X113724555Y-83466452D01*
X113707524Y-83452476D01*
X113693548Y-83435445D01*
X113683160Y-83416009D01*
X113676764Y-83394928D01*
X113674000Y-83366860D01*
X113674000Y-82903140D01*
X113676764Y-82875072D01*
X113683160Y-82853991D01*
X113693548Y-82834555D01*
X113707524Y-82817524D01*
X113724555Y-82803548D01*
X113743991Y-82793160D01*
X113765072Y-82786764D01*
X113793140Y-82784000D01*
X115706860Y-82784000D01*
X115734928Y-82786764D01*
G37*
G36*
X146658642Y-80959781D02*
G01*
X146804414Y-81020162D01*
X146804416Y-81020163D01*
X146935608Y-81107822D01*
X147047178Y-81219392D01*
X147134837Y-81350584D01*
X147134838Y-81350586D01*
X147195219Y-81496358D01*
X147226000Y-81651107D01*
X147226000Y-81808893D01*
X147195219Y-81963642D01*
X147163383Y-82040500D01*
X147134837Y-82109416D01*
X147047178Y-82240608D01*
X146935608Y-82352178D01*
X146804416Y-82439837D01*
X146804415Y-82439838D01*
X146804414Y-82439838D01*
X146658642Y-82500219D01*
X146503893Y-82531000D01*
X146346107Y-82531000D01*
X146191358Y-82500219D01*
X146045586Y-82439838D01*
X146045585Y-82439838D01*
X146045584Y-82439837D01*
X145914392Y-82352178D01*
X145802822Y-82240608D01*
X145715163Y-82109416D01*
X145686617Y-82040500D01*
X145654781Y-81963642D01*
X145624000Y-81808893D01*
X145624000Y-81651107D01*
X145654781Y-81496358D01*
X145715162Y-81350586D01*
X145715163Y-81350584D01*
X145802822Y-81219392D01*
X145914392Y-81107822D01*
X146045584Y-81020163D01*
X146045586Y-81020162D01*
X146191358Y-80959781D01*
X146346107Y-80929000D01*
X146503893Y-80929000D01*
X146658642Y-80959781D01*
G37*
G36*
X141808642Y-80959781D02*
G01*
X141954414Y-81020162D01*
X141954416Y-81020163D01*
X142085608Y-81107822D01*
X142197178Y-81219392D01*
X142284837Y-81350584D01*
X142284838Y-81350586D01*
X142345219Y-81496358D01*
X142376000Y-81651107D01*
X142376000Y-81808893D01*
X142345219Y-81963642D01*
X142313383Y-82040500D01*
X142284837Y-82109416D01*
X142197178Y-82240608D01*
X142085608Y-82352178D01*
X141954416Y-82439837D01*
X141954415Y-82439838D01*
X141954414Y-82439838D01*
X141808642Y-82500219D01*
X141653893Y-82531000D01*
X141496107Y-82531000D01*
X141341358Y-82500219D01*
X141195586Y-82439838D01*
X141195585Y-82439838D01*
X141195584Y-82439837D01*
X141064392Y-82352178D01*
X140952822Y-82240608D01*
X140865163Y-82109416D01*
X140836617Y-82040500D01*
X140804781Y-81963642D01*
X140774000Y-81808893D01*
X140774000Y-81651107D01*
X140804781Y-81496358D01*
X140865162Y-81350586D01*
X140865163Y-81350584D01*
X140952822Y-81219392D01*
X141064392Y-81107822D01*
X141195584Y-81020163D01*
X141195586Y-81020162D01*
X141341358Y-80959781D01*
X141496107Y-80929000D01*
X141653893Y-80929000D01*
X141808642Y-80959781D01*
G37*
G36*
X115734928Y-81516764D02*
G01*
X115756009Y-81523160D01*
X115775445Y-81533548D01*
X115792476Y-81547524D01*
X115806452Y-81564555D01*
X115816840Y-81583991D01*
X115823236Y-81605072D01*
X115826000Y-81633140D01*
X115826000Y-82096860D01*
X115823236Y-82124928D01*
X115816840Y-82146009D01*
X115806452Y-82165445D01*
X115792476Y-82182476D01*
X115775445Y-82196452D01*
X115756009Y-82206840D01*
X115734928Y-82213236D01*
X115706860Y-82216000D01*
X113793140Y-82216000D01*
X113765072Y-82213236D01*
X113743991Y-82206840D01*
X113724555Y-82196452D01*
X113707524Y-82182476D01*
X113693548Y-82165445D01*
X113683160Y-82146009D01*
X113676764Y-82124928D01*
X113674000Y-82096860D01*
X113674000Y-81633140D01*
X113676764Y-81605072D01*
X113683160Y-81583991D01*
X113693548Y-81564555D01*
X113707524Y-81547524D01*
X113724555Y-81533548D01*
X113743991Y-81523160D01*
X113765072Y-81516764D01*
X113793140Y-81514000D01*
X115706860Y-81514000D01*
X115734928Y-81516764D01*
G37*
G36*
X125034928Y-81516764D02*
G01*
X125056009Y-81523160D01*
X125075445Y-81533548D01*
X125092476Y-81547524D01*
X125106452Y-81564555D01*
X125116840Y-81583991D01*
X125123236Y-81605072D01*
X125126000Y-81633140D01*
X125126000Y-82096860D01*
X125123236Y-82124928D01*
X125116840Y-82146009D01*
X125106452Y-82165445D01*
X125092476Y-82182476D01*
X125075445Y-82196452D01*
X125056009Y-82206840D01*
X125034928Y-82213236D01*
X125006860Y-82216000D01*
X123093140Y-82216000D01*
X123065072Y-82213236D01*
X123043991Y-82206840D01*
X123024555Y-82196452D01*
X123007524Y-82182476D01*
X122993548Y-82165445D01*
X122983160Y-82146009D01*
X122976764Y-82124928D01*
X122974000Y-82096860D01*
X122974000Y-81633140D01*
X122976764Y-81605072D01*
X122983160Y-81583991D01*
X122993548Y-81564555D01*
X123007524Y-81547524D01*
X123024555Y-81533548D01*
X123043991Y-81523160D01*
X123065072Y-81516764D01*
X123093140Y-81514000D01*
X125006860Y-81514000D01*
X125034928Y-81516764D01*
G37*
G36*
X155591000Y-82011000D02*
G01*
X151989000Y-82011000D01*
X151989000Y-80209000D01*
X155591000Y-80209000D01*
X155591000Y-82011000D01*
G37*
G36*
X136011000Y-82011000D02*
G01*
X132409000Y-82011000D01*
X132409000Y-80209000D01*
X136011000Y-80209000D01*
X136011000Y-82011000D01*
G37*
G36*
X160851000Y-81751000D02*
G01*
X159849000Y-81751000D01*
X159849000Y-80449000D01*
X160851000Y-80449000D01*
X160851000Y-81751000D01*
G37*
G36*
X164151000Y-81751000D02*
G01*
X163149000Y-81751000D01*
X163149000Y-80449000D01*
X164151000Y-80449000D01*
X164151000Y-81751000D01*
G37*
G36*
X115734928Y-80246764D02*
G01*
X115756009Y-80253160D01*
X115775445Y-80263548D01*
X115792476Y-80277524D01*
X115806452Y-80294555D01*
X115816840Y-80313991D01*
X115823236Y-80335072D01*
X115826000Y-80363140D01*
X115826000Y-80826860D01*
X115823236Y-80854928D01*
X115816840Y-80876009D01*
X115806452Y-80895445D01*
X115792476Y-80912476D01*
X115775445Y-80926452D01*
X115756009Y-80936840D01*
X115734928Y-80943236D01*
X115706860Y-80946000D01*
X113793140Y-80946000D01*
X113765072Y-80943236D01*
X113743991Y-80936840D01*
X113724555Y-80926452D01*
X113707524Y-80912476D01*
X113693548Y-80895445D01*
X113683160Y-80876009D01*
X113676764Y-80854928D01*
X113674000Y-80826860D01*
X113674000Y-80363140D01*
X113676764Y-80335072D01*
X113683160Y-80313991D01*
X113693548Y-80294555D01*
X113707524Y-80277524D01*
X113724555Y-80263548D01*
X113743991Y-80253160D01*
X113765072Y-80246764D01*
X113793140Y-80244000D01*
X115706860Y-80244000D01*
X115734928Y-80246764D01*
G37*
G36*
X125034928Y-80246764D02*
G01*
X125056009Y-80253160D01*
X125075445Y-80263548D01*
X125092476Y-80277524D01*
X125106452Y-80294555D01*
X125116840Y-80313991D01*
X125123236Y-80335072D01*
X125126000Y-80363140D01*
X125126000Y-80826860D01*
X125123236Y-80854928D01*
X125116840Y-80876009D01*
X125106452Y-80895445D01*
X125092476Y-80912476D01*
X125075445Y-80926452D01*
X125056009Y-80936840D01*
X125034928Y-80943236D01*
X125006860Y-80946000D01*
X123093140Y-80946000D01*
X123065072Y-80943236D01*
X123043991Y-80936840D01*
X123024555Y-80926452D01*
X123007524Y-80912476D01*
X122993548Y-80895445D01*
X122983160Y-80876009D01*
X122976764Y-80854928D01*
X122974000Y-80826860D01*
X122974000Y-80363140D01*
X122976764Y-80335072D01*
X122983160Y-80313991D01*
X122993548Y-80294555D01*
X123007524Y-80277524D01*
X123024555Y-80263548D01*
X123043991Y-80253160D01*
X123065072Y-80246764D01*
X123093140Y-80244000D01*
X125006860Y-80244000D01*
X125034928Y-80246764D01*
G37*
G36*
X115734928Y-78976764D02*
G01*
X115756009Y-78983160D01*
X115775445Y-78993548D01*
X115792476Y-79007524D01*
X115806452Y-79024555D01*
X115816840Y-79043991D01*
X115823236Y-79065072D01*
X115826000Y-79093140D01*
X115826000Y-79556860D01*
X115823236Y-79584928D01*
X115816840Y-79606009D01*
X115806452Y-79625445D01*
X115792476Y-79642476D01*
X115775445Y-79656452D01*
X115756009Y-79666840D01*
X115734928Y-79673236D01*
X115706860Y-79676000D01*
X113793140Y-79676000D01*
X113765072Y-79673236D01*
X113743991Y-79666840D01*
X113724555Y-79656452D01*
X113707524Y-79642476D01*
X113693548Y-79625445D01*
X113683160Y-79606009D01*
X113676764Y-79584928D01*
X113674000Y-79556860D01*
X113674000Y-79093140D01*
X113676764Y-79065072D01*
X113683160Y-79043991D01*
X113693548Y-79024555D01*
X113707524Y-79007524D01*
X113724555Y-78993548D01*
X113743991Y-78983160D01*
X113765072Y-78976764D01*
X113793140Y-78974000D01*
X115706860Y-78974000D01*
X115734928Y-78976764D01*
G37*
G36*
X125034928Y-78976764D02*
G01*
X125056009Y-78983160D01*
X125075445Y-78993548D01*
X125092476Y-79007524D01*
X125106452Y-79024555D01*
X125116840Y-79043991D01*
X125123236Y-79065072D01*
X125126000Y-79093140D01*
X125126000Y-79556860D01*
X125123236Y-79584928D01*
X125116840Y-79606009D01*
X125106452Y-79625445D01*
X125092476Y-79642476D01*
X125075445Y-79656452D01*
X125056009Y-79666840D01*
X125034928Y-79673236D01*
X125006860Y-79676000D01*
X123093140Y-79676000D01*
X123065072Y-79673236D01*
X123043991Y-79666840D01*
X123024555Y-79656452D01*
X123007524Y-79642476D01*
X122993548Y-79625445D01*
X122983160Y-79606009D01*
X122976764Y-79584928D01*
X122974000Y-79556860D01*
X122974000Y-79093140D01*
X122976764Y-79065072D01*
X122983160Y-79043991D01*
X122993548Y-79024555D01*
X123007524Y-79007524D01*
X123024555Y-78993548D01*
X123043991Y-78983160D01*
X123065072Y-78976764D01*
X123093140Y-78974000D01*
X125006860Y-78974000D01*
X125034928Y-78976764D01*
G37*
G36*
X141552395Y-77785546D02*
G01*
X141725466Y-77857234D01*
X141758789Y-77879500D01*
X141881227Y-77961310D01*
X142013690Y-78093773D01*
X142066081Y-78172182D01*
X142117766Y-78249534D01*
X142189454Y-78422605D01*
X142226000Y-78606333D01*
X142226000Y-78793667D01*
X142189454Y-78977395D01*
X142117766Y-79150466D01*
X142117765Y-79150467D01*
X142013690Y-79306227D01*
X141881227Y-79438690D01*
X141832871Y-79471000D01*
X141725466Y-79542766D01*
X141552395Y-79614454D01*
X141368667Y-79651000D01*
X141181333Y-79651000D01*
X140997605Y-79614454D01*
X140824534Y-79542766D01*
X140717129Y-79471000D01*
X140668773Y-79438690D01*
X140536310Y-79306227D01*
X140432235Y-79150467D01*
X140432234Y-79150466D01*
X140360546Y-78977395D01*
X140324000Y-78793667D01*
X140324000Y-78606333D01*
X140360546Y-78422605D01*
X140432234Y-78249534D01*
X140483919Y-78172182D01*
X140536310Y-78093773D01*
X140668773Y-77961310D01*
X140791211Y-77879500D01*
X140824534Y-77857234D01*
X140997605Y-77785546D01*
X141181333Y-77749000D01*
X141368667Y-77749000D01*
X141552395Y-77785546D01*
G37*
G36*
X147002395Y-77785546D02*
G01*
X147175466Y-77857234D01*
X147208789Y-77879500D01*
X147331227Y-77961310D01*
X147463690Y-78093773D01*
X147516081Y-78172182D01*
X147567766Y-78249534D01*
X147639454Y-78422605D01*
X147676000Y-78606333D01*
X147676000Y-78793667D01*
X147639454Y-78977395D01*
X147567766Y-79150466D01*
X147567765Y-79150467D01*
X147463690Y-79306227D01*
X147331227Y-79438690D01*
X147282871Y-79471000D01*
X147175466Y-79542766D01*
X147002395Y-79614454D01*
X146818667Y-79651000D01*
X146631333Y-79651000D01*
X146447605Y-79614454D01*
X146274534Y-79542766D01*
X146167129Y-79471000D01*
X146118773Y-79438690D01*
X145986310Y-79306227D01*
X145882235Y-79150467D01*
X145882234Y-79150466D01*
X145810546Y-78977395D01*
X145774000Y-78793667D01*
X145774000Y-78606333D01*
X145810546Y-78422605D01*
X145882234Y-78249534D01*
X145933919Y-78172182D01*
X145986310Y-78093773D01*
X146118773Y-77961310D01*
X146241211Y-77879500D01*
X146274534Y-77857234D01*
X146447605Y-77785546D01*
X146631333Y-77749000D01*
X146818667Y-77749000D01*
X147002395Y-77785546D01*
G37*
G36*
X155591000Y-79471000D02*
G01*
X151989000Y-79471000D01*
X151989000Y-77669000D01*
X155591000Y-77669000D01*
X155591000Y-79471000D01*
G37*
G36*
X136011000Y-79471000D02*
G01*
X132409000Y-79471000D01*
X132409000Y-77669000D01*
X136011000Y-77669000D01*
X136011000Y-79471000D01*
G37*
G36*
X125034928Y-77706764D02*
G01*
X125056009Y-77713160D01*
X125075445Y-77723548D01*
X125092476Y-77737524D01*
X125106452Y-77754555D01*
X125116840Y-77773991D01*
X125123236Y-77795072D01*
X125126000Y-77823140D01*
X125126000Y-78286860D01*
X125123236Y-78314928D01*
X125116840Y-78336009D01*
X125106452Y-78355445D01*
X125092476Y-78372476D01*
X125075445Y-78386452D01*
X125056009Y-78396840D01*
X125034928Y-78403236D01*
X125006860Y-78406000D01*
X123093140Y-78406000D01*
X123065072Y-78403236D01*
X123043991Y-78396840D01*
X123024555Y-78386452D01*
X123007524Y-78372476D01*
X122993548Y-78355445D01*
X122983160Y-78336009D01*
X122976764Y-78314928D01*
X122974000Y-78286860D01*
X122974000Y-77823140D01*
X122976764Y-77795072D01*
X122983160Y-77773991D01*
X122993548Y-77754555D01*
X123007524Y-77737524D01*
X123024555Y-77723548D01*
X123043991Y-77713160D01*
X123065072Y-77706764D01*
X123093140Y-77704000D01*
X125006860Y-77704000D01*
X125034928Y-77706764D01*
G37*
G36*
X115734928Y-77706764D02*
G01*
X115756009Y-77713160D01*
X115775445Y-77723548D01*
X115792476Y-77737524D01*
X115806452Y-77754555D01*
X115816840Y-77773991D01*
X115823236Y-77795072D01*
X115826000Y-77823140D01*
X115826000Y-78286860D01*
X115823236Y-78314928D01*
X115816840Y-78336009D01*
X115806452Y-78355445D01*
X115792476Y-78372476D01*
X115775445Y-78386452D01*
X115756009Y-78396840D01*
X115734928Y-78403236D01*
X115706860Y-78406000D01*
X113793140Y-78406000D01*
X113765072Y-78403236D01*
X113743991Y-78396840D01*
X113724555Y-78386452D01*
X113707524Y-78372476D01*
X113693548Y-78355445D01*
X113683160Y-78336009D01*
X113676764Y-78314928D01*
X113674000Y-78286860D01*
X113674000Y-77823140D01*
X113676764Y-77795072D01*
X113683160Y-77773991D01*
X113693548Y-77754555D01*
X113707524Y-77737524D01*
X113724555Y-77723548D01*
X113743991Y-77713160D01*
X113765072Y-77706764D01*
X113793140Y-77704000D01*
X115706860Y-77704000D01*
X115734928Y-77706764D01*
G37*
G36*
X125034928Y-76436764D02*
G01*
X125056009Y-76443160D01*
X125075445Y-76453548D01*
X125092476Y-76467524D01*
X125106452Y-76484555D01*
X125116840Y-76503991D01*
X125123236Y-76525072D01*
X125126000Y-76553140D01*
X125126000Y-77016860D01*
X125123236Y-77044928D01*
X125116840Y-77066009D01*
X125106452Y-77085445D01*
X125092476Y-77102476D01*
X125075445Y-77116452D01*
X125056009Y-77126840D01*
X125034928Y-77133236D01*
X125006860Y-77136000D01*
X123093140Y-77136000D01*
X123065072Y-77133236D01*
X123043991Y-77126840D01*
X123024555Y-77116452D01*
X123007524Y-77102476D01*
X122993548Y-77085445D01*
X122983160Y-77066009D01*
X122976764Y-77044928D01*
X122974000Y-77016860D01*
X122974000Y-76553140D01*
X122976764Y-76525072D01*
X122983160Y-76503991D01*
X122993548Y-76484555D01*
X123007524Y-76467524D01*
X123024555Y-76453548D01*
X123043991Y-76443160D01*
X123065072Y-76436764D01*
X123093140Y-76434000D01*
X125006860Y-76434000D01*
X125034928Y-76436764D01*
G37*
G36*
X115734928Y-76436764D02*
G01*
X115756009Y-76443160D01*
X115775445Y-76453548D01*
X115792476Y-76467524D01*
X115806452Y-76484555D01*
X115816840Y-76503991D01*
X115823236Y-76525072D01*
X115826000Y-76553140D01*
X115826000Y-77016860D01*
X115823236Y-77044928D01*
X115816840Y-77066009D01*
X115806452Y-77085445D01*
X115792476Y-77102476D01*
X115775445Y-77116452D01*
X115756009Y-77126840D01*
X115734928Y-77133236D01*
X115706860Y-77136000D01*
X113793140Y-77136000D01*
X113765072Y-77133236D01*
X113743991Y-77126840D01*
X113724555Y-77116452D01*
X113707524Y-77102476D01*
X113693548Y-77085445D01*
X113683160Y-77066009D01*
X113676764Y-77044928D01*
X113674000Y-77016860D01*
X113674000Y-76553140D01*
X113676764Y-76525072D01*
X113683160Y-76503991D01*
X113693548Y-76484555D01*
X113707524Y-76467524D01*
X113724555Y-76453548D01*
X113743991Y-76443160D01*
X113765072Y-76436764D01*
X113793140Y-76434000D01*
X115706860Y-76434000D01*
X115734928Y-76436764D01*
G37*
G36*
X163601000Y-76651000D02*
G01*
X161999000Y-76651000D01*
X161999000Y-74549000D01*
X163601000Y-74549000D01*
X163601000Y-76651000D01*
G37*
G36*
X161301000Y-76651000D02*
G01*
X159699000Y-76651000D01*
X159699000Y-74549000D01*
X161301000Y-74549000D01*
X161301000Y-76651000D01*
G37*
G36*
X165901000Y-76651000D02*
G01*
X164299000Y-76651000D01*
X164299000Y-74549000D01*
X165901000Y-74549000D01*
X165901000Y-76651000D01*
G37*
G36*
X149446000Y-72106000D02*
G01*
X148444000Y-72106000D01*
X148444000Y-70004000D01*
X149446000Y-70004000D01*
X149446000Y-72106000D01*
G37*
G36*
X150716000Y-72106000D02*
G01*
X149714000Y-72106000D01*
X149714000Y-70004000D01*
X150716000Y-70004000D01*
X150716000Y-72106000D01*
G37*
G36*
X148176000Y-72106000D02*
G01*
X147174000Y-72106000D01*
X147174000Y-70004000D01*
X148176000Y-70004000D01*
X148176000Y-72106000D01*
G37*
G36*
X146906000Y-72106000D02*
G01*
X145904000Y-72106000D01*
X145904000Y-70004000D01*
X146906000Y-70004000D01*
X146906000Y-72106000D01*
G37*
G36*
X145636000Y-72106000D02*
G01*
X144634000Y-72106000D01*
X144634000Y-70004000D01*
X145636000Y-70004000D01*
X145636000Y-72106000D01*
G37*
G36*
X144366000Y-72106000D02*
G01*
X143364000Y-72106000D01*
X143364000Y-70004000D01*
X144366000Y-70004000D01*
X144366000Y-72106000D01*
G37*
G36*
X143096000Y-72106000D02*
G01*
X142094000Y-72106000D01*
X142094000Y-70004000D01*
X143096000Y-70004000D01*
X143096000Y-72106000D01*
G37*
G36*
X141826000Y-72106000D02*
G01*
X140824000Y-72106000D01*
X140824000Y-70004000D01*
X141826000Y-70004000D01*
X141826000Y-72106000D01*
G37*
G36*
X140556000Y-72106000D02*
G01*
X139554000Y-72106000D01*
X139554000Y-70004000D01*
X140556000Y-70004000D01*
X140556000Y-72106000D01*
G37*
G36*
X139286000Y-72106000D02*
G01*
X138284000Y-72106000D01*
X138284000Y-70004000D01*
X139286000Y-70004000D01*
X139286000Y-72106000D01*
G37*
G36*
X118734468Y-70453565D02*
G01*
X118773138Y-70465296D01*
X118808777Y-70484346D01*
X118840017Y-70509983D01*
X118865654Y-70541223D01*
X118884704Y-70576862D01*
X118896435Y-70615532D01*
X118901000Y-70661888D01*
X118901000Y-71738112D01*
X118896435Y-71784468D01*
X118884704Y-71823138D01*
X118865654Y-71858777D01*
X118840017Y-71890017D01*
X118808777Y-71915654D01*
X118773138Y-71934704D01*
X118734468Y-71946435D01*
X118688112Y-71951000D01*
X118036888Y-71951000D01*
X117990532Y-71946435D01*
X117951862Y-71934704D01*
X117916223Y-71915654D01*
X117884983Y-71890017D01*
X117859346Y-71858777D01*
X117840296Y-71823138D01*
X117828565Y-71784468D01*
X117824000Y-71738112D01*
X117824000Y-70661888D01*
X117828565Y-70615532D01*
X117840296Y-70576862D01*
X117859346Y-70541223D01*
X117884983Y-70509983D01*
X117916223Y-70484346D01*
X117951862Y-70465296D01*
X117990532Y-70453565D01*
X118036888Y-70449000D01*
X118688112Y-70449000D01*
X118734468Y-70453565D01*
G37*
G36*
X120609468Y-70453565D02*
G01*
X120648138Y-70465296D01*
X120683777Y-70484346D01*
X120715017Y-70509983D01*
X120740654Y-70541223D01*
X120759704Y-70576862D01*
X120771435Y-70615532D01*
X120776000Y-70661888D01*
X120776000Y-71738112D01*
X120771435Y-71784468D01*
X120759704Y-71823138D01*
X120740654Y-71858777D01*
X120715017Y-71890017D01*
X120683777Y-71915654D01*
X120648138Y-71934704D01*
X120609468Y-71946435D01*
X120563112Y-71951000D01*
X119911888Y-71951000D01*
X119865532Y-71946435D01*
X119826862Y-71934704D01*
X119791223Y-71915654D01*
X119759983Y-71890017D01*
X119734346Y-71858777D01*
X119715296Y-71823138D01*
X119703565Y-71784468D01*
X119699000Y-71738112D01*
X119699000Y-70661888D01*
X119703565Y-70615532D01*
X119715296Y-70576862D01*
X119734346Y-70541223D01*
X119759983Y-70509983D01*
X119791223Y-70484346D01*
X119826862Y-70465296D01*
X119865532Y-70453565D01*
X119911888Y-70449000D01*
X120563112Y-70449000D01*
X120609468Y-70453565D01*
G37*
G36*
X110684468Y-70803565D02*
G01*
X110723138Y-70815296D01*
X110758777Y-70834346D01*
X110790017Y-70859983D01*
X110815654Y-70891223D01*
X110834704Y-70926862D01*
X110846435Y-70965532D01*
X110851000Y-71011888D01*
X110851000Y-71663112D01*
X110846435Y-71709468D01*
X110834704Y-71748138D01*
X110815654Y-71783777D01*
X110790017Y-71815017D01*
X110758777Y-71840654D01*
X110723138Y-71859704D01*
X110684468Y-71871435D01*
X110638112Y-71876000D01*
X109561888Y-71876000D01*
X109515532Y-71871435D01*
X109476862Y-71859704D01*
X109441223Y-71840654D01*
X109409983Y-71815017D01*
X109384346Y-71783777D01*
X109365296Y-71748138D01*
X109353565Y-71709468D01*
X109349000Y-71663112D01*
X109349000Y-71011888D01*
X109353565Y-70965532D01*
X109365296Y-70926862D01*
X109384346Y-70891223D01*
X109409983Y-70859983D01*
X109441223Y-70834346D01*
X109476862Y-70815296D01*
X109515532Y-70803565D01*
X109561888Y-70799000D01*
X110638112Y-70799000D01*
X110684468Y-70803565D01*
G37*
G36*
X154051000Y-70556000D02*
G01*
X151949000Y-70556000D01*
X151949000Y-69554000D01*
X154051000Y-69554000D01*
X154051000Y-70556000D01*
G37*
G36*
X137051000Y-70556000D02*
G01*
X134949000Y-70556000D01*
X134949000Y-69554000D01*
X137051000Y-69554000D01*
X137051000Y-70556000D01*
G37*
G36*
X125262199Y-68099954D02*
G01*
X125274450Y-68100556D01*
X125292869Y-68100556D01*
X125315149Y-68102750D01*
X125399233Y-68119476D01*
X125420660Y-68125976D01*
X125499858Y-68158780D01*
X125505303Y-68161691D01*
X125505309Y-68161693D01*
X125514169Y-68166429D01*
X125514173Y-68166432D01*
X125519614Y-68169340D01*
X125590899Y-68216971D01*
X125608204Y-68231172D01*
X125668828Y-68291796D01*
X125683029Y-68309101D01*
X125730660Y-68380386D01*
X125733568Y-68385827D01*
X125733571Y-68385831D01*
X125738307Y-68394691D01*
X125738309Y-68394697D01*
X125741220Y-68400142D01*
X125774024Y-68479340D01*
X125780524Y-68500767D01*
X125797250Y-68584851D01*
X125799444Y-68607131D01*
X125799444Y-68625550D01*
X125800046Y-68637801D01*
X125801852Y-68656139D01*
X125801852Y-69143860D01*
X125800263Y-69159999D01*
X125797348Y-69169608D01*
X125792610Y-69178472D01*
X125786237Y-69186237D01*
X125773794Y-69196448D01*
X125763425Y-69203378D01*
X125746098Y-69220705D01*
X125732485Y-69241080D01*
X125723109Y-69263720D01*
X125718329Y-69287753D01*
X125718330Y-69312257D01*
X125723112Y-69336290D01*
X125732490Y-69358929D01*
X125746105Y-69379302D01*
X125763432Y-69396629D01*
X125773802Y-69403558D01*
X125786237Y-69413763D01*
X125792610Y-69421528D01*
X125797348Y-69430392D01*
X125800263Y-69440001D01*
X125801852Y-69456140D01*
X125801852Y-69943862D01*
X125800046Y-69962199D01*
X125799444Y-69974450D01*
X125799444Y-69992869D01*
X125797250Y-70015149D01*
X125780524Y-70099233D01*
X125774024Y-70120660D01*
X125741220Y-70199858D01*
X125738309Y-70205303D01*
X125738307Y-70205309D01*
X125733571Y-70214169D01*
X125733568Y-70214173D01*
X125730660Y-70219614D01*
X125683029Y-70290899D01*
X125668828Y-70308204D01*
X125608204Y-70368828D01*
X125590899Y-70383029D01*
X125519614Y-70430660D01*
X125514173Y-70433568D01*
X125514169Y-70433571D01*
X125505309Y-70438307D01*
X125505303Y-70438309D01*
X125499858Y-70441220D01*
X125420660Y-70474024D01*
X125399233Y-70480524D01*
X125315149Y-70497250D01*
X125292869Y-70499444D01*
X125274450Y-70499444D01*
X125262199Y-70500046D01*
X125243862Y-70501852D01*
X124756138Y-70501852D01*
X124737801Y-70500046D01*
X124725550Y-70499444D01*
X124707131Y-70499444D01*
X124684851Y-70497250D01*
X124600767Y-70480524D01*
X124579340Y-70474024D01*
X124500142Y-70441220D01*
X124494697Y-70438309D01*
X124494691Y-70438307D01*
X124485831Y-70433571D01*
X124485827Y-70433568D01*
X124480386Y-70430660D01*
X124409101Y-70383029D01*
X124391796Y-70368828D01*
X124331172Y-70308204D01*
X124316971Y-70290899D01*
X124269340Y-70219614D01*
X124266432Y-70214173D01*
X124266429Y-70214169D01*
X124261693Y-70205309D01*
X124261691Y-70205303D01*
X124258780Y-70199858D01*
X124225976Y-70120660D01*
X124219476Y-70099233D01*
X124202750Y-70015149D01*
X124200556Y-69992869D01*
X124200556Y-69974450D01*
X124199954Y-69962199D01*
X124198148Y-69943862D01*
X124198148Y-69456140D01*
X124199737Y-69440001D01*
X124202652Y-69430392D01*
X124207390Y-69421528D01*
X124213763Y-69413763D01*
X124226206Y-69403552D01*
X124236575Y-69396622D01*
X124253902Y-69379295D01*
X124267515Y-69358920D01*
X124276891Y-69336280D01*
X124281671Y-69312247D01*
X124281670Y-69287743D01*
X124276888Y-69263710D01*
X124267510Y-69241071D01*
X124253895Y-69220698D01*
X124236568Y-69203371D01*
X124226198Y-69196442D01*
X124213763Y-69186237D01*
X124207390Y-69178472D01*
X124202652Y-69169608D01*
X124199737Y-69159999D01*
X124198148Y-69143860D01*
X124198148Y-68656139D01*
X124199954Y-68637801D01*
X124200556Y-68625550D01*
X124200556Y-68607131D01*
X124202750Y-68584851D01*
X124219476Y-68500767D01*
X124225976Y-68479340D01*
X124258780Y-68400142D01*
X124261691Y-68394697D01*
X124261693Y-68394691D01*
X124266429Y-68385831D01*
X124266432Y-68385827D01*
X124269340Y-68380386D01*
X124316971Y-68309101D01*
X124331172Y-68291796D01*
X124391796Y-68231172D01*
X124409101Y-68216971D01*
X124480386Y-68169340D01*
X124485827Y-68166432D01*
X124485831Y-68166429D01*
X124494691Y-68161693D01*
X124494697Y-68161691D01*
X124500142Y-68158780D01*
X124579340Y-68125976D01*
X124600767Y-68119476D01*
X124684851Y-68102750D01*
X124707131Y-68100556D01*
X124725550Y-68100556D01*
X124737801Y-68099954D01*
X124756139Y-68098148D01*
X125243861Y-68098148D01*
X125262199Y-68099954D01*
G37*
G36*
X164751000Y-70351000D02*
G01*
X160849000Y-70351000D01*
X160849000Y-68249000D01*
X164751000Y-68249000D01*
X164751000Y-70351000D01*
G37*
G36*
X110684468Y-68928565D02*
G01*
X110723138Y-68940296D01*
X110758777Y-68959346D01*
X110790017Y-68984983D01*
X110815654Y-69016223D01*
X110834704Y-69051862D01*
X110846435Y-69090532D01*
X110851000Y-69136888D01*
X110851000Y-69788112D01*
X110846435Y-69834468D01*
X110834704Y-69873138D01*
X110815654Y-69908777D01*
X110790017Y-69940017D01*
X110758777Y-69965654D01*
X110723138Y-69984704D01*
X110684468Y-69996435D01*
X110638112Y-70001000D01*
X109561888Y-70001000D01*
X109515532Y-69996435D01*
X109476862Y-69984704D01*
X109441223Y-69965654D01*
X109409983Y-69940017D01*
X109384346Y-69908777D01*
X109365296Y-69873138D01*
X109353565Y-69834468D01*
X109349000Y-69788112D01*
X109349000Y-69136888D01*
X109353565Y-69090532D01*
X109365296Y-69051862D01*
X109384346Y-69016223D01*
X109409983Y-68984983D01*
X109441223Y-68959346D01*
X109476862Y-68940296D01*
X109515532Y-68928565D01*
X109561888Y-68924000D01*
X110638112Y-68924000D01*
X110684468Y-68928565D01*
G37*
G36*
X168984468Y-68703565D02*
G01*
X169023138Y-68715296D01*
X169058777Y-68734346D01*
X169090017Y-68759983D01*
X169115654Y-68791223D01*
X169134704Y-68826862D01*
X169146435Y-68865532D01*
X169151000Y-68911888D01*
X169151000Y-69563112D01*
X169146435Y-69609468D01*
X169134704Y-69648138D01*
X169115654Y-69683777D01*
X169090017Y-69715017D01*
X169058777Y-69740654D01*
X169023138Y-69759704D01*
X168984468Y-69771435D01*
X168938112Y-69776000D01*
X167861888Y-69776000D01*
X167815532Y-69771435D01*
X167776862Y-69759704D01*
X167741223Y-69740654D01*
X167709983Y-69715017D01*
X167684346Y-69683777D01*
X167665296Y-69648138D01*
X167653565Y-69609468D01*
X167649000Y-69563112D01*
X167649000Y-68911888D01*
X167653565Y-68865532D01*
X167665296Y-68826862D01*
X167684346Y-68791223D01*
X167709983Y-68759983D01*
X167741223Y-68734346D01*
X167776862Y-68715296D01*
X167815532Y-68703565D01*
X167861888Y-68699000D01*
X168938112Y-68699000D01*
X168984468Y-68703565D01*
G37*
G36*
X154051000Y-69286000D02*
G01*
X151949000Y-69286000D01*
X151949000Y-68284000D01*
X154051000Y-68284000D01*
X154051000Y-69286000D01*
G37*
G36*
X137051000Y-69286000D02*
G01*
X134949000Y-69286000D01*
X134949000Y-68284000D01*
X137051000Y-68284000D01*
X137051000Y-69286000D01*
G37*
G36*
X186418039Y-64692250D02*
G01*
X186607372Y-64770675D01*
X186741251Y-64826129D01*
X187032134Y-65020491D01*
X187279509Y-65267866D01*
X187473871Y-65558749D01*
X187473871Y-65558750D01*
X187607750Y-65881961D01*
X187676000Y-66225078D01*
X187676000Y-66574922D01*
X187607750Y-66918039D01*
X187577722Y-66990532D01*
X187473871Y-67241251D01*
X187279509Y-67532134D01*
X187032134Y-67779509D01*
X186741251Y-67973871D01*
X186639542Y-68016000D01*
X186418039Y-68107750D01*
X186074922Y-68176000D01*
X185725078Y-68176000D01*
X185381961Y-68107750D01*
X185160458Y-68016000D01*
X185058749Y-67973871D01*
X184767866Y-67779509D01*
X184520491Y-67532134D01*
X184326129Y-67241251D01*
X184222278Y-66990532D01*
X184192250Y-66918039D01*
X184124000Y-66574922D01*
X184124000Y-66225078D01*
X184192250Y-65881961D01*
X184326129Y-65558750D01*
X184326129Y-65558749D01*
X184520491Y-65267866D01*
X184767866Y-65020491D01*
X185058749Y-64826129D01*
X185192628Y-64770675D01*
X185381961Y-64692250D01*
X185725078Y-64624000D01*
X186074922Y-64624000D01*
X186418039Y-64692250D01*
G37*
G36*
X154051000Y-68016000D02*
G01*
X151949000Y-68016000D01*
X151949000Y-67014000D01*
X154051000Y-67014000D01*
X154051000Y-68016000D01*
G37*
G36*
X137051000Y-68016000D02*
G01*
X134949000Y-68016000D01*
X134949000Y-67014000D01*
X137051000Y-67014000D01*
X137051000Y-68016000D01*
G37*
G36*
X168984468Y-66828565D02*
G01*
X169023138Y-66840296D01*
X169058777Y-66859346D01*
X169090017Y-66884983D01*
X169115654Y-66916223D01*
X169134704Y-66951862D01*
X169146435Y-66990532D01*
X169151000Y-67036888D01*
X169151000Y-67688112D01*
X169146435Y-67734468D01*
X169134704Y-67773138D01*
X169115654Y-67808777D01*
X169090017Y-67840017D01*
X169058777Y-67865654D01*
X169023138Y-67884704D01*
X168984468Y-67896435D01*
X168938112Y-67901000D01*
X167861888Y-67901000D01*
X167815532Y-67896435D01*
X167776862Y-67884704D01*
X167741223Y-67865654D01*
X167709983Y-67840017D01*
X167684346Y-67808777D01*
X167665296Y-67773138D01*
X167653565Y-67734468D01*
X167649000Y-67688112D01*
X167649000Y-67036888D01*
X167653565Y-66990532D01*
X167665296Y-66951862D01*
X167684346Y-66916223D01*
X167709983Y-66884983D01*
X167741223Y-66859346D01*
X167776862Y-66840296D01*
X167815532Y-66828565D01*
X167861888Y-66824000D01*
X168938112Y-66824000D01*
X168984468Y-66828565D01*
G37*
G36*
X110551000Y-67851000D02*
G01*
X109249000Y-67851000D01*
X109249000Y-66849000D01*
X110551000Y-66849000D01*
X110551000Y-67851000D01*
G37*
G36*
X137051000Y-66746000D02*
G01*
X134949000Y-66746000D01*
X134949000Y-65744000D01*
X137051000Y-65744000D01*
X137051000Y-66746000D01*
G37*
G36*
X154051000Y-66746000D02*
G01*
X151949000Y-66746000D01*
X151949000Y-65744000D01*
X154051000Y-65744000D01*
X154051000Y-66746000D01*
G37*
G36*
X154051000Y-65476000D02*
G01*
X151949000Y-65476000D01*
X151949000Y-64474000D01*
X154051000Y-64474000D01*
X154051000Y-65476000D01*
G37*
G36*
X137051000Y-65476000D02*
G01*
X134949000Y-65476000D01*
X134949000Y-64474000D01*
X137051000Y-64474000D01*
X137051000Y-65476000D01*
G37*
G36*
X116901000Y-65451000D02*
G01*
X115899000Y-65451000D01*
X115899000Y-64549000D01*
X116901000Y-64549000D01*
X116901000Y-65451000D01*
G37*
G36*
X119684468Y-64203565D02*
G01*
X119723138Y-64215296D01*
X119758777Y-64234346D01*
X119790017Y-64259983D01*
X119815654Y-64291223D01*
X119834704Y-64326862D01*
X119846435Y-64365532D01*
X119851000Y-64411888D01*
X119851000Y-65063112D01*
X119846435Y-65109468D01*
X119834704Y-65148138D01*
X119815654Y-65183777D01*
X119790017Y-65215017D01*
X119758777Y-65240654D01*
X119723138Y-65259704D01*
X119684468Y-65271435D01*
X119638112Y-65276000D01*
X118561888Y-65276000D01*
X118515532Y-65271435D01*
X118476862Y-65259704D01*
X118441223Y-65240654D01*
X118409983Y-65215017D01*
X118384346Y-65183777D01*
X118365296Y-65148138D01*
X118353565Y-65109468D01*
X118349000Y-65063112D01*
X118349000Y-64411888D01*
X118353565Y-64365532D01*
X118365296Y-64326862D01*
X118384346Y-64291223D01*
X118409983Y-64259983D01*
X118441223Y-64234346D01*
X118476862Y-64215296D01*
X118515532Y-64203565D01*
X118561888Y-64199000D01*
X119638112Y-64199000D01*
X119684468Y-64203565D01*
G37*
G36*
X110551000Y-64551000D02*
G01*
X109249000Y-64551000D01*
X109249000Y-63549000D01*
X110551000Y-63549000D01*
X110551000Y-64551000D01*
G37*
G36*
X114901000Y-64501000D02*
G01*
X113899000Y-64501000D01*
X113899000Y-63599000D01*
X114901000Y-63599000D01*
X114901000Y-64501000D01*
G37*
G36*
X154051000Y-64206000D02*
G01*
X151949000Y-64206000D01*
X151949000Y-63204000D01*
X154051000Y-63204000D01*
X154051000Y-64206000D01*
G37*
G36*
X137051000Y-64206000D02*
G01*
X134949000Y-64206000D01*
X134949000Y-63204000D01*
X137051000Y-63204000D01*
X137051000Y-64206000D01*
G37*
G36*
X146051000Y-63596000D02*
G01*
X140949000Y-63596000D01*
X140949000Y-58494000D01*
X146051000Y-58494000D01*
X146051000Y-63596000D01*
G37*
G36*
X116901000Y-63551000D02*
G01*
X115899000Y-63551000D01*
X115899000Y-62649000D01*
X116901000Y-62649000D01*
X116901000Y-63551000D01*
G37*
G36*
X119684468Y-62328565D02*
G01*
X119723138Y-62340296D01*
X119758777Y-62359346D01*
X119790017Y-62384983D01*
X119815654Y-62416223D01*
X119834704Y-62451862D01*
X119846435Y-62490532D01*
X119851000Y-62536888D01*
X119851000Y-63188112D01*
X119846435Y-63234468D01*
X119834704Y-63273138D01*
X119815654Y-63308777D01*
X119790017Y-63340017D01*
X119758777Y-63365654D01*
X119723138Y-63384704D01*
X119684468Y-63396435D01*
X119638112Y-63401000D01*
X118561888Y-63401000D01*
X118515532Y-63396435D01*
X118476862Y-63384704D01*
X118441223Y-63365654D01*
X118409983Y-63340017D01*
X118384346Y-63308777D01*
X118365296Y-63273138D01*
X118353565Y-63234468D01*
X118349000Y-63188112D01*
X118349000Y-62536888D01*
X118353565Y-62490532D01*
X118365296Y-62451862D01*
X118384346Y-62416223D01*
X118409983Y-62384983D01*
X118441223Y-62359346D01*
X118476862Y-62340296D01*
X118515532Y-62328565D01*
X118561888Y-62324000D01*
X119638112Y-62324000D01*
X119684468Y-62328565D01*
G37*
G36*
X125951000Y-63091000D02*
G01*
X123339000Y-63091000D01*
X123339000Y-61989000D01*
X125951000Y-61989000D01*
X125951000Y-63091000D01*
G37*
G36*
X137051000Y-62936000D02*
G01*
X134949000Y-62936000D01*
X134949000Y-61934000D01*
X137051000Y-61934000D01*
X137051000Y-62936000D01*
G37*
G36*
X154051000Y-62936000D02*
G01*
X151949000Y-62936000D01*
X151949000Y-61934000D01*
X154051000Y-61934000D01*
X154051000Y-62936000D01*
G37*
G36*
X176834468Y-60753565D02*
G01*
X176873138Y-60765296D01*
X176908777Y-60784346D01*
X176940017Y-60809983D01*
X176965654Y-60841223D01*
X176984704Y-60876862D01*
X176996435Y-60915532D01*
X177001000Y-60961888D01*
X177001000Y-62038112D01*
X176996435Y-62084468D01*
X176984704Y-62123138D01*
X176965654Y-62158777D01*
X176940017Y-62190017D01*
X176908777Y-62215654D01*
X176873138Y-62234704D01*
X176834468Y-62246435D01*
X176788112Y-62251000D01*
X176136888Y-62251000D01*
X176090532Y-62246435D01*
X176051862Y-62234704D01*
X176016223Y-62215654D01*
X175984983Y-62190017D01*
X175959346Y-62158777D01*
X175940296Y-62123138D01*
X175928565Y-62084468D01*
X175924000Y-62038112D01*
X175924000Y-60961888D01*
X175928565Y-60915532D01*
X175940296Y-60876862D01*
X175959346Y-60841223D01*
X175984983Y-60809983D01*
X176016223Y-60784346D01*
X176051862Y-60765296D01*
X176090532Y-60753565D01*
X176136888Y-60749000D01*
X176788112Y-60749000D01*
X176834468Y-60753565D01*
G37*
G36*
X178709468Y-60753565D02*
G01*
X178748138Y-60765296D01*
X178783777Y-60784346D01*
X178815017Y-60809983D01*
X178840654Y-60841223D01*
X178859704Y-60876862D01*
X178871435Y-60915532D01*
X178876000Y-60961888D01*
X178876000Y-62038112D01*
X178871435Y-62084468D01*
X178859704Y-62123138D01*
X178840654Y-62158777D01*
X178815017Y-62190017D01*
X178783777Y-62215654D01*
X178748138Y-62234704D01*
X178709468Y-62246435D01*
X178663112Y-62251000D01*
X178011888Y-62251000D01*
X177965532Y-62246435D01*
X177926862Y-62234704D01*
X177891223Y-62215654D01*
X177859983Y-62190017D01*
X177834346Y-62158777D01*
X177815296Y-62123138D01*
X177803565Y-62084468D01*
X177799000Y-62038112D01*
X177799000Y-60961888D01*
X177803565Y-60915532D01*
X177815296Y-60876862D01*
X177834346Y-60841223D01*
X177859983Y-60809983D01*
X177891223Y-60784346D01*
X177926862Y-60765296D01*
X177965532Y-60753565D01*
X178011888Y-60749000D01*
X178663112Y-60749000D01*
X178709468Y-60753565D01*
G37*
G36*
X160301000Y-61801000D02*
G01*
X158699000Y-61801000D01*
X158699000Y-59699000D01*
X160301000Y-59699000D01*
X160301000Y-61801000D01*
G37*
G36*
X162601000Y-61801000D02*
G01*
X160999000Y-61801000D01*
X160999000Y-59699000D01*
X162601000Y-59699000D01*
X162601000Y-61801000D01*
G37*
G36*
X164901000Y-61801000D02*
G01*
X163299000Y-61801000D01*
X163299000Y-59699000D01*
X164901000Y-59699000D01*
X164901000Y-61801000D01*
G37*
G36*
X154051000Y-61666000D02*
G01*
X151949000Y-61666000D01*
X151949000Y-60664000D01*
X154051000Y-60664000D01*
X154051000Y-61666000D01*
G37*
G36*
X137051000Y-61666000D02*
G01*
X134949000Y-61666000D01*
X134949000Y-60664000D01*
X137051000Y-60664000D01*
X137051000Y-61666000D01*
G37*
G36*
X169584468Y-60503565D02*
G01*
X169623138Y-60515296D01*
X169658777Y-60534346D01*
X169690017Y-60559983D01*
X169715654Y-60591223D01*
X169734704Y-60626862D01*
X169746435Y-60665532D01*
X169751000Y-60711888D01*
X169751000Y-61363112D01*
X169746435Y-61409468D01*
X169734704Y-61448138D01*
X169715654Y-61483777D01*
X169690017Y-61515017D01*
X169658777Y-61540654D01*
X169623138Y-61559704D01*
X169584468Y-61571435D01*
X169538112Y-61576000D01*
X168461888Y-61576000D01*
X168415532Y-61571435D01*
X168376862Y-61559704D01*
X168341223Y-61540654D01*
X168309983Y-61515017D01*
X168284346Y-61483777D01*
X168265296Y-61448138D01*
X168253565Y-61409468D01*
X168249000Y-61363112D01*
X168249000Y-60711888D01*
X168253565Y-60665532D01*
X168265296Y-60626862D01*
X168284346Y-60591223D01*
X168309983Y-60559983D01*
X168341223Y-60534346D01*
X168376862Y-60515296D01*
X168415532Y-60503565D01*
X168461888Y-60499000D01*
X169538112Y-60499000D01*
X169584468Y-60503565D01*
G37*
G36*
X167384468Y-60403565D02*
G01*
X167423138Y-60415296D01*
X167458777Y-60434346D01*
X167490017Y-60459983D01*
X167515654Y-60491223D01*
X167534704Y-60526862D01*
X167546435Y-60565532D01*
X167551000Y-60611888D01*
X167551000Y-61263112D01*
X167546435Y-61309468D01*
X167534704Y-61348138D01*
X167515654Y-61383777D01*
X167490017Y-61415017D01*
X167458777Y-61440654D01*
X167423138Y-61459704D01*
X167384468Y-61471435D01*
X167338112Y-61476000D01*
X166261888Y-61476000D01*
X166215532Y-61471435D01*
X166176862Y-61459704D01*
X166141223Y-61440654D01*
X166109983Y-61415017D01*
X166084346Y-61383777D01*
X166065296Y-61348138D01*
X166053565Y-61309468D01*
X166049000Y-61263112D01*
X166049000Y-60611888D01*
X166053565Y-60565532D01*
X166065296Y-60526862D01*
X166084346Y-60491223D01*
X166109983Y-60459983D01*
X166141223Y-60434346D01*
X166176862Y-60415296D01*
X166215532Y-60403565D01*
X166261888Y-60399000D01*
X167338112Y-60399000D01*
X167384468Y-60403565D01*
G37*
G36*
X129261000Y-60551000D02*
G01*
X126649000Y-60551000D01*
X126649000Y-59449000D01*
X129261000Y-59449000D01*
X129261000Y-60551000D01*
G37*
G36*
X137051000Y-60396000D02*
G01*
X134949000Y-60396000D01*
X134949000Y-59394000D01*
X137051000Y-59394000D01*
X137051000Y-60396000D01*
G37*
G36*
X154051000Y-60396000D02*
G01*
X151949000Y-60396000D01*
X151949000Y-59394000D01*
X154051000Y-59394000D01*
X154051000Y-60396000D01*
G37*
G36*
X116101000Y-59901000D02*
G01*
X115099000Y-59901000D01*
X115099000Y-58999000D01*
X116101000Y-58999000D01*
X116101000Y-59901000D01*
G37*
G36*
X112884468Y-58803565D02*
G01*
X112923138Y-58815296D01*
X112958777Y-58834346D01*
X112990017Y-58859983D01*
X113015654Y-58891223D01*
X113034704Y-58926862D01*
X113046435Y-58965532D01*
X113051000Y-59011888D01*
X113051000Y-59663112D01*
X113046435Y-59709468D01*
X113034704Y-59748138D01*
X113015654Y-59783777D01*
X112990017Y-59815017D01*
X112958777Y-59840654D01*
X112923138Y-59859704D01*
X112884468Y-59871435D01*
X112838112Y-59876000D01*
X111761888Y-59876000D01*
X111715532Y-59871435D01*
X111676862Y-59859704D01*
X111641223Y-59840654D01*
X111609983Y-59815017D01*
X111584346Y-59783777D01*
X111565296Y-59748138D01*
X111553565Y-59709468D01*
X111549000Y-59663112D01*
X111549000Y-59011888D01*
X111553565Y-58965532D01*
X111565296Y-58926862D01*
X111584346Y-58891223D01*
X111609983Y-58859983D01*
X111641223Y-58834346D01*
X111676862Y-58815296D01*
X111715532Y-58803565D01*
X111761888Y-58799000D01*
X112838112Y-58799000D01*
X112884468Y-58803565D01*
G37*
G36*
X169584468Y-58628565D02*
G01*
X169623138Y-58640296D01*
X169658777Y-58659346D01*
X169690017Y-58684983D01*
X169715654Y-58716223D01*
X169734704Y-58751862D01*
X169746435Y-58790532D01*
X169751000Y-58836888D01*
X169751000Y-59488112D01*
X169746435Y-59534468D01*
X169734704Y-59573138D01*
X169715654Y-59608777D01*
X169690017Y-59640017D01*
X169658777Y-59665654D01*
X169623138Y-59684704D01*
X169584468Y-59696435D01*
X169538112Y-59701000D01*
X168461888Y-59701000D01*
X168415532Y-59696435D01*
X168376862Y-59684704D01*
X168341223Y-59665654D01*
X168309983Y-59640017D01*
X168284346Y-59608777D01*
X168265296Y-59573138D01*
X168253565Y-59534468D01*
X168249000Y-59488112D01*
X168249000Y-58836888D01*
X168253565Y-58790532D01*
X168265296Y-58751862D01*
X168284346Y-58716223D01*
X168309983Y-58684983D01*
X168341223Y-58659346D01*
X168376862Y-58640296D01*
X168415532Y-58628565D01*
X168461888Y-58624000D01*
X169538112Y-58624000D01*
X169584468Y-58628565D01*
G37*
G36*
X167384468Y-58528565D02*
G01*
X167423138Y-58540296D01*
X167458777Y-58559346D01*
X167490017Y-58584983D01*
X167515654Y-58616223D01*
X167534704Y-58651862D01*
X167546435Y-58690532D01*
X167551000Y-58736888D01*
X167551000Y-59388112D01*
X167546435Y-59434468D01*
X167534704Y-59473138D01*
X167515654Y-59508777D01*
X167490017Y-59540017D01*
X167458777Y-59565654D01*
X167423138Y-59584704D01*
X167384468Y-59596435D01*
X167338112Y-59601000D01*
X166261888Y-59601000D01*
X166215532Y-59596435D01*
X166176862Y-59584704D01*
X166141223Y-59565654D01*
X166109983Y-59540017D01*
X166084346Y-59508777D01*
X166065296Y-59473138D01*
X166053565Y-59434468D01*
X166049000Y-59388112D01*
X166049000Y-58736888D01*
X166053565Y-58690532D01*
X166065296Y-58651862D01*
X166084346Y-58616223D01*
X166109983Y-58584983D01*
X166141223Y-58559346D01*
X166176862Y-58540296D01*
X166215532Y-58528565D01*
X166261888Y-58524000D01*
X167338112Y-58524000D01*
X167384468Y-58528565D01*
G37*
G36*
X154051000Y-59126000D02*
G01*
X151949000Y-59126000D01*
X151949000Y-58124000D01*
X154051000Y-58124000D01*
X154051000Y-59126000D01*
G37*
G36*
X137051000Y-59126000D02*
G01*
X134949000Y-59126000D01*
X134949000Y-58124000D01*
X137051000Y-58124000D01*
X137051000Y-59126000D01*
G37*
G36*
X177601000Y-59001000D02*
G01*
X173999000Y-59001000D01*
X173999000Y-55399000D01*
X177601000Y-55399000D01*
X177601000Y-59001000D01*
G37*
G36*
X118101000Y-58951000D02*
G01*
X117099000Y-58951000D01*
X117099000Y-58049000D01*
X118101000Y-58049000D01*
X118101000Y-58951000D01*
G37*
G36*
X197126000Y-58391000D02*
G01*
X190674000Y-58391000D01*
X190674000Y-50949000D01*
X197126000Y-50949000D01*
X197126000Y-58391000D01*
G37*
G36*
X125951000Y-58011000D02*
G01*
X123339000Y-58011000D01*
X123339000Y-56909000D01*
X125951000Y-56909000D01*
X125951000Y-58011000D01*
G37*
G36*
X112884468Y-56928565D02*
G01*
X112923138Y-56940296D01*
X112958777Y-56959346D01*
X112990017Y-56984983D01*
X113015654Y-57016223D01*
X113034704Y-57051862D01*
X113046435Y-57090532D01*
X113051000Y-57136888D01*
X113051000Y-57788112D01*
X113046435Y-57834468D01*
X113034704Y-57873138D01*
X113015654Y-57908777D01*
X112990017Y-57940017D01*
X112958777Y-57965654D01*
X112923138Y-57984704D01*
X112884468Y-57996435D01*
X112838112Y-58001000D01*
X111761888Y-58001000D01*
X111715532Y-57996435D01*
X111676862Y-57984704D01*
X111641223Y-57965654D01*
X111609983Y-57940017D01*
X111584346Y-57908777D01*
X111565296Y-57873138D01*
X111553565Y-57834468D01*
X111549000Y-57788112D01*
X111549000Y-57136888D01*
X111553565Y-57090532D01*
X111565296Y-57051862D01*
X111584346Y-57016223D01*
X111609983Y-56984983D01*
X111641223Y-56959346D01*
X111676862Y-56940296D01*
X111715532Y-56928565D01*
X111761888Y-56924000D01*
X112838112Y-56924000D01*
X112884468Y-56928565D01*
G37*
G36*
X116101000Y-58001000D02*
G01*
X115099000Y-58001000D01*
X115099000Y-57099000D01*
X116101000Y-57099000D01*
X116101000Y-58001000D01*
G37*
G36*
X137051000Y-57856000D02*
G01*
X134949000Y-57856000D01*
X134949000Y-56854000D01*
X137051000Y-56854000D01*
X137051000Y-57856000D01*
G37*
G36*
X154051000Y-57856000D02*
G01*
X151949000Y-57856000D01*
X151949000Y-56854000D01*
X154051000Y-56854000D01*
X154051000Y-57856000D01*
G37*
G36*
X154051000Y-56586000D02*
G01*
X151949000Y-56586000D01*
X151949000Y-55584000D01*
X154051000Y-55584000D01*
X154051000Y-56586000D01*
G37*
G36*
X137051000Y-56586000D02*
G01*
X134949000Y-56586000D01*
X134949000Y-55584000D01*
X137051000Y-55584000D01*
X137051000Y-56586000D01*
G37*
G36*
X117051000Y-56101000D02*
G01*
X116149000Y-56101000D01*
X116149000Y-55099000D01*
X117051000Y-55099000D01*
X117051000Y-56101000D01*
G37*
G36*
X172226366Y-52415695D02*
G01*
X172383460Y-52463349D01*
X172528231Y-52540731D01*
X172655128Y-52644872D01*
X172759269Y-52771769D01*
X172836651Y-52916540D01*
X172884305Y-53073634D01*
X172901000Y-53243140D01*
X172901000Y-55156860D01*
X172884305Y-55326366D01*
X172836651Y-55483460D01*
X172759269Y-55628231D01*
X172655128Y-55755128D01*
X172528231Y-55859269D01*
X172383460Y-55936651D01*
X172226366Y-55984305D01*
X172056860Y-56001000D01*
X170143140Y-56001000D01*
X169973634Y-55984305D01*
X169816540Y-55936651D01*
X169671769Y-55859269D01*
X169544872Y-55755128D01*
X169440731Y-55628231D01*
X169363349Y-55483460D01*
X169315695Y-55326366D01*
X169299000Y-55156860D01*
X169299000Y-53243140D01*
X169315695Y-53073634D01*
X169363349Y-52916540D01*
X169440731Y-52771769D01*
X169544872Y-52644872D01*
X169671769Y-52540731D01*
X169816540Y-52463349D01*
X169973634Y-52415695D01*
X170143140Y-52399000D01*
X172056860Y-52399000D01*
X172226366Y-52415695D01*
G37*
G36*
X163751000Y-55501000D02*
G01*
X159849000Y-55501000D01*
X159849000Y-53399000D01*
X163751000Y-53399000D01*
X163751000Y-55501000D01*
G37*
G36*
X154051000Y-55316000D02*
G01*
X151949000Y-55316000D01*
X151949000Y-54314000D01*
X154051000Y-54314000D01*
X154051000Y-55316000D01*
G37*
G36*
X137051000Y-55316000D02*
G01*
X134949000Y-55316000D01*
X134949000Y-54314000D01*
X137051000Y-54314000D01*
X137051000Y-55316000D01*
G37*
G36*
X116101000Y-54101000D02*
G01*
X115199000Y-54101000D01*
X115199000Y-53099000D01*
X116101000Y-53099000D01*
X116101000Y-54101000D01*
G37*
G36*
X118001000Y-54101000D02*
G01*
X117099000Y-54101000D01*
X117099000Y-53099000D01*
X118001000Y-53099000D01*
X118001000Y-54101000D01*
G37*
G36*
X137051000Y-54046000D02*
G01*
X134949000Y-54046000D01*
X134949000Y-53044000D01*
X137051000Y-53044000D01*
X137051000Y-54046000D01*
G37*
G36*
X154051000Y-54046000D02*
G01*
X151949000Y-54046000D01*
X151949000Y-53044000D01*
X154051000Y-53044000D01*
X154051000Y-54046000D01*
G37*
G36*
X177026979Y-49663293D02*
G01*
X177160625Y-49703834D01*
X177283784Y-49769664D01*
X177391740Y-49858260D01*
X177480336Y-49966216D01*
X177546166Y-50089375D01*
X177586707Y-50223021D01*
X177601000Y-50368140D01*
X177601000Y-52031860D01*
X177586707Y-52176979D01*
X177546166Y-52310625D01*
X177480336Y-52433784D01*
X177391740Y-52541740D01*
X177283784Y-52630336D01*
X177160625Y-52696166D01*
X177026979Y-52736707D01*
X176881860Y-52751000D01*
X174718140Y-52751000D01*
X174573021Y-52736707D01*
X174439375Y-52696166D01*
X174316216Y-52630336D01*
X174208260Y-52541740D01*
X174119664Y-52433784D01*
X174053834Y-52310625D01*
X174013293Y-52176979D01*
X173999000Y-52031860D01*
X173999000Y-50368140D01*
X174013293Y-50223021D01*
X174053834Y-50089375D01*
X174119664Y-49966216D01*
X174208260Y-49858260D01*
X174316216Y-49769664D01*
X174439375Y-49703834D01*
X174573021Y-49663293D01*
X174718140Y-49649000D01*
X176881860Y-49649000D01*
X177026979Y-49663293D01*
G37*
G36*
X117909468Y-50053565D02*
G01*
X117948138Y-50065296D01*
X117983777Y-50084346D01*
X118015017Y-50109983D01*
X118040654Y-50141223D01*
X118059704Y-50176862D01*
X118071435Y-50215532D01*
X118076000Y-50261888D01*
X118076000Y-51338112D01*
X118071435Y-51384468D01*
X118059704Y-51423138D01*
X118040654Y-51458777D01*
X118015017Y-51490017D01*
X117983777Y-51515654D01*
X117948138Y-51534704D01*
X117909468Y-51546435D01*
X117863112Y-51551000D01*
X117211888Y-51551000D01*
X117165532Y-51546435D01*
X117126862Y-51534704D01*
X117091223Y-51515654D01*
X117059983Y-51490017D01*
X117034346Y-51458777D01*
X117015296Y-51423138D01*
X117003565Y-51384468D01*
X116999000Y-51338112D01*
X116999000Y-50261888D01*
X117003565Y-50215532D01*
X117015296Y-50176862D01*
X117034346Y-50141223D01*
X117059983Y-50109983D01*
X117091223Y-50084346D01*
X117126862Y-50065296D01*
X117165532Y-50053565D01*
X117211888Y-50049000D01*
X117863112Y-50049000D01*
X117909468Y-50053565D01*
G37*
G36*
X116034468Y-50053565D02*
G01*
X116073138Y-50065296D01*
X116108777Y-50084346D01*
X116140017Y-50109983D01*
X116165654Y-50141223D01*
X116184704Y-50176862D01*
X116196435Y-50215532D01*
X116201000Y-50261888D01*
X116201000Y-51338112D01*
X116196435Y-51384468D01*
X116184704Y-51423138D01*
X116165654Y-51458777D01*
X116140017Y-51490017D01*
X116108777Y-51515654D01*
X116073138Y-51534704D01*
X116034468Y-51546435D01*
X115988112Y-51551000D01*
X115336888Y-51551000D01*
X115290532Y-51546435D01*
X115251862Y-51534704D01*
X115216223Y-51515654D01*
X115184983Y-51490017D01*
X115159346Y-51458777D01*
X115140296Y-51423138D01*
X115128565Y-51384468D01*
X115124000Y-51338112D01*
X115124000Y-50261888D01*
X115128565Y-50215532D01*
X115140296Y-50176862D01*
X115159346Y-50141223D01*
X115184983Y-50109983D01*
X115216223Y-50084346D01*
X115251862Y-50065296D01*
X115290532Y-50053565D01*
X115336888Y-50049000D01*
X115988112Y-50049000D01*
X116034468Y-50053565D01*
G37*
M02*
