G04 #@! TF.GenerationSoftware,KiCad,Pcbnew,5.1.5+dfsg1-2build2*
G04 #@! TF.CreationDate,2022-02-11T05:24:06+00:00*
G04 #@! TF.ProjectId,psion-org2-bluetooth-adapter,7073696f-6e2d-46f7-9267-322d626c7565,rev?*
G04 #@! TF.SameCoordinates,Original*
G04 #@! TF.FileFunction,Legend,Top*
G04 #@! TF.FilePolarity,Positive*
%FSLAX46Y46*%
G04 Gerber Fmt 4.6, Leading zero omitted, Abs format (unit mm)*
G04 Created by KiCad (PCBNEW 5.1.5+dfsg1-2build2) date 2022-02-11 05:24:06*
%MOMM*%
%LPD*%
G04 APERTURE LIST*
%ADD10C,0.120000*%
%ADD11C,0.150000*%
G04 APERTURE END LIST*
D10*
X118300000Y-131900000D02*
X119400000Y-131900000D01*
X116400000Y-129400000D02*
X118300000Y-131900000D01*
X124700000Y-129700000D02*
X123400000Y-129700000D01*
X126100000Y-134100000D02*
X124700000Y-129700000D01*
D11*
X175833333Y-118827380D02*
X176166666Y-119827380D01*
X176500000Y-118827380D01*
X177404761Y-119827380D02*
X177071428Y-119351190D01*
X176833333Y-119827380D02*
X176833333Y-118827380D01*
X177214285Y-118827380D01*
X177309523Y-118875000D01*
X177357142Y-118922619D01*
X177404761Y-119017857D01*
X177404761Y-119160714D01*
X177357142Y-119255952D01*
X177309523Y-119303571D01*
X177214285Y-119351190D01*
X176833333Y-119351190D01*
X177833333Y-119303571D02*
X178166666Y-119303571D01*
X178309523Y-119827380D02*
X177833333Y-119827380D01*
X177833333Y-118827380D01*
X178309523Y-118827380D01*
X179261904Y-118875000D02*
X179166666Y-118827380D01*
X179023809Y-118827380D01*
X178880952Y-118875000D01*
X178785714Y-118970238D01*
X178738095Y-119065476D01*
X178690476Y-119255952D01*
X178690476Y-119398809D01*
X178738095Y-119589285D01*
X178785714Y-119684523D01*
X178880952Y-119779761D01*
X179023809Y-119827380D01*
X179119047Y-119827380D01*
X179261904Y-119779761D01*
X179309523Y-119732142D01*
X179309523Y-119398809D01*
X179119047Y-119398809D01*
X175214285Y-121429761D02*
X175357142Y-121477380D01*
X175595238Y-121477380D01*
X175690476Y-121429761D01*
X175738095Y-121382142D01*
X175785714Y-121286904D01*
X175785714Y-121191666D01*
X175738095Y-121096428D01*
X175690476Y-121048809D01*
X175595238Y-121001190D01*
X175404761Y-120953571D01*
X175309523Y-120905952D01*
X175261904Y-120858333D01*
X175214285Y-120763095D01*
X175214285Y-120667857D01*
X175261904Y-120572619D01*
X175309523Y-120525000D01*
X175404761Y-120477380D01*
X175642857Y-120477380D01*
X175785714Y-120525000D01*
X176404761Y-120477380D02*
X176595238Y-120477380D01*
X176690476Y-120525000D01*
X176785714Y-120620238D01*
X176833333Y-120810714D01*
X176833333Y-121144047D01*
X176785714Y-121334523D01*
X176690476Y-121429761D01*
X176595238Y-121477380D01*
X176404761Y-121477380D01*
X176309523Y-121429761D01*
X176214285Y-121334523D01*
X176166666Y-121144047D01*
X176166666Y-120810714D01*
X176214285Y-120620238D01*
X176309523Y-120525000D01*
X176404761Y-120477380D01*
X177261904Y-120477380D02*
X177261904Y-121286904D01*
X177309523Y-121382142D01*
X177357142Y-121429761D01*
X177452380Y-121477380D01*
X177642857Y-121477380D01*
X177738095Y-121429761D01*
X177785714Y-121382142D01*
X177833333Y-121286904D01*
X177833333Y-120477380D01*
X178880952Y-121477380D02*
X178547619Y-121001190D01*
X178309523Y-121477380D02*
X178309523Y-120477380D01*
X178690476Y-120477380D01*
X178785714Y-120525000D01*
X178833333Y-120572619D01*
X178880952Y-120667857D01*
X178880952Y-120810714D01*
X178833333Y-120905952D01*
X178785714Y-120953571D01*
X178690476Y-121001190D01*
X178309523Y-121001190D01*
X179880952Y-121382142D02*
X179833333Y-121429761D01*
X179690476Y-121477380D01*
X179595238Y-121477380D01*
X179452380Y-121429761D01*
X179357142Y-121334523D01*
X179309523Y-121239285D01*
X179261904Y-121048809D01*
X179261904Y-120905952D01*
X179309523Y-120715476D01*
X179357142Y-120620238D01*
X179452380Y-120525000D01*
X179595238Y-120477380D01*
X179690476Y-120477380D01*
X179833333Y-120525000D01*
X179880952Y-120572619D01*
X180309523Y-120953571D02*
X180642857Y-120953571D01*
X180785714Y-121477380D02*
X180309523Y-121477380D01*
X180309523Y-120477380D01*
X180785714Y-120477380D01*
X179328571Y-124338095D02*
X179376190Y-124195238D01*
X179423809Y-124147619D01*
X179519047Y-124100000D01*
X179661904Y-124100000D01*
X179757142Y-124147619D01*
X179804761Y-124195238D01*
X179852380Y-124290476D01*
X179852380Y-124671428D01*
X178852380Y-124671428D01*
X178852380Y-124338095D01*
X178900000Y-124242857D01*
X178947619Y-124195238D01*
X179042857Y-124147619D01*
X179138095Y-124147619D01*
X179233333Y-124195238D01*
X179280952Y-124242857D01*
X179328571Y-124338095D01*
X179328571Y-124671428D01*
X179566666Y-123719047D02*
X179566666Y-123242857D01*
X179852380Y-123814285D02*
X178852380Y-123480952D01*
X179852380Y-123147619D01*
X178852380Y-122957142D02*
X178852380Y-122385714D01*
X179852380Y-122671428D02*
X178852380Y-122671428D01*
X176152380Y-124761904D02*
X176961904Y-124761904D01*
X177057142Y-124714285D01*
X177104761Y-124666666D01*
X177152380Y-124571428D01*
X177152380Y-124380952D01*
X177104761Y-124285714D01*
X177057142Y-124238095D01*
X176961904Y-124190476D01*
X176152380Y-124190476D01*
X177104761Y-123761904D02*
X177152380Y-123619047D01*
X177152380Y-123380952D01*
X177104761Y-123285714D01*
X177057142Y-123238095D01*
X176961904Y-123190476D01*
X176866666Y-123190476D01*
X176771428Y-123238095D01*
X176723809Y-123285714D01*
X176676190Y-123380952D01*
X176628571Y-123571428D01*
X176580952Y-123666666D01*
X176533333Y-123714285D01*
X176438095Y-123761904D01*
X176342857Y-123761904D01*
X176247619Y-123714285D01*
X176200000Y-123666666D01*
X176152380Y-123571428D01*
X176152380Y-123333333D01*
X176200000Y-123190476D01*
X176628571Y-122428571D02*
X176676190Y-122285714D01*
X176723809Y-122238095D01*
X176819047Y-122190476D01*
X176961904Y-122190476D01*
X177057142Y-122238095D01*
X177104761Y-122285714D01*
X177152380Y-122380952D01*
X177152380Y-122761904D01*
X176152380Y-122761904D01*
X176152380Y-122428571D01*
X176200000Y-122333333D01*
X176247619Y-122285714D01*
X176342857Y-122238095D01*
X176438095Y-122238095D01*
X176533333Y-122285714D01*
X176580952Y-122333333D01*
X176628571Y-122428571D01*
X176628571Y-122761904D01*
X172252380Y-97700000D02*
X172252380Y-97509523D01*
X172300000Y-97414285D01*
X172395238Y-97319047D01*
X172585714Y-97271428D01*
X172919047Y-97271428D01*
X173109523Y-97319047D01*
X173204761Y-97414285D01*
X173252380Y-97509523D01*
X173252380Y-97700000D01*
X173204761Y-97795238D01*
X173109523Y-97890476D01*
X172919047Y-97938095D01*
X172585714Y-97938095D01*
X172395238Y-97890476D01*
X172300000Y-97795238D01*
X172252380Y-97700000D01*
X172252380Y-96842857D02*
X173061904Y-96842857D01*
X173157142Y-96795238D01*
X173204761Y-96747619D01*
X173252380Y-96652380D01*
X173252380Y-96461904D01*
X173204761Y-96366666D01*
X173157142Y-96319047D01*
X173061904Y-96271428D01*
X172252380Y-96271428D01*
X172252380Y-95938095D02*
X172252380Y-95366666D01*
X173252380Y-95652380D02*
X172252380Y-95652380D01*
X176052380Y-97723809D02*
X175052380Y-97723809D01*
X176052380Y-97247619D02*
X175052380Y-97247619D01*
X176052380Y-96676190D01*
X175052380Y-96676190D01*
X167200000Y-97061904D02*
X167152380Y-97157142D01*
X167152380Y-97300000D01*
X167200000Y-97442857D01*
X167295238Y-97538095D01*
X167390476Y-97585714D01*
X167580952Y-97633333D01*
X167723809Y-97633333D01*
X167914285Y-97585714D01*
X168009523Y-97538095D01*
X168104761Y-97442857D01*
X168152380Y-97300000D01*
X168152380Y-97204761D01*
X168104761Y-97061904D01*
X168057142Y-97014285D01*
X167723809Y-97014285D01*
X167723809Y-97204761D01*
X168152380Y-96585714D02*
X167152380Y-96585714D01*
X168152380Y-96014285D01*
X167152380Y-96014285D01*
X168152380Y-95538095D02*
X167152380Y-95538095D01*
X167152380Y-95300000D01*
X167200000Y-95157142D01*
X167295238Y-95061904D01*
X167390476Y-95014285D01*
X167580952Y-94966666D01*
X167723809Y-94966666D01*
X167914285Y-95014285D01*
X168009523Y-95061904D01*
X168104761Y-95157142D01*
X168152380Y-95300000D01*
X168152380Y-95538095D01*
X169600000Y-97161904D02*
X169552380Y-97257142D01*
X169552380Y-97400000D01*
X169600000Y-97542857D01*
X169695238Y-97638095D01*
X169790476Y-97685714D01*
X169980952Y-97733333D01*
X170123809Y-97733333D01*
X170314285Y-97685714D01*
X170409523Y-97638095D01*
X170504761Y-97542857D01*
X170552380Y-97400000D01*
X170552380Y-97304761D01*
X170504761Y-97161904D01*
X170457142Y-97114285D01*
X170123809Y-97114285D01*
X170123809Y-97304761D01*
X170552380Y-96685714D02*
X169552380Y-96685714D01*
X170552380Y-96114285D01*
X169552380Y-96114285D01*
X170552380Y-95638095D02*
X169552380Y-95638095D01*
X169552380Y-95400000D01*
X169600000Y-95257142D01*
X169695238Y-95161904D01*
X169790476Y-95114285D01*
X169980952Y-95066666D01*
X170123809Y-95066666D01*
X170314285Y-95114285D01*
X170409523Y-95161904D01*
X170504761Y-95257142D01*
X170552380Y-95400000D01*
X170552380Y-95638095D01*
X148004761Y-142919047D02*
X148052380Y-142776190D01*
X148052380Y-142538095D01*
X148004761Y-142442857D01*
X147957142Y-142395238D01*
X147861904Y-142347619D01*
X147766666Y-142347619D01*
X147671428Y-142395238D01*
X147623809Y-142442857D01*
X147576190Y-142538095D01*
X147528571Y-142728571D01*
X147480952Y-142823809D01*
X147433333Y-142871428D01*
X147338095Y-142919047D01*
X147242857Y-142919047D01*
X147147619Y-142871428D01*
X147100000Y-142823809D01*
X147052380Y-142728571D01*
X147052380Y-142490476D01*
X147100000Y-142347619D01*
X147052380Y-142014285D02*
X148052380Y-141776190D01*
X147338095Y-141585714D01*
X148052380Y-141395238D01*
X147052380Y-141157142D01*
X148052380Y-140776190D02*
X147052380Y-140776190D01*
X147052380Y-140538095D01*
X147100000Y-140395238D01*
X147195238Y-140300000D01*
X147290476Y-140252380D01*
X147480952Y-140204761D01*
X147623809Y-140204761D01*
X147814285Y-140252380D01*
X147909523Y-140300000D01*
X148004761Y-140395238D01*
X148052380Y-140538095D01*
X148052380Y-140776190D01*
X148052380Y-139776190D02*
X147052380Y-139776190D01*
X147052380Y-139109523D02*
X147052380Y-138919047D01*
X147100000Y-138823809D01*
X147195238Y-138728571D01*
X147385714Y-138680952D01*
X147719047Y-138680952D01*
X147909523Y-138728571D01*
X148004761Y-138823809D01*
X148052380Y-138919047D01*
X148052380Y-139109523D01*
X148004761Y-139204761D01*
X147909523Y-139300000D01*
X147719047Y-139347619D01*
X147385714Y-139347619D01*
X147195238Y-139300000D01*
X147100000Y-139204761D01*
X147052380Y-139109523D01*
X142804761Y-143061904D02*
X142852380Y-142919047D01*
X142852380Y-142680952D01*
X142804761Y-142585714D01*
X142757142Y-142538095D01*
X142661904Y-142490476D01*
X142566666Y-142490476D01*
X142471428Y-142538095D01*
X142423809Y-142585714D01*
X142376190Y-142680952D01*
X142328571Y-142871428D01*
X142280952Y-142966666D01*
X142233333Y-143014285D01*
X142138095Y-143061904D01*
X142042857Y-143061904D01*
X141947619Y-143014285D01*
X141900000Y-142966666D01*
X141852380Y-142871428D01*
X141852380Y-142633333D01*
X141900000Y-142490476D01*
X141852380Y-142157142D02*
X142852380Y-141919047D01*
X142138095Y-141728571D01*
X142852380Y-141538095D01*
X141852380Y-141300000D01*
X142757142Y-140347619D02*
X142804761Y-140395238D01*
X142852380Y-140538095D01*
X142852380Y-140633333D01*
X142804761Y-140776190D01*
X142709523Y-140871428D01*
X142614285Y-140919047D01*
X142423809Y-140966666D01*
X142280952Y-140966666D01*
X142090476Y-140919047D01*
X141995238Y-140871428D01*
X141900000Y-140776190D01*
X141852380Y-140633333D01*
X141852380Y-140538095D01*
X141900000Y-140395238D01*
X141947619Y-140347619D01*
X142852380Y-139442857D02*
X142852380Y-139919047D01*
X141852380Y-139919047D01*
X142852380Y-139109523D02*
X141852380Y-139109523D01*
X142852380Y-138538095D02*
X142280952Y-138966666D01*
X141852380Y-138538095D02*
X142423809Y-139109523D01*
X144600000Y-140761904D02*
X144552380Y-140857142D01*
X144552380Y-141000000D01*
X144600000Y-141142857D01*
X144695238Y-141238095D01*
X144790476Y-141285714D01*
X144980952Y-141333333D01*
X145123809Y-141333333D01*
X145314285Y-141285714D01*
X145409523Y-141238095D01*
X145504761Y-141142857D01*
X145552380Y-141000000D01*
X145552380Y-140904761D01*
X145504761Y-140761904D01*
X145457142Y-140714285D01*
X145123809Y-140714285D01*
X145123809Y-140904761D01*
X145552380Y-140285714D02*
X144552380Y-140285714D01*
X145552380Y-139714285D01*
X144552380Y-139714285D01*
X145552380Y-139238095D02*
X144552380Y-139238095D01*
X144552380Y-139000000D01*
X144600000Y-138857142D01*
X144695238Y-138761904D01*
X144790476Y-138714285D01*
X144980952Y-138666666D01*
X145123809Y-138666666D01*
X145314285Y-138714285D01*
X145409523Y-138761904D01*
X145504761Y-138857142D01*
X145552380Y-139000000D01*
X145552380Y-139238095D01*
X113861904Y-127652380D02*
X114480952Y-127652380D01*
X114147619Y-128033333D01*
X114290476Y-128033333D01*
X114385714Y-128080952D01*
X114433333Y-128128571D01*
X114480952Y-128223809D01*
X114480952Y-128461904D01*
X114433333Y-128557142D01*
X114385714Y-128604761D01*
X114290476Y-128652380D01*
X114004761Y-128652380D01*
X113909523Y-128604761D01*
X113861904Y-128557142D01*
X114766666Y-127652380D02*
X115100000Y-128652380D01*
X115433333Y-127652380D01*
X115671428Y-127652380D02*
X116290476Y-127652380D01*
X115957142Y-128033333D01*
X116100000Y-128033333D01*
X116195238Y-128080952D01*
X116242857Y-128128571D01*
X116290476Y-128223809D01*
X116290476Y-128461904D01*
X116242857Y-128557142D01*
X116195238Y-128604761D01*
X116100000Y-128652380D01*
X115814285Y-128652380D01*
X115719047Y-128604761D01*
X115671428Y-128557142D01*
X114138095Y-130400000D02*
X114042857Y-130352380D01*
X113900000Y-130352380D01*
X113757142Y-130400000D01*
X113661904Y-130495238D01*
X113614285Y-130590476D01*
X113566666Y-130780952D01*
X113566666Y-130923809D01*
X113614285Y-131114285D01*
X113661904Y-131209523D01*
X113757142Y-131304761D01*
X113900000Y-131352380D01*
X113995238Y-131352380D01*
X114138095Y-131304761D01*
X114185714Y-131257142D01*
X114185714Y-130923809D01*
X113995238Y-130923809D01*
X114614285Y-131352380D02*
X114614285Y-130352380D01*
X115185714Y-131352380D01*
X115185714Y-130352380D01*
X115661904Y-131352380D02*
X115661904Y-130352380D01*
X115900000Y-130352380D01*
X116042857Y-130400000D01*
X116138095Y-130495238D01*
X116185714Y-130590476D01*
X116233333Y-130780952D01*
X116233333Y-130923809D01*
X116185714Y-131114285D01*
X116138095Y-131209523D01*
X116042857Y-131304761D01*
X115900000Y-131352380D01*
X115661904Y-131352380D01*
X130261904Y-135052380D02*
X130880952Y-135052380D01*
X130547619Y-135433333D01*
X130690476Y-135433333D01*
X130785714Y-135480952D01*
X130833333Y-135528571D01*
X130880952Y-135623809D01*
X130880952Y-135861904D01*
X130833333Y-135957142D01*
X130785714Y-136004761D01*
X130690476Y-136052380D01*
X130404761Y-136052380D01*
X130309523Y-136004761D01*
X130261904Y-135957142D01*
X131166666Y-135052380D02*
X131500000Y-136052380D01*
X131833333Y-135052380D01*
X132071428Y-135052380D02*
X132690476Y-135052380D01*
X132357142Y-135433333D01*
X132500000Y-135433333D01*
X132595238Y-135480952D01*
X132642857Y-135528571D01*
X132690476Y-135623809D01*
X132690476Y-135861904D01*
X132642857Y-135957142D01*
X132595238Y-136004761D01*
X132500000Y-136052380D01*
X132214285Y-136052380D01*
X132119047Y-136004761D01*
X132071428Y-135957142D01*
X130938095Y-132100000D02*
X130842857Y-132052380D01*
X130700000Y-132052380D01*
X130557142Y-132100000D01*
X130461904Y-132195238D01*
X130414285Y-132290476D01*
X130366666Y-132480952D01*
X130366666Y-132623809D01*
X130414285Y-132814285D01*
X130461904Y-132909523D01*
X130557142Y-133004761D01*
X130700000Y-133052380D01*
X130795238Y-133052380D01*
X130938095Y-133004761D01*
X130985714Y-132957142D01*
X130985714Y-132623809D01*
X130795238Y-132623809D01*
X131414285Y-133052380D02*
X131414285Y-132052380D01*
X131985714Y-133052380D01*
X131985714Y-132052380D01*
X132461904Y-133052380D02*
X132461904Y-132052380D01*
X132700000Y-132052380D01*
X132842857Y-132100000D01*
X132938095Y-132195238D01*
X132985714Y-132290476D01*
X133033333Y-132480952D01*
X133033333Y-132623809D01*
X132985714Y-132814285D01*
X132938095Y-132909523D01*
X132842857Y-133004761D01*
X132700000Y-133052380D01*
X132461904Y-133052380D01*
X127171428Y-66727380D02*
X127409523Y-67727380D01*
X127600000Y-67013095D01*
X127790476Y-67727380D01*
X128028571Y-66727380D01*
X128980952Y-67727380D02*
X128647619Y-67251190D01*
X128409523Y-67727380D02*
X128409523Y-66727380D01*
X128790476Y-66727380D01*
X128885714Y-66775000D01*
X128933333Y-66822619D01*
X128980952Y-66917857D01*
X128980952Y-67060714D01*
X128933333Y-67155952D01*
X128885714Y-67203571D01*
X128790476Y-67251190D01*
X128409523Y-67251190D01*
X129600000Y-66727380D02*
X129790476Y-66727380D01*
X129885714Y-66775000D01*
X129980952Y-66870238D01*
X130028571Y-67060714D01*
X130028571Y-67394047D01*
X129980952Y-67584523D01*
X129885714Y-67679761D01*
X129790476Y-67727380D01*
X129600000Y-67727380D01*
X129504761Y-67679761D01*
X129409523Y-67584523D01*
X129361904Y-67394047D01*
X129361904Y-67060714D01*
X129409523Y-66870238D01*
X129504761Y-66775000D01*
X129600000Y-66727380D01*
X130647619Y-66727380D02*
X130838095Y-66727380D01*
X130933333Y-66775000D01*
X131028571Y-66870238D01*
X131076190Y-67060714D01*
X131076190Y-67394047D01*
X131028571Y-67584523D01*
X130933333Y-67679761D01*
X130838095Y-67727380D01*
X130647619Y-67727380D01*
X130552380Y-67679761D01*
X130457142Y-67584523D01*
X130409523Y-67394047D01*
X130409523Y-67060714D01*
X130457142Y-66870238D01*
X130552380Y-66775000D01*
X130647619Y-66727380D01*
X131504761Y-67727380D02*
X131504761Y-66727380D01*
X131838095Y-67441666D01*
X132171428Y-66727380D01*
X132171428Y-67727380D01*
X128314285Y-69377380D02*
X128314285Y-68377380D01*
X128695238Y-68377380D01*
X128790476Y-68425000D01*
X128838095Y-68472619D01*
X128885714Y-68567857D01*
X128885714Y-68710714D01*
X128838095Y-68805952D01*
X128790476Y-68853571D01*
X128695238Y-68901190D01*
X128314285Y-68901190D01*
X129885714Y-69377380D02*
X129552380Y-68901190D01*
X129314285Y-69377380D02*
X129314285Y-68377380D01*
X129695238Y-68377380D01*
X129790476Y-68425000D01*
X129838095Y-68472619D01*
X129885714Y-68567857D01*
X129885714Y-68710714D01*
X129838095Y-68805952D01*
X129790476Y-68853571D01*
X129695238Y-68901190D01*
X129314285Y-68901190D01*
X130504761Y-68377380D02*
X130695238Y-68377380D01*
X130790476Y-68425000D01*
X130885714Y-68520238D01*
X130933333Y-68710714D01*
X130933333Y-69044047D01*
X130885714Y-69234523D01*
X130790476Y-69329761D01*
X130695238Y-69377380D01*
X130504761Y-69377380D01*
X130409523Y-69329761D01*
X130314285Y-69234523D01*
X130266666Y-69044047D01*
X130266666Y-68710714D01*
X130314285Y-68520238D01*
X130409523Y-68425000D01*
X130504761Y-68377380D01*
X131885714Y-68425000D02*
X131790476Y-68377380D01*
X131647619Y-68377380D01*
X131504761Y-68425000D01*
X131409523Y-68520238D01*
X131361904Y-68615476D01*
X131314285Y-68805952D01*
X131314285Y-68948809D01*
X131361904Y-69139285D01*
X131409523Y-69234523D01*
X131504761Y-69329761D01*
X131647619Y-69377380D01*
X131742857Y-69377380D01*
X131885714Y-69329761D01*
X131933333Y-69282142D01*
X131933333Y-68948809D01*
X131742857Y-68948809D01*
X121138095Y-56852380D02*
X121709523Y-56852380D01*
X121423809Y-57852380D02*
X121423809Y-56852380D01*
X121947619Y-56852380D02*
X122614285Y-57852380D01*
X122614285Y-56852380D02*
X121947619Y-57852380D01*
X121633333Y-63152380D02*
X121300000Y-62676190D01*
X121061904Y-63152380D02*
X121061904Y-62152380D01*
X121442857Y-62152380D01*
X121538095Y-62200000D01*
X121585714Y-62247619D01*
X121633333Y-62342857D01*
X121633333Y-62485714D01*
X121585714Y-62580952D01*
X121538095Y-62628571D01*
X121442857Y-62676190D01*
X121061904Y-62676190D01*
X121966666Y-62152380D02*
X122633333Y-63152380D01*
X122633333Y-62152380D02*
X121966666Y-63152380D01*
X130638095Y-59500000D02*
X130542857Y-59452380D01*
X130400000Y-59452380D01*
X130257142Y-59500000D01*
X130161904Y-59595238D01*
X130114285Y-59690476D01*
X130066666Y-59880952D01*
X130066666Y-60023809D01*
X130114285Y-60214285D01*
X130161904Y-60309523D01*
X130257142Y-60404761D01*
X130400000Y-60452380D01*
X130495238Y-60452380D01*
X130638095Y-60404761D01*
X130685714Y-60357142D01*
X130685714Y-60023809D01*
X130495238Y-60023809D01*
X131114285Y-60452380D02*
X131114285Y-59452380D01*
X131685714Y-60452380D01*
X131685714Y-59452380D01*
X132161904Y-60452380D02*
X132161904Y-59452380D01*
X132400000Y-59452380D01*
X132542857Y-59500000D01*
X132638095Y-59595238D01*
X132685714Y-59690476D01*
X132733333Y-59880952D01*
X132733333Y-60023809D01*
X132685714Y-60214285D01*
X132638095Y-60309523D01*
X132542857Y-60404761D01*
X132400000Y-60452380D01*
X132161904Y-60452380D01*
D10*
X114640000Y-62470000D02*
X116100000Y-62470000D01*
X114640000Y-65630000D02*
X116800000Y-65630000D01*
X114640000Y-65630000D02*
X114640000Y-64700000D01*
X114640000Y-62470000D02*
X114640000Y-63400000D01*
X110810000Y-70658578D02*
X110810000Y-70141422D01*
X109390000Y-70658578D02*
X109390000Y-70141422D01*
X118390000Y-63541422D02*
X118390000Y-64058578D01*
X119810000Y-63541422D02*
X119810000Y-64058578D01*
X110900000Y-63450000D02*
X110900000Y-67350000D01*
X108900000Y-63450000D02*
X108900000Y-67350000D01*
X110900000Y-63450000D02*
X108900000Y-63450000D01*
X163425001Y-103065001D02*
X159975001Y-103065001D01*
X163425001Y-103065001D02*
X165375001Y-103065001D01*
X163425001Y-108185001D02*
X161475001Y-108185001D01*
X163425001Y-108185001D02*
X165375001Y-108185001D01*
X168090000Y-104441422D02*
X168090000Y-104958578D01*
X169510000Y-104441422D02*
X169510000Y-104958578D01*
X168290000Y-59841422D02*
X168290000Y-60358578D01*
X169710000Y-59841422D02*
X169710000Y-60358578D01*
X176730000Y-98570000D02*
X176730000Y-99900000D01*
X175400000Y-98570000D02*
X176730000Y-98570000D01*
X174130000Y-98570000D02*
X174130000Y-101230000D01*
X174130000Y-101230000D02*
X166450000Y-101230000D01*
X174130000Y-98570000D02*
X166450000Y-98570000D01*
X166450000Y-98570000D02*
X166450000Y-101230000D01*
X167900000Y-133440000D02*
X164450000Y-133440000D01*
X167900000Y-133440000D02*
X169850000Y-133440000D01*
X167900000Y-138560000D02*
X165950000Y-138560000D01*
X167900000Y-138560000D02*
X169850000Y-138560000D01*
X158390000Y-61700000D02*
X158390000Y-55690000D01*
X165210000Y-59450000D02*
X165210000Y-55690000D01*
X158390000Y-55690000D02*
X159650000Y-55690000D01*
X165210000Y-55690000D02*
X163950000Y-55690000D01*
X135380000Y-52355000D02*
X135000000Y-52355000D01*
X135380000Y-45935000D02*
X135380000Y-52355000D01*
X153620000Y-45935000D02*
X153620000Y-52355000D01*
X135380000Y-45935000D02*
X153620000Y-45935000D01*
X153620000Y-71680000D02*
X152620000Y-71680000D01*
X153620000Y-70900000D02*
X153620000Y-71680000D01*
X135380000Y-71680000D02*
X136380000Y-71680000D01*
X135380000Y-70900000D02*
X135380000Y-71680000D01*
X114540000Y-117420000D02*
X116000000Y-117420000D01*
X114540000Y-120580000D02*
X116700000Y-120580000D01*
X114540000Y-120580000D02*
X114540000Y-119650000D01*
X114540000Y-117420000D02*
X114540000Y-118350000D01*
X119040000Y-117520000D02*
X120500000Y-117520000D01*
X119040000Y-120680000D02*
X121200000Y-120680000D01*
X119040000Y-120680000D02*
X119040000Y-119750000D01*
X119040000Y-117520000D02*
X119040000Y-118450000D01*
X115020000Y-55360000D02*
X115020000Y-53900000D01*
X118180000Y-55360000D02*
X118180000Y-53200000D01*
X118180000Y-55360000D02*
X117250000Y-55360000D01*
X115020000Y-55360000D02*
X115950000Y-55360000D01*
X171641422Y-132410000D02*
X172158578Y-132410000D01*
X171641422Y-130990000D02*
X172158578Y-130990000D01*
X164558578Y-139890000D02*
X164041422Y-139890000D01*
X164558578Y-141310000D02*
X164041422Y-141310000D01*
X111758578Y-119190000D02*
X111241422Y-119190000D01*
X111758578Y-120610000D02*
X111241422Y-120610000D01*
X114141422Y-116510000D02*
X114658578Y-116510000D01*
X114141422Y-115090000D02*
X114658578Y-115090000D01*
X118041422Y-116510000D02*
X118558578Y-116510000D01*
X118041422Y-115090000D02*
X118558578Y-115090000D01*
X158590000Y-113641422D02*
X158590000Y-114158578D01*
X160010000Y-113641422D02*
X160010000Y-114158578D01*
X160358578Y-110090000D02*
X159841422Y-110090000D01*
X160358578Y-111510000D02*
X159841422Y-111510000D01*
X113010000Y-58658578D02*
X113010000Y-58141422D01*
X111590000Y-58658578D02*
X111590000Y-58141422D01*
X109940000Y-115020000D02*
X111400000Y-115020000D01*
X109940000Y-118180000D02*
X112100000Y-118180000D01*
X109940000Y-118180000D02*
X109940000Y-117250000D01*
X109940000Y-115020000D02*
X109940000Y-115950000D01*
X117360000Y-60080000D02*
X115900000Y-60080000D01*
X117360000Y-56920000D02*
X115200000Y-56920000D01*
X117360000Y-56920000D02*
X117360000Y-57850000D01*
X117360000Y-60080000D02*
X117360000Y-59150000D01*
X177600000Y-126600000D02*
X177600000Y-128000000D01*
X176900000Y-128700000D02*
X176300000Y-128700000D01*
X175600000Y-128000000D02*
X175600000Y-126600000D01*
X176300000Y-125900000D02*
X176900000Y-125900000D01*
X176900000Y-125900000D02*
G75*
G02X177600000Y-126600000I0J-700000D01*
G01*
X175600000Y-126600000D02*
G75*
G02X176300000Y-125900000I700000J0D01*
G01*
X176300000Y-128700000D02*
G75*
G02X175600000Y-128000000I0J700000D01*
G01*
X177600000Y-128000000D02*
G75*
G02X176900000Y-128700000I-700000J0D01*
G01*
X180300000Y-126600000D02*
X180300000Y-128000000D01*
X179600000Y-128700000D02*
X179000000Y-128700000D01*
X178300000Y-128000000D02*
X178300000Y-126600000D01*
X179000000Y-125900000D02*
X179600000Y-125900000D01*
X179600000Y-125900000D02*
G75*
G02X180300000Y-126600000I0J-700000D01*
G01*
X178300000Y-126600000D02*
G75*
G02X179000000Y-125900000I700000J0D01*
G01*
X179000000Y-128700000D02*
G75*
G02X178300000Y-128000000I0J700000D01*
G01*
X180300000Y-128000000D02*
G75*
G02X179600000Y-128700000I-700000J0D01*
G01*
X127400000Y-131700000D02*
X128800000Y-131700000D01*
X129500000Y-132400000D02*
X129500000Y-133000000D01*
X128800000Y-133700000D02*
X127400000Y-133700000D01*
X126700000Y-133000000D02*
X126700000Y-132400000D01*
X126700000Y-132400000D02*
G75*
G02X127400000Y-131700000I700000J0D01*
G01*
X127400000Y-133700000D02*
G75*
G02X126700000Y-133000000I0J700000D01*
G01*
X129500000Y-133000000D02*
G75*
G02X128800000Y-133700000I-700000J0D01*
G01*
X128800000Y-131700000D02*
G75*
G02X129500000Y-132400000I0J-700000D01*
G01*
X183840000Y-139190000D02*
X183840000Y-139580000D01*
X183840000Y-139190000D02*
X184290000Y-139190000D01*
X189410000Y-139890000D02*
X188760000Y-139890000D01*
X189410000Y-141620000D02*
X189410000Y-139890000D01*
X181790000Y-144190000D02*
X181790000Y-143980000D01*
X189410000Y-144190000D02*
X189410000Y-143980000D01*
X181790000Y-141620000D02*
X181790000Y-139890000D01*
X181790000Y-139890000D02*
X182450000Y-139890000D01*
X180400000Y-58100000D02*
X177800000Y-58100000D01*
X180400000Y-43400000D02*
X180400000Y-58100000D01*
X171200000Y-58100000D02*
X171200000Y-56200000D01*
X173900000Y-58100000D02*
X171200000Y-58100000D01*
X171200000Y-43400000D02*
X180400000Y-43400000D01*
X171200000Y-52200000D02*
X171200000Y-43400000D01*
X180600000Y-57250000D02*
X180600000Y-58300000D01*
X179550000Y-58300000D02*
X180600000Y-58300000D01*
X169110000Y-68558578D02*
X169110000Y-68041422D01*
X167690000Y-68558578D02*
X167690000Y-68041422D01*
X166090000Y-59741422D02*
X166090000Y-60258578D01*
X167510000Y-59741422D02*
X167510000Y-60258578D01*
X153741422Y-142810000D02*
X154258578Y-142810000D01*
X153741422Y-141390000D02*
X154258578Y-141390000D01*
X177141422Y-62210000D02*
X177658578Y-62210000D01*
X177141422Y-60790000D02*
X177658578Y-60790000D01*
X126741422Y-96710000D02*
X127258578Y-96710000D01*
X126741422Y-95290000D02*
X127258578Y-95290000D01*
X119041422Y-71910000D02*
X119558578Y-71910000D01*
X119041422Y-70490000D02*
X119558578Y-70490000D01*
X172890000Y-139097936D02*
X172890000Y-140302064D01*
X174710000Y-139097936D02*
X174710000Y-140302064D01*
X169997936Y-125710000D02*
X171202064Y-125710000D01*
X169997936Y-123890000D02*
X171202064Y-123890000D01*
X160900000Y-132690000D02*
X159900000Y-132690000D01*
X160900000Y-137710000D02*
X159900000Y-137710000D01*
X161060000Y-139740000D02*
X158200000Y-139740000D01*
X161060000Y-141660000D02*
X161060000Y-139740000D01*
X158200000Y-141660000D02*
X161060000Y-141660000D01*
X175690000Y-139197936D02*
X175690000Y-140402064D01*
X177510000Y-139197936D02*
X177510000Y-140402064D01*
X174097936Y-134810000D02*
X175302064Y-134810000D01*
X174097936Y-132990000D02*
X175302064Y-132990000D01*
X189150000Y-136500000D02*
X186650000Y-136500000D01*
X187900000Y-137750000D02*
X187900000Y-135250000D01*
X187900000Y-50250000D02*
X187900000Y-52750000D01*
X190460000Y-55360000D02*
X183480000Y-55360000D01*
X183460000Y-55360000D02*
X183460000Y-132640000D01*
X183460000Y-132640000D02*
X190460000Y-132640000D01*
X197340000Y-55360000D02*
X204340000Y-55360000D01*
X204340000Y-55360000D02*
X204340000Y-132640000D01*
X204340000Y-132640000D02*
X197340000Y-132640000D01*
X190460000Y-132640000D02*
X190460000Y-137000000D01*
X159390000Y-76550000D02*
X159390000Y-70540000D01*
X166210000Y-74300000D02*
X166210000Y-70540000D01*
X159390000Y-70540000D02*
X160650000Y-70540000D01*
X166210000Y-70540000D02*
X164950000Y-70540000D01*
X159750000Y-80100000D02*
X163650000Y-80100000D01*
X159750000Y-82100000D02*
X163650000Y-82100000D01*
X159750000Y-80100000D02*
X159750000Y-82100000D01*
X83270000Y-106650000D02*
X82000000Y-106650000D01*
X83270000Y-105380000D02*
X83270000Y-106650000D01*
X77962929Y-105760000D02*
X78417071Y-105760000D01*
X77962929Y-105000000D02*
X78417071Y-105000000D01*
X78417071Y-87220000D02*
X78020000Y-87220000D01*
X78417071Y-87980000D02*
X78020000Y-87980000D01*
X69360000Y-87220000D02*
X75360000Y-87220000D01*
X69360000Y-87980000D02*
X69360000Y-87220000D01*
X75360000Y-87980000D02*
X69360000Y-87980000D01*
X78020000Y-88870000D02*
X75360000Y-88870000D01*
X77962929Y-103220000D02*
X78417071Y-103220000D01*
X77962929Y-102460000D02*
X78417071Y-102460000D01*
X78417071Y-89760000D02*
X78020000Y-89760000D01*
X78417071Y-90520000D02*
X78020000Y-90520000D01*
X69360000Y-89760000D02*
X75360000Y-89760000D01*
X69360000Y-90520000D02*
X69360000Y-89760000D01*
X75360000Y-90520000D02*
X69360000Y-90520000D01*
X78020000Y-91410000D02*
X75360000Y-91410000D01*
X77962929Y-100680000D02*
X78417071Y-100680000D01*
X77962929Y-99920000D02*
X78417071Y-99920000D01*
X78417071Y-92300000D02*
X78020000Y-92300000D01*
X78417071Y-93060000D02*
X78020000Y-93060000D01*
X69360000Y-92300000D02*
X75360000Y-92300000D01*
X69360000Y-93060000D02*
X69360000Y-92300000D01*
X75360000Y-93060000D02*
X69360000Y-93060000D01*
X78020000Y-93950000D02*
X75360000Y-93950000D01*
X77962929Y-98140000D02*
X78417071Y-98140000D01*
X77962929Y-97380000D02*
X78417071Y-97380000D01*
X78417071Y-94840000D02*
X78020000Y-94840000D01*
X78417071Y-95600000D02*
X78020000Y-95600000D01*
X69360000Y-94840000D02*
X75360000Y-94840000D01*
X69360000Y-95600000D02*
X69360000Y-94840000D01*
X75360000Y-95600000D02*
X69360000Y-95600000D01*
X78020000Y-96490000D02*
X75360000Y-96490000D01*
X77962929Y-95600000D02*
X78417071Y-95600000D01*
X77962929Y-94840000D02*
X78417071Y-94840000D01*
X78417071Y-97380000D02*
X78020000Y-97380000D01*
X78417071Y-98140000D02*
X78020000Y-98140000D01*
X69360000Y-97380000D02*
X75360000Y-97380000D01*
X69360000Y-98140000D02*
X69360000Y-97380000D01*
X75360000Y-98140000D02*
X69360000Y-98140000D01*
X78020000Y-99030000D02*
X75360000Y-99030000D01*
X77962929Y-93060000D02*
X78417071Y-93060000D01*
X77962929Y-92300000D02*
X78417071Y-92300000D01*
X78417071Y-99920000D02*
X78020000Y-99920000D01*
X78417071Y-100680000D02*
X78020000Y-100680000D01*
X69360000Y-99920000D02*
X75360000Y-99920000D01*
X69360000Y-100680000D02*
X69360000Y-99920000D01*
X75360000Y-100680000D02*
X69360000Y-100680000D01*
X78020000Y-101570000D02*
X75360000Y-101570000D01*
X77962929Y-90520000D02*
X78417071Y-90520000D01*
X77962929Y-89760000D02*
X78417071Y-89760000D01*
X78417071Y-102460000D02*
X78020000Y-102460000D01*
X78417071Y-103220000D02*
X78020000Y-103220000D01*
X69360000Y-102460000D02*
X75360000Y-102460000D01*
X69360000Y-103220000D02*
X69360000Y-102460000D01*
X75360000Y-103220000D02*
X69360000Y-103220000D01*
X78020000Y-104110000D02*
X75360000Y-104110000D01*
X78030000Y-87980000D02*
X78417071Y-87980000D01*
X78030000Y-87220000D02*
X78417071Y-87220000D01*
X78417071Y-105000000D02*
X78020000Y-105000000D01*
X78417071Y-105760000D02*
X78020000Y-105760000D01*
X75360000Y-105100000D02*
X69360000Y-105100000D01*
X75360000Y-105220000D02*
X69360000Y-105220000D01*
X75360000Y-105340000D02*
X69360000Y-105340000D01*
X75360000Y-105460000D02*
X69360000Y-105460000D01*
X75360000Y-105580000D02*
X69360000Y-105580000D01*
X75360000Y-105700000D02*
X69360000Y-105700000D01*
X69360000Y-105000000D02*
X75360000Y-105000000D01*
X69360000Y-105760000D02*
X69360000Y-105000000D01*
X75360000Y-105760000D02*
X69360000Y-105760000D01*
X75360000Y-106710000D02*
X78020000Y-106710000D01*
X75360000Y-86270000D02*
X75360000Y-106710000D01*
X78020000Y-86270000D02*
X75360000Y-86270000D01*
X78020000Y-106710000D02*
X78020000Y-86270000D01*
X133500000Y-77200000D02*
X154500000Y-77200000D01*
X140300000Y-128200000D02*
X133500000Y-128200000D01*
X133500000Y-79867000D02*
X136507000Y-79867000D01*
X136507000Y-79867000D02*
X136507000Y-77200000D01*
X133500000Y-77200000D02*
X133500000Y-77500000D01*
X133500000Y-79600000D02*
X133500000Y-80000000D01*
X133500000Y-82200000D02*
X133500000Y-82600000D01*
X133500000Y-84700000D02*
X133500000Y-85100000D01*
X133500000Y-87300000D02*
X133500000Y-87700000D01*
X133500000Y-89800000D02*
X133500000Y-90200000D01*
X133500000Y-92300000D02*
X133500000Y-92700000D01*
X133500000Y-94900000D02*
X133500000Y-95300000D01*
X133500000Y-97400000D02*
X133500000Y-97800000D01*
X133500000Y-100000000D02*
X133500000Y-100400000D01*
X133500000Y-102500000D02*
X133500000Y-102900000D01*
X133500000Y-105000000D02*
X133500000Y-105400000D01*
X133500000Y-107600000D02*
X133500000Y-108000000D01*
X133500000Y-110100000D02*
X133500000Y-110500000D01*
X133500000Y-112700000D02*
X133500000Y-113100000D01*
X133500000Y-115200000D02*
X133500000Y-115600000D01*
X133500000Y-117800000D02*
X133500000Y-118200000D01*
X133500000Y-120300000D02*
X133500000Y-120700000D01*
X133500000Y-122800000D02*
X133500000Y-123200000D01*
X133500000Y-125400000D02*
X133500000Y-125800000D01*
X154500000Y-92300000D02*
X154500000Y-92700000D01*
X154500000Y-97400000D02*
X154500000Y-97800000D01*
X154500000Y-105000000D02*
X154500000Y-105400000D01*
X154500000Y-112700000D02*
X154500000Y-113100000D01*
X154500000Y-82200000D02*
X154500000Y-82600000D01*
X154500000Y-79600000D02*
X154500000Y-80000000D01*
X154500000Y-87300000D02*
X154500000Y-87700000D01*
X154500000Y-120300000D02*
X154500000Y-120700000D01*
X154500000Y-125400000D02*
X154500000Y-125800000D01*
X154500000Y-122800000D02*
X154500000Y-123200000D01*
X154500000Y-107600000D02*
X154500000Y-108000000D01*
X154500000Y-102500000D02*
X154500000Y-102900000D01*
X154500000Y-89800000D02*
X154500000Y-90200000D01*
X154500000Y-94900000D02*
X154500000Y-95300000D01*
X154500000Y-115200000D02*
X154500000Y-115600000D01*
X154500000Y-100000000D02*
X154500000Y-100400000D01*
X154500000Y-77200000D02*
X154500000Y-77500000D01*
X154500000Y-84700000D02*
X154500000Y-85100000D01*
X154500000Y-110100000D02*
X154500000Y-110500000D01*
X154500000Y-117800000D02*
X154500000Y-118200000D01*
X154500000Y-128200000D02*
X147700000Y-128200000D01*
X142500000Y-128200000D02*
X142900000Y-128200000D01*
X145100000Y-128200000D02*
X145500000Y-128200000D01*
X116940000Y-98425000D02*
X115125000Y-98425000D01*
X116940000Y-98190000D02*
X116940000Y-98425000D01*
X120800000Y-98190000D02*
X116940000Y-98190000D01*
X124660000Y-98190000D02*
X124660000Y-98425000D01*
X120800000Y-98190000D02*
X124660000Y-98190000D01*
X116940000Y-111210000D02*
X116940000Y-110975000D01*
X120800000Y-111210000D02*
X116940000Y-111210000D01*
X124660000Y-111210000D02*
X124660000Y-110975000D01*
X120800000Y-111210000D02*
X124660000Y-111210000D01*
X115540000Y-76225000D02*
X113725000Y-76225000D01*
X115540000Y-75990000D02*
X115540000Y-76225000D01*
X119400000Y-75990000D02*
X115540000Y-75990000D01*
X123260000Y-75990000D02*
X123260000Y-76225000D01*
X119400000Y-75990000D02*
X123260000Y-75990000D01*
X115540000Y-89010000D02*
X115540000Y-88775000D01*
X119400000Y-89010000D02*
X115540000Y-89010000D01*
X123260000Y-89010000D02*
X123260000Y-88775000D01*
X119400000Y-89010000D02*
X123260000Y-89010000D01*
X116203922Y-135010000D02*
X116721078Y-135010000D01*
X116203922Y-133590000D02*
X116721078Y-133590000D01*
X116241422Y-137610000D02*
X116758578Y-137610000D01*
X116241422Y-136190000D02*
X116758578Y-136190000D01*
X114490000Y-91941422D02*
X114490000Y-92458578D01*
X115910000Y-91941422D02*
X115910000Y-92458578D01*
X116858578Y-50090000D02*
X116341422Y-50090000D01*
X116858578Y-51510000D02*
X116341422Y-51510000D01*
X126000000Y-68600000D02*
X126000000Y-70000000D01*
X125300000Y-70700000D02*
X124700000Y-70700000D01*
X124000000Y-70000000D02*
X124000000Y-68600000D01*
X124700000Y-67900000D02*
X125300000Y-67900000D01*
X125300000Y-67900000D02*
G75*
G02X126000000Y-68600000I0J-700000D01*
G01*
X124000000Y-68600000D02*
G75*
G02X124700000Y-67900000I700000J0D01*
G01*
X124700000Y-70700000D02*
G75*
G02X124000000Y-70000000I0J700000D01*
G01*
X126000000Y-70000000D02*
G75*
G02X125300000Y-70700000I-700000J0D01*
G01*
X127400000Y-134400000D02*
X128800000Y-134400000D01*
X129500000Y-135100000D02*
X129500000Y-135700000D01*
X128800000Y-136400000D02*
X127400000Y-136400000D01*
X126700000Y-135700000D02*
X126700000Y-135100000D01*
X126700000Y-135100000D02*
G75*
G02X127400000Y-134400000I700000J0D01*
G01*
X127400000Y-136400000D02*
G75*
G02X126700000Y-135700000I0J700000D01*
G01*
X129500000Y-135700000D02*
G75*
G02X128800000Y-136400000I-700000J0D01*
G01*
X128800000Y-134400000D02*
G75*
G02X129500000Y-135100000I0J-700000D01*
G01*
X112350000Y-129100000D02*
X110950000Y-129100000D01*
X110250000Y-128400000D02*
X110250000Y-127800000D01*
X110950000Y-127100000D02*
X112350000Y-127100000D01*
X113050000Y-127800000D02*
X113050000Y-128400000D01*
X113050000Y-128400000D02*
G75*
G02X112350000Y-129100000I-700000J0D01*
G01*
X112350000Y-127100000D02*
G75*
G02X113050000Y-127800000I0J-700000D01*
G01*
X110250000Y-127800000D02*
G75*
G02X110950000Y-127100000I700000J0D01*
G01*
X110950000Y-129100000D02*
G75*
G02X110250000Y-128400000I0J700000D01*
G01*
X112350000Y-131800000D02*
X110950000Y-131800000D01*
X110250000Y-131100000D02*
X110250000Y-130500000D01*
X110950000Y-129800000D02*
X112350000Y-129800000D01*
X113050000Y-130500000D02*
X113050000Y-131100000D01*
X113050000Y-131100000D02*
G75*
G02X112350000Y-131800000I-700000J0D01*
G01*
X112350000Y-129800000D02*
G75*
G02X113050000Y-130500000I0J-700000D01*
G01*
X110250000Y-130500000D02*
G75*
G02X110950000Y-129800000I700000J0D01*
G01*
X110950000Y-131800000D02*
G75*
G02X110250000Y-131100000I0J700000D01*
G01*
X148670000Y-135170000D02*
X148670000Y-136500000D01*
X147340000Y-135170000D02*
X148670000Y-135170000D01*
X146070000Y-135170000D02*
X146070000Y-137830000D01*
X146070000Y-137830000D02*
X140930000Y-137830000D01*
X146070000Y-135170000D02*
X140930000Y-135170000D01*
X140930000Y-135170000D02*
X140930000Y-137830000D01*
X122730000Y-138230000D02*
X121400000Y-138230000D01*
X122730000Y-136900000D02*
X122730000Y-138230000D01*
X122730000Y-135630000D02*
X120070000Y-135630000D01*
X120070000Y-135630000D02*
X120070000Y-127950000D01*
X122730000Y-135630000D02*
X122730000Y-127950000D01*
X122730000Y-127950000D02*
X120070000Y-127950000D01*
X124970000Y-58220000D02*
X124970000Y-61780000D01*
X127630000Y-60760000D02*
X127630000Y-63870000D01*
X127630000Y-63300000D02*
X127630000Y-63870000D01*
X124970000Y-56130000D02*
X124970000Y-56700000D01*
X124970000Y-56700000D02*
X123450000Y-56700000D01*
X127630000Y-56130000D02*
X127630000Y-59240000D01*
X124970000Y-63870000D02*
X127630000Y-63870000D01*
X124970000Y-56130000D02*
X127630000Y-56130000D01*
D11*
X114138095Y-66002380D02*
X114709523Y-66002380D01*
X114423809Y-67002380D02*
X114423809Y-66002380D01*
X115614285Y-67002380D02*
X115280952Y-66526190D01*
X115042857Y-67002380D02*
X115042857Y-66002380D01*
X115423809Y-66002380D01*
X115519047Y-66050000D01*
X115566666Y-66097619D01*
X115614285Y-66192857D01*
X115614285Y-66335714D01*
X115566666Y-66430952D01*
X115519047Y-66478571D01*
X115423809Y-66526190D01*
X115042857Y-66526190D01*
X116471428Y-66335714D02*
X116471428Y-67002380D01*
X116233333Y-65954761D02*
X115995238Y-66669047D01*
X116614285Y-66669047D01*
X108902380Y-71042857D02*
X108426190Y-71376190D01*
X108902380Y-71614285D02*
X107902380Y-71614285D01*
X107902380Y-71233333D01*
X107950000Y-71138095D01*
X107997619Y-71090476D01*
X108092857Y-71042857D01*
X108235714Y-71042857D01*
X108330952Y-71090476D01*
X108378571Y-71138095D01*
X108426190Y-71233333D01*
X108426190Y-71614285D01*
X108902380Y-70090476D02*
X108902380Y-70661904D01*
X108902380Y-70376190D02*
X107902380Y-70376190D01*
X108045238Y-70471428D01*
X108140476Y-70566666D01*
X108188095Y-70661904D01*
X107902380Y-69233333D02*
X107902380Y-69423809D01*
X107950000Y-69519047D01*
X107997619Y-69566666D01*
X108140476Y-69661904D01*
X108330952Y-69709523D01*
X108711904Y-69709523D01*
X108807142Y-69661904D01*
X108854761Y-69614285D01*
X108902380Y-69519047D01*
X108902380Y-69328571D01*
X108854761Y-69233333D01*
X108807142Y-69185714D01*
X108711904Y-69138095D01*
X108473809Y-69138095D01*
X108378571Y-69185714D01*
X108330952Y-69233333D01*
X108283333Y-69328571D01*
X108283333Y-69519047D01*
X108330952Y-69614285D01*
X108378571Y-69661904D01*
X108473809Y-69709523D01*
X121352380Y-66042857D02*
X120876190Y-66376190D01*
X121352380Y-66614285D02*
X120352380Y-66614285D01*
X120352380Y-66233333D01*
X120400000Y-66138095D01*
X120447619Y-66090476D01*
X120542857Y-66042857D01*
X120685714Y-66042857D01*
X120780952Y-66090476D01*
X120828571Y-66138095D01*
X120876190Y-66233333D01*
X120876190Y-66614285D01*
X121352380Y-65090476D02*
X121352380Y-65661904D01*
X121352380Y-65376190D02*
X120352380Y-65376190D01*
X120495238Y-65471428D01*
X120590476Y-65566666D01*
X120638095Y-65661904D01*
X120352380Y-64185714D02*
X120352380Y-64661904D01*
X120828571Y-64709523D01*
X120780952Y-64661904D01*
X120733333Y-64566666D01*
X120733333Y-64328571D01*
X120780952Y-64233333D01*
X120828571Y-64185714D01*
X120923809Y-64138095D01*
X121161904Y-64138095D01*
X121257142Y-64185714D01*
X121304761Y-64233333D01*
X121352380Y-64328571D01*
X121352380Y-64566666D01*
X121304761Y-64661904D01*
X121257142Y-64709523D01*
X112352380Y-66438095D02*
X111352380Y-66438095D01*
X111352380Y-66200000D01*
X111400000Y-66057142D01*
X111495238Y-65961904D01*
X111590476Y-65914285D01*
X111780952Y-65866666D01*
X111923809Y-65866666D01*
X112114285Y-65914285D01*
X112209523Y-65961904D01*
X112304761Y-66057142D01*
X112352380Y-66200000D01*
X112352380Y-66438095D01*
X111447619Y-65485714D02*
X111400000Y-65438095D01*
X111352380Y-65342857D01*
X111352380Y-65104761D01*
X111400000Y-65009523D01*
X111447619Y-64961904D01*
X111542857Y-64914285D01*
X111638095Y-64914285D01*
X111780952Y-64961904D01*
X112352380Y-65533333D01*
X112352380Y-64914285D01*
X162663096Y-101677381D02*
X162663096Y-102486905D01*
X162710715Y-102582143D01*
X162758334Y-102629762D01*
X162853572Y-102677381D01*
X163044048Y-102677381D01*
X163139286Y-102629762D01*
X163186905Y-102582143D01*
X163234524Y-102486905D01*
X163234524Y-101677381D01*
X164186905Y-101677381D02*
X163710715Y-101677381D01*
X163663096Y-102153572D01*
X163710715Y-102105953D01*
X163805953Y-102058334D01*
X164044048Y-102058334D01*
X164139286Y-102105953D01*
X164186905Y-102153572D01*
X164234524Y-102248810D01*
X164234524Y-102486905D01*
X164186905Y-102582143D01*
X164139286Y-102629762D01*
X164044048Y-102677381D01*
X163805953Y-102677381D01*
X163710715Y-102629762D01*
X163663096Y-102582143D01*
X170902380Y-105342857D02*
X170426190Y-105676190D01*
X170902380Y-105914285D02*
X169902380Y-105914285D01*
X169902380Y-105533333D01*
X169950000Y-105438095D01*
X169997619Y-105390476D01*
X170092857Y-105342857D01*
X170235714Y-105342857D01*
X170330952Y-105390476D01*
X170378571Y-105438095D01*
X170426190Y-105533333D01*
X170426190Y-105914285D01*
X170902380Y-104390476D02*
X170902380Y-104961904D01*
X170902380Y-104676190D02*
X169902380Y-104676190D01*
X170045238Y-104771428D01*
X170140476Y-104866666D01*
X170188095Y-104961904D01*
X169997619Y-104009523D02*
X169950000Y-103961904D01*
X169902380Y-103866666D01*
X169902380Y-103628571D01*
X169950000Y-103533333D01*
X169997619Y-103485714D01*
X170092857Y-103438095D01*
X170188095Y-103438095D01*
X170330952Y-103485714D01*
X170902380Y-104057142D01*
X170902380Y-103438095D01*
X169357142Y-64342857D02*
X169404761Y-64390476D01*
X169452380Y-64533333D01*
X169452380Y-64628571D01*
X169404761Y-64771428D01*
X169309523Y-64866666D01*
X169214285Y-64914285D01*
X169023809Y-64961904D01*
X168880952Y-64961904D01*
X168690476Y-64914285D01*
X168595238Y-64866666D01*
X168500000Y-64771428D01*
X168452380Y-64628571D01*
X168452380Y-64533333D01*
X168500000Y-64390476D01*
X168547619Y-64342857D01*
X169452380Y-63390476D02*
X169452380Y-63961904D01*
X169452380Y-63676190D02*
X168452380Y-63676190D01*
X168595238Y-63771428D01*
X168690476Y-63866666D01*
X168738095Y-63961904D01*
X168452380Y-63057142D02*
X168452380Y-62438095D01*
X168833333Y-62771428D01*
X168833333Y-62628571D01*
X168880952Y-62533333D01*
X168928571Y-62485714D01*
X169023809Y-62438095D01*
X169261904Y-62438095D01*
X169357142Y-62485714D01*
X169404761Y-62533333D01*
X169452380Y-62628571D01*
X169452380Y-62914285D01*
X169404761Y-63009523D01*
X169357142Y-63057142D01*
X178182380Y-102138095D02*
X177182380Y-102138095D01*
X177182380Y-101900000D01*
X177230000Y-101757142D01*
X177325238Y-101661904D01*
X177420476Y-101614285D01*
X177610952Y-101566666D01*
X177753809Y-101566666D01*
X177944285Y-101614285D01*
X178039523Y-101661904D01*
X178134761Y-101757142D01*
X178182380Y-101900000D01*
X178182380Y-102138095D01*
X178087142Y-100566666D02*
X178134761Y-100614285D01*
X178182380Y-100757142D01*
X178182380Y-100852380D01*
X178134761Y-100995238D01*
X178039523Y-101090476D01*
X177944285Y-101138095D01*
X177753809Y-101185714D01*
X177610952Y-101185714D01*
X177420476Y-101138095D01*
X177325238Y-101090476D01*
X177230000Y-100995238D01*
X177182380Y-100852380D01*
X177182380Y-100757142D01*
X177230000Y-100614285D01*
X177277619Y-100566666D01*
X178182380Y-100138095D02*
X177182380Y-100138095D01*
X177182380Y-99900000D01*
X177230000Y-99757142D01*
X177325238Y-99661904D01*
X177420476Y-99614285D01*
X177610952Y-99566666D01*
X177753809Y-99566666D01*
X177944285Y-99614285D01*
X178039523Y-99661904D01*
X178134761Y-99757142D01*
X178182380Y-99900000D01*
X178182380Y-100138095D01*
X178087142Y-98566666D02*
X178134761Y-98614285D01*
X178182380Y-98757142D01*
X178182380Y-98852380D01*
X178134761Y-98995238D01*
X178039523Y-99090476D01*
X177944285Y-99138095D01*
X177753809Y-99185714D01*
X177610952Y-99185714D01*
X177420476Y-99138095D01*
X177325238Y-99090476D01*
X177230000Y-98995238D01*
X177182380Y-98852380D01*
X177182380Y-98757142D01*
X177230000Y-98614285D01*
X177277619Y-98566666D01*
X178182380Y-97614285D02*
X178182380Y-98185714D01*
X178182380Y-97900000D02*
X177182380Y-97900000D01*
X177325238Y-97995238D01*
X177420476Y-98090476D01*
X177468095Y-98185714D01*
X167138095Y-132052380D02*
X167138095Y-132861904D01*
X167185714Y-132957142D01*
X167233333Y-133004761D01*
X167328571Y-133052380D01*
X167519047Y-133052380D01*
X167614285Y-133004761D01*
X167661904Y-132957142D01*
X167709523Y-132861904D01*
X167709523Y-132052380D01*
X168328571Y-132480952D02*
X168233333Y-132433333D01*
X168185714Y-132385714D01*
X168138095Y-132290476D01*
X168138095Y-132242857D01*
X168185714Y-132147619D01*
X168233333Y-132100000D01*
X168328571Y-132052380D01*
X168519047Y-132052380D01*
X168614285Y-132100000D01*
X168661904Y-132147619D01*
X168709523Y-132242857D01*
X168709523Y-132290476D01*
X168661904Y-132385714D01*
X168614285Y-132433333D01*
X168519047Y-132480952D01*
X168328571Y-132480952D01*
X168233333Y-132528571D01*
X168185714Y-132576190D01*
X168138095Y-132671428D01*
X168138095Y-132861904D01*
X168185714Y-132957142D01*
X168233333Y-133004761D01*
X168328571Y-133052380D01*
X168519047Y-133052380D01*
X168614285Y-133004761D01*
X168661904Y-132957142D01*
X168709523Y-132861904D01*
X168709523Y-132671428D01*
X168661904Y-132576190D01*
X168614285Y-132528571D01*
X168519047Y-132480952D01*
X156752380Y-58361904D02*
X157561904Y-58361904D01*
X157657142Y-58314285D01*
X157704761Y-58266666D01*
X157752380Y-58171428D01*
X157752380Y-57980952D01*
X157704761Y-57885714D01*
X157657142Y-57838095D01*
X157561904Y-57790476D01*
X156752380Y-57790476D01*
X156752380Y-56885714D02*
X156752380Y-57076190D01*
X156800000Y-57171428D01*
X156847619Y-57219047D01*
X156990476Y-57314285D01*
X157180952Y-57361904D01*
X157561904Y-57361904D01*
X157657142Y-57314285D01*
X157704761Y-57266666D01*
X157752380Y-57171428D01*
X157752380Y-56980952D01*
X157704761Y-56885714D01*
X157657142Y-56838095D01*
X157561904Y-56790476D01*
X157323809Y-56790476D01*
X157228571Y-56838095D01*
X157180952Y-56885714D01*
X157133333Y-56980952D01*
X157133333Y-57171428D01*
X157180952Y-57266666D01*
X157228571Y-57314285D01*
X157323809Y-57361904D01*
X133342380Y-70991904D02*
X134151904Y-70991904D01*
X134247142Y-70944285D01*
X134294761Y-70896666D01*
X134342380Y-70801428D01*
X134342380Y-70610952D01*
X134294761Y-70515714D01*
X134247142Y-70468095D01*
X134151904Y-70420476D01*
X133342380Y-70420476D01*
X133675714Y-69515714D02*
X134342380Y-69515714D01*
X133294761Y-69753809D02*
X134009047Y-69991904D01*
X134009047Y-69372857D01*
X114438095Y-121452380D02*
X115009523Y-121452380D01*
X114723809Y-122452380D02*
X114723809Y-121452380D01*
X115914285Y-122452380D02*
X115580952Y-121976190D01*
X115342857Y-122452380D02*
X115342857Y-121452380D01*
X115723809Y-121452380D01*
X115819047Y-121500000D01*
X115866666Y-121547619D01*
X115914285Y-121642857D01*
X115914285Y-121785714D01*
X115866666Y-121880952D01*
X115819047Y-121928571D01*
X115723809Y-121976190D01*
X115342857Y-121976190D01*
X116247619Y-121452380D02*
X116866666Y-121452380D01*
X116533333Y-121833333D01*
X116676190Y-121833333D01*
X116771428Y-121880952D01*
X116819047Y-121928571D01*
X116866666Y-122023809D01*
X116866666Y-122261904D01*
X116819047Y-122357142D01*
X116771428Y-122404761D01*
X116676190Y-122452380D01*
X116390476Y-122452380D01*
X116295238Y-122404761D01*
X116247619Y-122357142D01*
X118938095Y-121352380D02*
X119509523Y-121352380D01*
X119223809Y-122352380D02*
X119223809Y-121352380D01*
X120414285Y-122352380D02*
X120080952Y-121876190D01*
X119842857Y-122352380D02*
X119842857Y-121352380D01*
X120223809Y-121352380D01*
X120319047Y-121400000D01*
X120366666Y-121447619D01*
X120414285Y-121542857D01*
X120414285Y-121685714D01*
X120366666Y-121780952D01*
X120319047Y-121828571D01*
X120223809Y-121876190D01*
X119842857Y-121876190D01*
X120795238Y-121447619D02*
X120842857Y-121400000D01*
X120938095Y-121352380D01*
X121176190Y-121352380D01*
X121271428Y-121400000D01*
X121319047Y-121447619D01*
X121366666Y-121542857D01*
X121366666Y-121638095D01*
X121319047Y-121780952D01*
X120747619Y-122352380D01*
X121366666Y-122352380D01*
X118552380Y-55861904D02*
X118552380Y-55290476D01*
X119552380Y-55576190D02*
X118552380Y-55576190D01*
X119552380Y-54385714D02*
X119076190Y-54719047D01*
X119552380Y-54957142D02*
X118552380Y-54957142D01*
X118552380Y-54576190D01*
X118600000Y-54480952D01*
X118647619Y-54433333D01*
X118742857Y-54385714D01*
X118885714Y-54385714D01*
X118980952Y-54433333D01*
X119028571Y-54480952D01*
X119076190Y-54576190D01*
X119076190Y-54957142D01*
X119552380Y-53433333D02*
X119552380Y-54004761D01*
X119552380Y-53719047D02*
X118552380Y-53719047D01*
X118695238Y-53814285D01*
X118790476Y-53909523D01*
X118838095Y-54004761D01*
X171257142Y-130502380D02*
X170923809Y-130026190D01*
X170685714Y-130502380D02*
X170685714Y-129502380D01*
X171066666Y-129502380D01*
X171161904Y-129550000D01*
X171209523Y-129597619D01*
X171257142Y-129692857D01*
X171257142Y-129835714D01*
X171209523Y-129930952D01*
X171161904Y-129978571D01*
X171066666Y-130026190D01*
X170685714Y-130026190D01*
X172209523Y-130502380D02*
X171638095Y-130502380D01*
X171923809Y-130502380D02*
X171923809Y-129502380D01*
X171828571Y-129645238D01*
X171733333Y-129740476D01*
X171638095Y-129788095D01*
X173066666Y-129835714D02*
X173066666Y-130502380D01*
X172828571Y-129454761D02*
X172590476Y-130169047D01*
X173209523Y-130169047D01*
X163657142Y-142702380D02*
X163323809Y-142226190D01*
X163085714Y-142702380D02*
X163085714Y-141702380D01*
X163466666Y-141702380D01*
X163561904Y-141750000D01*
X163609523Y-141797619D01*
X163657142Y-141892857D01*
X163657142Y-142035714D01*
X163609523Y-142130952D01*
X163561904Y-142178571D01*
X163466666Y-142226190D01*
X163085714Y-142226190D01*
X164609523Y-142702380D02*
X164038095Y-142702380D01*
X164323809Y-142702380D02*
X164323809Y-141702380D01*
X164228571Y-141845238D01*
X164133333Y-141940476D01*
X164038095Y-141988095D01*
X164942857Y-141702380D02*
X165561904Y-141702380D01*
X165228571Y-142083333D01*
X165371428Y-142083333D01*
X165466666Y-142130952D01*
X165514285Y-142178571D01*
X165561904Y-142273809D01*
X165561904Y-142511904D01*
X165514285Y-142607142D01*
X165466666Y-142654761D01*
X165371428Y-142702380D01*
X165085714Y-142702380D01*
X164990476Y-142654761D01*
X164942857Y-142607142D01*
X110857142Y-122002380D02*
X110523809Y-121526190D01*
X110285714Y-122002380D02*
X110285714Y-121002380D01*
X110666666Y-121002380D01*
X110761904Y-121050000D01*
X110809523Y-121097619D01*
X110857142Y-121192857D01*
X110857142Y-121335714D01*
X110809523Y-121430952D01*
X110761904Y-121478571D01*
X110666666Y-121526190D01*
X110285714Y-121526190D01*
X111809523Y-122002380D02*
X111238095Y-122002380D01*
X111523809Y-122002380D02*
X111523809Y-121002380D01*
X111428571Y-121145238D01*
X111333333Y-121240476D01*
X111238095Y-121288095D01*
X112761904Y-122002380D02*
X112190476Y-122002380D01*
X112476190Y-122002380D02*
X112476190Y-121002380D01*
X112380952Y-121145238D01*
X112285714Y-121240476D01*
X112190476Y-121288095D01*
X114057142Y-114152380D02*
X113723809Y-113676190D01*
X113485714Y-114152380D02*
X113485714Y-113152380D01*
X113866666Y-113152380D01*
X113961904Y-113200000D01*
X114009523Y-113247619D01*
X114057142Y-113342857D01*
X114057142Y-113485714D01*
X114009523Y-113580952D01*
X113961904Y-113628571D01*
X113866666Y-113676190D01*
X113485714Y-113676190D01*
X115009523Y-114152380D02*
X114438095Y-114152380D01*
X114723809Y-114152380D02*
X114723809Y-113152380D01*
X114628571Y-113295238D01*
X114533333Y-113390476D01*
X114438095Y-113438095D01*
X115628571Y-113152380D02*
X115723809Y-113152380D01*
X115819047Y-113200000D01*
X115866666Y-113247619D01*
X115914285Y-113342857D01*
X115961904Y-113533333D01*
X115961904Y-113771428D01*
X115914285Y-113961904D01*
X115866666Y-114057142D01*
X115819047Y-114104761D01*
X115723809Y-114152380D01*
X115628571Y-114152380D01*
X115533333Y-114104761D01*
X115485714Y-114057142D01*
X115438095Y-113961904D01*
X115390476Y-113771428D01*
X115390476Y-113533333D01*
X115438095Y-113342857D01*
X115485714Y-113247619D01*
X115533333Y-113200000D01*
X115628571Y-113152380D01*
X118133333Y-114602380D02*
X117800000Y-114126190D01*
X117561904Y-114602380D02*
X117561904Y-113602380D01*
X117942857Y-113602380D01*
X118038095Y-113650000D01*
X118085714Y-113697619D01*
X118133333Y-113792857D01*
X118133333Y-113935714D01*
X118085714Y-114030952D01*
X118038095Y-114078571D01*
X117942857Y-114126190D01*
X117561904Y-114126190D01*
X118609523Y-114602380D02*
X118800000Y-114602380D01*
X118895238Y-114554761D01*
X118942857Y-114507142D01*
X119038095Y-114364285D01*
X119085714Y-114173809D01*
X119085714Y-113792857D01*
X119038095Y-113697619D01*
X118990476Y-113650000D01*
X118895238Y-113602380D01*
X118704761Y-113602380D01*
X118609523Y-113650000D01*
X118561904Y-113697619D01*
X118514285Y-113792857D01*
X118514285Y-114030952D01*
X118561904Y-114126190D01*
X118609523Y-114173809D01*
X118704761Y-114221428D01*
X118895238Y-114221428D01*
X118990476Y-114173809D01*
X119038095Y-114126190D01*
X119085714Y-114030952D01*
X162352380Y-115366666D02*
X161876190Y-115700000D01*
X162352380Y-115938095D02*
X161352380Y-115938095D01*
X161352380Y-115557142D01*
X161400000Y-115461904D01*
X161447619Y-115414285D01*
X161542857Y-115366666D01*
X161685714Y-115366666D01*
X161780952Y-115414285D01*
X161828571Y-115461904D01*
X161876190Y-115557142D01*
X161876190Y-115938095D01*
X161780952Y-114795238D02*
X161733333Y-114890476D01*
X161685714Y-114938095D01*
X161590476Y-114985714D01*
X161542857Y-114985714D01*
X161447619Y-114938095D01*
X161400000Y-114890476D01*
X161352380Y-114795238D01*
X161352380Y-114604761D01*
X161400000Y-114509523D01*
X161447619Y-114461904D01*
X161542857Y-114414285D01*
X161590476Y-114414285D01*
X161685714Y-114461904D01*
X161733333Y-114509523D01*
X161780952Y-114604761D01*
X161780952Y-114795238D01*
X161828571Y-114890476D01*
X161876190Y-114938095D01*
X161971428Y-114985714D01*
X162161904Y-114985714D01*
X162257142Y-114938095D01*
X162304761Y-114890476D01*
X162352380Y-114795238D01*
X162352380Y-114604761D01*
X162304761Y-114509523D01*
X162257142Y-114461904D01*
X162161904Y-114414285D01*
X161971428Y-114414285D01*
X161876190Y-114461904D01*
X161828571Y-114509523D01*
X161780952Y-114604761D01*
X160733333Y-109352380D02*
X160400000Y-108876190D01*
X160161904Y-109352380D02*
X160161904Y-108352380D01*
X160542857Y-108352380D01*
X160638095Y-108400000D01*
X160685714Y-108447619D01*
X160733333Y-108542857D01*
X160733333Y-108685714D01*
X160685714Y-108780952D01*
X160638095Y-108828571D01*
X160542857Y-108876190D01*
X160161904Y-108876190D01*
X161066666Y-108352380D02*
X161733333Y-108352380D01*
X161304761Y-109352380D01*
X112752380Y-55366666D02*
X112276190Y-55700000D01*
X112752380Y-55938095D02*
X111752380Y-55938095D01*
X111752380Y-55557142D01*
X111800000Y-55461904D01*
X111847619Y-55414285D01*
X111942857Y-55366666D01*
X112085714Y-55366666D01*
X112180952Y-55414285D01*
X112228571Y-55461904D01*
X112276190Y-55557142D01*
X112276190Y-55938095D01*
X111847619Y-54985714D02*
X111800000Y-54938095D01*
X111752380Y-54842857D01*
X111752380Y-54604761D01*
X111800000Y-54509523D01*
X111847619Y-54461904D01*
X111942857Y-54414285D01*
X112038095Y-54414285D01*
X112180952Y-54461904D01*
X112752380Y-55033333D01*
X112752380Y-54414285D01*
X108190476Y-114652380D02*
X108190476Y-113652380D01*
X108523809Y-114366666D01*
X108857142Y-113652380D01*
X108857142Y-114652380D01*
X109285714Y-113747619D02*
X109333333Y-113700000D01*
X109428571Y-113652380D01*
X109666666Y-113652380D01*
X109761904Y-113700000D01*
X109809523Y-113747619D01*
X109857142Y-113842857D01*
X109857142Y-113938095D01*
X109809523Y-114080952D01*
X109238095Y-114652380D01*
X109857142Y-114652380D01*
X117690476Y-61252380D02*
X117690476Y-60252380D01*
X118023809Y-60966666D01*
X118357142Y-60252380D01*
X118357142Y-61252380D01*
X119357142Y-61252380D02*
X118785714Y-61252380D01*
X119071428Y-61252380D02*
X119071428Y-60252380D01*
X118976190Y-60395238D01*
X118880952Y-60490476D01*
X118785714Y-60538095D01*
X176152380Y-131233333D02*
X176866666Y-131233333D01*
X177009523Y-131280952D01*
X177104761Y-131376190D01*
X177152380Y-131519047D01*
X177152380Y-131614285D01*
X177152380Y-130757142D02*
X176152380Y-130757142D01*
X176152380Y-130376190D01*
X176200000Y-130280952D01*
X176247619Y-130233333D01*
X176342857Y-130185714D01*
X176485714Y-130185714D01*
X176580952Y-130233333D01*
X176628571Y-130280952D01*
X176676190Y-130376190D01*
X176676190Y-130757142D01*
X176152380Y-129852380D02*
X176152380Y-129185714D01*
X177152380Y-129614285D01*
X178852380Y-131133333D02*
X179566666Y-131133333D01*
X179709523Y-131180952D01*
X179804761Y-131276190D01*
X179852380Y-131419047D01*
X179852380Y-131514285D01*
X179852380Y-130657142D02*
X178852380Y-130657142D01*
X178852380Y-130276190D01*
X178900000Y-130180952D01*
X178947619Y-130133333D01*
X179042857Y-130085714D01*
X179185714Y-130085714D01*
X179280952Y-130133333D01*
X179328571Y-130180952D01*
X179376190Y-130276190D01*
X179376190Y-130657142D01*
X178852380Y-129228571D02*
X178852380Y-129419047D01*
X178900000Y-129514285D01*
X178947619Y-129561904D01*
X179090476Y-129657142D01*
X179280952Y-129704761D01*
X179661904Y-129704761D01*
X179757142Y-129657142D01*
X179804761Y-129609523D01*
X179852380Y-129514285D01*
X179852380Y-129323809D01*
X179804761Y-129228571D01*
X179757142Y-129180952D01*
X179661904Y-129133333D01*
X179423809Y-129133333D01*
X179328571Y-129180952D01*
X179280952Y-129228571D01*
X179233333Y-129323809D01*
X179233333Y-129514285D01*
X179280952Y-129609523D01*
X179328571Y-129657142D01*
X179423809Y-129704761D01*
X127266666Y-130352380D02*
X127266666Y-131066666D01*
X127219047Y-131209523D01*
X127123809Y-131304761D01*
X126980952Y-131352380D01*
X126885714Y-131352380D01*
X127742857Y-131352380D02*
X127742857Y-130352380D01*
X128123809Y-130352380D01*
X128219047Y-130400000D01*
X128266666Y-130447619D01*
X128314285Y-130542857D01*
X128314285Y-130685714D01*
X128266666Y-130780952D01*
X128219047Y-130828571D01*
X128123809Y-130876190D01*
X127742857Y-130876190D01*
X128695238Y-130447619D02*
X128742857Y-130400000D01*
X128838095Y-130352380D01*
X129076190Y-130352380D01*
X129171428Y-130400000D01*
X129219047Y-130447619D01*
X129266666Y-130542857D01*
X129266666Y-130638095D01*
X129219047Y-130780952D01*
X128647619Y-131352380D01*
X129266666Y-131352380D01*
X185266666Y-137752380D02*
X185266666Y-138466666D01*
X185219047Y-138609523D01*
X185123809Y-138704761D01*
X184980952Y-138752380D01*
X184885714Y-138752380D01*
X186171428Y-138085714D02*
X186171428Y-138752380D01*
X185933333Y-137704761D02*
X185695238Y-138419047D01*
X186314285Y-138419047D01*
X169502380Y-49083333D02*
X170216666Y-49083333D01*
X170359523Y-49130952D01*
X170454761Y-49226190D01*
X170502380Y-49369047D01*
X170502380Y-49464285D01*
X169502380Y-48702380D02*
X169502380Y-48083333D01*
X169883333Y-48416666D01*
X169883333Y-48273809D01*
X169930952Y-48178571D01*
X169978571Y-48130952D01*
X170073809Y-48083333D01*
X170311904Y-48083333D01*
X170407142Y-48130952D01*
X170454761Y-48178571D01*
X170502380Y-48273809D01*
X170502380Y-48559523D01*
X170454761Y-48654761D01*
X170407142Y-48702380D01*
X167107142Y-68942857D02*
X167154761Y-68990476D01*
X167202380Y-69133333D01*
X167202380Y-69228571D01*
X167154761Y-69371428D01*
X167059523Y-69466666D01*
X166964285Y-69514285D01*
X166773809Y-69561904D01*
X166630952Y-69561904D01*
X166440476Y-69514285D01*
X166345238Y-69466666D01*
X166250000Y-69371428D01*
X166202380Y-69228571D01*
X166202380Y-69133333D01*
X166250000Y-68990476D01*
X166297619Y-68942857D01*
X167202380Y-67990476D02*
X167202380Y-68561904D01*
X167202380Y-68276190D02*
X166202380Y-68276190D01*
X166345238Y-68371428D01*
X166440476Y-68466666D01*
X166488095Y-68561904D01*
X166535714Y-67133333D02*
X167202380Y-67133333D01*
X166154761Y-67371428D02*
X166869047Y-67609523D01*
X166869047Y-66990476D01*
X166957142Y-64142857D02*
X167004761Y-64190476D01*
X167052380Y-64333333D01*
X167052380Y-64428571D01*
X167004761Y-64571428D01*
X166909523Y-64666666D01*
X166814285Y-64714285D01*
X166623809Y-64761904D01*
X166480952Y-64761904D01*
X166290476Y-64714285D01*
X166195238Y-64666666D01*
X166100000Y-64571428D01*
X166052380Y-64428571D01*
X166052380Y-64333333D01*
X166100000Y-64190476D01*
X166147619Y-64142857D01*
X167052380Y-63190476D02*
X167052380Y-63761904D01*
X167052380Y-63476190D02*
X166052380Y-63476190D01*
X166195238Y-63571428D01*
X166290476Y-63666666D01*
X166338095Y-63761904D01*
X166147619Y-62809523D02*
X166100000Y-62761904D01*
X166052380Y-62666666D01*
X166052380Y-62428571D01*
X166100000Y-62333333D01*
X166147619Y-62285714D01*
X166242857Y-62238095D01*
X166338095Y-62238095D01*
X166480952Y-62285714D01*
X167052380Y-62857142D01*
X167052380Y-62238095D01*
X153357142Y-140807142D02*
X153309523Y-140854761D01*
X153166666Y-140902380D01*
X153071428Y-140902380D01*
X152928571Y-140854761D01*
X152833333Y-140759523D01*
X152785714Y-140664285D01*
X152738095Y-140473809D01*
X152738095Y-140330952D01*
X152785714Y-140140476D01*
X152833333Y-140045238D01*
X152928571Y-139950000D01*
X153071428Y-139902380D01*
X153166666Y-139902380D01*
X153309523Y-139950000D01*
X153357142Y-139997619D01*
X154309523Y-140902380D02*
X153738095Y-140902380D01*
X154023809Y-140902380D02*
X154023809Y-139902380D01*
X153928571Y-140045238D01*
X153833333Y-140140476D01*
X153738095Y-140188095D01*
X155261904Y-140902380D02*
X154690476Y-140902380D01*
X154976190Y-140902380D02*
X154976190Y-139902380D01*
X154880952Y-140045238D01*
X154785714Y-140140476D01*
X154690476Y-140188095D01*
X180333333Y-61857142D02*
X180285714Y-61904761D01*
X180142857Y-61952380D01*
X180047619Y-61952380D01*
X179904761Y-61904761D01*
X179809523Y-61809523D01*
X179761904Y-61714285D01*
X179714285Y-61523809D01*
X179714285Y-61380952D01*
X179761904Y-61190476D01*
X179809523Y-61095238D01*
X179904761Y-61000000D01*
X180047619Y-60952380D01*
X180142857Y-60952380D01*
X180285714Y-61000000D01*
X180333333Y-61047619D01*
X181190476Y-60952380D02*
X181000000Y-60952380D01*
X180904761Y-61000000D01*
X180857142Y-61047619D01*
X180761904Y-61190476D01*
X180714285Y-61380952D01*
X180714285Y-61761904D01*
X180761904Y-61857142D01*
X180809523Y-61904761D01*
X180904761Y-61952380D01*
X181095238Y-61952380D01*
X181190476Y-61904761D01*
X181238095Y-61857142D01*
X181285714Y-61761904D01*
X181285714Y-61523809D01*
X181238095Y-61428571D01*
X181190476Y-61380952D01*
X181095238Y-61333333D01*
X180904761Y-61333333D01*
X180809523Y-61380952D01*
X180761904Y-61428571D01*
X180714285Y-61523809D01*
X126833333Y-94707142D02*
X126785714Y-94754761D01*
X126642857Y-94802380D01*
X126547619Y-94802380D01*
X126404761Y-94754761D01*
X126309523Y-94659523D01*
X126261904Y-94564285D01*
X126214285Y-94373809D01*
X126214285Y-94230952D01*
X126261904Y-94040476D01*
X126309523Y-93945238D01*
X126404761Y-93850000D01*
X126547619Y-93802380D01*
X126642857Y-93802380D01*
X126785714Y-93850000D01*
X126833333Y-93897619D01*
X127214285Y-93897619D02*
X127261904Y-93850000D01*
X127357142Y-93802380D01*
X127595238Y-93802380D01*
X127690476Y-93850000D01*
X127738095Y-93897619D01*
X127785714Y-93992857D01*
X127785714Y-94088095D01*
X127738095Y-94230952D01*
X127166666Y-94802380D01*
X127785714Y-94802380D01*
X119133333Y-69907142D02*
X119085714Y-69954761D01*
X118942857Y-70002380D01*
X118847619Y-70002380D01*
X118704761Y-69954761D01*
X118609523Y-69859523D01*
X118561904Y-69764285D01*
X118514285Y-69573809D01*
X118514285Y-69430952D01*
X118561904Y-69240476D01*
X118609523Y-69145238D01*
X118704761Y-69050000D01*
X118847619Y-69002380D01*
X118942857Y-69002380D01*
X119085714Y-69050000D01*
X119133333Y-69097619D01*
X120085714Y-70002380D02*
X119514285Y-70002380D01*
X119800000Y-70002380D02*
X119800000Y-69002380D01*
X119704761Y-69145238D01*
X119609523Y-69240476D01*
X119514285Y-69288095D01*
X172357142Y-143457142D02*
X172309523Y-143504761D01*
X172166666Y-143552380D01*
X172071428Y-143552380D01*
X171928571Y-143504761D01*
X171833333Y-143409523D01*
X171785714Y-143314285D01*
X171738095Y-143123809D01*
X171738095Y-142980952D01*
X171785714Y-142790476D01*
X171833333Y-142695238D01*
X171928571Y-142600000D01*
X172071428Y-142552380D01*
X172166666Y-142552380D01*
X172309523Y-142600000D01*
X172357142Y-142647619D01*
X173309523Y-143552380D02*
X172738095Y-143552380D01*
X173023809Y-143552380D02*
X173023809Y-142552380D01*
X172928571Y-142695238D01*
X172833333Y-142790476D01*
X172738095Y-142838095D01*
X174166666Y-142552380D02*
X173976190Y-142552380D01*
X173880952Y-142600000D01*
X173833333Y-142647619D01*
X173738095Y-142790476D01*
X173690476Y-142980952D01*
X173690476Y-143361904D01*
X173738095Y-143457142D01*
X173785714Y-143504761D01*
X173880952Y-143552380D01*
X174071428Y-143552380D01*
X174166666Y-143504761D01*
X174214285Y-143457142D01*
X174261904Y-143361904D01*
X174261904Y-143123809D01*
X174214285Y-143028571D01*
X174166666Y-142980952D01*
X174071428Y-142933333D01*
X173880952Y-142933333D01*
X173785714Y-142980952D01*
X173738095Y-143028571D01*
X173690476Y-143123809D01*
X170433333Y-123337142D02*
X170385714Y-123384761D01*
X170242857Y-123432380D01*
X170147619Y-123432380D01*
X170004761Y-123384761D01*
X169909523Y-123289523D01*
X169861904Y-123194285D01*
X169814285Y-123003809D01*
X169814285Y-122860952D01*
X169861904Y-122670476D01*
X169909523Y-122575238D01*
X170004761Y-122480000D01*
X170147619Y-122432380D01*
X170242857Y-122432380D01*
X170385714Y-122480000D01*
X170433333Y-122527619D01*
X171338095Y-122432380D02*
X170861904Y-122432380D01*
X170814285Y-122908571D01*
X170861904Y-122860952D01*
X170957142Y-122813333D01*
X171195238Y-122813333D01*
X171290476Y-122860952D01*
X171338095Y-122908571D01*
X171385714Y-123003809D01*
X171385714Y-123241904D01*
X171338095Y-123337142D01*
X171290476Y-123384761D01*
X171195238Y-123432380D01*
X170957142Y-123432380D01*
X170861904Y-123384761D01*
X170814285Y-123337142D01*
X161633333Y-131652380D02*
X161157142Y-131652380D01*
X161157142Y-130652380D01*
X162490476Y-131652380D02*
X161919047Y-131652380D01*
X162204761Y-131652380D02*
X162204761Y-130652380D01*
X162109523Y-130795238D01*
X162014285Y-130890476D01*
X161919047Y-130938095D01*
X159661904Y-142952380D02*
X159661904Y-141952380D01*
X159900000Y-141952380D01*
X160042857Y-142000000D01*
X160138095Y-142095238D01*
X160185714Y-142190476D01*
X160233333Y-142380952D01*
X160233333Y-142523809D01*
X160185714Y-142714285D01*
X160138095Y-142809523D01*
X160042857Y-142904761D01*
X159900000Y-142952380D01*
X159661904Y-142952380D01*
X161090476Y-142285714D02*
X161090476Y-142952380D01*
X160852380Y-141904761D02*
X160614285Y-142619047D01*
X161233333Y-142619047D01*
X176457142Y-143457142D02*
X176409523Y-143504761D01*
X176266666Y-143552380D01*
X176171428Y-143552380D01*
X176028571Y-143504761D01*
X175933333Y-143409523D01*
X175885714Y-143314285D01*
X175838095Y-143123809D01*
X175838095Y-142980952D01*
X175885714Y-142790476D01*
X175933333Y-142695238D01*
X176028571Y-142600000D01*
X176171428Y-142552380D01*
X176266666Y-142552380D01*
X176409523Y-142600000D01*
X176457142Y-142647619D01*
X177409523Y-143552380D02*
X176838095Y-143552380D01*
X177123809Y-143552380D02*
X177123809Y-142552380D01*
X177028571Y-142695238D01*
X176933333Y-142790476D01*
X176838095Y-142838095D01*
X178314285Y-142552380D02*
X177838095Y-142552380D01*
X177790476Y-143028571D01*
X177838095Y-142980952D01*
X177933333Y-142933333D01*
X178171428Y-142933333D01*
X178266666Y-142980952D01*
X178314285Y-143028571D01*
X178361904Y-143123809D01*
X178361904Y-143361904D01*
X178314285Y-143457142D01*
X178266666Y-143504761D01*
X178171428Y-143552380D01*
X177933333Y-143552380D01*
X177838095Y-143504761D01*
X177790476Y-143457142D01*
X174533333Y-132437142D02*
X174485714Y-132484761D01*
X174342857Y-132532380D01*
X174247619Y-132532380D01*
X174104761Y-132484761D01*
X174009523Y-132389523D01*
X173961904Y-132294285D01*
X173914285Y-132103809D01*
X173914285Y-131960952D01*
X173961904Y-131770476D01*
X174009523Y-131675238D01*
X174104761Y-131580000D01*
X174247619Y-131532380D01*
X174342857Y-131532380D01*
X174485714Y-131580000D01*
X174533333Y-131627619D01*
X175009523Y-132532380D02*
X175200000Y-132532380D01*
X175295238Y-132484761D01*
X175342857Y-132437142D01*
X175438095Y-132294285D01*
X175485714Y-132103809D01*
X175485714Y-131722857D01*
X175438095Y-131627619D01*
X175390476Y-131580000D01*
X175295238Y-131532380D01*
X175104761Y-131532380D01*
X175009523Y-131580000D01*
X174961904Y-131627619D01*
X174914285Y-131722857D01*
X174914285Y-131960952D01*
X174961904Y-132056190D01*
X175009523Y-132103809D01*
X175104761Y-132151428D01*
X175295238Y-132151428D01*
X175390476Y-132103809D01*
X175438095Y-132056190D01*
X175485714Y-131960952D01*
X182328571Y-94785714D02*
X182376190Y-94642857D01*
X182423809Y-94595238D01*
X182519047Y-94547619D01*
X182661904Y-94547619D01*
X182757142Y-94595238D01*
X182804761Y-94642857D01*
X182852380Y-94738095D01*
X182852380Y-95119047D01*
X181852380Y-95119047D01*
X181852380Y-94785714D01*
X181900000Y-94690476D01*
X181947619Y-94642857D01*
X182042857Y-94595238D01*
X182138095Y-94595238D01*
X182233333Y-94642857D01*
X182280952Y-94690476D01*
X182328571Y-94785714D01*
X182328571Y-95119047D01*
X181852380Y-94261904D02*
X181852380Y-93690476D01*
X182852380Y-93976190D02*
X181852380Y-93976190D01*
X181947619Y-93404761D02*
X181900000Y-93357142D01*
X181852380Y-93261904D01*
X181852380Y-93023809D01*
X181900000Y-92928571D01*
X181947619Y-92880952D01*
X182042857Y-92833333D01*
X182138095Y-92833333D01*
X182280952Y-92880952D01*
X182852380Y-93452380D01*
X182852380Y-92833333D01*
X165438095Y-77552380D02*
X165438095Y-78361904D01*
X165485714Y-78457142D01*
X165533333Y-78504761D01*
X165628571Y-78552380D01*
X165819047Y-78552380D01*
X165914285Y-78504761D01*
X165961904Y-78457142D01*
X166009523Y-78361904D01*
X166009523Y-77552380D01*
X166390476Y-77552380D02*
X167057142Y-77552380D01*
X166628571Y-78552380D01*
X165161904Y-82852380D02*
X165161904Y-81852380D01*
X165400000Y-81852380D01*
X165542857Y-81900000D01*
X165638095Y-81995238D01*
X165685714Y-82090476D01*
X165733333Y-82280952D01*
X165733333Y-82423809D01*
X165685714Y-82614285D01*
X165638095Y-82709523D01*
X165542857Y-82804761D01*
X165400000Y-82852380D01*
X165161904Y-82852380D01*
X166685714Y-82852380D02*
X166114285Y-82852380D01*
X166400000Y-82852380D02*
X166400000Y-81852380D01*
X166304761Y-81995238D01*
X166209523Y-82090476D01*
X166114285Y-82138095D01*
X76011666Y-107102380D02*
X76011666Y-107816666D01*
X75964047Y-107959523D01*
X75868809Y-108054761D01*
X75725952Y-108102380D01*
X75630714Y-108102380D01*
X77011666Y-108102380D02*
X76440238Y-108102380D01*
X76725952Y-108102380D02*
X76725952Y-107102380D01*
X76630714Y-107245238D01*
X76535476Y-107340476D01*
X76440238Y-107388095D01*
X143238095Y-102152380D02*
X143238095Y-102961904D01*
X143285714Y-103057142D01*
X143333333Y-103104761D01*
X143428571Y-103152380D01*
X143619047Y-103152380D01*
X143714285Y-103104761D01*
X143761904Y-103057142D01*
X143809523Y-102961904D01*
X143809523Y-102152380D01*
X144190476Y-102152380D02*
X144809523Y-102152380D01*
X144476190Y-102533333D01*
X144619047Y-102533333D01*
X144714285Y-102580952D01*
X144761904Y-102628571D01*
X144809523Y-102723809D01*
X144809523Y-102961904D01*
X144761904Y-103057142D01*
X144714285Y-103104761D01*
X144619047Y-103152380D01*
X144333333Y-103152380D01*
X144238095Y-103104761D01*
X144190476Y-103057142D01*
X147904761Y-129223809D02*
X148019047Y-129261904D01*
X148209523Y-129261904D01*
X148285714Y-129223809D01*
X148323809Y-129185714D01*
X148361904Y-129109523D01*
X148361904Y-129033333D01*
X148323809Y-128957142D01*
X148285714Y-128919047D01*
X148209523Y-128880952D01*
X148057142Y-128842857D01*
X147980952Y-128804761D01*
X147942857Y-128766666D01*
X147904761Y-128690476D01*
X147904761Y-128614285D01*
X147942857Y-128538095D01*
X147980952Y-128500000D01*
X148057142Y-128461904D01*
X148247619Y-128461904D01*
X148361904Y-128500000D01*
X148628571Y-128461904D02*
X148819047Y-129261904D01*
X148971428Y-128690476D01*
X149123809Y-129261904D01*
X149314285Y-128461904D01*
X149619047Y-129261904D02*
X149619047Y-128461904D01*
X149809523Y-128461904D01*
X149923809Y-128500000D01*
X150000000Y-128576190D01*
X150038095Y-128652380D01*
X150076190Y-128804761D01*
X150076190Y-128919047D01*
X150038095Y-129071428D01*
X150000000Y-129147619D01*
X149923809Y-129223809D01*
X149809523Y-129261904D01*
X149619047Y-129261904D01*
X150419047Y-129261904D02*
X150419047Y-128461904D01*
X150952380Y-128461904D02*
X151104761Y-128461904D01*
X151180952Y-128500000D01*
X151257142Y-128576190D01*
X151295238Y-128728571D01*
X151295238Y-128995238D01*
X151257142Y-129147619D01*
X151180952Y-129223809D01*
X151104761Y-129261904D01*
X150952380Y-129261904D01*
X150876190Y-129223809D01*
X150800000Y-129147619D01*
X150761904Y-128995238D01*
X150761904Y-128728571D01*
X150800000Y-128576190D01*
X150876190Y-128500000D01*
X150952380Y-128461904D01*
X136490476Y-129223809D02*
X136604761Y-129261904D01*
X136795238Y-129261904D01*
X136871428Y-129223809D01*
X136909523Y-129185714D01*
X136947619Y-129109523D01*
X136947619Y-129033333D01*
X136909523Y-128957142D01*
X136871428Y-128919047D01*
X136795238Y-128880952D01*
X136642857Y-128842857D01*
X136566666Y-128804761D01*
X136528571Y-128766666D01*
X136490476Y-128690476D01*
X136490476Y-128614285D01*
X136528571Y-128538095D01*
X136566666Y-128500000D01*
X136642857Y-128461904D01*
X136833333Y-128461904D01*
X136947619Y-128500000D01*
X137214285Y-128461904D02*
X137404761Y-129261904D01*
X137557142Y-128690476D01*
X137709523Y-129261904D01*
X137900000Y-128461904D01*
X138661904Y-129185714D02*
X138623809Y-129223809D01*
X138509523Y-129261904D01*
X138433333Y-129261904D01*
X138319047Y-129223809D01*
X138242857Y-129147619D01*
X138204761Y-129071428D01*
X138166666Y-128919047D01*
X138166666Y-128804761D01*
X138204761Y-128652380D01*
X138242857Y-128576190D01*
X138319047Y-128500000D01*
X138433333Y-128461904D01*
X138509523Y-128461904D01*
X138623809Y-128500000D01*
X138661904Y-128538095D01*
X139385714Y-129261904D02*
X139004761Y-129261904D01*
X139004761Y-128461904D01*
X139652380Y-129261904D02*
X139652380Y-128461904D01*
X140109523Y-129261904D02*
X139766666Y-128804761D01*
X140109523Y-128461904D02*
X139652380Y-128919047D01*
X156151597Y-97440964D02*
X156420971Y-97171590D01*
X156259346Y-97656463D02*
X155882223Y-96902216D01*
X156636470Y-97279340D01*
X156582595Y-96255719D02*
X156501783Y-96282656D01*
X156420971Y-96363468D01*
X156367096Y-96471218D01*
X156367096Y-96578967D01*
X156394033Y-96659780D01*
X156474845Y-96794467D01*
X156555658Y-96875279D01*
X156690345Y-96956091D01*
X156771157Y-96983028D01*
X156878906Y-96983028D01*
X156986656Y-96929154D01*
X157040531Y-96875279D01*
X157094406Y-96767529D01*
X157094406Y-96713654D01*
X156905844Y-96525093D01*
X156798094Y-96632842D01*
X157390717Y-96525093D02*
X156825032Y-95959407D01*
X157713966Y-96201844D01*
X157148280Y-95636158D01*
X157983340Y-95932470D02*
X157417654Y-95366784D01*
X157552341Y-95232097D01*
X157660091Y-95178223D01*
X157767841Y-95178223D01*
X157848653Y-95205160D01*
X157983340Y-95285972D01*
X158064152Y-95366784D01*
X158144964Y-95501471D01*
X158171902Y-95582284D01*
X158171902Y-95690033D01*
X158118027Y-95797783D01*
X157983340Y-95932470D01*
X156086158Y-83798155D02*
X156005346Y-83825093D01*
X155924534Y-83905905D01*
X155870659Y-84013654D01*
X155870659Y-84121404D01*
X155897597Y-84202216D01*
X155978409Y-84336903D01*
X156059221Y-84417715D01*
X156193908Y-84498528D01*
X156274720Y-84525465D01*
X156382470Y-84525465D01*
X156490219Y-84471590D01*
X156544094Y-84417715D01*
X156597969Y-84309966D01*
X156597969Y-84256091D01*
X156409407Y-84067529D01*
X156301658Y-84175279D01*
X156894280Y-84067529D02*
X156328595Y-83501844D01*
X157217529Y-83744280D01*
X156651844Y-83178595D01*
X157486903Y-83474906D02*
X156921218Y-82909221D01*
X157055905Y-82774534D01*
X157163654Y-82720659D01*
X157271404Y-82720659D01*
X157352216Y-82747597D01*
X157486903Y-82828409D01*
X157567715Y-82909221D01*
X157648528Y-83043908D01*
X157675465Y-83124720D01*
X157675465Y-83232470D01*
X157621590Y-83340219D01*
X157486903Y-83474906D01*
X156086158Y-109198155D02*
X156005346Y-109225093D01*
X155924534Y-109305905D01*
X155870659Y-109413654D01*
X155870659Y-109521404D01*
X155897597Y-109602216D01*
X155978409Y-109736903D01*
X156059221Y-109817715D01*
X156193908Y-109898528D01*
X156274720Y-109925465D01*
X156382470Y-109925465D01*
X156490219Y-109871590D01*
X156544094Y-109817715D01*
X156597969Y-109709966D01*
X156597969Y-109656091D01*
X156409407Y-109467529D01*
X156301658Y-109575279D01*
X156894280Y-109467529D02*
X156328595Y-108901844D01*
X157217529Y-109144280D01*
X156651844Y-108578595D01*
X157486903Y-108874906D02*
X156921218Y-108309221D01*
X157055905Y-108174534D01*
X157163654Y-108120659D01*
X157271404Y-108120659D01*
X157352216Y-108147597D01*
X157486903Y-108228409D01*
X157567715Y-108309221D01*
X157648528Y-108443908D01*
X157675465Y-108524720D01*
X157675465Y-108632470D01*
X157621590Y-108740219D01*
X157486903Y-108874906D01*
X156086158Y-121898155D02*
X156005346Y-121925093D01*
X155924534Y-122005905D01*
X155870659Y-122113654D01*
X155870659Y-122221404D01*
X155897597Y-122302216D01*
X155978409Y-122436903D01*
X156059221Y-122517715D01*
X156193908Y-122598528D01*
X156274720Y-122625465D01*
X156382470Y-122625465D01*
X156490219Y-122571590D01*
X156544094Y-122517715D01*
X156597969Y-122409966D01*
X156597969Y-122356091D01*
X156409407Y-122167529D01*
X156301658Y-122275279D01*
X156894280Y-122167529D02*
X156328595Y-121601844D01*
X157217529Y-121844280D01*
X156651844Y-121278595D01*
X157486903Y-121574906D02*
X156921218Y-121009221D01*
X157055905Y-120874534D01*
X157163654Y-120820659D01*
X157271404Y-120820659D01*
X157352216Y-120847597D01*
X157486903Y-120928409D01*
X157567715Y-121009221D01*
X157648528Y-121143908D01*
X157675465Y-121224720D01*
X157675465Y-121332470D01*
X157621590Y-121440219D01*
X157486903Y-121574906D01*
X130486158Y-121898155D02*
X130405346Y-121925093D01*
X130324534Y-122005905D01*
X130270659Y-122113654D01*
X130270659Y-122221404D01*
X130297597Y-122302216D01*
X130378409Y-122436903D01*
X130459221Y-122517715D01*
X130593908Y-122598528D01*
X130674720Y-122625465D01*
X130782470Y-122625465D01*
X130890219Y-122571590D01*
X130944094Y-122517715D01*
X130997969Y-122409966D01*
X130997969Y-122356091D01*
X130809407Y-122167529D01*
X130701658Y-122275279D01*
X131294280Y-122167529D02*
X130728595Y-121601844D01*
X131617529Y-121844280D01*
X131051844Y-121278595D01*
X131886903Y-121574906D02*
X131321218Y-121009221D01*
X131455905Y-120874534D01*
X131563654Y-120820659D01*
X131671404Y-120820659D01*
X131752216Y-120847597D01*
X131886903Y-120928409D01*
X131967715Y-121009221D01*
X132048528Y-121143908D01*
X132075465Y-121224720D01*
X132075465Y-121332470D01*
X132021590Y-121440219D01*
X131886903Y-121574906D01*
X130486158Y-109198155D02*
X130405346Y-109225093D01*
X130324534Y-109305905D01*
X130270659Y-109413654D01*
X130270659Y-109521404D01*
X130297597Y-109602216D01*
X130378409Y-109736903D01*
X130459221Y-109817715D01*
X130593908Y-109898528D01*
X130674720Y-109925465D01*
X130782470Y-109925465D01*
X130890219Y-109871590D01*
X130944094Y-109817715D01*
X130997969Y-109709966D01*
X130997969Y-109656091D01*
X130809407Y-109467529D01*
X130701658Y-109575279D01*
X131294280Y-109467529D02*
X130728595Y-108901844D01*
X131617529Y-109144280D01*
X131051844Y-108578595D01*
X131886903Y-108874906D02*
X131321218Y-108309221D01*
X131455905Y-108174534D01*
X131563654Y-108120659D01*
X131671404Y-108120659D01*
X131752216Y-108147597D01*
X131886903Y-108228409D01*
X131967715Y-108309221D01*
X132048528Y-108443908D01*
X132075465Y-108524720D01*
X132075465Y-108632470D01*
X132021590Y-108740219D01*
X131886903Y-108874906D01*
X130486158Y-96498155D02*
X130405346Y-96525093D01*
X130324534Y-96605905D01*
X130270659Y-96713654D01*
X130270659Y-96821404D01*
X130297597Y-96902216D01*
X130378409Y-97036903D01*
X130459221Y-97117715D01*
X130593908Y-97198528D01*
X130674720Y-97225465D01*
X130782470Y-97225465D01*
X130890219Y-97171590D01*
X130944094Y-97117715D01*
X130997969Y-97009966D01*
X130997969Y-96956091D01*
X130809407Y-96767529D01*
X130701658Y-96875279D01*
X131294280Y-96767529D02*
X130728595Y-96201844D01*
X131617529Y-96444280D01*
X131051844Y-95878595D01*
X131886903Y-96174906D02*
X131321218Y-95609221D01*
X131455905Y-95474534D01*
X131563654Y-95420659D01*
X131671404Y-95420659D01*
X131752216Y-95447597D01*
X131886903Y-95528409D01*
X131967715Y-95609221D01*
X132048528Y-95743908D01*
X132075465Y-95824720D01*
X132075465Y-95932470D01*
X132021590Y-96040219D01*
X131886903Y-96174906D01*
X130486158Y-83798155D02*
X130405346Y-83825093D01*
X130324534Y-83905905D01*
X130270659Y-84013654D01*
X130270659Y-84121404D01*
X130297597Y-84202216D01*
X130378409Y-84336903D01*
X130459221Y-84417715D01*
X130593908Y-84498528D01*
X130674720Y-84525465D01*
X130782470Y-84525465D01*
X130890219Y-84471590D01*
X130944094Y-84417715D01*
X130997969Y-84309966D01*
X130997969Y-84256091D01*
X130809407Y-84067529D01*
X130701658Y-84175279D01*
X131294280Y-84067529D02*
X130728595Y-83501844D01*
X131617529Y-83744280D01*
X131051844Y-83178595D01*
X131886903Y-83474906D02*
X131321218Y-82909221D01*
X131455905Y-82774534D01*
X131563654Y-82720659D01*
X131671404Y-82720659D01*
X131752216Y-82747597D01*
X131886903Y-82828409D01*
X131967715Y-82909221D01*
X132048528Y-83043908D01*
X132075465Y-83124720D01*
X132075465Y-83232470D01*
X132021590Y-83340219D01*
X131886903Y-83474906D01*
X155953129Y-79227309D02*
X156707377Y-79604433D01*
X156330253Y-78850186D01*
X156976751Y-78742436D02*
X157084500Y-78688561D01*
X157138375Y-78688561D01*
X157219187Y-78715499D01*
X157300000Y-78796311D01*
X157326937Y-78877123D01*
X157326937Y-78930998D01*
X157300000Y-79011810D01*
X157084500Y-79227309D01*
X156518815Y-78661624D01*
X156707377Y-78473062D01*
X156788189Y-78446125D01*
X156842064Y-78446125D01*
X156922876Y-78473062D01*
X156976751Y-78526937D01*
X157003688Y-78607749D01*
X157003688Y-78661624D01*
X156976751Y-78742436D01*
X156788189Y-78930998D01*
X157084500Y-78095938D02*
X157542436Y-78553874D01*
X157623248Y-78580812D01*
X157677123Y-78580812D01*
X157757935Y-78553874D01*
X157865685Y-78446125D01*
X157892622Y-78365312D01*
X157892622Y-78311438D01*
X157865685Y-78230625D01*
X157407749Y-77772690D01*
X158188934Y-78069001D02*
X158296683Y-78015126D01*
X158431370Y-77880439D01*
X158458308Y-77799627D01*
X158458308Y-77745752D01*
X158431370Y-77664940D01*
X158377496Y-77611065D01*
X158296683Y-77584128D01*
X158242809Y-77584128D01*
X158161996Y-77611065D01*
X158027309Y-77691877D01*
X157946497Y-77718815D01*
X157892622Y-77718815D01*
X157811810Y-77691877D01*
X157757935Y-77638003D01*
X157730998Y-77557190D01*
X157730998Y-77503316D01*
X157757935Y-77422503D01*
X157892622Y-77287816D01*
X158000372Y-77233942D01*
X155920473Y-81769966D02*
X156674720Y-82147089D01*
X156297597Y-81392842D01*
X156997969Y-81769966D02*
X157105719Y-81716091D01*
X157240406Y-81581404D01*
X157267343Y-81500592D01*
X157267343Y-81446717D01*
X157240406Y-81365905D01*
X157186531Y-81312030D01*
X157105719Y-81285093D01*
X157051844Y-81285093D01*
X156971032Y-81312030D01*
X156836345Y-81392842D01*
X156755532Y-81419780D01*
X156701658Y-81419780D01*
X156620845Y-81392842D01*
X156566971Y-81338967D01*
X156540033Y-81258155D01*
X156540033Y-81204280D01*
X156566971Y-81123468D01*
X156701658Y-80988781D01*
X156809407Y-80934906D01*
X157428967Y-80854094D02*
X157698341Y-81123468D01*
X156944094Y-80746345D02*
X157428967Y-80854094D01*
X157321218Y-80369221D01*
X158021590Y-80746345D02*
X158129340Y-80692470D01*
X158264027Y-80557783D01*
X158290964Y-80476971D01*
X158290964Y-80423096D01*
X158264027Y-80342284D01*
X158210152Y-80288409D01*
X158129340Y-80261471D01*
X158075465Y-80261471D01*
X157994653Y-80288409D01*
X157859966Y-80369221D01*
X157779154Y-80396158D01*
X157725279Y-80396158D01*
X157644467Y-80369221D01*
X157590592Y-80315346D01*
X157563654Y-80234534D01*
X157563654Y-80180659D01*
X157590592Y-80099847D01*
X157725279Y-79965160D01*
X157833028Y-79911285D01*
X155922131Y-86658308D02*
X156272317Y-86308122D01*
X156299255Y-86712183D01*
X156380067Y-86631370D01*
X156460879Y-86604433D01*
X156514754Y-86604433D01*
X156595566Y-86631370D01*
X156730253Y-86766057D01*
X156757190Y-86846870D01*
X156757190Y-86900744D01*
X156730253Y-86981557D01*
X156568629Y-87143181D01*
X156487816Y-87170118D01*
X156433942Y-87170118D01*
X156433942Y-86146497D02*
X157188189Y-86523621D01*
X156811065Y-85769374D01*
X156945752Y-85634687D02*
X157295938Y-85284500D01*
X157322876Y-85688561D01*
X157403688Y-85607749D01*
X157484500Y-85580812D01*
X157538375Y-85580812D01*
X157619187Y-85607749D01*
X157753874Y-85742436D01*
X157780812Y-85823248D01*
X157780812Y-85877123D01*
X157753874Y-85957935D01*
X157592250Y-86119560D01*
X157511438Y-86146497D01*
X157457563Y-86146497D01*
X158023248Y-85796311D02*
X158454247Y-85365312D01*
X158238748Y-84880439D02*
X158427309Y-84691877D01*
X158804433Y-84907377D02*
X158535059Y-85176751D01*
X157969374Y-84611065D01*
X158238748Y-84341691D01*
X159046870Y-84664940D02*
X158481184Y-84099255D01*
X159370118Y-84341691D01*
X158804433Y-83776006D01*
X155889847Y-89190592D02*
X156240033Y-88840406D01*
X156266971Y-89244467D01*
X156347783Y-89163654D01*
X156428595Y-89136717D01*
X156482470Y-89136717D01*
X156563282Y-89163654D01*
X156697969Y-89298341D01*
X156724906Y-89379154D01*
X156724906Y-89433028D01*
X156697969Y-89513841D01*
X156536345Y-89675465D01*
X156455532Y-89702402D01*
X156401658Y-89702402D01*
X156401658Y-88678781D02*
X157155905Y-89055905D01*
X156778781Y-88301658D01*
X156913468Y-88166971D02*
X157263654Y-87816784D01*
X157290592Y-88220845D01*
X157371404Y-88140033D01*
X157452216Y-88113096D01*
X157506091Y-88113096D01*
X157586903Y-88140033D01*
X157721590Y-88274720D01*
X157748528Y-88355532D01*
X157748528Y-88409407D01*
X157721590Y-88490219D01*
X157559966Y-88651844D01*
X157479154Y-88678781D01*
X157425279Y-88678781D01*
X156154788Y-92233773D02*
X156424162Y-91964399D01*
X156262537Y-92449272D02*
X155885414Y-91695025D01*
X156639661Y-92072149D01*
X156828223Y-91883587D02*
X156262537Y-91317902D01*
X156397224Y-91183215D01*
X156504974Y-91129340D01*
X156612723Y-91129340D01*
X156693536Y-91156277D01*
X156828223Y-91237089D01*
X156909035Y-91317902D01*
X156989847Y-91452589D01*
X157016784Y-91533401D01*
X157016784Y-91641150D01*
X156962910Y-91748900D01*
X156828223Y-91883587D01*
X157663282Y-90940778D02*
X157663282Y-90994653D01*
X157609407Y-91102402D01*
X157555532Y-91156277D01*
X157447783Y-91210152D01*
X157340033Y-91210152D01*
X157259221Y-91183215D01*
X157124534Y-91102402D01*
X157043722Y-91021590D01*
X156962910Y-90886903D01*
X156935972Y-90806091D01*
X156935972Y-90698341D01*
X156989847Y-90590592D01*
X157043722Y-90536717D01*
X157151471Y-90482842D01*
X157205346Y-90482842D01*
X157878781Y-90940778D02*
X158309780Y-90509780D01*
X157744094Y-89836345D02*
X158498341Y-90213468D01*
X158121218Y-89459221D01*
X159198714Y-89513096D02*
X158740778Y-89432284D01*
X158875465Y-89836345D02*
X158309780Y-89270659D01*
X158525279Y-89055160D01*
X158606091Y-89028223D01*
X158659966Y-89028223D01*
X158740778Y-89055160D01*
X158821590Y-89135972D01*
X158848528Y-89216784D01*
X158848528Y-89270659D01*
X158821590Y-89351471D01*
X158606091Y-89566971D01*
X159144839Y-88974348D02*
X159333401Y-88785786D01*
X159710524Y-89001285D02*
X159441150Y-89270659D01*
X158875465Y-88704974D01*
X159144839Y-88435600D01*
X159845211Y-88273975D02*
X159656650Y-88462537D01*
X159952961Y-88758849D02*
X159387276Y-88193163D01*
X159656650Y-87923789D01*
X156097722Y-93946592D02*
X156016910Y-93973529D01*
X155936097Y-94054341D01*
X155882223Y-94162091D01*
X155882223Y-94269841D01*
X155909160Y-94350653D01*
X155989972Y-94485340D01*
X156070784Y-94566152D01*
X156205471Y-94646964D01*
X156286284Y-94673902D01*
X156394033Y-94673902D01*
X156501783Y-94620027D01*
X156555658Y-94566152D01*
X156609532Y-94458402D01*
X156609532Y-94404528D01*
X156420971Y-94215966D01*
X156313221Y-94323715D01*
X156905844Y-94215966D02*
X156340158Y-93650280D01*
X156555658Y-93434781D01*
X156636470Y-93407844D01*
X156690345Y-93407844D01*
X156771157Y-93434781D01*
X156851969Y-93515593D01*
X156878906Y-93596406D01*
X156878906Y-93650280D01*
X156851969Y-93731093D01*
X156636470Y-93946592D01*
X156932781Y-93165407D02*
X156932781Y-93111532D01*
X156959719Y-93030720D01*
X157094406Y-92896033D01*
X157175218Y-92869096D01*
X157229093Y-92869096D01*
X157309905Y-92896033D01*
X157363780Y-92949908D01*
X157417654Y-93057658D01*
X157417654Y-93704155D01*
X157767841Y-93353969D01*
X157767841Y-92707471D02*
X157687028Y-92734409D01*
X157633154Y-92734409D01*
X157552341Y-92707471D01*
X157525404Y-92680534D01*
X157498467Y-92599722D01*
X157498467Y-92545847D01*
X157525404Y-92465035D01*
X157633154Y-92357285D01*
X157713966Y-92330348D01*
X157767841Y-92330348D01*
X157848653Y-92357285D01*
X157875590Y-92384223D01*
X157902528Y-92465035D01*
X157902528Y-92518910D01*
X157875590Y-92599722D01*
X157767841Y-92707471D01*
X157740903Y-92788284D01*
X157740903Y-92842158D01*
X157767841Y-92922971D01*
X157875590Y-93030720D01*
X157956402Y-93057658D01*
X158010277Y-93057658D01*
X158091089Y-93030720D01*
X158198839Y-92922971D01*
X158225776Y-92842158D01*
X158225776Y-92788284D01*
X158198839Y-92707471D01*
X158091089Y-92599722D01*
X158010277Y-92572784D01*
X157956402Y-92572784D01*
X157875590Y-92599722D01*
X156097722Y-99290592D02*
X156016910Y-99317529D01*
X155936097Y-99398341D01*
X155882223Y-99506091D01*
X155882223Y-99613841D01*
X155909160Y-99694653D01*
X155989972Y-99829340D01*
X156070784Y-99910152D01*
X156205471Y-99990964D01*
X156286284Y-100017902D01*
X156394033Y-100017902D01*
X156501783Y-99964027D01*
X156555658Y-99910152D01*
X156609532Y-99802402D01*
X156609532Y-99748528D01*
X156420971Y-99559966D01*
X156313221Y-99667715D01*
X156905844Y-99559966D02*
X156340158Y-98994280D01*
X156555658Y-98778781D01*
X156636470Y-98751844D01*
X156690345Y-98751844D01*
X156771157Y-98778781D01*
X156851969Y-98859593D01*
X156878906Y-98940406D01*
X156878906Y-98994280D01*
X156851969Y-99075093D01*
X156636470Y-99290592D01*
X156932781Y-98509407D02*
X156932781Y-98455532D01*
X156959719Y-98374720D01*
X157094406Y-98240033D01*
X157175218Y-98213096D01*
X157229093Y-98213096D01*
X157309905Y-98240033D01*
X157363780Y-98293908D01*
X157417654Y-98401658D01*
X157417654Y-99048155D01*
X157767841Y-98697969D01*
X157390717Y-97943722D02*
X157767841Y-97566598D01*
X158091089Y-98374720D01*
X156097722Y-101820592D02*
X156016910Y-101847529D01*
X155936097Y-101928341D01*
X155882223Y-102036091D01*
X155882223Y-102143841D01*
X155909160Y-102224653D01*
X155989972Y-102359340D01*
X156070784Y-102440152D01*
X156205471Y-102520964D01*
X156286284Y-102547902D01*
X156394033Y-102547902D01*
X156501783Y-102494027D01*
X156555658Y-102440152D01*
X156609532Y-102332402D01*
X156609532Y-102278528D01*
X156420971Y-102089966D01*
X156313221Y-102197715D01*
X156905844Y-102089966D02*
X156340158Y-101524280D01*
X156555658Y-101308781D01*
X156636470Y-101281844D01*
X156690345Y-101281844D01*
X156771157Y-101308781D01*
X156851969Y-101389593D01*
X156878906Y-101470406D01*
X156878906Y-101524280D01*
X156851969Y-101605093D01*
X156636470Y-101820592D01*
X156932781Y-101039407D02*
X156932781Y-100985532D01*
X156959719Y-100904720D01*
X157094406Y-100770033D01*
X157175218Y-100743096D01*
X157229093Y-100743096D01*
X157309905Y-100770033D01*
X157363780Y-100823908D01*
X157417654Y-100931658D01*
X157417654Y-101578155D01*
X157767841Y-101227969D01*
X157687028Y-100177410D02*
X157579279Y-100285160D01*
X157552341Y-100365972D01*
X157552341Y-100419847D01*
X157579279Y-100554534D01*
X157660091Y-100689221D01*
X157875590Y-100904720D01*
X157956402Y-100931658D01*
X158010277Y-100931658D01*
X158091089Y-100904720D01*
X158198839Y-100796971D01*
X158225776Y-100716158D01*
X158225776Y-100662284D01*
X158198839Y-100581471D01*
X158064152Y-100446784D01*
X157983340Y-100419847D01*
X157929465Y-100419847D01*
X157848653Y-100446784D01*
X157740903Y-100554534D01*
X157713966Y-100635346D01*
X157713966Y-100689221D01*
X157740903Y-100770033D01*
X156838375Y-104643435D02*
X156380439Y-104562622D01*
X156515126Y-104966683D02*
X155949441Y-104400998D01*
X156164940Y-104185499D01*
X156245752Y-104158561D01*
X156299627Y-104158561D01*
X156380439Y-104185499D01*
X156461251Y-104266311D01*
X156488189Y-104347123D01*
X156488189Y-104400998D01*
X156461251Y-104481810D01*
X156245752Y-104697309D01*
X156515126Y-103835312D02*
X156973062Y-104293248D01*
X157053874Y-104320186D01*
X157107749Y-104320186D01*
X157188561Y-104293248D01*
X157296311Y-104185499D01*
X157323248Y-104104687D01*
X157323248Y-104050812D01*
X157296311Y-103969999D01*
X156838375Y-103512064D01*
X157673435Y-103808375D02*
X157107749Y-103242690D01*
X157996683Y-103485126D01*
X157430998Y-102919441D01*
X156097722Y-106900592D02*
X156016910Y-106927529D01*
X155936097Y-107008341D01*
X155882223Y-107116091D01*
X155882223Y-107223841D01*
X155909160Y-107304653D01*
X155989972Y-107439340D01*
X156070784Y-107520152D01*
X156205471Y-107600964D01*
X156286284Y-107627902D01*
X156394033Y-107627902D01*
X156501783Y-107574027D01*
X156555658Y-107520152D01*
X156609532Y-107412402D01*
X156609532Y-107358528D01*
X156420971Y-107169966D01*
X156313221Y-107277715D01*
X156905844Y-107169966D02*
X156340158Y-106604280D01*
X156555658Y-106388781D01*
X156636470Y-106361844D01*
X156690345Y-106361844D01*
X156771157Y-106388781D01*
X156851969Y-106469593D01*
X156878906Y-106550406D01*
X156878906Y-106604280D01*
X156851969Y-106685093D01*
X156636470Y-106900592D01*
X156932781Y-106119407D02*
X156932781Y-106065532D01*
X156959719Y-105984720D01*
X157094406Y-105850033D01*
X157175218Y-105823096D01*
X157229093Y-105823096D01*
X157309905Y-105850033D01*
X157363780Y-105903908D01*
X157417654Y-106011658D01*
X157417654Y-106658155D01*
X157767841Y-106307969D01*
X157471529Y-105580659D02*
X157471529Y-105526784D01*
X157498467Y-105445972D01*
X157633154Y-105311285D01*
X157713966Y-105284348D01*
X157767841Y-105284348D01*
X157848653Y-105311285D01*
X157902528Y-105365160D01*
X157956402Y-105472910D01*
X157956402Y-106119407D01*
X158306589Y-105769221D01*
X156097722Y-111990592D02*
X156016910Y-112017529D01*
X155936097Y-112098341D01*
X155882223Y-112206091D01*
X155882223Y-112313841D01*
X155909160Y-112394653D01*
X155989972Y-112529340D01*
X156070784Y-112610152D01*
X156205471Y-112690964D01*
X156286284Y-112717902D01*
X156394033Y-112717902D01*
X156501783Y-112664027D01*
X156555658Y-112610152D01*
X156609532Y-112502402D01*
X156609532Y-112448528D01*
X156420971Y-112259966D01*
X156313221Y-112367715D01*
X156905844Y-112259966D02*
X156340158Y-111694280D01*
X156555658Y-111478781D01*
X156636470Y-111451844D01*
X156690345Y-111451844D01*
X156771157Y-111478781D01*
X156851969Y-111559593D01*
X156878906Y-111640406D01*
X156878906Y-111694280D01*
X156851969Y-111775093D01*
X156636470Y-111990592D01*
X156932781Y-111209407D02*
X156932781Y-111155532D01*
X156959719Y-111074720D01*
X157094406Y-110940033D01*
X157175218Y-110913096D01*
X157229093Y-110913096D01*
X157309905Y-110940033D01*
X157363780Y-110993908D01*
X157417654Y-111101658D01*
X157417654Y-111748155D01*
X157767841Y-111397969D01*
X158306589Y-110859221D02*
X157983340Y-111182470D01*
X158144964Y-111020845D02*
X157579279Y-110455160D01*
X157606216Y-110589847D01*
X157606216Y-110697597D01*
X157579279Y-110778409D01*
X156097722Y-114520592D02*
X156016910Y-114547529D01*
X155936097Y-114628341D01*
X155882223Y-114736091D01*
X155882223Y-114843841D01*
X155909160Y-114924653D01*
X155989972Y-115059340D01*
X156070784Y-115140152D01*
X156205471Y-115220964D01*
X156286284Y-115247902D01*
X156394033Y-115247902D01*
X156501783Y-115194027D01*
X156555658Y-115140152D01*
X156609532Y-115032402D01*
X156609532Y-114978528D01*
X156420971Y-114789966D01*
X156313221Y-114897715D01*
X156905844Y-114789966D02*
X156340158Y-114224280D01*
X156555658Y-114008781D01*
X156636470Y-113981844D01*
X156690345Y-113981844D01*
X156771157Y-114008781D01*
X156851969Y-114089593D01*
X156878906Y-114170406D01*
X156878906Y-114224280D01*
X156851969Y-114305093D01*
X156636470Y-114520592D01*
X156932781Y-113739407D02*
X156932781Y-113685532D01*
X156959719Y-113604720D01*
X157094406Y-113470033D01*
X157175218Y-113443096D01*
X157229093Y-113443096D01*
X157309905Y-113470033D01*
X157363780Y-113523908D01*
X157417654Y-113631658D01*
X157417654Y-114278155D01*
X157767841Y-113927969D01*
X157552341Y-113012097D02*
X157606216Y-112958223D01*
X157687028Y-112931285D01*
X157740903Y-112931285D01*
X157821715Y-112958223D01*
X157956402Y-113039035D01*
X158091089Y-113173722D01*
X158171902Y-113308409D01*
X158198839Y-113389221D01*
X158198839Y-113443096D01*
X158171902Y-113523908D01*
X158118027Y-113577783D01*
X158037215Y-113604720D01*
X157983340Y-113604720D01*
X157902528Y-113577783D01*
X157767841Y-113496971D01*
X157633154Y-113362284D01*
X157552341Y-113227597D01*
X157525404Y-113146784D01*
X157525404Y-113092910D01*
X157552341Y-113012097D01*
X156097722Y-117060592D02*
X156016910Y-117087529D01*
X155936097Y-117168341D01*
X155882223Y-117276091D01*
X155882223Y-117383841D01*
X155909160Y-117464653D01*
X155989972Y-117599340D01*
X156070784Y-117680152D01*
X156205471Y-117760964D01*
X156286284Y-117787902D01*
X156394033Y-117787902D01*
X156501783Y-117734027D01*
X156555658Y-117680152D01*
X156609532Y-117572402D01*
X156609532Y-117518528D01*
X156420971Y-117329966D01*
X156313221Y-117437715D01*
X156905844Y-117329966D02*
X156340158Y-116764280D01*
X156555658Y-116548781D01*
X156636470Y-116521844D01*
X156690345Y-116521844D01*
X156771157Y-116548781D01*
X156851969Y-116629593D01*
X156878906Y-116710406D01*
X156878906Y-116764280D01*
X156851969Y-116845093D01*
X156636470Y-117060592D01*
X157767841Y-116467969D02*
X157444592Y-116791218D01*
X157606216Y-116629593D02*
X157040531Y-116063908D01*
X157067468Y-116198595D01*
X157067468Y-116306345D01*
X157040531Y-116387157D01*
X158037215Y-116198595D02*
X158144964Y-116090845D01*
X158171902Y-116010033D01*
X158171902Y-115956158D01*
X158144964Y-115821471D01*
X158064152Y-115686784D01*
X157848653Y-115471285D01*
X157767841Y-115444348D01*
X157713966Y-115444348D01*
X157633154Y-115471285D01*
X157525404Y-115579035D01*
X157498467Y-115659847D01*
X157498467Y-115713722D01*
X157525404Y-115794534D01*
X157660091Y-115929221D01*
X157740903Y-115956158D01*
X157794778Y-115956158D01*
X157875590Y-115929221D01*
X157983340Y-115821471D01*
X158010277Y-115740659D01*
X158010277Y-115686784D01*
X157983340Y-115605972D01*
X156097722Y-119600592D02*
X156016910Y-119627529D01*
X155936097Y-119708341D01*
X155882223Y-119816091D01*
X155882223Y-119923841D01*
X155909160Y-120004653D01*
X155989972Y-120139340D01*
X156070784Y-120220152D01*
X156205471Y-120300964D01*
X156286284Y-120327902D01*
X156394033Y-120327902D01*
X156501783Y-120274027D01*
X156555658Y-120220152D01*
X156609532Y-120112402D01*
X156609532Y-120058528D01*
X156420971Y-119869966D01*
X156313221Y-119977715D01*
X156905844Y-119869966D02*
X156340158Y-119304280D01*
X156555658Y-119088781D01*
X156636470Y-119061844D01*
X156690345Y-119061844D01*
X156771157Y-119088781D01*
X156851969Y-119169593D01*
X156878906Y-119250406D01*
X156878906Y-119304280D01*
X156851969Y-119385093D01*
X156636470Y-119600592D01*
X157767841Y-119007969D02*
X157444592Y-119331218D01*
X157606216Y-119169593D02*
X157040531Y-118603908D01*
X157067468Y-118738595D01*
X157067468Y-118846345D01*
X157040531Y-118927157D01*
X157767841Y-118361471D02*
X157687028Y-118388409D01*
X157633154Y-118388409D01*
X157552341Y-118361471D01*
X157525404Y-118334534D01*
X157498467Y-118253722D01*
X157498467Y-118199847D01*
X157525404Y-118119035D01*
X157633154Y-118011285D01*
X157713966Y-117984348D01*
X157767841Y-117984348D01*
X157848653Y-118011285D01*
X157875590Y-118038223D01*
X157902528Y-118119035D01*
X157902528Y-118172910D01*
X157875590Y-118253722D01*
X157767841Y-118361471D01*
X157740903Y-118442284D01*
X157740903Y-118496158D01*
X157767841Y-118576971D01*
X157875590Y-118684720D01*
X157956402Y-118711658D01*
X158010277Y-118711658D01*
X158091089Y-118684720D01*
X158198839Y-118576971D01*
X158225776Y-118496158D01*
X158225776Y-118442284D01*
X158198839Y-118361471D01*
X158091089Y-118253722D01*
X158010277Y-118226784D01*
X157956402Y-118226784D01*
X157875590Y-118253722D01*
X156097722Y-124680592D02*
X156016910Y-124707529D01*
X155936097Y-124788341D01*
X155882223Y-124896091D01*
X155882223Y-125003841D01*
X155909160Y-125084653D01*
X155989972Y-125219340D01*
X156070784Y-125300152D01*
X156205471Y-125380964D01*
X156286284Y-125407902D01*
X156394033Y-125407902D01*
X156501783Y-125354027D01*
X156555658Y-125300152D01*
X156609532Y-125192402D01*
X156609532Y-125138528D01*
X156420971Y-124949966D01*
X156313221Y-125057715D01*
X156905844Y-124949966D02*
X156340158Y-124384280D01*
X156555658Y-124168781D01*
X156636470Y-124141844D01*
X156690345Y-124141844D01*
X156771157Y-124168781D01*
X156851969Y-124249593D01*
X156878906Y-124330406D01*
X156878906Y-124384280D01*
X156851969Y-124465093D01*
X156636470Y-124680592D01*
X157767841Y-124087969D02*
X157444592Y-124411218D01*
X157606216Y-124249593D02*
X157040531Y-123683908D01*
X157067468Y-123818595D01*
X157067468Y-123926345D01*
X157040531Y-124007157D01*
X157390717Y-123333722D02*
X157767841Y-122956598D01*
X158091089Y-123764720D01*
X156097722Y-127220592D02*
X156016910Y-127247529D01*
X155936097Y-127328341D01*
X155882223Y-127436091D01*
X155882223Y-127543841D01*
X155909160Y-127624653D01*
X155989972Y-127759340D01*
X156070784Y-127840152D01*
X156205471Y-127920964D01*
X156286284Y-127947902D01*
X156394033Y-127947902D01*
X156501783Y-127894027D01*
X156555658Y-127840152D01*
X156609532Y-127732402D01*
X156609532Y-127678528D01*
X156420971Y-127489966D01*
X156313221Y-127597715D01*
X156905844Y-127489966D02*
X156340158Y-126924280D01*
X156555658Y-126708781D01*
X156636470Y-126681844D01*
X156690345Y-126681844D01*
X156771157Y-126708781D01*
X156851969Y-126789593D01*
X156878906Y-126870406D01*
X156878906Y-126924280D01*
X156851969Y-127005093D01*
X156636470Y-127220592D01*
X157767841Y-126627969D02*
X157444592Y-126951218D01*
X157606216Y-126789593D02*
X157040531Y-126223908D01*
X157067468Y-126358595D01*
X157067468Y-126466345D01*
X157040531Y-126547157D01*
X157687028Y-125577410D02*
X157579279Y-125685160D01*
X157552341Y-125765972D01*
X157552341Y-125819847D01*
X157579279Y-125954534D01*
X157660091Y-126089221D01*
X157875590Y-126304720D01*
X157956402Y-126331658D01*
X158010277Y-126331658D01*
X158091089Y-126304720D01*
X158198839Y-126196971D01*
X158225776Y-126116158D01*
X158225776Y-126062284D01*
X158198839Y-125981471D01*
X158064152Y-125846784D01*
X157983340Y-125819847D01*
X157929465Y-125819847D01*
X157848653Y-125846784D01*
X157740903Y-125954534D01*
X157713966Y-126035346D01*
X157713966Y-126089221D01*
X157740903Y-126170033D01*
X129989722Y-127220592D02*
X129908910Y-127247529D01*
X129828097Y-127328341D01*
X129774223Y-127436091D01*
X129774223Y-127543841D01*
X129801160Y-127624653D01*
X129881972Y-127759340D01*
X129962784Y-127840152D01*
X130097471Y-127920964D01*
X130178284Y-127947902D01*
X130286033Y-127947902D01*
X130393783Y-127894027D01*
X130447658Y-127840152D01*
X130501532Y-127732402D01*
X130501532Y-127678528D01*
X130312971Y-127489966D01*
X130205221Y-127597715D01*
X130797844Y-127489966D02*
X130232158Y-126924280D01*
X130447658Y-126708781D01*
X130528470Y-126681844D01*
X130582345Y-126681844D01*
X130663157Y-126708781D01*
X130743969Y-126789593D01*
X130770906Y-126870406D01*
X130770906Y-126924280D01*
X130743969Y-127005093D01*
X130528470Y-127220592D01*
X131659841Y-126627969D02*
X131336592Y-126951218D01*
X131498216Y-126789593D02*
X130932531Y-126223908D01*
X130959468Y-126358595D01*
X130959468Y-126466345D01*
X130932531Y-126547157D01*
X131605966Y-125550473D02*
X131336592Y-125819847D01*
X131579028Y-126116158D01*
X131579028Y-126062284D01*
X131605966Y-125981471D01*
X131740653Y-125846784D01*
X131821465Y-125819847D01*
X131875340Y-125819847D01*
X131956152Y-125846784D01*
X132090839Y-125981471D01*
X132117776Y-126062284D01*
X132117776Y-126116158D01*
X132090839Y-126196971D01*
X131956152Y-126331658D01*
X131875340Y-126358595D01*
X131821465Y-126358595D01*
X129943722Y-124680592D02*
X129862910Y-124707529D01*
X129782097Y-124788341D01*
X129728223Y-124896091D01*
X129728223Y-125003841D01*
X129755160Y-125084653D01*
X129835972Y-125219340D01*
X129916784Y-125300152D01*
X130051471Y-125380964D01*
X130132284Y-125407902D01*
X130240033Y-125407902D01*
X130347783Y-125354027D01*
X130401658Y-125300152D01*
X130455532Y-125192402D01*
X130455532Y-125138528D01*
X130266971Y-124949966D01*
X130159221Y-125057715D01*
X130751844Y-124949966D02*
X130186158Y-124384280D01*
X130401658Y-124168781D01*
X130482470Y-124141844D01*
X130536345Y-124141844D01*
X130617157Y-124168781D01*
X130697969Y-124249593D01*
X130724906Y-124330406D01*
X130724906Y-124384280D01*
X130697969Y-124465093D01*
X130482470Y-124680592D01*
X131613841Y-124087969D02*
X131290592Y-124411218D01*
X131452216Y-124249593D02*
X130886531Y-123683908D01*
X130913468Y-123818595D01*
X130913468Y-123926345D01*
X130886531Y-124007157D01*
X131721590Y-123225972D02*
X132098714Y-123603096D01*
X131371404Y-123145160D02*
X131640778Y-123683908D01*
X131990964Y-123333722D01*
X129989722Y-119600592D02*
X129908910Y-119627529D01*
X129828097Y-119708341D01*
X129774223Y-119816091D01*
X129774223Y-119923841D01*
X129801160Y-120004653D01*
X129881972Y-120139340D01*
X129962784Y-120220152D01*
X130097471Y-120300964D01*
X130178284Y-120327902D01*
X130286033Y-120327902D01*
X130393783Y-120274027D01*
X130447658Y-120220152D01*
X130501532Y-120112402D01*
X130501532Y-120058528D01*
X130312971Y-119869966D01*
X130205221Y-119977715D01*
X130797844Y-119869966D02*
X130232158Y-119304280D01*
X130447658Y-119088781D01*
X130528470Y-119061844D01*
X130582345Y-119061844D01*
X130663157Y-119088781D01*
X130743969Y-119169593D01*
X130770906Y-119250406D01*
X130770906Y-119304280D01*
X130743969Y-119385093D01*
X130528470Y-119600592D01*
X131659841Y-119007969D02*
X131336592Y-119331218D01*
X131498216Y-119169593D02*
X130932531Y-118603908D01*
X130959468Y-118738595D01*
X130959468Y-118846345D01*
X130932531Y-118927157D01*
X131282717Y-118253722D02*
X131632903Y-117903536D01*
X131659841Y-118307597D01*
X131740653Y-118226784D01*
X131821465Y-118199847D01*
X131875340Y-118199847D01*
X131956152Y-118226784D01*
X132090839Y-118361471D01*
X132117776Y-118442284D01*
X132117776Y-118496158D01*
X132090839Y-118576971D01*
X131929215Y-118738595D01*
X131848402Y-118765532D01*
X131794528Y-118765532D01*
X129843722Y-117060592D02*
X129762910Y-117087529D01*
X129682097Y-117168341D01*
X129628223Y-117276091D01*
X129628223Y-117383841D01*
X129655160Y-117464653D01*
X129735972Y-117599340D01*
X129816784Y-117680152D01*
X129951471Y-117760964D01*
X130032284Y-117787902D01*
X130140033Y-117787902D01*
X130247783Y-117734027D01*
X130301658Y-117680152D01*
X130355532Y-117572402D01*
X130355532Y-117518528D01*
X130166971Y-117329966D01*
X130059221Y-117437715D01*
X130651844Y-117329966D02*
X130086158Y-116764280D01*
X130301658Y-116548781D01*
X130382470Y-116521844D01*
X130436345Y-116521844D01*
X130517157Y-116548781D01*
X130597969Y-116629593D01*
X130624906Y-116710406D01*
X130624906Y-116764280D01*
X130597969Y-116845093D01*
X130382470Y-117060592D01*
X131513841Y-116467969D02*
X131190592Y-116791218D01*
X131352216Y-116629593D02*
X130786531Y-116063908D01*
X130813468Y-116198595D01*
X130813468Y-116306345D01*
X130786531Y-116387157D01*
X131217529Y-115740659D02*
X131217529Y-115686784D01*
X131244467Y-115605972D01*
X131379154Y-115471285D01*
X131459966Y-115444348D01*
X131513841Y-115444348D01*
X131594653Y-115471285D01*
X131648528Y-115525160D01*
X131702402Y-115632910D01*
X131702402Y-116279407D01*
X132052589Y-115929221D01*
X129843722Y-114520592D02*
X129762910Y-114547529D01*
X129682097Y-114628341D01*
X129628223Y-114736091D01*
X129628223Y-114843841D01*
X129655160Y-114924653D01*
X129735972Y-115059340D01*
X129816784Y-115140152D01*
X129951471Y-115220964D01*
X130032284Y-115247902D01*
X130140033Y-115247902D01*
X130247783Y-115194027D01*
X130301658Y-115140152D01*
X130355532Y-115032402D01*
X130355532Y-114978528D01*
X130166971Y-114789966D01*
X130059221Y-114897715D01*
X130651844Y-114789966D02*
X130086158Y-114224280D01*
X130301658Y-114008781D01*
X130382470Y-113981844D01*
X130436345Y-113981844D01*
X130517157Y-114008781D01*
X130597969Y-114089593D01*
X130624906Y-114170406D01*
X130624906Y-114224280D01*
X130597969Y-114305093D01*
X130382470Y-114520592D01*
X131513841Y-113927969D02*
X131190592Y-114251218D01*
X131352216Y-114089593D02*
X130786531Y-113523908D01*
X130813468Y-113658595D01*
X130813468Y-113766345D01*
X130786531Y-113847157D01*
X132052589Y-113389221D02*
X131729340Y-113712470D01*
X131890964Y-113550845D02*
X131325279Y-112985160D01*
X131352216Y-113119847D01*
X131352216Y-113227597D01*
X131325279Y-113308409D01*
X129989722Y-111980592D02*
X129908910Y-112007529D01*
X129828097Y-112088341D01*
X129774223Y-112196091D01*
X129774223Y-112303841D01*
X129801160Y-112384653D01*
X129881972Y-112519340D01*
X129962784Y-112600152D01*
X130097471Y-112680964D01*
X130178284Y-112707902D01*
X130286033Y-112707902D01*
X130393783Y-112654027D01*
X130447658Y-112600152D01*
X130501532Y-112492402D01*
X130501532Y-112438528D01*
X130312971Y-112249966D01*
X130205221Y-112357715D01*
X130797844Y-112249966D02*
X130232158Y-111684280D01*
X130447658Y-111468781D01*
X130528470Y-111441844D01*
X130582345Y-111441844D01*
X130663157Y-111468781D01*
X130743969Y-111549593D01*
X130770906Y-111630406D01*
X130770906Y-111684280D01*
X130743969Y-111765093D01*
X130528470Y-111980592D01*
X131659841Y-111387969D02*
X131336592Y-111711218D01*
X131498216Y-111549593D02*
X130932531Y-110983908D01*
X130959468Y-111118595D01*
X130959468Y-111226345D01*
X130932531Y-111307157D01*
X131444341Y-110472097D02*
X131498216Y-110418223D01*
X131579028Y-110391285D01*
X131632903Y-110391285D01*
X131713715Y-110418223D01*
X131848402Y-110499035D01*
X131983089Y-110633722D01*
X132063902Y-110768409D01*
X132090839Y-110849221D01*
X132090839Y-110903096D01*
X132063902Y-110983908D01*
X132010027Y-111037783D01*
X131929215Y-111064720D01*
X131875340Y-111064720D01*
X131794528Y-111037783D01*
X131659841Y-110956971D01*
X131525154Y-110822284D01*
X131444341Y-110687597D01*
X131417404Y-110606784D01*
X131417404Y-110552910D01*
X131444341Y-110472097D01*
X130513096Y-106631218D02*
X130432284Y-106658155D01*
X130351471Y-106738967D01*
X130297597Y-106846717D01*
X130297597Y-106954467D01*
X130324534Y-107035279D01*
X130405346Y-107169966D01*
X130486158Y-107250778D01*
X130620845Y-107331590D01*
X130701658Y-107358528D01*
X130809407Y-107358528D01*
X130917157Y-107304653D01*
X130971032Y-107250778D01*
X131024906Y-107143028D01*
X131024906Y-107089154D01*
X130836345Y-106900592D01*
X130728595Y-107008341D01*
X131321218Y-106900592D02*
X130755532Y-106334906D01*
X130971032Y-106119407D01*
X131051844Y-106092470D01*
X131105719Y-106092470D01*
X131186531Y-106119407D01*
X131267343Y-106200219D01*
X131294280Y-106281032D01*
X131294280Y-106334906D01*
X131267343Y-106415719D01*
X131051844Y-106631218D01*
X131913841Y-106307969D02*
X132021590Y-106200219D01*
X132048528Y-106119407D01*
X132048528Y-106065532D01*
X132021590Y-105930845D01*
X131940778Y-105796158D01*
X131725279Y-105580659D01*
X131644467Y-105553722D01*
X131590592Y-105553722D01*
X131509780Y-105580659D01*
X131402030Y-105688409D01*
X131375093Y-105769221D01*
X131375093Y-105823096D01*
X131402030Y-105903908D01*
X131536717Y-106038595D01*
X131617529Y-106065532D01*
X131671404Y-106065532D01*
X131752216Y-106038595D01*
X131859966Y-105930845D01*
X131886903Y-105850033D01*
X131886903Y-105796158D01*
X131859966Y-105715346D01*
X130513096Y-104091218D02*
X130432284Y-104118155D01*
X130351471Y-104198967D01*
X130297597Y-104306717D01*
X130297597Y-104414467D01*
X130324534Y-104495279D01*
X130405346Y-104629966D01*
X130486158Y-104710778D01*
X130620845Y-104791590D01*
X130701658Y-104818528D01*
X130809407Y-104818528D01*
X130917157Y-104764653D01*
X130971032Y-104710778D01*
X131024906Y-104603028D01*
X131024906Y-104549154D01*
X130836345Y-104360592D01*
X130728595Y-104468341D01*
X131321218Y-104360592D02*
X130755532Y-103794906D01*
X130971032Y-103579407D01*
X131051844Y-103552470D01*
X131105719Y-103552470D01*
X131186531Y-103579407D01*
X131267343Y-103660219D01*
X131294280Y-103741032D01*
X131294280Y-103794906D01*
X131267343Y-103875719D01*
X131051844Y-104091218D01*
X131644467Y-103390845D02*
X131563654Y-103417783D01*
X131509780Y-103417783D01*
X131428967Y-103390845D01*
X131402030Y-103363908D01*
X131375093Y-103283096D01*
X131375093Y-103229221D01*
X131402030Y-103148409D01*
X131509780Y-103040659D01*
X131590592Y-103013722D01*
X131644467Y-103013722D01*
X131725279Y-103040659D01*
X131752216Y-103067597D01*
X131779154Y-103148409D01*
X131779154Y-103202284D01*
X131752216Y-103283096D01*
X131644467Y-103390845D01*
X131617529Y-103471658D01*
X131617529Y-103525532D01*
X131644467Y-103606345D01*
X131752216Y-103714094D01*
X131833028Y-103741032D01*
X131886903Y-103741032D01*
X131967715Y-103714094D01*
X132075465Y-103606345D01*
X132102402Y-103525532D01*
X132102402Y-103471658D01*
X132075465Y-103390845D01*
X131967715Y-103283096D01*
X131886903Y-103256158D01*
X131833028Y-103256158D01*
X131752216Y-103283096D01*
X130613096Y-101521218D02*
X130532284Y-101548155D01*
X130451471Y-101628967D01*
X130397597Y-101736717D01*
X130397597Y-101844467D01*
X130424534Y-101925279D01*
X130505346Y-102059966D01*
X130586158Y-102140778D01*
X130720845Y-102221590D01*
X130801658Y-102248528D01*
X130909407Y-102248528D01*
X131017157Y-102194653D01*
X131071032Y-102140778D01*
X131124906Y-102033028D01*
X131124906Y-101979154D01*
X130936345Y-101790592D01*
X130828595Y-101898341D01*
X131421218Y-101790592D02*
X130855532Y-101224906D01*
X131071032Y-101009407D01*
X131151844Y-100982470D01*
X131205719Y-100982470D01*
X131286531Y-101009407D01*
X131367343Y-101090219D01*
X131394280Y-101171032D01*
X131394280Y-101224906D01*
X131367343Y-101305719D01*
X131151844Y-101521218D01*
X131367343Y-100713096D02*
X131744467Y-100335972D01*
X132067715Y-101144094D01*
X130513096Y-99011218D02*
X130432284Y-99038155D01*
X130351471Y-99118967D01*
X130297597Y-99226717D01*
X130297597Y-99334467D01*
X130324534Y-99415279D01*
X130405346Y-99549966D01*
X130486158Y-99630778D01*
X130620845Y-99711590D01*
X130701658Y-99738528D01*
X130809407Y-99738528D01*
X130917157Y-99684653D01*
X130971032Y-99630778D01*
X131024906Y-99523028D01*
X131024906Y-99469154D01*
X130836345Y-99280592D01*
X130728595Y-99388341D01*
X131321218Y-99280592D02*
X130755532Y-98714906D01*
X130971032Y-98499407D01*
X131051844Y-98472470D01*
X131105719Y-98472470D01*
X131186531Y-98499407D01*
X131267343Y-98580219D01*
X131294280Y-98661032D01*
X131294280Y-98714906D01*
X131267343Y-98795719D01*
X131051844Y-99011218D01*
X131563654Y-97906784D02*
X131455905Y-98014534D01*
X131428967Y-98095346D01*
X131428967Y-98149221D01*
X131455905Y-98283908D01*
X131536717Y-98418595D01*
X131752216Y-98634094D01*
X131833028Y-98661032D01*
X131886903Y-98661032D01*
X131967715Y-98634094D01*
X132075465Y-98526345D01*
X132102402Y-98445532D01*
X132102402Y-98391658D01*
X132075465Y-98310845D01*
X131940778Y-98176158D01*
X131859966Y-98149221D01*
X131806091Y-98149221D01*
X131725279Y-98176158D01*
X131617529Y-98283908D01*
X131590592Y-98364720D01*
X131590592Y-98418595D01*
X131617529Y-98499407D01*
X130513096Y-93931218D02*
X130432284Y-93958155D01*
X130351471Y-94038967D01*
X130297597Y-94146717D01*
X130297597Y-94254467D01*
X130324534Y-94335279D01*
X130405346Y-94469966D01*
X130486158Y-94550778D01*
X130620845Y-94631590D01*
X130701658Y-94658528D01*
X130809407Y-94658528D01*
X130917157Y-94604653D01*
X130971032Y-94550778D01*
X131024906Y-94443028D01*
X131024906Y-94389154D01*
X130836345Y-94200592D01*
X130728595Y-94308341D01*
X131321218Y-94200592D02*
X130755532Y-93634906D01*
X130971032Y-93419407D01*
X131051844Y-93392470D01*
X131105719Y-93392470D01*
X131186531Y-93419407D01*
X131267343Y-93500219D01*
X131294280Y-93581032D01*
X131294280Y-93634906D01*
X131267343Y-93715719D01*
X131051844Y-93931218D01*
X131590592Y-92799847D02*
X131321218Y-93069221D01*
X131563654Y-93365532D01*
X131563654Y-93311658D01*
X131590592Y-93230845D01*
X131725279Y-93096158D01*
X131806091Y-93069221D01*
X131859966Y-93069221D01*
X131940778Y-93096158D01*
X132075465Y-93230845D01*
X132102402Y-93311658D01*
X132102402Y-93365532D01*
X132075465Y-93446345D01*
X131940778Y-93581032D01*
X131859966Y-93607969D01*
X131806091Y-93607969D01*
X130513096Y-91391218D02*
X130432284Y-91418155D01*
X130351471Y-91498967D01*
X130297597Y-91606717D01*
X130297597Y-91714467D01*
X130324534Y-91795279D01*
X130405346Y-91929966D01*
X130486158Y-92010778D01*
X130620845Y-92091590D01*
X130701658Y-92118528D01*
X130809407Y-92118528D01*
X130917157Y-92064653D01*
X130971032Y-92010778D01*
X131024906Y-91903028D01*
X131024906Y-91849154D01*
X130836345Y-91660592D01*
X130728595Y-91768341D01*
X131321218Y-91660592D02*
X130755532Y-91094906D01*
X130971032Y-90879407D01*
X131051844Y-90852470D01*
X131105719Y-90852470D01*
X131186531Y-90879407D01*
X131267343Y-90960219D01*
X131294280Y-91041032D01*
X131294280Y-91094906D01*
X131267343Y-91175719D01*
X131051844Y-91391218D01*
X131752216Y-90475346D02*
X132129340Y-90852470D01*
X131402030Y-90394534D02*
X131671404Y-90933282D01*
X132021590Y-90583096D01*
X130513096Y-88851218D02*
X130432284Y-88878155D01*
X130351471Y-88958967D01*
X130297597Y-89066717D01*
X130297597Y-89174467D01*
X130324534Y-89255279D01*
X130405346Y-89389966D01*
X130486158Y-89470778D01*
X130620845Y-89551590D01*
X130701658Y-89578528D01*
X130809407Y-89578528D01*
X130917157Y-89524653D01*
X130971032Y-89470778D01*
X131024906Y-89363028D01*
X131024906Y-89309154D01*
X130836345Y-89120592D01*
X130728595Y-89228341D01*
X131321218Y-89120592D02*
X130755532Y-88554906D01*
X130971032Y-88339407D01*
X131051844Y-88312470D01*
X131105719Y-88312470D01*
X131186531Y-88339407D01*
X131267343Y-88420219D01*
X131294280Y-88501032D01*
X131294280Y-88554906D01*
X131267343Y-88635719D01*
X131051844Y-88851218D01*
X131267343Y-88043096D02*
X131617529Y-87692910D01*
X131644467Y-88096971D01*
X131725279Y-88016158D01*
X131806091Y-87989221D01*
X131859966Y-87989221D01*
X131940778Y-88016158D01*
X132075465Y-88150845D01*
X132102402Y-88231658D01*
X132102402Y-88285532D01*
X132075465Y-88366345D01*
X131913841Y-88527969D01*
X131833028Y-88554906D01*
X131779154Y-88554906D01*
X130513096Y-78691218D02*
X130432284Y-78718155D01*
X130351471Y-78798967D01*
X130297597Y-78906717D01*
X130297597Y-79014467D01*
X130324534Y-79095279D01*
X130405346Y-79229966D01*
X130486158Y-79310778D01*
X130620845Y-79391590D01*
X130701658Y-79418528D01*
X130809407Y-79418528D01*
X130917157Y-79364653D01*
X130971032Y-79310778D01*
X131024906Y-79203028D01*
X131024906Y-79149154D01*
X130836345Y-78960592D01*
X130728595Y-79068341D01*
X131321218Y-78960592D02*
X130755532Y-78394906D01*
X130971032Y-78179407D01*
X131051844Y-78152470D01*
X131105719Y-78152470D01*
X131186531Y-78179407D01*
X131267343Y-78260219D01*
X131294280Y-78341032D01*
X131294280Y-78394906D01*
X131267343Y-78475719D01*
X131051844Y-78691218D01*
X131428967Y-77721471D02*
X131482842Y-77667597D01*
X131563654Y-77640659D01*
X131617529Y-77640659D01*
X131698341Y-77667597D01*
X131833028Y-77748409D01*
X131967715Y-77883096D01*
X132048528Y-78017783D01*
X132075465Y-78098595D01*
X132075465Y-78152470D01*
X132048528Y-78233282D01*
X131994653Y-78287157D01*
X131913841Y-78314094D01*
X131859966Y-78314094D01*
X131779154Y-78287157D01*
X131644467Y-78206345D01*
X131509780Y-78071658D01*
X131428967Y-77936971D01*
X131402030Y-77856158D01*
X131402030Y-77802284D01*
X131428967Y-77721471D01*
X130413096Y-86311218D02*
X130332284Y-86338155D01*
X130251471Y-86418967D01*
X130197597Y-86526717D01*
X130197597Y-86634467D01*
X130224534Y-86715279D01*
X130305346Y-86849966D01*
X130386158Y-86930778D01*
X130520845Y-87011590D01*
X130601658Y-87038528D01*
X130709407Y-87038528D01*
X130817157Y-86984653D01*
X130871032Y-86930778D01*
X130924906Y-86823028D01*
X130924906Y-86769154D01*
X130736345Y-86580592D01*
X130628595Y-86688341D01*
X131221218Y-86580592D02*
X130655532Y-86014906D01*
X130871032Y-85799407D01*
X130951844Y-85772470D01*
X131005719Y-85772470D01*
X131086531Y-85799407D01*
X131167343Y-85880219D01*
X131194280Y-85961032D01*
X131194280Y-86014906D01*
X131167343Y-86095719D01*
X130951844Y-86311218D01*
X131248155Y-85530033D02*
X131248155Y-85476158D01*
X131275093Y-85395346D01*
X131409780Y-85260659D01*
X131490592Y-85233722D01*
X131544467Y-85233722D01*
X131625279Y-85260659D01*
X131679154Y-85314534D01*
X131733028Y-85422284D01*
X131733028Y-86068781D01*
X132083215Y-85718595D01*
X130413096Y-81221218D02*
X130332284Y-81248155D01*
X130251471Y-81328967D01*
X130197597Y-81436717D01*
X130197597Y-81544467D01*
X130224534Y-81625279D01*
X130305346Y-81759966D01*
X130386158Y-81840778D01*
X130520845Y-81921590D01*
X130601658Y-81948528D01*
X130709407Y-81948528D01*
X130817157Y-81894653D01*
X130871032Y-81840778D01*
X130924906Y-81733028D01*
X130924906Y-81679154D01*
X130736345Y-81490592D01*
X130628595Y-81598341D01*
X131221218Y-81490592D02*
X130655532Y-80924906D01*
X130871032Y-80709407D01*
X130951844Y-80682470D01*
X131005719Y-80682470D01*
X131086531Y-80709407D01*
X131167343Y-80790219D01*
X131194280Y-80871032D01*
X131194280Y-80924906D01*
X131167343Y-81005719D01*
X130951844Y-81221218D01*
X132083215Y-80628595D02*
X131759966Y-80951844D01*
X131921590Y-80790219D02*
X131355905Y-80224534D01*
X131382842Y-80359221D01*
X131382842Y-80466971D01*
X131355905Y-80547783D01*
X120038095Y-96802380D02*
X120038095Y-97611904D01*
X120085714Y-97707142D01*
X120133333Y-97754761D01*
X120228571Y-97802380D01*
X120419047Y-97802380D01*
X120514285Y-97754761D01*
X120561904Y-97707142D01*
X120609523Y-97611904D01*
X120609523Y-96802380D01*
X121038095Y-96897619D02*
X121085714Y-96850000D01*
X121180952Y-96802380D01*
X121419047Y-96802380D01*
X121514285Y-96850000D01*
X121561904Y-96897619D01*
X121609523Y-96992857D01*
X121609523Y-97088095D01*
X121561904Y-97230952D01*
X120990476Y-97802380D01*
X121609523Y-97802380D01*
X118638095Y-74602380D02*
X118638095Y-75411904D01*
X118685714Y-75507142D01*
X118733333Y-75554761D01*
X118828571Y-75602380D01*
X119019047Y-75602380D01*
X119114285Y-75554761D01*
X119161904Y-75507142D01*
X119209523Y-75411904D01*
X119209523Y-74602380D01*
X120209523Y-75602380D02*
X119638095Y-75602380D01*
X119923809Y-75602380D02*
X119923809Y-74602380D01*
X119828571Y-74745238D01*
X119733333Y-74840476D01*
X119638095Y-74888095D01*
X113195833Y-134852380D02*
X112862500Y-134376190D01*
X112624404Y-134852380D02*
X112624404Y-133852380D01*
X113005357Y-133852380D01*
X113100595Y-133900000D01*
X113148214Y-133947619D01*
X113195833Y-134042857D01*
X113195833Y-134185714D01*
X113148214Y-134280952D01*
X113100595Y-134328571D01*
X113005357Y-134376190D01*
X112624404Y-134376190D01*
X114100595Y-133852380D02*
X113624404Y-133852380D01*
X113576785Y-134328571D01*
X113624404Y-134280952D01*
X113719642Y-134233333D01*
X113957738Y-134233333D01*
X114052976Y-134280952D01*
X114100595Y-134328571D01*
X114148214Y-134423809D01*
X114148214Y-134661904D01*
X114100595Y-134757142D01*
X114052976Y-134804761D01*
X113957738Y-134852380D01*
X113719642Y-134852380D01*
X113624404Y-134804761D01*
X113576785Y-134757142D01*
X113133333Y-137452380D02*
X112800000Y-136976190D01*
X112561904Y-137452380D02*
X112561904Y-136452380D01*
X112942857Y-136452380D01*
X113038095Y-136500000D01*
X113085714Y-136547619D01*
X113133333Y-136642857D01*
X113133333Y-136785714D01*
X113085714Y-136880952D01*
X113038095Y-136928571D01*
X112942857Y-136976190D01*
X112561904Y-136976190D01*
X113990476Y-136785714D02*
X113990476Y-137452380D01*
X113752380Y-136404761D02*
X113514285Y-137119047D01*
X114133333Y-137119047D01*
X117852380Y-94266666D02*
X117376190Y-94600000D01*
X117852380Y-94838095D02*
X116852380Y-94838095D01*
X116852380Y-94457142D01*
X116900000Y-94361904D01*
X116947619Y-94314285D01*
X117042857Y-94266666D01*
X117185714Y-94266666D01*
X117280952Y-94314285D01*
X117328571Y-94361904D01*
X117376190Y-94457142D01*
X117376190Y-94838095D01*
X116852380Y-93933333D02*
X116852380Y-93314285D01*
X117233333Y-93647619D01*
X117233333Y-93504761D01*
X117280952Y-93409523D01*
X117328571Y-93361904D01*
X117423809Y-93314285D01*
X117661904Y-93314285D01*
X117757142Y-93361904D01*
X117804761Y-93409523D01*
X117852380Y-93504761D01*
X117852380Y-93790476D01*
X117804761Y-93885714D01*
X117757142Y-93933333D01*
X115933333Y-49252380D02*
X115600000Y-48776190D01*
X115361904Y-49252380D02*
X115361904Y-48252380D01*
X115742857Y-48252380D01*
X115838095Y-48300000D01*
X115885714Y-48347619D01*
X115933333Y-48442857D01*
X115933333Y-48585714D01*
X115885714Y-48680952D01*
X115838095Y-48728571D01*
X115742857Y-48776190D01*
X115361904Y-48776190D01*
X116885714Y-49252380D02*
X116314285Y-49252380D01*
X116600000Y-49252380D02*
X116600000Y-48252380D01*
X116504761Y-48395238D01*
X116409523Y-48490476D01*
X116314285Y-48538095D01*
X124066666Y-71352380D02*
X124066666Y-72066666D01*
X124019047Y-72209523D01*
X123923809Y-72304761D01*
X123780952Y-72352380D01*
X123685714Y-72352380D01*
X124542857Y-72352380D02*
X124542857Y-71352380D01*
X124923809Y-71352380D01*
X125019047Y-71400000D01*
X125066666Y-71447619D01*
X125114285Y-71542857D01*
X125114285Y-71685714D01*
X125066666Y-71780952D01*
X125019047Y-71828571D01*
X124923809Y-71876190D01*
X124542857Y-71876190D01*
X126019047Y-71352380D02*
X125542857Y-71352380D01*
X125495238Y-71828571D01*
X125542857Y-71780952D01*
X125638095Y-71733333D01*
X125876190Y-71733333D01*
X125971428Y-71780952D01*
X126019047Y-71828571D01*
X126066666Y-71923809D01*
X126066666Y-72161904D01*
X126019047Y-72257142D01*
X125971428Y-72304761D01*
X125876190Y-72352380D01*
X125638095Y-72352380D01*
X125542857Y-72304761D01*
X125495238Y-72257142D01*
X127166666Y-136952380D02*
X127166666Y-137666666D01*
X127119047Y-137809523D01*
X127023809Y-137904761D01*
X126880952Y-137952380D01*
X126785714Y-137952380D01*
X127642857Y-137952380D02*
X127642857Y-136952380D01*
X128023809Y-136952380D01*
X128119047Y-137000000D01*
X128166666Y-137047619D01*
X128214285Y-137142857D01*
X128214285Y-137285714D01*
X128166666Y-137380952D01*
X128119047Y-137428571D01*
X128023809Y-137476190D01*
X127642857Y-137476190D01*
X129071428Y-137285714D02*
X129071428Y-137952380D01*
X128833333Y-136904761D02*
X128595238Y-137619047D01*
X129214285Y-137619047D01*
X107466666Y-127552380D02*
X107466666Y-128266666D01*
X107419047Y-128409523D01*
X107323809Y-128504761D01*
X107180952Y-128552380D01*
X107085714Y-128552380D01*
X107942857Y-128552380D02*
X107942857Y-127552380D01*
X108323809Y-127552380D01*
X108419047Y-127600000D01*
X108466666Y-127647619D01*
X108514285Y-127742857D01*
X108514285Y-127885714D01*
X108466666Y-127980952D01*
X108419047Y-128028571D01*
X108323809Y-128076190D01*
X107942857Y-128076190D01*
X108847619Y-127552380D02*
X109466666Y-127552380D01*
X109133333Y-127933333D01*
X109276190Y-127933333D01*
X109371428Y-127980952D01*
X109419047Y-128028571D01*
X109466666Y-128123809D01*
X109466666Y-128361904D01*
X109419047Y-128457142D01*
X109371428Y-128504761D01*
X109276190Y-128552380D01*
X108990476Y-128552380D01*
X108895238Y-128504761D01*
X108847619Y-128457142D01*
X107516666Y-130352380D02*
X107516666Y-131066666D01*
X107469047Y-131209523D01*
X107373809Y-131304761D01*
X107230952Y-131352380D01*
X107135714Y-131352380D01*
X107992857Y-131352380D02*
X107992857Y-130352380D01*
X108373809Y-130352380D01*
X108469047Y-130400000D01*
X108516666Y-130447619D01*
X108564285Y-130542857D01*
X108564285Y-130685714D01*
X108516666Y-130780952D01*
X108469047Y-130828571D01*
X108373809Y-130876190D01*
X107992857Y-130876190D01*
X109516666Y-131352380D02*
X108945238Y-131352380D01*
X109230952Y-131352380D02*
X109230952Y-130352380D01*
X109135714Y-130495238D01*
X109040476Y-130590476D01*
X108945238Y-130638095D01*
X149122380Y-136833333D02*
X149836666Y-136833333D01*
X149979523Y-136880952D01*
X150074761Y-136976190D01*
X150122380Y-137119047D01*
X150122380Y-137214285D01*
X149122380Y-136452380D02*
X149122380Y-135785714D01*
X150122380Y-136214285D01*
X121066666Y-138682380D02*
X121066666Y-139396666D01*
X121019047Y-139539523D01*
X120923809Y-139634761D01*
X120780952Y-139682380D01*
X120685714Y-139682380D01*
X122019047Y-138682380D02*
X121542857Y-138682380D01*
X121495238Y-139158571D01*
X121542857Y-139110952D01*
X121638095Y-139063333D01*
X121876190Y-139063333D01*
X121971428Y-139110952D01*
X122019047Y-139158571D01*
X122066666Y-139253809D01*
X122066666Y-139491904D01*
X122019047Y-139587142D01*
X121971428Y-139634761D01*
X121876190Y-139682380D01*
X121638095Y-139682380D01*
X121542857Y-139634761D01*
X121495238Y-139587142D01*
X123666666Y-64652380D02*
X123666666Y-65366666D01*
X123619047Y-65509523D01*
X123523809Y-65604761D01*
X123380952Y-65652380D01*
X123285714Y-65652380D01*
X124095238Y-64747619D02*
X124142857Y-64700000D01*
X124238095Y-64652380D01*
X124476190Y-64652380D01*
X124571428Y-64700000D01*
X124619047Y-64747619D01*
X124666666Y-64842857D01*
X124666666Y-64938095D01*
X124619047Y-65080952D01*
X124047619Y-65652380D01*
X124666666Y-65652380D01*
M02*
