G04 #@! TF.GenerationSoftware,KiCad,Pcbnew,5.1.5+dfsg1-2build2*
G04 #@! TF.CreationDate,2022-02-11T05:24:06+00:00*
G04 #@! TF.ProjectId,psion-org2-bluetooth-adapter,7073696f-6e2d-46f7-9267-322d626c7565,rev?*
G04 #@! TF.SameCoordinates,Original*
G04 #@! TF.FileFunction,Paste,Bot*
G04 #@! TF.FilePolarity,Positive*
%FSLAX46Y46*%
G04 Gerber Fmt 4.6, Leading zero omitted, Abs format (unit mm)*
G04 Created by KiCad (PCBNEW 5.1.5+dfsg1-2build2) date 2022-02-11 05:24:06*
%MOMM*%
%LPD*%
G04 APERTURE LIST*
%ADD10C,0.100000*%
G04 APERTURE END LIST*
D10*
G36*
X126974504Y-49426204D02*
G01*
X126998773Y-49429804D01*
X127022571Y-49435765D01*
X127045671Y-49444030D01*
X127067849Y-49454520D01*
X127088893Y-49467133D01*
X127108598Y-49481747D01*
X127126777Y-49498223D01*
X127143253Y-49516402D01*
X127157867Y-49536107D01*
X127170480Y-49557151D01*
X127180970Y-49579329D01*
X127189235Y-49602429D01*
X127195196Y-49626227D01*
X127198796Y-49650496D01*
X127200000Y-49675000D01*
X127200000Y-50925000D01*
X127198796Y-50949504D01*
X127195196Y-50973773D01*
X127189235Y-50997571D01*
X127180970Y-51020671D01*
X127170480Y-51042849D01*
X127157867Y-51063893D01*
X127143253Y-51083598D01*
X127126777Y-51101777D01*
X127108598Y-51118253D01*
X127088893Y-51132867D01*
X127067849Y-51145480D01*
X127045671Y-51155970D01*
X127022571Y-51164235D01*
X126998773Y-51170196D01*
X126974504Y-51173796D01*
X126950000Y-51175000D01*
X126025000Y-51175000D01*
X126000496Y-51173796D01*
X125976227Y-51170196D01*
X125952429Y-51164235D01*
X125929329Y-51155970D01*
X125907151Y-51145480D01*
X125886107Y-51132867D01*
X125866402Y-51118253D01*
X125848223Y-51101777D01*
X125831747Y-51083598D01*
X125817133Y-51063893D01*
X125804520Y-51042849D01*
X125794030Y-51020671D01*
X125785765Y-50997571D01*
X125779804Y-50973773D01*
X125776204Y-50949504D01*
X125775000Y-50925000D01*
X125775000Y-49675000D01*
X125776204Y-49650496D01*
X125779804Y-49626227D01*
X125785765Y-49602429D01*
X125794030Y-49579329D01*
X125804520Y-49557151D01*
X125817133Y-49536107D01*
X125831747Y-49516402D01*
X125848223Y-49498223D01*
X125866402Y-49481747D01*
X125886107Y-49467133D01*
X125907151Y-49454520D01*
X125929329Y-49444030D01*
X125952429Y-49435765D01*
X125976227Y-49429804D01*
X126000496Y-49426204D01*
X126025000Y-49425000D01*
X126950000Y-49425000D01*
X126974504Y-49426204D01*
G37*
G36*
X123999504Y-49426204D02*
G01*
X124023773Y-49429804D01*
X124047571Y-49435765D01*
X124070671Y-49444030D01*
X124092849Y-49454520D01*
X124113893Y-49467133D01*
X124133598Y-49481747D01*
X124151777Y-49498223D01*
X124168253Y-49516402D01*
X124182867Y-49536107D01*
X124195480Y-49557151D01*
X124205970Y-49579329D01*
X124214235Y-49602429D01*
X124220196Y-49626227D01*
X124223796Y-49650496D01*
X124225000Y-49675000D01*
X124225000Y-50925000D01*
X124223796Y-50949504D01*
X124220196Y-50973773D01*
X124214235Y-50997571D01*
X124205970Y-51020671D01*
X124195480Y-51042849D01*
X124182867Y-51063893D01*
X124168253Y-51083598D01*
X124151777Y-51101777D01*
X124133598Y-51118253D01*
X124113893Y-51132867D01*
X124092849Y-51145480D01*
X124070671Y-51155970D01*
X124047571Y-51164235D01*
X124023773Y-51170196D01*
X123999504Y-51173796D01*
X123975000Y-51175000D01*
X123050000Y-51175000D01*
X123025496Y-51173796D01*
X123001227Y-51170196D01*
X122977429Y-51164235D01*
X122954329Y-51155970D01*
X122932151Y-51145480D01*
X122911107Y-51132867D01*
X122891402Y-51118253D01*
X122873223Y-51101777D01*
X122856747Y-51083598D01*
X122842133Y-51063893D01*
X122829520Y-51042849D01*
X122819030Y-51020671D01*
X122810765Y-50997571D01*
X122804804Y-50973773D01*
X122801204Y-50949504D01*
X122800000Y-50925000D01*
X122800000Y-49675000D01*
X122801204Y-49650496D01*
X122804804Y-49626227D01*
X122810765Y-49602429D01*
X122819030Y-49579329D01*
X122829520Y-49557151D01*
X122842133Y-49536107D01*
X122856747Y-49516402D01*
X122873223Y-49498223D01*
X122891402Y-49481747D01*
X122911107Y-49467133D01*
X122932151Y-49454520D01*
X122954329Y-49444030D01*
X122977429Y-49435765D01*
X123001227Y-49429804D01*
X123025496Y-49426204D01*
X123050000Y-49425000D01*
X123975000Y-49425000D01*
X123999504Y-49426204D01*
G37*
G36*
X124430142Y-52501174D02*
G01*
X124453803Y-52504684D01*
X124477007Y-52510496D01*
X124499529Y-52518554D01*
X124521153Y-52528782D01*
X124541670Y-52541079D01*
X124560883Y-52555329D01*
X124578607Y-52571393D01*
X124594671Y-52589117D01*
X124608921Y-52608330D01*
X124621218Y-52628847D01*
X124631446Y-52650471D01*
X124639504Y-52672993D01*
X124645316Y-52696197D01*
X124648826Y-52719858D01*
X124650000Y-52743750D01*
X124650000Y-53656250D01*
X124648826Y-53680142D01*
X124645316Y-53703803D01*
X124639504Y-53727007D01*
X124631446Y-53749529D01*
X124621218Y-53771153D01*
X124608921Y-53791670D01*
X124594671Y-53810883D01*
X124578607Y-53828607D01*
X124560883Y-53844671D01*
X124541670Y-53858921D01*
X124521153Y-53871218D01*
X124499529Y-53881446D01*
X124477007Y-53889504D01*
X124453803Y-53895316D01*
X124430142Y-53898826D01*
X124406250Y-53900000D01*
X123918750Y-53900000D01*
X123894858Y-53898826D01*
X123871197Y-53895316D01*
X123847993Y-53889504D01*
X123825471Y-53881446D01*
X123803847Y-53871218D01*
X123783330Y-53858921D01*
X123764117Y-53844671D01*
X123746393Y-53828607D01*
X123730329Y-53810883D01*
X123716079Y-53791670D01*
X123703782Y-53771153D01*
X123693554Y-53749529D01*
X123685496Y-53727007D01*
X123679684Y-53703803D01*
X123676174Y-53680142D01*
X123675000Y-53656250D01*
X123675000Y-52743750D01*
X123676174Y-52719858D01*
X123679684Y-52696197D01*
X123685496Y-52672993D01*
X123693554Y-52650471D01*
X123703782Y-52628847D01*
X123716079Y-52608330D01*
X123730329Y-52589117D01*
X123746393Y-52571393D01*
X123764117Y-52555329D01*
X123783330Y-52541079D01*
X123803847Y-52528782D01*
X123825471Y-52518554D01*
X123847993Y-52510496D01*
X123871197Y-52504684D01*
X123894858Y-52501174D01*
X123918750Y-52500000D01*
X124406250Y-52500000D01*
X124430142Y-52501174D01*
G37*
G36*
X126305142Y-52501174D02*
G01*
X126328803Y-52504684D01*
X126352007Y-52510496D01*
X126374529Y-52518554D01*
X126396153Y-52528782D01*
X126416670Y-52541079D01*
X126435883Y-52555329D01*
X126453607Y-52571393D01*
X126469671Y-52589117D01*
X126483921Y-52608330D01*
X126496218Y-52628847D01*
X126506446Y-52650471D01*
X126514504Y-52672993D01*
X126520316Y-52696197D01*
X126523826Y-52719858D01*
X126525000Y-52743750D01*
X126525000Y-53656250D01*
X126523826Y-53680142D01*
X126520316Y-53703803D01*
X126514504Y-53727007D01*
X126506446Y-53749529D01*
X126496218Y-53771153D01*
X126483921Y-53791670D01*
X126469671Y-53810883D01*
X126453607Y-53828607D01*
X126435883Y-53844671D01*
X126416670Y-53858921D01*
X126396153Y-53871218D01*
X126374529Y-53881446D01*
X126352007Y-53889504D01*
X126328803Y-53895316D01*
X126305142Y-53898826D01*
X126281250Y-53900000D01*
X125793750Y-53900000D01*
X125769858Y-53898826D01*
X125746197Y-53895316D01*
X125722993Y-53889504D01*
X125700471Y-53881446D01*
X125678847Y-53871218D01*
X125658330Y-53858921D01*
X125639117Y-53844671D01*
X125621393Y-53828607D01*
X125605329Y-53810883D01*
X125591079Y-53791670D01*
X125578782Y-53771153D01*
X125568554Y-53749529D01*
X125560496Y-53727007D01*
X125554684Y-53703803D01*
X125551174Y-53680142D01*
X125550000Y-53656250D01*
X125550000Y-52743750D01*
X125551174Y-52719858D01*
X125554684Y-52696197D01*
X125560496Y-52672993D01*
X125568554Y-52650471D01*
X125578782Y-52628847D01*
X125591079Y-52608330D01*
X125605329Y-52589117D01*
X125621393Y-52571393D01*
X125639117Y-52555329D01*
X125658330Y-52541079D01*
X125678847Y-52528782D01*
X125700471Y-52518554D01*
X125722993Y-52510496D01*
X125746197Y-52504684D01*
X125769858Y-52501174D01*
X125793750Y-52500000D01*
X126281250Y-52500000D01*
X126305142Y-52501174D01*
G37*
G36*
X126005142Y-47101174D02*
G01*
X126028803Y-47104684D01*
X126052007Y-47110496D01*
X126074529Y-47118554D01*
X126096153Y-47128782D01*
X126116670Y-47141079D01*
X126135883Y-47155329D01*
X126153607Y-47171393D01*
X126169671Y-47189117D01*
X126183921Y-47208330D01*
X126196218Y-47228847D01*
X126206446Y-47250471D01*
X126214504Y-47272993D01*
X126220316Y-47296197D01*
X126223826Y-47319858D01*
X126225000Y-47343750D01*
X126225000Y-48256250D01*
X126223826Y-48280142D01*
X126220316Y-48303803D01*
X126214504Y-48327007D01*
X126206446Y-48349529D01*
X126196218Y-48371153D01*
X126183921Y-48391670D01*
X126169671Y-48410883D01*
X126153607Y-48428607D01*
X126135883Y-48444671D01*
X126116670Y-48458921D01*
X126096153Y-48471218D01*
X126074529Y-48481446D01*
X126052007Y-48489504D01*
X126028803Y-48495316D01*
X126005142Y-48498826D01*
X125981250Y-48500000D01*
X125493750Y-48500000D01*
X125469858Y-48498826D01*
X125446197Y-48495316D01*
X125422993Y-48489504D01*
X125400471Y-48481446D01*
X125378847Y-48471218D01*
X125358330Y-48458921D01*
X125339117Y-48444671D01*
X125321393Y-48428607D01*
X125305329Y-48410883D01*
X125291079Y-48391670D01*
X125278782Y-48371153D01*
X125268554Y-48349529D01*
X125260496Y-48327007D01*
X125254684Y-48303803D01*
X125251174Y-48280142D01*
X125250000Y-48256250D01*
X125250000Y-47343750D01*
X125251174Y-47319858D01*
X125254684Y-47296197D01*
X125260496Y-47272993D01*
X125268554Y-47250471D01*
X125278782Y-47228847D01*
X125291079Y-47208330D01*
X125305329Y-47189117D01*
X125321393Y-47171393D01*
X125339117Y-47155329D01*
X125358330Y-47141079D01*
X125378847Y-47128782D01*
X125400471Y-47118554D01*
X125422993Y-47110496D01*
X125446197Y-47104684D01*
X125469858Y-47101174D01*
X125493750Y-47100000D01*
X125981250Y-47100000D01*
X126005142Y-47101174D01*
G37*
G36*
X124130142Y-47101174D02*
G01*
X124153803Y-47104684D01*
X124177007Y-47110496D01*
X124199529Y-47118554D01*
X124221153Y-47128782D01*
X124241670Y-47141079D01*
X124260883Y-47155329D01*
X124278607Y-47171393D01*
X124294671Y-47189117D01*
X124308921Y-47208330D01*
X124321218Y-47228847D01*
X124331446Y-47250471D01*
X124339504Y-47272993D01*
X124345316Y-47296197D01*
X124348826Y-47319858D01*
X124350000Y-47343750D01*
X124350000Y-48256250D01*
X124348826Y-48280142D01*
X124345316Y-48303803D01*
X124339504Y-48327007D01*
X124331446Y-48349529D01*
X124321218Y-48371153D01*
X124308921Y-48391670D01*
X124294671Y-48410883D01*
X124278607Y-48428607D01*
X124260883Y-48444671D01*
X124241670Y-48458921D01*
X124221153Y-48471218D01*
X124199529Y-48481446D01*
X124177007Y-48489504D01*
X124153803Y-48495316D01*
X124130142Y-48498826D01*
X124106250Y-48500000D01*
X123618750Y-48500000D01*
X123594858Y-48498826D01*
X123571197Y-48495316D01*
X123547993Y-48489504D01*
X123525471Y-48481446D01*
X123503847Y-48471218D01*
X123483330Y-48458921D01*
X123464117Y-48444671D01*
X123446393Y-48428607D01*
X123430329Y-48410883D01*
X123416079Y-48391670D01*
X123403782Y-48371153D01*
X123393554Y-48349529D01*
X123385496Y-48327007D01*
X123379684Y-48303803D01*
X123376174Y-48280142D01*
X123375000Y-48256250D01*
X123375000Y-47343750D01*
X123376174Y-47319858D01*
X123379684Y-47296197D01*
X123385496Y-47272993D01*
X123393554Y-47250471D01*
X123403782Y-47228847D01*
X123416079Y-47208330D01*
X123430329Y-47189117D01*
X123446393Y-47171393D01*
X123464117Y-47155329D01*
X123483330Y-47141079D01*
X123503847Y-47128782D01*
X123525471Y-47118554D01*
X123547993Y-47110496D01*
X123571197Y-47104684D01*
X123594858Y-47101174D01*
X123618750Y-47100000D01*
X124106250Y-47100000D01*
X124130142Y-47101174D01*
G37*
M02*
