M48
; DRILL file {KiCad 5.1.5+dfsg1-2build2} date Fri 11 Feb 2022 05:24:04 GMT
; FORMAT={-:-/ absolute / inch / decimal}
; #@! TF.CreationDate,2022-02-11T05:24:04+00:00
; #@! TF.GenerationSoftware,Kicad,Pcbnew,5.1.5+dfsg1-2build2
; #@! TF.FileFunction,Plated,1,2,PTH
FMAT,2
INCH
T1C0.0118
T2C0.0157
T3C0.0177
T4C0.0394
T5C0.0402
%
G90
G05
T1
X3.3346Y-3.5551
X3.3386Y-3.4697
X3.5079Y-3.6417
X3.5315Y-4.1811
X3.5591Y-3.5118
X3.563Y-3.9488
X3.5866Y-3.9882
X3.5915Y-3.5591
X3.6181Y-4.0354
X3.6309Y-3.6614
X3.6575Y-4.1685
X3.6693Y-4.0787
X3.6772Y-3.7992
X3.752Y-3.5472
X4.189Y-3.5315
X4.1939Y-4.248
X4.2126Y-3.4646
X4.2283Y-4.3031
X4.2569Y-3.815
X4.2717Y-3.4685
X4.2795Y-3.8583
X4.2992Y-3.2835
X4.3228Y-3.2244
X4.3504Y-3.5709
X4.7126Y-4.3346
X4.7283Y-3.9331
T2
X3.311Y-4.0472
X3.3602Y-3.7236
X3.3622Y-4.124
X3.4016Y-4.0472
X3.4291Y-4.122
X4.252Y-2.5276
X4.2598Y-4.1654
X4.2638Y-5.1417
X4.2677Y-4.811
X4.3228Y-2.4724
X4.3543Y-3.1811
X4.3543Y-3.7126
X4.3583Y-2.8976
X4.3701Y-3.8465
X4.3701Y-4.1256
X4.378Y-4.5118
X4.3898Y-3.1181
X4.3976Y-3.9185
X4.4291Y-4.1496
X4.437Y-3.7756
X4.4656Y-3.8465
X4.5Y-2.4724
X4.5Y-4.9921
X4.5039Y-4.6417
X4.5118Y-4.5197
X4.5157Y-2.7835
X4.5157Y-2.9724
X4.5354Y-4.9606
X4.5394Y-5.2323
X4.5433Y-4.7598
X4.5669Y-2.9055
X4.5866Y-3.8465
X4.6378Y-3.8976
X4.6693Y-2.9921
X4.6772Y-2.5984
X4.689Y-2.0433
X4.689Y-4.1024
X4.6969Y-4.5
X4.7087Y-3.5591
X4.7953Y-3.8976
X4.8031Y-4.3386
X4.8071Y-3.5591
X4.8071Y-3.8504
X4.8543Y-4.2047
X4.8543Y-4.5906
X4.8583Y-4.815
X4.8819Y-4.7008
X4.8829Y-4.2638
X4.9016Y-3.7835
X4.9488Y-4.3819
X4.9567Y-2.2244
X4.9646Y-2.3428
X4.9646Y-3.0236
X4.9646Y-3.5551
X4.9646Y-4.9882
X4.9843Y-2.685
X5.0079Y-3.9016
X5.0157Y-2.0906
X5.0157Y-4.2953
X5.0276Y-1.8976
X5.0394Y-2.0039
X5.0512Y-3.185
X5.0512Y-4.8819
X5.0709Y-3.4764
X5.0709Y-4.0984
X5.0787Y-4.3976
X5.1024Y-3.7992
X5.1063Y-3.9409
X5.1181Y-4.2992
X5.122Y-2.8031
X5.122Y-3.0787
X5.1299Y-3.2913
X5.1368Y-3.3504
X5.1417Y-3.9921
X5.1417Y-5.1457
X5.1614Y-4.1811
X5.1654Y-3.2283
X5.1654Y-3.8976
X5.1654Y-4.4921
X5.185Y-5.2165
X5.2165Y-2.1024
X5.2165Y-2.3583
X5.2402Y-2.4488
X5.2795Y-2.252
X5.4173Y-3.5984
X5.4213Y-3.7362
X5.4331Y-3.3425
X5.437Y-5.1417
X5.4449Y-4.9055
X5.4606Y-2.2047
X5.4843Y-4.4882
X5.6732Y-4.8031
X5.6929Y-2.9252
X5.7244Y-4.5984
X5.7559Y-3.6929
X5.815Y-5.1535
X5.8898Y-3.7362
X5.8967Y-2.9567
X5.9094Y-2.2992
X5.9094Y-2.689
X5.9173Y-2.248
X5.9213Y-2.6142
X5.9252Y-3.6614
X6.1411Y-2.6541
X6.2205Y-2.8937
X6.2244Y-4.2717
X6.2283Y-3.6929
X6.2323Y-5.5984
X6.2953Y-3.4961
X6.2992Y-5.0866
X6.3465Y-3.9921
X6.4055Y-2.5591
X6.4055Y-3.937
X6.4055Y-4.0866
X6.4764Y-4.3622
X6.4921Y-3.6299
X6.5Y-5.0551
X6.5945Y-2.8189
X6.8622Y-3.6299
X6.8622Y-4.9843
X6.8858Y-5.3228
X6.9214Y-5.4988
X6.9528Y-5.3819
X7.1181Y-4.9173
X7.1339Y-2.8504
X7.2638Y-5.3819
X7.3543Y-5.3898
X7.4291Y-5.3228
T4
X3.1283Y-3.4488
X3.1283Y-3.5488
X3.1283Y-3.6488
X3.1283Y-3.7488
X3.1283Y-3.8488
X3.1283Y-3.9488
X3.1283Y-4.0488
X3.1283Y-4.1488
X3.2283Y-3.452
X3.2283Y-3.5488
X3.2283Y-3.6488
X3.2283Y-3.7488
X3.2283Y-3.8488
X3.2283Y-3.9488
X3.2283Y-4.0488
X3.2283Y-4.1488
X5.6008Y-5.374
X5.7008Y-5.374
X5.8008Y-5.374
X6.6055Y-3.9331
X6.7055Y-3.9331
X6.8055Y-3.9331
X6.9055Y-3.9331
X4.7795Y-5.0898
X4.7795Y-5.1898
X4.7795Y-5.2898
X4.7795Y-5.3898
T5
X5.3193Y-3.0933
X5.3193Y-3.1933
X5.3193Y-3.2933
X5.3193Y-3.3933
X5.3193Y-3.4933
X5.3193Y-3.5933
X5.3193Y-3.6933
X5.3193Y-3.7933
X5.3193Y-3.8933
X5.3193Y-3.9933
X5.3193Y-4.0933
X5.3193Y-4.1933
X5.3193Y-4.2933
X5.3193Y-4.3933
X5.3193Y-4.4933
X5.3193Y-4.5933
X5.3193Y-4.6933
X5.3193Y-4.7933
X5.3193Y-4.8933
X5.3193Y-4.9933
X5.5693Y-4.9843
X5.6693Y-4.9843
X5.7693Y-4.9843
X6.0193Y-3.0933
X6.0193Y-3.1933
X6.0193Y-3.2933
X6.0193Y-3.3933
X6.0193Y-3.4933
X6.0193Y-3.5933
X6.0193Y-3.6933
X6.0193Y-3.7933
X6.0193Y-3.8933
X6.0193Y-3.9933
X6.0193Y-4.0933
X6.0193Y-4.1933
X6.0193Y-4.2933
X6.0193Y-4.3933
X6.0193Y-4.4933
X6.0193Y-4.5933
X6.0193Y-4.6933
X6.0193Y-4.7933
X6.0193Y-4.8933
X6.0193Y-4.9933
T3
G00X7.1663Y-5.6378
M15
G01X7.1663Y-5.6063
M16
G05
G00X7.4478Y-5.6063
M15
G01X7.4478Y-5.6378
M16
G05
T4
G00X6.7362Y-2.0945
M15
G01X6.7362Y-2.1732
M16
G05
G00X6.9606Y-2.0157
M15
G01X6.8819Y-2.0157
M16
G05
G00X6.9606Y-2.252
M15
G01X6.8819Y-2.252
M16
G05
T0
M30
