G04 #@! TF.GenerationSoftware,KiCad,Pcbnew,5.1.5+dfsg1-2build2*
G04 #@! TF.CreationDate,2022-02-11T05:24:06+00:00*
G04 #@! TF.ProjectId,psion-org2-bluetooth-adapter,7073696f-6e2d-46f7-9267-322d626c7565,rev?*
G04 #@! TF.SameCoordinates,Original*
G04 #@! TF.FileFunction,Soldermask,Bot*
G04 #@! TF.FilePolarity,Negative*
%FSLAX46Y46*%
G04 Gerber Fmt 4.6, Leading zero omitted, Abs format (unit mm)*
G04 Created by KiCad (PCBNEW 5.1.5+dfsg1-2build2) date 2022-02-11 05:24:06*
%MOMM*%
%LPD*%
G04 APERTURE LIST*
%ADD10C,0.100000*%
G04 APERTURE END LIST*
D10*
G36*
X182137916Y-141807334D02*
G01*
X182246492Y-141840271D01*
X182246495Y-141840272D01*
X182282601Y-141859571D01*
X182346557Y-141893756D01*
X182434264Y-141965736D01*
X182506244Y-142053443D01*
X182540429Y-142117399D01*
X182559728Y-142153505D01*
X182559728Y-142153506D01*
X182559729Y-142153508D01*
X182592666Y-142262084D01*
X182601000Y-142346702D01*
X182601000Y-143253298D01*
X182592666Y-143337916D01*
X182559729Y-143446491D01*
X182559728Y-143446495D01*
X182540429Y-143482601D01*
X182506244Y-143546557D01*
X182434264Y-143634264D01*
X182346556Y-143706244D01*
X182282600Y-143740429D01*
X182246494Y-143759728D01*
X182246491Y-143759729D01*
X182137915Y-143792666D01*
X182025000Y-143803787D01*
X181912084Y-143792666D01*
X181803508Y-143759729D01*
X181803505Y-143759728D01*
X181767399Y-143740429D01*
X181703443Y-143706244D01*
X181615736Y-143634264D01*
X181543756Y-143546556D01*
X181490273Y-143446495D01*
X181490272Y-143446494D01*
X181490271Y-143446491D01*
X181457334Y-143337915D01*
X181449000Y-143253297D01*
X181449000Y-142346702D01*
X181457335Y-142262084D01*
X181490272Y-142153508D01*
X181490273Y-142153506D01*
X181490273Y-142153505D01*
X181509572Y-142117399D01*
X181543757Y-142053443D01*
X181615737Y-141965736D01*
X181703444Y-141893756D01*
X181767400Y-141859571D01*
X181803506Y-141840272D01*
X181803509Y-141840271D01*
X181912085Y-141807334D01*
X182025000Y-141796213D01*
X182137916Y-141807334D01*
G37*
G36*
X189287915Y-141807334D02*
G01*
X189396491Y-141840271D01*
X189396494Y-141840272D01*
X189432600Y-141859571D01*
X189496556Y-141893756D01*
X189584264Y-141965736D01*
X189656244Y-142053443D01*
X189690429Y-142117399D01*
X189709728Y-142153505D01*
X189709728Y-142153506D01*
X189709729Y-142153508D01*
X189742666Y-142262084D01*
X189751000Y-142346702D01*
X189751000Y-143253298D01*
X189742666Y-143337916D01*
X189709729Y-143446491D01*
X189709728Y-143446495D01*
X189690429Y-143482601D01*
X189656244Y-143546557D01*
X189584264Y-143634264D01*
X189496557Y-143706244D01*
X189432601Y-143740429D01*
X189396495Y-143759728D01*
X189396492Y-143759729D01*
X189287916Y-143792666D01*
X189175000Y-143803787D01*
X189062085Y-143792666D01*
X188953509Y-143759729D01*
X188953506Y-143759728D01*
X188917400Y-143740429D01*
X188853444Y-143706244D01*
X188765737Y-143634264D01*
X188693757Y-143546557D01*
X188659572Y-143482601D01*
X188640273Y-143446495D01*
X188640272Y-143446491D01*
X188607335Y-143337916D01*
X188599000Y-143253298D01*
X188599000Y-142346703D01*
X188607334Y-142262085D01*
X188640271Y-142153509D01*
X188640272Y-142153506D01*
X188659571Y-142117400D01*
X188693756Y-142053444D01*
X188765736Y-141965736D01*
X188853443Y-141893756D01*
X188917399Y-141859571D01*
X188953505Y-141840272D01*
X188953508Y-141840271D01*
X189062084Y-141807334D01*
X189175000Y-141796213D01*
X189287915Y-141807334D01*
G37*
G36*
X122301000Y-137801000D02*
G01*
X120499000Y-137801000D01*
X120499000Y-135999000D01*
X122301000Y-135999000D01*
X122301000Y-137801000D01*
G37*
G36*
X142373512Y-135603927D02*
G01*
X142522812Y-135633624D01*
X142686784Y-135701544D01*
X142834354Y-135800147D01*
X142959853Y-135925646D01*
X143058456Y-136073216D01*
X143126376Y-136237188D01*
X143161000Y-136411259D01*
X143161000Y-136588741D01*
X143126376Y-136762812D01*
X143058456Y-136926784D01*
X142959853Y-137074354D01*
X142834354Y-137199853D01*
X142686784Y-137298456D01*
X142522812Y-137366376D01*
X142373512Y-137396073D01*
X142348742Y-137401000D01*
X142171258Y-137401000D01*
X142146488Y-137396073D01*
X141997188Y-137366376D01*
X141833216Y-137298456D01*
X141685646Y-137199853D01*
X141560147Y-137074354D01*
X141461544Y-136926784D01*
X141393624Y-136762812D01*
X141359000Y-136588741D01*
X141359000Y-136411259D01*
X141393624Y-136237188D01*
X141461544Y-136073216D01*
X141560147Y-135925646D01*
X141685646Y-135800147D01*
X141833216Y-135701544D01*
X141997188Y-135633624D01*
X142146488Y-135603927D01*
X142171258Y-135599000D01*
X142348742Y-135599000D01*
X142373512Y-135603927D01*
G37*
G36*
X144913512Y-135603927D02*
G01*
X145062812Y-135633624D01*
X145226784Y-135701544D01*
X145374354Y-135800147D01*
X145499853Y-135925646D01*
X145598456Y-136073216D01*
X145666376Y-136237188D01*
X145701000Y-136411259D01*
X145701000Y-136588741D01*
X145666376Y-136762812D01*
X145598456Y-136926784D01*
X145499853Y-137074354D01*
X145374354Y-137199853D01*
X145226784Y-137298456D01*
X145062812Y-137366376D01*
X144913512Y-137396073D01*
X144888742Y-137401000D01*
X144711258Y-137401000D01*
X144686488Y-137396073D01*
X144537188Y-137366376D01*
X144373216Y-137298456D01*
X144225646Y-137199853D01*
X144100147Y-137074354D01*
X144001544Y-136926784D01*
X143933624Y-136762812D01*
X143899000Y-136588741D01*
X143899000Y-136411259D01*
X143933624Y-136237188D01*
X144001544Y-136073216D01*
X144100147Y-135925646D01*
X144225646Y-135800147D01*
X144373216Y-135701544D01*
X144537188Y-135633624D01*
X144686488Y-135603927D01*
X144711258Y-135599000D01*
X144888742Y-135599000D01*
X144913512Y-135603927D01*
G37*
G36*
X148241000Y-137401000D02*
G01*
X146439000Y-137401000D01*
X146439000Y-135599000D01*
X148241000Y-135599000D01*
X148241000Y-137401000D01*
G37*
G36*
X121513512Y-133463927D02*
G01*
X121662812Y-133493624D01*
X121826784Y-133561544D01*
X121974354Y-133660147D01*
X122099853Y-133785646D01*
X122198456Y-133933216D01*
X122266376Y-134097188D01*
X122301000Y-134271259D01*
X122301000Y-134448741D01*
X122266376Y-134622812D01*
X122198456Y-134786784D01*
X122099853Y-134934354D01*
X121974354Y-135059853D01*
X121826784Y-135158456D01*
X121662812Y-135226376D01*
X121513512Y-135256073D01*
X121488742Y-135261000D01*
X121311258Y-135261000D01*
X121286488Y-135256073D01*
X121137188Y-135226376D01*
X120973216Y-135158456D01*
X120825646Y-135059853D01*
X120700147Y-134934354D01*
X120601544Y-134786784D01*
X120533624Y-134622812D01*
X120499000Y-134448741D01*
X120499000Y-134271259D01*
X120533624Y-134097188D01*
X120601544Y-133933216D01*
X120700147Y-133785646D01*
X120825646Y-133660147D01*
X120973216Y-133561544D01*
X121137188Y-133493624D01*
X121286488Y-133463927D01*
X121311258Y-133459000D01*
X121488742Y-133459000D01*
X121513512Y-133463927D01*
G37*
G36*
X121513512Y-130923927D02*
G01*
X121662812Y-130953624D01*
X121826784Y-131021544D01*
X121974354Y-131120147D01*
X122099853Y-131245646D01*
X122198456Y-131393216D01*
X122266376Y-131557188D01*
X122301000Y-131731259D01*
X122301000Y-131908741D01*
X122266376Y-132082812D01*
X122198456Y-132246784D01*
X122099853Y-132394354D01*
X121974354Y-132519853D01*
X121826784Y-132618456D01*
X121662812Y-132686376D01*
X121513512Y-132716073D01*
X121488742Y-132721000D01*
X121311258Y-132721000D01*
X121286488Y-132716073D01*
X121137188Y-132686376D01*
X120973216Y-132618456D01*
X120825646Y-132519853D01*
X120700147Y-132394354D01*
X120601544Y-132246784D01*
X120533624Y-132082812D01*
X120499000Y-131908741D01*
X120499000Y-131731259D01*
X120533624Y-131557188D01*
X120601544Y-131393216D01*
X120700147Y-131245646D01*
X120825646Y-131120147D01*
X120973216Y-131021544D01*
X121137188Y-130953624D01*
X121286488Y-130923927D01*
X121311258Y-130919000D01*
X121488742Y-130919000D01*
X121513512Y-130923927D01*
G37*
G36*
X186263444Y-128731882D02*
G01*
X186490201Y-128825808D01*
X186490202Y-128825809D01*
X186694279Y-128962168D01*
X186867832Y-129135721D01*
X186904940Y-129191258D01*
X187004192Y-129339799D01*
X187098118Y-129566556D01*
X187146000Y-129807278D01*
X187146000Y-130052722D01*
X187098118Y-130293444D01*
X187004192Y-130520201D01*
X187004191Y-130520202D01*
X186867832Y-130724279D01*
X186694279Y-130897832D01*
X186610778Y-130953625D01*
X186490201Y-131034192D01*
X186263444Y-131128118D01*
X186022722Y-131176000D01*
X185777278Y-131176000D01*
X185536556Y-131128118D01*
X185309799Y-131034192D01*
X185189222Y-130953625D01*
X185105721Y-130897832D01*
X184932168Y-130724279D01*
X184795809Y-130520202D01*
X184795808Y-130520201D01*
X184701882Y-130293444D01*
X184654000Y-130052722D01*
X184654000Y-129807278D01*
X184701882Y-129566556D01*
X184795808Y-129339799D01*
X184895060Y-129191258D01*
X184932168Y-129135721D01*
X185105721Y-128962168D01*
X185309798Y-128825809D01*
X185309799Y-128825808D01*
X185536556Y-128731882D01*
X185777278Y-128684000D01*
X186022722Y-128684000D01*
X186263444Y-128731882D01*
G37*
G36*
X121513512Y-128383927D02*
G01*
X121662812Y-128413624D01*
X121826784Y-128481544D01*
X121974354Y-128580147D01*
X122099853Y-128705646D01*
X122198456Y-128853216D01*
X122266376Y-129017188D01*
X122301000Y-129191259D01*
X122301000Y-129368741D01*
X122266376Y-129542812D01*
X122198456Y-129706784D01*
X122099853Y-129854354D01*
X121974354Y-129979853D01*
X121826784Y-130078456D01*
X121662812Y-130146376D01*
X121513512Y-130176073D01*
X121488742Y-130181000D01*
X121311258Y-130181000D01*
X121286488Y-130176073D01*
X121137188Y-130146376D01*
X120973216Y-130078456D01*
X120825646Y-129979853D01*
X120700147Y-129854354D01*
X120601544Y-129706784D01*
X120533624Y-129542812D01*
X120499000Y-129368741D01*
X120499000Y-129191259D01*
X120533624Y-129017188D01*
X120601544Y-128853216D01*
X120700147Y-128705646D01*
X120825646Y-128580147D01*
X120973216Y-128481544D01*
X121137188Y-128413624D01*
X121286488Y-128383927D01*
X121311258Y-128379000D01*
X121488742Y-128379000D01*
X121513512Y-128383927D01*
G37*
G36*
X135223512Y-125933927D02*
G01*
X135372812Y-125963624D01*
X135536784Y-126031544D01*
X135684354Y-126130147D01*
X135809853Y-126255646D01*
X135908456Y-126403216D01*
X135976376Y-126567188D01*
X136011000Y-126741259D01*
X136011000Y-126918741D01*
X135976376Y-127092812D01*
X135908456Y-127256784D01*
X135809853Y-127404354D01*
X135684354Y-127529853D01*
X135536784Y-127628456D01*
X135372812Y-127696376D01*
X135223512Y-127726073D01*
X135198742Y-127731000D01*
X135021258Y-127731000D01*
X134996488Y-127726073D01*
X134847188Y-127696376D01*
X134683216Y-127628456D01*
X134535646Y-127529853D01*
X134410147Y-127404354D01*
X134311544Y-127256784D01*
X134243624Y-127092812D01*
X134209000Y-126918741D01*
X134209000Y-126741259D01*
X134243624Y-126567188D01*
X134311544Y-126403216D01*
X134410147Y-126255646D01*
X134535646Y-126130147D01*
X134683216Y-126031544D01*
X134847188Y-125963624D01*
X134996488Y-125933927D01*
X135021258Y-125929000D01*
X135198742Y-125929000D01*
X135223512Y-125933927D01*
G37*
G36*
X153003512Y-125933927D02*
G01*
X153152812Y-125963624D01*
X153316784Y-126031544D01*
X153464354Y-126130147D01*
X153589853Y-126255646D01*
X153688456Y-126403216D01*
X153756376Y-126567188D01*
X153791000Y-126741259D01*
X153791000Y-126918741D01*
X153756376Y-127092812D01*
X153688456Y-127256784D01*
X153589853Y-127404354D01*
X153464354Y-127529853D01*
X153316784Y-127628456D01*
X153152812Y-127696376D01*
X153003512Y-127726073D01*
X152978742Y-127731000D01*
X152801258Y-127731000D01*
X152776488Y-127726073D01*
X152627188Y-127696376D01*
X152463216Y-127628456D01*
X152315646Y-127529853D01*
X152190147Y-127404354D01*
X152091544Y-127256784D01*
X152023624Y-127092812D01*
X151989000Y-126918741D01*
X151989000Y-126741259D01*
X152023624Y-126567188D01*
X152091544Y-126403216D01*
X152190147Y-126255646D01*
X152315646Y-126130147D01*
X152463216Y-126031544D01*
X152627188Y-125963624D01*
X152776488Y-125933927D01*
X152801258Y-125929000D01*
X152978742Y-125929000D01*
X153003512Y-125933927D01*
G37*
G36*
X144901000Y-127501000D02*
G01*
X143099000Y-127501000D01*
X143099000Y-125699000D01*
X144901000Y-125699000D01*
X144901000Y-127501000D01*
G37*
G36*
X141573512Y-125703927D02*
G01*
X141722812Y-125733624D01*
X141886784Y-125801544D01*
X142034354Y-125900147D01*
X142159853Y-126025646D01*
X142258456Y-126173216D01*
X142326376Y-126337188D01*
X142361000Y-126511259D01*
X142361000Y-126688741D01*
X142326376Y-126862812D01*
X142258456Y-127026784D01*
X142159853Y-127174354D01*
X142034354Y-127299853D01*
X141886784Y-127398456D01*
X141722812Y-127466376D01*
X141573512Y-127496073D01*
X141548742Y-127501000D01*
X141371258Y-127501000D01*
X141346488Y-127496073D01*
X141197188Y-127466376D01*
X141033216Y-127398456D01*
X140885646Y-127299853D01*
X140760147Y-127174354D01*
X140661544Y-127026784D01*
X140593624Y-126862812D01*
X140559000Y-126688741D01*
X140559000Y-126511259D01*
X140593624Y-126337188D01*
X140661544Y-126173216D01*
X140760147Y-126025646D01*
X140885646Y-125900147D01*
X141033216Y-125801544D01*
X141197188Y-125733624D01*
X141346488Y-125703927D01*
X141371258Y-125699000D01*
X141548742Y-125699000D01*
X141573512Y-125703927D01*
G37*
G36*
X146653512Y-125703927D02*
G01*
X146802812Y-125733624D01*
X146966784Y-125801544D01*
X147114354Y-125900147D01*
X147239853Y-126025646D01*
X147338456Y-126173216D01*
X147406376Y-126337188D01*
X147441000Y-126511259D01*
X147441000Y-126688741D01*
X147406376Y-126862812D01*
X147338456Y-127026784D01*
X147239853Y-127174354D01*
X147114354Y-127299853D01*
X146966784Y-127398456D01*
X146802812Y-127466376D01*
X146653512Y-127496073D01*
X146628742Y-127501000D01*
X146451258Y-127501000D01*
X146426488Y-127496073D01*
X146277188Y-127466376D01*
X146113216Y-127398456D01*
X145965646Y-127299853D01*
X145840147Y-127174354D01*
X145741544Y-127026784D01*
X145673624Y-126862812D01*
X145639000Y-126688741D01*
X145639000Y-126511259D01*
X145673624Y-126337188D01*
X145741544Y-126173216D01*
X145840147Y-126025646D01*
X145965646Y-125900147D01*
X146113216Y-125801544D01*
X146277188Y-125733624D01*
X146426488Y-125703927D01*
X146451258Y-125699000D01*
X146628742Y-125699000D01*
X146653512Y-125703927D01*
G37*
G36*
X135223512Y-123393927D02*
G01*
X135372812Y-123423624D01*
X135536784Y-123491544D01*
X135684354Y-123590147D01*
X135809853Y-123715646D01*
X135908456Y-123863216D01*
X135976376Y-124027188D01*
X136011000Y-124201259D01*
X136011000Y-124378741D01*
X135976376Y-124552812D01*
X135908456Y-124716784D01*
X135809853Y-124864354D01*
X135684354Y-124989853D01*
X135536784Y-125088456D01*
X135372812Y-125156376D01*
X135223512Y-125186073D01*
X135198742Y-125191000D01*
X135021258Y-125191000D01*
X134996488Y-125186073D01*
X134847188Y-125156376D01*
X134683216Y-125088456D01*
X134535646Y-124989853D01*
X134410147Y-124864354D01*
X134311544Y-124716784D01*
X134243624Y-124552812D01*
X134209000Y-124378741D01*
X134209000Y-124201259D01*
X134243624Y-124027188D01*
X134311544Y-123863216D01*
X134410147Y-123715646D01*
X134535646Y-123590147D01*
X134683216Y-123491544D01*
X134847188Y-123423624D01*
X134996488Y-123393927D01*
X135021258Y-123389000D01*
X135198742Y-123389000D01*
X135223512Y-123393927D01*
G37*
G36*
X153003512Y-123393927D02*
G01*
X153152812Y-123423624D01*
X153316784Y-123491544D01*
X153464354Y-123590147D01*
X153589853Y-123715646D01*
X153688456Y-123863216D01*
X153756376Y-124027188D01*
X153791000Y-124201259D01*
X153791000Y-124378741D01*
X153756376Y-124552812D01*
X153688456Y-124716784D01*
X153589853Y-124864354D01*
X153464354Y-124989853D01*
X153316784Y-125088456D01*
X153152812Y-125156376D01*
X153003512Y-125186073D01*
X152978742Y-125191000D01*
X152801258Y-125191000D01*
X152776488Y-125186073D01*
X152627188Y-125156376D01*
X152463216Y-125088456D01*
X152315646Y-124989853D01*
X152190147Y-124864354D01*
X152091544Y-124716784D01*
X152023624Y-124552812D01*
X151989000Y-124378741D01*
X151989000Y-124201259D01*
X152023624Y-124027188D01*
X152091544Y-123863216D01*
X152190147Y-123715646D01*
X152315646Y-123590147D01*
X152463216Y-123491544D01*
X152627188Y-123423624D01*
X152776488Y-123393927D01*
X152801258Y-123389000D01*
X152978742Y-123389000D01*
X153003512Y-123393927D01*
G37*
G36*
X202418039Y-119892250D02*
G01*
X202607372Y-119970675D01*
X202741251Y-120026129D01*
X203032134Y-120220491D01*
X203279509Y-120467866D01*
X203473871Y-120758749D01*
X203473871Y-120758750D01*
X203607750Y-121081961D01*
X203676000Y-121425078D01*
X203676000Y-121774922D01*
X203607750Y-122118039D01*
X203529325Y-122307372D01*
X203473871Y-122441251D01*
X203279509Y-122732134D01*
X203032134Y-122979509D01*
X202741251Y-123173871D01*
X202607372Y-123229325D01*
X202418039Y-123307750D01*
X202074922Y-123376000D01*
X201725078Y-123376000D01*
X201381961Y-123307750D01*
X201192628Y-123229325D01*
X201058749Y-123173871D01*
X200767866Y-122979509D01*
X200520491Y-122732134D01*
X200326129Y-122441251D01*
X200270675Y-122307372D01*
X200192250Y-122118039D01*
X200124000Y-121774922D01*
X200124000Y-121425078D01*
X200192250Y-121081961D01*
X200326129Y-120758750D01*
X200326129Y-120758749D01*
X200520491Y-120467866D01*
X200767866Y-120220491D01*
X201058749Y-120026129D01*
X201192628Y-119970675D01*
X201381961Y-119892250D01*
X201725078Y-119824000D01*
X202074922Y-119824000D01*
X202418039Y-119892250D01*
G37*
G36*
X136011000Y-122651000D02*
G01*
X134209000Y-122651000D01*
X134209000Y-120849000D01*
X136011000Y-120849000D01*
X136011000Y-122651000D01*
G37*
G36*
X153791000Y-122651000D02*
G01*
X151989000Y-122651000D01*
X151989000Y-120849000D01*
X153791000Y-120849000D01*
X153791000Y-122651000D01*
G37*
G36*
X135223512Y-118313927D02*
G01*
X135372812Y-118343624D01*
X135536784Y-118411544D01*
X135684354Y-118510147D01*
X135809853Y-118635646D01*
X135908456Y-118783216D01*
X135976376Y-118947188D01*
X136011000Y-119121259D01*
X136011000Y-119298741D01*
X135976376Y-119472812D01*
X135908456Y-119636784D01*
X135809853Y-119784354D01*
X135684354Y-119909853D01*
X135536784Y-120008456D01*
X135372812Y-120076376D01*
X135223512Y-120106073D01*
X135198742Y-120111000D01*
X135021258Y-120111000D01*
X134996488Y-120106073D01*
X134847188Y-120076376D01*
X134683216Y-120008456D01*
X134535646Y-119909853D01*
X134410147Y-119784354D01*
X134311544Y-119636784D01*
X134243624Y-119472812D01*
X134209000Y-119298741D01*
X134209000Y-119121259D01*
X134243624Y-118947188D01*
X134311544Y-118783216D01*
X134410147Y-118635646D01*
X134535646Y-118510147D01*
X134683216Y-118411544D01*
X134847188Y-118343624D01*
X134996488Y-118313927D01*
X135021258Y-118309000D01*
X135198742Y-118309000D01*
X135223512Y-118313927D01*
G37*
G36*
X153003512Y-118313927D02*
G01*
X153152812Y-118343624D01*
X153316784Y-118411544D01*
X153464354Y-118510147D01*
X153589853Y-118635646D01*
X153688456Y-118783216D01*
X153756376Y-118947188D01*
X153791000Y-119121259D01*
X153791000Y-119298741D01*
X153756376Y-119472812D01*
X153688456Y-119636784D01*
X153589853Y-119784354D01*
X153464354Y-119909853D01*
X153316784Y-120008456D01*
X153152812Y-120076376D01*
X153003512Y-120106073D01*
X152978742Y-120111000D01*
X152801258Y-120111000D01*
X152776488Y-120106073D01*
X152627188Y-120076376D01*
X152463216Y-120008456D01*
X152315646Y-119909853D01*
X152190147Y-119784354D01*
X152091544Y-119636784D01*
X152023624Y-119472812D01*
X151989000Y-119298741D01*
X151989000Y-119121259D01*
X152023624Y-118947188D01*
X152091544Y-118783216D01*
X152190147Y-118635646D01*
X152315646Y-118510147D01*
X152463216Y-118411544D01*
X152627188Y-118343624D01*
X152776488Y-118313927D01*
X152801258Y-118309000D01*
X152978742Y-118309000D01*
X153003512Y-118313927D01*
G37*
G36*
X153003512Y-115773927D02*
G01*
X153152812Y-115803624D01*
X153316784Y-115871544D01*
X153464354Y-115970147D01*
X153589853Y-116095646D01*
X153688456Y-116243216D01*
X153756376Y-116407188D01*
X153791000Y-116581259D01*
X153791000Y-116758741D01*
X153756376Y-116932812D01*
X153688456Y-117096784D01*
X153589853Y-117244354D01*
X153464354Y-117369853D01*
X153316784Y-117468456D01*
X153152812Y-117536376D01*
X153003512Y-117566073D01*
X152978742Y-117571000D01*
X152801258Y-117571000D01*
X152776488Y-117566073D01*
X152627188Y-117536376D01*
X152463216Y-117468456D01*
X152315646Y-117369853D01*
X152190147Y-117244354D01*
X152091544Y-117096784D01*
X152023624Y-116932812D01*
X151989000Y-116758741D01*
X151989000Y-116581259D01*
X152023624Y-116407188D01*
X152091544Y-116243216D01*
X152190147Y-116095646D01*
X152315646Y-115970147D01*
X152463216Y-115871544D01*
X152627188Y-115803624D01*
X152776488Y-115773927D01*
X152801258Y-115769000D01*
X152978742Y-115769000D01*
X153003512Y-115773927D01*
G37*
G36*
X135223512Y-115773927D02*
G01*
X135372812Y-115803624D01*
X135536784Y-115871544D01*
X135684354Y-115970147D01*
X135809853Y-116095646D01*
X135908456Y-116243216D01*
X135976376Y-116407188D01*
X136011000Y-116581259D01*
X136011000Y-116758741D01*
X135976376Y-116932812D01*
X135908456Y-117096784D01*
X135809853Y-117244354D01*
X135684354Y-117369853D01*
X135536784Y-117468456D01*
X135372812Y-117536376D01*
X135223512Y-117566073D01*
X135198742Y-117571000D01*
X135021258Y-117571000D01*
X134996488Y-117566073D01*
X134847188Y-117536376D01*
X134683216Y-117468456D01*
X134535646Y-117369853D01*
X134410147Y-117244354D01*
X134311544Y-117096784D01*
X134243624Y-116932812D01*
X134209000Y-116758741D01*
X134209000Y-116581259D01*
X134243624Y-116407188D01*
X134311544Y-116243216D01*
X134410147Y-116095646D01*
X134535646Y-115970147D01*
X134683216Y-115871544D01*
X134847188Y-115803624D01*
X134996488Y-115773927D01*
X135021258Y-115769000D01*
X135198742Y-115769000D01*
X135223512Y-115773927D01*
G37*
G36*
X135223512Y-113233927D02*
G01*
X135372812Y-113263624D01*
X135536784Y-113331544D01*
X135684354Y-113430147D01*
X135809853Y-113555646D01*
X135908456Y-113703216D01*
X135976376Y-113867188D01*
X136011000Y-114041259D01*
X136011000Y-114218741D01*
X135976376Y-114392812D01*
X135908456Y-114556784D01*
X135809853Y-114704354D01*
X135684354Y-114829853D01*
X135536784Y-114928456D01*
X135372812Y-114996376D01*
X135223512Y-115026073D01*
X135198742Y-115031000D01*
X135021258Y-115031000D01*
X134996488Y-115026073D01*
X134847188Y-114996376D01*
X134683216Y-114928456D01*
X134535646Y-114829853D01*
X134410147Y-114704354D01*
X134311544Y-114556784D01*
X134243624Y-114392812D01*
X134209000Y-114218741D01*
X134209000Y-114041259D01*
X134243624Y-113867188D01*
X134311544Y-113703216D01*
X134410147Y-113555646D01*
X134535646Y-113430147D01*
X134683216Y-113331544D01*
X134847188Y-113263624D01*
X134996488Y-113233927D01*
X135021258Y-113229000D01*
X135198742Y-113229000D01*
X135223512Y-113233927D01*
G37*
G36*
X153003512Y-113233927D02*
G01*
X153152812Y-113263624D01*
X153316784Y-113331544D01*
X153464354Y-113430147D01*
X153589853Y-113555646D01*
X153688456Y-113703216D01*
X153756376Y-113867188D01*
X153791000Y-114041259D01*
X153791000Y-114218741D01*
X153756376Y-114392812D01*
X153688456Y-114556784D01*
X153589853Y-114704354D01*
X153464354Y-114829853D01*
X153316784Y-114928456D01*
X153152812Y-114996376D01*
X153003512Y-115026073D01*
X152978742Y-115031000D01*
X152801258Y-115031000D01*
X152776488Y-115026073D01*
X152627188Y-114996376D01*
X152463216Y-114928456D01*
X152315646Y-114829853D01*
X152190147Y-114704354D01*
X152091544Y-114556784D01*
X152023624Y-114392812D01*
X151989000Y-114218741D01*
X151989000Y-114041259D01*
X152023624Y-113867188D01*
X152091544Y-113703216D01*
X152190147Y-113555646D01*
X152315646Y-113430147D01*
X152463216Y-113331544D01*
X152627188Y-113263624D01*
X152776488Y-113233927D01*
X152801258Y-113229000D01*
X152978742Y-113229000D01*
X153003512Y-113233927D01*
G37*
G36*
X153003512Y-110693927D02*
G01*
X153152812Y-110723624D01*
X153316784Y-110791544D01*
X153464354Y-110890147D01*
X153589853Y-111015646D01*
X153688456Y-111163216D01*
X153756376Y-111327188D01*
X153791000Y-111501259D01*
X153791000Y-111678741D01*
X153756376Y-111852812D01*
X153688456Y-112016784D01*
X153589853Y-112164354D01*
X153464354Y-112289853D01*
X153316784Y-112388456D01*
X153152812Y-112456376D01*
X153003512Y-112486073D01*
X152978742Y-112491000D01*
X152801258Y-112491000D01*
X152776488Y-112486073D01*
X152627188Y-112456376D01*
X152463216Y-112388456D01*
X152315646Y-112289853D01*
X152190147Y-112164354D01*
X152091544Y-112016784D01*
X152023624Y-111852812D01*
X151989000Y-111678741D01*
X151989000Y-111501259D01*
X152023624Y-111327188D01*
X152091544Y-111163216D01*
X152190147Y-111015646D01*
X152315646Y-110890147D01*
X152463216Y-110791544D01*
X152627188Y-110723624D01*
X152776488Y-110693927D01*
X152801258Y-110689000D01*
X152978742Y-110689000D01*
X153003512Y-110693927D01*
G37*
G36*
X135223512Y-110693927D02*
G01*
X135372812Y-110723624D01*
X135536784Y-110791544D01*
X135684354Y-110890147D01*
X135809853Y-111015646D01*
X135908456Y-111163216D01*
X135976376Y-111327188D01*
X136011000Y-111501259D01*
X136011000Y-111678741D01*
X135976376Y-111852812D01*
X135908456Y-112016784D01*
X135809853Y-112164354D01*
X135684354Y-112289853D01*
X135536784Y-112388456D01*
X135372812Y-112456376D01*
X135223512Y-112486073D01*
X135198742Y-112491000D01*
X135021258Y-112491000D01*
X134996488Y-112486073D01*
X134847188Y-112456376D01*
X134683216Y-112388456D01*
X134535646Y-112289853D01*
X134410147Y-112164354D01*
X134311544Y-112016784D01*
X134243624Y-111852812D01*
X134209000Y-111678741D01*
X134209000Y-111501259D01*
X134243624Y-111327188D01*
X134311544Y-111163216D01*
X134410147Y-111015646D01*
X134535646Y-110890147D01*
X134683216Y-110791544D01*
X134847188Y-110723624D01*
X134996488Y-110693927D01*
X135021258Y-110689000D01*
X135198742Y-110689000D01*
X135223512Y-110693927D01*
G37*
G36*
X153791000Y-109951000D02*
G01*
X151989000Y-109951000D01*
X151989000Y-108149000D01*
X153791000Y-108149000D01*
X153791000Y-109951000D01*
G37*
G36*
X136011000Y-109951000D02*
G01*
X134209000Y-109951000D01*
X134209000Y-108149000D01*
X136011000Y-108149000D01*
X136011000Y-109951000D01*
G37*
G36*
X135223512Y-105613927D02*
G01*
X135372812Y-105643624D01*
X135536784Y-105711544D01*
X135684354Y-105810147D01*
X135809853Y-105935646D01*
X135908456Y-106083216D01*
X135976376Y-106247188D01*
X136011000Y-106421259D01*
X136011000Y-106598741D01*
X135976376Y-106772812D01*
X135908456Y-106936784D01*
X135809853Y-107084354D01*
X135684354Y-107209853D01*
X135536784Y-107308456D01*
X135372812Y-107376376D01*
X135223512Y-107406073D01*
X135198742Y-107411000D01*
X135021258Y-107411000D01*
X134996488Y-107406073D01*
X134847188Y-107376376D01*
X134683216Y-107308456D01*
X134535646Y-107209853D01*
X134410147Y-107084354D01*
X134311544Y-106936784D01*
X134243624Y-106772812D01*
X134209000Y-106598741D01*
X134209000Y-106421259D01*
X134243624Y-106247188D01*
X134311544Y-106083216D01*
X134410147Y-105935646D01*
X134535646Y-105810147D01*
X134683216Y-105711544D01*
X134847188Y-105643624D01*
X134996488Y-105613927D01*
X135021258Y-105609000D01*
X135198742Y-105609000D01*
X135223512Y-105613927D01*
G37*
G36*
X153003512Y-105613927D02*
G01*
X153152812Y-105643624D01*
X153316784Y-105711544D01*
X153464354Y-105810147D01*
X153589853Y-105935646D01*
X153688456Y-106083216D01*
X153756376Y-106247188D01*
X153791000Y-106421259D01*
X153791000Y-106598741D01*
X153756376Y-106772812D01*
X153688456Y-106936784D01*
X153589853Y-107084354D01*
X153464354Y-107209853D01*
X153316784Y-107308456D01*
X153152812Y-107376376D01*
X153003512Y-107406073D01*
X152978742Y-107411000D01*
X152801258Y-107411000D01*
X152776488Y-107406073D01*
X152627188Y-107376376D01*
X152463216Y-107308456D01*
X152315646Y-107209853D01*
X152190147Y-107084354D01*
X152091544Y-106936784D01*
X152023624Y-106772812D01*
X151989000Y-106598741D01*
X151989000Y-106421259D01*
X152023624Y-106247188D01*
X152091544Y-106083216D01*
X152190147Y-105935646D01*
X152315646Y-105810147D01*
X152463216Y-105711544D01*
X152627188Y-105643624D01*
X152776488Y-105613927D01*
X152801258Y-105609000D01*
X152978742Y-105609000D01*
X153003512Y-105613927D01*
G37*
G36*
X82113512Y-104483927D02*
G01*
X82262812Y-104513624D01*
X82426784Y-104581544D01*
X82574354Y-104680147D01*
X82699853Y-104805646D01*
X82798456Y-104953216D01*
X82866376Y-105117188D01*
X82901000Y-105291259D01*
X82901000Y-105468741D01*
X82866376Y-105642812D01*
X82798456Y-105806784D01*
X82699853Y-105954354D01*
X82574354Y-106079853D01*
X82426784Y-106178456D01*
X82262812Y-106246376D01*
X82113512Y-106276073D01*
X82088742Y-106281000D01*
X81911258Y-106281000D01*
X81886488Y-106276073D01*
X81737188Y-106246376D01*
X81573216Y-106178456D01*
X81425646Y-106079853D01*
X81300147Y-105954354D01*
X81201544Y-105806784D01*
X81133624Y-105642812D01*
X81099000Y-105468741D01*
X81099000Y-105291259D01*
X81133624Y-105117188D01*
X81201544Y-104953216D01*
X81300147Y-104805646D01*
X81425646Y-104680147D01*
X81573216Y-104581544D01*
X81737188Y-104513624D01*
X81886488Y-104483927D01*
X81911258Y-104479000D01*
X82088742Y-104479000D01*
X82113512Y-104483927D01*
G37*
G36*
X79573512Y-104483927D02*
G01*
X79722812Y-104513624D01*
X79886784Y-104581544D01*
X80034354Y-104680147D01*
X80159853Y-104805646D01*
X80258456Y-104953216D01*
X80326376Y-105117188D01*
X80361000Y-105291259D01*
X80361000Y-105468741D01*
X80326376Y-105642812D01*
X80258456Y-105806784D01*
X80159853Y-105954354D01*
X80034354Y-106079853D01*
X79886784Y-106178456D01*
X79722812Y-106246376D01*
X79573512Y-106276073D01*
X79548742Y-106281000D01*
X79371258Y-106281000D01*
X79346488Y-106276073D01*
X79197188Y-106246376D01*
X79033216Y-106178456D01*
X78885646Y-106079853D01*
X78760147Y-105954354D01*
X78661544Y-105806784D01*
X78593624Y-105642812D01*
X78559000Y-105468741D01*
X78559000Y-105291259D01*
X78593624Y-105117188D01*
X78661544Y-104953216D01*
X78760147Y-104805646D01*
X78885646Y-104680147D01*
X79033216Y-104581544D01*
X79197188Y-104513624D01*
X79346488Y-104483927D01*
X79371258Y-104479000D01*
X79548742Y-104479000D01*
X79573512Y-104483927D01*
G37*
G36*
X153003512Y-103073927D02*
G01*
X153152812Y-103103624D01*
X153316784Y-103171544D01*
X153464354Y-103270147D01*
X153589853Y-103395646D01*
X153688456Y-103543216D01*
X153756376Y-103707188D01*
X153791000Y-103881259D01*
X153791000Y-104058741D01*
X153756376Y-104232812D01*
X153688456Y-104396784D01*
X153589853Y-104544354D01*
X153464354Y-104669853D01*
X153316784Y-104768456D01*
X153152812Y-104836376D01*
X153003512Y-104866073D01*
X152978742Y-104871000D01*
X152801258Y-104871000D01*
X152776488Y-104866073D01*
X152627188Y-104836376D01*
X152463216Y-104768456D01*
X152315646Y-104669853D01*
X152190147Y-104544354D01*
X152091544Y-104396784D01*
X152023624Y-104232812D01*
X151989000Y-104058741D01*
X151989000Y-103881259D01*
X152023624Y-103707188D01*
X152091544Y-103543216D01*
X152190147Y-103395646D01*
X152315646Y-103270147D01*
X152463216Y-103171544D01*
X152627188Y-103103624D01*
X152776488Y-103073927D01*
X152801258Y-103069000D01*
X152978742Y-103069000D01*
X153003512Y-103073927D01*
G37*
G36*
X135223512Y-103073927D02*
G01*
X135372812Y-103103624D01*
X135536784Y-103171544D01*
X135684354Y-103270147D01*
X135809853Y-103395646D01*
X135908456Y-103543216D01*
X135976376Y-103707188D01*
X136011000Y-103881259D01*
X136011000Y-104058741D01*
X135976376Y-104232812D01*
X135908456Y-104396784D01*
X135809853Y-104544354D01*
X135684354Y-104669853D01*
X135536784Y-104768456D01*
X135372812Y-104836376D01*
X135223512Y-104866073D01*
X135198742Y-104871000D01*
X135021258Y-104871000D01*
X134996488Y-104866073D01*
X134847188Y-104836376D01*
X134683216Y-104768456D01*
X134535646Y-104669853D01*
X134410147Y-104544354D01*
X134311544Y-104396784D01*
X134243624Y-104232812D01*
X134209000Y-104058741D01*
X134209000Y-103881259D01*
X134243624Y-103707188D01*
X134311544Y-103543216D01*
X134410147Y-103395646D01*
X134535646Y-103270147D01*
X134683216Y-103171544D01*
X134847188Y-103103624D01*
X134996488Y-103073927D01*
X135021258Y-103069000D01*
X135198742Y-103069000D01*
X135223512Y-103073927D01*
G37*
G36*
X82113512Y-101943927D02*
G01*
X82262812Y-101973624D01*
X82426784Y-102041544D01*
X82574354Y-102140147D01*
X82699853Y-102265646D01*
X82798456Y-102413216D01*
X82866376Y-102577188D01*
X82901000Y-102751259D01*
X82901000Y-102928741D01*
X82866376Y-103102812D01*
X82798456Y-103266784D01*
X82699853Y-103414354D01*
X82574354Y-103539853D01*
X82426784Y-103638456D01*
X82262812Y-103706376D01*
X82113512Y-103736073D01*
X82088742Y-103741000D01*
X81911258Y-103741000D01*
X81886488Y-103736073D01*
X81737188Y-103706376D01*
X81573216Y-103638456D01*
X81425646Y-103539853D01*
X81300147Y-103414354D01*
X81201544Y-103266784D01*
X81133624Y-103102812D01*
X81099000Y-102928741D01*
X81099000Y-102751259D01*
X81133624Y-102577188D01*
X81201544Y-102413216D01*
X81300147Y-102265646D01*
X81425646Y-102140147D01*
X81573216Y-102041544D01*
X81737188Y-101973624D01*
X81886488Y-101943927D01*
X81911258Y-101939000D01*
X82088742Y-101939000D01*
X82113512Y-101943927D01*
G37*
G36*
X79573512Y-101943927D02*
G01*
X79722812Y-101973624D01*
X79886784Y-102041544D01*
X80034354Y-102140147D01*
X80159853Y-102265646D01*
X80258456Y-102413216D01*
X80326376Y-102577188D01*
X80361000Y-102751259D01*
X80361000Y-102928741D01*
X80326376Y-103102812D01*
X80258456Y-103266784D01*
X80159853Y-103414354D01*
X80034354Y-103539853D01*
X79886784Y-103638456D01*
X79722812Y-103706376D01*
X79573512Y-103736073D01*
X79548742Y-103741000D01*
X79371258Y-103741000D01*
X79346488Y-103736073D01*
X79197188Y-103706376D01*
X79033216Y-103638456D01*
X78885646Y-103539853D01*
X78760147Y-103414354D01*
X78661544Y-103266784D01*
X78593624Y-103102812D01*
X78559000Y-102928741D01*
X78559000Y-102751259D01*
X78593624Y-102577188D01*
X78661544Y-102413216D01*
X78760147Y-102265646D01*
X78885646Y-102140147D01*
X79033216Y-102041544D01*
X79197188Y-101973624D01*
X79346488Y-101943927D01*
X79371258Y-101939000D01*
X79548742Y-101939000D01*
X79573512Y-101943927D01*
G37*
G36*
X135223512Y-100533927D02*
G01*
X135372812Y-100563624D01*
X135536784Y-100631544D01*
X135684354Y-100730147D01*
X135809853Y-100855646D01*
X135908456Y-101003216D01*
X135976376Y-101167188D01*
X136011000Y-101341259D01*
X136011000Y-101518741D01*
X135976376Y-101692812D01*
X135908456Y-101856784D01*
X135809853Y-102004354D01*
X135684354Y-102129853D01*
X135536784Y-102228456D01*
X135372812Y-102296376D01*
X135223512Y-102326073D01*
X135198742Y-102331000D01*
X135021258Y-102331000D01*
X134996488Y-102326073D01*
X134847188Y-102296376D01*
X134683216Y-102228456D01*
X134535646Y-102129853D01*
X134410147Y-102004354D01*
X134311544Y-101856784D01*
X134243624Y-101692812D01*
X134209000Y-101518741D01*
X134209000Y-101341259D01*
X134243624Y-101167188D01*
X134311544Y-101003216D01*
X134410147Y-100855646D01*
X134535646Y-100730147D01*
X134683216Y-100631544D01*
X134847188Y-100563624D01*
X134996488Y-100533927D01*
X135021258Y-100529000D01*
X135198742Y-100529000D01*
X135223512Y-100533927D01*
G37*
G36*
X153003512Y-100533927D02*
G01*
X153152812Y-100563624D01*
X153316784Y-100631544D01*
X153464354Y-100730147D01*
X153589853Y-100855646D01*
X153688456Y-101003216D01*
X153756376Y-101167188D01*
X153791000Y-101341259D01*
X153791000Y-101518741D01*
X153756376Y-101692812D01*
X153688456Y-101856784D01*
X153589853Y-102004354D01*
X153464354Y-102129853D01*
X153316784Y-102228456D01*
X153152812Y-102296376D01*
X153003512Y-102326073D01*
X152978742Y-102331000D01*
X152801258Y-102331000D01*
X152776488Y-102326073D01*
X152627188Y-102296376D01*
X152463216Y-102228456D01*
X152315646Y-102129853D01*
X152190147Y-102004354D01*
X152091544Y-101856784D01*
X152023624Y-101692812D01*
X151989000Y-101518741D01*
X151989000Y-101341259D01*
X152023624Y-101167188D01*
X152091544Y-101003216D01*
X152190147Y-100855646D01*
X152315646Y-100730147D01*
X152463216Y-100631544D01*
X152627188Y-100563624D01*
X152776488Y-100533927D01*
X152801258Y-100529000D01*
X152978742Y-100529000D01*
X153003512Y-100533927D01*
G37*
G36*
X79573512Y-99403927D02*
G01*
X79722812Y-99433624D01*
X79886784Y-99501544D01*
X80034354Y-99600147D01*
X80159853Y-99725646D01*
X80258456Y-99873216D01*
X80326376Y-100037188D01*
X80361000Y-100211259D01*
X80361000Y-100388741D01*
X80326376Y-100562812D01*
X80258456Y-100726784D01*
X80159853Y-100874354D01*
X80034354Y-100999853D01*
X79886784Y-101098456D01*
X79722812Y-101166376D01*
X79573512Y-101196073D01*
X79548742Y-101201000D01*
X79371258Y-101201000D01*
X79346488Y-101196073D01*
X79197188Y-101166376D01*
X79033216Y-101098456D01*
X78885646Y-100999853D01*
X78760147Y-100874354D01*
X78661544Y-100726784D01*
X78593624Y-100562812D01*
X78559000Y-100388741D01*
X78559000Y-100211259D01*
X78593624Y-100037188D01*
X78661544Y-99873216D01*
X78760147Y-99725646D01*
X78885646Y-99600147D01*
X79033216Y-99501544D01*
X79197188Y-99433624D01*
X79346488Y-99403927D01*
X79371258Y-99399000D01*
X79548742Y-99399000D01*
X79573512Y-99403927D01*
G37*
G36*
X82113512Y-99403927D02*
G01*
X82262812Y-99433624D01*
X82426784Y-99501544D01*
X82574354Y-99600147D01*
X82699853Y-99725646D01*
X82798456Y-99873216D01*
X82866376Y-100037188D01*
X82901000Y-100211259D01*
X82901000Y-100388741D01*
X82866376Y-100562812D01*
X82798456Y-100726784D01*
X82699853Y-100874354D01*
X82574354Y-100999853D01*
X82426784Y-101098456D01*
X82262812Y-101166376D01*
X82113512Y-101196073D01*
X82088742Y-101201000D01*
X81911258Y-101201000D01*
X81886488Y-101196073D01*
X81737188Y-101166376D01*
X81573216Y-101098456D01*
X81425646Y-100999853D01*
X81300147Y-100874354D01*
X81201544Y-100726784D01*
X81133624Y-100562812D01*
X81099000Y-100388741D01*
X81099000Y-100211259D01*
X81133624Y-100037188D01*
X81201544Y-99873216D01*
X81300147Y-99725646D01*
X81425646Y-99600147D01*
X81573216Y-99501544D01*
X81737188Y-99433624D01*
X81886488Y-99403927D01*
X81911258Y-99399000D01*
X82088742Y-99399000D01*
X82113512Y-99403927D01*
G37*
G36*
X167893512Y-99003927D02*
G01*
X168042812Y-99033624D01*
X168206784Y-99101544D01*
X168354354Y-99200147D01*
X168479853Y-99325646D01*
X168578456Y-99473216D01*
X168646376Y-99637188D01*
X168681000Y-99811259D01*
X168681000Y-99988741D01*
X168646376Y-100162812D01*
X168578456Y-100326784D01*
X168479853Y-100474354D01*
X168354354Y-100599853D01*
X168206784Y-100698456D01*
X168042812Y-100766376D01*
X167893512Y-100796073D01*
X167868742Y-100801000D01*
X167691258Y-100801000D01*
X167666488Y-100796073D01*
X167517188Y-100766376D01*
X167353216Y-100698456D01*
X167205646Y-100599853D01*
X167080147Y-100474354D01*
X166981544Y-100326784D01*
X166913624Y-100162812D01*
X166879000Y-99988741D01*
X166879000Y-99811259D01*
X166913624Y-99637188D01*
X166981544Y-99473216D01*
X167080147Y-99325646D01*
X167205646Y-99200147D01*
X167353216Y-99101544D01*
X167517188Y-99033624D01*
X167666488Y-99003927D01*
X167691258Y-98999000D01*
X167868742Y-98999000D01*
X167893512Y-99003927D01*
G37*
G36*
X170433512Y-99003927D02*
G01*
X170582812Y-99033624D01*
X170746784Y-99101544D01*
X170894354Y-99200147D01*
X171019853Y-99325646D01*
X171118456Y-99473216D01*
X171186376Y-99637188D01*
X171221000Y-99811259D01*
X171221000Y-99988741D01*
X171186376Y-100162812D01*
X171118456Y-100326784D01*
X171019853Y-100474354D01*
X170894354Y-100599853D01*
X170746784Y-100698456D01*
X170582812Y-100766376D01*
X170433512Y-100796073D01*
X170408742Y-100801000D01*
X170231258Y-100801000D01*
X170206488Y-100796073D01*
X170057188Y-100766376D01*
X169893216Y-100698456D01*
X169745646Y-100599853D01*
X169620147Y-100474354D01*
X169521544Y-100326784D01*
X169453624Y-100162812D01*
X169419000Y-99988741D01*
X169419000Y-99811259D01*
X169453624Y-99637188D01*
X169521544Y-99473216D01*
X169620147Y-99325646D01*
X169745646Y-99200147D01*
X169893216Y-99101544D01*
X170057188Y-99033624D01*
X170206488Y-99003927D01*
X170231258Y-98999000D01*
X170408742Y-98999000D01*
X170433512Y-99003927D01*
G37*
G36*
X176301000Y-100801000D02*
G01*
X174499000Y-100801000D01*
X174499000Y-98999000D01*
X176301000Y-98999000D01*
X176301000Y-100801000D01*
G37*
G36*
X172973512Y-99003927D02*
G01*
X173122812Y-99033624D01*
X173286784Y-99101544D01*
X173434354Y-99200147D01*
X173559853Y-99325646D01*
X173658456Y-99473216D01*
X173726376Y-99637188D01*
X173761000Y-99811259D01*
X173761000Y-99988741D01*
X173726376Y-100162812D01*
X173658456Y-100326784D01*
X173559853Y-100474354D01*
X173434354Y-100599853D01*
X173286784Y-100698456D01*
X173122812Y-100766376D01*
X172973512Y-100796073D01*
X172948742Y-100801000D01*
X172771258Y-100801000D01*
X172746488Y-100796073D01*
X172597188Y-100766376D01*
X172433216Y-100698456D01*
X172285646Y-100599853D01*
X172160147Y-100474354D01*
X172061544Y-100326784D01*
X171993624Y-100162812D01*
X171959000Y-99988741D01*
X171959000Y-99811259D01*
X171993624Y-99637188D01*
X172061544Y-99473216D01*
X172160147Y-99325646D01*
X172285646Y-99200147D01*
X172433216Y-99101544D01*
X172597188Y-99033624D01*
X172746488Y-99003927D01*
X172771258Y-98999000D01*
X172948742Y-98999000D01*
X172973512Y-99003927D01*
G37*
G36*
X135223512Y-97993927D02*
G01*
X135372812Y-98023624D01*
X135536784Y-98091544D01*
X135684354Y-98190147D01*
X135809853Y-98315646D01*
X135908456Y-98463216D01*
X135976376Y-98627188D01*
X136011000Y-98801259D01*
X136011000Y-98978741D01*
X135976376Y-99152812D01*
X135908456Y-99316784D01*
X135809853Y-99464354D01*
X135684354Y-99589853D01*
X135536784Y-99688456D01*
X135372812Y-99756376D01*
X135223512Y-99786073D01*
X135198742Y-99791000D01*
X135021258Y-99791000D01*
X134996488Y-99786073D01*
X134847188Y-99756376D01*
X134683216Y-99688456D01*
X134535646Y-99589853D01*
X134410147Y-99464354D01*
X134311544Y-99316784D01*
X134243624Y-99152812D01*
X134209000Y-98978741D01*
X134209000Y-98801259D01*
X134243624Y-98627188D01*
X134311544Y-98463216D01*
X134410147Y-98315646D01*
X134535646Y-98190147D01*
X134683216Y-98091544D01*
X134847188Y-98023624D01*
X134996488Y-97993927D01*
X135021258Y-97989000D01*
X135198742Y-97989000D01*
X135223512Y-97993927D01*
G37*
G36*
X153003512Y-97993927D02*
G01*
X153152812Y-98023624D01*
X153316784Y-98091544D01*
X153464354Y-98190147D01*
X153589853Y-98315646D01*
X153688456Y-98463216D01*
X153756376Y-98627188D01*
X153791000Y-98801259D01*
X153791000Y-98978741D01*
X153756376Y-99152812D01*
X153688456Y-99316784D01*
X153589853Y-99464354D01*
X153464354Y-99589853D01*
X153316784Y-99688456D01*
X153152812Y-99756376D01*
X153003512Y-99786073D01*
X152978742Y-99791000D01*
X152801258Y-99791000D01*
X152776488Y-99786073D01*
X152627188Y-99756376D01*
X152463216Y-99688456D01*
X152315646Y-99589853D01*
X152190147Y-99464354D01*
X152091544Y-99316784D01*
X152023624Y-99152812D01*
X151989000Y-98978741D01*
X151989000Y-98801259D01*
X152023624Y-98627188D01*
X152091544Y-98463216D01*
X152190147Y-98315646D01*
X152315646Y-98190147D01*
X152463216Y-98091544D01*
X152627188Y-98023624D01*
X152776488Y-97993927D01*
X152801258Y-97989000D01*
X152978742Y-97989000D01*
X153003512Y-97993927D01*
G37*
G36*
X82113512Y-96863927D02*
G01*
X82262812Y-96893624D01*
X82426784Y-96961544D01*
X82574354Y-97060147D01*
X82699853Y-97185646D01*
X82798456Y-97333216D01*
X82866376Y-97497188D01*
X82901000Y-97671259D01*
X82901000Y-97848741D01*
X82866376Y-98022812D01*
X82798456Y-98186784D01*
X82699853Y-98334354D01*
X82574354Y-98459853D01*
X82426784Y-98558456D01*
X82262812Y-98626376D01*
X82113512Y-98656073D01*
X82088742Y-98661000D01*
X81911258Y-98661000D01*
X81886488Y-98656073D01*
X81737188Y-98626376D01*
X81573216Y-98558456D01*
X81425646Y-98459853D01*
X81300147Y-98334354D01*
X81201544Y-98186784D01*
X81133624Y-98022812D01*
X81099000Y-97848741D01*
X81099000Y-97671259D01*
X81133624Y-97497188D01*
X81201544Y-97333216D01*
X81300147Y-97185646D01*
X81425646Y-97060147D01*
X81573216Y-96961544D01*
X81737188Y-96893624D01*
X81886488Y-96863927D01*
X81911258Y-96859000D01*
X82088742Y-96859000D01*
X82113512Y-96863927D01*
G37*
G36*
X79573512Y-96863927D02*
G01*
X79722812Y-96893624D01*
X79886784Y-96961544D01*
X80034354Y-97060147D01*
X80159853Y-97185646D01*
X80258456Y-97333216D01*
X80326376Y-97497188D01*
X80361000Y-97671259D01*
X80361000Y-97848741D01*
X80326376Y-98022812D01*
X80258456Y-98186784D01*
X80159853Y-98334354D01*
X80034354Y-98459853D01*
X79886784Y-98558456D01*
X79722812Y-98626376D01*
X79573512Y-98656073D01*
X79548742Y-98661000D01*
X79371258Y-98661000D01*
X79346488Y-98656073D01*
X79197188Y-98626376D01*
X79033216Y-98558456D01*
X78885646Y-98459853D01*
X78760147Y-98334354D01*
X78661544Y-98186784D01*
X78593624Y-98022812D01*
X78559000Y-97848741D01*
X78559000Y-97671259D01*
X78593624Y-97497188D01*
X78661544Y-97333216D01*
X78760147Y-97185646D01*
X78885646Y-97060147D01*
X79033216Y-96961544D01*
X79197188Y-96893624D01*
X79346488Y-96863927D01*
X79371258Y-96859000D01*
X79548742Y-96859000D01*
X79573512Y-96863927D01*
G37*
G36*
X153791000Y-97251000D02*
G01*
X151989000Y-97251000D01*
X151989000Y-95449000D01*
X153791000Y-95449000D01*
X153791000Y-97251000D01*
G37*
G36*
X136011000Y-97251000D02*
G01*
X134209000Y-97251000D01*
X134209000Y-95449000D01*
X136011000Y-95449000D01*
X136011000Y-97251000D01*
G37*
G36*
X82113512Y-94323927D02*
G01*
X82262812Y-94353624D01*
X82426784Y-94421544D01*
X82574354Y-94520147D01*
X82699853Y-94645646D01*
X82798456Y-94793216D01*
X82866376Y-94957188D01*
X82901000Y-95131259D01*
X82901000Y-95308741D01*
X82866376Y-95482812D01*
X82798456Y-95646784D01*
X82699853Y-95794354D01*
X82574354Y-95919853D01*
X82426784Y-96018456D01*
X82262812Y-96086376D01*
X82113512Y-96116073D01*
X82088742Y-96121000D01*
X81911258Y-96121000D01*
X81886488Y-96116073D01*
X81737188Y-96086376D01*
X81573216Y-96018456D01*
X81425646Y-95919853D01*
X81300147Y-95794354D01*
X81201544Y-95646784D01*
X81133624Y-95482812D01*
X81099000Y-95308741D01*
X81099000Y-95131259D01*
X81133624Y-94957188D01*
X81201544Y-94793216D01*
X81300147Y-94645646D01*
X81425646Y-94520147D01*
X81573216Y-94421544D01*
X81737188Y-94353624D01*
X81886488Y-94323927D01*
X81911258Y-94319000D01*
X82088742Y-94319000D01*
X82113512Y-94323927D01*
G37*
G36*
X79573512Y-94323927D02*
G01*
X79722812Y-94353624D01*
X79886784Y-94421544D01*
X80034354Y-94520147D01*
X80159853Y-94645646D01*
X80258456Y-94793216D01*
X80326376Y-94957188D01*
X80361000Y-95131259D01*
X80361000Y-95308741D01*
X80326376Y-95482812D01*
X80258456Y-95646784D01*
X80159853Y-95794354D01*
X80034354Y-95919853D01*
X79886784Y-96018456D01*
X79722812Y-96086376D01*
X79573512Y-96116073D01*
X79548742Y-96121000D01*
X79371258Y-96121000D01*
X79346488Y-96116073D01*
X79197188Y-96086376D01*
X79033216Y-96018456D01*
X78885646Y-95919853D01*
X78760147Y-95794354D01*
X78661544Y-95646784D01*
X78593624Y-95482812D01*
X78559000Y-95308741D01*
X78559000Y-95131259D01*
X78593624Y-94957188D01*
X78661544Y-94793216D01*
X78760147Y-94645646D01*
X78885646Y-94520147D01*
X79033216Y-94421544D01*
X79197188Y-94353624D01*
X79346488Y-94323927D01*
X79371258Y-94319000D01*
X79548742Y-94319000D01*
X79573512Y-94323927D01*
G37*
G36*
X153003512Y-92913927D02*
G01*
X153152812Y-92943624D01*
X153316784Y-93011544D01*
X153464354Y-93110147D01*
X153589853Y-93235646D01*
X153688456Y-93383216D01*
X153756376Y-93547188D01*
X153791000Y-93721259D01*
X153791000Y-93898741D01*
X153756376Y-94072812D01*
X153688456Y-94236784D01*
X153589853Y-94384354D01*
X153464354Y-94509853D01*
X153316784Y-94608456D01*
X153152812Y-94676376D01*
X153003512Y-94706073D01*
X152978742Y-94711000D01*
X152801258Y-94711000D01*
X152776488Y-94706073D01*
X152627188Y-94676376D01*
X152463216Y-94608456D01*
X152315646Y-94509853D01*
X152190147Y-94384354D01*
X152091544Y-94236784D01*
X152023624Y-94072812D01*
X151989000Y-93898741D01*
X151989000Y-93721259D01*
X152023624Y-93547188D01*
X152091544Y-93383216D01*
X152190147Y-93235646D01*
X152315646Y-93110147D01*
X152463216Y-93011544D01*
X152627188Y-92943624D01*
X152776488Y-92913927D01*
X152801258Y-92909000D01*
X152978742Y-92909000D01*
X153003512Y-92913927D01*
G37*
G36*
X135223512Y-92913927D02*
G01*
X135372812Y-92943624D01*
X135536784Y-93011544D01*
X135684354Y-93110147D01*
X135809853Y-93235646D01*
X135908456Y-93383216D01*
X135976376Y-93547188D01*
X136011000Y-93721259D01*
X136011000Y-93898741D01*
X135976376Y-94072812D01*
X135908456Y-94236784D01*
X135809853Y-94384354D01*
X135684354Y-94509853D01*
X135536784Y-94608456D01*
X135372812Y-94676376D01*
X135223512Y-94706073D01*
X135198742Y-94711000D01*
X135021258Y-94711000D01*
X134996488Y-94706073D01*
X134847188Y-94676376D01*
X134683216Y-94608456D01*
X134535646Y-94509853D01*
X134410147Y-94384354D01*
X134311544Y-94236784D01*
X134243624Y-94072812D01*
X134209000Y-93898741D01*
X134209000Y-93721259D01*
X134243624Y-93547188D01*
X134311544Y-93383216D01*
X134410147Y-93235646D01*
X134535646Y-93110147D01*
X134683216Y-93011544D01*
X134847188Y-92943624D01*
X134996488Y-92913927D01*
X135021258Y-92909000D01*
X135198742Y-92909000D01*
X135223512Y-92913927D01*
G37*
G36*
X82113512Y-91783927D02*
G01*
X82262812Y-91813624D01*
X82426784Y-91881544D01*
X82574354Y-91980147D01*
X82699853Y-92105646D01*
X82798456Y-92253216D01*
X82866376Y-92417188D01*
X82901000Y-92591259D01*
X82901000Y-92768741D01*
X82866376Y-92942812D01*
X82798456Y-93106784D01*
X82699853Y-93254354D01*
X82574354Y-93379853D01*
X82426784Y-93478456D01*
X82262812Y-93546376D01*
X82113512Y-93576073D01*
X82088742Y-93581000D01*
X81911258Y-93581000D01*
X81886488Y-93576073D01*
X81737188Y-93546376D01*
X81573216Y-93478456D01*
X81425646Y-93379853D01*
X81300147Y-93254354D01*
X81201544Y-93106784D01*
X81133624Y-92942812D01*
X81099000Y-92768741D01*
X81099000Y-92591259D01*
X81133624Y-92417188D01*
X81201544Y-92253216D01*
X81300147Y-92105646D01*
X81425646Y-91980147D01*
X81573216Y-91881544D01*
X81737188Y-91813624D01*
X81886488Y-91783927D01*
X81911258Y-91779000D01*
X82088742Y-91779000D01*
X82113512Y-91783927D01*
G37*
G36*
X79573512Y-91783927D02*
G01*
X79722812Y-91813624D01*
X79886784Y-91881544D01*
X80034354Y-91980147D01*
X80159853Y-92105646D01*
X80258456Y-92253216D01*
X80326376Y-92417188D01*
X80361000Y-92591259D01*
X80361000Y-92768741D01*
X80326376Y-92942812D01*
X80258456Y-93106784D01*
X80159853Y-93254354D01*
X80034354Y-93379853D01*
X79886784Y-93478456D01*
X79722812Y-93546376D01*
X79573512Y-93576073D01*
X79548742Y-93581000D01*
X79371258Y-93581000D01*
X79346488Y-93576073D01*
X79197188Y-93546376D01*
X79033216Y-93478456D01*
X78885646Y-93379853D01*
X78760147Y-93254354D01*
X78661544Y-93106784D01*
X78593624Y-92942812D01*
X78559000Y-92768741D01*
X78559000Y-92591259D01*
X78593624Y-92417188D01*
X78661544Y-92253216D01*
X78760147Y-92105646D01*
X78885646Y-91980147D01*
X79033216Y-91881544D01*
X79197188Y-91813624D01*
X79346488Y-91783927D01*
X79371258Y-91779000D01*
X79548742Y-91779000D01*
X79573512Y-91783927D01*
G37*
G36*
X135223512Y-90373927D02*
G01*
X135372812Y-90403624D01*
X135536784Y-90471544D01*
X135684354Y-90570147D01*
X135809853Y-90695646D01*
X135908456Y-90843216D01*
X135976376Y-91007188D01*
X136011000Y-91181259D01*
X136011000Y-91358741D01*
X135976376Y-91532812D01*
X135908456Y-91696784D01*
X135809853Y-91844354D01*
X135684354Y-91969853D01*
X135536784Y-92068456D01*
X135372812Y-92136376D01*
X135223512Y-92166073D01*
X135198742Y-92171000D01*
X135021258Y-92171000D01*
X134996488Y-92166073D01*
X134847188Y-92136376D01*
X134683216Y-92068456D01*
X134535646Y-91969853D01*
X134410147Y-91844354D01*
X134311544Y-91696784D01*
X134243624Y-91532812D01*
X134209000Y-91358741D01*
X134209000Y-91181259D01*
X134243624Y-91007188D01*
X134311544Y-90843216D01*
X134410147Y-90695646D01*
X134535646Y-90570147D01*
X134683216Y-90471544D01*
X134847188Y-90403624D01*
X134996488Y-90373927D01*
X135021258Y-90369000D01*
X135198742Y-90369000D01*
X135223512Y-90373927D01*
G37*
G36*
X153003512Y-90373927D02*
G01*
X153152812Y-90403624D01*
X153316784Y-90471544D01*
X153464354Y-90570147D01*
X153589853Y-90695646D01*
X153688456Y-90843216D01*
X153756376Y-91007188D01*
X153791000Y-91181259D01*
X153791000Y-91358741D01*
X153756376Y-91532812D01*
X153688456Y-91696784D01*
X153589853Y-91844354D01*
X153464354Y-91969853D01*
X153316784Y-92068456D01*
X153152812Y-92136376D01*
X153003512Y-92166073D01*
X152978742Y-92171000D01*
X152801258Y-92171000D01*
X152776488Y-92166073D01*
X152627188Y-92136376D01*
X152463216Y-92068456D01*
X152315646Y-91969853D01*
X152190147Y-91844354D01*
X152091544Y-91696784D01*
X152023624Y-91532812D01*
X151989000Y-91358741D01*
X151989000Y-91181259D01*
X152023624Y-91007188D01*
X152091544Y-90843216D01*
X152190147Y-90695646D01*
X152315646Y-90570147D01*
X152463216Y-90471544D01*
X152627188Y-90403624D01*
X152776488Y-90373927D01*
X152801258Y-90369000D01*
X152978742Y-90369000D01*
X153003512Y-90373927D01*
G37*
G36*
X79573512Y-89243927D02*
G01*
X79722812Y-89273624D01*
X79886784Y-89341544D01*
X80034354Y-89440147D01*
X80159853Y-89565646D01*
X80258456Y-89713216D01*
X80326376Y-89877188D01*
X80361000Y-90051259D01*
X80361000Y-90228741D01*
X80326376Y-90402812D01*
X80258456Y-90566784D01*
X80159853Y-90714354D01*
X80034354Y-90839853D01*
X79886784Y-90938456D01*
X79722812Y-91006376D01*
X79573512Y-91036073D01*
X79548742Y-91041000D01*
X79371258Y-91041000D01*
X79346488Y-91036073D01*
X79197188Y-91006376D01*
X79033216Y-90938456D01*
X78885646Y-90839853D01*
X78760147Y-90714354D01*
X78661544Y-90566784D01*
X78593624Y-90402812D01*
X78559000Y-90228741D01*
X78559000Y-90051259D01*
X78593624Y-89877188D01*
X78661544Y-89713216D01*
X78760147Y-89565646D01*
X78885646Y-89440147D01*
X79033216Y-89341544D01*
X79197188Y-89273624D01*
X79346488Y-89243927D01*
X79371258Y-89239000D01*
X79548742Y-89239000D01*
X79573512Y-89243927D01*
G37*
G36*
X82113512Y-89243927D02*
G01*
X82262812Y-89273624D01*
X82426784Y-89341544D01*
X82574354Y-89440147D01*
X82699853Y-89565646D01*
X82798456Y-89713216D01*
X82866376Y-89877188D01*
X82901000Y-90051259D01*
X82901000Y-90228741D01*
X82866376Y-90402812D01*
X82798456Y-90566784D01*
X82699853Y-90714354D01*
X82574354Y-90839853D01*
X82426784Y-90938456D01*
X82262812Y-91006376D01*
X82113512Y-91036073D01*
X82088742Y-91041000D01*
X81911258Y-91041000D01*
X81886488Y-91036073D01*
X81737188Y-91006376D01*
X81573216Y-90938456D01*
X81425646Y-90839853D01*
X81300147Y-90714354D01*
X81201544Y-90566784D01*
X81133624Y-90402812D01*
X81099000Y-90228741D01*
X81099000Y-90051259D01*
X81133624Y-89877188D01*
X81201544Y-89713216D01*
X81300147Y-89565646D01*
X81425646Y-89440147D01*
X81573216Y-89341544D01*
X81737188Y-89273624D01*
X81886488Y-89243927D01*
X81911258Y-89239000D01*
X82088742Y-89239000D01*
X82113512Y-89243927D01*
G37*
G36*
X153003512Y-87833927D02*
G01*
X153152812Y-87863624D01*
X153316784Y-87931544D01*
X153464354Y-88030147D01*
X153589853Y-88155646D01*
X153688456Y-88303216D01*
X153756376Y-88467188D01*
X153791000Y-88641259D01*
X153791000Y-88818741D01*
X153756376Y-88992812D01*
X153688456Y-89156784D01*
X153589853Y-89304354D01*
X153464354Y-89429853D01*
X153316784Y-89528456D01*
X153152812Y-89596376D01*
X153003512Y-89626073D01*
X152978742Y-89631000D01*
X152801258Y-89631000D01*
X152776488Y-89626073D01*
X152627188Y-89596376D01*
X152463216Y-89528456D01*
X152315646Y-89429853D01*
X152190147Y-89304354D01*
X152091544Y-89156784D01*
X152023624Y-88992812D01*
X151989000Y-88818741D01*
X151989000Y-88641259D01*
X152023624Y-88467188D01*
X152091544Y-88303216D01*
X152190147Y-88155646D01*
X152315646Y-88030147D01*
X152463216Y-87931544D01*
X152627188Y-87863624D01*
X152776488Y-87833927D01*
X152801258Y-87829000D01*
X152978742Y-87829000D01*
X153003512Y-87833927D01*
G37*
G36*
X135223512Y-87833927D02*
G01*
X135372812Y-87863624D01*
X135536784Y-87931544D01*
X135684354Y-88030147D01*
X135809853Y-88155646D01*
X135908456Y-88303216D01*
X135976376Y-88467188D01*
X136011000Y-88641259D01*
X136011000Y-88818741D01*
X135976376Y-88992812D01*
X135908456Y-89156784D01*
X135809853Y-89304354D01*
X135684354Y-89429853D01*
X135536784Y-89528456D01*
X135372812Y-89596376D01*
X135223512Y-89626073D01*
X135198742Y-89631000D01*
X135021258Y-89631000D01*
X134996488Y-89626073D01*
X134847188Y-89596376D01*
X134683216Y-89528456D01*
X134535646Y-89429853D01*
X134410147Y-89304354D01*
X134311544Y-89156784D01*
X134243624Y-88992812D01*
X134209000Y-88818741D01*
X134209000Y-88641259D01*
X134243624Y-88467188D01*
X134311544Y-88303216D01*
X134410147Y-88155646D01*
X134535646Y-88030147D01*
X134683216Y-87931544D01*
X134847188Y-87863624D01*
X134996488Y-87833927D01*
X135021258Y-87829000D01*
X135198742Y-87829000D01*
X135223512Y-87833927D01*
G37*
G36*
X82901000Y-88581000D02*
G01*
X81099000Y-88581000D01*
X81099000Y-86779000D01*
X82901000Y-86779000D01*
X82901000Y-88581000D01*
G37*
G36*
X79573512Y-86703927D02*
G01*
X79722812Y-86733624D01*
X79886784Y-86801544D01*
X80034354Y-86900147D01*
X80159853Y-87025646D01*
X80258456Y-87173216D01*
X80326376Y-87337188D01*
X80361000Y-87511259D01*
X80361000Y-87688741D01*
X80326376Y-87862812D01*
X80258456Y-88026784D01*
X80159853Y-88174354D01*
X80034354Y-88299853D01*
X79886784Y-88398456D01*
X79722812Y-88466376D01*
X79573512Y-88496073D01*
X79548742Y-88501000D01*
X79371258Y-88501000D01*
X79346488Y-88496073D01*
X79197188Y-88466376D01*
X79033216Y-88398456D01*
X78885646Y-88299853D01*
X78760147Y-88174354D01*
X78661544Y-88026784D01*
X78593624Y-87862812D01*
X78559000Y-87688741D01*
X78559000Y-87511259D01*
X78593624Y-87337188D01*
X78661544Y-87173216D01*
X78760147Y-87025646D01*
X78885646Y-86900147D01*
X79033216Y-86801544D01*
X79197188Y-86733624D01*
X79346488Y-86703927D01*
X79371258Y-86699000D01*
X79548742Y-86699000D01*
X79573512Y-86703927D01*
G37*
G36*
X153003512Y-85293927D02*
G01*
X153152812Y-85323624D01*
X153316784Y-85391544D01*
X153464354Y-85490147D01*
X153589853Y-85615646D01*
X153688456Y-85763216D01*
X153756376Y-85927188D01*
X153791000Y-86101259D01*
X153791000Y-86278741D01*
X153756376Y-86452812D01*
X153688456Y-86616784D01*
X153589853Y-86764354D01*
X153464354Y-86889853D01*
X153316784Y-86988456D01*
X153152812Y-87056376D01*
X153003512Y-87086073D01*
X152978742Y-87091000D01*
X152801258Y-87091000D01*
X152776488Y-87086073D01*
X152627188Y-87056376D01*
X152463216Y-86988456D01*
X152315646Y-86889853D01*
X152190147Y-86764354D01*
X152091544Y-86616784D01*
X152023624Y-86452812D01*
X151989000Y-86278741D01*
X151989000Y-86101259D01*
X152023624Y-85927188D01*
X152091544Y-85763216D01*
X152190147Y-85615646D01*
X152315646Y-85490147D01*
X152463216Y-85391544D01*
X152627188Y-85323624D01*
X152776488Y-85293927D01*
X152801258Y-85289000D01*
X152978742Y-85289000D01*
X153003512Y-85293927D01*
G37*
G36*
X135223512Y-85293927D02*
G01*
X135372812Y-85323624D01*
X135536784Y-85391544D01*
X135684354Y-85490147D01*
X135809853Y-85615646D01*
X135908456Y-85763216D01*
X135976376Y-85927188D01*
X136011000Y-86101259D01*
X136011000Y-86278741D01*
X135976376Y-86452812D01*
X135908456Y-86616784D01*
X135809853Y-86764354D01*
X135684354Y-86889853D01*
X135536784Y-86988456D01*
X135372812Y-87056376D01*
X135223512Y-87086073D01*
X135198742Y-87091000D01*
X135021258Y-87091000D01*
X134996488Y-87086073D01*
X134847188Y-87056376D01*
X134683216Y-86988456D01*
X134535646Y-86889853D01*
X134410147Y-86764354D01*
X134311544Y-86616784D01*
X134243624Y-86452812D01*
X134209000Y-86278741D01*
X134209000Y-86101259D01*
X134243624Y-85927188D01*
X134311544Y-85763216D01*
X134410147Y-85615646D01*
X134535646Y-85490147D01*
X134683216Y-85391544D01*
X134847188Y-85323624D01*
X134996488Y-85293927D01*
X135021258Y-85289000D01*
X135198742Y-85289000D01*
X135223512Y-85293927D01*
G37*
G36*
X136011000Y-84551000D02*
G01*
X134209000Y-84551000D01*
X134209000Y-82749000D01*
X136011000Y-82749000D01*
X136011000Y-84551000D01*
G37*
G36*
X153791000Y-84551000D02*
G01*
X151989000Y-84551000D01*
X151989000Y-82749000D01*
X153791000Y-82749000D01*
X153791000Y-84551000D01*
G37*
G36*
X146658642Y-80959781D02*
G01*
X146804414Y-81020162D01*
X146804416Y-81020163D01*
X146935608Y-81107822D01*
X147047178Y-81219392D01*
X147134837Y-81350584D01*
X147134838Y-81350586D01*
X147195219Y-81496358D01*
X147226000Y-81651107D01*
X147226000Y-81808893D01*
X147195219Y-81963642D01*
X147134838Y-82109414D01*
X147134837Y-82109416D01*
X147047178Y-82240608D01*
X146935608Y-82352178D01*
X146804416Y-82439837D01*
X146804415Y-82439838D01*
X146804414Y-82439838D01*
X146658642Y-82500219D01*
X146503893Y-82531000D01*
X146346107Y-82531000D01*
X146191358Y-82500219D01*
X146045586Y-82439838D01*
X146045585Y-82439838D01*
X146045584Y-82439837D01*
X145914392Y-82352178D01*
X145802822Y-82240608D01*
X145715163Y-82109416D01*
X145715162Y-82109414D01*
X145654781Y-81963642D01*
X145624000Y-81808893D01*
X145624000Y-81651107D01*
X145654781Y-81496358D01*
X145715162Y-81350586D01*
X145715163Y-81350584D01*
X145802822Y-81219392D01*
X145914392Y-81107822D01*
X146045584Y-81020163D01*
X146045586Y-81020162D01*
X146191358Y-80959781D01*
X146346107Y-80929000D01*
X146503893Y-80929000D01*
X146658642Y-80959781D01*
G37*
G36*
X141808642Y-80959781D02*
G01*
X141954414Y-81020162D01*
X141954416Y-81020163D01*
X142085608Y-81107822D01*
X142197178Y-81219392D01*
X142284837Y-81350584D01*
X142284838Y-81350586D01*
X142345219Y-81496358D01*
X142376000Y-81651107D01*
X142376000Y-81808893D01*
X142345219Y-81963642D01*
X142284838Y-82109414D01*
X142284837Y-82109416D01*
X142197178Y-82240608D01*
X142085608Y-82352178D01*
X141954416Y-82439837D01*
X141954415Y-82439838D01*
X141954414Y-82439838D01*
X141808642Y-82500219D01*
X141653893Y-82531000D01*
X141496107Y-82531000D01*
X141341358Y-82500219D01*
X141195586Y-82439838D01*
X141195585Y-82439838D01*
X141195584Y-82439837D01*
X141064392Y-82352178D01*
X140952822Y-82240608D01*
X140865163Y-82109416D01*
X140865162Y-82109414D01*
X140804781Y-81963642D01*
X140774000Y-81808893D01*
X140774000Y-81651107D01*
X140804781Y-81496358D01*
X140865162Y-81350586D01*
X140865163Y-81350584D01*
X140952822Y-81219392D01*
X141064392Y-81107822D01*
X141195584Y-81020163D01*
X141195586Y-81020162D01*
X141341358Y-80959781D01*
X141496107Y-80929000D01*
X141653893Y-80929000D01*
X141808642Y-80959781D01*
G37*
G36*
X153003512Y-80213927D02*
G01*
X153152812Y-80243624D01*
X153316784Y-80311544D01*
X153464354Y-80410147D01*
X153589853Y-80535646D01*
X153688456Y-80683216D01*
X153756376Y-80847188D01*
X153791000Y-81021259D01*
X153791000Y-81198741D01*
X153756376Y-81372812D01*
X153688456Y-81536784D01*
X153589853Y-81684354D01*
X153464354Y-81809853D01*
X153316784Y-81908456D01*
X153152812Y-81976376D01*
X153003512Y-82006073D01*
X152978742Y-82011000D01*
X152801258Y-82011000D01*
X152776488Y-82006073D01*
X152627188Y-81976376D01*
X152463216Y-81908456D01*
X152315646Y-81809853D01*
X152190147Y-81684354D01*
X152091544Y-81536784D01*
X152023624Y-81372812D01*
X151989000Y-81198741D01*
X151989000Y-81021259D01*
X152023624Y-80847188D01*
X152091544Y-80683216D01*
X152190147Y-80535646D01*
X152315646Y-80410147D01*
X152463216Y-80311544D01*
X152627188Y-80243624D01*
X152776488Y-80213927D01*
X152801258Y-80209000D01*
X152978742Y-80209000D01*
X153003512Y-80213927D01*
G37*
G36*
X135223512Y-80213927D02*
G01*
X135372812Y-80243624D01*
X135536784Y-80311544D01*
X135684354Y-80410147D01*
X135809853Y-80535646D01*
X135908456Y-80683216D01*
X135976376Y-80847188D01*
X136011000Y-81021259D01*
X136011000Y-81198741D01*
X135976376Y-81372812D01*
X135908456Y-81536784D01*
X135809853Y-81684354D01*
X135684354Y-81809853D01*
X135536784Y-81908456D01*
X135372812Y-81976376D01*
X135223512Y-82006073D01*
X135198742Y-82011000D01*
X135021258Y-82011000D01*
X134996488Y-82006073D01*
X134847188Y-81976376D01*
X134683216Y-81908456D01*
X134535646Y-81809853D01*
X134410147Y-81684354D01*
X134311544Y-81536784D01*
X134243624Y-81372812D01*
X134209000Y-81198741D01*
X134209000Y-81021259D01*
X134243624Y-80847188D01*
X134311544Y-80683216D01*
X134410147Y-80535646D01*
X134535646Y-80410147D01*
X134683216Y-80311544D01*
X134847188Y-80243624D01*
X134996488Y-80213927D01*
X135021258Y-80209000D01*
X135198742Y-80209000D01*
X135223512Y-80213927D01*
G37*
G36*
X147002395Y-77785546D02*
G01*
X147175466Y-77857234D01*
X147194793Y-77870148D01*
X147331227Y-77961310D01*
X147463690Y-78093773D01*
X147496728Y-78143218D01*
X147567766Y-78249534D01*
X147639454Y-78422605D01*
X147676000Y-78606333D01*
X147676000Y-78793667D01*
X147639454Y-78977395D01*
X147567766Y-79150466D01*
X147567765Y-79150467D01*
X147463690Y-79306227D01*
X147331227Y-79438690D01*
X147282871Y-79471000D01*
X147175466Y-79542766D01*
X147002395Y-79614454D01*
X146818667Y-79651000D01*
X146631333Y-79651000D01*
X146447605Y-79614454D01*
X146274534Y-79542766D01*
X146167129Y-79471000D01*
X146118773Y-79438690D01*
X145986310Y-79306227D01*
X145882235Y-79150467D01*
X145882234Y-79150466D01*
X145810546Y-78977395D01*
X145774000Y-78793667D01*
X145774000Y-78606333D01*
X145810546Y-78422605D01*
X145882234Y-78249534D01*
X145953272Y-78143218D01*
X145986310Y-78093773D01*
X146118773Y-77961310D01*
X146255207Y-77870148D01*
X146274534Y-77857234D01*
X146447605Y-77785546D01*
X146631333Y-77749000D01*
X146818667Y-77749000D01*
X147002395Y-77785546D01*
G37*
G36*
X141552395Y-77785546D02*
G01*
X141725466Y-77857234D01*
X141744793Y-77870148D01*
X141881227Y-77961310D01*
X142013690Y-78093773D01*
X142046728Y-78143218D01*
X142117766Y-78249534D01*
X142189454Y-78422605D01*
X142226000Y-78606333D01*
X142226000Y-78793667D01*
X142189454Y-78977395D01*
X142117766Y-79150466D01*
X142117765Y-79150467D01*
X142013690Y-79306227D01*
X141881227Y-79438690D01*
X141832871Y-79471000D01*
X141725466Y-79542766D01*
X141552395Y-79614454D01*
X141368667Y-79651000D01*
X141181333Y-79651000D01*
X140997605Y-79614454D01*
X140824534Y-79542766D01*
X140717129Y-79471000D01*
X140668773Y-79438690D01*
X140536310Y-79306227D01*
X140432235Y-79150467D01*
X140432234Y-79150466D01*
X140360546Y-78977395D01*
X140324000Y-78793667D01*
X140324000Y-78606333D01*
X140360546Y-78422605D01*
X140432234Y-78249534D01*
X140503272Y-78143218D01*
X140536310Y-78093773D01*
X140668773Y-77961310D01*
X140805207Y-77870148D01*
X140824534Y-77857234D01*
X140997605Y-77785546D01*
X141181333Y-77749000D01*
X141368667Y-77749000D01*
X141552395Y-77785546D01*
G37*
G36*
X153003512Y-77673927D02*
G01*
X153152812Y-77703624D01*
X153316784Y-77771544D01*
X153464354Y-77870147D01*
X153589853Y-77995646D01*
X153688456Y-78143216D01*
X153756376Y-78307188D01*
X153791000Y-78481259D01*
X153791000Y-78658741D01*
X153756376Y-78832812D01*
X153688456Y-78996784D01*
X153589853Y-79144354D01*
X153464354Y-79269853D01*
X153316784Y-79368456D01*
X153152812Y-79436376D01*
X153003512Y-79466073D01*
X152978742Y-79471000D01*
X152801258Y-79471000D01*
X152776488Y-79466073D01*
X152627188Y-79436376D01*
X152463216Y-79368456D01*
X152315646Y-79269853D01*
X152190147Y-79144354D01*
X152091544Y-78996784D01*
X152023624Y-78832812D01*
X151989000Y-78658741D01*
X151989000Y-78481259D01*
X152023624Y-78307188D01*
X152091544Y-78143216D01*
X152190147Y-77995646D01*
X152315646Y-77870147D01*
X152463216Y-77771544D01*
X152627188Y-77703624D01*
X152776488Y-77673927D01*
X152801258Y-77669000D01*
X152978742Y-77669000D01*
X153003512Y-77673927D01*
G37*
G36*
X135223512Y-77673927D02*
G01*
X135372812Y-77703624D01*
X135536784Y-77771544D01*
X135684354Y-77870147D01*
X135809853Y-77995646D01*
X135908456Y-78143216D01*
X135976376Y-78307188D01*
X136011000Y-78481259D01*
X136011000Y-78658741D01*
X135976376Y-78832812D01*
X135908456Y-78996784D01*
X135809853Y-79144354D01*
X135684354Y-79269853D01*
X135536784Y-79368456D01*
X135372812Y-79436376D01*
X135223512Y-79466073D01*
X135198742Y-79471000D01*
X135021258Y-79471000D01*
X134996488Y-79466073D01*
X134847188Y-79436376D01*
X134683216Y-79368456D01*
X134535646Y-79269853D01*
X134410147Y-79144354D01*
X134311544Y-78996784D01*
X134243624Y-78832812D01*
X134209000Y-78658741D01*
X134209000Y-78481259D01*
X134243624Y-78307188D01*
X134311544Y-78143216D01*
X134410147Y-77995646D01*
X134535646Y-77870147D01*
X134683216Y-77771544D01*
X134847188Y-77703624D01*
X134996488Y-77673927D01*
X135021258Y-77669000D01*
X135198742Y-77669000D01*
X135223512Y-77673927D01*
G37*
G36*
X186418039Y-64692250D02*
G01*
X186607372Y-64770675D01*
X186741251Y-64826129D01*
X187032134Y-65020491D01*
X187279509Y-65267866D01*
X187473871Y-65558749D01*
X187473871Y-65558750D01*
X187607750Y-65881961D01*
X187676000Y-66225078D01*
X187676000Y-66574922D01*
X187607750Y-66918039D01*
X187529325Y-67107372D01*
X187473871Y-67241251D01*
X187279509Y-67532134D01*
X187032134Y-67779509D01*
X186741251Y-67973871D01*
X186607372Y-68029325D01*
X186418039Y-68107750D01*
X186074922Y-68176000D01*
X185725078Y-68176000D01*
X185381961Y-68107750D01*
X185192628Y-68029325D01*
X185058749Y-67973871D01*
X184767866Y-67779509D01*
X184520491Y-67532134D01*
X184326129Y-67241251D01*
X184270675Y-67107372D01*
X184192250Y-66918039D01*
X184124000Y-66574922D01*
X184124000Y-66225078D01*
X184192250Y-65881961D01*
X184326129Y-65558750D01*
X184326129Y-65558749D01*
X184520491Y-65267866D01*
X184767866Y-65020491D01*
X185058749Y-64826129D01*
X185192628Y-64770675D01*
X185381961Y-64692250D01*
X185725078Y-64624000D01*
X186074922Y-64624000D01*
X186418039Y-64692250D01*
G37*
G36*
X177601000Y-59001000D02*
G01*
X173999000Y-59001000D01*
X173999000Y-55399000D01*
X177601000Y-55399000D01*
X177601000Y-59001000D01*
G37*
G36*
X172226366Y-52415695D02*
G01*
X172383460Y-52463349D01*
X172528231Y-52540731D01*
X172655128Y-52644872D01*
X172759269Y-52771769D01*
X172836651Y-52916540D01*
X172884305Y-53073634D01*
X172901000Y-53243140D01*
X172901000Y-55156860D01*
X172884305Y-55326366D01*
X172836651Y-55483460D01*
X172759269Y-55628231D01*
X172655128Y-55755128D01*
X172528231Y-55859269D01*
X172383460Y-55936651D01*
X172226366Y-55984305D01*
X172056860Y-56001000D01*
X170143140Y-56001000D01*
X169973634Y-55984305D01*
X169816540Y-55936651D01*
X169671769Y-55859269D01*
X169544872Y-55755128D01*
X169440731Y-55628231D01*
X169363349Y-55483460D01*
X169315695Y-55326366D01*
X169299000Y-55156860D01*
X169299000Y-53243140D01*
X169315695Y-53073634D01*
X169363349Y-52916540D01*
X169440731Y-52771769D01*
X169544872Y-52644872D01*
X169671769Y-52540731D01*
X169816540Y-52463349D01*
X169973634Y-52415695D01*
X170143140Y-52399000D01*
X172056860Y-52399000D01*
X172226366Y-52415695D01*
G37*
G36*
X126409468Y-52453565D02*
G01*
X126448138Y-52465296D01*
X126483777Y-52484346D01*
X126515017Y-52509983D01*
X126540654Y-52541223D01*
X126559704Y-52576862D01*
X126571435Y-52615532D01*
X126576000Y-52661888D01*
X126576000Y-53738112D01*
X126571435Y-53784468D01*
X126559704Y-53823138D01*
X126540654Y-53858777D01*
X126515017Y-53890017D01*
X126483777Y-53915654D01*
X126448138Y-53934704D01*
X126409468Y-53946435D01*
X126363112Y-53951000D01*
X125711888Y-53951000D01*
X125665532Y-53946435D01*
X125626862Y-53934704D01*
X125591223Y-53915654D01*
X125559983Y-53890017D01*
X125534346Y-53858777D01*
X125515296Y-53823138D01*
X125503565Y-53784468D01*
X125499000Y-53738112D01*
X125499000Y-52661888D01*
X125503565Y-52615532D01*
X125515296Y-52576862D01*
X125534346Y-52541223D01*
X125559983Y-52509983D01*
X125591223Y-52484346D01*
X125626862Y-52465296D01*
X125665532Y-52453565D01*
X125711888Y-52449000D01*
X126363112Y-52449000D01*
X126409468Y-52453565D01*
G37*
G36*
X124534468Y-52453565D02*
G01*
X124573138Y-52465296D01*
X124608777Y-52484346D01*
X124640017Y-52509983D01*
X124665654Y-52541223D01*
X124684704Y-52576862D01*
X124696435Y-52615532D01*
X124701000Y-52661888D01*
X124701000Y-53738112D01*
X124696435Y-53784468D01*
X124684704Y-53823138D01*
X124665654Y-53858777D01*
X124640017Y-53890017D01*
X124608777Y-53915654D01*
X124573138Y-53934704D01*
X124534468Y-53946435D01*
X124488112Y-53951000D01*
X123836888Y-53951000D01*
X123790532Y-53946435D01*
X123751862Y-53934704D01*
X123716223Y-53915654D01*
X123684983Y-53890017D01*
X123659346Y-53858777D01*
X123640296Y-53823138D01*
X123628565Y-53784468D01*
X123624000Y-53738112D01*
X123624000Y-52661888D01*
X123628565Y-52615532D01*
X123640296Y-52576862D01*
X123659346Y-52541223D01*
X123684983Y-52509983D01*
X123716223Y-52484346D01*
X123751862Y-52465296D01*
X123790532Y-52453565D01*
X123836888Y-52449000D01*
X124488112Y-52449000D01*
X124534468Y-52453565D01*
G37*
G36*
X177026979Y-49663293D02*
G01*
X177160625Y-49703834D01*
X177283784Y-49769664D01*
X177391740Y-49858260D01*
X177480336Y-49966216D01*
X177546166Y-50089375D01*
X177586707Y-50223021D01*
X177601000Y-50368140D01*
X177601000Y-52031860D01*
X177586707Y-52176979D01*
X177546166Y-52310625D01*
X177480336Y-52433784D01*
X177391740Y-52541740D01*
X177283784Y-52630336D01*
X177160625Y-52696166D01*
X177026979Y-52736707D01*
X176881860Y-52751000D01*
X174718140Y-52751000D01*
X174573021Y-52736707D01*
X174439375Y-52696166D01*
X174316216Y-52630336D01*
X174208260Y-52541740D01*
X174119664Y-52433784D01*
X174053834Y-52310625D01*
X174013293Y-52176979D01*
X173999000Y-52031860D01*
X173999000Y-50368140D01*
X174013293Y-50223021D01*
X174053834Y-50089375D01*
X174119664Y-49966216D01*
X174208260Y-49858260D01*
X174316216Y-49769664D01*
X174439375Y-49703834D01*
X174573021Y-49663293D01*
X174718140Y-49649000D01*
X176881860Y-49649000D01*
X177026979Y-49663293D01*
G37*
G36*
X124125562Y-49378181D02*
G01*
X124160481Y-49388774D01*
X124192663Y-49405976D01*
X124220873Y-49429127D01*
X124244024Y-49457337D01*
X124261226Y-49489519D01*
X124271819Y-49524438D01*
X124276000Y-49566895D01*
X124276000Y-51033105D01*
X124271819Y-51075562D01*
X124261226Y-51110481D01*
X124244024Y-51142663D01*
X124220873Y-51170873D01*
X124192663Y-51194024D01*
X124160481Y-51211226D01*
X124125562Y-51221819D01*
X124083105Y-51226000D01*
X122941895Y-51226000D01*
X122899438Y-51221819D01*
X122864519Y-51211226D01*
X122832337Y-51194024D01*
X122804127Y-51170873D01*
X122780976Y-51142663D01*
X122763774Y-51110481D01*
X122753181Y-51075562D01*
X122749000Y-51033105D01*
X122749000Y-49566895D01*
X122753181Y-49524438D01*
X122763774Y-49489519D01*
X122780976Y-49457337D01*
X122804127Y-49429127D01*
X122832337Y-49405976D01*
X122864519Y-49388774D01*
X122899438Y-49378181D01*
X122941895Y-49374000D01*
X124083105Y-49374000D01*
X124125562Y-49378181D01*
G37*
G36*
X127100562Y-49378181D02*
G01*
X127135481Y-49388774D01*
X127167663Y-49405976D01*
X127195873Y-49429127D01*
X127219024Y-49457337D01*
X127236226Y-49489519D01*
X127246819Y-49524438D01*
X127251000Y-49566895D01*
X127251000Y-51033105D01*
X127246819Y-51075562D01*
X127236226Y-51110481D01*
X127219024Y-51142663D01*
X127195873Y-51170873D01*
X127167663Y-51194024D01*
X127135481Y-51211226D01*
X127100562Y-51221819D01*
X127058105Y-51226000D01*
X125916895Y-51226000D01*
X125874438Y-51221819D01*
X125839519Y-51211226D01*
X125807337Y-51194024D01*
X125779127Y-51170873D01*
X125755976Y-51142663D01*
X125738774Y-51110481D01*
X125728181Y-51075562D01*
X125724000Y-51033105D01*
X125724000Y-49566895D01*
X125728181Y-49524438D01*
X125738774Y-49489519D01*
X125755976Y-49457337D01*
X125779127Y-49429127D01*
X125807337Y-49405976D01*
X125839519Y-49388774D01*
X125874438Y-49378181D01*
X125916895Y-49374000D01*
X127058105Y-49374000D01*
X127100562Y-49378181D01*
G37*
G36*
X124234468Y-47053565D02*
G01*
X124273138Y-47065296D01*
X124308777Y-47084346D01*
X124340017Y-47109983D01*
X124365654Y-47141223D01*
X124384704Y-47176862D01*
X124396435Y-47215532D01*
X124401000Y-47261888D01*
X124401000Y-48338112D01*
X124396435Y-48384468D01*
X124384704Y-48423138D01*
X124365654Y-48458777D01*
X124340017Y-48490017D01*
X124308777Y-48515654D01*
X124273138Y-48534704D01*
X124234468Y-48546435D01*
X124188112Y-48551000D01*
X123536888Y-48551000D01*
X123490532Y-48546435D01*
X123451862Y-48534704D01*
X123416223Y-48515654D01*
X123384983Y-48490017D01*
X123359346Y-48458777D01*
X123340296Y-48423138D01*
X123328565Y-48384468D01*
X123324000Y-48338112D01*
X123324000Y-47261888D01*
X123328565Y-47215532D01*
X123340296Y-47176862D01*
X123359346Y-47141223D01*
X123384983Y-47109983D01*
X123416223Y-47084346D01*
X123451862Y-47065296D01*
X123490532Y-47053565D01*
X123536888Y-47049000D01*
X124188112Y-47049000D01*
X124234468Y-47053565D01*
G37*
G36*
X126109468Y-47053565D02*
G01*
X126148138Y-47065296D01*
X126183777Y-47084346D01*
X126215017Y-47109983D01*
X126240654Y-47141223D01*
X126259704Y-47176862D01*
X126271435Y-47215532D01*
X126276000Y-47261888D01*
X126276000Y-48338112D01*
X126271435Y-48384468D01*
X126259704Y-48423138D01*
X126240654Y-48458777D01*
X126215017Y-48490017D01*
X126183777Y-48515654D01*
X126148138Y-48534704D01*
X126109468Y-48546435D01*
X126063112Y-48551000D01*
X125411888Y-48551000D01*
X125365532Y-48546435D01*
X125326862Y-48534704D01*
X125291223Y-48515654D01*
X125259983Y-48490017D01*
X125234346Y-48458777D01*
X125215296Y-48423138D01*
X125203565Y-48384468D01*
X125199000Y-48338112D01*
X125199000Y-47261888D01*
X125203565Y-47215532D01*
X125215296Y-47176862D01*
X125234346Y-47141223D01*
X125259983Y-47109983D01*
X125291223Y-47084346D01*
X125326862Y-47065296D01*
X125365532Y-47053565D01*
X125411888Y-47049000D01*
X126063112Y-47049000D01*
X126109468Y-47053565D01*
G37*
M02*
