G04 #@! TF.GenerationSoftware,KiCad,Pcbnew,5.1.5+dfsg1-2build2*
G04 #@! TF.CreationDate,2021-12-30T10:18:34+00:00*
G04 #@! TF.ProjectId,psion-org2-bluetooth-adapter,7073696f-6e2d-46f7-9267-322d626c7565,rev?*
G04 #@! TF.SameCoordinates,Original*
G04 #@! TF.FileFunction,Legend,Top*
G04 #@! TF.FilePolarity,Positive*
%FSLAX46Y46*%
G04 Gerber Fmt 4.6, Leading zero omitted, Abs format (unit mm)*
G04 Created by KiCad (PCBNEW 5.1.5+dfsg1-2build2) date 2021-12-30 10:18:34*
%MOMM*%
%LPD*%
G04 APERTURE LIST*
%ADD10C,0.150000*%
%ADD11C,0.120000*%
G04 APERTURE END LIST*
D10*
X148004761Y-142919047D02*
X148052380Y-142776190D01*
X148052380Y-142538095D01*
X148004761Y-142442857D01*
X147957142Y-142395238D01*
X147861904Y-142347619D01*
X147766666Y-142347619D01*
X147671428Y-142395238D01*
X147623809Y-142442857D01*
X147576190Y-142538095D01*
X147528571Y-142728571D01*
X147480952Y-142823809D01*
X147433333Y-142871428D01*
X147338095Y-142919047D01*
X147242857Y-142919047D01*
X147147619Y-142871428D01*
X147100000Y-142823809D01*
X147052380Y-142728571D01*
X147052380Y-142490476D01*
X147100000Y-142347619D01*
X147052380Y-142014285D02*
X148052380Y-141776190D01*
X147338095Y-141585714D01*
X148052380Y-141395238D01*
X147052380Y-141157142D01*
X148052380Y-140776190D02*
X147052380Y-140776190D01*
X147052380Y-140538095D01*
X147100000Y-140395238D01*
X147195238Y-140300000D01*
X147290476Y-140252380D01*
X147480952Y-140204761D01*
X147623809Y-140204761D01*
X147814285Y-140252380D01*
X147909523Y-140300000D01*
X148004761Y-140395238D01*
X148052380Y-140538095D01*
X148052380Y-140776190D01*
X148052380Y-139776190D02*
X147052380Y-139776190D01*
X147052380Y-139109523D02*
X147052380Y-138919047D01*
X147100000Y-138823809D01*
X147195238Y-138728571D01*
X147385714Y-138680952D01*
X147719047Y-138680952D01*
X147909523Y-138728571D01*
X148004761Y-138823809D01*
X148052380Y-138919047D01*
X148052380Y-139109523D01*
X148004761Y-139204761D01*
X147909523Y-139300000D01*
X147719047Y-139347619D01*
X147385714Y-139347619D01*
X147195238Y-139300000D01*
X147100000Y-139204761D01*
X147052380Y-139109523D01*
X142804761Y-143061904D02*
X142852380Y-142919047D01*
X142852380Y-142680952D01*
X142804761Y-142585714D01*
X142757142Y-142538095D01*
X142661904Y-142490476D01*
X142566666Y-142490476D01*
X142471428Y-142538095D01*
X142423809Y-142585714D01*
X142376190Y-142680952D01*
X142328571Y-142871428D01*
X142280952Y-142966666D01*
X142233333Y-143014285D01*
X142138095Y-143061904D01*
X142042857Y-143061904D01*
X141947619Y-143014285D01*
X141900000Y-142966666D01*
X141852380Y-142871428D01*
X141852380Y-142633333D01*
X141900000Y-142490476D01*
X141852380Y-142157142D02*
X142852380Y-141919047D01*
X142138095Y-141728571D01*
X142852380Y-141538095D01*
X141852380Y-141300000D01*
X142757142Y-140347619D02*
X142804761Y-140395238D01*
X142852380Y-140538095D01*
X142852380Y-140633333D01*
X142804761Y-140776190D01*
X142709523Y-140871428D01*
X142614285Y-140919047D01*
X142423809Y-140966666D01*
X142280952Y-140966666D01*
X142090476Y-140919047D01*
X141995238Y-140871428D01*
X141900000Y-140776190D01*
X141852380Y-140633333D01*
X141852380Y-140538095D01*
X141900000Y-140395238D01*
X141947619Y-140347619D01*
X142852380Y-139442857D02*
X142852380Y-139919047D01*
X141852380Y-139919047D01*
X142852380Y-139109523D02*
X141852380Y-139109523D01*
X142852380Y-138538095D02*
X142280952Y-138966666D01*
X141852380Y-138538095D02*
X142423809Y-139109523D01*
X144600000Y-140761904D02*
X144552380Y-140857142D01*
X144552380Y-141000000D01*
X144600000Y-141142857D01*
X144695238Y-141238095D01*
X144790476Y-141285714D01*
X144980952Y-141333333D01*
X145123809Y-141333333D01*
X145314285Y-141285714D01*
X145409523Y-141238095D01*
X145504761Y-141142857D01*
X145552380Y-141000000D01*
X145552380Y-140904761D01*
X145504761Y-140761904D01*
X145457142Y-140714285D01*
X145123809Y-140714285D01*
X145123809Y-140904761D01*
X145552380Y-140285714D02*
X144552380Y-140285714D01*
X145552380Y-139714285D01*
X144552380Y-139714285D01*
X145552380Y-139238095D02*
X144552380Y-139238095D01*
X144552380Y-139000000D01*
X144600000Y-138857142D01*
X144695238Y-138761904D01*
X144790476Y-138714285D01*
X144980952Y-138666666D01*
X145123809Y-138666666D01*
X145314285Y-138714285D01*
X145409523Y-138761904D01*
X145504761Y-138857142D01*
X145552380Y-139000000D01*
X145552380Y-139238095D01*
X107661904Y-135152380D02*
X108280952Y-135152380D01*
X107947619Y-135533333D01*
X108090476Y-135533333D01*
X108185714Y-135580952D01*
X108233333Y-135628571D01*
X108280952Y-135723809D01*
X108280952Y-135961904D01*
X108233333Y-136057142D01*
X108185714Y-136104761D01*
X108090476Y-136152380D01*
X107804761Y-136152380D01*
X107709523Y-136104761D01*
X107661904Y-136057142D01*
X108566666Y-135152380D02*
X108900000Y-136152380D01*
X109233333Y-135152380D01*
X109471428Y-135152380D02*
X110090476Y-135152380D01*
X109757142Y-135533333D01*
X109900000Y-135533333D01*
X109995238Y-135580952D01*
X110042857Y-135628571D01*
X110090476Y-135723809D01*
X110090476Y-135961904D01*
X110042857Y-136057142D01*
X109995238Y-136104761D01*
X109900000Y-136152380D01*
X109614285Y-136152380D01*
X109519047Y-136104761D01*
X109471428Y-136057142D01*
X108038095Y-132500000D02*
X107942857Y-132452380D01*
X107800000Y-132452380D01*
X107657142Y-132500000D01*
X107561904Y-132595238D01*
X107514285Y-132690476D01*
X107466666Y-132880952D01*
X107466666Y-133023809D01*
X107514285Y-133214285D01*
X107561904Y-133309523D01*
X107657142Y-133404761D01*
X107800000Y-133452380D01*
X107895238Y-133452380D01*
X108038095Y-133404761D01*
X108085714Y-133357142D01*
X108085714Y-133023809D01*
X107895238Y-133023809D01*
X108514285Y-133452380D02*
X108514285Y-132452380D01*
X109085714Y-133452380D01*
X109085714Y-132452380D01*
X109561904Y-133452380D02*
X109561904Y-132452380D01*
X109800000Y-132452380D01*
X109942857Y-132500000D01*
X110038095Y-132595238D01*
X110085714Y-132690476D01*
X110133333Y-132880952D01*
X110133333Y-133023809D01*
X110085714Y-133214285D01*
X110038095Y-133309523D01*
X109942857Y-133404761D01*
X109800000Y-133452380D01*
X109561904Y-133452380D01*
X129661904Y-137652380D02*
X130280952Y-137652380D01*
X129947619Y-138033333D01*
X130090476Y-138033333D01*
X130185714Y-138080952D01*
X130233333Y-138128571D01*
X130280952Y-138223809D01*
X130280952Y-138461904D01*
X130233333Y-138557142D01*
X130185714Y-138604761D01*
X130090476Y-138652380D01*
X129804761Y-138652380D01*
X129709523Y-138604761D01*
X129661904Y-138557142D01*
X130566666Y-137652380D02*
X130900000Y-138652380D01*
X131233333Y-137652380D01*
X131471428Y-137652380D02*
X132090476Y-137652380D01*
X131757142Y-138033333D01*
X131900000Y-138033333D01*
X131995238Y-138080952D01*
X132042857Y-138128571D01*
X132090476Y-138223809D01*
X132090476Y-138461904D01*
X132042857Y-138557142D01*
X131995238Y-138604761D01*
X131900000Y-138652380D01*
X131614285Y-138652380D01*
X131519047Y-138604761D01*
X131471428Y-138557142D01*
X130238095Y-135100000D02*
X130142857Y-135052380D01*
X130000000Y-135052380D01*
X129857142Y-135100000D01*
X129761904Y-135195238D01*
X129714285Y-135290476D01*
X129666666Y-135480952D01*
X129666666Y-135623809D01*
X129714285Y-135814285D01*
X129761904Y-135909523D01*
X129857142Y-136004761D01*
X130000000Y-136052380D01*
X130095238Y-136052380D01*
X130238095Y-136004761D01*
X130285714Y-135957142D01*
X130285714Y-135623809D01*
X130095238Y-135623809D01*
X130714285Y-136052380D02*
X130714285Y-135052380D01*
X131285714Y-136052380D01*
X131285714Y-135052380D01*
X131761904Y-136052380D02*
X131761904Y-135052380D01*
X132000000Y-135052380D01*
X132142857Y-135100000D01*
X132238095Y-135195238D01*
X132285714Y-135290476D01*
X132333333Y-135480952D01*
X132333333Y-135623809D01*
X132285714Y-135814285D01*
X132238095Y-135909523D01*
X132142857Y-136004761D01*
X132000000Y-136052380D01*
X131761904Y-136052380D01*
X123371428Y-64427380D02*
X123609523Y-65427380D01*
X123800000Y-64713095D01*
X123990476Y-65427380D01*
X124228571Y-64427380D01*
X125180952Y-65427380D02*
X124847619Y-64951190D01*
X124609523Y-65427380D02*
X124609523Y-64427380D01*
X124990476Y-64427380D01*
X125085714Y-64475000D01*
X125133333Y-64522619D01*
X125180952Y-64617857D01*
X125180952Y-64760714D01*
X125133333Y-64855952D01*
X125085714Y-64903571D01*
X124990476Y-64951190D01*
X124609523Y-64951190D01*
X125800000Y-64427380D02*
X125990476Y-64427380D01*
X126085714Y-64475000D01*
X126180952Y-64570238D01*
X126228571Y-64760714D01*
X126228571Y-65094047D01*
X126180952Y-65284523D01*
X126085714Y-65379761D01*
X125990476Y-65427380D01*
X125800000Y-65427380D01*
X125704761Y-65379761D01*
X125609523Y-65284523D01*
X125561904Y-65094047D01*
X125561904Y-64760714D01*
X125609523Y-64570238D01*
X125704761Y-64475000D01*
X125800000Y-64427380D01*
X126847619Y-64427380D02*
X127038095Y-64427380D01*
X127133333Y-64475000D01*
X127228571Y-64570238D01*
X127276190Y-64760714D01*
X127276190Y-65094047D01*
X127228571Y-65284523D01*
X127133333Y-65379761D01*
X127038095Y-65427380D01*
X126847619Y-65427380D01*
X126752380Y-65379761D01*
X126657142Y-65284523D01*
X126609523Y-65094047D01*
X126609523Y-64760714D01*
X126657142Y-64570238D01*
X126752380Y-64475000D01*
X126847619Y-64427380D01*
X127704761Y-65427380D02*
X127704761Y-64427380D01*
X128038095Y-65141666D01*
X128371428Y-64427380D01*
X128371428Y-65427380D01*
X124514285Y-67077380D02*
X124514285Y-66077380D01*
X124895238Y-66077380D01*
X124990476Y-66125000D01*
X125038095Y-66172619D01*
X125085714Y-66267857D01*
X125085714Y-66410714D01*
X125038095Y-66505952D01*
X124990476Y-66553571D01*
X124895238Y-66601190D01*
X124514285Y-66601190D01*
X126085714Y-67077380D02*
X125752380Y-66601190D01*
X125514285Y-67077380D02*
X125514285Y-66077380D01*
X125895238Y-66077380D01*
X125990476Y-66125000D01*
X126038095Y-66172619D01*
X126085714Y-66267857D01*
X126085714Y-66410714D01*
X126038095Y-66505952D01*
X125990476Y-66553571D01*
X125895238Y-66601190D01*
X125514285Y-66601190D01*
X126704761Y-66077380D02*
X126895238Y-66077380D01*
X126990476Y-66125000D01*
X127085714Y-66220238D01*
X127133333Y-66410714D01*
X127133333Y-66744047D01*
X127085714Y-66934523D01*
X126990476Y-67029761D01*
X126895238Y-67077380D01*
X126704761Y-67077380D01*
X126609523Y-67029761D01*
X126514285Y-66934523D01*
X126466666Y-66744047D01*
X126466666Y-66410714D01*
X126514285Y-66220238D01*
X126609523Y-66125000D01*
X126704761Y-66077380D01*
X128085714Y-66125000D02*
X127990476Y-66077380D01*
X127847619Y-66077380D01*
X127704761Y-66125000D01*
X127609523Y-66220238D01*
X127561904Y-66315476D01*
X127514285Y-66505952D01*
X127514285Y-66648809D01*
X127561904Y-66839285D01*
X127609523Y-66934523D01*
X127704761Y-67029761D01*
X127847619Y-67077380D01*
X127942857Y-67077380D01*
X128085714Y-67029761D01*
X128133333Y-66982142D01*
X128133333Y-66648809D01*
X127942857Y-66648809D01*
X122938095Y-55152380D02*
X123509523Y-55152380D01*
X123223809Y-56152380D02*
X123223809Y-55152380D01*
X123747619Y-55152380D02*
X124414285Y-56152380D01*
X124414285Y-55152380D02*
X123747619Y-56152380D01*
X122333333Y-64652380D02*
X122000000Y-64176190D01*
X121761904Y-64652380D02*
X121761904Y-63652380D01*
X122142857Y-63652380D01*
X122238095Y-63700000D01*
X122285714Y-63747619D01*
X122333333Y-63842857D01*
X122333333Y-63985714D01*
X122285714Y-64080952D01*
X122238095Y-64128571D01*
X122142857Y-64176190D01*
X121761904Y-64176190D01*
X122666666Y-63652380D02*
X123333333Y-64652380D01*
X123333333Y-63652380D02*
X122666666Y-64652380D01*
X128838095Y-60900000D02*
X128742857Y-60852380D01*
X128600000Y-60852380D01*
X128457142Y-60900000D01*
X128361904Y-60995238D01*
X128314285Y-61090476D01*
X128266666Y-61280952D01*
X128266666Y-61423809D01*
X128314285Y-61614285D01*
X128361904Y-61709523D01*
X128457142Y-61804761D01*
X128600000Y-61852380D01*
X128695238Y-61852380D01*
X128838095Y-61804761D01*
X128885714Y-61757142D01*
X128885714Y-61423809D01*
X128695238Y-61423809D01*
X129314285Y-61852380D02*
X129314285Y-60852380D01*
X129885714Y-61852380D01*
X129885714Y-60852380D01*
X130361904Y-61852380D02*
X130361904Y-60852380D01*
X130600000Y-60852380D01*
X130742857Y-60900000D01*
X130838095Y-60995238D01*
X130885714Y-61090476D01*
X130933333Y-61280952D01*
X130933333Y-61423809D01*
X130885714Y-61614285D01*
X130838095Y-61709523D01*
X130742857Y-61804761D01*
X130600000Y-61852380D01*
X130361904Y-61852380D01*
D11*
X172341422Y-140110000D02*
X172858578Y-140110000D01*
X172341422Y-138690000D02*
X172858578Y-138690000D01*
X168290000Y-137041422D02*
X168290000Y-137558578D01*
X169710000Y-137041422D02*
X169710000Y-137558578D01*
X180700000Y-58000000D02*
X178100000Y-58000000D01*
X180700000Y-43300000D02*
X180700000Y-58000000D01*
X171500000Y-58000000D02*
X171500000Y-56100000D01*
X174200000Y-58000000D02*
X171500000Y-58000000D01*
X171500000Y-43300000D02*
X180700000Y-43300000D01*
X171500000Y-52100000D02*
X171500000Y-43300000D01*
X180900000Y-57150000D02*
X180900000Y-58200000D01*
X179850000Y-58200000D02*
X180900000Y-58200000D01*
X159390000Y-76550000D02*
X159390000Y-70540000D01*
X166210000Y-74300000D02*
X166210000Y-70540000D01*
X159390000Y-70540000D02*
X160650000Y-70540000D01*
X166210000Y-70540000D02*
X164950000Y-70540000D01*
X159390000Y-99100000D02*
X159390000Y-93090000D01*
X166210000Y-96850000D02*
X166210000Y-93090000D01*
X159390000Y-93090000D02*
X160650000Y-93090000D01*
X166210000Y-93090000D02*
X164950000Y-93090000D01*
X174135000Y-134010000D02*
X174610000Y-134010000D01*
X171390000Y-130790000D02*
X171390000Y-131265000D01*
X171865000Y-130790000D02*
X171390000Y-130790000D01*
X174610000Y-130790000D02*
X174610000Y-131265000D01*
X174135000Y-130790000D02*
X174610000Y-130790000D01*
X171390000Y-134010000D02*
X171390000Y-133535000D01*
X171865000Y-134010000D02*
X171390000Y-134010000D01*
X164710000Y-138458578D02*
X164710000Y-137941422D01*
X163290000Y-138458578D02*
X163290000Y-137941422D01*
X167410000Y-138458578D02*
X167410000Y-137941422D01*
X165990000Y-138458578D02*
X165990000Y-137941422D01*
X179210000Y-131358578D02*
X179210000Y-130841422D01*
X177790000Y-131358578D02*
X177790000Y-130841422D01*
X176190000Y-139541422D02*
X176190000Y-140058578D01*
X177610000Y-139541422D02*
X177610000Y-140058578D01*
X167058578Y-132690000D02*
X166541422Y-132690000D01*
X167058578Y-134110000D02*
X166541422Y-134110000D01*
X163040000Y-140440000D02*
X163040000Y-143300000D01*
X164960000Y-140440000D02*
X163040000Y-140440000D01*
X164960000Y-143300000D02*
X164960000Y-140440000D01*
X166840000Y-140440000D02*
X166840000Y-143300000D01*
X168760000Y-140440000D02*
X166840000Y-140440000D01*
X168760000Y-143300000D02*
X168760000Y-140440000D01*
X159750000Y-80100000D02*
X163650000Y-80100000D01*
X159750000Y-82100000D02*
X163650000Y-82100000D01*
X159750000Y-80100000D02*
X159750000Y-82100000D01*
X163641422Y-67410000D02*
X164158578Y-67410000D01*
X163641422Y-65990000D02*
X164158578Y-65990000D01*
X163641422Y-89710000D02*
X164158578Y-89710000D01*
X163641422Y-88290000D02*
X164158578Y-88290000D01*
X164458578Y-77290000D02*
X163941422Y-77290000D01*
X164458578Y-78710000D02*
X163941422Y-78710000D01*
X163958578Y-100390000D02*
X163441422Y-100390000D01*
X163958578Y-101810000D02*
X163441422Y-101810000D01*
X167058578Y-130490000D02*
X166541422Y-130490000D01*
X167058578Y-131910000D02*
X166541422Y-131910000D01*
X166602064Y-127890000D02*
X165397936Y-127890000D01*
X166602064Y-129710000D02*
X165397936Y-129710000D01*
X177690000Y-134997936D02*
X177690000Y-136202064D01*
X179510000Y-134997936D02*
X179510000Y-136202064D01*
X172097936Y-137910000D02*
X173302064Y-137910000D01*
X172097936Y-136090000D02*
X173302064Y-136090000D01*
X189850000Y-142600000D02*
X187350000Y-142600000D01*
X188600000Y-143850000D02*
X188600000Y-141350000D01*
X188600000Y-56350000D02*
X188600000Y-58850000D01*
X191160000Y-61460000D02*
X184180000Y-61460000D01*
X184160000Y-61460000D02*
X184160000Y-138740000D01*
X184160000Y-138740000D02*
X191160000Y-138740000D01*
X198040000Y-61460000D02*
X205040000Y-61460000D01*
X205040000Y-61460000D02*
X205040000Y-138740000D01*
X205040000Y-138740000D02*
X198040000Y-138740000D01*
X191160000Y-138740000D02*
X191160000Y-143100000D01*
X115120000Y-55060000D02*
X115120000Y-53600000D01*
X118280000Y-55060000D02*
X118280000Y-52900000D01*
X118280000Y-55060000D02*
X117350000Y-55060000D01*
X115120000Y-55060000D02*
X116050000Y-55060000D01*
X117560000Y-60180000D02*
X116100000Y-60180000D01*
X117560000Y-57020000D02*
X115400000Y-57020000D01*
X117560000Y-57020000D02*
X117560000Y-57950000D01*
X117560000Y-60180000D02*
X117560000Y-59250000D01*
X83270000Y-106650000D02*
X82000000Y-106650000D01*
X83270000Y-105380000D02*
X83270000Y-106650000D01*
X77962929Y-105760000D02*
X78417071Y-105760000D01*
X77962929Y-105000000D02*
X78417071Y-105000000D01*
X78417071Y-87220000D02*
X78020000Y-87220000D01*
X78417071Y-87980000D02*
X78020000Y-87980000D01*
X69360000Y-87220000D02*
X75360000Y-87220000D01*
X69360000Y-87980000D02*
X69360000Y-87220000D01*
X75360000Y-87980000D02*
X69360000Y-87980000D01*
X78020000Y-88870000D02*
X75360000Y-88870000D01*
X77962929Y-103220000D02*
X78417071Y-103220000D01*
X77962929Y-102460000D02*
X78417071Y-102460000D01*
X78417071Y-89760000D02*
X78020000Y-89760000D01*
X78417071Y-90520000D02*
X78020000Y-90520000D01*
X69360000Y-89760000D02*
X75360000Y-89760000D01*
X69360000Y-90520000D02*
X69360000Y-89760000D01*
X75360000Y-90520000D02*
X69360000Y-90520000D01*
X78020000Y-91410000D02*
X75360000Y-91410000D01*
X77962929Y-100680000D02*
X78417071Y-100680000D01*
X77962929Y-99920000D02*
X78417071Y-99920000D01*
X78417071Y-92300000D02*
X78020000Y-92300000D01*
X78417071Y-93060000D02*
X78020000Y-93060000D01*
X69360000Y-92300000D02*
X75360000Y-92300000D01*
X69360000Y-93060000D02*
X69360000Y-92300000D01*
X75360000Y-93060000D02*
X69360000Y-93060000D01*
X78020000Y-93950000D02*
X75360000Y-93950000D01*
X77962929Y-98140000D02*
X78417071Y-98140000D01*
X77962929Y-97380000D02*
X78417071Y-97380000D01*
X78417071Y-94840000D02*
X78020000Y-94840000D01*
X78417071Y-95600000D02*
X78020000Y-95600000D01*
X69360000Y-94840000D02*
X75360000Y-94840000D01*
X69360000Y-95600000D02*
X69360000Y-94840000D01*
X75360000Y-95600000D02*
X69360000Y-95600000D01*
X78020000Y-96490000D02*
X75360000Y-96490000D01*
X77962929Y-95600000D02*
X78417071Y-95600000D01*
X77962929Y-94840000D02*
X78417071Y-94840000D01*
X78417071Y-97380000D02*
X78020000Y-97380000D01*
X78417071Y-98140000D02*
X78020000Y-98140000D01*
X69360000Y-97380000D02*
X75360000Y-97380000D01*
X69360000Y-98140000D02*
X69360000Y-97380000D01*
X75360000Y-98140000D02*
X69360000Y-98140000D01*
X78020000Y-99030000D02*
X75360000Y-99030000D01*
X77962929Y-93060000D02*
X78417071Y-93060000D01*
X77962929Y-92300000D02*
X78417071Y-92300000D01*
X78417071Y-99920000D02*
X78020000Y-99920000D01*
X78417071Y-100680000D02*
X78020000Y-100680000D01*
X69360000Y-99920000D02*
X75360000Y-99920000D01*
X69360000Y-100680000D02*
X69360000Y-99920000D01*
X75360000Y-100680000D02*
X69360000Y-100680000D01*
X78020000Y-101570000D02*
X75360000Y-101570000D01*
X77962929Y-90520000D02*
X78417071Y-90520000D01*
X77962929Y-89760000D02*
X78417071Y-89760000D01*
X78417071Y-102460000D02*
X78020000Y-102460000D01*
X78417071Y-103220000D02*
X78020000Y-103220000D01*
X69360000Y-102460000D02*
X75360000Y-102460000D01*
X69360000Y-103220000D02*
X69360000Y-102460000D01*
X75360000Y-103220000D02*
X69360000Y-103220000D01*
X78020000Y-104110000D02*
X75360000Y-104110000D01*
X78030000Y-87980000D02*
X78417071Y-87980000D01*
X78030000Y-87220000D02*
X78417071Y-87220000D01*
X78417071Y-105000000D02*
X78020000Y-105000000D01*
X78417071Y-105760000D02*
X78020000Y-105760000D01*
X75360000Y-105100000D02*
X69360000Y-105100000D01*
X75360000Y-105220000D02*
X69360000Y-105220000D01*
X75360000Y-105340000D02*
X69360000Y-105340000D01*
X75360000Y-105460000D02*
X69360000Y-105460000D01*
X75360000Y-105580000D02*
X69360000Y-105580000D01*
X75360000Y-105700000D02*
X69360000Y-105700000D01*
X69360000Y-105000000D02*
X75360000Y-105000000D01*
X69360000Y-105760000D02*
X69360000Y-105000000D01*
X75360000Y-105760000D02*
X69360000Y-105760000D01*
X75360000Y-106710000D02*
X78020000Y-106710000D01*
X75360000Y-86270000D02*
X75360000Y-106710000D01*
X78020000Y-86270000D02*
X75360000Y-86270000D01*
X78020000Y-106710000D02*
X78020000Y-86270000D01*
X135380000Y-52255000D02*
X135000000Y-52255000D01*
X135380000Y-45835000D02*
X135380000Y-52255000D01*
X153620000Y-45835000D02*
X153620000Y-52255000D01*
X135380000Y-45835000D02*
X153620000Y-45835000D01*
X153620000Y-71580000D02*
X152620000Y-71580000D01*
X153620000Y-70800000D02*
X153620000Y-71580000D01*
X135380000Y-71580000D02*
X136380000Y-71580000D01*
X135380000Y-70800000D02*
X135380000Y-71580000D01*
X133500000Y-77200000D02*
X154500000Y-77200000D01*
X140300000Y-128200000D02*
X133500000Y-128200000D01*
X133500000Y-79867000D02*
X136507000Y-79867000D01*
X136507000Y-79867000D02*
X136507000Y-77200000D01*
X133500000Y-77200000D02*
X133500000Y-77500000D01*
X133500000Y-79600000D02*
X133500000Y-80000000D01*
X133500000Y-82200000D02*
X133500000Y-82600000D01*
X133500000Y-84700000D02*
X133500000Y-85100000D01*
X133500000Y-87300000D02*
X133500000Y-87700000D01*
X133500000Y-89800000D02*
X133500000Y-90200000D01*
X133500000Y-92300000D02*
X133500000Y-92700000D01*
X133500000Y-94900000D02*
X133500000Y-95300000D01*
X133500000Y-97400000D02*
X133500000Y-97800000D01*
X133500000Y-100000000D02*
X133500000Y-100400000D01*
X133500000Y-102500000D02*
X133500000Y-102900000D01*
X133500000Y-105000000D02*
X133500000Y-105400000D01*
X133500000Y-107600000D02*
X133500000Y-108000000D01*
X133500000Y-110100000D02*
X133500000Y-110500000D01*
X133500000Y-112700000D02*
X133500000Y-113100000D01*
X133500000Y-115200000D02*
X133500000Y-115600000D01*
X133500000Y-117800000D02*
X133500000Y-118200000D01*
X133500000Y-120300000D02*
X133500000Y-120700000D01*
X133500000Y-122800000D02*
X133500000Y-123200000D01*
X133500000Y-125400000D02*
X133500000Y-125800000D01*
X154500000Y-92300000D02*
X154500000Y-92700000D01*
X154500000Y-97400000D02*
X154500000Y-97800000D01*
X154500000Y-105000000D02*
X154500000Y-105400000D01*
X154500000Y-112700000D02*
X154500000Y-113100000D01*
X154500000Y-82200000D02*
X154500000Y-82600000D01*
X154500000Y-79600000D02*
X154500000Y-80000000D01*
X154500000Y-87300000D02*
X154500000Y-87700000D01*
X154500000Y-120300000D02*
X154500000Y-120700000D01*
X154500000Y-125400000D02*
X154500000Y-125800000D01*
X154500000Y-122800000D02*
X154500000Y-123200000D01*
X154500000Y-107600000D02*
X154500000Y-108000000D01*
X154500000Y-102500000D02*
X154500000Y-102900000D01*
X154500000Y-89800000D02*
X154500000Y-90200000D01*
X154500000Y-94900000D02*
X154500000Y-95300000D01*
X154500000Y-115200000D02*
X154500000Y-115600000D01*
X154500000Y-100000000D02*
X154500000Y-100400000D01*
X154500000Y-77200000D02*
X154500000Y-77500000D01*
X154500000Y-84700000D02*
X154500000Y-85100000D01*
X154500000Y-110100000D02*
X154500000Y-110500000D01*
X154500000Y-117800000D02*
X154500000Y-118200000D01*
X154500000Y-128200000D02*
X147700000Y-128200000D01*
X142500000Y-128200000D02*
X142900000Y-128200000D01*
X145100000Y-128200000D02*
X145500000Y-128200000D01*
X116940000Y-98425000D02*
X115125000Y-98425000D01*
X116940000Y-98190000D02*
X116940000Y-98425000D01*
X120800000Y-98190000D02*
X116940000Y-98190000D01*
X124660000Y-98190000D02*
X124660000Y-98425000D01*
X120800000Y-98190000D02*
X124660000Y-98190000D01*
X116940000Y-111210000D02*
X116940000Y-110975000D01*
X120800000Y-111210000D02*
X116940000Y-111210000D01*
X124660000Y-111210000D02*
X124660000Y-110975000D01*
X120800000Y-111210000D02*
X124660000Y-111210000D01*
X115540000Y-76225000D02*
X113725000Y-76225000D01*
X115540000Y-75990000D02*
X115540000Y-76225000D01*
X119400000Y-75990000D02*
X115540000Y-75990000D01*
X123260000Y-75990000D02*
X123260000Y-76225000D01*
X119400000Y-75990000D02*
X123260000Y-75990000D01*
X115540000Y-89010000D02*
X115540000Y-88775000D01*
X119400000Y-89010000D02*
X115540000Y-89010000D01*
X123260000Y-89010000D02*
X123260000Y-88775000D01*
X119400000Y-89010000D02*
X123260000Y-89010000D01*
X114741422Y-131110000D02*
X115258578Y-131110000D01*
X114741422Y-129690000D02*
X115258578Y-129690000D01*
X114741422Y-128510000D02*
X115258578Y-128510000D01*
X114741422Y-127090000D02*
X115258578Y-127090000D01*
X114490000Y-91941422D02*
X114490000Y-92458578D01*
X115910000Y-91941422D02*
X115910000Y-92458578D01*
X113010000Y-58658578D02*
X113010000Y-58141422D01*
X111590000Y-58658578D02*
X111590000Y-58141422D01*
X116858578Y-50090000D02*
X116341422Y-50090000D01*
X116858578Y-51510000D02*
X116341422Y-51510000D01*
X126000000Y-68600000D02*
X126000000Y-70000000D01*
X125300000Y-70700000D02*
X124700000Y-70700000D01*
X124000000Y-70000000D02*
X124000000Y-68600000D01*
X124700000Y-67900000D02*
X125300000Y-67900000D01*
X125300000Y-67900000D02*
G75*
G02X126000000Y-68600000I0J-700000D01*
G01*
X124000000Y-68600000D02*
G75*
G02X124700000Y-67900000I700000J0D01*
G01*
X124700000Y-70700000D02*
G75*
G02X124000000Y-70000000I0J700000D01*
G01*
X126000000Y-70000000D02*
G75*
G02X125300000Y-70700000I-700000J0D01*
G01*
X123500000Y-137200000D02*
X124900000Y-137200000D01*
X125600000Y-137900000D02*
X125600000Y-138500000D01*
X124900000Y-139200000D02*
X123500000Y-139200000D01*
X122800000Y-138500000D02*
X122800000Y-137900000D01*
X122800000Y-137900000D02*
G75*
G02X123500000Y-137200000I700000J0D01*
G01*
X123500000Y-139200000D02*
G75*
G02X122800000Y-138500000I0J700000D01*
G01*
X125600000Y-138500000D02*
G75*
G02X124900000Y-139200000I-700000J0D01*
G01*
X124900000Y-137200000D02*
G75*
G02X125600000Y-137900000I0J-700000D01*
G01*
X115950000Y-136600000D02*
X114550000Y-136600000D01*
X113850000Y-135900000D02*
X113850000Y-135300000D01*
X114550000Y-134600000D02*
X115950000Y-134600000D01*
X116650000Y-135300000D02*
X116650000Y-135900000D01*
X116650000Y-135900000D02*
G75*
G02X115950000Y-136600000I-700000J0D01*
G01*
X115950000Y-134600000D02*
G75*
G02X116650000Y-135300000I0J-700000D01*
G01*
X113850000Y-135300000D02*
G75*
G02X114550000Y-134600000I700000J0D01*
G01*
X114550000Y-136600000D02*
G75*
G02X113850000Y-135900000I0J700000D01*
G01*
X123500000Y-134500000D02*
X124900000Y-134500000D01*
X125600000Y-135200000D02*
X125600000Y-135800000D01*
X124900000Y-136500000D02*
X123500000Y-136500000D01*
X122800000Y-135800000D02*
X122800000Y-135200000D01*
X122800000Y-135200000D02*
G75*
G02X123500000Y-134500000I700000J0D01*
G01*
X123500000Y-136500000D02*
G75*
G02X122800000Y-135800000I0J700000D01*
G01*
X125600000Y-135800000D02*
G75*
G02X124900000Y-136500000I-700000J0D01*
G01*
X124900000Y-134500000D02*
G75*
G02X125600000Y-135200000I0J-700000D01*
G01*
X115900000Y-133900000D02*
X114500000Y-133900000D01*
X113800000Y-133200000D02*
X113800000Y-132600000D01*
X114500000Y-131900000D02*
X115900000Y-131900000D01*
X116600000Y-132600000D02*
X116600000Y-133200000D01*
X116600000Y-133200000D02*
G75*
G02X115900000Y-133900000I-700000J0D01*
G01*
X115900000Y-131900000D02*
G75*
G02X116600000Y-132600000I0J-700000D01*
G01*
X113800000Y-132600000D02*
G75*
G02X114500000Y-131900000I700000J0D01*
G01*
X114500000Y-133900000D02*
G75*
G02X113800000Y-133200000I0J700000D01*
G01*
X148670000Y-135170000D02*
X148670000Y-136500000D01*
X147340000Y-135170000D02*
X148670000Y-135170000D01*
X146070000Y-135170000D02*
X146070000Y-137830000D01*
X146070000Y-137830000D02*
X140930000Y-137830000D01*
X146070000Y-135170000D02*
X140930000Y-135170000D01*
X140930000Y-135170000D02*
X140930000Y-137830000D01*
X118270000Y-126470000D02*
X119600000Y-126470000D01*
X118270000Y-127800000D02*
X118270000Y-126470000D01*
X118270000Y-129070000D02*
X120930000Y-129070000D01*
X120930000Y-129070000D02*
X120930000Y-136750000D01*
X118270000Y-129070000D02*
X118270000Y-136750000D01*
X118270000Y-136750000D02*
X120930000Y-136750000D01*
X124970000Y-58220000D02*
X124970000Y-61780000D01*
X127630000Y-60760000D02*
X127630000Y-63870000D01*
X127630000Y-63300000D02*
X127630000Y-63870000D01*
X124970000Y-56130000D02*
X124970000Y-56700000D01*
X124970000Y-56700000D02*
X123450000Y-56700000D01*
X127630000Y-56130000D02*
X127630000Y-59240000D01*
X124970000Y-63870000D02*
X127630000Y-63870000D01*
X124970000Y-56130000D02*
X127630000Y-56130000D01*
X119378922Y-92610000D02*
X119896078Y-92610000D01*
X119378922Y-91190000D02*
X119896078Y-91190000D01*
X119241422Y-71910000D02*
X119758578Y-71910000D01*
X119241422Y-70490000D02*
X119758578Y-70490000D01*
D10*
X170933333Y-141557142D02*
X170885714Y-141604761D01*
X170742857Y-141652380D01*
X170647619Y-141652380D01*
X170504761Y-141604761D01*
X170409523Y-141509523D01*
X170361904Y-141414285D01*
X170314285Y-141223809D01*
X170314285Y-141080952D01*
X170361904Y-140890476D01*
X170409523Y-140795238D01*
X170504761Y-140700000D01*
X170647619Y-140652380D01*
X170742857Y-140652380D01*
X170885714Y-140700000D01*
X170933333Y-140747619D01*
X171790476Y-140652380D02*
X171600000Y-140652380D01*
X171504761Y-140700000D01*
X171457142Y-140747619D01*
X171361904Y-140890476D01*
X171314285Y-141080952D01*
X171314285Y-141461904D01*
X171361904Y-141557142D01*
X171409523Y-141604761D01*
X171504761Y-141652380D01*
X171695238Y-141652380D01*
X171790476Y-141604761D01*
X171838095Y-141557142D01*
X171885714Y-141461904D01*
X171885714Y-141223809D01*
X171838095Y-141128571D01*
X171790476Y-141080952D01*
X171695238Y-141033333D01*
X171504761Y-141033333D01*
X171409523Y-141080952D01*
X171361904Y-141128571D01*
X171314285Y-141223809D01*
X169852380Y-134666666D02*
X169376190Y-135000000D01*
X169852380Y-135238095D02*
X168852380Y-135238095D01*
X168852380Y-134857142D01*
X168900000Y-134761904D01*
X168947619Y-134714285D01*
X169042857Y-134666666D01*
X169185714Y-134666666D01*
X169280952Y-134714285D01*
X169328571Y-134761904D01*
X169376190Y-134857142D01*
X169376190Y-135238095D01*
X169852380Y-134190476D02*
X169852380Y-134000000D01*
X169804761Y-133904761D01*
X169757142Y-133857142D01*
X169614285Y-133761904D01*
X169423809Y-133714285D01*
X169042857Y-133714285D01*
X168947619Y-133761904D01*
X168900000Y-133809523D01*
X168852380Y-133904761D01*
X168852380Y-134095238D01*
X168900000Y-134190476D01*
X168947619Y-134238095D01*
X169042857Y-134285714D01*
X169280952Y-134285714D01*
X169376190Y-134238095D01*
X169423809Y-134190476D01*
X169471428Y-134095238D01*
X169471428Y-133904761D01*
X169423809Y-133809523D01*
X169376190Y-133761904D01*
X169280952Y-133714285D01*
X169802380Y-48983333D02*
X170516666Y-48983333D01*
X170659523Y-49030952D01*
X170754761Y-49126190D01*
X170802380Y-49269047D01*
X170802380Y-49364285D01*
X169802380Y-48602380D02*
X169802380Y-47983333D01*
X170183333Y-48316666D01*
X170183333Y-48173809D01*
X170230952Y-48078571D01*
X170278571Y-48030952D01*
X170373809Y-47983333D01*
X170611904Y-47983333D01*
X170707142Y-48030952D01*
X170754761Y-48078571D01*
X170802380Y-48173809D01*
X170802380Y-48459523D01*
X170754761Y-48554761D01*
X170707142Y-48602380D01*
X157752380Y-73211904D02*
X158561904Y-73211904D01*
X158657142Y-73164285D01*
X158704761Y-73116666D01*
X158752380Y-73021428D01*
X158752380Y-72830952D01*
X158704761Y-72735714D01*
X158657142Y-72688095D01*
X158561904Y-72640476D01*
X157752380Y-72640476D01*
X157752380Y-72259523D02*
X157752380Y-71592857D01*
X158752380Y-72021428D01*
X157752380Y-95761904D02*
X158561904Y-95761904D01*
X158657142Y-95714285D01*
X158704761Y-95666666D01*
X158752380Y-95571428D01*
X158752380Y-95380952D01*
X158704761Y-95285714D01*
X158657142Y-95238095D01*
X158561904Y-95190476D01*
X157752380Y-95190476D01*
X157752380Y-94285714D02*
X157752380Y-94476190D01*
X157800000Y-94571428D01*
X157847619Y-94619047D01*
X157990476Y-94714285D01*
X158180952Y-94761904D01*
X158561904Y-94761904D01*
X158657142Y-94714285D01*
X158704761Y-94666666D01*
X158752380Y-94571428D01*
X158752380Y-94380952D01*
X158704761Y-94285714D01*
X158657142Y-94238095D01*
X158561904Y-94190476D01*
X158323809Y-94190476D01*
X158228571Y-94238095D01*
X158180952Y-94285714D01*
X158133333Y-94380952D01*
X158133333Y-94571428D01*
X158180952Y-94666666D01*
X158228571Y-94714285D01*
X158323809Y-94761904D01*
X171438095Y-128652380D02*
X171438095Y-129461904D01*
X171485714Y-129557142D01*
X171533333Y-129604761D01*
X171628571Y-129652380D01*
X171819047Y-129652380D01*
X171914285Y-129604761D01*
X171961904Y-129557142D01*
X172009523Y-129461904D01*
X172009523Y-128652380D01*
X172961904Y-128652380D02*
X172485714Y-128652380D01*
X172438095Y-129128571D01*
X172485714Y-129080952D01*
X172580952Y-129033333D01*
X172819047Y-129033333D01*
X172914285Y-129080952D01*
X172961904Y-129128571D01*
X173009523Y-129223809D01*
X173009523Y-129461904D01*
X172961904Y-129557142D01*
X172914285Y-129604761D01*
X172819047Y-129652380D01*
X172580952Y-129652380D01*
X172485714Y-129604761D01*
X172438095Y-129557142D01*
X162252380Y-138642857D02*
X161776190Y-138976190D01*
X162252380Y-139214285D02*
X161252380Y-139214285D01*
X161252380Y-138833333D01*
X161300000Y-138738095D01*
X161347619Y-138690476D01*
X161442857Y-138642857D01*
X161585714Y-138642857D01*
X161680952Y-138690476D01*
X161728571Y-138738095D01*
X161776190Y-138833333D01*
X161776190Y-139214285D01*
X162252380Y-137690476D02*
X162252380Y-138261904D01*
X162252380Y-137976190D02*
X161252380Y-137976190D01*
X161395238Y-138071428D01*
X161490476Y-138166666D01*
X161538095Y-138261904D01*
X161347619Y-137309523D02*
X161300000Y-137261904D01*
X161252380Y-137166666D01*
X161252380Y-136928571D01*
X161300000Y-136833333D01*
X161347619Y-136785714D01*
X161442857Y-136738095D01*
X161538095Y-136738095D01*
X161680952Y-136785714D01*
X162252380Y-137357142D01*
X162252380Y-136738095D01*
X166352380Y-141842857D02*
X165876190Y-142176190D01*
X166352380Y-142414285D02*
X165352380Y-142414285D01*
X165352380Y-142033333D01*
X165400000Y-141938095D01*
X165447619Y-141890476D01*
X165542857Y-141842857D01*
X165685714Y-141842857D01*
X165780952Y-141890476D01*
X165828571Y-141938095D01*
X165876190Y-142033333D01*
X165876190Y-142414285D01*
X166352380Y-140890476D02*
X166352380Y-141461904D01*
X166352380Y-141176190D02*
X165352380Y-141176190D01*
X165495238Y-141271428D01*
X165590476Y-141366666D01*
X165638095Y-141461904D01*
X166352380Y-139938095D02*
X166352380Y-140509523D01*
X166352380Y-140223809D02*
X165352380Y-140223809D01*
X165495238Y-140319047D01*
X165590476Y-140414285D01*
X165638095Y-140509523D01*
X178652380Y-128342857D02*
X178176190Y-128676190D01*
X178652380Y-128914285D02*
X177652380Y-128914285D01*
X177652380Y-128533333D01*
X177700000Y-128438095D01*
X177747619Y-128390476D01*
X177842857Y-128342857D01*
X177985714Y-128342857D01*
X178080952Y-128390476D01*
X178128571Y-128438095D01*
X178176190Y-128533333D01*
X178176190Y-128914285D01*
X178652380Y-127390476D02*
X178652380Y-127961904D01*
X178652380Y-127676190D02*
X177652380Y-127676190D01*
X177795238Y-127771428D01*
X177890476Y-127866666D01*
X177938095Y-127961904D01*
X177652380Y-126771428D02*
X177652380Y-126676190D01*
X177700000Y-126580952D01*
X177747619Y-126533333D01*
X177842857Y-126485714D01*
X178033333Y-126438095D01*
X178271428Y-126438095D01*
X178461904Y-126485714D01*
X178557142Y-126533333D01*
X178604761Y-126580952D01*
X178652380Y-126676190D01*
X178652380Y-126771428D01*
X178604761Y-126866666D01*
X178557142Y-126914285D01*
X178461904Y-126961904D01*
X178271428Y-127009523D01*
X178033333Y-127009523D01*
X177842857Y-126961904D01*
X177747619Y-126914285D01*
X177700000Y-126866666D01*
X177652380Y-126771428D01*
X177652380Y-142866666D02*
X177176190Y-143200000D01*
X177652380Y-143438095D02*
X176652380Y-143438095D01*
X176652380Y-143057142D01*
X176700000Y-142961904D01*
X176747619Y-142914285D01*
X176842857Y-142866666D01*
X176985714Y-142866666D01*
X177080952Y-142914285D01*
X177128571Y-142961904D01*
X177176190Y-143057142D01*
X177176190Y-143438095D01*
X177080952Y-142295238D02*
X177033333Y-142390476D01*
X176985714Y-142438095D01*
X176890476Y-142485714D01*
X176842857Y-142485714D01*
X176747619Y-142438095D01*
X176700000Y-142390476D01*
X176652380Y-142295238D01*
X176652380Y-142104761D01*
X176700000Y-142009523D01*
X176747619Y-141961904D01*
X176842857Y-141914285D01*
X176890476Y-141914285D01*
X176985714Y-141961904D01*
X177033333Y-142009523D01*
X177080952Y-142104761D01*
X177080952Y-142295238D01*
X177128571Y-142390476D01*
X177176190Y-142438095D01*
X177271428Y-142485714D01*
X177461904Y-142485714D01*
X177557142Y-142438095D01*
X177604761Y-142390476D01*
X177652380Y-142295238D01*
X177652380Y-142104761D01*
X177604761Y-142009523D01*
X177557142Y-141961904D01*
X177461904Y-141914285D01*
X177271428Y-141914285D01*
X177176190Y-141961904D01*
X177128571Y-142009523D01*
X177080952Y-142104761D01*
X163533333Y-134052380D02*
X163200000Y-133576190D01*
X162961904Y-134052380D02*
X162961904Y-133052380D01*
X163342857Y-133052380D01*
X163438095Y-133100000D01*
X163485714Y-133147619D01*
X163533333Y-133242857D01*
X163533333Y-133385714D01*
X163485714Y-133480952D01*
X163438095Y-133528571D01*
X163342857Y-133576190D01*
X162961904Y-133576190D01*
X163866666Y-133052380D02*
X164533333Y-133052380D01*
X164104761Y-134052380D01*
X162052380Y-142438095D02*
X161052380Y-142438095D01*
X161052380Y-142200000D01*
X161100000Y-142057142D01*
X161195238Y-141961904D01*
X161290476Y-141914285D01*
X161480952Y-141866666D01*
X161623809Y-141866666D01*
X161814285Y-141914285D01*
X161909523Y-141961904D01*
X162004761Y-142057142D01*
X162052380Y-142200000D01*
X162052380Y-142438095D01*
X161052380Y-141533333D02*
X161052380Y-140914285D01*
X161433333Y-141247619D01*
X161433333Y-141104761D01*
X161480952Y-141009523D01*
X161528571Y-140961904D01*
X161623809Y-140914285D01*
X161861904Y-140914285D01*
X161957142Y-140961904D01*
X162004761Y-141009523D01*
X162052380Y-141104761D01*
X162052380Y-141390476D01*
X162004761Y-141485714D01*
X161957142Y-141533333D01*
X169902380Y-143038095D02*
X168902380Y-143038095D01*
X168902380Y-142800000D01*
X168950000Y-142657142D01*
X169045238Y-142561904D01*
X169140476Y-142514285D01*
X169330952Y-142466666D01*
X169473809Y-142466666D01*
X169664285Y-142514285D01*
X169759523Y-142561904D01*
X169854761Y-142657142D01*
X169902380Y-142800000D01*
X169902380Y-143038095D01*
X168997619Y-142085714D02*
X168950000Y-142038095D01*
X168902380Y-141942857D01*
X168902380Y-141704761D01*
X168950000Y-141609523D01*
X168997619Y-141561904D01*
X169092857Y-141514285D01*
X169188095Y-141514285D01*
X169330952Y-141561904D01*
X169902380Y-142133333D01*
X169902380Y-141514285D01*
X165161904Y-82852380D02*
X165161904Y-81852380D01*
X165400000Y-81852380D01*
X165542857Y-81900000D01*
X165638095Y-81995238D01*
X165685714Y-82090476D01*
X165733333Y-82280952D01*
X165733333Y-82423809D01*
X165685714Y-82614285D01*
X165638095Y-82709523D01*
X165542857Y-82804761D01*
X165400000Y-82852380D01*
X165161904Y-82852380D01*
X166685714Y-82852380D02*
X166114285Y-82852380D01*
X166400000Y-82852380D02*
X166400000Y-81852380D01*
X166304761Y-81995238D01*
X166209523Y-82090476D01*
X166114285Y-82138095D01*
X163257142Y-65407142D02*
X163209523Y-65454761D01*
X163066666Y-65502380D01*
X162971428Y-65502380D01*
X162828571Y-65454761D01*
X162733333Y-65359523D01*
X162685714Y-65264285D01*
X162638095Y-65073809D01*
X162638095Y-64930952D01*
X162685714Y-64740476D01*
X162733333Y-64645238D01*
X162828571Y-64550000D01*
X162971428Y-64502380D01*
X163066666Y-64502380D01*
X163209523Y-64550000D01*
X163257142Y-64597619D01*
X164209523Y-65502380D02*
X163638095Y-65502380D01*
X163923809Y-65502380D02*
X163923809Y-64502380D01*
X163828571Y-64645238D01*
X163733333Y-64740476D01*
X163638095Y-64788095D01*
X165066666Y-64835714D02*
X165066666Y-65502380D01*
X164828571Y-64454761D02*
X164590476Y-65169047D01*
X165209523Y-65169047D01*
X163257142Y-87707142D02*
X163209523Y-87754761D01*
X163066666Y-87802380D01*
X162971428Y-87802380D01*
X162828571Y-87754761D01*
X162733333Y-87659523D01*
X162685714Y-87564285D01*
X162638095Y-87373809D01*
X162638095Y-87230952D01*
X162685714Y-87040476D01*
X162733333Y-86945238D01*
X162828571Y-86850000D01*
X162971428Y-86802380D01*
X163066666Y-86802380D01*
X163209523Y-86850000D01*
X163257142Y-86897619D01*
X164209523Y-87802380D02*
X163638095Y-87802380D01*
X163923809Y-87802380D02*
X163923809Y-86802380D01*
X163828571Y-86945238D01*
X163733333Y-87040476D01*
X163638095Y-87088095D01*
X164542857Y-86802380D02*
X165161904Y-86802380D01*
X164828571Y-87183333D01*
X164971428Y-87183333D01*
X165066666Y-87230952D01*
X165114285Y-87278571D01*
X165161904Y-87373809D01*
X165161904Y-87611904D01*
X165114285Y-87707142D01*
X165066666Y-87754761D01*
X164971428Y-87802380D01*
X164685714Y-87802380D01*
X164590476Y-87754761D01*
X164542857Y-87707142D01*
X166957142Y-78557142D02*
X166909523Y-78604761D01*
X166766666Y-78652380D01*
X166671428Y-78652380D01*
X166528571Y-78604761D01*
X166433333Y-78509523D01*
X166385714Y-78414285D01*
X166338095Y-78223809D01*
X166338095Y-78080952D01*
X166385714Y-77890476D01*
X166433333Y-77795238D01*
X166528571Y-77700000D01*
X166671428Y-77652380D01*
X166766666Y-77652380D01*
X166909523Y-77700000D01*
X166957142Y-77747619D01*
X167909523Y-78652380D02*
X167338095Y-78652380D01*
X167623809Y-78652380D02*
X167623809Y-77652380D01*
X167528571Y-77795238D01*
X167433333Y-77890476D01*
X167338095Y-77938095D01*
X168290476Y-77747619D02*
X168338095Y-77700000D01*
X168433333Y-77652380D01*
X168671428Y-77652380D01*
X168766666Y-77700000D01*
X168814285Y-77747619D01*
X168861904Y-77842857D01*
X168861904Y-77938095D01*
X168814285Y-78080952D01*
X168242857Y-78652380D01*
X168861904Y-78652380D01*
X163057142Y-103107142D02*
X163009523Y-103154761D01*
X162866666Y-103202380D01*
X162771428Y-103202380D01*
X162628571Y-103154761D01*
X162533333Y-103059523D01*
X162485714Y-102964285D01*
X162438095Y-102773809D01*
X162438095Y-102630952D01*
X162485714Y-102440476D01*
X162533333Y-102345238D01*
X162628571Y-102250000D01*
X162771428Y-102202380D01*
X162866666Y-102202380D01*
X163009523Y-102250000D01*
X163057142Y-102297619D01*
X164009523Y-103202380D02*
X163438095Y-103202380D01*
X163723809Y-103202380D02*
X163723809Y-102202380D01*
X163628571Y-102345238D01*
X163533333Y-102440476D01*
X163438095Y-102488095D01*
X164961904Y-103202380D02*
X164390476Y-103202380D01*
X164676190Y-103202380D02*
X164676190Y-102202380D01*
X164580952Y-102345238D01*
X164485714Y-102440476D01*
X164390476Y-102488095D01*
X162757142Y-131357142D02*
X162709523Y-131404761D01*
X162566666Y-131452380D01*
X162471428Y-131452380D01*
X162328571Y-131404761D01*
X162233333Y-131309523D01*
X162185714Y-131214285D01*
X162138095Y-131023809D01*
X162138095Y-130880952D01*
X162185714Y-130690476D01*
X162233333Y-130595238D01*
X162328571Y-130500000D01*
X162471428Y-130452380D01*
X162566666Y-130452380D01*
X162709523Y-130500000D01*
X162757142Y-130547619D01*
X163709523Y-131452380D02*
X163138095Y-131452380D01*
X163423809Y-131452380D02*
X163423809Y-130452380D01*
X163328571Y-130595238D01*
X163233333Y-130690476D01*
X163138095Y-130738095D01*
X164328571Y-130452380D02*
X164423809Y-130452380D01*
X164519047Y-130500000D01*
X164566666Y-130547619D01*
X164614285Y-130642857D01*
X164661904Y-130833333D01*
X164661904Y-131071428D01*
X164614285Y-131261904D01*
X164566666Y-131357142D01*
X164519047Y-131404761D01*
X164423809Y-131452380D01*
X164328571Y-131452380D01*
X164233333Y-131404761D01*
X164185714Y-131357142D01*
X164138095Y-131261904D01*
X164090476Y-131071428D01*
X164090476Y-130833333D01*
X164138095Y-130642857D01*
X164185714Y-130547619D01*
X164233333Y-130500000D01*
X164328571Y-130452380D01*
X162033333Y-127957142D02*
X161985714Y-128004761D01*
X161842857Y-128052380D01*
X161747619Y-128052380D01*
X161604761Y-128004761D01*
X161509523Y-127909523D01*
X161461904Y-127814285D01*
X161414285Y-127623809D01*
X161414285Y-127480952D01*
X161461904Y-127290476D01*
X161509523Y-127195238D01*
X161604761Y-127100000D01*
X161747619Y-127052380D01*
X161842857Y-127052380D01*
X161985714Y-127100000D01*
X162033333Y-127147619D01*
X162604761Y-127480952D02*
X162509523Y-127433333D01*
X162461904Y-127385714D01*
X162414285Y-127290476D01*
X162414285Y-127242857D01*
X162461904Y-127147619D01*
X162509523Y-127100000D01*
X162604761Y-127052380D01*
X162795238Y-127052380D01*
X162890476Y-127100000D01*
X162938095Y-127147619D01*
X162985714Y-127242857D01*
X162985714Y-127290476D01*
X162938095Y-127385714D01*
X162890476Y-127433333D01*
X162795238Y-127480952D01*
X162604761Y-127480952D01*
X162509523Y-127528571D01*
X162461904Y-127576190D01*
X162414285Y-127671428D01*
X162414285Y-127861904D01*
X162461904Y-127957142D01*
X162509523Y-128004761D01*
X162604761Y-128052380D01*
X162795238Y-128052380D01*
X162890476Y-128004761D01*
X162938095Y-127957142D01*
X162985714Y-127861904D01*
X162985714Y-127671428D01*
X162938095Y-127576190D01*
X162890476Y-127528571D01*
X162795238Y-127480952D01*
X179457142Y-139466666D02*
X179504761Y-139514285D01*
X179552380Y-139657142D01*
X179552380Y-139752380D01*
X179504761Y-139895238D01*
X179409523Y-139990476D01*
X179314285Y-140038095D01*
X179123809Y-140085714D01*
X178980952Y-140085714D01*
X178790476Y-140038095D01*
X178695238Y-139990476D01*
X178600000Y-139895238D01*
X178552380Y-139752380D01*
X178552380Y-139657142D01*
X178600000Y-139514285D01*
X178647619Y-139466666D01*
X178552380Y-139133333D02*
X178552380Y-138466666D01*
X179552380Y-138895238D01*
X175933333Y-136857142D02*
X175885714Y-136904761D01*
X175742857Y-136952380D01*
X175647619Y-136952380D01*
X175504761Y-136904761D01*
X175409523Y-136809523D01*
X175361904Y-136714285D01*
X175314285Y-136523809D01*
X175314285Y-136380952D01*
X175361904Y-136190476D01*
X175409523Y-136095238D01*
X175504761Y-136000000D01*
X175647619Y-135952380D01*
X175742857Y-135952380D01*
X175885714Y-136000000D01*
X175933333Y-136047619D01*
X176838095Y-135952380D02*
X176361904Y-135952380D01*
X176314285Y-136428571D01*
X176361904Y-136380952D01*
X176457142Y-136333333D01*
X176695238Y-136333333D01*
X176790476Y-136380952D01*
X176838095Y-136428571D01*
X176885714Y-136523809D01*
X176885714Y-136761904D01*
X176838095Y-136857142D01*
X176790476Y-136904761D01*
X176695238Y-136952380D01*
X176457142Y-136952380D01*
X176361904Y-136904761D01*
X176314285Y-136857142D01*
X183028571Y-100885714D02*
X183076190Y-100742857D01*
X183123809Y-100695238D01*
X183219047Y-100647619D01*
X183361904Y-100647619D01*
X183457142Y-100695238D01*
X183504761Y-100742857D01*
X183552380Y-100838095D01*
X183552380Y-101219047D01*
X182552380Y-101219047D01*
X182552380Y-100885714D01*
X182600000Y-100790476D01*
X182647619Y-100742857D01*
X182742857Y-100695238D01*
X182838095Y-100695238D01*
X182933333Y-100742857D01*
X182980952Y-100790476D01*
X183028571Y-100885714D01*
X183028571Y-101219047D01*
X182552380Y-100361904D02*
X182552380Y-99790476D01*
X183552380Y-100076190D02*
X182552380Y-100076190D01*
X183552380Y-98933333D02*
X183552380Y-99504761D01*
X183552380Y-99219047D02*
X182552380Y-99219047D01*
X182695238Y-99314285D01*
X182790476Y-99409523D01*
X182838095Y-99504761D01*
X119038095Y-53952380D02*
X119609523Y-53952380D01*
X119323809Y-54952380D02*
X119323809Y-53952380D01*
X120514285Y-54952380D02*
X120180952Y-54476190D01*
X119942857Y-54952380D02*
X119942857Y-53952380D01*
X120323809Y-53952380D01*
X120419047Y-54000000D01*
X120466666Y-54047619D01*
X120514285Y-54142857D01*
X120514285Y-54285714D01*
X120466666Y-54380952D01*
X120419047Y-54428571D01*
X120323809Y-54476190D01*
X119942857Y-54476190D01*
X121466666Y-54952380D02*
X120895238Y-54952380D01*
X121180952Y-54952380D02*
X121180952Y-53952380D01*
X121085714Y-54095238D01*
X120990476Y-54190476D01*
X120895238Y-54238095D01*
X119290476Y-60552380D02*
X119290476Y-59552380D01*
X119623809Y-60266666D01*
X119957142Y-59552380D01*
X119957142Y-60552380D01*
X120957142Y-60552380D02*
X120385714Y-60552380D01*
X120671428Y-60552380D02*
X120671428Y-59552380D01*
X120576190Y-59695238D01*
X120480952Y-59790476D01*
X120385714Y-59838095D01*
X76011666Y-107102380D02*
X76011666Y-107816666D01*
X75964047Y-107959523D01*
X75868809Y-108054761D01*
X75725952Y-108102380D01*
X75630714Y-108102380D01*
X77011666Y-108102380D02*
X76440238Y-108102380D01*
X76725952Y-108102380D02*
X76725952Y-107102380D01*
X76630714Y-107245238D01*
X76535476Y-107340476D01*
X76440238Y-107388095D01*
X133342380Y-70891904D02*
X134151904Y-70891904D01*
X134247142Y-70844285D01*
X134294761Y-70796666D01*
X134342380Y-70701428D01*
X134342380Y-70510952D01*
X134294761Y-70415714D01*
X134247142Y-70368095D01*
X134151904Y-70320476D01*
X133342380Y-70320476D01*
X133675714Y-69415714D02*
X134342380Y-69415714D01*
X133294761Y-69653809D02*
X134009047Y-69891904D01*
X134009047Y-69272857D01*
X143238095Y-102152380D02*
X143238095Y-102961904D01*
X143285714Y-103057142D01*
X143333333Y-103104761D01*
X143428571Y-103152380D01*
X143619047Y-103152380D01*
X143714285Y-103104761D01*
X143761904Y-103057142D01*
X143809523Y-102961904D01*
X143809523Y-102152380D01*
X144190476Y-102152380D02*
X144809523Y-102152380D01*
X144476190Y-102533333D01*
X144619047Y-102533333D01*
X144714285Y-102580952D01*
X144761904Y-102628571D01*
X144809523Y-102723809D01*
X144809523Y-102961904D01*
X144761904Y-103057142D01*
X144714285Y-103104761D01*
X144619047Y-103152380D01*
X144333333Y-103152380D01*
X144238095Y-103104761D01*
X144190476Y-103057142D01*
X147904761Y-129223809D02*
X148019047Y-129261904D01*
X148209523Y-129261904D01*
X148285714Y-129223809D01*
X148323809Y-129185714D01*
X148361904Y-129109523D01*
X148361904Y-129033333D01*
X148323809Y-128957142D01*
X148285714Y-128919047D01*
X148209523Y-128880952D01*
X148057142Y-128842857D01*
X147980952Y-128804761D01*
X147942857Y-128766666D01*
X147904761Y-128690476D01*
X147904761Y-128614285D01*
X147942857Y-128538095D01*
X147980952Y-128500000D01*
X148057142Y-128461904D01*
X148247619Y-128461904D01*
X148361904Y-128500000D01*
X148628571Y-128461904D02*
X148819047Y-129261904D01*
X148971428Y-128690476D01*
X149123809Y-129261904D01*
X149314285Y-128461904D01*
X149619047Y-129261904D02*
X149619047Y-128461904D01*
X149809523Y-128461904D01*
X149923809Y-128500000D01*
X150000000Y-128576190D01*
X150038095Y-128652380D01*
X150076190Y-128804761D01*
X150076190Y-128919047D01*
X150038095Y-129071428D01*
X150000000Y-129147619D01*
X149923809Y-129223809D01*
X149809523Y-129261904D01*
X149619047Y-129261904D01*
X150419047Y-129261904D02*
X150419047Y-128461904D01*
X150952380Y-128461904D02*
X151104761Y-128461904D01*
X151180952Y-128500000D01*
X151257142Y-128576190D01*
X151295238Y-128728571D01*
X151295238Y-128995238D01*
X151257142Y-129147619D01*
X151180952Y-129223809D01*
X151104761Y-129261904D01*
X150952380Y-129261904D01*
X150876190Y-129223809D01*
X150800000Y-129147619D01*
X150761904Y-128995238D01*
X150761904Y-128728571D01*
X150800000Y-128576190D01*
X150876190Y-128500000D01*
X150952380Y-128461904D01*
X136490476Y-129223809D02*
X136604761Y-129261904D01*
X136795238Y-129261904D01*
X136871428Y-129223809D01*
X136909523Y-129185714D01*
X136947619Y-129109523D01*
X136947619Y-129033333D01*
X136909523Y-128957142D01*
X136871428Y-128919047D01*
X136795238Y-128880952D01*
X136642857Y-128842857D01*
X136566666Y-128804761D01*
X136528571Y-128766666D01*
X136490476Y-128690476D01*
X136490476Y-128614285D01*
X136528571Y-128538095D01*
X136566666Y-128500000D01*
X136642857Y-128461904D01*
X136833333Y-128461904D01*
X136947619Y-128500000D01*
X137214285Y-128461904D02*
X137404761Y-129261904D01*
X137557142Y-128690476D01*
X137709523Y-129261904D01*
X137900000Y-128461904D01*
X138661904Y-129185714D02*
X138623809Y-129223809D01*
X138509523Y-129261904D01*
X138433333Y-129261904D01*
X138319047Y-129223809D01*
X138242857Y-129147619D01*
X138204761Y-129071428D01*
X138166666Y-128919047D01*
X138166666Y-128804761D01*
X138204761Y-128652380D01*
X138242857Y-128576190D01*
X138319047Y-128500000D01*
X138433333Y-128461904D01*
X138509523Y-128461904D01*
X138623809Y-128500000D01*
X138661904Y-128538095D01*
X139385714Y-129261904D02*
X139004761Y-129261904D01*
X139004761Y-128461904D01*
X139652380Y-129261904D02*
X139652380Y-128461904D01*
X140109523Y-129261904D02*
X139766666Y-128804761D01*
X140109523Y-128461904D02*
X139652380Y-128919047D01*
X156151597Y-97440964D02*
X156420971Y-97171590D01*
X156259346Y-97656463D02*
X155882223Y-96902216D01*
X156636470Y-97279340D01*
X156582595Y-96255719D02*
X156501783Y-96282656D01*
X156420971Y-96363468D01*
X156367096Y-96471218D01*
X156367096Y-96578967D01*
X156394033Y-96659780D01*
X156474845Y-96794467D01*
X156555658Y-96875279D01*
X156690345Y-96956091D01*
X156771157Y-96983028D01*
X156878906Y-96983028D01*
X156986656Y-96929154D01*
X157040531Y-96875279D01*
X157094406Y-96767529D01*
X157094406Y-96713654D01*
X156905844Y-96525093D01*
X156798094Y-96632842D01*
X157390717Y-96525093D02*
X156825032Y-95959407D01*
X157713966Y-96201844D01*
X157148280Y-95636158D01*
X157983340Y-95932470D02*
X157417654Y-95366784D01*
X157552341Y-95232097D01*
X157660091Y-95178223D01*
X157767841Y-95178223D01*
X157848653Y-95205160D01*
X157983340Y-95285972D01*
X158064152Y-95366784D01*
X158144964Y-95501471D01*
X158171902Y-95582284D01*
X158171902Y-95690033D01*
X158118027Y-95797783D01*
X157983340Y-95932470D01*
X156086158Y-83798155D02*
X156005346Y-83825093D01*
X155924534Y-83905905D01*
X155870659Y-84013654D01*
X155870659Y-84121404D01*
X155897597Y-84202216D01*
X155978409Y-84336903D01*
X156059221Y-84417715D01*
X156193908Y-84498528D01*
X156274720Y-84525465D01*
X156382470Y-84525465D01*
X156490219Y-84471590D01*
X156544094Y-84417715D01*
X156597969Y-84309966D01*
X156597969Y-84256091D01*
X156409407Y-84067529D01*
X156301658Y-84175279D01*
X156894280Y-84067529D02*
X156328595Y-83501844D01*
X157217529Y-83744280D01*
X156651844Y-83178595D01*
X157486903Y-83474906D02*
X156921218Y-82909221D01*
X157055905Y-82774534D01*
X157163654Y-82720659D01*
X157271404Y-82720659D01*
X157352216Y-82747597D01*
X157486903Y-82828409D01*
X157567715Y-82909221D01*
X157648528Y-83043908D01*
X157675465Y-83124720D01*
X157675465Y-83232470D01*
X157621590Y-83340219D01*
X157486903Y-83474906D01*
X156086158Y-109198155D02*
X156005346Y-109225093D01*
X155924534Y-109305905D01*
X155870659Y-109413654D01*
X155870659Y-109521404D01*
X155897597Y-109602216D01*
X155978409Y-109736903D01*
X156059221Y-109817715D01*
X156193908Y-109898528D01*
X156274720Y-109925465D01*
X156382470Y-109925465D01*
X156490219Y-109871590D01*
X156544094Y-109817715D01*
X156597969Y-109709966D01*
X156597969Y-109656091D01*
X156409407Y-109467529D01*
X156301658Y-109575279D01*
X156894280Y-109467529D02*
X156328595Y-108901844D01*
X157217529Y-109144280D01*
X156651844Y-108578595D01*
X157486903Y-108874906D02*
X156921218Y-108309221D01*
X157055905Y-108174534D01*
X157163654Y-108120659D01*
X157271404Y-108120659D01*
X157352216Y-108147597D01*
X157486903Y-108228409D01*
X157567715Y-108309221D01*
X157648528Y-108443908D01*
X157675465Y-108524720D01*
X157675465Y-108632470D01*
X157621590Y-108740219D01*
X157486903Y-108874906D01*
X156086158Y-121898155D02*
X156005346Y-121925093D01*
X155924534Y-122005905D01*
X155870659Y-122113654D01*
X155870659Y-122221404D01*
X155897597Y-122302216D01*
X155978409Y-122436903D01*
X156059221Y-122517715D01*
X156193908Y-122598528D01*
X156274720Y-122625465D01*
X156382470Y-122625465D01*
X156490219Y-122571590D01*
X156544094Y-122517715D01*
X156597969Y-122409966D01*
X156597969Y-122356091D01*
X156409407Y-122167529D01*
X156301658Y-122275279D01*
X156894280Y-122167529D02*
X156328595Y-121601844D01*
X157217529Y-121844280D01*
X156651844Y-121278595D01*
X157486903Y-121574906D02*
X156921218Y-121009221D01*
X157055905Y-120874534D01*
X157163654Y-120820659D01*
X157271404Y-120820659D01*
X157352216Y-120847597D01*
X157486903Y-120928409D01*
X157567715Y-121009221D01*
X157648528Y-121143908D01*
X157675465Y-121224720D01*
X157675465Y-121332470D01*
X157621590Y-121440219D01*
X157486903Y-121574906D01*
X130486158Y-121898155D02*
X130405346Y-121925093D01*
X130324534Y-122005905D01*
X130270659Y-122113654D01*
X130270659Y-122221404D01*
X130297597Y-122302216D01*
X130378409Y-122436903D01*
X130459221Y-122517715D01*
X130593908Y-122598528D01*
X130674720Y-122625465D01*
X130782470Y-122625465D01*
X130890219Y-122571590D01*
X130944094Y-122517715D01*
X130997969Y-122409966D01*
X130997969Y-122356091D01*
X130809407Y-122167529D01*
X130701658Y-122275279D01*
X131294280Y-122167529D02*
X130728595Y-121601844D01*
X131617529Y-121844280D01*
X131051844Y-121278595D01*
X131886903Y-121574906D02*
X131321218Y-121009221D01*
X131455905Y-120874534D01*
X131563654Y-120820659D01*
X131671404Y-120820659D01*
X131752216Y-120847597D01*
X131886903Y-120928409D01*
X131967715Y-121009221D01*
X132048528Y-121143908D01*
X132075465Y-121224720D01*
X132075465Y-121332470D01*
X132021590Y-121440219D01*
X131886903Y-121574906D01*
X130486158Y-109198155D02*
X130405346Y-109225093D01*
X130324534Y-109305905D01*
X130270659Y-109413654D01*
X130270659Y-109521404D01*
X130297597Y-109602216D01*
X130378409Y-109736903D01*
X130459221Y-109817715D01*
X130593908Y-109898528D01*
X130674720Y-109925465D01*
X130782470Y-109925465D01*
X130890219Y-109871590D01*
X130944094Y-109817715D01*
X130997969Y-109709966D01*
X130997969Y-109656091D01*
X130809407Y-109467529D01*
X130701658Y-109575279D01*
X131294280Y-109467529D02*
X130728595Y-108901844D01*
X131617529Y-109144280D01*
X131051844Y-108578595D01*
X131886903Y-108874906D02*
X131321218Y-108309221D01*
X131455905Y-108174534D01*
X131563654Y-108120659D01*
X131671404Y-108120659D01*
X131752216Y-108147597D01*
X131886903Y-108228409D01*
X131967715Y-108309221D01*
X132048528Y-108443908D01*
X132075465Y-108524720D01*
X132075465Y-108632470D01*
X132021590Y-108740219D01*
X131886903Y-108874906D01*
X130486158Y-96498155D02*
X130405346Y-96525093D01*
X130324534Y-96605905D01*
X130270659Y-96713654D01*
X130270659Y-96821404D01*
X130297597Y-96902216D01*
X130378409Y-97036903D01*
X130459221Y-97117715D01*
X130593908Y-97198528D01*
X130674720Y-97225465D01*
X130782470Y-97225465D01*
X130890219Y-97171590D01*
X130944094Y-97117715D01*
X130997969Y-97009966D01*
X130997969Y-96956091D01*
X130809407Y-96767529D01*
X130701658Y-96875279D01*
X131294280Y-96767529D02*
X130728595Y-96201844D01*
X131617529Y-96444280D01*
X131051844Y-95878595D01*
X131886903Y-96174906D02*
X131321218Y-95609221D01*
X131455905Y-95474534D01*
X131563654Y-95420659D01*
X131671404Y-95420659D01*
X131752216Y-95447597D01*
X131886903Y-95528409D01*
X131967715Y-95609221D01*
X132048528Y-95743908D01*
X132075465Y-95824720D01*
X132075465Y-95932470D01*
X132021590Y-96040219D01*
X131886903Y-96174906D01*
X130486158Y-83798155D02*
X130405346Y-83825093D01*
X130324534Y-83905905D01*
X130270659Y-84013654D01*
X130270659Y-84121404D01*
X130297597Y-84202216D01*
X130378409Y-84336903D01*
X130459221Y-84417715D01*
X130593908Y-84498528D01*
X130674720Y-84525465D01*
X130782470Y-84525465D01*
X130890219Y-84471590D01*
X130944094Y-84417715D01*
X130997969Y-84309966D01*
X130997969Y-84256091D01*
X130809407Y-84067529D01*
X130701658Y-84175279D01*
X131294280Y-84067529D02*
X130728595Y-83501844D01*
X131617529Y-83744280D01*
X131051844Y-83178595D01*
X131886903Y-83474906D02*
X131321218Y-82909221D01*
X131455905Y-82774534D01*
X131563654Y-82720659D01*
X131671404Y-82720659D01*
X131752216Y-82747597D01*
X131886903Y-82828409D01*
X131967715Y-82909221D01*
X132048528Y-83043908D01*
X132075465Y-83124720D01*
X132075465Y-83232470D01*
X132021590Y-83340219D01*
X131886903Y-83474906D01*
X155953129Y-79227309D02*
X156707377Y-79604433D01*
X156330253Y-78850186D01*
X156976751Y-78742436D02*
X157084500Y-78688561D01*
X157138375Y-78688561D01*
X157219187Y-78715499D01*
X157300000Y-78796311D01*
X157326937Y-78877123D01*
X157326937Y-78930998D01*
X157300000Y-79011810D01*
X157084500Y-79227309D01*
X156518815Y-78661624D01*
X156707377Y-78473062D01*
X156788189Y-78446125D01*
X156842064Y-78446125D01*
X156922876Y-78473062D01*
X156976751Y-78526937D01*
X157003688Y-78607749D01*
X157003688Y-78661624D01*
X156976751Y-78742436D01*
X156788189Y-78930998D01*
X157084500Y-78095938D02*
X157542436Y-78553874D01*
X157623248Y-78580812D01*
X157677123Y-78580812D01*
X157757935Y-78553874D01*
X157865685Y-78446125D01*
X157892622Y-78365312D01*
X157892622Y-78311438D01*
X157865685Y-78230625D01*
X157407749Y-77772690D01*
X158188934Y-78069001D02*
X158296683Y-78015126D01*
X158431370Y-77880439D01*
X158458308Y-77799627D01*
X158458308Y-77745752D01*
X158431370Y-77664940D01*
X158377496Y-77611065D01*
X158296683Y-77584128D01*
X158242809Y-77584128D01*
X158161996Y-77611065D01*
X158027309Y-77691877D01*
X157946497Y-77718815D01*
X157892622Y-77718815D01*
X157811810Y-77691877D01*
X157757935Y-77638003D01*
X157730998Y-77557190D01*
X157730998Y-77503316D01*
X157757935Y-77422503D01*
X157892622Y-77287816D01*
X158000372Y-77233942D01*
X155920473Y-81769966D02*
X156674720Y-82147089D01*
X156297597Y-81392842D01*
X156997969Y-81769966D02*
X157105719Y-81716091D01*
X157240406Y-81581404D01*
X157267343Y-81500592D01*
X157267343Y-81446717D01*
X157240406Y-81365905D01*
X157186531Y-81312030D01*
X157105719Y-81285093D01*
X157051844Y-81285093D01*
X156971032Y-81312030D01*
X156836345Y-81392842D01*
X156755532Y-81419780D01*
X156701658Y-81419780D01*
X156620845Y-81392842D01*
X156566971Y-81338967D01*
X156540033Y-81258155D01*
X156540033Y-81204280D01*
X156566971Y-81123468D01*
X156701658Y-80988781D01*
X156809407Y-80934906D01*
X157428967Y-80854094D02*
X157698341Y-81123468D01*
X156944094Y-80746345D02*
X157428967Y-80854094D01*
X157321218Y-80369221D01*
X158021590Y-80746345D02*
X158129340Y-80692470D01*
X158264027Y-80557783D01*
X158290964Y-80476971D01*
X158290964Y-80423096D01*
X158264027Y-80342284D01*
X158210152Y-80288409D01*
X158129340Y-80261471D01*
X158075465Y-80261471D01*
X157994653Y-80288409D01*
X157859966Y-80369221D01*
X157779154Y-80396158D01*
X157725279Y-80396158D01*
X157644467Y-80369221D01*
X157590592Y-80315346D01*
X157563654Y-80234534D01*
X157563654Y-80180659D01*
X157590592Y-80099847D01*
X157725279Y-79965160D01*
X157833028Y-79911285D01*
X155922131Y-86658308D02*
X156272317Y-86308122D01*
X156299255Y-86712183D01*
X156380067Y-86631370D01*
X156460879Y-86604433D01*
X156514754Y-86604433D01*
X156595566Y-86631370D01*
X156730253Y-86766057D01*
X156757190Y-86846870D01*
X156757190Y-86900744D01*
X156730253Y-86981557D01*
X156568629Y-87143181D01*
X156487816Y-87170118D01*
X156433942Y-87170118D01*
X156433942Y-86146497D02*
X157188189Y-86523621D01*
X156811065Y-85769374D01*
X156945752Y-85634687D02*
X157295938Y-85284500D01*
X157322876Y-85688561D01*
X157403688Y-85607749D01*
X157484500Y-85580812D01*
X157538375Y-85580812D01*
X157619187Y-85607749D01*
X157753874Y-85742436D01*
X157780812Y-85823248D01*
X157780812Y-85877123D01*
X157753874Y-85957935D01*
X157592250Y-86119560D01*
X157511438Y-86146497D01*
X157457563Y-86146497D01*
X158023248Y-85796311D02*
X158454247Y-85365312D01*
X158238748Y-84880439D02*
X158427309Y-84691877D01*
X158804433Y-84907377D02*
X158535059Y-85176751D01*
X157969374Y-84611065D01*
X158238748Y-84341691D01*
X159046870Y-84664940D02*
X158481184Y-84099255D01*
X159370118Y-84341691D01*
X158804433Y-83776006D01*
X155889847Y-89190592D02*
X156240033Y-88840406D01*
X156266971Y-89244467D01*
X156347783Y-89163654D01*
X156428595Y-89136717D01*
X156482470Y-89136717D01*
X156563282Y-89163654D01*
X156697969Y-89298341D01*
X156724906Y-89379154D01*
X156724906Y-89433028D01*
X156697969Y-89513841D01*
X156536345Y-89675465D01*
X156455532Y-89702402D01*
X156401658Y-89702402D01*
X156401658Y-88678781D02*
X157155905Y-89055905D01*
X156778781Y-88301658D01*
X156913468Y-88166971D02*
X157263654Y-87816784D01*
X157290592Y-88220845D01*
X157371404Y-88140033D01*
X157452216Y-88113096D01*
X157506091Y-88113096D01*
X157586903Y-88140033D01*
X157721590Y-88274720D01*
X157748528Y-88355532D01*
X157748528Y-88409407D01*
X157721590Y-88490219D01*
X157559966Y-88651844D01*
X157479154Y-88678781D01*
X157425279Y-88678781D01*
X156154788Y-92233773D02*
X156424162Y-91964399D01*
X156262537Y-92449272D02*
X155885414Y-91695025D01*
X156639661Y-92072149D01*
X156828223Y-91883587D02*
X156262537Y-91317902D01*
X156397224Y-91183215D01*
X156504974Y-91129340D01*
X156612723Y-91129340D01*
X156693536Y-91156277D01*
X156828223Y-91237089D01*
X156909035Y-91317902D01*
X156989847Y-91452589D01*
X157016784Y-91533401D01*
X157016784Y-91641150D01*
X156962910Y-91748900D01*
X156828223Y-91883587D01*
X157663282Y-90940778D02*
X157663282Y-90994653D01*
X157609407Y-91102402D01*
X157555532Y-91156277D01*
X157447783Y-91210152D01*
X157340033Y-91210152D01*
X157259221Y-91183215D01*
X157124534Y-91102402D01*
X157043722Y-91021590D01*
X156962910Y-90886903D01*
X156935972Y-90806091D01*
X156935972Y-90698341D01*
X156989847Y-90590592D01*
X157043722Y-90536717D01*
X157151471Y-90482842D01*
X157205346Y-90482842D01*
X157878781Y-90940778D02*
X158309780Y-90509780D01*
X157744094Y-89836345D02*
X158498341Y-90213468D01*
X158121218Y-89459221D01*
X159198714Y-89513096D02*
X158740778Y-89432284D01*
X158875465Y-89836345D02*
X158309780Y-89270659D01*
X158525279Y-89055160D01*
X158606091Y-89028223D01*
X158659966Y-89028223D01*
X158740778Y-89055160D01*
X158821590Y-89135972D01*
X158848528Y-89216784D01*
X158848528Y-89270659D01*
X158821590Y-89351471D01*
X158606091Y-89566971D01*
X159144839Y-88974348D02*
X159333401Y-88785786D01*
X159710524Y-89001285D02*
X159441150Y-89270659D01*
X158875465Y-88704974D01*
X159144839Y-88435600D01*
X159845211Y-88273975D02*
X159656650Y-88462537D01*
X159952961Y-88758849D02*
X159387276Y-88193163D01*
X159656650Y-87923789D01*
X156097722Y-93946592D02*
X156016910Y-93973529D01*
X155936097Y-94054341D01*
X155882223Y-94162091D01*
X155882223Y-94269841D01*
X155909160Y-94350653D01*
X155989972Y-94485340D01*
X156070784Y-94566152D01*
X156205471Y-94646964D01*
X156286284Y-94673902D01*
X156394033Y-94673902D01*
X156501783Y-94620027D01*
X156555658Y-94566152D01*
X156609532Y-94458402D01*
X156609532Y-94404528D01*
X156420971Y-94215966D01*
X156313221Y-94323715D01*
X156905844Y-94215966D02*
X156340158Y-93650280D01*
X156555658Y-93434781D01*
X156636470Y-93407844D01*
X156690345Y-93407844D01*
X156771157Y-93434781D01*
X156851969Y-93515593D01*
X156878906Y-93596406D01*
X156878906Y-93650280D01*
X156851969Y-93731093D01*
X156636470Y-93946592D01*
X156932781Y-93165407D02*
X156932781Y-93111532D01*
X156959719Y-93030720D01*
X157094406Y-92896033D01*
X157175218Y-92869096D01*
X157229093Y-92869096D01*
X157309905Y-92896033D01*
X157363780Y-92949908D01*
X157417654Y-93057658D01*
X157417654Y-93704155D01*
X157767841Y-93353969D01*
X157767841Y-92707471D02*
X157687028Y-92734409D01*
X157633154Y-92734409D01*
X157552341Y-92707471D01*
X157525404Y-92680534D01*
X157498467Y-92599722D01*
X157498467Y-92545847D01*
X157525404Y-92465035D01*
X157633154Y-92357285D01*
X157713966Y-92330348D01*
X157767841Y-92330348D01*
X157848653Y-92357285D01*
X157875590Y-92384223D01*
X157902528Y-92465035D01*
X157902528Y-92518910D01*
X157875590Y-92599722D01*
X157767841Y-92707471D01*
X157740903Y-92788284D01*
X157740903Y-92842158D01*
X157767841Y-92922971D01*
X157875590Y-93030720D01*
X157956402Y-93057658D01*
X158010277Y-93057658D01*
X158091089Y-93030720D01*
X158198839Y-92922971D01*
X158225776Y-92842158D01*
X158225776Y-92788284D01*
X158198839Y-92707471D01*
X158091089Y-92599722D01*
X158010277Y-92572784D01*
X157956402Y-92572784D01*
X157875590Y-92599722D01*
X156097722Y-99290592D02*
X156016910Y-99317529D01*
X155936097Y-99398341D01*
X155882223Y-99506091D01*
X155882223Y-99613841D01*
X155909160Y-99694653D01*
X155989972Y-99829340D01*
X156070784Y-99910152D01*
X156205471Y-99990964D01*
X156286284Y-100017902D01*
X156394033Y-100017902D01*
X156501783Y-99964027D01*
X156555658Y-99910152D01*
X156609532Y-99802402D01*
X156609532Y-99748528D01*
X156420971Y-99559966D01*
X156313221Y-99667715D01*
X156905844Y-99559966D02*
X156340158Y-98994280D01*
X156555658Y-98778781D01*
X156636470Y-98751844D01*
X156690345Y-98751844D01*
X156771157Y-98778781D01*
X156851969Y-98859593D01*
X156878906Y-98940406D01*
X156878906Y-98994280D01*
X156851969Y-99075093D01*
X156636470Y-99290592D01*
X156932781Y-98509407D02*
X156932781Y-98455532D01*
X156959719Y-98374720D01*
X157094406Y-98240033D01*
X157175218Y-98213096D01*
X157229093Y-98213096D01*
X157309905Y-98240033D01*
X157363780Y-98293908D01*
X157417654Y-98401658D01*
X157417654Y-99048155D01*
X157767841Y-98697969D01*
X157390717Y-97943722D02*
X157767841Y-97566598D01*
X158091089Y-98374720D01*
X156097722Y-101820592D02*
X156016910Y-101847529D01*
X155936097Y-101928341D01*
X155882223Y-102036091D01*
X155882223Y-102143841D01*
X155909160Y-102224653D01*
X155989972Y-102359340D01*
X156070784Y-102440152D01*
X156205471Y-102520964D01*
X156286284Y-102547902D01*
X156394033Y-102547902D01*
X156501783Y-102494027D01*
X156555658Y-102440152D01*
X156609532Y-102332402D01*
X156609532Y-102278528D01*
X156420971Y-102089966D01*
X156313221Y-102197715D01*
X156905844Y-102089966D02*
X156340158Y-101524280D01*
X156555658Y-101308781D01*
X156636470Y-101281844D01*
X156690345Y-101281844D01*
X156771157Y-101308781D01*
X156851969Y-101389593D01*
X156878906Y-101470406D01*
X156878906Y-101524280D01*
X156851969Y-101605093D01*
X156636470Y-101820592D01*
X156932781Y-101039407D02*
X156932781Y-100985532D01*
X156959719Y-100904720D01*
X157094406Y-100770033D01*
X157175218Y-100743096D01*
X157229093Y-100743096D01*
X157309905Y-100770033D01*
X157363780Y-100823908D01*
X157417654Y-100931658D01*
X157417654Y-101578155D01*
X157767841Y-101227969D01*
X157687028Y-100177410D02*
X157579279Y-100285160D01*
X157552341Y-100365972D01*
X157552341Y-100419847D01*
X157579279Y-100554534D01*
X157660091Y-100689221D01*
X157875590Y-100904720D01*
X157956402Y-100931658D01*
X158010277Y-100931658D01*
X158091089Y-100904720D01*
X158198839Y-100796971D01*
X158225776Y-100716158D01*
X158225776Y-100662284D01*
X158198839Y-100581471D01*
X158064152Y-100446784D01*
X157983340Y-100419847D01*
X157929465Y-100419847D01*
X157848653Y-100446784D01*
X157740903Y-100554534D01*
X157713966Y-100635346D01*
X157713966Y-100689221D01*
X157740903Y-100770033D01*
X156838375Y-104643435D02*
X156380439Y-104562622D01*
X156515126Y-104966683D02*
X155949441Y-104400998D01*
X156164940Y-104185499D01*
X156245752Y-104158561D01*
X156299627Y-104158561D01*
X156380439Y-104185499D01*
X156461251Y-104266311D01*
X156488189Y-104347123D01*
X156488189Y-104400998D01*
X156461251Y-104481810D01*
X156245752Y-104697309D01*
X156515126Y-103835312D02*
X156973062Y-104293248D01*
X157053874Y-104320186D01*
X157107749Y-104320186D01*
X157188561Y-104293248D01*
X157296311Y-104185499D01*
X157323248Y-104104687D01*
X157323248Y-104050812D01*
X157296311Y-103969999D01*
X156838375Y-103512064D01*
X157673435Y-103808375D02*
X157107749Y-103242690D01*
X157996683Y-103485126D01*
X157430998Y-102919441D01*
X156097722Y-106900592D02*
X156016910Y-106927529D01*
X155936097Y-107008341D01*
X155882223Y-107116091D01*
X155882223Y-107223841D01*
X155909160Y-107304653D01*
X155989972Y-107439340D01*
X156070784Y-107520152D01*
X156205471Y-107600964D01*
X156286284Y-107627902D01*
X156394033Y-107627902D01*
X156501783Y-107574027D01*
X156555658Y-107520152D01*
X156609532Y-107412402D01*
X156609532Y-107358528D01*
X156420971Y-107169966D01*
X156313221Y-107277715D01*
X156905844Y-107169966D02*
X156340158Y-106604280D01*
X156555658Y-106388781D01*
X156636470Y-106361844D01*
X156690345Y-106361844D01*
X156771157Y-106388781D01*
X156851969Y-106469593D01*
X156878906Y-106550406D01*
X156878906Y-106604280D01*
X156851969Y-106685093D01*
X156636470Y-106900592D01*
X156932781Y-106119407D02*
X156932781Y-106065532D01*
X156959719Y-105984720D01*
X157094406Y-105850033D01*
X157175218Y-105823096D01*
X157229093Y-105823096D01*
X157309905Y-105850033D01*
X157363780Y-105903908D01*
X157417654Y-106011658D01*
X157417654Y-106658155D01*
X157767841Y-106307969D01*
X157471529Y-105580659D02*
X157471529Y-105526784D01*
X157498467Y-105445972D01*
X157633154Y-105311285D01*
X157713966Y-105284348D01*
X157767841Y-105284348D01*
X157848653Y-105311285D01*
X157902528Y-105365160D01*
X157956402Y-105472910D01*
X157956402Y-106119407D01*
X158306589Y-105769221D01*
X156097722Y-111990592D02*
X156016910Y-112017529D01*
X155936097Y-112098341D01*
X155882223Y-112206091D01*
X155882223Y-112313841D01*
X155909160Y-112394653D01*
X155989972Y-112529340D01*
X156070784Y-112610152D01*
X156205471Y-112690964D01*
X156286284Y-112717902D01*
X156394033Y-112717902D01*
X156501783Y-112664027D01*
X156555658Y-112610152D01*
X156609532Y-112502402D01*
X156609532Y-112448528D01*
X156420971Y-112259966D01*
X156313221Y-112367715D01*
X156905844Y-112259966D02*
X156340158Y-111694280D01*
X156555658Y-111478781D01*
X156636470Y-111451844D01*
X156690345Y-111451844D01*
X156771157Y-111478781D01*
X156851969Y-111559593D01*
X156878906Y-111640406D01*
X156878906Y-111694280D01*
X156851969Y-111775093D01*
X156636470Y-111990592D01*
X156932781Y-111209407D02*
X156932781Y-111155532D01*
X156959719Y-111074720D01*
X157094406Y-110940033D01*
X157175218Y-110913096D01*
X157229093Y-110913096D01*
X157309905Y-110940033D01*
X157363780Y-110993908D01*
X157417654Y-111101658D01*
X157417654Y-111748155D01*
X157767841Y-111397969D01*
X158306589Y-110859221D02*
X157983340Y-111182470D01*
X158144964Y-111020845D02*
X157579279Y-110455160D01*
X157606216Y-110589847D01*
X157606216Y-110697597D01*
X157579279Y-110778409D01*
X156097722Y-114520592D02*
X156016910Y-114547529D01*
X155936097Y-114628341D01*
X155882223Y-114736091D01*
X155882223Y-114843841D01*
X155909160Y-114924653D01*
X155989972Y-115059340D01*
X156070784Y-115140152D01*
X156205471Y-115220964D01*
X156286284Y-115247902D01*
X156394033Y-115247902D01*
X156501783Y-115194027D01*
X156555658Y-115140152D01*
X156609532Y-115032402D01*
X156609532Y-114978528D01*
X156420971Y-114789966D01*
X156313221Y-114897715D01*
X156905844Y-114789966D02*
X156340158Y-114224280D01*
X156555658Y-114008781D01*
X156636470Y-113981844D01*
X156690345Y-113981844D01*
X156771157Y-114008781D01*
X156851969Y-114089593D01*
X156878906Y-114170406D01*
X156878906Y-114224280D01*
X156851969Y-114305093D01*
X156636470Y-114520592D01*
X156932781Y-113739407D02*
X156932781Y-113685532D01*
X156959719Y-113604720D01*
X157094406Y-113470033D01*
X157175218Y-113443096D01*
X157229093Y-113443096D01*
X157309905Y-113470033D01*
X157363780Y-113523908D01*
X157417654Y-113631658D01*
X157417654Y-114278155D01*
X157767841Y-113927969D01*
X157552341Y-113012097D02*
X157606216Y-112958223D01*
X157687028Y-112931285D01*
X157740903Y-112931285D01*
X157821715Y-112958223D01*
X157956402Y-113039035D01*
X158091089Y-113173722D01*
X158171902Y-113308409D01*
X158198839Y-113389221D01*
X158198839Y-113443096D01*
X158171902Y-113523908D01*
X158118027Y-113577783D01*
X158037215Y-113604720D01*
X157983340Y-113604720D01*
X157902528Y-113577783D01*
X157767841Y-113496971D01*
X157633154Y-113362284D01*
X157552341Y-113227597D01*
X157525404Y-113146784D01*
X157525404Y-113092910D01*
X157552341Y-113012097D01*
X156097722Y-117060592D02*
X156016910Y-117087529D01*
X155936097Y-117168341D01*
X155882223Y-117276091D01*
X155882223Y-117383841D01*
X155909160Y-117464653D01*
X155989972Y-117599340D01*
X156070784Y-117680152D01*
X156205471Y-117760964D01*
X156286284Y-117787902D01*
X156394033Y-117787902D01*
X156501783Y-117734027D01*
X156555658Y-117680152D01*
X156609532Y-117572402D01*
X156609532Y-117518528D01*
X156420971Y-117329966D01*
X156313221Y-117437715D01*
X156905844Y-117329966D02*
X156340158Y-116764280D01*
X156555658Y-116548781D01*
X156636470Y-116521844D01*
X156690345Y-116521844D01*
X156771157Y-116548781D01*
X156851969Y-116629593D01*
X156878906Y-116710406D01*
X156878906Y-116764280D01*
X156851969Y-116845093D01*
X156636470Y-117060592D01*
X157767841Y-116467969D02*
X157444592Y-116791218D01*
X157606216Y-116629593D02*
X157040531Y-116063908D01*
X157067468Y-116198595D01*
X157067468Y-116306345D01*
X157040531Y-116387157D01*
X158037215Y-116198595D02*
X158144964Y-116090845D01*
X158171902Y-116010033D01*
X158171902Y-115956158D01*
X158144964Y-115821471D01*
X158064152Y-115686784D01*
X157848653Y-115471285D01*
X157767841Y-115444348D01*
X157713966Y-115444348D01*
X157633154Y-115471285D01*
X157525404Y-115579035D01*
X157498467Y-115659847D01*
X157498467Y-115713722D01*
X157525404Y-115794534D01*
X157660091Y-115929221D01*
X157740903Y-115956158D01*
X157794778Y-115956158D01*
X157875590Y-115929221D01*
X157983340Y-115821471D01*
X158010277Y-115740659D01*
X158010277Y-115686784D01*
X157983340Y-115605972D01*
X156097722Y-119600592D02*
X156016910Y-119627529D01*
X155936097Y-119708341D01*
X155882223Y-119816091D01*
X155882223Y-119923841D01*
X155909160Y-120004653D01*
X155989972Y-120139340D01*
X156070784Y-120220152D01*
X156205471Y-120300964D01*
X156286284Y-120327902D01*
X156394033Y-120327902D01*
X156501783Y-120274027D01*
X156555658Y-120220152D01*
X156609532Y-120112402D01*
X156609532Y-120058528D01*
X156420971Y-119869966D01*
X156313221Y-119977715D01*
X156905844Y-119869966D02*
X156340158Y-119304280D01*
X156555658Y-119088781D01*
X156636470Y-119061844D01*
X156690345Y-119061844D01*
X156771157Y-119088781D01*
X156851969Y-119169593D01*
X156878906Y-119250406D01*
X156878906Y-119304280D01*
X156851969Y-119385093D01*
X156636470Y-119600592D01*
X157767841Y-119007969D02*
X157444592Y-119331218D01*
X157606216Y-119169593D02*
X157040531Y-118603908D01*
X157067468Y-118738595D01*
X157067468Y-118846345D01*
X157040531Y-118927157D01*
X157767841Y-118361471D02*
X157687028Y-118388409D01*
X157633154Y-118388409D01*
X157552341Y-118361471D01*
X157525404Y-118334534D01*
X157498467Y-118253722D01*
X157498467Y-118199847D01*
X157525404Y-118119035D01*
X157633154Y-118011285D01*
X157713966Y-117984348D01*
X157767841Y-117984348D01*
X157848653Y-118011285D01*
X157875590Y-118038223D01*
X157902528Y-118119035D01*
X157902528Y-118172910D01*
X157875590Y-118253722D01*
X157767841Y-118361471D01*
X157740903Y-118442284D01*
X157740903Y-118496158D01*
X157767841Y-118576971D01*
X157875590Y-118684720D01*
X157956402Y-118711658D01*
X158010277Y-118711658D01*
X158091089Y-118684720D01*
X158198839Y-118576971D01*
X158225776Y-118496158D01*
X158225776Y-118442284D01*
X158198839Y-118361471D01*
X158091089Y-118253722D01*
X158010277Y-118226784D01*
X157956402Y-118226784D01*
X157875590Y-118253722D01*
X156097722Y-124680592D02*
X156016910Y-124707529D01*
X155936097Y-124788341D01*
X155882223Y-124896091D01*
X155882223Y-125003841D01*
X155909160Y-125084653D01*
X155989972Y-125219340D01*
X156070784Y-125300152D01*
X156205471Y-125380964D01*
X156286284Y-125407902D01*
X156394033Y-125407902D01*
X156501783Y-125354027D01*
X156555658Y-125300152D01*
X156609532Y-125192402D01*
X156609532Y-125138528D01*
X156420971Y-124949966D01*
X156313221Y-125057715D01*
X156905844Y-124949966D02*
X156340158Y-124384280D01*
X156555658Y-124168781D01*
X156636470Y-124141844D01*
X156690345Y-124141844D01*
X156771157Y-124168781D01*
X156851969Y-124249593D01*
X156878906Y-124330406D01*
X156878906Y-124384280D01*
X156851969Y-124465093D01*
X156636470Y-124680592D01*
X157767841Y-124087969D02*
X157444592Y-124411218D01*
X157606216Y-124249593D02*
X157040531Y-123683908D01*
X157067468Y-123818595D01*
X157067468Y-123926345D01*
X157040531Y-124007157D01*
X157390717Y-123333722D02*
X157767841Y-122956598D01*
X158091089Y-123764720D01*
X156097722Y-127220592D02*
X156016910Y-127247529D01*
X155936097Y-127328341D01*
X155882223Y-127436091D01*
X155882223Y-127543841D01*
X155909160Y-127624653D01*
X155989972Y-127759340D01*
X156070784Y-127840152D01*
X156205471Y-127920964D01*
X156286284Y-127947902D01*
X156394033Y-127947902D01*
X156501783Y-127894027D01*
X156555658Y-127840152D01*
X156609532Y-127732402D01*
X156609532Y-127678528D01*
X156420971Y-127489966D01*
X156313221Y-127597715D01*
X156905844Y-127489966D02*
X156340158Y-126924280D01*
X156555658Y-126708781D01*
X156636470Y-126681844D01*
X156690345Y-126681844D01*
X156771157Y-126708781D01*
X156851969Y-126789593D01*
X156878906Y-126870406D01*
X156878906Y-126924280D01*
X156851969Y-127005093D01*
X156636470Y-127220592D01*
X157767841Y-126627969D02*
X157444592Y-126951218D01*
X157606216Y-126789593D02*
X157040531Y-126223908D01*
X157067468Y-126358595D01*
X157067468Y-126466345D01*
X157040531Y-126547157D01*
X157687028Y-125577410D02*
X157579279Y-125685160D01*
X157552341Y-125765972D01*
X157552341Y-125819847D01*
X157579279Y-125954534D01*
X157660091Y-126089221D01*
X157875590Y-126304720D01*
X157956402Y-126331658D01*
X158010277Y-126331658D01*
X158091089Y-126304720D01*
X158198839Y-126196971D01*
X158225776Y-126116158D01*
X158225776Y-126062284D01*
X158198839Y-125981471D01*
X158064152Y-125846784D01*
X157983340Y-125819847D01*
X157929465Y-125819847D01*
X157848653Y-125846784D01*
X157740903Y-125954534D01*
X157713966Y-126035346D01*
X157713966Y-126089221D01*
X157740903Y-126170033D01*
X129989722Y-127220592D02*
X129908910Y-127247529D01*
X129828097Y-127328341D01*
X129774223Y-127436091D01*
X129774223Y-127543841D01*
X129801160Y-127624653D01*
X129881972Y-127759340D01*
X129962784Y-127840152D01*
X130097471Y-127920964D01*
X130178284Y-127947902D01*
X130286033Y-127947902D01*
X130393783Y-127894027D01*
X130447658Y-127840152D01*
X130501532Y-127732402D01*
X130501532Y-127678528D01*
X130312971Y-127489966D01*
X130205221Y-127597715D01*
X130797844Y-127489966D02*
X130232158Y-126924280D01*
X130447658Y-126708781D01*
X130528470Y-126681844D01*
X130582345Y-126681844D01*
X130663157Y-126708781D01*
X130743969Y-126789593D01*
X130770906Y-126870406D01*
X130770906Y-126924280D01*
X130743969Y-127005093D01*
X130528470Y-127220592D01*
X131659841Y-126627969D02*
X131336592Y-126951218D01*
X131498216Y-126789593D02*
X130932531Y-126223908D01*
X130959468Y-126358595D01*
X130959468Y-126466345D01*
X130932531Y-126547157D01*
X131605966Y-125550473D02*
X131336592Y-125819847D01*
X131579028Y-126116158D01*
X131579028Y-126062284D01*
X131605966Y-125981471D01*
X131740653Y-125846784D01*
X131821465Y-125819847D01*
X131875340Y-125819847D01*
X131956152Y-125846784D01*
X132090839Y-125981471D01*
X132117776Y-126062284D01*
X132117776Y-126116158D01*
X132090839Y-126196971D01*
X131956152Y-126331658D01*
X131875340Y-126358595D01*
X131821465Y-126358595D01*
X129943722Y-124680592D02*
X129862910Y-124707529D01*
X129782097Y-124788341D01*
X129728223Y-124896091D01*
X129728223Y-125003841D01*
X129755160Y-125084653D01*
X129835972Y-125219340D01*
X129916784Y-125300152D01*
X130051471Y-125380964D01*
X130132284Y-125407902D01*
X130240033Y-125407902D01*
X130347783Y-125354027D01*
X130401658Y-125300152D01*
X130455532Y-125192402D01*
X130455532Y-125138528D01*
X130266971Y-124949966D01*
X130159221Y-125057715D01*
X130751844Y-124949966D02*
X130186158Y-124384280D01*
X130401658Y-124168781D01*
X130482470Y-124141844D01*
X130536345Y-124141844D01*
X130617157Y-124168781D01*
X130697969Y-124249593D01*
X130724906Y-124330406D01*
X130724906Y-124384280D01*
X130697969Y-124465093D01*
X130482470Y-124680592D01*
X131613841Y-124087969D02*
X131290592Y-124411218D01*
X131452216Y-124249593D02*
X130886531Y-123683908D01*
X130913468Y-123818595D01*
X130913468Y-123926345D01*
X130886531Y-124007157D01*
X131721590Y-123225972D02*
X132098714Y-123603096D01*
X131371404Y-123145160D02*
X131640778Y-123683908D01*
X131990964Y-123333722D01*
X129989722Y-119600592D02*
X129908910Y-119627529D01*
X129828097Y-119708341D01*
X129774223Y-119816091D01*
X129774223Y-119923841D01*
X129801160Y-120004653D01*
X129881972Y-120139340D01*
X129962784Y-120220152D01*
X130097471Y-120300964D01*
X130178284Y-120327902D01*
X130286033Y-120327902D01*
X130393783Y-120274027D01*
X130447658Y-120220152D01*
X130501532Y-120112402D01*
X130501532Y-120058528D01*
X130312971Y-119869966D01*
X130205221Y-119977715D01*
X130797844Y-119869966D02*
X130232158Y-119304280D01*
X130447658Y-119088781D01*
X130528470Y-119061844D01*
X130582345Y-119061844D01*
X130663157Y-119088781D01*
X130743969Y-119169593D01*
X130770906Y-119250406D01*
X130770906Y-119304280D01*
X130743969Y-119385093D01*
X130528470Y-119600592D01*
X131659841Y-119007969D02*
X131336592Y-119331218D01*
X131498216Y-119169593D02*
X130932531Y-118603908D01*
X130959468Y-118738595D01*
X130959468Y-118846345D01*
X130932531Y-118927157D01*
X131282717Y-118253722D02*
X131632903Y-117903536D01*
X131659841Y-118307597D01*
X131740653Y-118226784D01*
X131821465Y-118199847D01*
X131875340Y-118199847D01*
X131956152Y-118226784D01*
X132090839Y-118361471D01*
X132117776Y-118442284D01*
X132117776Y-118496158D01*
X132090839Y-118576971D01*
X131929215Y-118738595D01*
X131848402Y-118765532D01*
X131794528Y-118765532D01*
X129843722Y-117060592D02*
X129762910Y-117087529D01*
X129682097Y-117168341D01*
X129628223Y-117276091D01*
X129628223Y-117383841D01*
X129655160Y-117464653D01*
X129735972Y-117599340D01*
X129816784Y-117680152D01*
X129951471Y-117760964D01*
X130032284Y-117787902D01*
X130140033Y-117787902D01*
X130247783Y-117734027D01*
X130301658Y-117680152D01*
X130355532Y-117572402D01*
X130355532Y-117518528D01*
X130166971Y-117329966D01*
X130059221Y-117437715D01*
X130651844Y-117329966D02*
X130086158Y-116764280D01*
X130301658Y-116548781D01*
X130382470Y-116521844D01*
X130436345Y-116521844D01*
X130517157Y-116548781D01*
X130597969Y-116629593D01*
X130624906Y-116710406D01*
X130624906Y-116764280D01*
X130597969Y-116845093D01*
X130382470Y-117060592D01*
X131513841Y-116467969D02*
X131190592Y-116791218D01*
X131352216Y-116629593D02*
X130786531Y-116063908D01*
X130813468Y-116198595D01*
X130813468Y-116306345D01*
X130786531Y-116387157D01*
X131217529Y-115740659D02*
X131217529Y-115686784D01*
X131244467Y-115605972D01*
X131379154Y-115471285D01*
X131459966Y-115444348D01*
X131513841Y-115444348D01*
X131594653Y-115471285D01*
X131648528Y-115525160D01*
X131702402Y-115632910D01*
X131702402Y-116279407D01*
X132052589Y-115929221D01*
X129843722Y-114520592D02*
X129762910Y-114547529D01*
X129682097Y-114628341D01*
X129628223Y-114736091D01*
X129628223Y-114843841D01*
X129655160Y-114924653D01*
X129735972Y-115059340D01*
X129816784Y-115140152D01*
X129951471Y-115220964D01*
X130032284Y-115247902D01*
X130140033Y-115247902D01*
X130247783Y-115194027D01*
X130301658Y-115140152D01*
X130355532Y-115032402D01*
X130355532Y-114978528D01*
X130166971Y-114789966D01*
X130059221Y-114897715D01*
X130651844Y-114789966D02*
X130086158Y-114224280D01*
X130301658Y-114008781D01*
X130382470Y-113981844D01*
X130436345Y-113981844D01*
X130517157Y-114008781D01*
X130597969Y-114089593D01*
X130624906Y-114170406D01*
X130624906Y-114224280D01*
X130597969Y-114305093D01*
X130382470Y-114520592D01*
X131513841Y-113927969D02*
X131190592Y-114251218D01*
X131352216Y-114089593D02*
X130786531Y-113523908D01*
X130813468Y-113658595D01*
X130813468Y-113766345D01*
X130786531Y-113847157D01*
X132052589Y-113389221D02*
X131729340Y-113712470D01*
X131890964Y-113550845D02*
X131325279Y-112985160D01*
X131352216Y-113119847D01*
X131352216Y-113227597D01*
X131325279Y-113308409D01*
X129989722Y-111980592D02*
X129908910Y-112007529D01*
X129828097Y-112088341D01*
X129774223Y-112196091D01*
X129774223Y-112303841D01*
X129801160Y-112384653D01*
X129881972Y-112519340D01*
X129962784Y-112600152D01*
X130097471Y-112680964D01*
X130178284Y-112707902D01*
X130286033Y-112707902D01*
X130393783Y-112654027D01*
X130447658Y-112600152D01*
X130501532Y-112492402D01*
X130501532Y-112438528D01*
X130312971Y-112249966D01*
X130205221Y-112357715D01*
X130797844Y-112249966D02*
X130232158Y-111684280D01*
X130447658Y-111468781D01*
X130528470Y-111441844D01*
X130582345Y-111441844D01*
X130663157Y-111468781D01*
X130743969Y-111549593D01*
X130770906Y-111630406D01*
X130770906Y-111684280D01*
X130743969Y-111765093D01*
X130528470Y-111980592D01*
X131659841Y-111387969D02*
X131336592Y-111711218D01*
X131498216Y-111549593D02*
X130932531Y-110983908D01*
X130959468Y-111118595D01*
X130959468Y-111226345D01*
X130932531Y-111307157D01*
X131444341Y-110472097D02*
X131498216Y-110418223D01*
X131579028Y-110391285D01*
X131632903Y-110391285D01*
X131713715Y-110418223D01*
X131848402Y-110499035D01*
X131983089Y-110633722D01*
X132063902Y-110768409D01*
X132090839Y-110849221D01*
X132090839Y-110903096D01*
X132063902Y-110983908D01*
X132010027Y-111037783D01*
X131929215Y-111064720D01*
X131875340Y-111064720D01*
X131794528Y-111037783D01*
X131659841Y-110956971D01*
X131525154Y-110822284D01*
X131444341Y-110687597D01*
X131417404Y-110606784D01*
X131417404Y-110552910D01*
X131444341Y-110472097D01*
X130513096Y-106631218D02*
X130432284Y-106658155D01*
X130351471Y-106738967D01*
X130297597Y-106846717D01*
X130297597Y-106954467D01*
X130324534Y-107035279D01*
X130405346Y-107169966D01*
X130486158Y-107250778D01*
X130620845Y-107331590D01*
X130701658Y-107358528D01*
X130809407Y-107358528D01*
X130917157Y-107304653D01*
X130971032Y-107250778D01*
X131024906Y-107143028D01*
X131024906Y-107089154D01*
X130836345Y-106900592D01*
X130728595Y-107008341D01*
X131321218Y-106900592D02*
X130755532Y-106334906D01*
X130971032Y-106119407D01*
X131051844Y-106092470D01*
X131105719Y-106092470D01*
X131186531Y-106119407D01*
X131267343Y-106200219D01*
X131294280Y-106281032D01*
X131294280Y-106334906D01*
X131267343Y-106415719D01*
X131051844Y-106631218D01*
X131913841Y-106307969D02*
X132021590Y-106200219D01*
X132048528Y-106119407D01*
X132048528Y-106065532D01*
X132021590Y-105930845D01*
X131940778Y-105796158D01*
X131725279Y-105580659D01*
X131644467Y-105553722D01*
X131590592Y-105553722D01*
X131509780Y-105580659D01*
X131402030Y-105688409D01*
X131375093Y-105769221D01*
X131375093Y-105823096D01*
X131402030Y-105903908D01*
X131536717Y-106038595D01*
X131617529Y-106065532D01*
X131671404Y-106065532D01*
X131752216Y-106038595D01*
X131859966Y-105930845D01*
X131886903Y-105850033D01*
X131886903Y-105796158D01*
X131859966Y-105715346D01*
X130513096Y-104091218D02*
X130432284Y-104118155D01*
X130351471Y-104198967D01*
X130297597Y-104306717D01*
X130297597Y-104414467D01*
X130324534Y-104495279D01*
X130405346Y-104629966D01*
X130486158Y-104710778D01*
X130620845Y-104791590D01*
X130701658Y-104818528D01*
X130809407Y-104818528D01*
X130917157Y-104764653D01*
X130971032Y-104710778D01*
X131024906Y-104603028D01*
X131024906Y-104549154D01*
X130836345Y-104360592D01*
X130728595Y-104468341D01*
X131321218Y-104360592D02*
X130755532Y-103794906D01*
X130971032Y-103579407D01*
X131051844Y-103552470D01*
X131105719Y-103552470D01*
X131186531Y-103579407D01*
X131267343Y-103660219D01*
X131294280Y-103741032D01*
X131294280Y-103794906D01*
X131267343Y-103875719D01*
X131051844Y-104091218D01*
X131644467Y-103390845D02*
X131563654Y-103417783D01*
X131509780Y-103417783D01*
X131428967Y-103390845D01*
X131402030Y-103363908D01*
X131375093Y-103283096D01*
X131375093Y-103229221D01*
X131402030Y-103148409D01*
X131509780Y-103040659D01*
X131590592Y-103013722D01*
X131644467Y-103013722D01*
X131725279Y-103040659D01*
X131752216Y-103067597D01*
X131779154Y-103148409D01*
X131779154Y-103202284D01*
X131752216Y-103283096D01*
X131644467Y-103390845D01*
X131617529Y-103471658D01*
X131617529Y-103525532D01*
X131644467Y-103606345D01*
X131752216Y-103714094D01*
X131833028Y-103741032D01*
X131886903Y-103741032D01*
X131967715Y-103714094D01*
X132075465Y-103606345D01*
X132102402Y-103525532D01*
X132102402Y-103471658D01*
X132075465Y-103390845D01*
X131967715Y-103283096D01*
X131886903Y-103256158D01*
X131833028Y-103256158D01*
X131752216Y-103283096D01*
X130613096Y-101521218D02*
X130532284Y-101548155D01*
X130451471Y-101628967D01*
X130397597Y-101736717D01*
X130397597Y-101844467D01*
X130424534Y-101925279D01*
X130505346Y-102059966D01*
X130586158Y-102140778D01*
X130720845Y-102221590D01*
X130801658Y-102248528D01*
X130909407Y-102248528D01*
X131017157Y-102194653D01*
X131071032Y-102140778D01*
X131124906Y-102033028D01*
X131124906Y-101979154D01*
X130936345Y-101790592D01*
X130828595Y-101898341D01*
X131421218Y-101790592D02*
X130855532Y-101224906D01*
X131071032Y-101009407D01*
X131151844Y-100982470D01*
X131205719Y-100982470D01*
X131286531Y-101009407D01*
X131367343Y-101090219D01*
X131394280Y-101171032D01*
X131394280Y-101224906D01*
X131367343Y-101305719D01*
X131151844Y-101521218D01*
X131367343Y-100713096D02*
X131744467Y-100335972D01*
X132067715Y-101144094D01*
X130513096Y-99011218D02*
X130432284Y-99038155D01*
X130351471Y-99118967D01*
X130297597Y-99226717D01*
X130297597Y-99334467D01*
X130324534Y-99415279D01*
X130405346Y-99549966D01*
X130486158Y-99630778D01*
X130620845Y-99711590D01*
X130701658Y-99738528D01*
X130809407Y-99738528D01*
X130917157Y-99684653D01*
X130971032Y-99630778D01*
X131024906Y-99523028D01*
X131024906Y-99469154D01*
X130836345Y-99280592D01*
X130728595Y-99388341D01*
X131321218Y-99280592D02*
X130755532Y-98714906D01*
X130971032Y-98499407D01*
X131051844Y-98472470D01*
X131105719Y-98472470D01*
X131186531Y-98499407D01*
X131267343Y-98580219D01*
X131294280Y-98661032D01*
X131294280Y-98714906D01*
X131267343Y-98795719D01*
X131051844Y-99011218D01*
X131563654Y-97906784D02*
X131455905Y-98014534D01*
X131428967Y-98095346D01*
X131428967Y-98149221D01*
X131455905Y-98283908D01*
X131536717Y-98418595D01*
X131752216Y-98634094D01*
X131833028Y-98661032D01*
X131886903Y-98661032D01*
X131967715Y-98634094D01*
X132075465Y-98526345D01*
X132102402Y-98445532D01*
X132102402Y-98391658D01*
X132075465Y-98310845D01*
X131940778Y-98176158D01*
X131859966Y-98149221D01*
X131806091Y-98149221D01*
X131725279Y-98176158D01*
X131617529Y-98283908D01*
X131590592Y-98364720D01*
X131590592Y-98418595D01*
X131617529Y-98499407D01*
X130513096Y-93931218D02*
X130432284Y-93958155D01*
X130351471Y-94038967D01*
X130297597Y-94146717D01*
X130297597Y-94254467D01*
X130324534Y-94335279D01*
X130405346Y-94469966D01*
X130486158Y-94550778D01*
X130620845Y-94631590D01*
X130701658Y-94658528D01*
X130809407Y-94658528D01*
X130917157Y-94604653D01*
X130971032Y-94550778D01*
X131024906Y-94443028D01*
X131024906Y-94389154D01*
X130836345Y-94200592D01*
X130728595Y-94308341D01*
X131321218Y-94200592D02*
X130755532Y-93634906D01*
X130971032Y-93419407D01*
X131051844Y-93392470D01*
X131105719Y-93392470D01*
X131186531Y-93419407D01*
X131267343Y-93500219D01*
X131294280Y-93581032D01*
X131294280Y-93634906D01*
X131267343Y-93715719D01*
X131051844Y-93931218D01*
X131590592Y-92799847D02*
X131321218Y-93069221D01*
X131563654Y-93365532D01*
X131563654Y-93311658D01*
X131590592Y-93230845D01*
X131725279Y-93096158D01*
X131806091Y-93069221D01*
X131859966Y-93069221D01*
X131940778Y-93096158D01*
X132075465Y-93230845D01*
X132102402Y-93311658D01*
X132102402Y-93365532D01*
X132075465Y-93446345D01*
X131940778Y-93581032D01*
X131859966Y-93607969D01*
X131806091Y-93607969D01*
X130513096Y-91391218D02*
X130432284Y-91418155D01*
X130351471Y-91498967D01*
X130297597Y-91606717D01*
X130297597Y-91714467D01*
X130324534Y-91795279D01*
X130405346Y-91929966D01*
X130486158Y-92010778D01*
X130620845Y-92091590D01*
X130701658Y-92118528D01*
X130809407Y-92118528D01*
X130917157Y-92064653D01*
X130971032Y-92010778D01*
X131024906Y-91903028D01*
X131024906Y-91849154D01*
X130836345Y-91660592D01*
X130728595Y-91768341D01*
X131321218Y-91660592D02*
X130755532Y-91094906D01*
X130971032Y-90879407D01*
X131051844Y-90852470D01*
X131105719Y-90852470D01*
X131186531Y-90879407D01*
X131267343Y-90960219D01*
X131294280Y-91041032D01*
X131294280Y-91094906D01*
X131267343Y-91175719D01*
X131051844Y-91391218D01*
X131752216Y-90475346D02*
X132129340Y-90852470D01*
X131402030Y-90394534D02*
X131671404Y-90933282D01*
X132021590Y-90583096D01*
X130513096Y-88851218D02*
X130432284Y-88878155D01*
X130351471Y-88958967D01*
X130297597Y-89066717D01*
X130297597Y-89174467D01*
X130324534Y-89255279D01*
X130405346Y-89389966D01*
X130486158Y-89470778D01*
X130620845Y-89551590D01*
X130701658Y-89578528D01*
X130809407Y-89578528D01*
X130917157Y-89524653D01*
X130971032Y-89470778D01*
X131024906Y-89363028D01*
X131024906Y-89309154D01*
X130836345Y-89120592D01*
X130728595Y-89228341D01*
X131321218Y-89120592D02*
X130755532Y-88554906D01*
X130971032Y-88339407D01*
X131051844Y-88312470D01*
X131105719Y-88312470D01*
X131186531Y-88339407D01*
X131267343Y-88420219D01*
X131294280Y-88501032D01*
X131294280Y-88554906D01*
X131267343Y-88635719D01*
X131051844Y-88851218D01*
X131267343Y-88043096D02*
X131617529Y-87692910D01*
X131644467Y-88096971D01*
X131725279Y-88016158D01*
X131806091Y-87989221D01*
X131859966Y-87989221D01*
X131940778Y-88016158D01*
X132075465Y-88150845D01*
X132102402Y-88231658D01*
X132102402Y-88285532D01*
X132075465Y-88366345D01*
X131913841Y-88527969D01*
X131833028Y-88554906D01*
X131779154Y-88554906D01*
X130513096Y-78691218D02*
X130432284Y-78718155D01*
X130351471Y-78798967D01*
X130297597Y-78906717D01*
X130297597Y-79014467D01*
X130324534Y-79095279D01*
X130405346Y-79229966D01*
X130486158Y-79310778D01*
X130620845Y-79391590D01*
X130701658Y-79418528D01*
X130809407Y-79418528D01*
X130917157Y-79364653D01*
X130971032Y-79310778D01*
X131024906Y-79203028D01*
X131024906Y-79149154D01*
X130836345Y-78960592D01*
X130728595Y-79068341D01*
X131321218Y-78960592D02*
X130755532Y-78394906D01*
X130971032Y-78179407D01*
X131051844Y-78152470D01*
X131105719Y-78152470D01*
X131186531Y-78179407D01*
X131267343Y-78260219D01*
X131294280Y-78341032D01*
X131294280Y-78394906D01*
X131267343Y-78475719D01*
X131051844Y-78691218D01*
X131428967Y-77721471D02*
X131482842Y-77667597D01*
X131563654Y-77640659D01*
X131617529Y-77640659D01*
X131698341Y-77667597D01*
X131833028Y-77748409D01*
X131967715Y-77883096D01*
X132048528Y-78017783D01*
X132075465Y-78098595D01*
X132075465Y-78152470D01*
X132048528Y-78233282D01*
X131994653Y-78287157D01*
X131913841Y-78314094D01*
X131859966Y-78314094D01*
X131779154Y-78287157D01*
X131644467Y-78206345D01*
X131509780Y-78071658D01*
X131428967Y-77936971D01*
X131402030Y-77856158D01*
X131402030Y-77802284D01*
X131428967Y-77721471D01*
X130413096Y-86311218D02*
X130332284Y-86338155D01*
X130251471Y-86418967D01*
X130197597Y-86526717D01*
X130197597Y-86634467D01*
X130224534Y-86715279D01*
X130305346Y-86849966D01*
X130386158Y-86930778D01*
X130520845Y-87011590D01*
X130601658Y-87038528D01*
X130709407Y-87038528D01*
X130817157Y-86984653D01*
X130871032Y-86930778D01*
X130924906Y-86823028D01*
X130924906Y-86769154D01*
X130736345Y-86580592D01*
X130628595Y-86688341D01*
X131221218Y-86580592D02*
X130655532Y-86014906D01*
X130871032Y-85799407D01*
X130951844Y-85772470D01*
X131005719Y-85772470D01*
X131086531Y-85799407D01*
X131167343Y-85880219D01*
X131194280Y-85961032D01*
X131194280Y-86014906D01*
X131167343Y-86095719D01*
X130951844Y-86311218D01*
X131248155Y-85530033D02*
X131248155Y-85476158D01*
X131275093Y-85395346D01*
X131409780Y-85260659D01*
X131490592Y-85233722D01*
X131544467Y-85233722D01*
X131625279Y-85260659D01*
X131679154Y-85314534D01*
X131733028Y-85422284D01*
X131733028Y-86068781D01*
X132083215Y-85718595D01*
X130413096Y-81221218D02*
X130332284Y-81248155D01*
X130251471Y-81328967D01*
X130197597Y-81436717D01*
X130197597Y-81544467D01*
X130224534Y-81625279D01*
X130305346Y-81759966D01*
X130386158Y-81840778D01*
X130520845Y-81921590D01*
X130601658Y-81948528D01*
X130709407Y-81948528D01*
X130817157Y-81894653D01*
X130871032Y-81840778D01*
X130924906Y-81733028D01*
X130924906Y-81679154D01*
X130736345Y-81490592D01*
X130628595Y-81598341D01*
X131221218Y-81490592D02*
X130655532Y-80924906D01*
X130871032Y-80709407D01*
X130951844Y-80682470D01*
X131005719Y-80682470D01*
X131086531Y-80709407D01*
X131167343Y-80790219D01*
X131194280Y-80871032D01*
X131194280Y-80924906D01*
X131167343Y-81005719D01*
X130951844Y-81221218D01*
X132083215Y-80628595D02*
X131759966Y-80951844D01*
X131921590Y-80790219D02*
X131355905Y-80224534D01*
X131382842Y-80359221D01*
X131382842Y-80466971D01*
X131355905Y-80547783D01*
X120038095Y-96802380D02*
X120038095Y-97611904D01*
X120085714Y-97707142D01*
X120133333Y-97754761D01*
X120228571Y-97802380D01*
X120419047Y-97802380D01*
X120514285Y-97754761D01*
X120561904Y-97707142D01*
X120609523Y-97611904D01*
X120609523Y-96802380D01*
X121038095Y-96897619D02*
X121085714Y-96850000D01*
X121180952Y-96802380D01*
X121419047Y-96802380D01*
X121514285Y-96850000D01*
X121561904Y-96897619D01*
X121609523Y-96992857D01*
X121609523Y-97088095D01*
X121561904Y-97230952D01*
X120990476Y-97802380D01*
X121609523Y-97802380D01*
X118638095Y-74602380D02*
X118638095Y-75411904D01*
X118685714Y-75507142D01*
X118733333Y-75554761D01*
X118828571Y-75602380D01*
X119019047Y-75602380D01*
X119114285Y-75554761D01*
X119161904Y-75507142D01*
X119209523Y-75411904D01*
X119209523Y-74602380D01*
X120209523Y-75602380D02*
X119638095Y-75602380D01*
X119923809Y-75602380D02*
X119923809Y-74602380D01*
X119828571Y-74745238D01*
X119733333Y-74840476D01*
X119638095Y-74888095D01*
X111733333Y-130952380D02*
X111400000Y-130476190D01*
X111161904Y-130952380D02*
X111161904Y-129952380D01*
X111542857Y-129952380D01*
X111638095Y-130000000D01*
X111685714Y-130047619D01*
X111733333Y-130142857D01*
X111733333Y-130285714D01*
X111685714Y-130380952D01*
X111638095Y-130428571D01*
X111542857Y-130476190D01*
X111161904Y-130476190D01*
X112638095Y-129952380D02*
X112161904Y-129952380D01*
X112114285Y-130428571D01*
X112161904Y-130380952D01*
X112257142Y-130333333D01*
X112495238Y-130333333D01*
X112590476Y-130380952D01*
X112638095Y-130428571D01*
X112685714Y-130523809D01*
X112685714Y-130761904D01*
X112638095Y-130857142D01*
X112590476Y-130904761D01*
X112495238Y-130952380D01*
X112257142Y-130952380D01*
X112161904Y-130904761D01*
X112114285Y-130857142D01*
X111633333Y-128352380D02*
X111300000Y-127876190D01*
X111061904Y-128352380D02*
X111061904Y-127352380D01*
X111442857Y-127352380D01*
X111538095Y-127400000D01*
X111585714Y-127447619D01*
X111633333Y-127542857D01*
X111633333Y-127685714D01*
X111585714Y-127780952D01*
X111538095Y-127828571D01*
X111442857Y-127876190D01*
X111061904Y-127876190D01*
X112490476Y-127685714D02*
X112490476Y-128352380D01*
X112252380Y-127304761D02*
X112014285Y-128019047D01*
X112633333Y-128019047D01*
X117852380Y-94266666D02*
X117376190Y-94600000D01*
X117852380Y-94838095D02*
X116852380Y-94838095D01*
X116852380Y-94457142D01*
X116900000Y-94361904D01*
X116947619Y-94314285D01*
X117042857Y-94266666D01*
X117185714Y-94266666D01*
X117280952Y-94314285D01*
X117328571Y-94361904D01*
X117376190Y-94457142D01*
X117376190Y-94838095D01*
X116852380Y-93933333D02*
X116852380Y-93314285D01*
X117233333Y-93647619D01*
X117233333Y-93504761D01*
X117280952Y-93409523D01*
X117328571Y-93361904D01*
X117423809Y-93314285D01*
X117661904Y-93314285D01*
X117757142Y-93361904D01*
X117804761Y-93409523D01*
X117852380Y-93504761D01*
X117852380Y-93790476D01*
X117804761Y-93885714D01*
X117757142Y-93933333D01*
X111102380Y-58566666D02*
X110626190Y-58900000D01*
X111102380Y-59138095D02*
X110102380Y-59138095D01*
X110102380Y-58757142D01*
X110150000Y-58661904D01*
X110197619Y-58614285D01*
X110292857Y-58566666D01*
X110435714Y-58566666D01*
X110530952Y-58614285D01*
X110578571Y-58661904D01*
X110626190Y-58757142D01*
X110626190Y-59138095D01*
X110197619Y-58185714D02*
X110150000Y-58138095D01*
X110102380Y-58042857D01*
X110102380Y-57804761D01*
X110150000Y-57709523D01*
X110197619Y-57661904D01*
X110292857Y-57614285D01*
X110388095Y-57614285D01*
X110530952Y-57661904D01*
X111102380Y-58233333D01*
X111102380Y-57614285D01*
X115933333Y-49252380D02*
X115600000Y-48776190D01*
X115361904Y-49252380D02*
X115361904Y-48252380D01*
X115742857Y-48252380D01*
X115838095Y-48300000D01*
X115885714Y-48347619D01*
X115933333Y-48442857D01*
X115933333Y-48585714D01*
X115885714Y-48680952D01*
X115838095Y-48728571D01*
X115742857Y-48776190D01*
X115361904Y-48776190D01*
X116885714Y-49252380D02*
X116314285Y-49252380D01*
X116600000Y-49252380D02*
X116600000Y-48252380D01*
X116504761Y-48395238D01*
X116409523Y-48490476D01*
X116314285Y-48538095D01*
X126252380Y-70133333D02*
X126966666Y-70133333D01*
X127109523Y-70180952D01*
X127204761Y-70276190D01*
X127252380Y-70419047D01*
X127252380Y-70514285D01*
X127252380Y-69657142D02*
X126252380Y-69657142D01*
X126252380Y-69276190D01*
X126300000Y-69180952D01*
X126347619Y-69133333D01*
X126442857Y-69085714D01*
X126585714Y-69085714D01*
X126680952Y-69133333D01*
X126728571Y-69180952D01*
X126776190Y-69276190D01*
X126776190Y-69657142D01*
X126252380Y-68180952D02*
X126252380Y-68657142D01*
X126728571Y-68704761D01*
X126680952Y-68657142D01*
X126633333Y-68561904D01*
X126633333Y-68323809D01*
X126680952Y-68228571D01*
X126728571Y-68180952D01*
X126823809Y-68133333D01*
X127061904Y-68133333D01*
X127157142Y-68180952D01*
X127204761Y-68228571D01*
X127252380Y-68323809D01*
X127252380Y-68561904D01*
X127204761Y-68657142D01*
X127157142Y-68704761D01*
X127166666Y-137652380D02*
X127166666Y-138366666D01*
X127119047Y-138509523D01*
X127023809Y-138604761D01*
X126880952Y-138652380D01*
X126785714Y-138652380D01*
X127642857Y-138652380D02*
X127642857Y-137652380D01*
X128023809Y-137652380D01*
X128119047Y-137700000D01*
X128166666Y-137747619D01*
X128214285Y-137842857D01*
X128214285Y-137985714D01*
X128166666Y-138080952D01*
X128119047Y-138128571D01*
X128023809Y-138176190D01*
X127642857Y-138176190D01*
X129071428Y-137985714D02*
X129071428Y-138652380D01*
X128833333Y-137604761D02*
X128595238Y-138319047D01*
X129214285Y-138319047D01*
X111066666Y-135052380D02*
X111066666Y-135766666D01*
X111019047Y-135909523D01*
X110923809Y-136004761D01*
X110780952Y-136052380D01*
X110685714Y-136052380D01*
X111542857Y-136052380D02*
X111542857Y-135052380D01*
X111923809Y-135052380D01*
X112019047Y-135100000D01*
X112066666Y-135147619D01*
X112114285Y-135242857D01*
X112114285Y-135385714D01*
X112066666Y-135480952D01*
X112019047Y-135528571D01*
X111923809Y-135576190D01*
X111542857Y-135576190D01*
X112447619Y-135052380D02*
X113066666Y-135052380D01*
X112733333Y-135433333D01*
X112876190Y-135433333D01*
X112971428Y-135480952D01*
X113019047Y-135528571D01*
X113066666Y-135623809D01*
X113066666Y-135861904D01*
X113019047Y-135957142D01*
X112971428Y-136004761D01*
X112876190Y-136052380D01*
X112590476Y-136052380D01*
X112495238Y-136004761D01*
X112447619Y-135957142D01*
X127366666Y-135052380D02*
X127366666Y-135766666D01*
X127319047Y-135909523D01*
X127223809Y-136004761D01*
X127080952Y-136052380D01*
X126985714Y-136052380D01*
X127842857Y-136052380D02*
X127842857Y-135052380D01*
X128223809Y-135052380D01*
X128319047Y-135100000D01*
X128366666Y-135147619D01*
X128414285Y-135242857D01*
X128414285Y-135385714D01*
X128366666Y-135480952D01*
X128319047Y-135528571D01*
X128223809Y-135576190D01*
X127842857Y-135576190D01*
X128795238Y-135147619D02*
X128842857Y-135100000D01*
X128938095Y-135052380D01*
X129176190Y-135052380D01*
X129271428Y-135100000D01*
X129319047Y-135147619D01*
X129366666Y-135242857D01*
X129366666Y-135338095D01*
X129319047Y-135480952D01*
X128747619Y-136052380D01*
X129366666Y-136052380D01*
X111066666Y-132452380D02*
X111066666Y-133166666D01*
X111019047Y-133309523D01*
X110923809Y-133404761D01*
X110780952Y-133452380D01*
X110685714Y-133452380D01*
X111542857Y-133452380D02*
X111542857Y-132452380D01*
X111923809Y-132452380D01*
X112019047Y-132500000D01*
X112066666Y-132547619D01*
X112114285Y-132642857D01*
X112114285Y-132785714D01*
X112066666Y-132880952D01*
X112019047Y-132928571D01*
X111923809Y-132976190D01*
X111542857Y-132976190D01*
X113066666Y-133452380D02*
X112495238Y-133452380D01*
X112780952Y-133452380D02*
X112780952Y-132452380D01*
X112685714Y-132595238D01*
X112590476Y-132690476D01*
X112495238Y-132738095D01*
X149122380Y-136833333D02*
X149836666Y-136833333D01*
X149979523Y-136880952D01*
X150074761Y-136976190D01*
X150122380Y-137119047D01*
X150122380Y-137214285D01*
X149122380Y-136452380D02*
X149122380Y-135785714D01*
X150122380Y-136214285D01*
X119266666Y-124922380D02*
X119266666Y-125636666D01*
X119219047Y-125779523D01*
X119123809Y-125874761D01*
X118980952Y-125922380D01*
X118885714Y-125922380D01*
X120219047Y-124922380D02*
X119742857Y-124922380D01*
X119695238Y-125398571D01*
X119742857Y-125350952D01*
X119838095Y-125303333D01*
X120076190Y-125303333D01*
X120171428Y-125350952D01*
X120219047Y-125398571D01*
X120266666Y-125493809D01*
X120266666Y-125731904D01*
X120219047Y-125827142D01*
X120171428Y-125874761D01*
X120076190Y-125922380D01*
X119838095Y-125922380D01*
X119742857Y-125874761D01*
X119695238Y-125827142D01*
X131266666Y-64252380D02*
X131266666Y-64966666D01*
X131219047Y-65109523D01*
X131123809Y-65204761D01*
X130980952Y-65252380D01*
X130885714Y-65252380D01*
X131695238Y-64347619D02*
X131742857Y-64300000D01*
X131838095Y-64252380D01*
X132076190Y-64252380D01*
X132171428Y-64300000D01*
X132219047Y-64347619D01*
X132266666Y-64442857D01*
X132266666Y-64538095D01*
X132219047Y-64680952D01*
X131647619Y-65252380D01*
X132266666Y-65252380D01*
X122633333Y-93357142D02*
X122585714Y-93404761D01*
X122442857Y-93452380D01*
X122347619Y-93452380D01*
X122204761Y-93404761D01*
X122109523Y-93309523D01*
X122061904Y-93214285D01*
X122014285Y-93023809D01*
X122014285Y-92880952D01*
X122061904Y-92690476D01*
X122109523Y-92595238D01*
X122204761Y-92500000D01*
X122347619Y-92452380D01*
X122442857Y-92452380D01*
X122585714Y-92500000D01*
X122633333Y-92547619D01*
X123014285Y-92547619D02*
X123061904Y-92500000D01*
X123157142Y-92452380D01*
X123395238Y-92452380D01*
X123490476Y-92500000D01*
X123538095Y-92547619D01*
X123585714Y-92642857D01*
X123585714Y-92738095D01*
X123538095Y-92880952D01*
X122966666Y-93452380D01*
X123585714Y-93452380D01*
X119333333Y-69907142D02*
X119285714Y-69954761D01*
X119142857Y-70002380D01*
X119047619Y-70002380D01*
X118904761Y-69954761D01*
X118809523Y-69859523D01*
X118761904Y-69764285D01*
X118714285Y-69573809D01*
X118714285Y-69430952D01*
X118761904Y-69240476D01*
X118809523Y-69145238D01*
X118904761Y-69050000D01*
X119047619Y-69002380D01*
X119142857Y-69002380D01*
X119285714Y-69050000D01*
X119333333Y-69097619D01*
X120285714Y-70002380D02*
X119714285Y-70002380D01*
X120000000Y-70002380D02*
X120000000Y-69002380D01*
X119904761Y-69145238D01*
X119809523Y-69240476D01*
X119714285Y-69288095D01*
M02*
