G04 #@! TF.GenerationSoftware,KiCad,Pcbnew,5.1.5+dfsg1-2build2*
G04 #@! TF.CreationDate,2021-12-30T10:18:34+00:00*
G04 #@! TF.ProjectId,psion-org2-bluetooth-adapter,7073696f-6e2d-46f7-9267-322d626c7565,rev?*
G04 #@! TF.SameCoordinates,Original*
G04 #@! TF.FileFunction,Soldermask,Top*
G04 #@! TF.FilePolarity,Negative*
%FSLAX46Y46*%
G04 Gerber Fmt 4.6, Leading zero omitted, Abs format (unit mm)*
G04 Created by KiCad (PCBNEW 5.1.5+dfsg1-2build2) date 2021-12-30 10:18:34*
%MOMM*%
%LPD*%
G04 APERTURE LIST*
%ADD10C,0.100000*%
G04 APERTURE END LIST*
D10*
G36*
X168388674Y-142703465D02*
G01*
X168426367Y-142714899D01*
X168461103Y-142733466D01*
X168491548Y-142758452D01*
X168516534Y-142788897D01*
X168535101Y-142823633D01*
X168546535Y-142861326D01*
X168551000Y-142906661D01*
X168551000Y-143743339D01*
X168546535Y-143788674D01*
X168535101Y-143826367D01*
X168516534Y-143861103D01*
X168491548Y-143891548D01*
X168461103Y-143916534D01*
X168426367Y-143935101D01*
X168388674Y-143946535D01*
X168343339Y-143951000D01*
X167256661Y-143951000D01*
X167211326Y-143946535D01*
X167173633Y-143935101D01*
X167138897Y-143916534D01*
X167108452Y-143891548D01*
X167083466Y-143861103D01*
X167064899Y-143826367D01*
X167053465Y-143788674D01*
X167049000Y-143743339D01*
X167049000Y-142906661D01*
X167053465Y-142861326D01*
X167064899Y-142823633D01*
X167083466Y-142788897D01*
X167108452Y-142758452D01*
X167138897Y-142733466D01*
X167173633Y-142714899D01*
X167211326Y-142703465D01*
X167256661Y-142699000D01*
X168343339Y-142699000D01*
X168388674Y-142703465D01*
G37*
G36*
X164588674Y-142703465D02*
G01*
X164626367Y-142714899D01*
X164661103Y-142733466D01*
X164691548Y-142758452D01*
X164716534Y-142788897D01*
X164735101Y-142823633D01*
X164746535Y-142861326D01*
X164751000Y-142906661D01*
X164751000Y-143743339D01*
X164746535Y-143788674D01*
X164735101Y-143826367D01*
X164716534Y-143861103D01*
X164691548Y-143891548D01*
X164661103Y-143916534D01*
X164626367Y-143935101D01*
X164588674Y-143946535D01*
X164543339Y-143951000D01*
X163456661Y-143951000D01*
X163411326Y-143946535D01*
X163373633Y-143935101D01*
X163338897Y-143916534D01*
X163308452Y-143891548D01*
X163283466Y-143861103D01*
X163264899Y-143826367D01*
X163253465Y-143788674D01*
X163249000Y-143743339D01*
X163249000Y-142906661D01*
X163253465Y-142861326D01*
X163264899Y-142823633D01*
X163283466Y-142788897D01*
X163308452Y-142758452D01*
X163338897Y-142733466D01*
X163373633Y-142714899D01*
X163411326Y-142703465D01*
X163456661Y-142699000D01*
X164543339Y-142699000D01*
X164588674Y-142703465D01*
G37*
G36*
X197826000Y-143151000D02*
G01*
X191374000Y-143151000D01*
X191374000Y-135709000D01*
X197826000Y-135709000D01*
X197826000Y-143151000D01*
G37*
G36*
X168388674Y-140653465D02*
G01*
X168426367Y-140664899D01*
X168461103Y-140683466D01*
X168491548Y-140708452D01*
X168516534Y-140738897D01*
X168535101Y-140773633D01*
X168546535Y-140811326D01*
X168551000Y-140856661D01*
X168551000Y-141693339D01*
X168546535Y-141738674D01*
X168535101Y-141776367D01*
X168516534Y-141811103D01*
X168491548Y-141841548D01*
X168461103Y-141866534D01*
X168426367Y-141885101D01*
X168388674Y-141896535D01*
X168343339Y-141901000D01*
X167256661Y-141901000D01*
X167211326Y-141896535D01*
X167173633Y-141885101D01*
X167138897Y-141866534D01*
X167108452Y-141841548D01*
X167083466Y-141811103D01*
X167064899Y-141776367D01*
X167053465Y-141738674D01*
X167049000Y-141693339D01*
X167049000Y-140856661D01*
X167053465Y-140811326D01*
X167064899Y-140773633D01*
X167083466Y-140738897D01*
X167108452Y-140708452D01*
X167138897Y-140683466D01*
X167173633Y-140664899D01*
X167211326Y-140653465D01*
X167256661Y-140649000D01*
X168343339Y-140649000D01*
X168388674Y-140653465D01*
G37*
G36*
X164588674Y-140653465D02*
G01*
X164626367Y-140664899D01*
X164661103Y-140683466D01*
X164691548Y-140708452D01*
X164716534Y-140738897D01*
X164735101Y-140773633D01*
X164746535Y-140811326D01*
X164751000Y-140856661D01*
X164751000Y-141693339D01*
X164746535Y-141738674D01*
X164735101Y-141776367D01*
X164716534Y-141811103D01*
X164691548Y-141841548D01*
X164661103Y-141866534D01*
X164626367Y-141885101D01*
X164588674Y-141896535D01*
X164543339Y-141901000D01*
X163456661Y-141901000D01*
X163411326Y-141896535D01*
X163373633Y-141885101D01*
X163338897Y-141866534D01*
X163308452Y-141841548D01*
X163283466Y-141811103D01*
X163264899Y-141776367D01*
X163253465Y-141738674D01*
X163249000Y-141693339D01*
X163249000Y-140856661D01*
X163253465Y-140811326D01*
X163264899Y-140773633D01*
X163283466Y-140738897D01*
X163308452Y-140708452D01*
X163338897Y-140683466D01*
X163373633Y-140664899D01*
X163411326Y-140653465D01*
X163456661Y-140649000D01*
X164543339Y-140649000D01*
X164588674Y-140653465D01*
G37*
G36*
X177484468Y-140203565D02*
G01*
X177523138Y-140215296D01*
X177558777Y-140234346D01*
X177590017Y-140259983D01*
X177615654Y-140291223D01*
X177634704Y-140326862D01*
X177646435Y-140365532D01*
X177651000Y-140411888D01*
X177651000Y-141063112D01*
X177646435Y-141109468D01*
X177634704Y-141148138D01*
X177615654Y-141183777D01*
X177590017Y-141215017D01*
X177558777Y-141240654D01*
X177523138Y-141259704D01*
X177484468Y-141271435D01*
X177438112Y-141276000D01*
X176361888Y-141276000D01*
X176315532Y-141271435D01*
X176276862Y-141259704D01*
X176241223Y-141240654D01*
X176209983Y-141215017D01*
X176184346Y-141183777D01*
X176165296Y-141148138D01*
X176153565Y-141109468D01*
X176149000Y-141063112D01*
X176149000Y-140411888D01*
X176153565Y-140365532D01*
X176165296Y-140326862D01*
X176184346Y-140291223D01*
X176209983Y-140259983D01*
X176241223Y-140234346D01*
X176276862Y-140215296D01*
X176315532Y-140203565D01*
X176361888Y-140199000D01*
X177438112Y-140199000D01*
X177484468Y-140203565D01*
G37*
G36*
X173909468Y-138653565D02*
G01*
X173948138Y-138665296D01*
X173983777Y-138684346D01*
X174015017Y-138709983D01*
X174040654Y-138741223D01*
X174059704Y-138776862D01*
X174071435Y-138815532D01*
X174076000Y-138861888D01*
X174076000Y-139938112D01*
X174071435Y-139984468D01*
X174059704Y-140023138D01*
X174040654Y-140058777D01*
X174015017Y-140090017D01*
X173983777Y-140115654D01*
X173948138Y-140134704D01*
X173909468Y-140146435D01*
X173863112Y-140151000D01*
X173211888Y-140151000D01*
X173165532Y-140146435D01*
X173126862Y-140134704D01*
X173091223Y-140115654D01*
X173059983Y-140090017D01*
X173034346Y-140058777D01*
X173015296Y-140023138D01*
X173003565Y-139984468D01*
X172999000Y-139938112D01*
X172999000Y-138861888D01*
X173003565Y-138815532D01*
X173015296Y-138776862D01*
X173034346Y-138741223D01*
X173059983Y-138709983D01*
X173091223Y-138684346D01*
X173126862Y-138665296D01*
X173165532Y-138653565D01*
X173211888Y-138649000D01*
X173863112Y-138649000D01*
X173909468Y-138653565D01*
G37*
G36*
X172034468Y-138653565D02*
G01*
X172073138Y-138665296D01*
X172108777Y-138684346D01*
X172140017Y-138709983D01*
X172165654Y-138741223D01*
X172184704Y-138776862D01*
X172196435Y-138815532D01*
X172201000Y-138861888D01*
X172201000Y-139938112D01*
X172196435Y-139984468D01*
X172184704Y-140023138D01*
X172165654Y-140058777D01*
X172140017Y-140090017D01*
X172108777Y-140115654D01*
X172073138Y-140134704D01*
X172034468Y-140146435D01*
X171988112Y-140151000D01*
X171336888Y-140151000D01*
X171290532Y-140146435D01*
X171251862Y-140134704D01*
X171216223Y-140115654D01*
X171184983Y-140090017D01*
X171159346Y-140058777D01*
X171140296Y-140023138D01*
X171128565Y-139984468D01*
X171124000Y-139938112D01*
X171124000Y-138861888D01*
X171128565Y-138815532D01*
X171140296Y-138776862D01*
X171159346Y-138741223D01*
X171184983Y-138709983D01*
X171216223Y-138684346D01*
X171251862Y-138665296D01*
X171290532Y-138653565D01*
X171336888Y-138649000D01*
X171988112Y-138649000D01*
X172034468Y-138653565D01*
G37*
G36*
X164584468Y-138603565D02*
G01*
X164623138Y-138615296D01*
X164658777Y-138634346D01*
X164690017Y-138659983D01*
X164715654Y-138691223D01*
X164734704Y-138726862D01*
X164746435Y-138765532D01*
X164751000Y-138811888D01*
X164751000Y-139463112D01*
X164746435Y-139509468D01*
X164734704Y-139548138D01*
X164715654Y-139583777D01*
X164690017Y-139615017D01*
X164658777Y-139640654D01*
X164623138Y-139659704D01*
X164584468Y-139671435D01*
X164538112Y-139676000D01*
X163461888Y-139676000D01*
X163415532Y-139671435D01*
X163376862Y-139659704D01*
X163341223Y-139640654D01*
X163309983Y-139615017D01*
X163284346Y-139583777D01*
X163265296Y-139548138D01*
X163253565Y-139509468D01*
X163249000Y-139463112D01*
X163249000Y-138811888D01*
X163253565Y-138765532D01*
X163265296Y-138726862D01*
X163284346Y-138691223D01*
X163309983Y-138659983D01*
X163341223Y-138634346D01*
X163376862Y-138615296D01*
X163415532Y-138603565D01*
X163461888Y-138599000D01*
X164538112Y-138599000D01*
X164584468Y-138603565D01*
G37*
G36*
X167284468Y-138603565D02*
G01*
X167323138Y-138615296D01*
X167358777Y-138634346D01*
X167390017Y-138659983D01*
X167415654Y-138691223D01*
X167434704Y-138726862D01*
X167446435Y-138765532D01*
X167451000Y-138811888D01*
X167451000Y-139463112D01*
X167446435Y-139509468D01*
X167434704Y-139548138D01*
X167415654Y-139583777D01*
X167390017Y-139615017D01*
X167358777Y-139640654D01*
X167323138Y-139659704D01*
X167284468Y-139671435D01*
X167238112Y-139676000D01*
X166161888Y-139676000D01*
X166115532Y-139671435D01*
X166076862Y-139659704D01*
X166041223Y-139640654D01*
X166009983Y-139615017D01*
X165984346Y-139583777D01*
X165965296Y-139548138D01*
X165953565Y-139509468D01*
X165949000Y-139463112D01*
X165949000Y-138811888D01*
X165953565Y-138765532D01*
X165965296Y-138726862D01*
X165984346Y-138691223D01*
X166009983Y-138659983D01*
X166041223Y-138634346D01*
X166076862Y-138615296D01*
X166115532Y-138603565D01*
X166161888Y-138599000D01*
X167238112Y-138599000D01*
X167284468Y-138603565D01*
G37*
G36*
X177484468Y-138328565D02*
G01*
X177523138Y-138340296D01*
X177558777Y-138359346D01*
X177590017Y-138384983D01*
X177615654Y-138416223D01*
X177634704Y-138451862D01*
X177646435Y-138490532D01*
X177651000Y-138536888D01*
X177651000Y-139188112D01*
X177646435Y-139234468D01*
X177634704Y-139273138D01*
X177615654Y-139308777D01*
X177590017Y-139340017D01*
X177558777Y-139365654D01*
X177523138Y-139384704D01*
X177484468Y-139396435D01*
X177438112Y-139401000D01*
X176361888Y-139401000D01*
X176315532Y-139396435D01*
X176276862Y-139384704D01*
X176241223Y-139365654D01*
X176209983Y-139340017D01*
X176184346Y-139308777D01*
X176165296Y-139273138D01*
X176153565Y-139234468D01*
X176149000Y-139188112D01*
X176149000Y-138536888D01*
X176153565Y-138490532D01*
X176165296Y-138451862D01*
X176184346Y-138416223D01*
X176209983Y-138384983D01*
X176241223Y-138359346D01*
X176276862Y-138340296D01*
X176315532Y-138328565D01*
X176361888Y-138324000D01*
X177438112Y-138324000D01*
X177484468Y-138328565D01*
G37*
G36*
X124059999Y-137399737D02*
G01*
X124069608Y-137402652D01*
X124078472Y-137407390D01*
X124086237Y-137413763D01*
X124096448Y-137426206D01*
X124103378Y-137436575D01*
X124120705Y-137453902D01*
X124141080Y-137467515D01*
X124163720Y-137476891D01*
X124187753Y-137481671D01*
X124212257Y-137481670D01*
X124236290Y-137476888D01*
X124258929Y-137467510D01*
X124279302Y-137453895D01*
X124296629Y-137436568D01*
X124303558Y-137426198D01*
X124313763Y-137413763D01*
X124321528Y-137407390D01*
X124330392Y-137402652D01*
X124340001Y-137399737D01*
X124356140Y-137398148D01*
X124843861Y-137398148D01*
X124862199Y-137399954D01*
X124874450Y-137400556D01*
X124892869Y-137400556D01*
X124915149Y-137402750D01*
X124999233Y-137419476D01*
X125020660Y-137425976D01*
X125099858Y-137458780D01*
X125105303Y-137461691D01*
X125105309Y-137461693D01*
X125114169Y-137466429D01*
X125114173Y-137466432D01*
X125119614Y-137469340D01*
X125190899Y-137516971D01*
X125208204Y-137531172D01*
X125268828Y-137591796D01*
X125283029Y-137609101D01*
X125330660Y-137680386D01*
X125333568Y-137685827D01*
X125333571Y-137685831D01*
X125338307Y-137694691D01*
X125338309Y-137694697D01*
X125341220Y-137700142D01*
X125374024Y-137779340D01*
X125380524Y-137800767D01*
X125397250Y-137884851D01*
X125399444Y-137907131D01*
X125399444Y-137925550D01*
X125400046Y-137937801D01*
X125401852Y-137956139D01*
X125401852Y-138443862D01*
X125400046Y-138462199D01*
X125399444Y-138474450D01*
X125399444Y-138492869D01*
X125397250Y-138515149D01*
X125380524Y-138599233D01*
X125374024Y-138620660D01*
X125341220Y-138699858D01*
X125338309Y-138705303D01*
X125338307Y-138705309D01*
X125333571Y-138714169D01*
X125333568Y-138714173D01*
X125330660Y-138719614D01*
X125283029Y-138790899D01*
X125268828Y-138808204D01*
X125208204Y-138868828D01*
X125190899Y-138883029D01*
X125119614Y-138930660D01*
X125114173Y-138933568D01*
X125114169Y-138933571D01*
X125105309Y-138938307D01*
X125105303Y-138938309D01*
X125099858Y-138941220D01*
X125020660Y-138974024D01*
X124999233Y-138980524D01*
X124915149Y-138997250D01*
X124892869Y-138999444D01*
X124874450Y-138999444D01*
X124862199Y-139000046D01*
X124843862Y-139001852D01*
X124356140Y-139001852D01*
X124340001Y-139000263D01*
X124330392Y-138997348D01*
X124321528Y-138992610D01*
X124313763Y-138986237D01*
X124303552Y-138973794D01*
X124296622Y-138963425D01*
X124279295Y-138946098D01*
X124258920Y-138932485D01*
X124236280Y-138923109D01*
X124212247Y-138918329D01*
X124187743Y-138918330D01*
X124163710Y-138923112D01*
X124141071Y-138932490D01*
X124120698Y-138946105D01*
X124103371Y-138963432D01*
X124096442Y-138973802D01*
X124086237Y-138986237D01*
X124078472Y-138992610D01*
X124069608Y-138997348D01*
X124059999Y-139000263D01*
X124043860Y-139001852D01*
X123556138Y-139001852D01*
X123537801Y-139000046D01*
X123525550Y-138999444D01*
X123507131Y-138999444D01*
X123484851Y-138997250D01*
X123400767Y-138980524D01*
X123379340Y-138974024D01*
X123300142Y-138941220D01*
X123294697Y-138938309D01*
X123294691Y-138938307D01*
X123285831Y-138933571D01*
X123285827Y-138933568D01*
X123280386Y-138930660D01*
X123209101Y-138883029D01*
X123191796Y-138868828D01*
X123131172Y-138808204D01*
X123116971Y-138790899D01*
X123069340Y-138719614D01*
X123066432Y-138714173D01*
X123066429Y-138714169D01*
X123061693Y-138705309D01*
X123061691Y-138705303D01*
X123058780Y-138699858D01*
X123025976Y-138620660D01*
X123019476Y-138599233D01*
X123002750Y-138515149D01*
X123000556Y-138492869D01*
X123000556Y-138474450D01*
X122999954Y-138462199D01*
X122998148Y-138443862D01*
X122998148Y-137956139D01*
X122999954Y-137937801D01*
X123000556Y-137925550D01*
X123000556Y-137907131D01*
X123002750Y-137884851D01*
X123019476Y-137800767D01*
X123025976Y-137779340D01*
X123058780Y-137700142D01*
X123061691Y-137694697D01*
X123061693Y-137694691D01*
X123066429Y-137685831D01*
X123066432Y-137685827D01*
X123069340Y-137680386D01*
X123116971Y-137609101D01*
X123131172Y-137591796D01*
X123191796Y-137531172D01*
X123209101Y-137516971D01*
X123280386Y-137469340D01*
X123285827Y-137466432D01*
X123285831Y-137466429D01*
X123294691Y-137461693D01*
X123294697Y-137461691D01*
X123300142Y-137458780D01*
X123379340Y-137425976D01*
X123400767Y-137419476D01*
X123484851Y-137402750D01*
X123507131Y-137400556D01*
X123525550Y-137400556D01*
X123537801Y-137399954D01*
X123556139Y-137398148D01*
X124043860Y-137398148D01*
X124059999Y-137399737D01*
G37*
G36*
X169584468Y-137703565D02*
G01*
X169623138Y-137715296D01*
X169658777Y-137734346D01*
X169690017Y-137759983D01*
X169715654Y-137791223D01*
X169734704Y-137826862D01*
X169746435Y-137865532D01*
X169751000Y-137911888D01*
X169751000Y-138563112D01*
X169746435Y-138609468D01*
X169734704Y-138648138D01*
X169715654Y-138683777D01*
X169690017Y-138715017D01*
X169658777Y-138740654D01*
X169623138Y-138759704D01*
X169584468Y-138771435D01*
X169538112Y-138776000D01*
X168461888Y-138776000D01*
X168415532Y-138771435D01*
X168376862Y-138759704D01*
X168341223Y-138740654D01*
X168309983Y-138715017D01*
X168284346Y-138683777D01*
X168265296Y-138648138D01*
X168253565Y-138609468D01*
X168249000Y-138563112D01*
X168249000Y-137911888D01*
X168253565Y-137865532D01*
X168265296Y-137826862D01*
X168284346Y-137791223D01*
X168309983Y-137759983D01*
X168341223Y-137734346D01*
X168376862Y-137715296D01*
X168415532Y-137703565D01*
X168461888Y-137699000D01*
X169538112Y-137699000D01*
X169584468Y-137703565D01*
G37*
G36*
X174800562Y-136078181D02*
G01*
X174835481Y-136088774D01*
X174867663Y-136105976D01*
X174895873Y-136129127D01*
X174919024Y-136157337D01*
X174936226Y-136189519D01*
X174946819Y-136224438D01*
X174951000Y-136266895D01*
X174951000Y-137733105D01*
X174946819Y-137775562D01*
X174936226Y-137810481D01*
X174919024Y-137842663D01*
X174895873Y-137870873D01*
X174867663Y-137894024D01*
X174835481Y-137911226D01*
X174800562Y-137921819D01*
X174758105Y-137926000D01*
X173616895Y-137926000D01*
X173574438Y-137921819D01*
X173539519Y-137911226D01*
X173507337Y-137894024D01*
X173479127Y-137870873D01*
X173455976Y-137842663D01*
X173438774Y-137810481D01*
X173428181Y-137775562D01*
X173424000Y-137733105D01*
X173424000Y-136266895D01*
X173428181Y-136224438D01*
X173438774Y-136189519D01*
X173455976Y-136157337D01*
X173479127Y-136129127D01*
X173507337Y-136105976D01*
X173539519Y-136088774D01*
X173574438Y-136078181D01*
X173616895Y-136074000D01*
X174758105Y-136074000D01*
X174800562Y-136078181D01*
G37*
G36*
X171825562Y-136078181D02*
G01*
X171860481Y-136088774D01*
X171892663Y-136105976D01*
X171920873Y-136129127D01*
X171944024Y-136157337D01*
X171961226Y-136189519D01*
X171971819Y-136224438D01*
X171976000Y-136266895D01*
X171976000Y-137733105D01*
X171971819Y-137775562D01*
X171961226Y-137810481D01*
X171944024Y-137842663D01*
X171920873Y-137870873D01*
X171892663Y-137894024D01*
X171860481Y-137911226D01*
X171825562Y-137921819D01*
X171783105Y-137926000D01*
X170641895Y-137926000D01*
X170599438Y-137921819D01*
X170564519Y-137911226D01*
X170532337Y-137894024D01*
X170504127Y-137870873D01*
X170480976Y-137842663D01*
X170463774Y-137810481D01*
X170453181Y-137775562D01*
X170449000Y-137733105D01*
X170449000Y-136266895D01*
X170453181Y-136224438D01*
X170463774Y-136189519D01*
X170480976Y-136157337D01*
X170504127Y-136129127D01*
X170532337Y-136105976D01*
X170564519Y-136088774D01*
X170599438Y-136078181D01*
X170641895Y-136074000D01*
X171783105Y-136074000D01*
X171825562Y-136078181D01*
G37*
G36*
X179375562Y-136328181D02*
G01*
X179410481Y-136338774D01*
X179442663Y-136355976D01*
X179470873Y-136379127D01*
X179494024Y-136407337D01*
X179511226Y-136439519D01*
X179521819Y-136474438D01*
X179526000Y-136516895D01*
X179526000Y-137658105D01*
X179521819Y-137700562D01*
X179511226Y-137735481D01*
X179494024Y-137767663D01*
X179470873Y-137795873D01*
X179442663Y-137819024D01*
X179410481Y-137836226D01*
X179375562Y-137846819D01*
X179333105Y-137851000D01*
X177866895Y-137851000D01*
X177824438Y-137846819D01*
X177789519Y-137836226D01*
X177757337Y-137819024D01*
X177729127Y-137795873D01*
X177705976Y-137767663D01*
X177688774Y-137735481D01*
X177678181Y-137700562D01*
X177674000Y-137658105D01*
X177674000Y-136516895D01*
X177678181Y-136474438D01*
X177688774Y-136439519D01*
X177705976Y-136407337D01*
X177729127Y-136379127D01*
X177757337Y-136355976D01*
X177789519Y-136338774D01*
X177824438Y-136328181D01*
X177866895Y-136324000D01*
X179333105Y-136324000D01*
X179375562Y-136328181D01*
G37*
G36*
X164584468Y-136728565D02*
G01*
X164623138Y-136740296D01*
X164658777Y-136759346D01*
X164690017Y-136784983D01*
X164715654Y-136816223D01*
X164734704Y-136851862D01*
X164746435Y-136890532D01*
X164751000Y-136936888D01*
X164751000Y-137588112D01*
X164746435Y-137634468D01*
X164734704Y-137673138D01*
X164715654Y-137708777D01*
X164690017Y-137740017D01*
X164658777Y-137765654D01*
X164623138Y-137784704D01*
X164584468Y-137796435D01*
X164538112Y-137801000D01*
X163461888Y-137801000D01*
X163415532Y-137796435D01*
X163376862Y-137784704D01*
X163341223Y-137765654D01*
X163309983Y-137740017D01*
X163284346Y-137708777D01*
X163265296Y-137673138D01*
X163253565Y-137634468D01*
X163249000Y-137588112D01*
X163249000Y-136936888D01*
X163253565Y-136890532D01*
X163265296Y-136851862D01*
X163284346Y-136816223D01*
X163309983Y-136784983D01*
X163341223Y-136759346D01*
X163376862Y-136740296D01*
X163415532Y-136728565D01*
X163461888Y-136724000D01*
X164538112Y-136724000D01*
X164584468Y-136728565D01*
G37*
G36*
X167284468Y-136728565D02*
G01*
X167323138Y-136740296D01*
X167358777Y-136759346D01*
X167390017Y-136784983D01*
X167415654Y-136816223D01*
X167434704Y-136851862D01*
X167446435Y-136890532D01*
X167451000Y-136936888D01*
X167451000Y-137588112D01*
X167446435Y-137634468D01*
X167434704Y-137673138D01*
X167415654Y-137708777D01*
X167390017Y-137740017D01*
X167358777Y-137765654D01*
X167323138Y-137784704D01*
X167284468Y-137796435D01*
X167238112Y-137801000D01*
X166161888Y-137801000D01*
X166115532Y-137796435D01*
X166076862Y-137784704D01*
X166041223Y-137765654D01*
X166009983Y-137740017D01*
X165984346Y-137708777D01*
X165965296Y-137673138D01*
X165953565Y-137634468D01*
X165949000Y-137588112D01*
X165949000Y-136936888D01*
X165953565Y-136890532D01*
X165965296Y-136851862D01*
X165984346Y-136816223D01*
X166009983Y-136784983D01*
X166041223Y-136759346D01*
X166076862Y-136740296D01*
X166115532Y-136728565D01*
X166161888Y-136724000D01*
X167238112Y-136724000D01*
X167284468Y-136728565D01*
G37*
G36*
X148241000Y-137401000D02*
G01*
X146439000Y-137401000D01*
X146439000Y-135599000D01*
X148241000Y-135599000D01*
X148241000Y-137401000D01*
G37*
G36*
X144913512Y-135603927D02*
G01*
X145062812Y-135633624D01*
X145226784Y-135701544D01*
X145374354Y-135800147D01*
X145499853Y-135925646D01*
X145598456Y-136073216D01*
X145666376Y-136237188D01*
X145693594Y-136374024D01*
X145697457Y-136393444D01*
X145701000Y-136411259D01*
X145701000Y-136588741D01*
X145666376Y-136762812D01*
X145598456Y-136926784D01*
X145499853Y-137074354D01*
X145374354Y-137199853D01*
X145226784Y-137298456D01*
X145062812Y-137366376D01*
X144913512Y-137396073D01*
X144888742Y-137401000D01*
X144711258Y-137401000D01*
X144686488Y-137396073D01*
X144537188Y-137366376D01*
X144373216Y-137298456D01*
X144225646Y-137199853D01*
X144100147Y-137074354D01*
X144001544Y-136926784D01*
X143933624Y-136762812D01*
X143899000Y-136588741D01*
X143899000Y-136411259D01*
X143902544Y-136393444D01*
X143906406Y-136374024D01*
X143933624Y-136237188D01*
X144001544Y-136073216D01*
X144100147Y-135925646D01*
X144225646Y-135800147D01*
X144373216Y-135701544D01*
X144537188Y-135633624D01*
X144686488Y-135603927D01*
X144711258Y-135599000D01*
X144888742Y-135599000D01*
X144913512Y-135603927D01*
G37*
G36*
X142373512Y-135603927D02*
G01*
X142522812Y-135633624D01*
X142686784Y-135701544D01*
X142834354Y-135800147D01*
X142959853Y-135925646D01*
X143058456Y-136073216D01*
X143126376Y-136237188D01*
X143153594Y-136374024D01*
X143157457Y-136393444D01*
X143161000Y-136411259D01*
X143161000Y-136588741D01*
X143126376Y-136762812D01*
X143058456Y-136926784D01*
X142959853Y-137074354D01*
X142834354Y-137199853D01*
X142686784Y-137298456D01*
X142522812Y-137366376D01*
X142373512Y-137396073D01*
X142348742Y-137401000D01*
X142171258Y-137401000D01*
X142146488Y-137396073D01*
X141997188Y-137366376D01*
X141833216Y-137298456D01*
X141685646Y-137199853D01*
X141560147Y-137074354D01*
X141461544Y-136926784D01*
X141393624Y-136762812D01*
X141359000Y-136588741D01*
X141359000Y-136411259D01*
X141362544Y-136393444D01*
X141366406Y-136374024D01*
X141393624Y-136237188D01*
X141461544Y-136073216D01*
X141560147Y-135925646D01*
X141685646Y-135800147D01*
X141833216Y-135701544D01*
X141997188Y-135633624D01*
X142146488Y-135603927D01*
X142171258Y-135599000D01*
X142348742Y-135599000D01*
X142373512Y-135603927D01*
G37*
G36*
X186963444Y-134831882D02*
G01*
X187190201Y-134925808D01*
X187257919Y-134971056D01*
X187394279Y-135062168D01*
X187567832Y-135235721D01*
X187615546Y-135307131D01*
X187704192Y-135439799D01*
X187798118Y-135666556D01*
X187846000Y-135907278D01*
X187846000Y-136152722D01*
X187798118Y-136393444D01*
X187704192Y-136620201D01*
X187704191Y-136620202D01*
X187567832Y-136824279D01*
X187394279Y-136997832D01*
X187279756Y-137074353D01*
X187190201Y-137134192D01*
X186963444Y-137228118D01*
X186722722Y-137276000D01*
X186477278Y-137276000D01*
X186236556Y-137228118D01*
X186009799Y-137134192D01*
X185920244Y-137074353D01*
X185805721Y-136997832D01*
X185632168Y-136824279D01*
X185495809Y-136620202D01*
X185495808Y-136620201D01*
X185401882Y-136393444D01*
X185354000Y-136152722D01*
X185354000Y-135907278D01*
X185401882Y-135666556D01*
X185495808Y-135439799D01*
X185584454Y-135307131D01*
X185632168Y-135235721D01*
X185805721Y-135062168D01*
X185942081Y-134971056D01*
X186009799Y-134925808D01*
X186236556Y-134831882D01*
X186477278Y-134784000D01*
X186722722Y-134784000D01*
X186963444Y-134831882D01*
G37*
G36*
X169584468Y-135828565D02*
G01*
X169623138Y-135840296D01*
X169658777Y-135859346D01*
X169690017Y-135884983D01*
X169715654Y-135916223D01*
X169734704Y-135951862D01*
X169746435Y-135990532D01*
X169751000Y-136036888D01*
X169751000Y-136688112D01*
X169746435Y-136734468D01*
X169734704Y-136773138D01*
X169715654Y-136808777D01*
X169690017Y-136840017D01*
X169658777Y-136865654D01*
X169623138Y-136884704D01*
X169584468Y-136896435D01*
X169538112Y-136901000D01*
X168461888Y-136901000D01*
X168415532Y-136896435D01*
X168376862Y-136884704D01*
X168341223Y-136865654D01*
X168309983Y-136840017D01*
X168284346Y-136808777D01*
X168265296Y-136773138D01*
X168253565Y-136734468D01*
X168249000Y-136688112D01*
X168249000Y-136036888D01*
X168253565Y-135990532D01*
X168265296Y-135951862D01*
X168284346Y-135916223D01*
X168309983Y-135884983D01*
X168341223Y-135859346D01*
X168376862Y-135840296D01*
X168415532Y-135828565D01*
X168461888Y-135824000D01*
X169538112Y-135824000D01*
X169584468Y-135828565D01*
G37*
G36*
X115109999Y-134799737D02*
G01*
X115119608Y-134802652D01*
X115128472Y-134807390D01*
X115136237Y-134813763D01*
X115142082Y-134820885D01*
X115146448Y-134826206D01*
X115153378Y-134836575D01*
X115170705Y-134853902D01*
X115191080Y-134867515D01*
X115213720Y-134876891D01*
X115237753Y-134881671D01*
X115262257Y-134881670D01*
X115286290Y-134876888D01*
X115308929Y-134867510D01*
X115329302Y-134853895D01*
X115346629Y-134836568D01*
X115353558Y-134826198D01*
X115363763Y-134813763D01*
X115371528Y-134807390D01*
X115380392Y-134802652D01*
X115390001Y-134799737D01*
X115406140Y-134798148D01*
X115893861Y-134798148D01*
X115912199Y-134799954D01*
X115924450Y-134800556D01*
X115942869Y-134800556D01*
X115965149Y-134802750D01*
X116049233Y-134819476D01*
X116070660Y-134825976D01*
X116149858Y-134858780D01*
X116155303Y-134861691D01*
X116155309Y-134861693D01*
X116164169Y-134866429D01*
X116164173Y-134866432D01*
X116169614Y-134869340D01*
X116240899Y-134916971D01*
X116258204Y-134931172D01*
X116318828Y-134991796D01*
X116333029Y-135009101D01*
X116380660Y-135080386D01*
X116383568Y-135085827D01*
X116383571Y-135085831D01*
X116388307Y-135094691D01*
X116388309Y-135094697D01*
X116391220Y-135100142D01*
X116424024Y-135179340D01*
X116430524Y-135200767D01*
X116447250Y-135284851D01*
X116449444Y-135307131D01*
X116449444Y-135325550D01*
X116450046Y-135337801D01*
X116451852Y-135356139D01*
X116451852Y-135843862D01*
X116450046Y-135862199D01*
X116449444Y-135874450D01*
X116449444Y-135892869D01*
X116447250Y-135915149D01*
X116430524Y-135999233D01*
X116424024Y-136020660D01*
X116391220Y-136099858D01*
X116388309Y-136105304D01*
X116388307Y-136105309D01*
X116383571Y-136114169D01*
X116380662Y-136119611D01*
X116333029Y-136190899D01*
X116318828Y-136208204D01*
X116258204Y-136268828D01*
X116240899Y-136283029D01*
X116169614Y-136330660D01*
X116164173Y-136333568D01*
X116164169Y-136333571D01*
X116155309Y-136338307D01*
X116155303Y-136338309D01*
X116149858Y-136341220D01*
X116070660Y-136374024D01*
X116049233Y-136380524D01*
X115965149Y-136397250D01*
X115942869Y-136399444D01*
X115924450Y-136399444D01*
X115912199Y-136400046D01*
X115893862Y-136401852D01*
X115406140Y-136401852D01*
X115390001Y-136400263D01*
X115380392Y-136397348D01*
X115371528Y-136392610D01*
X115363763Y-136386237D01*
X115353552Y-136373794D01*
X115346622Y-136363425D01*
X115329295Y-136346098D01*
X115308920Y-136332485D01*
X115286280Y-136323109D01*
X115262247Y-136318329D01*
X115237743Y-136318330D01*
X115213710Y-136323112D01*
X115191071Y-136332490D01*
X115170698Y-136346105D01*
X115153371Y-136363432D01*
X115146442Y-136373802D01*
X115136237Y-136386237D01*
X115128472Y-136392610D01*
X115119608Y-136397348D01*
X115109999Y-136400263D01*
X115093860Y-136401852D01*
X114606138Y-136401852D01*
X114587801Y-136400046D01*
X114575550Y-136399444D01*
X114557131Y-136399444D01*
X114534851Y-136397250D01*
X114450767Y-136380524D01*
X114429340Y-136374024D01*
X114350142Y-136341220D01*
X114344697Y-136338309D01*
X114344691Y-136338307D01*
X114335831Y-136333571D01*
X114335827Y-136333568D01*
X114330386Y-136330660D01*
X114259101Y-136283029D01*
X114241796Y-136268828D01*
X114181172Y-136208204D01*
X114166971Y-136190899D01*
X114119338Y-136119611D01*
X114116429Y-136114169D01*
X114111693Y-136105309D01*
X114111691Y-136105304D01*
X114108780Y-136099858D01*
X114075976Y-136020660D01*
X114069476Y-135999233D01*
X114052750Y-135915149D01*
X114050556Y-135892869D01*
X114050556Y-135874450D01*
X114049954Y-135862199D01*
X114048148Y-135843862D01*
X114048148Y-135356139D01*
X114049954Y-135337801D01*
X114050556Y-135325550D01*
X114050556Y-135307131D01*
X114052750Y-135284851D01*
X114069476Y-135200767D01*
X114075976Y-135179340D01*
X114108780Y-135100142D01*
X114111691Y-135094697D01*
X114111693Y-135094691D01*
X114116429Y-135085831D01*
X114116432Y-135085827D01*
X114119340Y-135080386D01*
X114166971Y-135009101D01*
X114181172Y-134991796D01*
X114241796Y-134931172D01*
X114259101Y-134916971D01*
X114330386Y-134869340D01*
X114335827Y-134866432D01*
X114335831Y-134866429D01*
X114344691Y-134861693D01*
X114344697Y-134861691D01*
X114350142Y-134858780D01*
X114429340Y-134825976D01*
X114450767Y-134819476D01*
X114534851Y-134802750D01*
X114557131Y-134800556D01*
X114575550Y-134800556D01*
X114587801Y-134799954D01*
X114606139Y-134798148D01*
X115093860Y-134798148D01*
X115109999Y-134799737D01*
G37*
G36*
X119713512Y-134523927D02*
G01*
X119862812Y-134553624D01*
X120026784Y-134621544D01*
X120174354Y-134720147D01*
X120299853Y-134845646D01*
X120398456Y-134993216D01*
X120466376Y-135157188D01*
X120482848Y-135240002D01*
X120499865Y-135325550D01*
X120501000Y-135331259D01*
X120501000Y-135508741D01*
X120466376Y-135682812D01*
X120398456Y-135846784D01*
X120299853Y-135994354D01*
X120174354Y-136119853D01*
X120026784Y-136218456D01*
X119862812Y-136286376D01*
X119713512Y-136316073D01*
X119688742Y-136321000D01*
X119511258Y-136321000D01*
X119486488Y-136316073D01*
X119337188Y-136286376D01*
X119173216Y-136218456D01*
X119025646Y-136119853D01*
X118900147Y-135994354D01*
X118801544Y-135846784D01*
X118733624Y-135682812D01*
X118699000Y-135508741D01*
X118699000Y-135331259D01*
X118700136Y-135325550D01*
X118717152Y-135240002D01*
X118733624Y-135157188D01*
X118801544Y-134993216D01*
X118900147Y-134845646D01*
X119025646Y-134720147D01*
X119173216Y-134621544D01*
X119337188Y-134553624D01*
X119486488Y-134523927D01*
X119511258Y-134519000D01*
X119688742Y-134519000D01*
X119713512Y-134523927D01*
G37*
G36*
X124059999Y-134699737D02*
G01*
X124069608Y-134702652D01*
X124078472Y-134707390D01*
X124086237Y-134713763D01*
X124096448Y-134726206D01*
X124103378Y-134736575D01*
X124120705Y-134753902D01*
X124141080Y-134767515D01*
X124163720Y-134776891D01*
X124187753Y-134781671D01*
X124212257Y-134781670D01*
X124236290Y-134776888D01*
X124258929Y-134767510D01*
X124279302Y-134753895D01*
X124296629Y-134736568D01*
X124303558Y-134726198D01*
X124313763Y-134713763D01*
X124321528Y-134707390D01*
X124330392Y-134702652D01*
X124340001Y-134699737D01*
X124356140Y-134698148D01*
X124843861Y-134698148D01*
X124862199Y-134699954D01*
X124874450Y-134700556D01*
X124892869Y-134700556D01*
X124915149Y-134702750D01*
X124999233Y-134719476D01*
X125020660Y-134725976D01*
X125099858Y-134758780D01*
X125105303Y-134761691D01*
X125105309Y-134761693D01*
X125114169Y-134766429D01*
X125114173Y-134766432D01*
X125119614Y-134769340D01*
X125190899Y-134816971D01*
X125208204Y-134831172D01*
X125268828Y-134891796D01*
X125283029Y-134909101D01*
X125330660Y-134980386D01*
X125333568Y-134985827D01*
X125333571Y-134985831D01*
X125338307Y-134994691D01*
X125338309Y-134994697D01*
X125341220Y-135000142D01*
X125374024Y-135079340D01*
X125380524Y-135100767D01*
X125397250Y-135184851D01*
X125399444Y-135207131D01*
X125399444Y-135225550D01*
X125400046Y-135237801D01*
X125401852Y-135256139D01*
X125401852Y-135743862D01*
X125400046Y-135762199D01*
X125399444Y-135774450D01*
X125399444Y-135792869D01*
X125397250Y-135815149D01*
X125380524Y-135899233D01*
X125374024Y-135920660D01*
X125341220Y-135999858D01*
X125338309Y-136005303D01*
X125338307Y-136005309D01*
X125333571Y-136014169D01*
X125333568Y-136014173D01*
X125330660Y-136019614D01*
X125283029Y-136090899D01*
X125268828Y-136108204D01*
X125208204Y-136168828D01*
X125190899Y-136183029D01*
X125119614Y-136230660D01*
X125114173Y-136233568D01*
X125114169Y-136233571D01*
X125105309Y-136238307D01*
X125105303Y-136238309D01*
X125099858Y-136241220D01*
X125020660Y-136274024D01*
X124999233Y-136280524D01*
X124915149Y-136297250D01*
X124892869Y-136299444D01*
X124874450Y-136299444D01*
X124862199Y-136300046D01*
X124843862Y-136301852D01*
X124356140Y-136301852D01*
X124340001Y-136300263D01*
X124330392Y-136297348D01*
X124321528Y-136292610D01*
X124313763Y-136286237D01*
X124309075Y-136280524D01*
X124307390Y-136278471D01*
X124303552Y-136273794D01*
X124296622Y-136263425D01*
X124279295Y-136246098D01*
X124258920Y-136232485D01*
X124236280Y-136223109D01*
X124212247Y-136218329D01*
X124187743Y-136218330D01*
X124163710Y-136223112D01*
X124141071Y-136232490D01*
X124120698Y-136246105D01*
X124103371Y-136263432D01*
X124096442Y-136273802D01*
X124086237Y-136286237D01*
X124078472Y-136292610D01*
X124069608Y-136297348D01*
X124059999Y-136300263D01*
X124043860Y-136301852D01*
X123556138Y-136301852D01*
X123537801Y-136300046D01*
X123525550Y-136299444D01*
X123507131Y-136299444D01*
X123484851Y-136297250D01*
X123400767Y-136280524D01*
X123379340Y-136274024D01*
X123300142Y-136241220D01*
X123294697Y-136238309D01*
X123294691Y-136238307D01*
X123285831Y-136233571D01*
X123285827Y-136233568D01*
X123280386Y-136230660D01*
X123209101Y-136183029D01*
X123191796Y-136168828D01*
X123131172Y-136108204D01*
X123116971Y-136090899D01*
X123069340Y-136019614D01*
X123066432Y-136014173D01*
X123066429Y-136014169D01*
X123061693Y-136005309D01*
X123061691Y-136005303D01*
X123058780Y-135999858D01*
X123025976Y-135920660D01*
X123019476Y-135899233D01*
X123002750Y-135815149D01*
X123000556Y-135792869D01*
X123000556Y-135774450D01*
X122999954Y-135762199D01*
X122998148Y-135743862D01*
X122998148Y-135256139D01*
X122999954Y-135237801D01*
X123000556Y-135225550D01*
X123000556Y-135207131D01*
X123002750Y-135184851D01*
X123019476Y-135100767D01*
X123025976Y-135079340D01*
X123058780Y-135000142D01*
X123061691Y-134994697D01*
X123061693Y-134994691D01*
X123066429Y-134985831D01*
X123066432Y-134985827D01*
X123069340Y-134980386D01*
X123116971Y-134909101D01*
X123131172Y-134891796D01*
X123191796Y-134831172D01*
X123209101Y-134816971D01*
X123280386Y-134769340D01*
X123285827Y-134766432D01*
X123285831Y-134766429D01*
X123294691Y-134761693D01*
X123294697Y-134761691D01*
X123300142Y-134758780D01*
X123379340Y-134725976D01*
X123400767Y-134719476D01*
X123484851Y-134702750D01*
X123507131Y-134700556D01*
X123525550Y-134700556D01*
X123537801Y-134699954D01*
X123556139Y-134698148D01*
X124043860Y-134698148D01*
X124059999Y-134699737D01*
G37*
G36*
X179375562Y-133353181D02*
G01*
X179410481Y-133363774D01*
X179442663Y-133380976D01*
X179470873Y-133404127D01*
X179494024Y-133432337D01*
X179511226Y-133464519D01*
X179521819Y-133499438D01*
X179526000Y-133541895D01*
X179526000Y-134683105D01*
X179521819Y-134725562D01*
X179511226Y-134760481D01*
X179494024Y-134792663D01*
X179470873Y-134820873D01*
X179442663Y-134844024D01*
X179410481Y-134861226D01*
X179375562Y-134871819D01*
X179333105Y-134876000D01*
X177866895Y-134876000D01*
X177824438Y-134871819D01*
X177789519Y-134861226D01*
X177757337Y-134844024D01*
X177729127Y-134820873D01*
X177705976Y-134792663D01*
X177688774Y-134760481D01*
X177678181Y-134725562D01*
X177674000Y-134683105D01*
X177674000Y-133541895D01*
X177678181Y-133499438D01*
X177688774Y-133464519D01*
X177705976Y-133432337D01*
X177729127Y-133404127D01*
X177757337Y-133380976D01*
X177789519Y-133363774D01*
X177824438Y-133353181D01*
X177866895Y-133349000D01*
X179333105Y-133349000D01*
X179375562Y-133353181D01*
G37*
G36*
X172405355Y-130475083D02*
G01*
X172410029Y-130476501D01*
X172414330Y-130478800D01*
X172420702Y-130484029D01*
X172441076Y-130497643D01*
X172463715Y-130507020D01*
X172487749Y-130511800D01*
X172512253Y-130511800D01*
X172536286Y-130507019D01*
X172558925Y-130497642D01*
X172579298Y-130484029D01*
X172585670Y-130478800D01*
X172589971Y-130476501D01*
X172594645Y-130475083D01*
X172605641Y-130474000D01*
X172894359Y-130474000D01*
X172905355Y-130475083D01*
X172910029Y-130476501D01*
X172914330Y-130478800D01*
X172920702Y-130484029D01*
X172941076Y-130497643D01*
X172963715Y-130507020D01*
X172987749Y-130511800D01*
X173012253Y-130511800D01*
X173036286Y-130507019D01*
X173058925Y-130497642D01*
X173079298Y-130484029D01*
X173085670Y-130478800D01*
X173089971Y-130476501D01*
X173094645Y-130475083D01*
X173105641Y-130474000D01*
X173394359Y-130474000D01*
X173405355Y-130475083D01*
X173410029Y-130476501D01*
X173414330Y-130478800D01*
X173420702Y-130484029D01*
X173441076Y-130497643D01*
X173463715Y-130507020D01*
X173487749Y-130511800D01*
X173512253Y-130511800D01*
X173536286Y-130507019D01*
X173558925Y-130497642D01*
X173579298Y-130484029D01*
X173585670Y-130478800D01*
X173589971Y-130476501D01*
X173594645Y-130475083D01*
X173605641Y-130474000D01*
X173894359Y-130474000D01*
X173905355Y-130475083D01*
X173910029Y-130476501D01*
X173914331Y-130478800D01*
X173918104Y-130481896D01*
X173921200Y-130485669D01*
X173923499Y-130489971D01*
X173924917Y-130494645D01*
X173926000Y-130505641D01*
X173926000Y-131349001D01*
X173928402Y-131373387D01*
X173935515Y-131396836D01*
X173947066Y-131418447D01*
X173962611Y-131437389D01*
X173981553Y-131452934D01*
X174003164Y-131464485D01*
X174026613Y-131471598D01*
X174050999Y-131474000D01*
X174894359Y-131474000D01*
X174905355Y-131475083D01*
X174910029Y-131476501D01*
X174914331Y-131478800D01*
X174918104Y-131481896D01*
X174921200Y-131485669D01*
X174923499Y-131489971D01*
X174924917Y-131494645D01*
X174926000Y-131505641D01*
X174926000Y-131794359D01*
X174924917Y-131805355D01*
X174923499Y-131810029D01*
X174921200Y-131814330D01*
X174915971Y-131820702D01*
X174902357Y-131841076D01*
X174892980Y-131863715D01*
X174888200Y-131887749D01*
X174888200Y-131912253D01*
X174892981Y-131936286D01*
X174902358Y-131958925D01*
X174915971Y-131979298D01*
X174921200Y-131985670D01*
X174923499Y-131989971D01*
X174924917Y-131994645D01*
X174926000Y-132005641D01*
X174926000Y-132294359D01*
X174924917Y-132305355D01*
X174923499Y-132310029D01*
X174921200Y-132314330D01*
X174915971Y-132320702D01*
X174902357Y-132341076D01*
X174892980Y-132363715D01*
X174888200Y-132387749D01*
X174888200Y-132412253D01*
X174892981Y-132436286D01*
X174902358Y-132458925D01*
X174915971Y-132479298D01*
X174921200Y-132485670D01*
X174923499Y-132489971D01*
X174924917Y-132494645D01*
X174926000Y-132505641D01*
X174926000Y-132794359D01*
X174924917Y-132805355D01*
X174923499Y-132810029D01*
X174921200Y-132814330D01*
X174915971Y-132820702D01*
X174902357Y-132841076D01*
X174892980Y-132863715D01*
X174888200Y-132887749D01*
X174888200Y-132912253D01*
X174892981Y-132936286D01*
X174902358Y-132958925D01*
X174915971Y-132979298D01*
X174921200Y-132985670D01*
X174923499Y-132989971D01*
X174924917Y-132994645D01*
X174926000Y-133005641D01*
X174926000Y-133294359D01*
X174924917Y-133305355D01*
X174923499Y-133310029D01*
X174921200Y-133314331D01*
X174918104Y-133318104D01*
X174914331Y-133321200D01*
X174910029Y-133323499D01*
X174905355Y-133324917D01*
X174894359Y-133326000D01*
X174050999Y-133326000D01*
X174026613Y-133328402D01*
X174003164Y-133335515D01*
X173981553Y-133347066D01*
X173962611Y-133362611D01*
X173947066Y-133381553D01*
X173935515Y-133403164D01*
X173928402Y-133426613D01*
X173926000Y-133450999D01*
X173926000Y-134294359D01*
X173924917Y-134305355D01*
X173923499Y-134310029D01*
X173921200Y-134314331D01*
X173918104Y-134318104D01*
X173914331Y-134321200D01*
X173910029Y-134323499D01*
X173905355Y-134324917D01*
X173894359Y-134326000D01*
X173605641Y-134326000D01*
X173594645Y-134324917D01*
X173589971Y-134323499D01*
X173585670Y-134321200D01*
X173579298Y-134315971D01*
X173558924Y-134302357D01*
X173536285Y-134292980D01*
X173512251Y-134288200D01*
X173487747Y-134288200D01*
X173463714Y-134292981D01*
X173441075Y-134302358D01*
X173420702Y-134315971D01*
X173414330Y-134321200D01*
X173410029Y-134323499D01*
X173405355Y-134324917D01*
X173394359Y-134326000D01*
X173105641Y-134326000D01*
X173094645Y-134324917D01*
X173089971Y-134323499D01*
X173085670Y-134321200D01*
X173079298Y-134315971D01*
X173058924Y-134302357D01*
X173036285Y-134292980D01*
X173012251Y-134288200D01*
X172987747Y-134288200D01*
X172963714Y-134292981D01*
X172941075Y-134302358D01*
X172920702Y-134315971D01*
X172914330Y-134321200D01*
X172910029Y-134323499D01*
X172905355Y-134324917D01*
X172894359Y-134326000D01*
X172605641Y-134326000D01*
X172594645Y-134324917D01*
X172589971Y-134323499D01*
X172585670Y-134321200D01*
X172579298Y-134315971D01*
X172558924Y-134302357D01*
X172536285Y-134292980D01*
X172512251Y-134288200D01*
X172487747Y-134288200D01*
X172463714Y-134292981D01*
X172441075Y-134302358D01*
X172420702Y-134315971D01*
X172414330Y-134321200D01*
X172410029Y-134323499D01*
X172405355Y-134324917D01*
X172394359Y-134326000D01*
X172105641Y-134326000D01*
X172094645Y-134324917D01*
X172089971Y-134323499D01*
X172085669Y-134321200D01*
X172081896Y-134318104D01*
X172078800Y-134314331D01*
X172076501Y-134310029D01*
X172075083Y-134305355D01*
X172074000Y-134294359D01*
X172074000Y-133450999D01*
X172071598Y-133426613D01*
X172064485Y-133403164D01*
X172052934Y-133381553D01*
X172037389Y-133362611D01*
X172018447Y-133347066D01*
X171996836Y-133335515D01*
X171973387Y-133328402D01*
X171949001Y-133326000D01*
X171105641Y-133326000D01*
X171094645Y-133324917D01*
X171089971Y-133323499D01*
X171085669Y-133321200D01*
X171081896Y-133318104D01*
X171078800Y-133314331D01*
X171076501Y-133310029D01*
X171075083Y-133305355D01*
X171074000Y-133294359D01*
X171074000Y-133005641D01*
X171075083Y-132994645D01*
X171076501Y-132989971D01*
X171078800Y-132985670D01*
X171084029Y-132979298D01*
X171097643Y-132958924D01*
X171107020Y-132936285D01*
X171111800Y-132912251D01*
X171111800Y-132887747D01*
X171107019Y-132863714D01*
X171097642Y-132841075D01*
X171084029Y-132820702D01*
X171078800Y-132814330D01*
X171076501Y-132810029D01*
X171075083Y-132805355D01*
X171074000Y-132794359D01*
X171074000Y-132505641D01*
X171075083Y-132494645D01*
X171076501Y-132489971D01*
X171078800Y-132485670D01*
X171084029Y-132479298D01*
X171097643Y-132458924D01*
X171107020Y-132436285D01*
X171111800Y-132412251D01*
X171111800Y-132387747D01*
X171107019Y-132363714D01*
X171097642Y-132341075D01*
X171084029Y-132320702D01*
X171078800Y-132314330D01*
X171076501Y-132310029D01*
X171075083Y-132305355D01*
X171074000Y-132294359D01*
X171074000Y-132005641D01*
X171075083Y-131994645D01*
X171076501Y-131989971D01*
X171078800Y-131985670D01*
X171084029Y-131979298D01*
X171097643Y-131958924D01*
X171107020Y-131936285D01*
X171111800Y-131912251D01*
X171111800Y-131887747D01*
X171107019Y-131863714D01*
X171097642Y-131841075D01*
X171084029Y-131820702D01*
X171078800Y-131814330D01*
X171076501Y-131810029D01*
X171075083Y-131805355D01*
X171074000Y-131794359D01*
X171074000Y-131505641D01*
X171075083Y-131494645D01*
X171076501Y-131489971D01*
X171078800Y-131485669D01*
X171081896Y-131481896D01*
X171085669Y-131478800D01*
X171089971Y-131476501D01*
X171094645Y-131475083D01*
X171105641Y-131474000D01*
X171949001Y-131474000D01*
X171973387Y-131471598D01*
X171996836Y-131464485D01*
X172018447Y-131452934D01*
X172037389Y-131437389D01*
X172052934Y-131418447D01*
X172064485Y-131396836D01*
X172071598Y-131373387D01*
X172074000Y-131349001D01*
X172074000Y-130505641D01*
X172075083Y-130494645D01*
X172076501Y-130489971D01*
X172078800Y-130485669D01*
X172081896Y-130481896D01*
X172085669Y-130478800D01*
X172089971Y-130476501D01*
X172094645Y-130475083D01*
X172105641Y-130474000D01*
X172394359Y-130474000D01*
X172405355Y-130475083D01*
G37*
G36*
X168109468Y-132653565D02*
G01*
X168148138Y-132665296D01*
X168183777Y-132684346D01*
X168215017Y-132709983D01*
X168240654Y-132741223D01*
X168259704Y-132776862D01*
X168271435Y-132815532D01*
X168276000Y-132861888D01*
X168276000Y-133938112D01*
X168271435Y-133984468D01*
X168259704Y-134023138D01*
X168240654Y-134058777D01*
X168215017Y-134090017D01*
X168183777Y-134115654D01*
X168148138Y-134134704D01*
X168109468Y-134146435D01*
X168063112Y-134151000D01*
X167411888Y-134151000D01*
X167365532Y-134146435D01*
X167326862Y-134134704D01*
X167291223Y-134115654D01*
X167259983Y-134090017D01*
X167234346Y-134058777D01*
X167215296Y-134023138D01*
X167203565Y-133984468D01*
X167199000Y-133938112D01*
X167199000Y-132861888D01*
X167203565Y-132815532D01*
X167215296Y-132776862D01*
X167234346Y-132741223D01*
X167259983Y-132709983D01*
X167291223Y-132684346D01*
X167326862Y-132665296D01*
X167365532Y-132653565D01*
X167411888Y-132649000D01*
X168063112Y-132649000D01*
X168109468Y-132653565D01*
G37*
G36*
X166234468Y-132653565D02*
G01*
X166273138Y-132665296D01*
X166308777Y-132684346D01*
X166340017Y-132709983D01*
X166365654Y-132741223D01*
X166384704Y-132776862D01*
X166396435Y-132815532D01*
X166401000Y-132861888D01*
X166401000Y-133938112D01*
X166396435Y-133984468D01*
X166384704Y-134023138D01*
X166365654Y-134058777D01*
X166340017Y-134090017D01*
X166308777Y-134115654D01*
X166273138Y-134134704D01*
X166234468Y-134146435D01*
X166188112Y-134151000D01*
X165536888Y-134151000D01*
X165490532Y-134146435D01*
X165451862Y-134134704D01*
X165416223Y-134115654D01*
X165384983Y-134090017D01*
X165359346Y-134058777D01*
X165340296Y-134023138D01*
X165328565Y-133984468D01*
X165324000Y-133938112D01*
X165324000Y-132861888D01*
X165328565Y-132815532D01*
X165340296Y-132776862D01*
X165359346Y-132741223D01*
X165384983Y-132709983D01*
X165416223Y-132684346D01*
X165451862Y-132665296D01*
X165490532Y-132653565D01*
X165536888Y-132649000D01*
X166188112Y-132649000D01*
X166234468Y-132653565D01*
G37*
G36*
X119697283Y-131980699D02*
G01*
X119862812Y-132013624D01*
X120026784Y-132081544D01*
X120174354Y-132180147D01*
X120299853Y-132305646D01*
X120398456Y-132453216D01*
X120466376Y-132617188D01*
X120490406Y-132738000D01*
X120501000Y-132791258D01*
X120501000Y-132968742D01*
X120497633Y-132985670D01*
X120466376Y-133142812D01*
X120398456Y-133306784D01*
X120299853Y-133454354D01*
X120174354Y-133579853D01*
X120026784Y-133678456D01*
X119862812Y-133746376D01*
X119713512Y-133776073D01*
X119688742Y-133781000D01*
X119511258Y-133781000D01*
X119486488Y-133776073D01*
X119337188Y-133746376D01*
X119173216Y-133678456D01*
X119025646Y-133579853D01*
X118900147Y-133454354D01*
X118801544Y-133306784D01*
X118733624Y-133142812D01*
X118702367Y-132985670D01*
X118699000Y-132968742D01*
X118699000Y-132791258D01*
X118709594Y-132738000D01*
X118733624Y-132617188D01*
X118801544Y-132453216D01*
X118900147Y-132305646D01*
X119025646Y-132180147D01*
X119173216Y-132081544D01*
X119337188Y-132013624D01*
X119502717Y-131980699D01*
X119511258Y-131979000D01*
X119688742Y-131979000D01*
X119697283Y-131980699D01*
G37*
G36*
X115059999Y-132099737D02*
G01*
X115069608Y-132102652D01*
X115078472Y-132107390D01*
X115086237Y-132113763D01*
X115096448Y-132126206D01*
X115103378Y-132136575D01*
X115120705Y-132153902D01*
X115141080Y-132167515D01*
X115163720Y-132176891D01*
X115187753Y-132181671D01*
X115212257Y-132181670D01*
X115236290Y-132176888D01*
X115258929Y-132167510D01*
X115279302Y-132153895D01*
X115296629Y-132136568D01*
X115303558Y-132126198D01*
X115313763Y-132113763D01*
X115321528Y-132107390D01*
X115330392Y-132102652D01*
X115340001Y-132099737D01*
X115356140Y-132098148D01*
X115843861Y-132098148D01*
X115862199Y-132099954D01*
X115874450Y-132100556D01*
X115892869Y-132100556D01*
X115915149Y-132102750D01*
X115999233Y-132119476D01*
X116020660Y-132125976D01*
X116099858Y-132158780D01*
X116105303Y-132161691D01*
X116105309Y-132161693D01*
X116114169Y-132166429D01*
X116114173Y-132166432D01*
X116119614Y-132169340D01*
X116190899Y-132216971D01*
X116208204Y-132231172D01*
X116268828Y-132291796D01*
X116283029Y-132309101D01*
X116330660Y-132380386D01*
X116333568Y-132385827D01*
X116333571Y-132385831D01*
X116338307Y-132394691D01*
X116338309Y-132394697D01*
X116341220Y-132400142D01*
X116374024Y-132479340D01*
X116380524Y-132500767D01*
X116397250Y-132584851D01*
X116399444Y-132607131D01*
X116399444Y-132625550D01*
X116400046Y-132637801D01*
X116401852Y-132656139D01*
X116401852Y-133143862D01*
X116400046Y-133162199D01*
X116399444Y-133174450D01*
X116399444Y-133192869D01*
X116397250Y-133215149D01*
X116380524Y-133299233D01*
X116374024Y-133320660D01*
X116341220Y-133399858D01*
X116338309Y-133405303D01*
X116338307Y-133405309D01*
X116333571Y-133414169D01*
X116333568Y-133414173D01*
X116330660Y-133419614D01*
X116283029Y-133490899D01*
X116268828Y-133508204D01*
X116208204Y-133568828D01*
X116190899Y-133583029D01*
X116119614Y-133630660D01*
X116114173Y-133633568D01*
X116114169Y-133633571D01*
X116105309Y-133638307D01*
X116105303Y-133638309D01*
X116099858Y-133641220D01*
X116020660Y-133674024D01*
X115999233Y-133680524D01*
X115915149Y-133697250D01*
X115892869Y-133699444D01*
X115874450Y-133699444D01*
X115862199Y-133700046D01*
X115843862Y-133701852D01*
X115356140Y-133701852D01*
X115340001Y-133700263D01*
X115330392Y-133697348D01*
X115321528Y-133692610D01*
X115313763Y-133686237D01*
X115303552Y-133673794D01*
X115296622Y-133663425D01*
X115279295Y-133646098D01*
X115258920Y-133632485D01*
X115236280Y-133623109D01*
X115212247Y-133618329D01*
X115187743Y-133618330D01*
X115163710Y-133623112D01*
X115141071Y-133632490D01*
X115120698Y-133646105D01*
X115103371Y-133663432D01*
X115096442Y-133673802D01*
X115086237Y-133686237D01*
X115078472Y-133692610D01*
X115069608Y-133697348D01*
X115059999Y-133700263D01*
X115043860Y-133701852D01*
X114556138Y-133701852D01*
X114537801Y-133700046D01*
X114525550Y-133699444D01*
X114507131Y-133699444D01*
X114484851Y-133697250D01*
X114400767Y-133680524D01*
X114379340Y-133674024D01*
X114300142Y-133641220D01*
X114294697Y-133638309D01*
X114294691Y-133638307D01*
X114285831Y-133633571D01*
X114285827Y-133633568D01*
X114280386Y-133630660D01*
X114209101Y-133583029D01*
X114191796Y-133568828D01*
X114131172Y-133508204D01*
X114116971Y-133490899D01*
X114069340Y-133419614D01*
X114066432Y-133414173D01*
X114066429Y-133414169D01*
X114061693Y-133405309D01*
X114061691Y-133405303D01*
X114058780Y-133399858D01*
X114025976Y-133320660D01*
X114019476Y-133299233D01*
X114002750Y-133215149D01*
X114000556Y-133192869D01*
X114000556Y-133174450D01*
X113999954Y-133162199D01*
X113998148Y-133143862D01*
X113998148Y-132656139D01*
X113999954Y-132637801D01*
X114000556Y-132625550D01*
X114000556Y-132607131D01*
X114002750Y-132584851D01*
X114019476Y-132500767D01*
X114025976Y-132479340D01*
X114058780Y-132400142D01*
X114061691Y-132394697D01*
X114061693Y-132394691D01*
X114066429Y-132385831D01*
X114066432Y-132385827D01*
X114069340Y-132380386D01*
X114116971Y-132309101D01*
X114131172Y-132291796D01*
X114191796Y-132231172D01*
X114209101Y-132216971D01*
X114280386Y-132169340D01*
X114285827Y-132166432D01*
X114285831Y-132166429D01*
X114294691Y-132161693D01*
X114294697Y-132161691D01*
X114300142Y-132158780D01*
X114379340Y-132125976D01*
X114400767Y-132119476D01*
X114484851Y-132102750D01*
X114507131Y-132100556D01*
X114525550Y-132100556D01*
X114537801Y-132099954D01*
X114556139Y-132098148D01*
X115043860Y-132098148D01*
X115059999Y-132099737D01*
G37*
G36*
X179084468Y-131503565D02*
G01*
X179123138Y-131515296D01*
X179158777Y-131534346D01*
X179190017Y-131559983D01*
X179215654Y-131591223D01*
X179234704Y-131626862D01*
X179246435Y-131665532D01*
X179251000Y-131711888D01*
X179251000Y-132363112D01*
X179246435Y-132409468D01*
X179234704Y-132448138D01*
X179215654Y-132483777D01*
X179190017Y-132515017D01*
X179158777Y-132540654D01*
X179123138Y-132559704D01*
X179084468Y-132571435D01*
X179038112Y-132576000D01*
X177961888Y-132576000D01*
X177915532Y-132571435D01*
X177876862Y-132559704D01*
X177841223Y-132540654D01*
X177809983Y-132515017D01*
X177784346Y-132483777D01*
X177765296Y-132448138D01*
X177753565Y-132409468D01*
X177749000Y-132363112D01*
X177749000Y-131711888D01*
X177753565Y-131665532D01*
X177765296Y-131626862D01*
X177784346Y-131591223D01*
X177809983Y-131559983D01*
X177841223Y-131534346D01*
X177876862Y-131515296D01*
X177915532Y-131503565D01*
X177961888Y-131499000D01*
X179038112Y-131499000D01*
X179084468Y-131503565D01*
G37*
G36*
X168109468Y-130453565D02*
G01*
X168148138Y-130465296D01*
X168183777Y-130484346D01*
X168215017Y-130509983D01*
X168240654Y-130541223D01*
X168259704Y-130576862D01*
X168271435Y-130615532D01*
X168276000Y-130661888D01*
X168276000Y-131738112D01*
X168271435Y-131784468D01*
X168259704Y-131823138D01*
X168240654Y-131858777D01*
X168215017Y-131890017D01*
X168183777Y-131915654D01*
X168148138Y-131934704D01*
X168109468Y-131946435D01*
X168063112Y-131951000D01*
X167411888Y-131951000D01*
X167365532Y-131946435D01*
X167326862Y-131934704D01*
X167291223Y-131915654D01*
X167259983Y-131890017D01*
X167234346Y-131858777D01*
X167215296Y-131823138D01*
X167203565Y-131784468D01*
X167199000Y-131738112D01*
X167199000Y-130661888D01*
X167203565Y-130615532D01*
X167215296Y-130576862D01*
X167234346Y-130541223D01*
X167259983Y-130509983D01*
X167291223Y-130484346D01*
X167326862Y-130465296D01*
X167365532Y-130453565D01*
X167411888Y-130449000D01*
X168063112Y-130449000D01*
X168109468Y-130453565D01*
G37*
G36*
X166234468Y-130453565D02*
G01*
X166273138Y-130465296D01*
X166308777Y-130484346D01*
X166340017Y-130509983D01*
X166365654Y-130541223D01*
X166384704Y-130576862D01*
X166396435Y-130615532D01*
X166401000Y-130661888D01*
X166401000Y-131738112D01*
X166396435Y-131784468D01*
X166384704Y-131823138D01*
X166365654Y-131858777D01*
X166340017Y-131890017D01*
X166308777Y-131915654D01*
X166273138Y-131934704D01*
X166234468Y-131946435D01*
X166188112Y-131951000D01*
X165536888Y-131951000D01*
X165490532Y-131946435D01*
X165451862Y-131934704D01*
X165416223Y-131915654D01*
X165384983Y-131890017D01*
X165359346Y-131858777D01*
X165340296Y-131823138D01*
X165328565Y-131784468D01*
X165324000Y-131738112D01*
X165324000Y-130661888D01*
X165328565Y-130615532D01*
X165340296Y-130576862D01*
X165359346Y-130541223D01*
X165384983Y-130509983D01*
X165416223Y-130484346D01*
X165451862Y-130465296D01*
X165490532Y-130453565D01*
X165536888Y-130449000D01*
X166188112Y-130449000D01*
X166234468Y-130453565D01*
G37*
G36*
X119713512Y-129443927D02*
G01*
X119862812Y-129473624D01*
X120026784Y-129541544D01*
X120174354Y-129640147D01*
X120299853Y-129765646D01*
X120398456Y-129913216D01*
X120466376Y-130077188D01*
X120496073Y-130226488D01*
X120501000Y-130251258D01*
X120501000Y-130428742D01*
X120496970Y-130449000D01*
X120466376Y-130602812D01*
X120398456Y-130766784D01*
X120299853Y-130914354D01*
X120174354Y-131039853D01*
X120026784Y-131138456D01*
X119862812Y-131206376D01*
X119713512Y-131236073D01*
X119688742Y-131241000D01*
X119511258Y-131241000D01*
X119486488Y-131236073D01*
X119337188Y-131206376D01*
X119173216Y-131138456D01*
X119025646Y-131039853D01*
X118900147Y-130914354D01*
X118801544Y-130766784D01*
X118733624Y-130602812D01*
X118703030Y-130449000D01*
X118699000Y-130428742D01*
X118699000Y-130251258D01*
X118703927Y-130226488D01*
X118733624Y-130077188D01*
X118801544Y-129913216D01*
X118900147Y-129765646D01*
X119025646Y-129640147D01*
X119173216Y-129541544D01*
X119337188Y-129473624D01*
X119486488Y-129443927D01*
X119511258Y-129439000D01*
X119688742Y-129439000D01*
X119713512Y-129443927D01*
G37*
G36*
X114434468Y-129653565D02*
G01*
X114473138Y-129665296D01*
X114508777Y-129684346D01*
X114540017Y-129709983D01*
X114565654Y-129741223D01*
X114584704Y-129776862D01*
X114596435Y-129815532D01*
X114601000Y-129861888D01*
X114601000Y-130938112D01*
X114596435Y-130984468D01*
X114584704Y-131023138D01*
X114565654Y-131058777D01*
X114540017Y-131090017D01*
X114508777Y-131115654D01*
X114473138Y-131134704D01*
X114434468Y-131146435D01*
X114388112Y-131151000D01*
X113736888Y-131151000D01*
X113690532Y-131146435D01*
X113651862Y-131134704D01*
X113616223Y-131115654D01*
X113584983Y-131090017D01*
X113559346Y-131058777D01*
X113540296Y-131023138D01*
X113528565Y-130984468D01*
X113524000Y-130938112D01*
X113524000Y-129861888D01*
X113528565Y-129815532D01*
X113540296Y-129776862D01*
X113559346Y-129741223D01*
X113584983Y-129709983D01*
X113616223Y-129684346D01*
X113651862Y-129665296D01*
X113690532Y-129653565D01*
X113736888Y-129649000D01*
X114388112Y-129649000D01*
X114434468Y-129653565D01*
G37*
G36*
X116309468Y-129653565D02*
G01*
X116348138Y-129665296D01*
X116383777Y-129684346D01*
X116415017Y-129709983D01*
X116440654Y-129741223D01*
X116459704Y-129776862D01*
X116471435Y-129815532D01*
X116476000Y-129861888D01*
X116476000Y-130938112D01*
X116471435Y-130984468D01*
X116459704Y-131023138D01*
X116440654Y-131058777D01*
X116415017Y-131090017D01*
X116383777Y-131115654D01*
X116348138Y-131134704D01*
X116309468Y-131146435D01*
X116263112Y-131151000D01*
X115611888Y-131151000D01*
X115565532Y-131146435D01*
X115526862Y-131134704D01*
X115491223Y-131115654D01*
X115459983Y-131090017D01*
X115434346Y-131058777D01*
X115415296Y-131023138D01*
X115403565Y-130984468D01*
X115399000Y-130938112D01*
X115399000Y-129861888D01*
X115403565Y-129815532D01*
X115415296Y-129776862D01*
X115434346Y-129741223D01*
X115459983Y-129709983D01*
X115491223Y-129684346D01*
X115526862Y-129665296D01*
X115565532Y-129653565D01*
X115611888Y-129649000D01*
X116263112Y-129649000D01*
X116309468Y-129653565D01*
G37*
G36*
X179084468Y-129628565D02*
G01*
X179123138Y-129640296D01*
X179158777Y-129659346D01*
X179190017Y-129684983D01*
X179215654Y-129716223D01*
X179234704Y-129751862D01*
X179246435Y-129790532D01*
X179251000Y-129836888D01*
X179251000Y-130488112D01*
X179246435Y-130534468D01*
X179234704Y-130573138D01*
X179215654Y-130608777D01*
X179190017Y-130640017D01*
X179158777Y-130665654D01*
X179123138Y-130684704D01*
X179084468Y-130696435D01*
X179038112Y-130701000D01*
X177961888Y-130701000D01*
X177915532Y-130696435D01*
X177876862Y-130684704D01*
X177841223Y-130665654D01*
X177809983Y-130640017D01*
X177784346Y-130608777D01*
X177765296Y-130573138D01*
X177753565Y-130534468D01*
X177749000Y-130488112D01*
X177749000Y-129836888D01*
X177753565Y-129790532D01*
X177765296Y-129751862D01*
X177784346Y-129716223D01*
X177809983Y-129684983D01*
X177841223Y-129659346D01*
X177876862Y-129640296D01*
X177915532Y-129628565D01*
X177961888Y-129624000D01*
X179038112Y-129624000D01*
X179084468Y-129628565D01*
G37*
G36*
X168100562Y-127878181D02*
G01*
X168135481Y-127888774D01*
X168167663Y-127905976D01*
X168195873Y-127929127D01*
X168219024Y-127957337D01*
X168236226Y-127989519D01*
X168246819Y-128024438D01*
X168251000Y-128066895D01*
X168251000Y-129533105D01*
X168246819Y-129575562D01*
X168236226Y-129610481D01*
X168219024Y-129642663D01*
X168195873Y-129670873D01*
X168167663Y-129694024D01*
X168135481Y-129711226D01*
X168100562Y-129721819D01*
X168058105Y-129726000D01*
X166916895Y-129726000D01*
X166874438Y-129721819D01*
X166839519Y-129711226D01*
X166807337Y-129694024D01*
X166779127Y-129670873D01*
X166755976Y-129642663D01*
X166738774Y-129610481D01*
X166728181Y-129575562D01*
X166724000Y-129533105D01*
X166724000Y-128066895D01*
X166728181Y-128024438D01*
X166738774Y-127989519D01*
X166755976Y-127957337D01*
X166779127Y-127929127D01*
X166807337Y-127905976D01*
X166839519Y-127888774D01*
X166874438Y-127878181D01*
X166916895Y-127874000D01*
X168058105Y-127874000D01*
X168100562Y-127878181D01*
G37*
G36*
X165125562Y-127878181D02*
G01*
X165160481Y-127888774D01*
X165192663Y-127905976D01*
X165220873Y-127929127D01*
X165244024Y-127957337D01*
X165261226Y-127989519D01*
X165271819Y-128024438D01*
X165276000Y-128066895D01*
X165276000Y-129533105D01*
X165271819Y-129575562D01*
X165261226Y-129610481D01*
X165244024Y-129642663D01*
X165220873Y-129670873D01*
X165192663Y-129694024D01*
X165160481Y-129711226D01*
X165125562Y-129721819D01*
X165083105Y-129726000D01*
X163941895Y-129726000D01*
X163899438Y-129721819D01*
X163864519Y-129711226D01*
X163832337Y-129694024D01*
X163804127Y-129670873D01*
X163780976Y-129642663D01*
X163763774Y-129610481D01*
X163753181Y-129575562D01*
X163749000Y-129533105D01*
X163749000Y-128066895D01*
X163753181Y-128024438D01*
X163763774Y-127989519D01*
X163780976Y-127957337D01*
X163804127Y-127929127D01*
X163832337Y-127905976D01*
X163864519Y-127888774D01*
X163899438Y-127878181D01*
X163941895Y-127874000D01*
X165083105Y-127874000D01*
X165125562Y-127878181D01*
G37*
G36*
X203118039Y-125992250D02*
G01*
X203307372Y-126070675D01*
X203441251Y-126126129D01*
X203732134Y-126320491D01*
X203979509Y-126567866D01*
X204173871Y-126858749D01*
X204173871Y-126858750D01*
X204307750Y-127181961D01*
X204376000Y-127525078D01*
X204376000Y-127874922D01*
X204307750Y-128218039D01*
X204238680Y-128384788D01*
X204173871Y-128541251D01*
X203979509Y-128832134D01*
X203732134Y-129079509D01*
X203441251Y-129273871D01*
X203307372Y-129329325D01*
X203118039Y-129407750D01*
X202774922Y-129476000D01*
X202425078Y-129476000D01*
X202081961Y-129407750D01*
X201892628Y-129329325D01*
X201758749Y-129273871D01*
X201467866Y-129079509D01*
X201220491Y-128832134D01*
X201026129Y-128541251D01*
X200961320Y-128384788D01*
X200892250Y-128218039D01*
X200824000Y-127874922D01*
X200824000Y-127525078D01*
X200892250Y-127181961D01*
X201026129Y-126858750D01*
X201026129Y-126858749D01*
X201220491Y-126567866D01*
X201467866Y-126320491D01*
X201758749Y-126126129D01*
X201892628Y-126070675D01*
X202081961Y-125992250D01*
X202425078Y-125924000D01*
X202774922Y-125924000D01*
X203118039Y-125992250D01*
G37*
G36*
X144901000Y-129301000D02*
G01*
X143099000Y-129301000D01*
X143099000Y-125699000D01*
X144901000Y-125699000D01*
X144901000Y-129301000D01*
G37*
G36*
X142361000Y-129301000D02*
G01*
X140559000Y-129301000D01*
X140559000Y-125699000D01*
X142361000Y-125699000D01*
X142361000Y-129301000D01*
G37*
G36*
X147441000Y-129301000D02*
G01*
X145639000Y-129301000D01*
X145639000Y-125699000D01*
X147441000Y-125699000D01*
X147441000Y-129301000D01*
G37*
G36*
X120501000Y-128701000D02*
G01*
X118699000Y-128701000D01*
X118699000Y-126899000D01*
X120501000Y-126899000D01*
X120501000Y-128701000D01*
G37*
G36*
X114434468Y-127053565D02*
G01*
X114473138Y-127065296D01*
X114508777Y-127084346D01*
X114540017Y-127109983D01*
X114565654Y-127141223D01*
X114584704Y-127176862D01*
X114596435Y-127215532D01*
X114601000Y-127261888D01*
X114601000Y-128338112D01*
X114596435Y-128384468D01*
X114584704Y-128423138D01*
X114565654Y-128458777D01*
X114540017Y-128490017D01*
X114508777Y-128515654D01*
X114473138Y-128534704D01*
X114434468Y-128546435D01*
X114388112Y-128551000D01*
X113736888Y-128551000D01*
X113690532Y-128546435D01*
X113651862Y-128534704D01*
X113616223Y-128515654D01*
X113584983Y-128490017D01*
X113559346Y-128458777D01*
X113540296Y-128423138D01*
X113528565Y-128384468D01*
X113524000Y-128338112D01*
X113524000Y-127261888D01*
X113528565Y-127215532D01*
X113540296Y-127176862D01*
X113559346Y-127141223D01*
X113584983Y-127109983D01*
X113616223Y-127084346D01*
X113651862Y-127065296D01*
X113690532Y-127053565D01*
X113736888Y-127049000D01*
X114388112Y-127049000D01*
X114434468Y-127053565D01*
G37*
G36*
X116309468Y-127053565D02*
G01*
X116348138Y-127065296D01*
X116383777Y-127084346D01*
X116415017Y-127109983D01*
X116440654Y-127141223D01*
X116459704Y-127176862D01*
X116471435Y-127215532D01*
X116476000Y-127261888D01*
X116476000Y-128338112D01*
X116471435Y-128384468D01*
X116459704Y-128423138D01*
X116440654Y-128458777D01*
X116415017Y-128490017D01*
X116383777Y-128515654D01*
X116348138Y-128534704D01*
X116309468Y-128546435D01*
X116263112Y-128551000D01*
X115611888Y-128551000D01*
X115565532Y-128546435D01*
X115526862Y-128534704D01*
X115491223Y-128515654D01*
X115459983Y-128490017D01*
X115434346Y-128458777D01*
X115415296Y-128423138D01*
X115403565Y-128384468D01*
X115399000Y-128338112D01*
X115399000Y-127261888D01*
X115403565Y-127215532D01*
X115415296Y-127176862D01*
X115434346Y-127141223D01*
X115459983Y-127109983D01*
X115491223Y-127084346D01*
X115526862Y-127065296D01*
X115565532Y-127053565D01*
X115611888Y-127049000D01*
X116263112Y-127049000D01*
X116309468Y-127053565D01*
G37*
G36*
X155591000Y-127731000D02*
G01*
X151989000Y-127731000D01*
X151989000Y-125929000D01*
X155591000Y-125929000D01*
X155591000Y-127731000D01*
G37*
G36*
X136011000Y-127731000D02*
G01*
X132409000Y-127731000D01*
X132409000Y-125929000D01*
X136011000Y-125929000D01*
X136011000Y-127731000D01*
G37*
G36*
X155591000Y-125191000D02*
G01*
X151989000Y-125191000D01*
X151989000Y-123389000D01*
X155591000Y-123389000D01*
X155591000Y-125191000D01*
G37*
G36*
X136011000Y-125191000D02*
G01*
X132409000Y-125191000D01*
X132409000Y-123389000D01*
X136011000Y-123389000D01*
X136011000Y-125191000D01*
G37*
G36*
X155591000Y-122651000D02*
G01*
X151989000Y-122651000D01*
X151989000Y-120849000D01*
X155591000Y-120849000D01*
X155591000Y-122651000D01*
G37*
G36*
X136011000Y-122651000D02*
G01*
X132409000Y-122651000D01*
X132409000Y-120849000D01*
X136011000Y-120849000D01*
X136011000Y-122651000D01*
G37*
G36*
X136011000Y-120111000D02*
G01*
X132409000Y-120111000D01*
X132409000Y-118309000D01*
X136011000Y-118309000D01*
X136011000Y-120111000D01*
G37*
G36*
X155591000Y-120111000D02*
G01*
X151989000Y-120111000D01*
X151989000Y-118309000D01*
X155591000Y-118309000D01*
X155591000Y-120111000D01*
G37*
G36*
X155591000Y-117571000D02*
G01*
X151989000Y-117571000D01*
X151989000Y-115769000D01*
X155591000Y-115769000D01*
X155591000Y-117571000D01*
G37*
G36*
X136011000Y-117571000D02*
G01*
X132409000Y-117571000D01*
X132409000Y-115769000D01*
X136011000Y-115769000D01*
X136011000Y-117571000D01*
G37*
G36*
X155591000Y-115031000D02*
G01*
X151989000Y-115031000D01*
X151989000Y-113229000D01*
X155591000Y-113229000D01*
X155591000Y-115031000D01*
G37*
G36*
X136011000Y-115031000D02*
G01*
X132409000Y-115031000D01*
X132409000Y-113229000D01*
X136011000Y-113229000D01*
X136011000Y-115031000D01*
G37*
G36*
X136011000Y-112491000D02*
G01*
X132409000Y-112491000D01*
X132409000Y-110689000D01*
X136011000Y-110689000D01*
X136011000Y-112491000D01*
G37*
G36*
X155591000Y-112491000D02*
G01*
X151989000Y-112491000D01*
X151989000Y-110689000D01*
X155591000Y-110689000D01*
X155591000Y-112491000D01*
G37*
G36*
X117134928Y-110066764D02*
G01*
X117156009Y-110073160D01*
X117175445Y-110083548D01*
X117192476Y-110097524D01*
X117206452Y-110114555D01*
X117216840Y-110133991D01*
X117223236Y-110155072D01*
X117226000Y-110183140D01*
X117226000Y-110646860D01*
X117223236Y-110674928D01*
X117216840Y-110696009D01*
X117206452Y-110715445D01*
X117192476Y-110732476D01*
X117175445Y-110746452D01*
X117156009Y-110756840D01*
X117134928Y-110763236D01*
X117106860Y-110766000D01*
X115193140Y-110766000D01*
X115165072Y-110763236D01*
X115143991Y-110756840D01*
X115124555Y-110746452D01*
X115107524Y-110732476D01*
X115093548Y-110715445D01*
X115083160Y-110696009D01*
X115076764Y-110674928D01*
X115074000Y-110646860D01*
X115074000Y-110183140D01*
X115076764Y-110155072D01*
X115083160Y-110133991D01*
X115093548Y-110114555D01*
X115107524Y-110097524D01*
X115124555Y-110083548D01*
X115143991Y-110073160D01*
X115165072Y-110066764D01*
X115193140Y-110064000D01*
X117106860Y-110064000D01*
X117134928Y-110066764D01*
G37*
G36*
X126434928Y-110066764D02*
G01*
X126456009Y-110073160D01*
X126475445Y-110083548D01*
X126492476Y-110097524D01*
X126506452Y-110114555D01*
X126516840Y-110133991D01*
X126523236Y-110155072D01*
X126526000Y-110183140D01*
X126526000Y-110646860D01*
X126523236Y-110674928D01*
X126516840Y-110696009D01*
X126506452Y-110715445D01*
X126492476Y-110732476D01*
X126475445Y-110746452D01*
X126456009Y-110756840D01*
X126434928Y-110763236D01*
X126406860Y-110766000D01*
X124493140Y-110766000D01*
X124465072Y-110763236D01*
X124443991Y-110756840D01*
X124424555Y-110746452D01*
X124407524Y-110732476D01*
X124393548Y-110715445D01*
X124383160Y-110696009D01*
X124376764Y-110674928D01*
X124374000Y-110646860D01*
X124374000Y-110183140D01*
X124376764Y-110155072D01*
X124383160Y-110133991D01*
X124393548Y-110114555D01*
X124407524Y-110097524D01*
X124424555Y-110083548D01*
X124443991Y-110073160D01*
X124465072Y-110066764D01*
X124493140Y-110064000D01*
X126406860Y-110064000D01*
X126434928Y-110066764D01*
G37*
G36*
X136011000Y-109951000D02*
G01*
X132409000Y-109951000D01*
X132409000Y-108149000D01*
X136011000Y-108149000D01*
X136011000Y-109951000D01*
G37*
G36*
X155591000Y-109951000D02*
G01*
X151989000Y-109951000D01*
X151989000Y-108149000D01*
X155591000Y-108149000D01*
X155591000Y-109951000D01*
G37*
G36*
X126434928Y-108796764D02*
G01*
X126456009Y-108803160D01*
X126475445Y-108813548D01*
X126492476Y-108827524D01*
X126506452Y-108844555D01*
X126516840Y-108863991D01*
X126523236Y-108885072D01*
X126526000Y-108913140D01*
X126526000Y-109376860D01*
X126523236Y-109404928D01*
X126516840Y-109426009D01*
X126506452Y-109445445D01*
X126492476Y-109462476D01*
X126475445Y-109476452D01*
X126456009Y-109486840D01*
X126434928Y-109493236D01*
X126406860Y-109496000D01*
X124493140Y-109496000D01*
X124465072Y-109493236D01*
X124443991Y-109486840D01*
X124424555Y-109476452D01*
X124407524Y-109462476D01*
X124393548Y-109445445D01*
X124383160Y-109426009D01*
X124376764Y-109404928D01*
X124374000Y-109376860D01*
X124374000Y-108913140D01*
X124376764Y-108885072D01*
X124383160Y-108863991D01*
X124393548Y-108844555D01*
X124407524Y-108827524D01*
X124424555Y-108813548D01*
X124443991Y-108803160D01*
X124465072Y-108796764D01*
X124493140Y-108794000D01*
X126406860Y-108794000D01*
X126434928Y-108796764D01*
G37*
G36*
X117134928Y-108796764D02*
G01*
X117156009Y-108803160D01*
X117175445Y-108813548D01*
X117192476Y-108827524D01*
X117206452Y-108844555D01*
X117216840Y-108863991D01*
X117223236Y-108885072D01*
X117226000Y-108913140D01*
X117226000Y-109376860D01*
X117223236Y-109404928D01*
X117216840Y-109426009D01*
X117206452Y-109445445D01*
X117192476Y-109462476D01*
X117175445Y-109476452D01*
X117156009Y-109486840D01*
X117134928Y-109493236D01*
X117106860Y-109496000D01*
X115193140Y-109496000D01*
X115165072Y-109493236D01*
X115143991Y-109486840D01*
X115124555Y-109476452D01*
X115107524Y-109462476D01*
X115093548Y-109445445D01*
X115083160Y-109426009D01*
X115076764Y-109404928D01*
X115074000Y-109376860D01*
X115074000Y-108913140D01*
X115076764Y-108885072D01*
X115083160Y-108863991D01*
X115093548Y-108844555D01*
X115107524Y-108827524D01*
X115124555Y-108813548D01*
X115143991Y-108803160D01*
X115165072Y-108796764D01*
X115193140Y-108794000D01*
X117106860Y-108794000D01*
X117134928Y-108796764D01*
G37*
G36*
X117134928Y-107526764D02*
G01*
X117156009Y-107533160D01*
X117175445Y-107543548D01*
X117192476Y-107557524D01*
X117206452Y-107574555D01*
X117216840Y-107593991D01*
X117223236Y-107615072D01*
X117226000Y-107643140D01*
X117226000Y-108106860D01*
X117223236Y-108134928D01*
X117216840Y-108156009D01*
X117206452Y-108175445D01*
X117192476Y-108192476D01*
X117175445Y-108206452D01*
X117156009Y-108216840D01*
X117134928Y-108223236D01*
X117106860Y-108226000D01*
X115193140Y-108226000D01*
X115165072Y-108223236D01*
X115143991Y-108216840D01*
X115124555Y-108206452D01*
X115107524Y-108192476D01*
X115093548Y-108175445D01*
X115083160Y-108156009D01*
X115076764Y-108134928D01*
X115074000Y-108106860D01*
X115074000Y-107643140D01*
X115076764Y-107615072D01*
X115083160Y-107593991D01*
X115093548Y-107574555D01*
X115107524Y-107557524D01*
X115124555Y-107543548D01*
X115143991Y-107533160D01*
X115165072Y-107526764D01*
X115193140Y-107524000D01*
X117106860Y-107524000D01*
X117134928Y-107526764D01*
G37*
G36*
X126434928Y-107526764D02*
G01*
X126456009Y-107533160D01*
X126475445Y-107543548D01*
X126492476Y-107557524D01*
X126506452Y-107574555D01*
X126516840Y-107593991D01*
X126523236Y-107615072D01*
X126526000Y-107643140D01*
X126526000Y-108106860D01*
X126523236Y-108134928D01*
X126516840Y-108156009D01*
X126506452Y-108175445D01*
X126492476Y-108192476D01*
X126475445Y-108206452D01*
X126456009Y-108216840D01*
X126434928Y-108223236D01*
X126406860Y-108226000D01*
X124493140Y-108226000D01*
X124465072Y-108223236D01*
X124443991Y-108216840D01*
X124424555Y-108206452D01*
X124407524Y-108192476D01*
X124393548Y-108175445D01*
X124383160Y-108156009D01*
X124376764Y-108134928D01*
X124374000Y-108106860D01*
X124374000Y-107643140D01*
X124376764Y-107615072D01*
X124383160Y-107593991D01*
X124393548Y-107574555D01*
X124407524Y-107557524D01*
X124424555Y-107543548D01*
X124443991Y-107533160D01*
X124465072Y-107526764D01*
X124493140Y-107524000D01*
X126406860Y-107524000D01*
X126434928Y-107526764D01*
G37*
G36*
X155591000Y-107411000D02*
G01*
X151989000Y-107411000D01*
X151989000Y-105609000D01*
X155591000Y-105609000D01*
X155591000Y-107411000D01*
G37*
G36*
X136011000Y-107411000D02*
G01*
X132409000Y-107411000D01*
X132409000Y-105609000D01*
X136011000Y-105609000D01*
X136011000Y-107411000D01*
G37*
G36*
X126434928Y-106256764D02*
G01*
X126456009Y-106263160D01*
X126475445Y-106273548D01*
X126492476Y-106287524D01*
X126506452Y-106304555D01*
X126516840Y-106323991D01*
X126523236Y-106345072D01*
X126526000Y-106373140D01*
X126526000Y-106836860D01*
X126523236Y-106864928D01*
X126516840Y-106886009D01*
X126506452Y-106905445D01*
X126492476Y-106922476D01*
X126475445Y-106936452D01*
X126456009Y-106946840D01*
X126434928Y-106953236D01*
X126406860Y-106956000D01*
X124493140Y-106956000D01*
X124465072Y-106953236D01*
X124443991Y-106946840D01*
X124424555Y-106936452D01*
X124407524Y-106922476D01*
X124393548Y-106905445D01*
X124383160Y-106886009D01*
X124376764Y-106864928D01*
X124374000Y-106836860D01*
X124374000Y-106373140D01*
X124376764Y-106345072D01*
X124383160Y-106323991D01*
X124393548Y-106304555D01*
X124407524Y-106287524D01*
X124424555Y-106273548D01*
X124443991Y-106263160D01*
X124465072Y-106256764D01*
X124493140Y-106254000D01*
X126406860Y-106254000D01*
X126434928Y-106256764D01*
G37*
G36*
X117134928Y-106256764D02*
G01*
X117156009Y-106263160D01*
X117175445Y-106273548D01*
X117192476Y-106287524D01*
X117206452Y-106304555D01*
X117216840Y-106323991D01*
X117223236Y-106345072D01*
X117226000Y-106373140D01*
X117226000Y-106836860D01*
X117223236Y-106864928D01*
X117216840Y-106886009D01*
X117206452Y-106905445D01*
X117192476Y-106922476D01*
X117175445Y-106936452D01*
X117156009Y-106946840D01*
X117134928Y-106953236D01*
X117106860Y-106956000D01*
X115193140Y-106956000D01*
X115165072Y-106953236D01*
X115143991Y-106946840D01*
X115124555Y-106936452D01*
X115107524Y-106922476D01*
X115093548Y-106905445D01*
X115083160Y-106886009D01*
X115076764Y-106864928D01*
X115074000Y-106836860D01*
X115074000Y-106373140D01*
X115076764Y-106345072D01*
X115083160Y-106323991D01*
X115093548Y-106304555D01*
X115107524Y-106287524D01*
X115124555Y-106273548D01*
X115143991Y-106263160D01*
X115165072Y-106256764D01*
X115193140Y-106254000D01*
X117106860Y-106254000D01*
X117134928Y-106256764D01*
G37*
G36*
X79573512Y-104483927D02*
G01*
X79722812Y-104513624D01*
X79886784Y-104581544D01*
X80034354Y-104680147D01*
X80159853Y-104805646D01*
X80258456Y-104953216D01*
X80326376Y-105117188D01*
X80361000Y-105291259D01*
X80361000Y-105468741D01*
X80326376Y-105642812D01*
X80258456Y-105806784D01*
X80159853Y-105954354D01*
X80034354Y-106079853D01*
X79886784Y-106178456D01*
X79722812Y-106246376D01*
X79573512Y-106276073D01*
X79548742Y-106281000D01*
X79371258Y-106281000D01*
X79346488Y-106276073D01*
X79197188Y-106246376D01*
X79033216Y-106178456D01*
X78885646Y-106079853D01*
X78760147Y-105954354D01*
X78661544Y-105806784D01*
X78593624Y-105642812D01*
X78559000Y-105468741D01*
X78559000Y-105291259D01*
X78593624Y-105117188D01*
X78661544Y-104953216D01*
X78760147Y-104805646D01*
X78885646Y-104680147D01*
X79033216Y-104581544D01*
X79197188Y-104513624D01*
X79346488Y-104483927D01*
X79371258Y-104479000D01*
X79548742Y-104479000D01*
X79573512Y-104483927D01*
G37*
G36*
X82113512Y-104483927D02*
G01*
X82262812Y-104513624D01*
X82426784Y-104581544D01*
X82574354Y-104680147D01*
X82699853Y-104805646D01*
X82798456Y-104953216D01*
X82866376Y-105117188D01*
X82901000Y-105291259D01*
X82901000Y-105468741D01*
X82866376Y-105642812D01*
X82798456Y-105806784D01*
X82699853Y-105954354D01*
X82574354Y-106079853D01*
X82426784Y-106178456D01*
X82262812Y-106246376D01*
X82113512Y-106276073D01*
X82088742Y-106281000D01*
X81911258Y-106281000D01*
X81886488Y-106276073D01*
X81737188Y-106246376D01*
X81573216Y-106178456D01*
X81425646Y-106079853D01*
X81300147Y-105954354D01*
X81201544Y-105806784D01*
X81133624Y-105642812D01*
X81099000Y-105468741D01*
X81099000Y-105291259D01*
X81133624Y-105117188D01*
X81201544Y-104953216D01*
X81300147Y-104805646D01*
X81425646Y-104680147D01*
X81573216Y-104581544D01*
X81737188Y-104513624D01*
X81886488Y-104483927D01*
X81911258Y-104479000D01*
X82088742Y-104479000D01*
X82113512Y-104483927D01*
G37*
G36*
X126434928Y-104986764D02*
G01*
X126456009Y-104993160D01*
X126475445Y-105003548D01*
X126492476Y-105017524D01*
X126506452Y-105034555D01*
X126516840Y-105053991D01*
X126523236Y-105075072D01*
X126526000Y-105103140D01*
X126526000Y-105566860D01*
X126523236Y-105594928D01*
X126516840Y-105616009D01*
X126506452Y-105635445D01*
X126492476Y-105652476D01*
X126475445Y-105666452D01*
X126456009Y-105676840D01*
X126434928Y-105683236D01*
X126406860Y-105686000D01*
X124493140Y-105686000D01*
X124465072Y-105683236D01*
X124443991Y-105676840D01*
X124424555Y-105666452D01*
X124407524Y-105652476D01*
X124393548Y-105635445D01*
X124383160Y-105616009D01*
X124376764Y-105594928D01*
X124374000Y-105566860D01*
X124374000Y-105103140D01*
X124376764Y-105075072D01*
X124383160Y-105053991D01*
X124393548Y-105034555D01*
X124407524Y-105017524D01*
X124424555Y-105003548D01*
X124443991Y-104993160D01*
X124465072Y-104986764D01*
X124493140Y-104984000D01*
X126406860Y-104984000D01*
X126434928Y-104986764D01*
G37*
G36*
X117134928Y-104986764D02*
G01*
X117156009Y-104993160D01*
X117175445Y-105003548D01*
X117192476Y-105017524D01*
X117206452Y-105034555D01*
X117216840Y-105053991D01*
X117223236Y-105075072D01*
X117226000Y-105103140D01*
X117226000Y-105566860D01*
X117223236Y-105594928D01*
X117216840Y-105616009D01*
X117206452Y-105635445D01*
X117192476Y-105652476D01*
X117175445Y-105666452D01*
X117156009Y-105676840D01*
X117134928Y-105683236D01*
X117106860Y-105686000D01*
X115193140Y-105686000D01*
X115165072Y-105683236D01*
X115143991Y-105676840D01*
X115124555Y-105666452D01*
X115107524Y-105652476D01*
X115093548Y-105635445D01*
X115083160Y-105616009D01*
X115076764Y-105594928D01*
X115074000Y-105566860D01*
X115074000Y-105103140D01*
X115076764Y-105075072D01*
X115083160Y-105053991D01*
X115093548Y-105034555D01*
X115107524Y-105017524D01*
X115124555Y-105003548D01*
X115143991Y-104993160D01*
X115165072Y-104986764D01*
X115193140Y-104984000D01*
X117106860Y-104984000D01*
X117134928Y-104986764D01*
G37*
G36*
X155591000Y-104871000D02*
G01*
X151989000Y-104871000D01*
X151989000Y-103069000D01*
X155591000Y-103069000D01*
X155591000Y-104871000D01*
G37*
G36*
X136011000Y-104871000D02*
G01*
X132409000Y-104871000D01*
X132409000Y-103069000D01*
X136011000Y-103069000D01*
X136011000Y-104871000D01*
G37*
G36*
X117134928Y-103716764D02*
G01*
X117156009Y-103723160D01*
X117175445Y-103733548D01*
X117192476Y-103747524D01*
X117206452Y-103764555D01*
X117216840Y-103783991D01*
X117223236Y-103805072D01*
X117226000Y-103833140D01*
X117226000Y-104296860D01*
X117223236Y-104324928D01*
X117216840Y-104346009D01*
X117206452Y-104365445D01*
X117192476Y-104382476D01*
X117175445Y-104396452D01*
X117156009Y-104406840D01*
X117134928Y-104413236D01*
X117106860Y-104416000D01*
X115193140Y-104416000D01*
X115165072Y-104413236D01*
X115143991Y-104406840D01*
X115124555Y-104396452D01*
X115107524Y-104382476D01*
X115093548Y-104365445D01*
X115083160Y-104346009D01*
X115076764Y-104324928D01*
X115074000Y-104296860D01*
X115074000Y-103833140D01*
X115076764Y-103805072D01*
X115083160Y-103783991D01*
X115093548Y-103764555D01*
X115107524Y-103747524D01*
X115124555Y-103733548D01*
X115143991Y-103723160D01*
X115165072Y-103716764D01*
X115193140Y-103714000D01*
X117106860Y-103714000D01*
X117134928Y-103716764D01*
G37*
G36*
X126434928Y-103716764D02*
G01*
X126456009Y-103723160D01*
X126475445Y-103733548D01*
X126492476Y-103747524D01*
X126506452Y-103764555D01*
X126516840Y-103783991D01*
X126523236Y-103805072D01*
X126526000Y-103833140D01*
X126526000Y-104296860D01*
X126523236Y-104324928D01*
X126516840Y-104346009D01*
X126506452Y-104365445D01*
X126492476Y-104382476D01*
X126475445Y-104396452D01*
X126456009Y-104406840D01*
X126434928Y-104413236D01*
X126406860Y-104416000D01*
X124493140Y-104416000D01*
X124465072Y-104413236D01*
X124443991Y-104406840D01*
X124424555Y-104396452D01*
X124407524Y-104382476D01*
X124393548Y-104365445D01*
X124383160Y-104346009D01*
X124376764Y-104324928D01*
X124374000Y-104296860D01*
X124374000Y-103833140D01*
X124376764Y-103805072D01*
X124383160Y-103783991D01*
X124393548Y-103764555D01*
X124407524Y-103747524D01*
X124424555Y-103733548D01*
X124443991Y-103723160D01*
X124465072Y-103716764D01*
X124493140Y-103714000D01*
X126406860Y-103714000D01*
X126434928Y-103716764D01*
G37*
G36*
X82113512Y-101943927D02*
G01*
X82262812Y-101973624D01*
X82426784Y-102041544D01*
X82574354Y-102140147D01*
X82699853Y-102265646D01*
X82798456Y-102413216D01*
X82866376Y-102577188D01*
X82901000Y-102751259D01*
X82901000Y-102928741D01*
X82866376Y-103102812D01*
X82798456Y-103266784D01*
X82699853Y-103414354D01*
X82574354Y-103539853D01*
X82426784Y-103638456D01*
X82262812Y-103706376D01*
X82113512Y-103736073D01*
X82088742Y-103741000D01*
X81911258Y-103741000D01*
X81886488Y-103736073D01*
X81737188Y-103706376D01*
X81573216Y-103638456D01*
X81425646Y-103539853D01*
X81300147Y-103414354D01*
X81201544Y-103266784D01*
X81133624Y-103102812D01*
X81099000Y-102928741D01*
X81099000Y-102751259D01*
X81133624Y-102577188D01*
X81201544Y-102413216D01*
X81300147Y-102265646D01*
X81425646Y-102140147D01*
X81573216Y-102041544D01*
X81737188Y-101973624D01*
X81886488Y-101943927D01*
X81911258Y-101939000D01*
X82088742Y-101939000D01*
X82113512Y-101943927D01*
G37*
G36*
X79573512Y-101943927D02*
G01*
X79722812Y-101973624D01*
X79886784Y-102041544D01*
X80034354Y-102140147D01*
X80159853Y-102265646D01*
X80258456Y-102413216D01*
X80326376Y-102577188D01*
X80361000Y-102751259D01*
X80361000Y-102928741D01*
X80326376Y-103102812D01*
X80258456Y-103266784D01*
X80159853Y-103414354D01*
X80034354Y-103539853D01*
X79886784Y-103638456D01*
X79722812Y-103706376D01*
X79573512Y-103736073D01*
X79548742Y-103741000D01*
X79371258Y-103741000D01*
X79346488Y-103736073D01*
X79197188Y-103706376D01*
X79033216Y-103638456D01*
X78885646Y-103539853D01*
X78760147Y-103414354D01*
X78661544Y-103266784D01*
X78593624Y-103102812D01*
X78559000Y-102928741D01*
X78559000Y-102751259D01*
X78593624Y-102577188D01*
X78661544Y-102413216D01*
X78760147Y-102265646D01*
X78885646Y-102140147D01*
X79033216Y-102041544D01*
X79197188Y-101973624D01*
X79346488Y-101943927D01*
X79371258Y-101939000D01*
X79548742Y-101939000D01*
X79573512Y-101943927D01*
G37*
G36*
X126434928Y-102446764D02*
G01*
X126456009Y-102453160D01*
X126475445Y-102463548D01*
X126492476Y-102477524D01*
X126506452Y-102494555D01*
X126516840Y-102513991D01*
X126523236Y-102535072D01*
X126526000Y-102563140D01*
X126526000Y-103026860D01*
X126523236Y-103054928D01*
X126516840Y-103076009D01*
X126506452Y-103095445D01*
X126492476Y-103112476D01*
X126475445Y-103126452D01*
X126456009Y-103136840D01*
X126434928Y-103143236D01*
X126406860Y-103146000D01*
X124493140Y-103146000D01*
X124465072Y-103143236D01*
X124443991Y-103136840D01*
X124424555Y-103126452D01*
X124407524Y-103112476D01*
X124393548Y-103095445D01*
X124383160Y-103076009D01*
X124376764Y-103054928D01*
X124374000Y-103026860D01*
X124374000Y-102563140D01*
X124376764Y-102535072D01*
X124383160Y-102513991D01*
X124393548Y-102494555D01*
X124407524Y-102477524D01*
X124424555Y-102463548D01*
X124443991Y-102453160D01*
X124465072Y-102446764D01*
X124493140Y-102444000D01*
X126406860Y-102444000D01*
X126434928Y-102446764D01*
G37*
G36*
X117134928Y-102446764D02*
G01*
X117156009Y-102453160D01*
X117175445Y-102463548D01*
X117192476Y-102477524D01*
X117206452Y-102494555D01*
X117216840Y-102513991D01*
X117223236Y-102535072D01*
X117226000Y-102563140D01*
X117226000Y-103026860D01*
X117223236Y-103054928D01*
X117216840Y-103076009D01*
X117206452Y-103095445D01*
X117192476Y-103112476D01*
X117175445Y-103126452D01*
X117156009Y-103136840D01*
X117134928Y-103143236D01*
X117106860Y-103146000D01*
X115193140Y-103146000D01*
X115165072Y-103143236D01*
X115143991Y-103136840D01*
X115124555Y-103126452D01*
X115107524Y-103112476D01*
X115093548Y-103095445D01*
X115083160Y-103076009D01*
X115076764Y-103054928D01*
X115074000Y-103026860D01*
X115074000Y-102563140D01*
X115076764Y-102535072D01*
X115083160Y-102513991D01*
X115093548Y-102494555D01*
X115107524Y-102477524D01*
X115124555Y-102463548D01*
X115143991Y-102453160D01*
X115165072Y-102446764D01*
X115193140Y-102444000D01*
X117106860Y-102444000D01*
X117134928Y-102446764D01*
G37*
G36*
X155591000Y-102331000D02*
G01*
X151989000Y-102331000D01*
X151989000Y-100529000D01*
X155591000Y-100529000D01*
X155591000Y-102331000D01*
G37*
G36*
X136011000Y-102331000D02*
G01*
X132409000Y-102331000D01*
X132409000Y-100529000D01*
X136011000Y-100529000D01*
X136011000Y-102331000D01*
G37*
G36*
X126434928Y-101176764D02*
G01*
X126456009Y-101183160D01*
X126475445Y-101193548D01*
X126492476Y-101207524D01*
X126506452Y-101224555D01*
X126516840Y-101243991D01*
X126523236Y-101265072D01*
X126526000Y-101293140D01*
X126526000Y-101756860D01*
X126523236Y-101784928D01*
X126516840Y-101806009D01*
X126506452Y-101825445D01*
X126492476Y-101842476D01*
X126475445Y-101856452D01*
X126456009Y-101866840D01*
X126434928Y-101873236D01*
X126406860Y-101876000D01*
X124493140Y-101876000D01*
X124465072Y-101873236D01*
X124443991Y-101866840D01*
X124424555Y-101856452D01*
X124407524Y-101842476D01*
X124393548Y-101825445D01*
X124383160Y-101806009D01*
X124376764Y-101784928D01*
X124374000Y-101756860D01*
X124374000Y-101293140D01*
X124376764Y-101265072D01*
X124383160Y-101243991D01*
X124393548Y-101224555D01*
X124407524Y-101207524D01*
X124424555Y-101193548D01*
X124443991Y-101183160D01*
X124465072Y-101176764D01*
X124493140Y-101174000D01*
X126406860Y-101174000D01*
X126434928Y-101176764D01*
G37*
G36*
X117134928Y-101176764D02*
G01*
X117156009Y-101183160D01*
X117175445Y-101193548D01*
X117192476Y-101207524D01*
X117206452Y-101224555D01*
X117216840Y-101243991D01*
X117223236Y-101265072D01*
X117226000Y-101293140D01*
X117226000Y-101756860D01*
X117223236Y-101784928D01*
X117216840Y-101806009D01*
X117206452Y-101825445D01*
X117192476Y-101842476D01*
X117175445Y-101856452D01*
X117156009Y-101866840D01*
X117134928Y-101873236D01*
X117106860Y-101876000D01*
X115193140Y-101876000D01*
X115165072Y-101873236D01*
X115143991Y-101866840D01*
X115124555Y-101856452D01*
X115107524Y-101842476D01*
X115093548Y-101825445D01*
X115083160Y-101806009D01*
X115076764Y-101784928D01*
X115074000Y-101756860D01*
X115074000Y-101293140D01*
X115076764Y-101265072D01*
X115083160Y-101243991D01*
X115093548Y-101224555D01*
X115107524Y-101207524D01*
X115124555Y-101193548D01*
X115143991Y-101183160D01*
X115165072Y-101176764D01*
X115193140Y-101174000D01*
X117106860Y-101174000D01*
X117134928Y-101176764D01*
G37*
G36*
X165009468Y-100353565D02*
G01*
X165048138Y-100365296D01*
X165083777Y-100384346D01*
X165115017Y-100409983D01*
X165140654Y-100441223D01*
X165159704Y-100476862D01*
X165171435Y-100515532D01*
X165176000Y-100561888D01*
X165176000Y-101638112D01*
X165171435Y-101684468D01*
X165159704Y-101723138D01*
X165140654Y-101758777D01*
X165115017Y-101790017D01*
X165083777Y-101815654D01*
X165048138Y-101834704D01*
X165009468Y-101846435D01*
X164963112Y-101851000D01*
X164311888Y-101851000D01*
X164265532Y-101846435D01*
X164226862Y-101834704D01*
X164191223Y-101815654D01*
X164159983Y-101790017D01*
X164134346Y-101758777D01*
X164115296Y-101723138D01*
X164103565Y-101684468D01*
X164099000Y-101638112D01*
X164099000Y-100561888D01*
X164103565Y-100515532D01*
X164115296Y-100476862D01*
X164134346Y-100441223D01*
X164159983Y-100409983D01*
X164191223Y-100384346D01*
X164226862Y-100365296D01*
X164265532Y-100353565D01*
X164311888Y-100349000D01*
X164963112Y-100349000D01*
X165009468Y-100353565D01*
G37*
G36*
X163134468Y-100353565D02*
G01*
X163173138Y-100365296D01*
X163208777Y-100384346D01*
X163240017Y-100409983D01*
X163265654Y-100441223D01*
X163284704Y-100476862D01*
X163296435Y-100515532D01*
X163301000Y-100561888D01*
X163301000Y-101638112D01*
X163296435Y-101684468D01*
X163284704Y-101723138D01*
X163265654Y-101758777D01*
X163240017Y-101790017D01*
X163208777Y-101815654D01*
X163173138Y-101834704D01*
X163134468Y-101846435D01*
X163088112Y-101851000D01*
X162436888Y-101851000D01*
X162390532Y-101846435D01*
X162351862Y-101834704D01*
X162316223Y-101815654D01*
X162284983Y-101790017D01*
X162259346Y-101758777D01*
X162240296Y-101723138D01*
X162228565Y-101684468D01*
X162224000Y-101638112D01*
X162224000Y-100561888D01*
X162228565Y-100515532D01*
X162240296Y-100476862D01*
X162259346Y-100441223D01*
X162284983Y-100409983D01*
X162316223Y-100384346D01*
X162351862Y-100365296D01*
X162390532Y-100353565D01*
X162436888Y-100349000D01*
X163088112Y-100349000D01*
X163134468Y-100353565D01*
G37*
G36*
X79573512Y-99403927D02*
G01*
X79722812Y-99433624D01*
X79886784Y-99501544D01*
X80034354Y-99600147D01*
X80159853Y-99725646D01*
X80258456Y-99873216D01*
X80326376Y-100037188D01*
X80361000Y-100211259D01*
X80361000Y-100388741D01*
X80326376Y-100562812D01*
X80258456Y-100726784D01*
X80159853Y-100874354D01*
X80034354Y-100999853D01*
X79886784Y-101098456D01*
X79722812Y-101166376D01*
X79573512Y-101196073D01*
X79548742Y-101201000D01*
X79371258Y-101201000D01*
X79346488Y-101196073D01*
X79197188Y-101166376D01*
X79033216Y-101098456D01*
X78885646Y-100999853D01*
X78760147Y-100874354D01*
X78661544Y-100726784D01*
X78593624Y-100562812D01*
X78559000Y-100388741D01*
X78559000Y-100211259D01*
X78593624Y-100037188D01*
X78661544Y-99873216D01*
X78760147Y-99725646D01*
X78885646Y-99600147D01*
X79033216Y-99501544D01*
X79197188Y-99433624D01*
X79346488Y-99403927D01*
X79371258Y-99399000D01*
X79548742Y-99399000D01*
X79573512Y-99403927D01*
G37*
G36*
X82113512Y-99403927D02*
G01*
X82262812Y-99433624D01*
X82426784Y-99501544D01*
X82574354Y-99600147D01*
X82699853Y-99725646D01*
X82798456Y-99873216D01*
X82866376Y-100037188D01*
X82901000Y-100211259D01*
X82901000Y-100388741D01*
X82866376Y-100562812D01*
X82798456Y-100726784D01*
X82699853Y-100874354D01*
X82574354Y-100999853D01*
X82426784Y-101098456D01*
X82262812Y-101166376D01*
X82113512Y-101196073D01*
X82088742Y-101201000D01*
X81911258Y-101201000D01*
X81886488Y-101196073D01*
X81737188Y-101166376D01*
X81573216Y-101098456D01*
X81425646Y-100999853D01*
X81300147Y-100874354D01*
X81201544Y-100726784D01*
X81133624Y-100562812D01*
X81099000Y-100388741D01*
X81099000Y-100211259D01*
X81133624Y-100037188D01*
X81201544Y-99873216D01*
X81300147Y-99725646D01*
X81425646Y-99600147D01*
X81573216Y-99501544D01*
X81737188Y-99433624D01*
X81886488Y-99403927D01*
X81911258Y-99399000D01*
X82088742Y-99399000D01*
X82113512Y-99403927D01*
G37*
G36*
X126434928Y-99906764D02*
G01*
X126456009Y-99913160D01*
X126475445Y-99923548D01*
X126492476Y-99937524D01*
X126506452Y-99954555D01*
X126516840Y-99973991D01*
X126523236Y-99995072D01*
X126526000Y-100023140D01*
X126526000Y-100486860D01*
X126523236Y-100514928D01*
X126516840Y-100536009D01*
X126506452Y-100555445D01*
X126492476Y-100572476D01*
X126475445Y-100586452D01*
X126456009Y-100596840D01*
X126434928Y-100603236D01*
X126406860Y-100606000D01*
X124493140Y-100606000D01*
X124465072Y-100603236D01*
X124443991Y-100596840D01*
X124424555Y-100586452D01*
X124407524Y-100572476D01*
X124393548Y-100555445D01*
X124383160Y-100536009D01*
X124376764Y-100514928D01*
X124374000Y-100486860D01*
X124374000Y-100023140D01*
X124376764Y-99995072D01*
X124383160Y-99973991D01*
X124393548Y-99954555D01*
X124407524Y-99937524D01*
X124424555Y-99923548D01*
X124443991Y-99913160D01*
X124465072Y-99906764D01*
X124493140Y-99904000D01*
X126406860Y-99904000D01*
X126434928Y-99906764D01*
G37*
G36*
X117134928Y-99906764D02*
G01*
X117156009Y-99913160D01*
X117175445Y-99923548D01*
X117192476Y-99937524D01*
X117206452Y-99954555D01*
X117216840Y-99973991D01*
X117223236Y-99995072D01*
X117226000Y-100023140D01*
X117226000Y-100486860D01*
X117223236Y-100514928D01*
X117216840Y-100536009D01*
X117206452Y-100555445D01*
X117192476Y-100572476D01*
X117175445Y-100586452D01*
X117156009Y-100596840D01*
X117134928Y-100603236D01*
X117106860Y-100606000D01*
X115193140Y-100606000D01*
X115165072Y-100603236D01*
X115143991Y-100596840D01*
X115124555Y-100586452D01*
X115107524Y-100572476D01*
X115093548Y-100555445D01*
X115083160Y-100536009D01*
X115076764Y-100514928D01*
X115074000Y-100486860D01*
X115074000Y-100023140D01*
X115076764Y-99995072D01*
X115083160Y-99973991D01*
X115093548Y-99954555D01*
X115107524Y-99937524D01*
X115124555Y-99923548D01*
X115143991Y-99913160D01*
X115165072Y-99906764D01*
X115193140Y-99904000D01*
X117106860Y-99904000D01*
X117134928Y-99906764D01*
G37*
G36*
X155591000Y-99791000D02*
G01*
X151989000Y-99791000D01*
X151989000Y-97989000D01*
X155591000Y-97989000D01*
X155591000Y-99791000D01*
G37*
G36*
X136011000Y-99791000D02*
G01*
X132409000Y-99791000D01*
X132409000Y-97989000D01*
X136011000Y-97989000D01*
X136011000Y-99791000D01*
G37*
G36*
X126434928Y-98636764D02*
G01*
X126456009Y-98643160D01*
X126475445Y-98653548D01*
X126492476Y-98667524D01*
X126506452Y-98684555D01*
X126516840Y-98703991D01*
X126523236Y-98725072D01*
X126526000Y-98753140D01*
X126526000Y-99216860D01*
X126523236Y-99244928D01*
X126516840Y-99266009D01*
X126506452Y-99285445D01*
X126492476Y-99302476D01*
X126475445Y-99316452D01*
X126456009Y-99326840D01*
X126434928Y-99333236D01*
X126406860Y-99336000D01*
X124493140Y-99336000D01*
X124465072Y-99333236D01*
X124443991Y-99326840D01*
X124424555Y-99316452D01*
X124407524Y-99302476D01*
X124393548Y-99285445D01*
X124383160Y-99266009D01*
X124376764Y-99244928D01*
X124374000Y-99216860D01*
X124374000Y-98753140D01*
X124376764Y-98725072D01*
X124383160Y-98703991D01*
X124393548Y-98684555D01*
X124407524Y-98667524D01*
X124424555Y-98653548D01*
X124443991Y-98643160D01*
X124465072Y-98636764D01*
X124493140Y-98634000D01*
X126406860Y-98634000D01*
X126434928Y-98636764D01*
G37*
G36*
X117134928Y-98636764D02*
G01*
X117156009Y-98643160D01*
X117175445Y-98653548D01*
X117192476Y-98667524D01*
X117206452Y-98684555D01*
X117216840Y-98703991D01*
X117223236Y-98725072D01*
X117226000Y-98753140D01*
X117226000Y-99216860D01*
X117223236Y-99244928D01*
X117216840Y-99266009D01*
X117206452Y-99285445D01*
X117192476Y-99302476D01*
X117175445Y-99316452D01*
X117156009Y-99326840D01*
X117134928Y-99333236D01*
X117106860Y-99336000D01*
X115193140Y-99336000D01*
X115165072Y-99333236D01*
X115143991Y-99326840D01*
X115124555Y-99316452D01*
X115107524Y-99302476D01*
X115093548Y-99285445D01*
X115083160Y-99266009D01*
X115076764Y-99244928D01*
X115074000Y-99216860D01*
X115074000Y-98753140D01*
X115076764Y-98725072D01*
X115083160Y-98703991D01*
X115093548Y-98684555D01*
X115107524Y-98667524D01*
X115124555Y-98653548D01*
X115143991Y-98643160D01*
X115165072Y-98636764D01*
X115193140Y-98634000D01*
X117106860Y-98634000D01*
X117134928Y-98636764D01*
G37*
G36*
X161301000Y-99201000D02*
G01*
X159699000Y-99201000D01*
X159699000Y-97099000D01*
X161301000Y-97099000D01*
X161301000Y-99201000D01*
G37*
G36*
X163601000Y-99201000D02*
G01*
X161999000Y-99201000D01*
X161999000Y-97099000D01*
X163601000Y-97099000D01*
X163601000Y-99201000D01*
G37*
G36*
X165901000Y-99201000D02*
G01*
X164299000Y-99201000D01*
X164299000Y-97099000D01*
X165901000Y-97099000D01*
X165901000Y-99201000D01*
G37*
G36*
X82113512Y-96863927D02*
G01*
X82262812Y-96893624D01*
X82426784Y-96961544D01*
X82574354Y-97060147D01*
X82699853Y-97185646D01*
X82798456Y-97333216D01*
X82866376Y-97497188D01*
X82901000Y-97671259D01*
X82901000Y-97848741D01*
X82866376Y-98022812D01*
X82798456Y-98186784D01*
X82699853Y-98334354D01*
X82574354Y-98459853D01*
X82426784Y-98558456D01*
X82262812Y-98626376D01*
X82113512Y-98656073D01*
X82088742Y-98661000D01*
X81911258Y-98661000D01*
X81886488Y-98656073D01*
X81737188Y-98626376D01*
X81573216Y-98558456D01*
X81425646Y-98459853D01*
X81300147Y-98334354D01*
X81201544Y-98186784D01*
X81133624Y-98022812D01*
X81099000Y-97848741D01*
X81099000Y-97671259D01*
X81133624Y-97497188D01*
X81201544Y-97333216D01*
X81300147Y-97185646D01*
X81425646Y-97060147D01*
X81573216Y-96961544D01*
X81737188Y-96893624D01*
X81886488Y-96863927D01*
X81911258Y-96859000D01*
X82088742Y-96859000D01*
X82113512Y-96863927D01*
G37*
G36*
X79573512Y-96863927D02*
G01*
X79722812Y-96893624D01*
X79886784Y-96961544D01*
X80034354Y-97060147D01*
X80159853Y-97185646D01*
X80258456Y-97333216D01*
X80326376Y-97497188D01*
X80361000Y-97671259D01*
X80361000Y-97848741D01*
X80326376Y-98022812D01*
X80258456Y-98186784D01*
X80159853Y-98334354D01*
X80034354Y-98459853D01*
X79886784Y-98558456D01*
X79722812Y-98626376D01*
X79573512Y-98656073D01*
X79548742Y-98661000D01*
X79371258Y-98661000D01*
X79346488Y-98656073D01*
X79197188Y-98626376D01*
X79033216Y-98558456D01*
X78885646Y-98459853D01*
X78760147Y-98334354D01*
X78661544Y-98186784D01*
X78593624Y-98022812D01*
X78559000Y-97848741D01*
X78559000Y-97671259D01*
X78593624Y-97497188D01*
X78661544Y-97333216D01*
X78760147Y-97185646D01*
X78885646Y-97060147D01*
X79033216Y-96961544D01*
X79197188Y-96893624D01*
X79346488Y-96863927D01*
X79371258Y-96859000D01*
X79548742Y-96859000D01*
X79573512Y-96863927D01*
G37*
G36*
X155591000Y-97251000D02*
G01*
X151989000Y-97251000D01*
X151989000Y-95449000D01*
X155591000Y-95449000D01*
X155591000Y-97251000D01*
G37*
G36*
X136011000Y-97251000D02*
G01*
X132409000Y-97251000D01*
X132409000Y-95449000D01*
X136011000Y-95449000D01*
X136011000Y-97251000D01*
G37*
G36*
X82113512Y-94323927D02*
G01*
X82262812Y-94353624D01*
X82426784Y-94421544D01*
X82574354Y-94520147D01*
X82699853Y-94645646D01*
X82798456Y-94793216D01*
X82866376Y-94957188D01*
X82901000Y-95131259D01*
X82901000Y-95308741D01*
X82866376Y-95482812D01*
X82798456Y-95646784D01*
X82699853Y-95794354D01*
X82574354Y-95919853D01*
X82426784Y-96018456D01*
X82262812Y-96086376D01*
X82113512Y-96116073D01*
X82088742Y-96121000D01*
X81911258Y-96121000D01*
X81886488Y-96116073D01*
X81737188Y-96086376D01*
X81573216Y-96018456D01*
X81425646Y-95919853D01*
X81300147Y-95794354D01*
X81201544Y-95646784D01*
X81133624Y-95482812D01*
X81099000Y-95308741D01*
X81099000Y-95131259D01*
X81133624Y-94957188D01*
X81201544Y-94793216D01*
X81300147Y-94645646D01*
X81425646Y-94520147D01*
X81573216Y-94421544D01*
X81737188Y-94353624D01*
X81886488Y-94323927D01*
X81911258Y-94319000D01*
X82088742Y-94319000D01*
X82113512Y-94323927D01*
G37*
G36*
X79573512Y-94323927D02*
G01*
X79722812Y-94353624D01*
X79886784Y-94421544D01*
X80034354Y-94520147D01*
X80159853Y-94645646D01*
X80258456Y-94793216D01*
X80326376Y-94957188D01*
X80361000Y-95131259D01*
X80361000Y-95308741D01*
X80326376Y-95482812D01*
X80258456Y-95646784D01*
X80159853Y-95794354D01*
X80034354Y-95919853D01*
X79886784Y-96018456D01*
X79722812Y-96086376D01*
X79573512Y-96116073D01*
X79548742Y-96121000D01*
X79371258Y-96121000D01*
X79346488Y-96116073D01*
X79197188Y-96086376D01*
X79033216Y-96018456D01*
X78885646Y-95919853D01*
X78760147Y-95794354D01*
X78661544Y-95646784D01*
X78593624Y-95482812D01*
X78559000Y-95308741D01*
X78559000Y-95131259D01*
X78593624Y-94957188D01*
X78661544Y-94793216D01*
X78760147Y-94645646D01*
X78885646Y-94520147D01*
X79033216Y-94421544D01*
X79197188Y-94353624D01*
X79346488Y-94323927D01*
X79371258Y-94319000D01*
X79548742Y-94319000D01*
X79573512Y-94323927D01*
G37*
G36*
X136011000Y-94711000D02*
G01*
X132409000Y-94711000D01*
X132409000Y-92909000D01*
X136011000Y-92909000D01*
X136011000Y-94711000D01*
G37*
G36*
X155591000Y-94711000D02*
G01*
X151989000Y-94711000D01*
X151989000Y-92909000D01*
X155591000Y-92909000D01*
X155591000Y-94711000D01*
G37*
G36*
X115784468Y-92603565D02*
G01*
X115823138Y-92615296D01*
X115858777Y-92634346D01*
X115890017Y-92659983D01*
X115915654Y-92691223D01*
X115934704Y-92726862D01*
X115946435Y-92765532D01*
X115951000Y-92811888D01*
X115951000Y-93463112D01*
X115946435Y-93509468D01*
X115934704Y-93548138D01*
X115915654Y-93583777D01*
X115890017Y-93615017D01*
X115858777Y-93640654D01*
X115823138Y-93659704D01*
X115784468Y-93671435D01*
X115738112Y-93676000D01*
X114661888Y-93676000D01*
X114615532Y-93671435D01*
X114576862Y-93659704D01*
X114541223Y-93640654D01*
X114509983Y-93615017D01*
X114484346Y-93583777D01*
X114465296Y-93548138D01*
X114453565Y-93509468D01*
X114449000Y-93463112D01*
X114449000Y-92811888D01*
X114453565Y-92765532D01*
X114465296Y-92726862D01*
X114484346Y-92691223D01*
X114509983Y-92659983D01*
X114541223Y-92634346D01*
X114576862Y-92615296D01*
X114615532Y-92603565D01*
X114661888Y-92599000D01*
X115738112Y-92599000D01*
X115784468Y-92603565D01*
G37*
G36*
X82113512Y-91783927D02*
G01*
X82262812Y-91813624D01*
X82426784Y-91881544D01*
X82574354Y-91980147D01*
X82699853Y-92105646D01*
X82798456Y-92253216D01*
X82866376Y-92417188D01*
X82901000Y-92591259D01*
X82901000Y-92768741D01*
X82866376Y-92942812D01*
X82798456Y-93106784D01*
X82699853Y-93254354D01*
X82574354Y-93379853D01*
X82426784Y-93478456D01*
X82262812Y-93546376D01*
X82113512Y-93576073D01*
X82088742Y-93581000D01*
X81911258Y-93581000D01*
X81886488Y-93576073D01*
X81737188Y-93546376D01*
X81573216Y-93478456D01*
X81425646Y-93379853D01*
X81300147Y-93254354D01*
X81201544Y-93106784D01*
X81133624Y-92942812D01*
X81099000Y-92768741D01*
X81099000Y-92591259D01*
X81133624Y-92417188D01*
X81201544Y-92253216D01*
X81300147Y-92105646D01*
X81425646Y-91980147D01*
X81573216Y-91881544D01*
X81737188Y-91813624D01*
X81886488Y-91783927D01*
X81911258Y-91779000D01*
X82088742Y-91779000D01*
X82113512Y-91783927D01*
G37*
G36*
X79573512Y-91783927D02*
G01*
X79722812Y-91813624D01*
X79886784Y-91881544D01*
X80034354Y-91980147D01*
X80159853Y-92105646D01*
X80258456Y-92253216D01*
X80326376Y-92417188D01*
X80361000Y-92591259D01*
X80361000Y-92768741D01*
X80326376Y-92942812D01*
X80258456Y-93106784D01*
X80159853Y-93254354D01*
X80034354Y-93379853D01*
X79886784Y-93478456D01*
X79722812Y-93546376D01*
X79573512Y-93576073D01*
X79548742Y-93581000D01*
X79371258Y-93581000D01*
X79346488Y-93576073D01*
X79197188Y-93546376D01*
X79033216Y-93478456D01*
X78885646Y-93379853D01*
X78760147Y-93254354D01*
X78661544Y-93106784D01*
X78593624Y-92942812D01*
X78559000Y-92768741D01*
X78559000Y-92591259D01*
X78593624Y-92417188D01*
X78661544Y-92253216D01*
X78760147Y-92105646D01*
X78885646Y-91980147D01*
X79033216Y-91881544D01*
X79197188Y-91813624D01*
X79346488Y-91783927D01*
X79371258Y-91779000D01*
X79548742Y-91779000D01*
X79573512Y-91783927D01*
G37*
G36*
X164751000Y-92901000D02*
G01*
X160849000Y-92901000D01*
X160849000Y-90799000D01*
X164751000Y-90799000D01*
X164751000Y-92901000D01*
G37*
G36*
X119071968Y-91153565D02*
G01*
X119110638Y-91165296D01*
X119146277Y-91184346D01*
X119177517Y-91209983D01*
X119203154Y-91241223D01*
X119222204Y-91276862D01*
X119233935Y-91315532D01*
X119238500Y-91361888D01*
X119238500Y-92438112D01*
X119233935Y-92484468D01*
X119222204Y-92523138D01*
X119203154Y-92558777D01*
X119177517Y-92590017D01*
X119146277Y-92615654D01*
X119110638Y-92634704D01*
X119071968Y-92646435D01*
X119025612Y-92651000D01*
X118374388Y-92651000D01*
X118328032Y-92646435D01*
X118289362Y-92634704D01*
X118253723Y-92615654D01*
X118222483Y-92590017D01*
X118196846Y-92558777D01*
X118177796Y-92523138D01*
X118166065Y-92484468D01*
X118161500Y-92438112D01*
X118161500Y-91361888D01*
X118166065Y-91315532D01*
X118177796Y-91276862D01*
X118196846Y-91241223D01*
X118222483Y-91209983D01*
X118253723Y-91184346D01*
X118289362Y-91165296D01*
X118328032Y-91153565D01*
X118374388Y-91149000D01*
X119025612Y-91149000D01*
X119071968Y-91153565D01*
G37*
G36*
X120946968Y-91153565D02*
G01*
X120985638Y-91165296D01*
X121021277Y-91184346D01*
X121052517Y-91209983D01*
X121078154Y-91241223D01*
X121097204Y-91276862D01*
X121108935Y-91315532D01*
X121113500Y-91361888D01*
X121113500Y-92438112D01*
X121108935Y-92484468D01*
X121097204Y-92523138D01*
X121078154Y-92558777D01*
X121052517Y-92590017D01*
X121021277Y-92615654D01*
X120985638Y-92634704D01*
X120946968Y-92646435D01*
X120900612Y-92651000D01*
X120249388Y-92651000D01*
X120203032Y-92646435D01*
X120164362Y-92634704D01*
X120128723Y-92615654D01*
X120097483Y-92590017D01*
X120071846Y-92558777D01*
X120052796Y-92523138D01*
X120041065Y-92484468D01*
X120036500Y-92438112D01*
X120036500Y-91361888D01*
X120041065Y-91315532D01*
X120052796Y-91276862D01*
X120071846Y-91241223D01*
X120097483Y-91209983D01*
X120128723Y-91184346D01*
X120164362Y-91165296D01*
X120203032Y-91153565D01*
X120249388Y-91149000D01*
X120900612Y-91149000D01*
X120946968Y-91153565D01*
G37*
G36*
X155591000Y-92171000D02*
G01*
X151989000Y-92171000D01*
X151989000Y-90369000D01*
X155591000Y-90369000D01*
X155591000Y-92171000D01*
G37*
G36*
X136011000Y-92171000D02*
G01*
X132409000Y-92171000D01*
X132409000Y-90369000D01*
X136011000Y-90369000D01*
X136011000Y-92171000D01*
G37*
G36*
X115784468Y-90728565D02*
G01*
X115823138Y-90740296D01*
X115858777Y-90759346D01*
X115890017Y-90784983D01*
X115915654Y-90816223D01*
X115934704Y-90851862D01*
X115946435Y-90890532D01*
X115951000Y-90936888D01*
X115951000Y-91588112D01*
X115946435Y-91634468D01*
X115934704Y-91673138D01*
X115915654Y-91708777D01*
X115890017Y-91740017D01*
X115858777Y-91765654D01*
X115823138Y-91784704D01*
X115784468Y-91796435D01*
X115738112Y-91801000D01*
X114661888Y-91801000D01*
X114615532Y-91796435D01*
X114576862Y-91784704D01*
X114541223Y-91765654D01*
X114509983Y-91740017D01*
X114484346Y-91708777D01*
X114465296Y-91673138D01*
X114453565Y-91634468D01*
X114449000Y-91588112D01*
X114449000Y-90936888D01*
X114453565Y-90890532D01*
X114465296Y-90851862D01*
X114484346Y-90816223D01*
X114509983Y-90784983D01*
X114541223Y-90759346D01*
X114576862Y-90740296D01*
X114615532Y-90728565D01*
X114661888Y-90724000D01*
X115738112Y-90724000D01*
X115784468Y-90728565D01*
G37*
G36*
X82113512Y-89243927D02*
G01*
X82262812Y-89273624D01*
X82426784Y-89341544D01*
X82574354Y-89440147D01*
X82699853Y-89565646D01*
X82798456Y-89713216D01*
X82866376Y-89877188D01*
X82901000Y-90051259D01*
X82901000Y-90228741D01*
X82866376Y-90402812D01*
X82798456Y-90566784D01*
X82699853Y-90714354D01*
X82574354Y-90839853D01*
X82426784Y-90938456D01*
X82262812Y-91006376D01*
X82113512Y-91036073D01*
X82088742Y-91041000D01*
X81911258Y-91041000D01*
X81886488Y-91036073D01*
X81737188Y-91006376D01*
X81573216Y-90938456D01*
X81425646Y-90839853D01*
X81300147Y-90714354D01*
X81201544Y-90566784D01*
X81133624Y-90402812D01*
X81099000Y-90228741D01*
X81099000Y-90051259D01*
X81133624Y-89877188D01*
X81201544Y-89713216D01*
X81300147Y-89565646D01*
X81425646Y-89440147D01*
X81573216Y-89341544D01*
X81737188Y-89273624D01*
X81886488Y-89243927D01*
X81911258Y-89239000D01*
X82088742Y-89239000D01*
X82113512Y-89243927D01*
G37*
G36*
X79573512Y-89243927D02*
G01*
X79722812Y-89273624D01*
X79886784Y-89341544D01*
X80034354Y-89440147D01*
X80159853Y-89565646D01*
X80258456Y-89713216D01*
X80326376Y-89877188D01*
X80361000Y-90051259D01*
X80361000Y-90228741D01*
X80326376Y-90402812D01*
X80258456Y-90566784D01*
X80159853Y-90714354D01*
X80034354Y-90839853D01*
X79886784Y-90938456D01*
X79722812Y-91006376D01*
X79573512Y-91036073D01*
X79548742Y-91041000D01*
X79371258Y-91041000D01*
X79346488Y-91036073D01*
X79197188Y-91006376D01*
X79033216Y-90938456D01*
X78885646Y-90839853D01*
X78760147Y-90714354D01*
X78661544Y-90566784D01*
X78593624Y-90402812D01*
X78559000Y-90228741D01*
X78559000Y-90051259D01*
X78593624Y-89877188D01*
X78661544Y-89713216D01*
X78760147Y-89565646D01*
X78885646Y-89440147D01*
X79033216Y-89341544D01*
X79197188Y-89273624D01*
X79346488Y-89243927D01*
X79371258Y-89239000D01*
X79548742Y-89239000D01*
X79573512Y-89243927D01*
G37*
G36*
X163334468Y-88253565D02*
G01*
X163373138Y-88265296D01*
X163408777Y-88284346D01*
X163440017Y-88309983D01*
X163465654Y-88341223D01*
X163484704Y-88376862D01*
X163496435Y-88415532D01*
X163501000Y-88461888D01*
X163501000Y-89538112D01*
X163496435Y-89584468D01*
X163484704Y-89623138D01*
X163465654Y-89658777D01*
X163440017Y-89690017D01*
X163408777Y-89715654D01*
X163373138Y-89734704D01*
X163334468Y-89746435D01*
X163288112Y-89751000D01*
X162636888Y-89751000D01*
X162590532Y-89746435D01*
X162551862Y-89734704D01*
X162516223Y-89715654D01*
X162484983Y-89690017D01*
X162459346Y-89658777D01*
X162440296Y-89623138D01*
X162428565Y-89584468D01*
X162424000Y-89538112D01*
X162424000Y-88461888D01*
X162428565Y-88415532D01*
X162440296Y-88376862D01*
X162459346Y-88341223D01*
X162484983Y-88309983D01*
X162516223Y-88284346D01*
X162551862Y-88265296D01*
X162590532Y-88253565D01*
X162636888Y-88249000D01*
X163288112Y-88249000D01*
X163334468Y-88253565D01*
G37*
G36*
X165209468Y-88253565D02*
G01*
X165248138Y-88265296D01*
X165283777Y-88284346D01*
X165315017Y-88309983D01*
X165340654Y-88341223D01*
X165359704Y-88376862D01*
X165371435Y-88415532D01*
X165376000Y-88461888D01*
X165376000Y-89538112D01*
X165371435Y-89584468D01*
X165359704Y-89623138D01*
X165340654Y-89658777D01*
X165315017Y-89690017D01*
X165283777Y-89715654D01*
X165248138Y-89734704D01*
X165209468Y-89746435D01*
X165163112Y-89751000D01*
X164511888Y-89751000D01*
X164465532Y-89746435D01*
X164426862Y-89734704D01*
X164391223Y-89715654D01*
X164359983Y-89690017D01*
X164334346Y-89658777D01*
X164315296Y-89623138D01*
X164303565Y-89584468D01*
X164299000Y-89538112D01*
X164299000Y-88461888D01*
X164303565Y-88415532D01*
X164315296Y-88376862D01*
X164334346Y-88341223D01*
X164359983Y-88309983D01*
X164391223Y-88284346D01*
X164426862Y-88265296D01*
X164465532Y-88253565D01*
X164511888Y-88249000D01*
X165163112Y-88249000D01*
X165209468Y-88253565D01*
G37*
G36*
X136011000Y-89631000D02*
G01*
X132409000Y-89631000D01*
X132409000Y-87829000D01*
X136011000Y-87829000D01*
X136011000Y-89631000D01*
G37*
G36*
X155591000Y-89631000D02*
G01*
X151989000Y-89631000D01*
X151989000Y-87829000D01*
X155591000Y-87829000D01*
X155591000Y-89631000D01*
G37*
G36*
X82901000Y-88581000D02*
G01*
X81099000Y-88581000D01*
X81099000Y-86779000D01*
X82901000Y-86779000D01*
X82901000Y-88581000D01*
G37*
G36*
X115734928Y-87866764D02*
G01*
X115756009Y-87873160D01*
X115775445Y-87883548D01*
X115792476Y-87897524D01*
X115806452Y-87914555D01*
X115816840Y-87933991D01*
X115823236Y-87955072D01*
X115826000Y-87983140D01*
X115826000Y-88446860D01*
X115823236Y-88474928D01*
X115816840Y-88496009D01*
X115806452Y-88515445D01*
X115792476Y-88532476D01*
X115775445Y-88546452D01*
X115756009Y-88556840D01*
X115734928Y-88563236D01*
X115706860Y-88566000D01*
X113793140Y-88566000D01*
X113765072Y-88563236D01*
X113743991Y-88556840D01*
X113724555Y-88546452D01*
X113707524Y-88532476D01*
X113693548Y-88515445D01*
X113683160Y-88496009D01*
X113676764Y-88474928D01*
X113674000Y-88446860D01*
X113674000Y-87983140D01*
X113676764Y-87955072D01*
X113683160Y-87933991D01*
X113693548Y-87914555D01*
X113707524Y-87897524D01*
X113724555Y-87883548D01*
X113743991Y-87873160D01*
X113765072Y-87866764D01*
X113793140Y-87864000D01*
X115706860Y-87864000D01*
X115734928Y-87866764D01*
G37*
G36*
X125034928Y-87866764D02*
G01*
X125056009Y-87873160D01*
X125075445Y-87883548D01*
X125092476Y-87897524D01*
X125106452Y-87914555D01*
X125116840Y-87933991D01*
X125123236Y-87955072D01*
X125126000Y-87983140D01*
X125126000Y-88446860D01*
X125123236Y-88474928D01*
X125116840Y-88496009D01*
X125106452Y-88515445D01*
X125092476Y-88532476D01*
X125075445Y-88546452D01*
X125056009Y-88556840D01*
X125034928Y-88563236D01*
X125006860Y-88566000D01*
X123093140Y-88566000D01*
X123065072Y-88563236D01*
X123043991Y-88556840D01*
X123024555Y-88546452D01*
X123007524Y-88532476D01*
X122993548Y-88515445D01*
X122983160Y-88496009D01*
X122976764Y-88474928D01*
X122974000Y-88446860D01*
X122974000Y-87983140D01*
X122976764Y-87955072D01*
X122983160Y-87933991D01*
X122993548Y-87914555D01*
X123007524Y-87897524D01*
X123024555Y-87883548D01*
X123043991Y-87873160D01*
X123065072Y-87866764D01*
X123093140Y-87864000D01*
X125006860Y-87864000D01*
X125034928Y-87866764D01*
G37*
G36*
X79565528Y-86702339D02*
G01*
X79722812Y-86733624D01*
X79886784Y-86801544D01*
X80034354Y-86900147D01*
X80159853Y-87025646D01*
X80258456Y-87173216D01*
X80326376Y-87337188D01*
X80361000Y-87511259D01*
X80361000Y-87688741D01*
X80326376Y-87862812D01*
X80258456Y-88026784D01*
X80159853Y-88174354D01*
X80034354Y-88299853D01*
X79886784Y-88398456D01*
X79722812Y-88466376D01*
X79573833Y-88496009D01*
X79548742Y-88501000D01*
X79371258Y-88501000D01*
X79346167Y-88496009D01*
X79197188Y-88466376D01*
X79033216Y-88398456D01*
X78885646Y-88299853D01*
X78760147Y-88174354D01*
X78661544Y-88026784D01*
X78593624Y-87862812D01*
X78559000Y-87688741D01*
X78559000Y-87511259D01*
X78593624Y-87337188D01*
X78661544Y-87173216D01*
X78760147Y-87025646D01*
X78885646Y-86900147D01*
X79033216Y-86801544D01*
X79197188Y-86733624D01*
X79354472Y-86702339D01*
X79371258Y-86699000D01*
X79548742Y-86699000D01*
X79565528Y-86702339D01*
G37*
G36*
X125034928Y-86596764D02*
G01*
X125056009Y-86603160D01*
X125075445Y-86613548D01*
X125092476Y-86627524D01*
X125106452Y-86644555D01*
X125116840Y-86663991D01*
X125123236Y-86685072D01*
X125126000Y-86713140D01*
X125126000Y-87176860D01*
X125123236Y-87204928D01*
X125116840Y-87226009D01*
X125106452Y-87245445D01*
X125092476Y-87262476D01*
X125075445Y-87276452D01*
X125056009Y-87286840D01*
X125034928Y-87293236D01*
X125006860Y-87296000D01*
X123093140Y-87296000D01*
X123065072Y-87293236D01*
X123043991Y-87286840D01*
X123024555Y-87276452D01*
X123007524Y-87262476D01*
X122993548Y-87245445D01*
X122983160Y-87226009D01*
X122976764Y-87204928D01*
X122974000Y-87176860D01*
X122974000Y-86713140D01*
X122976764Y-86685072D01*
X122983160Y-86663991D01*
X122993548Y-86644555D01*
X123007524Y-86627524D01*
X123024555Y-86613548D01*
X123043991Y-86603160D01*
X123065072Y-86596764D01*
X123093140Y-86594000D01*
X125006860Y-86594000D01*
X125034928Y-86596764D01*
G37*
G36*
X115734928Y-86596764D02*
G01*
X115756009Y-86603160D01*
X115775445Y-86613548D01*
X115792476Y-86627524D01*
X115806452Y-86644555D01*
X115816840Y-86663991D01*
X115823236Y-86685072D01*
X115826000Y-86713140D01*
X115826000Y-87176860D01*
X115823236Y-87204928D01*
X115816840Y-87226009D01*
X115806452Y-87245445D01*
X115792476Y-87262476D01*
X115775445Y-87276452D01*
X115756009Y-87286840D01*
X115734928Y-87293236D01*
X115706860Y-87296000D01*
X113793140Y-87296000D01*
X113765072Y-87293236D01*
X113743991Y-87286840D01*
X113724555Y-87276452D01*
X113707524Y-87262476D01*
X113693548Y-87245445D01*
X113683160Y-87226009D01*
X113676764Y-87204928D01*
X113674000Y-87176860D01*
X113674000Y-86713140D01*
X113676764Y-86685072D01*
X113683160Y-86663991D01*
X113693548Y-86644555D01*
X113707524Y-86627524D01*
X113724555Y-86613548D01*
X113743991Y-86603160D01*
X113765072Y-86596764D01*
X113793140Y-86594000D01*
X115706860Y-86594000D01*
X115734928Y-86596764D01*
G37*
G36*
X155591000Y-87091000D02*
G01*
X151989000Y-87091000D01*
X151989000Y-85289000D01*
X155591000Y-85289000D01*
X155591000Y-87091000D01*
G37*
G36*
X136011000Y-87091000D02*
G01*
X132409000Y-87091000D01*
X132409000Y-85289000D01*
X136011000Y-85289000D01*
X136011000Y-87091000D01*
G37*
G36*
X115734928Y-85326764D02*
G01*
X115756009Y-85333160D01*
X115775445Y-85343548D01*
X115792476Y-85357524D01*
X115806452Y-85374555D01*
X115816840Y-85393991D01*
X115823236Y-85415072D01*
X115826000Y-85443140D01*
X115826000Y-85906860D01*
X115823236Y-85934928D01*
X115816840Y-85956009D01*
X115806452Y-85975445D01*
X115792476Y-85992476D01*
X115775445Y-86006452D01*
X115756009Y-86016840D01*
X115734928Y-86023236D01*
X115706860Y-86026000D01*
X113793140Y-86026000D01*
X113765072Y-86023236D01*
X113743991Y-86016840D01*
X113724555Y-86006452D01*
X113707524Y-85992476D01*
X113693548Y-85975445D01*
X113683160Y-85956009D01*
X113676764Y-85934928D01*
X113674000Y-85906860D01*
X113674000Y-85443140D01*
X113676764Y-85415072D01*
X113683160Y-85393991D01*
X113693548Y-85374555D01*
X113707524Y-85357524D01*
X113724555Y-85343548D01*
X113743991Y-85333160D01*
X113765072Y-85326764D01*
X113793140Y-85324000D01*
X115706860Y-85324000D01*
X115734928Y-85326764D01*
G37*
G36*
X125034928Y-85326764D02*
G01*
X125056009Y-85333160D01*
X125075445Y-85343548D01*
X125092476Y-85357524D01*
X125106452Y-85374555D01*
X125116840Y-85393991D01*
X125123236Y-85415072D01*
X125126000Y-85443140D01*
X125126000Y-85906860D01*
X125123236Y-85934928D01*
X125116840Y-85956009D01*
X125106452Y-85975445D01*
X125092476Y-85992476D01*
X125075445Y-86006452D01*
X125056009Y-86016840D01*
X125034928Y-86023236D01*
X125006860Y-86026000D01*
X123093140Y-86026000D01*
X123065072Y-86023236D01*
X123043991Y-86016840D01*
X123024555Y-86006452D01*
X123007524Y-85992476D01*
X122993548Y-85975445D01*
X122983160Y-85956009D01*
X122976764Y-85934928D01*
X122974000Y-85906860D01*
X122974000Y-85443140D01*
X122976764Y-85415072D01*
X122983160Y-85393991D01*
X122993548Y-85374555D01*
X123007524Y-85357524D01*
X123024555Y-85343548D01*
X123043991Y-85333160D01*
X123065072Y-85326764D01*
X123093140Y-85324000D01*
X125006860Y-85324000D01*
X125034928Y-85326764D01*
G37*
G36*
X115734928Y-84056764D02*
G01*
X115756009Y-84063160D01*
X115775445Y-84073548D01*
X115792476Y-84087524D01*
X115806452Y-84104555D01*
X115816840Y-84123991D01*
X115823236Y-84145072D01*
X115826000Y-84173140D01*
X115826000Y-84636860D01*
X115823236Y-84664928D01*
X115816840Y-84686009D01*
X115806452Y-84705445D01*
X115792476Y-84722476D01*
X115775445Y-84736452D01*
X115756009Y-84746840D01*
X115734928Y-84753236D01*
X115706860Y-84756000D01*
X113793140Y-84756000D01*
X113765072Y-84753236D01*
X113743991Y-84746840D01*
X113724555Y-84736452D01*
X113707524Y-84722476D01*
X113693548Y-84705445D01*
X113683160Y-84686009D01*
X113676764Y-84664928D01*
X113674000Y-84636860D01*
X113674000Y-84173140D01*
X113676764Y-84145072D01*
X113683160Y-84123991D01*
X113693548Y-84104555D01*
X113707524Y-84087524D01*
X113724555Y-84073548D01*
X113743991Y-84063160D01*
X113765072Y-84056764D01*
X113793140Y-84054000D01*
X115706860Y-84054000D01*
X115734928Y-84056764D01*
G37*
G36*
X125034928Y-84056764D02*
G01*
X125056009Y-84063160D01*
X125075445Y-84073548D01*
X125092476Y-84087524D01*
X125106452Y-84104555D01*
X125116840Y-84123991D01*
X125123236Y-84145072D01*
X125126000Y-84173140D01*
X125126000Y-84636860D01*
X125123236Y-84664928D01*
X125116840Y-84686009D01*
X125106452Y-84705445D01*
X125092476Y-84722476D01*
X125075445Y-84736452D01*
X125056009Y-84746840D01*
X125034928Y-84753236D01*
X125006860Y-84756000D01*
X123093140Y-84756000D01*
X123065072Y-84753236D01*
X123043991Y-84746840D01*
X123024555Y-84736452D01*
X123007524Y-84722476D01*
X122993548Y-84705445D01*
X122983160Y-84686009D01*
X122976764Y-84664928D01*
X122974000Y-84636860D01*
X122974000Y-84173140D01*
X122976764Y-84145072D01*
X122983160Y-84123991D01*
X122993548Y-84104555D01*
X123007524Y-84087524D01*
X123024555Y-84073548D01*
X123043991Y-84063160D01*
X123065072Y-84056764D01*
X123093140Y-84054000D01*
X125006860Y-84054000D01*
X125034928Y-84056764D01*
G37*
G36*
X136011000Y-84551000D02*
G01*
X132409000Y-84551000D01*
X132409000Y-82749000D01*
X136011000Y-82749000D01*
X136011000Y-84551000D01*
G37*
G36*
X155591000Y-84551000D02*
G01*
X151989000Y-84551000D01*
X151989000Y-82749000D01*
X155591000Y-82749000D01*
X155591000Y-84551000D01*
G37*
G36*
X125034928Y-82786764D02*
G01*
X125056009Y-82793160D01*
X125075445Y-82803548D01*
X125092476Y-82817524D01*
X125106452Y-82834555D01*
X125116840Y-82853991D01*
X125123236Y-82875072D01*
X125126000Y-82903140D01*
X125126000Y-83366860D01*
X125123236Y-83394928D01*
X125116840Y-83416009D01*
X125106452Y-83435445D01*
X125092476Y-83452476D01*
X125075445Y-83466452D01*
X125056009Y-83476840D01*
X125034928Y-83483236D01*
X125006860Y-83486000D01*
X123093140Y-83486000D01*
X123065072Y-83483236D01*
X123043991Y-83476840D01*
X123024555Y-83466452D01*
X123007524Y-83452476D01*
X122993548Y-83435445D01*
X122983160Y-83416009D01*
X122976764Y-83394928D01*
X122974000Y-83366860D01*
X122974000Y-82903140D01*
X122976764Y-82875072D01*
X122983160Y-82853991D01*
X122993548Y-82834555D01*
X123007524Y-82817524D01*
X123024555Y-82803548D01*
X123043991Y-82793160D01*
X123065072Y-82786764D01*
X123093140Y-82784000D01*
X125006860Y-82784000D01*
X125034928Y-82786764D01*
G37*
G36*
X115734928Y-82786764D02*
G01*
X115756009Y-82793160D01*
X115775445Y-82803548D01*
X115792476Y-82817524D01*
X115806452Y-82834555D01*
X115816840Y-82853991D01*
X115823236Y-82875072D01*
X115826000Y-82903140D01*
X115826000Y-83366860D01*
X115823236Y-83394928D01*
X115816840Y-83416009D01*
X115806452Y-83435445D01*
X115792476Y-83452476D01*
X115775445Y-83466452D01*
X115756009Y-83476840D01*
X115734928Y-83483236D01*
X115706860Y-83486000D01*
X113793140Y-83486000D01*
X113765072Y-83483236D01*
X113743991Y-83476840D01*
X113724555Y-83466452D01*
X113707524Y-83452476D01*
X113693548Y-83435445D01*
X113683160Y-83416009D01*
X113676764Y-83394928D01*
X113674000Y-83366860D01*
X113674000Y-82903140D01*
X113676764Y-82875072D01*
X113683160Y-82853991D01*
X113693548Y-82834555D01*
X113707524Y-82817524D01*
X113724555Y-82803548D01*
X113743991Y-82793160D01*
X113765072Y-82786764D01*
X113793140Y-82784000D01*
X115706860Y-82784000D01*
X115734928Y-82786764D01*
G37*
G36*
X146658642Y-80959781D02*
G01*
X146804414Y-81020162D01*
X146804416Y-81020163D01*
X146935608Y-81107822D01*
X147047178Y-81219392D01*
X147134837Y-81350584D01*
X147134838Y-81350586D01*
X147195219Y-81496358D01*
X147226000Y-81651107D01*
X147226000Y-81808893D01*
X147195219Y-81963642D01*
X147163383Y-82040500D01*
X147134837Y-82109416D01*
X147047178Y-82240608D01*
X146935608Y-82352178D01*
X146804416Y-82439837D01*
X146804415Y-82439838D01*
X146804414Y-82439838D01*
X146658642Y-82500219D01*
X146503893Y-82531000D01*
X146346107Y-82531000D01*
X146191358Y-82500219D01*
X146045586Y-82439838D01*
X146045585Y-82439838D01*
X146045584Y-82439837D01*
X145914392Y-82352178D01*
X145802822Y-82240608D01*
X145715163Y-82109416D01*
X145686617Y-82040500D01*
X145654781Y-81963642D01*
X145624000Y-81808893D01*
X145624000Y-81651107D01*
X145654781Y-81496358D01*
X145715162Y-81350586D01*
X145715163Y-81350584D01*
X145802822Y-81219392D01*
X145914392Y-81107822D01*
X146045584Y-81020163D01*
X146045586Y-81020162D01*
X146191358Y-80959781D01*
X146346107Y-80929000D01*
X146503893Y-80929000D01*
X146658642Y-80959781D01*
G37*
G36*
X141808642Y-80959781D02*
G01*
X141954414Y-81020162D01*
X141954416Y-81020163D01*
X142085608Y-81107822D01*
X142197178Y-81219392D01*
X142284837Y-81350584D01*
X142284838Y-81350586D01*
X142345219Y-81496358D01*
X142376000Y-81651107D01*
X142376000Y-81808893D01*
X142345219Y-81963642D01*
X142313383Y-82040500D01*
X142284837Y-82109416D01*
X142197178Y-82240608D01*
X142085608Y-82352178D01*
X141954416Y-82439837D01*
X141954415Y-82439838D01*
X141954414Y-82439838D01*
X141808642Y-82500219D01*
X141653893Y-82531000D01*
X141496107Y-82531000D01*
X141341358Y-82500219D01*
X141195586Y-82439838D01*
X141195585Y-82439838D01*
X141195584Y-82439837D01*
X141064392Y-82352178D01*
X140952822Y-82240608D01*
X140865163Y-82109416D01*
X140836617Y-82040500D01*
X140804781Y-81963642D01*
X140774000Y-81808893D01*
X140774000Y-81651107D01*
X140804781Y-81496358D01*
X140865162Y-81350586D01*
X140865163Y-81350584D01*
X140952822Y-81219392D01*
X141064392Y-81107822D01*
X141195584Y-81020163D01*
X141195586Y-81020162D01*
X141341358Y-80959781D01*
X141496107Y-80929000D01*
X141653893Y-80929000D01*
X141808642Y-80959781D01*
G37*
G36*
X125034928Y-81516764D02*
G01*
X125056009Y-81523160D01*
X125075445Y-81533548D01*
X125092476Y-81547524D01*
X125106452Y-81564555D01*
X125116840Y-81583991D01*
X125123236Y-81605072D01*
X125126000Y-81633140D01*
X125126000Y-82096860D01*
X125123236Y-82124928D01*
X125116840Y-82146009D01*
X125106452Y-82165445D01*
X125092476Y-82182476D01*
X125075445Y-82196452D01*
X125056009Y-82206840D01*
X125034928Y-82213236D01*
X125006860Y-82216000D01*
X123093140Y-82216000D01*
X123065072Y-82213236D01*
X123043991Y-82206840D01*
X123024555Y-82196452D01*
X123007524Y-82182476D01*
X122993548Y-82165445D01*
X122983160Y-82146009D01*
X122976764Y-82124928D01*
X122974000Y-82096860D01*
X122974000Y-81633140D01*
X122976764Y-81605072D01*
X122983160Y-81583991D01*
X122993548Y-81564555D01*
X123007524Y-81547524D01*
X123024555Y-81533548D01*
X123043991Y-81523160D01*
X123065072Y-81516764D01*
X123093140Y-81514000D01*
X125006860Y-81514000D01*
X125034928Y-81516764D01*
G37*
G36*
X115734928Y-81516764D02*
G01*
X115756009Y-81523160D01*
X115775445Y-81533548D01*
X115792476Y-81547524D01*
X115806452Y-81564555D01*
X115816840Y-81583991D01*
X115823236Y-81605072D01*
X115826000Y-81633140D01*
X115826000Y-82096860D01*
X115823236Y-82124928D01*
X115816840Y-82146009D01*
X115806452Y-82165445D01*
X115792476Y-82182476D01*
X115775445Y-82196452D01*
X115756009Y-82206840D01*
X115734928Y-82213236D01*
X115706860Y-82216000D01*
X113793140Y-82216000D01*
X113765072Y-82213236D01*
X113743991Y-82206840D01*
X113724555Y-82196452D01*
X113707524Y-82182476D01*
X113693548Y-82165445D01*
X113683160Y-82146009D01*
X113676764Y-82124928D01*
X113674000Y-82096860D01*
X113674000Y-81633140D01*
X113676764Y-81605072D01*
X113683160Y-81583991D01*
X113693548Y-81564555D01*
X113707524Y-81547524D01*
X113724555Y-81533548D01*
X113743991Y-81523160D01*
X113765072Y-81516764D01*
X113793140Y-81514000D01*
X115706860Y-81514000D01*
X115734928Y-81516764D01*
G37*
G36*
X155591000Y-82011000D02*
G01*
X151989000Y-82011000D01*
X151989000Y-80209000D01*
X155591000Y-80209000D01*
X155591000Y-82011000D01*
G37*
G36*
X136011000Y-82011000D02*
G01*
X132409000Y-82011000D01*
X132409000Y-80209000D01*
X136011000Y-80209000D01*
X136011000Y-82011000D01*
G37*
G36*
X164151000Y-81751000D02*
G01*
X163149000Y-81751000D01*
X163149000Y-80449000D01*
X164151000Y-80449000D01*
X164151000Y-81751000D01*
G37*
G36*
X160851000Y-81751000D02*
G01*
X159849000Y-81751000D01*
X159849000Y-80449000D01*
X160851000Y-80449000D01*
X160851000Y-81751000D01*
G37*
G36*
X125034928Y-80246764D02*
G01*
X125056009Y-80253160D01*
X125075445Y-80263548D01*
X125092476Y-80277524D01*
X125106452Y-80294555D01*
X125116840Y-80313991D01*
X125123236Y-80335072D01*
X125126000Y-80363140D01*
X125126000Y-80826860D01*
X125123236Y-80854928D01*
X125116840Y-80876009D01*
X125106452Y-80895445D01*
X125092476Y-80912476D01*
X125075445Y-80926452D01*
X125056009Y-80936840D01*
X125034928Y-80943236D01*
X125006860Y-80946000D01*
X123093140Y-80946000D01*
X123065072Y-80943236D01*
X123043991Y-80936840D01*
X123024555Y-80926452D01*
X123007524Y-80912476D01*
X122993548Y-80895445D01*
X122983160Y-80876009D01*
X122976764Y-80854928D01*
X122974000Y-80826860D01*
X122974000Y-80363140D01*
X122976764Y-80335072D01*
X122983160Y-80313991D01*
X122993548Y-80294555D01*
X123007524Y-80277524D01*
X123024555Y-80263548D01*
X123043991Y-80253160D01*
X123065072Y-80246764D01*
X123093140Y-80244000D01*
X125006860Y-80244000D01*
X125034928Y-80246764D01*
G37*
G36*
X115734928Y-80246764D02*
G01*
X115756009Y-80253160D01*
X115775445Y-80263548D01*
X115792476Y-80277524D01*
X115806452Y-80294555D01*
X115816840Y-80313991D01*
X115823236Y-80335072D01*
X115826000Y-80363140D01*
X115826000Y-80826860D01*
X115823236Y-80854928D01*
X115816840Y-80876009D01*
X115806452Y-80895445D01*
X115792476Y-80912476D01*
X115775445Y-80926452D01*
X115756009Y-80936840D01*
X115734928Y-80943236D01*
X115706860Y-80946000D01*
X113793140Y-80946000D01*
X113765072Y-80943236D01*
X113743991Y-80936840D01*
X113724555Y-80926452D01*
X113707524Y-80912476D01*
X113693548Y-80895445D01*
X113683160Y-80876009D01*
X113676764Y-80854928D01*
X113674000Y-80826860D01*
X113674000Y-80363140D01*
X113676764Y-80335072D01*
X113683160Y-80313991D01*
X113693548Y-80294555D01*
X113707524Y-80277524D01*
X113724555Y-80263548D01*
X113743991Y-80253160D01*
X113765072Y-80246764D01*
X113793140Y-80244000D01*
X115706860Y-80244000D01*
X115734928Y-80246764D01*
G37*
G36*
X115734928Y-78976764D02*
G01*
X115756009Y-78983160D01*
X115775445Y-78993548D01*
X115792476Y-79007524D01*
X115806452Y-79024555D01*
X115816840Y-79043991D01*
X115823236Y-79065072D01*
X115826000Y-79093140D01*
X115826000Y-79556860D01*
X115823236Y-79584928D01*
X115816840Y-79606009D01*
X115806452Y-79625445D01*
X115792476Y-79642476D01*
X115775445Y-79656452D01*
X115756009Y-79666840D01*
X115734928Y-79673236D01*
X115706860Y-79676000D01*
X113793140Y-79676000D01*
X113765072Y-79673236D01*
X113743991Y-79666840D01*
X113724555Y-79656452D01*
X113707524Y-79642476D01*
X113693548Y-79625445D01*
X113683160Y-79606009D01*
X113676764Y-79584928D01*
X113674000Y-79556860D01*
X113674000Y-79093140D01*
X113676764Y-79065072D01*
X113683160Y-79043991D01*
X113693548Y-79024555D01*
X113707524Y-79007524D01*
X113724555Y-78993548D01*
X113743991Y-78983160D01*
X113765072Y-78976764D01*
X113793140Y-78974000D01*
X115706860Y-78974000D01*
X115734928Y-78976764D01*
G37*
G36*
X125034928Y-78976764D02*
G01*
X125056009Y-78983160D01*
X125075445Y-78993548D01*
X125092476Y-79007524D01*
X125106452Y-79024555D01*
X125116840Y-79043991D01*
X125123236Y-79065072D01*
X125126000Y-79093140D01*
X125126000Y-79556860D01*
X125123236Y-79584928D01*
X125116840Y-79606009D01*
X125106452Y-79625445D01*
X125092476Y-79642476D01*
X125075445Y-79656452D01*
X125056009Y-79666840D01*
X125034928Y-79673236D01*
X125006860Y-79676000D01*
X123093140Y-79676000D01*
X123065072Y-79673236D01*
X123043991Y-79666840D01*
X123024555Y-79656452D01*
X123007524Y-79642476D01*
X122993548Y-79625445D01*
X122983160Y-79606009D01*
X122976764Y-79584928D01*
X122974000Y-79556860D01*
X122974000Y-79093140D01*
X122976764Y-79065072D01*
X122983160Y-79043991D01*
X122993548Y-79024555D01*
X123007524Y-79007524D01*
X123024555Y-78993548D01*
X123043991Y-78983160D01*
X123065072Y-78976764D01*
X123093140Y-78974000D01*
X125006860Y-78974000D01*
X125034928Y-78976764D01*
G37*
G36*
X141552395Y-77785546D02*
G01*
X141725466Y-77857234D01*
X141758789Y-77879500D01*
X141881227Y-77961310D01*
X142013690Y-78093773D01*
X142066081Y-78172182D01*
X142117766Y-78249534D01*
X142189454Y-78422605D01*
X142226000Y-78606333D01*
X142226000Y-78793667D01*
X142189454Y-78977395D01*
X142117766Y-79150466D01*
X142117765Y-79150467D01*
X142013690Y-79306227D01*
X141881227Y-79438690D01*
X141832871Y-79471000D01*
X141725466Y-79542766D01*
X141552395Y-79614454D01*
X141368667Y-79651000D01*
X141181333Y-79651000D01*
X140997605Y-79614454D01*
X140824534Y-79542766D01*
X140717129Y-79471000D01*
X140668773Y-79438690D01*
X140536310Y-79306227D01*
X140432235Y-79150467D01*
X140432234Y-79150466D01*
X140360546Y-78977395D01*
X140324000Y-78793667D01*
X140324000Y-78606333D01*
X140360546Y-78422605D01*
X140432234Y-78249534D01*
X140483919Y-78172182D01*
X140536310Y-78093773D01*
X140668773Y-77961310D01*
X140791211Y-77879500D01*
X140824534Y-77857234D01*
X140997605Y-77785546D01*
X141181333Y-77749000D01*
X141368667Y-77749000D01*
X141552395Y-77785546D01*
G37*
G36*
X147002395Y-77785546D02*
G01*
X147175466Y-77857234D01*
X147208789Y-77879500D01*
X147331227Y-77961310D01*
X147463690Y-78093773D01*
X147516081Y-78172182D01*
X147567766Y-78249534D01*
X147639454Y-78422605D01*
X147676000Y-78606333D01*
X147676000Y-78793667D01*
X147639454Y-78977395D01*
X147567766Y-79150466D01*
X147567765Y-79150467D01*
X147463690Y-79306227D01*
X147331227Y-79438690D01*
X147282871Y-79471000D01*
X147175466Y-79542766D01*
X147002395Y-79614454D01*
X146818667Y-79651000D01*
X146631333Y-79651000D01*
X146447605Y-79614454D01*
X146274534Y-79542766D01*
X146167129Y-79471000D01*
X146118773Y-79438690D01*
X145986310Y-79306227D01*
X145882235Y-79150467D01*
X145882234Y-79150466D01*
X145810546Y-78977395D01*
X145774000Y-78793667D01*
X145774000Y-78606333D01*
X145810546Y-78422605D01*
X145882234Y-78249534D01*
X145933919Y-78172182D01*
X145986310Y-78093773D01*
X146118773Y-77961310D01*
X146241211Y-77879500D01*
X146274534Y-77857234D01*
X146447605Y-77785546D01*
X146631333Y-77749000D01*
X146818667Y-77749000D01*
X147002395Y-77785546D01*
G37*
G36*
X155591000Y-79471000D02*
G01*
X151989000Y-79471000D01*
X151989000Y-77669000D01*
X155591000Y-77669000D01*
X155591000Y-79471000D01*
G37*
G36*
X136011000Y-79471000D02*
G01*
X132409000Y-79471000D01*
X132409000Y-77669000D01*
X136011000Y-77669000D01*
X136011000Y-79471000D01*
G37*
G36*
X163634468Y-77253565D02*
G01*
X163673138Y-77265296D01*
X163708777Y-77284346D01*
X163740017Y-77309983D01*
X163765654Y-77341223D01*
X163784704Y-77376862D01*
X163796435Y-77415532D01*
X163801000Y-77461888D01*
X163801000Y-78538112D01*
X163796435Y-78584468D01*
X163784704Y-78623138D01*
X163765654Y-78658777D01*
X163740017Y-78690017D01*
X163708777Y-78715654D01*
X163673138Y-78734704D01*
X163634468Y-78746435D01*
X163588112Y-78751000D01*
X162936888Y-78751000D01*
X162890532Y-78746435D01*
X162851862Y-78734704D01*
X162816223Y-78715654D01*
X162784983Y-78690017D01*
X162759346Y-78658777D01*
X162740296Y-78623138D01*
X162728565Y-78584468D01*
X162724000Y-78538112D01*
X162724000Y-77461888D01*
X162728565Y-77415532D01*
X162740296Y-77376862D01*
X162759346Y-77341223D01*
X162784983Y-77309983D01*
X162816223Y-77284346D01*
X162851862Y-77265296D01*
X162890532Y-77253565D01*
X162936888Y-77249000D01*
X163588112Y-77249000D01*
X163634468Y-77253565D01*
G37*
G36*
X165509468Y-77253565D02*
G01*
X165548138Y-77265296D01*
X165583777Y-77284346D01*
X165615017Y-77309983D01*
X165640654Y-77341223D01*
X165659704Y-77376862D01*
X165671435Y-77415532D01*
X165676000Y-77461888D01*
X165676000Y-78538112D01*
X165671435Y-78584468D01*
X165659704Y-78623138D01*
X165640654Y-78658777D01*
X165615017Y-78690017D01*
X165583777Y-78715654D01*
X165548138Y-78734704D01*
X165509468Y-78746435D01*
X165463112Y-78751000D01*
X164811888Y-78751000D01*
X164765532Y-78746435D01*
X164726862Y-78734704D01*
X164691223Y-78715654D01*
X164659983Y-78690017D01*
X164634346Y-78658777D01*
X164615296Y-78623138D01*
X164603565Y-78584468D01*
X164599000Y-78538112D01*
X164599000Y-77461888D01*
X164603565Y-77415532D01*
X164615296Y-77376862D01*
X164634346Y-77341223D01*
X164659983Y-77309983D01*
X164691223Y-77284346D01*
X164726862Y-77265296D01*
X164765532Y-77253565D01*
X164811888Y-77249000D01*
X165463112Y-77249000D01*
X165509468Y-77253565D01*
G37*
G36*
X125034928Y-77706764D02*
G01*
X125056009Y-77713160D01*
X125075445Y-77723548D01*
X125092476Y-77737524D01*
X125106452Y-77754555D01*
X125116840Y-77773991D01*
X125123236Y-77795072D01*
X125126000Y-77823140D01*
X125126000Y-78286860D01*
X125123236Y-78314928D01*
X125116840Y-78336009D01*
X125106452Y-78355445D01*
X125092476Y-78372476D01*
X125075445Y-78386452D01*
X125056009Y-78396840D01*
X125034928Y-78403236D01*
X125006860Y-78406000D01*
X123093140Y-78406000D01*
X123065072Y-78403236D01*
X123043991Y-78396840D01*
X123024555Y-78386452D01*
X123007524Y-78372476D01*
X122993548Y-78355445D01*
X122983160Y-78336009D01*
X122976764Y-78314928D01*
X122974000Y-78286860D01*
X122974000Y-77823140D01*
X122976764Y-77795072D01*
X122983160Y-77773991D01*
X122993548Y-77754555D01*
X123007524Y-77737524D01*
X123024555Y-77723548D01*
X123043991Y-77713160D01*
X123065072Y-77706764D01*
X123093140Y-77704000D01*
X125006860Y-77704000D01*
X125034928Y-77706764D01*
G37*
G36*
X115734928Y-77706764D02*
G01*
X115756009Y-77713160D01*
X115775445Y-77723548D01*
X115792476Y-77737524D01*
X115806452Y-77754555D01*
X115816840Y-77773991D01*
X115823236Y-77795072D01*
X115826000Y-77823140D01*
X115826000Y-78286860D01*
X115823236Y-78314928D01*
X115816840Y-78336009D01*
X115806452Y-78355445D01*
X115792476Y-78372476D01*
X115775445Y-78386452D01*
X115756009Y-78396840D01*
X115734928Y-78403236D01*
X115706860Y-78406000D01*
X113793140Y-78406000D01*
X113765072Y-78403236D01*
X113743991Y-78396840D01*
X113724555Y-78386452D01*
X113707524Y-78372476D01*
X113693548Y-78355445D01*
X113683160Y-78336009D01*
X113676764Y-78314928D01*
X113674000Y-78286860D01*
X113674000Y-77823140D01*
X113676764Y-77795072D01*
X113683160Y-77773991D01*
X113693548Y-77754555D01*
X113707524Y-77737524D01*
X113724555Y-77723548D01*
X113743991Y-77713160D01*
X113765072Y-77706764D01*
X113793140Y-77704000D01*
X115706860Y-77704000D01*
X115734928Y-77706764D01*
G37*
G36*
X125034928Y-76436764D02*
G01*
X125056009Y-76443160D01*
X125075445Y-76453548D01*
X125092476Y-76467524D01*
X125106452Y-76484555D01*
X125116840Y-76503991D01*
X125123236Y-76525072D01*
X125126000Y-76553140D01*
X125126000Y-77016860D01*
X125123236Y-77044928D01*
X125116840Y-77066009D01*
X125106452Y-77085445D01*
X125092476Y-77102476D01*
X125075445Y-77116452D01*
X125056009Y-77126840D01*
X125034928Y-77133236D01*
X125006860Y-77136000D01*
X123093140Y-77136000D01*
X123065072Y-77133236D01*
X123043991Y-77126840D01*
X123024555Y-77116452D01*
X123007524Y-77102476D01*
X122993548Y-77085445D01*
X122983160Y-77066009D01*
X122976764Y-77044928D01*
X122974000Y-77016860D01*
X122974000Y-76553140D01*
X122976764Y-76525072D01*
X122983160Y-76503991D01*
X122993548Y-76484555D01*
X123007524Y-76467524D01*
X123024555Y-76453548D01*
X123043991Y-76443160D01*
X123065072Y-76436764D01*
X123093140Y-76434000D01*
X125006860Y-76434000D01*
X125034928Y-76436764D01*
G37*
G36*
X115734928Y-76436764D02*
G01*
X115756009Y-76443160D01*
X115775445Y-76453548D01*
X115792476Y-76467524D01*
X115806452Y-76484555D01*
X115816840Y-76503991D01*
X115823236Y-76525072D01*
X115826000Y-76553140D01*
X115826000Y-77016860D01*
X115823236Y-77044928D01*
X115816840Y-77066009D01*
X115806452Y-77085445D01*
X115792476Y-77102476D01*
X115775445Y-77116452D01*
X115756009Y-77126840D01*
X115734928Y-77133236D01*
X115706860Y-77136000D01*
X113793140Y-77136000D01*
X113765072Y-77133236D01*
X113743991Y-77126840D01*
X113724555Y-77116452D01*
X113707524Y-77102476D01*
X113693548Y-77085445D01*
X113683160Y-77066009D01*
X113676764Y-77044928D01*
X113674000Y-77016860D01*
X113674000Y-76553140D01*
X113676764Y-76525072D01*
X113683160Y-76503991D01*
X113693548Y-76484555D01*
X113707524Y-76467524D01*
X113724555Y-76453548D01*
X113743991Y-76443160D01*
X113765072Y-76436764D01*
X113793140Y-76434000D01*
X115706860Y-76434000D01*
X115734928Y-76436764D01*
G37*
G36*
X161301000Y-76651000D02*
G01*
X159699000Y-76651000D01*
X159699000Y-74549000D01*
X161301000Y-74549000D01*
X161301000Y-76651000D01*
G37*
G36*
X165901000Y-76651000D02*
G01*
X164299000Y-76651000D01*
X164299000Y-74549000D01*
X165901000Y-74549000D01*
X165901000Y-76651000D01*
G37*
G36*
X163601000Y-76651000D02*
G01*
X161999000Y-76651000D01*
X161999000Y-74549000D01*
X163601000Y-74549000D01*
X163601000Y-76651000D01*
G37*
G36*
X187118039Y-70792250D02*
G01*
X187307372Y-70870675D01*
X187441251Y-70926129D01*
X187732134Y-71120491D01*
X187979509Y-71367866D01*
X188173871Y-71658749D01*
X188173871Y-71658750D01*
X188307750Y-71981961D01*
X188376000Y-72325078D01*
X188376000Y-72674922D01*
X188307750Y-73018039D01*
X188229325Y-73207372D01*
X188173871Y-73341251D01*
X187979509Y-73632134D01*
X187732134Y-73879509D01*
X187441251Y-74073871D01*
X187307372Y-74129325D01*
X187118039Y-74207750D01*
X186774922Y-74276000D01*
X186425078Y-74276000D01*
X186081961Y-74207750D01*
X185892628Y-74129325D01*
X185758749Y-74073871D01*
X185467866Y-73879509D01*
X185220491Y-73632134D01*
X185026129Y-73341251D01*
X184970675Y-73207372D01*
X184892250Y-73018039D01*
X184824000Y-72674922D01*
X184824000Y-72325078D01*
X184892250Y-71981961D01*
X185026129Y-71658750D01*
X185026129Y-71658749D01*
X185220491Y-71367866D01*
X185467866Y-71120491D01*
X185758749Y-70926129D01*
X185892628Y-70870675D01*
X186081961Y-70792250D01*
X186425078Y-70724000D01*
X186774922Y-70724000D01*
X187118039Y-70792250D01*
G37*
G36*
X143096000Y-72006000D02*
G01*
X142094000Y-72006000D01*
X142094000Y-69904000D01*
X143096000Y-69904000D01*
X143096000Y-72006000D01*
G37*
G36*
X139286000Y-72006000D02*
G01*
X138284000Y-72006000D01*
X138284000Y-69904000D01*
X139286000Y-69904000D01*
X139286000Y-72006000D01*
G37*
G36*
X150716000Y-72006000D02*
G01*
X149714000Y-72006000D01*
X149714000Y-69904000D01*
X150716000Y-69904000D01*
X150716000Y-72006000D01*
G37*
G36*
X149446000Y-72006000D02*
G01*
X148444000Y-72006000D01*
X148444000Y-69904000D01*
X149446000Y-69904000D01*
X149446000Y-72006000D01*
G37*
G36*
X148176000Y-72006000D02*
G01*
X147174000Y-72006000D01*
X147174000Y-69904000D01*
X148176000Y-69904000D01*
X148176000Y-72006000D01*
G37*
G36*
X145636000Y-72006000D02*
G01*
X144634000Y-72006000D01*
X144634000Y-69904000D01*
X145636000Y-69904000D01*
X145636000Y-72006000D01*
G37*
G36*
X146906000Y-72006000D02*
G01*
X145904000Y-72006000D01*
X145904000Y-69904000D01*
X146906000Y-69904000D01*
X146906000Y-72006000D01*
G37*
G36*
X140556000Y-72006000D02*
G01*
X139554000Y-72006000D01*
X139554000Y-69904000D01*
X140556000Y-69904000D01*
X140556000Y-72006000D01*
G37*
G36*
X144366000Y-72006000D02*
G01*
X143364000Y-72006000D01*
X143364000Y-69904000D01*
X144366000Y-69904000D01*
X144366000Y-72006000D01*
G37*
G36*
X141826000Y-72006000D02*
G01*
X140824000Y-72006000D01*
X140824000Y-69904000D01*
X141826000Y-69904000D01*
X141826000Y-72006000D01*
G37*
G36*
X118934468Y-70453565D02*
G01*
X118973138Y-70465296D01*
X119008777Y-70484346D01*
X119040017Y-70509983D01*
X119065654Y-70541223D01*
X119084704Y-70576862D01*
X119096435Y-70615532D01*
X119101000Y-70661888D01*
X119101000Y-71738112D01*
X119096435Y-71784468D01*
X119084704Y-71823138D01*
X119065654Y-71858777D01*
X119040017Y-71890017D01*
X119008777Y-71915654D01*
X118973138Y-71934704D01*
X118934468Y-71946435D01*
X118888112Y-71951000D01*
X118236888Y-71951000D01*
X118190532Y-71946435D01*
X118151862Y-71934704D01*
X118116223Y-71915654D01*
X118084983Y-71890017D01*
X118059346Y-71858777D01*
X118040296Y-71823138D01*
X118028565Y-71784468D01*
X118024000Y-71738112D01*
X118024000Y-70661888D01*
X118028565Y-70615532D01*
X118040296Y-70576862D01*
X118059346Y-70541223D01*
X118084983Y-70509983D01*
X118116223Y-70484346D01*
X118151862Y-70465296D01*
X118190532Y-70453565D01*
X118236888Y-70449000D01*
X118888112Y-70449000D01*
X118934468Y-70453565D01*
G37*
G36*
X120809468Y-70453565D02*
G01*
X120848138Y-70465296D01*
X120883777Y-70484346D01*
X120915017Y-70509983D01*
X120940654Y-70541223D01*
X120959704Y-70576862D01*
X120971435Y-70615532D01*
X120976000Y-70661888D01*
X120976000Y-71738112D01*
X120971435Y-71784468D01*
X120959704Y-71823138D01*
X120940654Y-71858777D01*
X120915017Y-71890017D01*
X120883777Y-71915654D01*
X120848138Y-71934704D01*
X120809468Y-71946435D01*
X120763112Y-71951000D01*
X120111888Y-71951000D01*
X120065532Y-71946435D01*
X120026862Y-71934704D01*
X119991223Y-71915654D01*
X119959983Y-71890017D01*
X119934346Y-71858777D01*
X119915296Y-71823138D01*
X119903565Y-71784468D01*
X119899000Y-71738112D01*
X119899000Y-70661888D01*
X119903565Y-70615532D01*
X119915296Y-70576862D01*
X119934346Y-70541223D01*
X119959983Y-70509983D01*
X119991223Y-70484346D01*
X120026862Y-70465296D01*
X120065532Y-70453565D01*
X120111888Y-70449000D01*
X120763112Y-70449000D01*
X120809468Y-70453565D01*
G37*
G36*
X125262199Y-68099954D02*
G01*
X125274450Y-68100556D01*
X125292869Y-68100556D01*
X125315149Y-68102750D01*
X125399233Y-68119476D01*
X125420660Y-68125976D01*
X125499858Y-68158780D01*
X125505303Y-68161691D01*
X125505309Y-68161693D01*
X125514169Y-68166429D01*
X125514173Y-68166432D01*
X125519614Y-68169340D01*
X125590899Y-68216971D01*
X125608204Y-68231172D01*
X125668828Y-68291796D01*
X125683029Y-68309101D01*
X125730660Y-68380386D01*
X125733568Y-68385827D01*
X125733571Y-68385831D01*
X125738307Y-68394691D01*
X125738309Y-68394697D01*
X125741220Y-68400142D01*
X125774024Y-68479340D01*
X125780524Y-68500767D01*
X125797250Y-68584851D01*
X125799444Y-68607131D01*
X125799444Y-68625550D01*
X125800046Y-68637801D01*
X125801852Y-68656139D01*
X125801852Y-69143860D01*
X125800263Y-69159999D01*
X125797348Y-69169608D01*
X125792610Y-69178472D01*
X125786237Y-69186237D01*
X125773794Y-69196448D01*
X125763425Y-69203378D01*
X125746098Y-69220705D01*
X125732485Y-69241080D01*
X125723109Y-69263720D01*
X125718329Y-69287753D01*
X125718330Y-69312257D01*
X125723112Y-69336290D01*
X125732490Y-69358929D01*
X125746105Y-69379302D01*
X125763432Y-69396629D01*
X125773802Y-69403558D01*
X125786237Y-69413763D01*
X125792610Y-69421528D01*
X125797348Y-69430392D01*
X125800263Y-69440001D01*
X125801852Y-69456140D01*
X125801852Y-69943862D01*
X125800046Y-69962199D01*
X125799444Y-69974450D01*
X125799444Y-69992869D01*
X125797250Y-70015149D01*
X125780524Y-70099233D01*
X125774024Y-70120660D01*
X125741220Y-70199858D01*
X125738309Y-70205303D01*
X125738307Y-70205309D01*
X125733571Y-70214169D01*
X125733568Y-70214173D01*
X125730660Y-70219614D01*
X125683029Y-70290899D01*
X125668828Y-70308204D01*
X125608204Y-70368828D01*
X125590899Y-70383029D01*
X125519614Y-70430660D01*
X125514173Y-70433568D01*
X125514169Y-70433571D01*
X125505309Y-70438307D01*
X125505303Y-70438309D01*
X125499858Y-70441220D01*
X125420660Y-70474024D01*
X125399233Y-70480524D01*
X125315149Y-70497250D01*
X125292869Y-70499444D01*
X125274450Y-70499444D01*
X125262199Y-70500046D01*
X125243862Y-70501852D01*
X124756138Y-70501852D01*
X124737801Y-70500046D01*
X124725550Y-70499444D01*
X124707131Y-70499444D01*
X124684851Y-70497250D01*
X124600767Y-70480524D01*
X124579340Y-70474024D01*
X124500142Y-70441220D01*
X124494697Y-70438309D01*
X124494691Y-70438307D01*
X124485831Y-70433571D01*
X124485827Y-70433568D01*
X124480386Y-70430660D01*
X124409101Y-70383029D01*
X124391796Y-70368828D01*
X124331172Y-70308204D01*
X124316971Y-70290899D01*
X124269340Y-70219614D01*
X124266432Y-70214173D01*
X124266429Y-70214169D01*
X124261693Y-70205309D01*
X124261691Y-70205303D01*
X124258780Y-70199858D01*
X124225976Y-70120660D01*
X124219476Y-70099233D01*
X124202750Y-70015149D01*
X124200556Y-69992869D01*
X124200556Y-69974450D01*
X124199954Y-69962199D01*
X124198148Y-69943862D01*
X124198148Y-69456140D01*
X124199737Y-69440001D01*
X124202652Y-69430392D01*
X124207390Y-69421528D01*
X124213763Y-69413763D01*
X124226206Y-69403552D01*
X124236575Y-69396622D01*
X124253902Y-69379295D01*
X124267515Y-69358920D01*
X124276891Y-69336280D01*
X124281671Y-69312247D01*
X124281670Y-69287743D01*
X124276888Y-69263710D01*
X124267510Y-69241071D01*
X124253895Y-69220698D01*
X124236568Y-69203371D01*
X124226198Y-69196442D01*
X124213763Y-69186237D01*
X124207390Y-69178472D01*
X124202652Y-69169608D01*
X124199737Y-69159999D01*
X124198148Y-69143860D01*
X124198148Y-68656139D01*
X124199954Y-68637801D01*
X124200556Y-68625550D01*
X124200556Y-68607131D01*
X124202750Y-68584851D01*
X124219476Y-68500767D01*
X124225976Y-68479340D01*
X124258780Y-68400142D01*
X124261691Y-68394697D01*
X124261693Y-68394691D01*
X124266429Y-68385831D01*
X124266432Y-68385827D01*
X124269340Y-68380386D01*
X124316971Y-68309101D01*
X124331172Y-68291796D01*
X124391796Y-68231172D01*
X124409101Y-68216971D01*
X124480386Y-68169340D01*
X124485827Y-68166432D01*
X124485831Y-68166429D01*
X124494691Y-68161693D01*
X124494697Y-68161691D01*
X124500142Y-68158780D01*
X124579340Y-68125976D01*
X124600767Y-68119476D01*
X124684851Y-68102750D01*
X124707131Y-68100556D01*
X124725550Y-68100556D01*
X124737801Y-68099954D01*
X124756139Y-68098148D01*
X125243861Y-68098148D01*
X125262199Y-68099954D01*
G37*
G36*
X154051000Y-70456000D02*
G01*
X151949000Y-70456000D01*
X151949000Y-69454000D01*
X154051000Y-69454000D01*
X154051000Y-70456000D01*
G37*
G36*
X137051000Y-70456000D02*
G01*
X134949000Y-70456000D01*
X134949000Y-69454000D01*
X137051000Y-69454000D01*
X137051000Y-70456000D01*
G37*
G36*
X164751000Y-70351000D02*
G01*
X160849000Y-70351000D01*
X160849000Y-68249000D01*
X164751000Y-68249000D01*
X164751000Y-70351000D01*
G37*
G36*
X137051000Y-69186000D02*
G01*
X134949000Y-69186000D01*
X134949000Y-68184000D01*
X137051000Y-68184000D01*
X137051000Y-69186000D01*
G37*
G36*
X154051000Y-69186000D02*
G01*
X151949000Y-69186000D01*
X151949000Y-68184000D01*
X154051000Y-68184000D01*
X154051000Y-69186000D01*
G37*
G36*
X137051000Y-67916000D02*
G01*
X134949000Y-67916000D01*
X134949000Y-66914000D01*
X137051000Y-66914000D01*
X137051000Y-67916000D01*
G37*
G36*
X154051000Y-67916000D02*
G01*
X151949000Y-67916000D01*
X151949000Y-66914000D01*
X154051000Y-66914000D01*
X154051000Y-67916000D01*
G37*
G36*
X163334468Y-65953565D02*
G01*
X163373138Y-65965296D01*
X163408777Y-65984346D01*
X163440017Y-66009983D01*
X163465654Y-66041223D01*
X163484704Y-66076862D01*
X163496435Y-66115532D01*
X163501000Y-66161888D01*
X163501000Y-67238112D01*
X163496435Y-67284468D01*
X163484704Y-67323138D01*
X163465654Y-67358777D01*
X163440017Y-67390017D01*
X163408777Y-67415654D01*
X163373138Y-67434704D01*
X163334468Y-67446435D01*
X163288112Y-67451000D01*
X162636888Y-67451000D01*
X162590532Y-67446435D01*
X162551862Y-67434704D01*
X162516223Y-67415654D01*
X162484983Y-67390017D01*
X162459346Y-67358777D01*
X162440296Y-67323138D01*
X162428565Y-67284468D01*
X162424000Y-67238112D01*
X162424000Y-66161888D01*
X162428565Y-66115532D01*
X162440296Y-66076862D01*
X162459346Y-66041223D01*
X162484983Y-66009983D01*
X162516223Y-65984346D01*
X162551862Y-65965296D01*
X162590532Y-65953565D01*
X162636888Y-65949000D01*
X163288112Y-65949000D01*
X163334468Y-65953565D01*
G37*
G36*
X165209468Y-65953565D02*
G01*
X165248138Y-65965296D01*
X165283777Y-65984346D01*
X165315017Y-66009983D01*
X165340654Y-66041223D01*
X165359704Y-66076862D01*
X165371435Y-66115532D01*
X165376000Y-66161888D01*
X165376000Y-67238112D01*
X165371435Y-67284468D01*
X165359704Y-67323138D01*
X165340654Y-67358777D01*
X165315017Y-67390017D01*
X165283777Y-67415654D01*
X165248138Y-67434704D01*
X165209468Y-67446435D01*
X165163112Y-67451000D01*
X164511888Y-67451000D01*
X164465532Y-67446435D01*
X164426862Y-67434704D01*
X164391223Y-67415654D01*
X164359983Y-67390017D01*
X164334346Y-67358777D01*
X164315296Y-67323138D01*
X164303565Y-67284468D01*
X164299000Y-67238112D01*
X164299000Y-66161888D01*
X164303565Y-66115532D01*
X164315296Y-66076862D01*
X164334346Y-66041223D01*
X164359983Y-66009983D01*
X164391223Y-65984346D01*
X164426862Y-65965296D01*
X164465532Y-65953565D01*
X164511888Y-65949000D01*
X165163112Y-65949000D01*
X165209468Y-65953565D01*
G37*
G36*
X137051000Y-66646000D02*
G01*
X134949000Y-66646000D01*
X134949000Y-65644000D01*
X137051000Y-65644000D01*
X137051000Y-66646000D01*
G37*
G36*
X154051000Y-66646000D02*
G01*
X151949000Y-66646000D01*
X151949000Y-65644000D01*
X154051000Y-65644000D01*
X154051000Y-66646000D01*
G37*
G36*
X154051000Y-65376000D02*
G01*
X151949000Y-65376000D01*
X151949000Y-64374000D01*
X154051000Y-64374000D01*
X154051000Y-65376000D01*
G37*
G36*
X137051000Y-65376000D02*
G01*
X134949000Y-65376000D01*
X134949000Y-64374000D01*
X137051000Y-64374000D01*
X137051000Y-65376000D01*
G37*
G36*
X197826000Y-64491000D02*
G01*
X191374000Y-64491000D01*
X191374000Y-57049000D01*
X197826000Y-57049000D01*
X197826000Y-64491000D01*
G37*
G36*
X154051000Y-64106000D02*
G01*
X151949000Y-64106000D01*
X151949000Y-63104000D01*
X154051000Y-63104000D01*
X154051000Y-64106000D01*
G37*
G36*
X137051000Y-64106000D02*
G01*
X134949000Y-64106000D01*
X134949000Y-63104000D01*
X137051000Y-63104000D01*
X137051000Y-64106000D01*
G37*
G36*
X146051000Y-63496000D02*
G01*
X140949000Y-63496000D01*
X140949000Y-58394000D01*
X146051000Y-58394000D01*
X146051000Y-63496000D01*
G37*
G36*
X125951000Y-63091000D02*
G01*
X123339000Y-63091000D01*
X123339000Y-61989000D01*
X125951000Y-61989000D01*
X125951000Y-63091000D01*
G37*
G36*
X137051000Y-62836000D02*
G01*
X134949000Y-62836000D01*
X134949000Y-61834000D01*
X137051000Y-61834000D01*
X137051000Y-62836000D01*
G37*
G36*
X154051000Y-62836000D02*
G01*
X151949000Y-62836000D01*
X151949000Y-61834000D01*
X154051000Y-61834000D01*
X154051000Y-62836000D01*
G37*
G36*
X137051000Y-61566000D02*
G01*
X134949000Y-61566000D01*
X134949000Y-60564000D01*
X137051000Y-60564000D01*
X137051000Y-61566000D01*
G37*
G36*
X154051000Y-61566000D02*
G01*
X151949000Y-61566000D01*
X151949000Y-60564000D01*
X154051000Y-60564000D01*
X154051000Y-61566000D01*
G37*
G36*
X129261000Y-60551000D02*
G01*
X126649000Y-60551000D01*
X126649000Y-59449000D01*
X129261000Y-59449000D01*
X129261000Y-60551000D01*
G37*
G36*
X137051000Y-60296000D02*
G01*
X134949000Y-60296000D01*
X134949000Y-59294000D01*
X137051000Y-59294000D01*
X137051000Y-60296000D01*
G37*
G36*
X154051000Y-60296000D02*
G01*
X151949000Y-60296000D01*
X151949000Y-59294000D01*
X154051000Y-59294000D01*
X154051000Y-60296000D01*
G37*
G36*
X116301000Y-60001000D02*
G01*
X115299000Y-60001000D01*
X115299000Y-59099000D01*
X116301000Y-59099000D01*
X116301000Y-60001000D01*
G37*
G36*
X112884468Y-58803565D02*
G01*
X112923138Y-58815296D01*
X112958777Y-58834346D01*
X112990017Y-58859983D01*
X113015654Y-58891223D01*
X113034704Y-58926862D01*
X113046435Y-58965532D01*
X113051000Y-59011888D01*
X113051000Y-59663112D01*
X113046435Y-59709468D01*
X113034704Y-59748138D01*
X113015654Y-59783777D01*
X112990017Y-59815017D01*
X112958777Y-59840654D01*
X112923138Y-59859704D01*
X112884468Y-59871435D01*
X112838112Y-59876000D01*
X111761888Y-59876000D01*
X111715532Y-59871435D01*
X111676862Y-59859704D01*
X111641223Y-59840654D01*
X111609983Y-59815017D01*
X111584346Y-59783777D01*
X111565296Y-59748138D01*
X111553565Y-59709468D01*
X111549000Y-59663112D01*
X111549000Y-59011888D01*
X111553565Y-58965532D01*
X111565296Y-58926862D01*
X111584346Y-58891223D01*
X111609983Y-58859983D01*
X111641223Y-58834346D01*
X111676862Y-58815296D01*
X111715532Y-58803565D01*
X111761888Y-58799000D01*
X112838112Y-58799000D01*
X112884468Y-58803565D01*
G37*
G36*
X118301000Y-59051000D02*
G01*
X117299000Y-59051000D01*
X117299000Y-58149000D01*
X118301000Y-58149000D01*
X118301000Y-59051000D01*
G37*
G36*
X154051000Y-59026000D02*
G01*
X151949000Y-59026000D01*
X151949000Y-58024000D01*
X154051000Y-58024000D01*
X154051000Y-59026000D01*
G37*
G36*
X137051000Y-59026000D02*
G01*
X134949000Y-59026000D01*
X134949000Y-58024000D01*
X137051000Y-58024000D01*
X137051000Y-59026000D01*
G37*
G36*
X177901000Y-58901000D02*
G01*
X174299000Y-58901000D01*
X174299000Y-55299000D01*
X177901000Y-55299000D01*
X177901000Y-58901000D01*
G37*
G36*
X116301000Y-58101000D02*
G01*
X115299000Y-58101000D01*
X115299000Y-57199000D01*
X116301000Y-57199000D01*
X116301000Y-58101000D01*
G37*
G36*
X125951000Y-58011000D02*
G01*
X123339000Y-58011000D01*
X123339000Y-56909000D01*
X125951000Y-56909000D01*
X125951000Y-58011000D01*
G37*
G36*
X112884468Y-56928565D02*
G01*
X112923138Y-56940296D01*
X112958777Y-56959346D01*
X112990017Y-56984983D01*
X113015654Y-57016223D01*
X113034704Y-57051862D01*
X113046435Y-57090532D01*
X113051000Y-57136888D01*
X113051000Y-57788112D01*
X113046435Y-57834468D01*
X113034704Y-57873138D01*
X113015654Y-57908777D01*
X112990017Y-57940017D01*
X112958777Y-57965654D01*
X112923138Y-57984704D01*
X112884468Y-57996435D01*
X112838112Y-58001000D01*
X111761888Y-58001000D01*
X111715532Y-57996435D01*
X111676862Y-57984704D01*
X111641223Y-57965654D01*
X111609983Y-57940017D01*
X111584346Y-57908777D01*
X111565296Y-57873138D01*
X111553565Y-57834468D01*
X111549000Y-57788112D01*
X111549000Y-57136888D01*
X111553565Y-57090532D01*
X111565296Y-57051862D01*
X111584346Y-57016223D01*
X111609983Y-56984983D01*
X111641223Y-56959346D01*
X111676862Y-56940296D01*
X111715532Y-56928565D01*
X111761888Y-56924000D01*
X112838112Y-56924000D01*
X112884468Y-56928565D01*
G37*
G36*
X154051000Y-57756000D02*
G01*
X151949000Y-57756000D01*
X151949000Y-56754000D01*
X154051000Y-56754000D01*
X154051000Y-57756000D01*
G37*
G36*
X137051000Y-57756000D02*
G01*
X134949000Y-57756000D01*
X134949000Y-56754000D01*
X137051000Y-56754000D01*
X137051000Y-57756000D01*
G37*
G36*
X137051000Y-56486000D02*
G01*
X134949000Y-56486000D01*
X134949000Y-55484000D01*
X137051000Y-55484000D01*
X137051000Y-56486000D01*
G37*
G36*
X154051000Y-56486000D02*
G01*
X151949000Y-56486000D01*
X151949000Y-55484000D01*
X154051000Y-55484000D01*
X154051000Y-56486000D01*
G37*
G36*
X172526366Y-52315695D02*
G01*
X172683460Y-52363349D01*
X172828231Y-52440731D01*
X172955128Y-52544872D01*
X173059269Y-52671769D01*
X173136651Y-52816540D01*
X173184305Y-52973634D01*
X173201000Y-53143140D01*
X173201000Y-55056860D01*
X173184305Y-55226366D01*
X173136651Y-55383460D01*
X173059269Y-55528231D01*
X172955128Y-55655128D01*
X172828231Y-55759269D01*
X172683460Y-55836651D01*
X172526366Y-55884305D01*
X172356860Y-55901000D01*
X170443140Y-55901000D01*
X170273634Y-55884305D01*
X170116540Y-55836651D01*
X169971769Y-55759269D01*
X169844872Y-55655128D01*
X169740731Y-55528231D01*
X169663349Y-55383460D01*
X169615695Y-55226366D01*
X169599000Y-55056860D01*
X169599000Y-53143140D01*
X169615695Y-52973634D01*
X169663349Y-52816540D01*
X169740731Y-52671769D01*
X169844872Y-52544872D01*
X169971769Y-52440731D01*
X170116540Y-52363349D01*
X170273634Y-52315695D01*
X170443140Y-52299000D01*
X172356860Y-52299000D01*
X172526366Y-52315695D01*
G37*
G36*
X117151000Y-55801000D02*
G01*
X116249000Y-55801000D01*
X116249000Y-54799000D01*
X117151000Y-54799000D01*
X117151000Y-55801000D01*
G37*
G36*
X137051000Y-55216000D02*
G01*
X134949000Y-55216000D01*
X134949000Y-54214000D01*
X137051000Y-54214000D01*
X137051000Y-55216000D01*
G37*
G36*
X154051000Y-55216000D02*
G01*
X151949000Y-55216000D01*
X151949000Y-54214000D01*
X154051000Y-54214000D01*
X154051000Y-55216000D01*
G37*
G36*
X154051000Y-53946000D02*
G01*
X151949000Y-53946000D01*
X151949000Y-52944000D01*
X154051000Y-52944000D01*
X154051000Y-53946000D01*
G37*
G36*
X137051000Y-53946000D02*
G01*
X134949000Y-53946000D01*
X134949000Y-52944000D01*
X137051000Y-52944000D01*
X137051000Y-53946000D01*
G37*
G36*
X116201000Y-53801000D02*
G01*
X115299000Y-53801000D01*
X115299000Y-52799000D01*
X116201000Y-52799000D01*
X116201000Y-53801000D01*
G37*
G36*
X118101000Y-53801000D02*
G01*
X117199000Y-53801000D01*
X117199000Y-52799000D01*
X118101000Y-52799000D01*
X118101000Y-53801000D01*
G37*
G36*
X177326979Y-49563293D02*
G01*
X177460625Y-49603834D01*
X177583784Y-49669664D01*
X177691740Y-49758260D01*
X177780336Y-49866216D01*
X177846166Y-49989375D01*
X177886707Y-50123021D01*
X177901000Y-50268140D01*
X177901000Y-51931860D01*
X177886707Y-52076979D01*
X177846166Y-52210625D01*
X177780336Y-52333784D01*
X177691740Y-52441740D01*
X177583784Y-52530336D01*
X177460625Y-52596166D01*
X177326979Y-52636707D01*
X177181860Y-52651000D01*
X175018140Y-52651000D01*
X174873021Y-52636707D01*
X174739375Y-52596166D01*
X174616216Y-52530336D01*
X174508260Y-52441740D01*
X174419664Y-52333784D01*
X174353834Y-52210625D01*
X174313293Y-52076979D01*
X174299000Y-51931860D01*
X174299000Y-50268140D01*
X174313293Y-50123021D01*
X174353834Y-49989375D01*
X174419664Y-49866216D01*
X174508260Y-49758260D01*
X174616216Y-49669664D01*
X174739375Y-49603834D01*
X174873021Y-49563293D01*
X175018140Y-49549000D01*
X177181860Y-49549000D01*
X177326979Y-49563293D01*
G37*
G36*
X117909468Y-50053565D02*
G01*
X117948138Y-50065296D01*
X117983777Y-50084346D01*
X118015017Y-50109983D01*
X118040654Y-50141223D01*
X118059704Y-50176862D01*
X118071435Y-50215532D01*
X118076000Y-50261888D01*
X118076000Y-51338112D01*
X118071435Y-51384468D01*
X118059704Y-51423138D01*
X118040654Y-51458777D01*
X118015017Y-51490017D01*
X117983777Y-51515654D01*
X117948138Y-51534704D01*
X117909468Y-51546435D01*
X117863112Y-51551000D01*
X117211888Y-51551000D01*
X117165532Y-51546435D01*
X117126862Y-51534704D01*
X117091223Y-51515654D01*
X117059983Y-51490017D01*
X117034346Y-51458777D01*
X117015296Y-51423138D01*
X117003565Y-51384468D01*
X116999000Y-51338112D01*
X116999000Y-50261888D01*
X117003565Y-50215532D01*
X117015296Y-50176862D01*
X117034346Y-50141223D01*
X117059983Y-50109983D01*
X117091223Y-50084346D01*
X117126862Y-50065296D01*
X117165532Y-50053565D01*
X117211888Y-50049000D01*
X117863112Y-50049000D01*
X117909468Y-50053565D01*
G37*
G36*
X116034468Y-50053565D02*
G01*
X116073138Y-50065296D01*
X116108777Y-50084346D01*
X116140017Y-50109983D01*
X116165654Y-50141223D01*
X116184704Y-50176862D01*
X116196435Y-50215532D01*
X116201000Y-50261888D01*
X116201000Y-51338112D01*
X116196435Y-51384468D01*
X116184704Y-51423138D01*
X116165654Y-51458777D01*
X116140017Y-51490017D01*
X116108777Y-51515654D01*
X116073138Y-51534704D01*
X116034468Y-51546435D01*
X115988112Y-51551000D01*
X115336888Y-51551000D01*
X115290532Y-51546435D01*
X115251862Y-51534704D01*
X115216223Y-51515654D01*
X115184983Y-51490017D01*
X115159346Y-51458777D01*
X115140296Y-51423138D01*
X115128565Y-51384468D01*
X115124000Y-51338112D01*
X115124000Y-50261888D01*
X115128565Y-50215532D01*
X115140296Y-50176862D01*
X115159346Y-50141223D01*
X115184983Y-50109983D01*
X115216223Y-50084346D01*
X115251862Y-50065296D01*
X115290532Y-50053565D01*
X115336888Y-50049000D01*
X115988112Y-50049000D01*
X116034468Y-50053565D01*
G37*
M02*
