G04 #@! TF.GenerationSoftware,KiCad,Pcbnew,5.1.5+dfsg1-2build2*
G04 #@! TF.CreationDate,2021-12-30T10:18:34+00:00*
G04 #@! TF.ProjectId,psion-org2-bluetooth-adapter,7073696f-6e2d-46f7-9267-322d626c7565,rev?*
G04 #@! TF.SameCoordinates,Original*
G04 #@! TF.FileFunction,Legend,Bot*
G04 #@! TF.FilePolarity,Positive*
%FSLAX46Y46*%
G04 Gerber Fmt 4.6, Leading zero omitted, Abs format (unit mm)*
G04 Created by KiCad (PCBNEW 5.1.5+dfsg1-2build2) date 2021-12-30 10:18:34*
%MOMM*%
%LPD*%
G04 APERTURE LIST*
%ADD10C,0.150000*%
%ADD11C,0.120000*%
G04 APERTURE END LIST*
D10*
X189376190Y-56452380D02*
X189947619Y-56452380D01*
X189661904Y-56452380D02*
X189661904Y-55452380D01*
X189757142Y-55595238D01*
X189852380Y-55690476D01*
X189947619Y-55738095D01*
X188995238Y-55547619D02*
X188947619Y-55500000D01*
X188852380Y-55452380D01*
X188614285Y-55452380D01*
X188519047Y-55500000D01*
X188471428Y-55547619D01*
X188423809Y-55642857D01*
X188423809Y-55738095D01*
X188471428Y-55880952D01*
X189042857Y-56452380D01*
X188423809Y-56452380D01*
X188138095Y-55452380D02*
X187804761Y-56452380D01*
X187471428Y-55452380D01*
X186376190Y-56452380D02*
X186376190Y-55452380D01*
X186042857Y-56166666D01*
X185709523Y-55452380D01*
X185709523Y-56452380D01*
X185280952Y-56166666D02*
X184804761Y-56166666D01*
X185376190Y-56452380D02*
X185042857Y-55452380D01*
X184709523Y-56452380D01*
X184471428Y-55452380D02*
X183804761Y-56452380D01*
X183804761Y-55452380D02*
X184471428Y-56452380D01*
X197361904Y-90977380D02*
X197361904Y-89977380D01*
X196980952Y-89977380D01*
X196885714Y-90025000D01*
X196838095Y-90072619D01*
X196790476Y-90167857D01*
X196790476Y-90310714D01*
X196838095Y-90405952D01*
X196885714Y-90453571D01*
X196980952Y-90501190D01*
X197361904Y-90501190D01*
X196409523Y-90929761D02*
X196314285Y-90977380D01*
X196123809Y-90977380D01*
X196028571Y-90929761D01*
X195980952Y-90834523D01*
X195980952Y-90786904D01*
X196028571Y-90691666D01*
X196123809Y-90644047D01*
X196266666Y-90644047D01*
X196361904Y-90596428D01*
X196409523Y-90501190D01*
X196409523Y-90453571D01*
X196361904Y-90358333D01*
X196266666Y-90310714D01*
X196123809Y-90310714D01*
X196028571Y-90358333D01*
X195552380Y-90977380D02*
X195552380Y-90310714D01*
X195552380Y-89977380D02*
X195600000Y-90025000D01*
X195552380Y-90072619D01*
X195504761Y-90025000D01*
X195552380Y-89977380D01*
X195552380Y-90072619D01*
X194933333Y-90977380D02*
X195028571Y-90929761D01*
X195076190Y-90882142D01*
X195123809Y-90786904D01*
X195123809Y-90501190D01*
X195076190Y-90405952D01*
X195028571Y-90358333D01*
X194933333Y-90310714D01*
X194790476Y-90310714D01*
X194695238Y-90358333D01*
X194647619Y-90405952D01*
X194600000Y-90501190D01*
X194600000Y-90786904D01*
X194647619Y-90882142D01*
X194695238Y-90929761D01*
X194790476Y-90977380D01*
X194933333Y-90977380D01*
X194171428Y-90310714D02*
X194171428Y-90977380D01*
X194171428Y-90405952D02*
X194123809Y-90358333D01*
X194028571Y-90310714D01*
X193885714Y-90310714D01*
X193790476Y-90358333D01*
X193742857Y-90453571D01*
X193742857Y-90977380D01*
X192314285Y-89977380D02*
X192123809Y-89977380D01*
X192028571Y-90025000D01*
X191933333Y-90120238D01*
X191885714Y-90310714D01*
X191885714Y-90644047D01*
X191933333Y-90834523D01*
X192028571Y-90929761D01*
X192123809Y-90977380D01*
X192314285Y-90977380D01*
X192409523Y-90929761D01*
X192504761Y-90834523D01*
X192552380Y-90644047D01*
X192552380Y-90310714D01*
X192504761Y-90120238D01*
X192409523Y-90025000D01*
X192314285Y-89977380D01*
X191457142Y-90977380D02*
X191457142Y-90310714D01*
X191457142Y-90501190D02*
X191409523Y-90405952D01*
X191361904Y-90358333D01*
X191266666Y-90310714D01*
X191171428Y-90310714D01*
X190409523Y-90310714D02*
X190409523Y-91120238D01*
X190457142Y-91215476D01*
X190504761Y-91263095D01*
X190600000Y-91310714D01*
X190742857Y-91310714D01*
X190838095Y-91263095D01*
X190409523Y-90929761D02*
X190504761Y-90977380D01*
X190695238Y-90977380D01*
X190790476Y-90929761D01*
X190838095Y-90882142D01*
X190885714Y-90786904D01*
X190885714Y-90501190D01*
X190838095Y-90405952D01*
X190790476Y-90358333D01*
X190695238Y-90310714D01*
X190504761Y-90310714D01*
X190409523Y-90358333D01*
X189504761Y-90977380D02*
X189504761Y-90453571D01*
X189552380Y-90358333D01*
X189647619Y-90310714D01*
X189838095Y-90310714D01*
X189933333Y-90358333D01*
X189504761Y-90929761D02*
X189600000Y-90977380D01*
X189838095Y-90977380D01*
X189933333Y-90929761D01*
X189980952Y-90834523D01*
X189980952Y-90739285D01*
X189933333Y-90644047D01*
X189838095Y-90596428D01*
X189600000Y-90596428D01*
X189504761Y-90548809D01*
X189028571Y-90310714D02*
X189028571Y-90977380D01*
X189028571Y-90405952D02*
X188980952Y-90358333D01*
X188885714Y-90310714D01*
X188742857Y-90310714D01*
X188647619Y-90358333D01*
X188600000Y-90453571D01*
X188600000Y-90977380D01*
X188123809Y-90977380D02*
X188123809Y-90310714D01*
X188123809Y-89977380D02*
X188171428Y-90025000D01*
X188123809Y-90072619D01*
X188076190Y-90025000D01*
X188123809Y-89977380D01*
X188123809Y-90072619D01*
X187695238Y-90929761D02*
X187600000Y-90977380D01*
X187409523Y-90977380D01*
X187314285Y-90929761D01*
X187266666Y-90834523D01*
X187266666Y-90786904D01*
X187314285Y-90691666D01*
X187409523Y-90644047D01*
X187552380Y-90644047D01*
X187647619Y-90596428D01*
X187695238Y-90501190D01*
X187695238Y-90453571D01*
X187647619Y-90358333D01*
X187552380Y-90310714D01*
X187409523Y-90310714D01*
X187314285Y-90358333D01*
X186457142Y-90929761D02*
X186552380Y-90977380D01*
X186742857Y-90977380D01*
X186838095Y-90929761D01*
X186885714Y-90834523D01*
X186885714Y-90453571D01*
X186838095Y-90358333D01*
X186742857Y-90310714D01*
X186552380Y-90310714D01*
X186457142Y-90358333D01*
X186409523Y-90453571D01*
X186409523Y-90548809D01*
X186885714Y-90644047D01*
X185980952Y-90977380D02*
X185980952Y-90310714D01*
X185980952Y-90501190D02*
X185933333Y-90405952D01*
X185885714Y-90358333D01*
X185790476Y-90310714D01*
X185695238Y-90310714D01*
X184600000Y-90977380D02*
X184600000Y-89977380D01*
X184123809Y-90977380D02*
X184123809Y-89977380D01*
X182552380Y-90453571D02*
X182409523Y-90501190D01*
X182361904Y-90548809D01*
X182314285Y-90644047D01*
X182314285Y-90786904D01*
X182361904Y-90882142D01*
X182409523Y-90929761D01*
X182504761Y-90977380D01*
X182885714Y-90977380D01*
X182885714Y-89977380D01*
X182552380Y-89977380D01*
X182457142Y-90025000D01*
X182409523Y-90072619D01*
X182361904Y-90167857D01*
X182361904Y-90263095D01*
X182409523Y-90358333D01*
X182457142Y-90405952D01*
X182552380Y-90453571D01*
X182885714Y-90453571D01*
X181742857Y-90977380D02*
X181838095Y-90929761D01*
X181885714Y-90834523D01*
X181885714Y-89977380D01*
X180933333Y-90310714D02*
X180933333Y-90977380D01*
X181361904Y-90310714D02*
X181361904Y-90834523D01*
X181314285Y-90929761D01*
X181219047Y-90977380D01*
X181076190Y-90977380D01*
X180980952Y-90929761D01*
X180933333Y-90882142D01*
X180076190Y-90929761D02*
X180171428Y-90977380D01*
X180361904Y-90977380D01*
X180457142Y-90929761D01*
X180504761Y-90834523D01*
X180504761Y-90453571D01*
X180457142Y-90358333D01*
X180361904Y-90310714D01*
X180171428Y-90310714D01*
X180076190Y-90358333D01*
X180028571Y-90453571D01*
X180028571Y-90548809D01*
X180504761Y-90644047D01*
X179742857Y-90310714D02*
X179361904Y-90310714D01*
X179600000Y-89977380D02*
X179600000Y-90834523D01*
X179552380Y-90929761D01*
X179457142Y-90977380D01*
X179361904Y-90977380D01*
X178885714Y-90977380D02*
X178980952Y-90929761D01*
X179028571Y-90882142D01*
X179076190Y-90786904D01*
X179076190Y-90501190D01*
X179028571Y-90405952D01*
X178980952Y-90358333D01*
X178885714Y-90310714D01*
X178742857Y-90310714D01*
X178647619Y-90358333D01*
X178600000Y-90405952D01*
X178552380Y-90501190D01*
X178552380Y-90786904D01*
X178600000Y-90882142D01*
X178647619Y-90929761D01*
X178742857Y-90977380D01*
X178885714Y-90977380D01*
X177980952Y-90977380D02*
X178076190Y-90929761D01*
X178123809Y-90882142D01*
X178171428Y-90786904D01*
X178171428Y-90501190D01*
X178123809Y-90405952D01*
X178076190Y-90358333D01*
X177980952Y-90310714D01*
X177838095Y-90310714D01*
X177742857Y-90358333D01*
X177695238Y-90405952D01*
X177647619Y-90501190D01*
X177647619Y-90786904D01*
X177695238Y-90882142D01*
X177742857Y-90929761D01*
X177838095Y-90977380D01*
X177980952Y-90977380D01*
X177361904Y-90310714D02*
X176980952Y-90310714D01*
X177219047Y-89977380D02*
X177219047Y-90834523D01*
X177171428Y-90929761D01*
X177076190Y-90977380D01*
X176980952Y-90977380D01*
X176647619Y-90977380D02*
X176647619Y-89977380D01*
X176219047Y-90977380D02*
X176219047Y-90453571D01*
X176266666Y-90358333D01*
X176361904Y-90310714D01*
X176504761Y-90310714D01*
X176600000Y-90358333D01*
X176647619Y-90405952D01*
X175028571Y-90691666D02*
X174552380Y-90691666D01*
X175123809Y-90977380D02*
X174790476Y-89977380D01*
X174457142Y-90977380D01*
X173695238Y-90977380D02*
X173695238Y-89977380D01*
X173695238Y-90929761D02*
X173790476Y-90977380D01*
X173980952Y-90977380D01*
X174076190Y-90929761D01*
X174123809Y-90882142D01*
X174171428Y-90786904D01*
X174171428Y-90501190D01*
X174123809Y-90405952D01*
X174076190Y-90358333D01*
X173980952Y-90310714D01*
X173790476Y-90310714D01*
X173695238Y-90358333D01*
X172790476Y-90977380D02*
X172790476Y-90453571D01*
X172838095Y-90358333D01*
X172933333Y-90310714D01*
X173123809Y-90310714D01*
X173219047Y-90358333D01*
X172790476Y-90929761D02*
X172885714Y-90977380D01*
X173123809Y-90977380D01*
X173219047Y-90929761D01*
X173266666Y-90834523D01*
X173266666Y-90739285D01*
X173219047Y-90644047D01*
X173123809Y-90596428D01*
X172885714Y-90596428D01*
X172790476Y-90548809D01*
X172314285Y-90310714D02*
X172314285Y-91310714D01*
X172314285Y-90358333D02*
X172219047Y-90310714D01*
X172028571Y-90310714D01*
X171933333Y-90358333D01*
X171885714Y-90405952D01*
X171838095Y-90501190D01*
X171838095Y-90786904D01*
X171885714Y-90882142D01*
X171933333Y-90929761D01*
X172028571Y-90977380D01*
X172219047Y-90977380D01*
X172314285Y-90929761D01*
X171552380Y-90310714D02*
X171171428Y-90310714D01*
X171409523Y-89977380D02*
X171409523Y-90834523D01*
X171361904Y-90929761D01*
X171266666Y-90977380D01*
X171171428Y-90977380D01*
X170457142Y-90929761D02*
X170552380Y-90977380D01*
X170742857Y-90977380D01*
X170838095Y-90929761D01*
X170885714Y-90834523D01*
X170885714Y-90453571D01*
X170838095Y-90358333D01*
X170742857Y-90310714D01*
X170552380Y-90310714D01*
X170457142Y-90358333D01*
X170409523Y-90453571D01*
X170409523Y-90548809D01*
X170885714Y-90644047D01*
X169980952Y-90977380D02*
X169980952Y-90310714D01*
X169980952Y-90501190D02*
X169933333Y-90405952D01*
X169885714Y-90358333D01*
X169790476Y-90310714D01*
X169695238Y-90310714D01*
X187385714Y-92627380D02*
X187385714Y-91627380D01*
X187147619Y-91627380D01*
X187004761Y-91675000D01*
X186909523Y-91770238D01*
X186861904Y-91865476D01*
X186814285Y-92055952D01*
X186814285Y-92198809D01*
X186861904Y-92389285D01*
X186909523Y-92484523D01*
X187004761Y-92579761D01*
X187147619Y-92627380D01*
X187385714Y-92627380D01*
X186004761Y-92579761D02*
X186100000Y-92627380D01*
X186290476Y-92627380D01*
X186385714Y-92579761D01*
X186433333Y-92484523D01*
X186433333Y-92103571D01*
X186385714Y-92008333D01*
X186290476Y-91960714D01*
X186100000Y-91960714D01*
X186004761Y-92008333D01*
X185957142Y-92103571D01*
X185957142Y-92198809D01*
X186433333Y-92294047D01*
X185100000Y-92579761D02*
X185195238Y-92627380D01*
X185385714Y-92627380D01*
X185480952Y-92579761D01*
X185528571Y-92532142D01*
X185576190Y-92436904D01*
X185576190Y-92151190D01*
X185528571Y-92055952D01*
X185480952Y-92008333D01*
X185385714Y-91960714D01*
X185195238Y-91960714D01*
X185100000Y-92008333D01*
X183957142Y-91722619D02*
X183909523Y-91675000D01*
X183814285Y-91627380D01*
X183576190Y-91627380D01*
X183480952Y-91675000D01*
X183433333Y-91722619D01*
X183385714Y-91817857D01*
X183385714Y-91913095D01*
X183433333Y-92055952D01*
X184004761Y-92627380D01*
X183385714Y-92627380D01*
X182766666Y-91627380D02*
X182671428Y-91627380D01*
X182576190Y-91675000D01*
X182528571Y-91722619D01*
X182480952Y-91817857D01*
X182433333Y-92008333D01*
X182433333Y-92246428D01*
X182480952Y-92436904D01*
X182528571Y-92532142D01*
X182576190Y-92579761D01*
X182671428Y-92627380D01*
X182766666Y-92627380D01*
X182861904Y-92579761D01*
X182909523Y-92532142D01*
X182957142Y-92436904D01*
X183004761Y-92246428D01*
X183004761Y-92008333D01*
X182957142Y-91817857D01*
X182909523Y-91722619D01*
X182861904Y-91675000D01*
X182766666Y-91627380D01*
X182052380Y-91722619D02*
X182004761Y-91675000D01*
X181909523Y-91627380D01*
X181671428Y-91627380D01*
X181576190Y-91675000D01*
X181528571Y-91722619D01*
X181480952Y-91817857D01*
X181480952Y-91913095D01*
X181528571Y-92055952D01*
X182100000Y-92627380D01*
X181480952Y-92627380D01*
X180528571Y-92627380D02*
X181100000Y-92627380D01*
X180814285Y-92627380D02*
X180814285Y-91627380D01*
X180909523Y-91770238D01*
X181004761Y-91865476D01*
X181100000Y-91913095D01*
X191195238Y-94277380D02*
X191195238Y-93610714D01*
X191195238Y-93705952D02*
X191147619Y-93658333D01*
X191052380Y-93610714D01*
X190909523Y-93610714D01*
X190814285Y-93658333D01*
X190766666Y-93753571D01*
X190766666Y-94277380D01*
X190766666Y-93753571D02*
X190719047Y-93658333D01*
X190623809Y-93610714D01*
X190480952Y-93610714D01*
X190385714Y-93658333D01*
X190338095Y-93753571D01*
X190338095Y-94277380D01*
X189480952Y-94229761D02*
X189576190Y-94277380D01*
X189766666Y-94277380D01*
X189861904Y-94229761D01*
X189909523Y-94134523D01*
X189909523Y-93753571D01*
X189861904Y-93658333D01*
X189766666Y-93610714D01*
X189576190Y-93610714D01*
X189480952Y-93658333D01*
X189433333Y-93753571D01*
X189433333Y-93848809D01*
X189909523Y-93944047D01*
X189004761Y-93610714D02*
X189004761Y-94277380D01*
X189004761Y-93705952D02*
X188957142Y-93658333D01*
X188861904Y-93610714D01*
X188719047Y-93610714D01*
X188623809Y-93658333D01*
X188576190Y-93753571D01*
X188576190Y-94277380D01*
X187671428Y-94277380D02*
X187671428Y-93753571D01*
X187719047Y-93658333D01*
X187814285Y-93610714D01*
X188004761Y-93610714D01*
X188100000Y-93658333D01*
X187671428Y-94229761D02*
X187766666Y-94277380D01*
X188004761Y-94277380D01*
X188100000Y-94229761D01*
X188147619Y-94134523D01*
X188147619Y-94039285D01*
X188100000Y-93944047D01*
X188004761Y-93896428D01*
X187766666Y-93896428D01*
X187671428Y-93848809D01*
X186766666Y-94277380D02*
X186766666Y-93277380D01*
X186766666Y-94229761D02*
X186861904Y-94277380D01*
X187052380Y-94277380D01*
X187147619Y-94229761D01*
X187195238Y-94182142D01*
X187242857Y-94086904D01*
X187242857Y-93801190D01*
X187195238Y-93705952D01*
X187147619Y-93658333D01*
X187052380Y-93610714D01*
X186861904Y-93610714D01*
X186766666Y-93658333D01*
X185861904Y-93610714D02*
X185861904Y-94277380D01*
X186290476Y-93610714D02*
X186290476Y-94134523D01*
X186242857Y-94229761D01*
X186147619Y-94277380D01*
X186004761Y-94277380D01*
X185909523Y-94229761D01*
X185861904Y-94182142D01*
X185004761Y-94229761D02*
X185100000Y-94277380D01*
X185290476Y-94277380D01*
X185385714Y-94229761D01*
X185433333Y-94134523D01*
X185433333Y-93753571D01*
X185385714Y-93658333D01*
X185290476Y-93610714D01*
X185100000Y-93610714D01*
X185004761Y-93658333D01*
X184957142Y-93753571D01*
X184957142Y-93848809D01*
X185433333Y-93944047D01*
X183909523Y-93801190D02*
X183957142Y-93753571D01*
X184052380Y-93705952D01*
X184147619Y-93705952D01*
X184242857Y-93753571D01*
X184290476Y-93801190D01*
X184338095Y-93896428D01*
X184338095Y-93991666D01*
X184290476Y-94086904D01*
X184242857Y-94134523D01*
X184147619Y-94182142D01*
X184052380Y-94182142D01*
X183957142Y-94134523D01*
X183909523Y-94086904D01*
X183909523Y-93705952D02*
X183909523Y-94086904D01*
X183861904Y-94134523D01*
X183814285Y-94134523D01*
X183719047Y-94086904D01*
X183671428Y-93991666D01*
X183671428Y-93753571D01*
X183766666Y-93610714D01*
X183909523Y-93515476D01*
X184100000Y-93467857D01*
X184290476Y-93515476D01*
X184433333Y-93610714D01*
X184528571Y-93753571D01*
X184576190Y-93944047D01*
X184528571Y-94134523D01*
X184433333Y-94277380D01*
X184290476Y-94372619D01*
X184100000Y-94420238D01*
X183909523Y-94372619D01*
X183766666Y-94277380D01*
X182814285Y-93610714D02*
X182814285Y-94420238D01*
X182861904Y-94515476D01*
X182909523Y-94563095D01*
X183004761Y-94610714D01*
X183147619Y-94610714D01*
X183242857Y-94563095D01*
X182814285Y-94229761D02*
X182909523Y-94277380D01*
X183100000Y-94277380D01*
X183195238Y-94229761D01*
X183242857Y-94182142D01*
X183290476Y-94086904D01*
X183290476Y-93801190D01*
X183242857Y-93705952D01*
X183195238Y-93658333D01*
X183100000Y-93610714D01*
X182909523Y-93610714D01*
X182814285Y-93658333D01*
X182338095Y-94277380D02*
X182338095Y-93610714D01*
X182338095Y-93705952D02*
X182290476Y-93658333D01*
X182195238Y-93610714D01*
X182052380Y-93610714D01*
X181957142Y-93658333D01*
X181909523Y-93753571D01*
X181909523Y-94277380D01*
X181909523Y-93753571D02*
X181861904Y-93658333D01*
X181766666Y-93610714D01*
X181623809Y-93610714D01*
X181528571Y-93658333D01*
X181480952Y-93753571D01*
X181480952Y-94277380D01*
X180576190Y-94277380D02*
X180576190Y-93753571D01*
X180623809Y-93658333D01*
X180719047Y-93610714D01*
X180909523Y-93610714D01*
X181004761Y-93658333D01*
X180576190Y-94229761D02*
X180671428Y-94277380D01*
X180909523Y-94277380D01*
X181004761Y-94229761D01*
X181052380Y-94134523D01*
X181052380Y-94039285D01*
X181004761Y-93944047D01*
X180909523Y-93896428D01*
X180671428Y-93896428D01*
X180576190Y-93848809D01*
X180100000Y-94277380D02*
X180100000Y-93610714D01*
X180100000Y-93277380D02*
X180147619Y-93325000D01*
X180100000Y-93372619D01*
X180052380Y-93325000D01*
X180100000Y-93277380D01*
X180100000Y-93372619D01*
X179480952Y-94277380D02*
X179576190Y-94229761D01*
X179623809Y-94134523D01*
X179623809Y-93277380D01*
X179100000Y-94182142D02*
X179052380Y-94229761D01*
X179100000Y-94277380D01*
X179147619Y-94229761D01*
X179100000Y-94182142D01*
X179100000Y-94277380D01*
X178195238Y-94229761D02*
X178290476Y-94277380D01*
X178480952Y-94277380D01*
X178576190Y-94229761D01*
X178623809Y-94182142D01*
X178671428Y-94086904D01*
X178671428Y-93801190D01*
X178623809Y-93705952D01*
X178576190Y-93658333D01*
X178480952Y-93610714D01*
X178290476Y-93610714D01*
X178195238Y-93658333D01*
X177623809Y-94277380D02*
X177719047Y-94229761D01*
X177766666Y-94182142D01*
X177814285Y-94086904D01*
X177814285Y-93801190D01*
X177766666Y-93705952D01*
X177719047Y-93658333D01*
X177623809Y-93610714D01*
X177480952Y-93610714D01*
X177385714Y-93658333D01*
X177338095Y-93705952D01*
X177290476Y-93801190D01*
X177290476Y-94086904D01*
X177338095Y-94182142D01*
X177385714Y-94229761D01*
X177480952Y-94277380D01*
X177623809Y-94277380D01*
X176861904Y-94277380D02*
X176861904Y-93610714D01*
X176861904Y-93705952D02*
X176814285Y-93658333D01*
X176719047Y-93610714D01*
X176576190Y-93610714D01*
X176480952Y-93658333D01*
X176433333Y-93753571D01*
X176433333Y-94277380D01*
X176433333Y-93753571D02*
X176385714Y-93658333D01*
X176290476Y-93610714D01*
X176147619Y-93610714D01*
X176052380Y-93658333D01*
X176004761Y-93753571D01*
X176004761Y-94277380D01*
X185123809Y-94927380D02*
X184790476Y-95927380D01*
X184457142Y-94927380D01*
X183600000Y-95927380D02*
X184171428Y-95927380D01*
X183885714Y-95927380D02*
X183885714Y-94927380D01*
X183980952Y-95070238D01*
X184076190Y-95165476D01*
X184171428Y-95213095D01*
X183171428Y-95832142D02*
X183123809Y-95879761D01*
X183171428Y-95927380D01*
X183219047Y-95879761D01*
X183171428Y-95832142D01*
X183171428Y-95927380D01*
X182504761Y-94927380D02*
X182409523Y-94927380D01*
X182314285Y-94975000D01*
X182266666Y-95022619D01*
X182219047Y-95117857D01*
X182171428Y-95308333D01*
X182171428Y-95546428D01*
X182219047Y-95736904D01*
X182266666Y-95832142D01*
X182314285Y-95879761D01*
X182409523Y-95927380D01*
X182504761Y-95927380D01*
X182600000Y-95879761D01*
X182647619Y-95832142D01*
X182695238Y-95736904D01*
X182742857Y-95546428D01*
X182742857Y-95308333D01*
X182695238Y-95117857D01*
X182647619Y-95022619D01*
X182600000Y-94975000D01*
X182504761Y-94927380D01*
X166414285Y-118728571D02*
X166080952Y-118728571D01*
X165938095Y-119252380D02*
X166414285Y-119252380D01*
X166414285Y-118252380D01*
X165938095Y-118252380D01*
X165509523Y-119252380D02*
X165509523Y-118252380D01*
X164938095Y-119252380D01*
X164938095Y-118252380D01*
X163938095Y-119252380D02*
X164509523Y-119252380D01*
X164223809Y-119252380D02*
X164223809Y-118252380D01*
X164319047Y-118395238D01*
X164414285Y-118490476D01*
X164509523Y-118538095D01*
X171814285Y-118028571D02*
X171480952Y-118028571D01*
X171338095Y-118552380D02*
X171814285Y-118552380D01*
X171814285Y-117552380D01*
X171338095Y-117552380D01*
X170909523Y-118552380D02*
X170909523Y-117552380D01*
X170338095Y-118552380D01*
X170338095Y-117552380D01*
X169909523Y-117647619D02*
X169861904Y-117600000D01*
X169766666Y-117552380D01*
X169528571Y-117552380D01*
X169433333Y-117600000D01*
X169385714Y-117647619D01*
X169338095Y-117742857D01*
X169338095Y-117838095D01*
X169385714Y-117980952D01*
X169957142Y-118552380D01*
X169338095Y-118552380D01*
X176585714Y-116752380D02*
X176014285Y-116752380D01*
X176300000Y-117752380D02*
X176300000Y-116752380D01*
X175680952Y-117752380D02*
X175680952Y-116752380D01*
X175442857Y-116752380D01*
X175300000Y-116800000D01*
X175204761Y-116895238D01*
X175157142Y-116990476D01*
X175109523Y-117180952D01*
X175109523Y-117323809D01*
X175157142Y-117514285D01*
X175204761Y-117609523D01*
X175300000Y-117704761D01*
X175442857Y-117752380D01*
X175680952Y-117752380D01*
X172385714Y-127552380D02*
X172052380Y-128552380D01*
X171719047Y-127552380D01*
X170814285Y-128552380D02*
X171147619Y-128076190D01*
X171385714Y-128552380D02*
X171385714Y-127552380D01*
X171004761Y-127552380D01*
X170909523Y-127600000D01*
X170861904Y-127647619D01*
X170814285Y-127742857D01*
X170814285Y-127885714D01*
X170861904Y-127980952D01*
X170909523Y-128028571D01*
X171004761Y-128076190D01*
X171385714Y-128076190D01*
X170385714Y-128028571D02*
X170052380Y-128028571D01*
X169909523Y-128552380D02*
X170385714Y-128552380D01*
X170385714Y-127552380D01*
X169909523Y-127552380D01*
X168957142Y-127600000D02*
X169052380Y-127552380D01*
X169195238Y-127552380D01*
X169338095Y-127600000D01*
X169433333Y-127695238D01*
X169480952Y-127790476D01*
X169528571Y-127980952D01*
X169528571Y-128123809D01*
X169480952Y-128314285D01*
X169433333Y-128409523D01*
X169338095Y-128504761D01*
X169195238Y-128552380D01*
X169100000Y-128552380D01*
X168957142Y-128504761D01*
X168909523Y-128457142D01*
X168909523Y-128123809D01*
X169100000Y-128123809D01*
X160385714Y-124452380D02*
X160052380Y-125452380D01*
X159719047Y-124452380D01*
X158814285Y-125452380D02*
X159147619Y-124976190D01*
X159385714Y-125452380D02*
X159385714Y-124452380D01*
X159004761Y-124452380D01*
X158909523Y-124500000D01*
X158861904Y-124547619D01*
X158814285Y-124642857D01*
X158814285Y-124785714D01*
X158861904Y-124880952D01*
X158909523Y-124928571D01*
X159004761Y-124976190D01*
X159385714Y-124976190D01*
X158385714Y-124928571D02*
X158052380Y-124928571D01*
X157909523Y-125452380D02*
X158385714Y-125452380D01*
X158385714Y-124452380D01*
X157909523Y-124452380D01*
X156957142Y-124500000D02*
X157052380Y-124452380D01*
X157195238Y-124452380D01*
X157338095Y-124500000D01*
X157433333Y-124595238D01*
X157480952Y-124690476D01*
X157528571Y-124880952D01*
X157528571Y-125023809D01*
X157480952Y-125214285D01*
X157433333Y-125309523D01*
X157338095Y-125404761D01*
X157195238Y-125452380D01*
X157100000Y-125452380D01*
X156957142Y-125404761D01*
X156909523Y-125357142D01*
X156909523Y-125023809D01*
X157100000Y-125023809D01*
X159961904Y-121600000D02*
X160057142Y-121552380D01*
X160200000Y-121552380D01*
X160342857Y-121600000D01*
X160438095Y-121695238D01*
X160485714Y-121790476D01*
X160533333Y-121980952D01*
X160533333Y-122123809D01*
X160485714Y-122314285D01*
X160438095Y-122409523D01*
X160342857Y-122504761D01*
X160200000Y-122552380D01*
X160104761Y-122552380D01*
X159961904Y-122504761D01*
X159914285Y-122457142D01*
X159914285Y-122123809D01*
X160104761Y-122123809D01*
X159485714Y-122552380D02*
X159485714Y-121552380D01*
X158914285Y-122552380D01*
X158914285Y-121552380D01*
X158438095Y-122552380D02*
X158438095Y-121552380D01*
X158200000Y-121552380D01*
X158057142Y-121600000D01*
X157961904Y-121695238D01*
X157914285Y-121790476D01*
X157866666Y-121980952D01*
X157866666Y-122123809D01*
X157914285Y-122314285D01*
X157961904Y-122409523D01*
X158057142Y-122504761D01*
X158200000Y-122552380D01*
X158438095Y-122552380D01*
X168661904Y-119500000D02*
X168757142Y-119452380D01*
X168900000Y-119452380D01*
X169042857Y-119500000D01*
X169138095Y-119595238D01*
X169185714Y-119690476D01*
X169233333Y-119880952D01*
X169233333Y-120023809D01*
X169185714Y-120214285D01*
X169138095Y-120309523D01*
X169042857Y-120404761D01*
X168900000Y-120452380D01*
X168804761Y-120452380D01*
X168661904Y-120404761D01*
X168614285Y-120357142D01*
X168614285Y-120023809D01*
X168804761Y-120023809D01*
X168185714Y-120452380D02*
X168185714Y-119452380D01*
X167614285Y-120452380D01*
X167614285Y-119452380D01*
X167138095Y-120452380D02*
X167138095Y-119452380D01*
X166900000Y-119452380D01*
X166757142Y-119500000D01*
X166661904Y-119595238D01*
X166614285Y-119690476D01*
X166566666Y-119880952D01*
X166566666Y-120023809D01*
X166614285Y-120214285D01*
X166661904Y-120309523D01*
X166757142Y-120404761D01*
X166900000Y-120452380D01*
X167138095Y-120452380D01*
X180885714Y-123752380D02*
X180552380Y-124752380D01*
X180219047Y-123752380D01*
X179314285Y-124752380D02*
X179647619Y-124276190D01*
X179885714Y-124752380D02*
X179885714Y-123752380D01*
X179504761Y-123752380D01*
X179409523Y-123800000D01*
X179361904Y-123847619D01*
X179314285Y-123942857D01*
X179314285Y-124085714D01*
X179361904Y-124180952D01*
X179409523Y-124228571D01*
X179504761Y-124276190D01*
X179885714Y-124276190D01*
X178885714Y-124228571D02*
X178552380Y-124228571D01*
X178409523Y-124752380D02*
X178885714Y-124752380D01*
X178885714Y-123752380D01*
X178409523Y-123752380D01*
X177457142Y-123800000D02*
X177552380Y-123752380D01*
X177695238Y-123752380D01*
X177838095Y-123800000D01*
X177933333Y-123895238D01*
X177980952Y-123990476D01*
X178028571Y-124180952D01*
X178028571Y-124323809D01*
X177980952Y-124514285D01*
X177933333Y-124609523D01*
X177838095Y-124704761D01*
X177695238Y-124752380D01*
X177600000Y-124752380D01*
X177457142Y-124704761D01*
X177409523Y-124657142D01*
X177409523Y-124323809D01*
X177600000Y-124323809D01*
X179661904Y-118300000D02*
X179757142Y-118252380D01*
X179900000Y-118252380D01*
X180042857Y-118300000D01*
X180138095Y-118395238D01*
X180185714Y-118490476D01*
X180233333Y-118680952D01*
X180233333Y-118823809D01*
X180185714Y-119014285D01*
X180138095Y-119109523D01*
X180042857Y-119204761D01*
X179900000Y-119252380D01*
X179804761Y-119252380D01*
X179661904Y-119204761D01*
X179614285Y-119157142D01*
X179614285Y-118823809D01*
X179804761Y-118823809D01*
X179185714Y-119252380D02*
X179185714Y-118252380D01*
X178614285Y-119252380D01*
X178614285Y-118252380D01*
X178138095Y-119252380D02*
X178138095Y-118252380D01*
X177900000Y-118252380D01*
X177757142Y-118300000D01*
X177661904Y-118395238D01*
X177614285Y-118490476D01*
X177566666Y-118680952D01*
X177566666Y-118823809D01*
X177614285Y-119014285D01*
X177661904Y-119109523D01*
X177757142Y-119204761D01*
X177900000Y-119252380D01*
X178138095Y-119252380D01*
D11*
X170000000Y-125800000D02*
X171400000Y-125800000D01*
X172100000Y-125100000D02*
X172100000Y-124500000D01*
X171400000Y-123800000D02*
X170000000Y-123800000D01*
X169300000Y-124500000D02*
X169300000Y-125100000D01*
X169300000Y-125100000D02*
G75*
G03X170000000Y-125800000I700000J0D01*
G01*
X170000000Y-123800000D02*
G75*
G03X169300000Y-124500000I0J-700000D01*
G01*
X172100000Y-124500000D02*
G75*
G03X171400000Y-123800000I-700000J0D01*
G01*
X171400000Y-125800000D02*
G75*
G03X172100000Y-125100000I0J700000D01*
G01*
X176300000Y-118900000D02*
X174900000Y-118900000D01*
X174200000Y-119600000D02*
X174200000Y-120200000D01*
X174900000Y-120900000D02*
X176300000Y-120900000D01*
X177000000Y-120200000D02*
X177000000Y-119600000D01*
X177000000Y-119600000D02*
G75*
G03X176300000Y-118900000I-700000J0D01*
G01*
X176300000Y-120900000D02*
G75*
G03X177000000Y-120200000I0J700000D01*
G01*
X174200000Y-120200000D02*
G75*
G03X174900000Y-120900000I700000J0D01*
G01*
X174900000Y-118900000D02*
G75*
G03X174200000Y-119600000I0J-700000D01*
G01*
X176300000Y-121600000D02*
X174900000Y-121600000D01*
X174200000Y-122300000D02*
X174200000Y-122900000D01*
X174900000Y-123600000D02*
X176300000Y-123600000D01*
X177000000Y-122900000D02*
X177000000Y-122300000D01*
X177000000Y-122300000D02*
G75*
G03X176300000Y-121600000I-700000J0D01*
G01*
X176300000Y-123600000D02*
G75*
G03X177000000Y-122900000I0J700000D01*
G01*
X174200000Y-122900000D02*
G75*
G03X174900000Y-123600000I700000J0D01*
G01*
X174900000Y-121600000D02*
G75*
G03X174200000Y-122300000I0J-700000D01*
G01*
X170100000Y-123100000D02*
X171500000Y-123100000D01*
X172200000Y-122400000D02*
X172200000Y-121800000D01*
X171500000Y-121100000D02*
X170100000Y-121100000D01*
X169400000Y-121800000D02*
X169400000Y-122400000D01*
X169400000Y-122400000D02*
G75*
G03X170100000Y-123100000I700000J0D01*
G01*
X170100000Y-121100000D02*
G75*
G03X169400000Y-121800000I0J-700000D01*
G01*
X172200000Y-121800000D02*
G75*
G03X171500000Y-121100000I-700000J0D01*
G01*
X171500000Y-123100000D02*
G75*
G03X172200000Y-122400000I0J700000D01*
G01*
X166150000Y-121300000D02*
X164750000Y-121300000D01*
X164050000Y-122000000D02*
X164050000Y-122600000D01*
X164750000Y-123300000D02*
X166150000Y-123300000D01*
X166850000Y-122600000D02*
X166850000Y-122000000D01*
X166850000Y-122000000D02*
G75*
G03X166150000Y-121300000I-700000J0D01*
G01*
X166150000Y-123300000D02*
G75*
G03X166850000Y-122600000I0J700000D01*
G01*
X164050000Y-122600000D02*
G75*
G03X164750000Y-123300000I700000J0D01*
G01*
X164750000Y-121300000D02*
G75*
G03X164050000Y-122000000I0J-700000D01*
G01*
X166100000Y-123900000D02*
X164700000Y-123900000D01*
X164000000Y-124600000D02*
X164000000Y-125200000D01*
X164700000Y-125900000D02*
X166100000Y-125900000D01*
X166800000Y-125200000D02*
X166800000Y-124600000D01*
X166800000Y-124600000D02*
G75*
G03X166100000Y-123900000I-700000J0D01*
G01*
X166100000Y-125900000D02*
G75*
G03X166800000Y-125200000I0J700000D01*
G01*
X164000000Y-125200000D02*
G75*
G03X164700000Y-125900000I700000J0D01*
G01*
X164700000Y-123900000D02*
G75*
G03X164000000Y-124600000I0J-700000D01*
G01*
X124397936Y-49390000D02*
X125602064Y-49390000D01*
X124397936Y-51210000D02*
X125602064Y-51210000D01*
X125358578Y-53910000D02*
X124841422Y-53910000D01*
X125358578Y-52490000D02*
X124841422Y-52490000D01*
X124541422Y-47090000D02*
X125058578Y-47090000D01*
X124541422Y-48510000D02*
X125058578Y-48510000D01*
D10*
X171333333Y-126252380D02*
X171333333Y-126966666D01*
X171380952Y-127109523D01*
X171476190Y-127204761D01*
X171619047Y-127252380D01*
X171714285Y-127252380D01*
X170857142Y-127252380D02*
X170857142Y-126252380D01*
X170476190Y-126252380D01*
X170380952Y-126300000D01*
X170333333Y-126347619D01*
X170285714Y-126442857D01*
X170285714Y-126585714D01*
X170333333Y-126680952D01*
X170380952Y-126728571D01*
X170476190Y-126776190D01*
X170857142Y-126776190D01*
X169714285Y-126680952D02*
X169809523Y-126633333D01*
X169857142Y-126585714D01*
X169904761Y-126490476D01*
X169904761Y-126442857D01*
X169857142Y-126347619D01*
X169809523Y-126300000D01*
X169714285Y-126252380D01*
X169523809Y-126252380D01*
X169428571Y-126300000D01*
X169380952Y-126347619D01*
X169333333Y-126442857D01*
X169333333Y-126490476D01*
X169380952Y-126585714D01*
X169428571Y-126633333D01*
X169523809Y-126680952D01*
X169714285Y-126680952D01*
X169809523Y-126728571D01*
X169857142Y-126776190D01*
X169904761Y-126871428D01*
X169904761Y-127061904D01*
X169857142Y-127157142D01*
X169809523Y-127204761D01*
X169714285Y-127252380D01*
X169523809Y-127252380D01*
X169428571Y-127204761D01*
X169380952Y-127157142D01*
X169333333Y-127061904D01*
X169333333Y-126871428D01*
X169380952Y-126776190D01*
X169428571Y-126728571D01*
X169523809Y-126680952D01*
X180409523Y-119552380D02*
X180409523Y-120266666D01*
X180457142Y-120409523D01*
X180552380Y-120504761D01*
X180695238Y-120552380D01*
X180790476Y-120552380D01*
X179933333Y-120552380D02*
X179933333Y-119552380D01*
X179552380Y-119552380D01*
X179457142Y-119600000D01*
X179409523Y-119647619D01*
X179361904Y-119742857D01*
X179361904Y-119885714D01*
X179409523Y-119980952D01*
X179457142Y-120028571D01*
X179552380Y-120076190D01*
X179933333Y-120076190D01*
X178409523Y-120552380D02*
X178980952Y-120552380D01*
X178695238Y-120552380D02*
X178695238Y-119552380D01*
X178790476Y-119695238D01*
X178885714Y-119790476D01*
X178980952Y-119838095D01*
X177457142Y-120552380D02*
X178028571Y-120552380D01*
X177742857Y-120552380D02*
X177742857Y-119552380D01*
X177838095Y-119695238D01*
X177933333Y-119790476D01*
X178028571Y-119838095D01*
X181109523Y-122452380D02*
X181109523Y-123166666D01*
X181157142Y-123309523D01*
X181252380Y-123404761D01*
X181395238Y-123452380D01*
X181490476Y-123452380D01*
X180633333Y-123452380D02*
X180633333Y-122452380D01*
X180252380Y-122452380D01*
X180157142Y-122500000D01*
X180109523Y-122547619D01*
X180061904Y-122642857D01*
X180061904Y-122785714D01*
X180109523Y-122880952D01*
X180157142Y-122928571D01*
X180252380Y-122976190D01*
X180633333Y-122976190D01*
X179109523Y-123452380D02*
X179680952Y-123452380D01*
X179395238Y-123452380D02*
X179395238Y-122452380D01*
X179490476Y-122595238D01*
X179585714Y-122690476D01*
X179680952Y-122738095D01*
X178490476Y-122452380D02*
X178395238Y-122452380D01*
X178300000Y-122500000D01*
X178252380Y-122547619D01*
X178204761Y-122642857D01*
X178157142Y-122833333D01*
X178157142Y-123071428D01*
X178204761Y-123261904D01*
X178252380Y-123357142D01*
X178300000Y-123404761D01*
X178395238Y-123452380D01*
X178490476Y-123452380D01*
X178585714Y-123404761D01*
X178633333Y-123357142D01*
X178680952Y-123261904D01*
X178728571Y-123071428D01*
X178728571Y-122833333D01*
X178680952Y-122642857D01*
X178633333Y-122547619D01*
X178585714Y-122500000D01*
X178490476Y-122452380D01*
X171533333Y-119352380D02*
X171533333Y-120066666D01*
X171580952Y-120209523D01*
X171676190Y-120304761D01*
X171819047Y-120352380D01*
X171914285Y-120352380D01*
X171057142Y-120352380D02*
X171057142Y-119352380D01*
X170676190Y-119352380D01*
X170580952Y-119400000D01*
X170533333Y-119447619D01*
X170485714Y-119542857D01*
X170485714Y-119685714D01*
X170533333Y-119780952D01*
X170580952Y-119828571D01*
X170676190Y-119876190D01*
X171057142Y-119876190D01*
X170009523Y-120352380D02*
X169819047Y-120352380D01*
X169723809Y-120304761D01*
X169676190Y-120257142D01*
X169580952Y-120114285D01*
X169533333Y-119923809D01*
X169533333Y-119542857D01*
X169580952Y-119447619D01*
X169628571Y-119400000D01*
X169723809Y-119352380D01*
X169914285Y-119352380D01*
X170009523Y-119400000D01*
X170057142Y-119447619D01*
X170104761Y-119542857D01*
X170104761Y-119780952D01*
X170057142Y-119876190D01*
X170009523Y-119923809D01*
X169914285Y-119971428D01*
X169723809Y-119971428D01*
X169628571Y-119923809D01*
X169580952Y-119876190D01*
X169533333Y-119780952D01*
X162833333Y-121652380D02*
X162833333Y-122366666D01*
X162880952Y-122509523D01*
X162976190Y-122604761D01*
X163119047Y-122652380D01*
X163214285Y-122652380D01*
X162357142Y-122652380D02*
X162357142Y-121652380D01*
X161976190Y-121652380D01*
X161880952Y-121700000D01*
X161833333Y-121747619D01*
X161785714Y-121842857D01*
X161785714Y-121985714D01*
X161833333Y-122080952D01*
X161880952Y-122128571D01*
X161976190Y-122176190D01*
X162357142Y-122176190D01*
X161452380Y-121652380D02*
X160785714Y-121652380D01*
X161214285Y-122652380D01*
X162933333Y-124452380D02*
X162933333Y-125166666D01*
X162980952Y-125309523D01*
X163076190Y-125404761D01*
X163219047Y-125452380D01*
X163314285Y-125452380D01*
X162457142Y-125452380D02*
X162457142Y-124452380D01*
X162076190Y-124452380D01*
X161980952Y-124500000D01*
X161933333Y-124547619D01*
X161885714Y-124642857D01*
X161885714Y-124785714D01*
X161933333Y-124880952D01*
X161980952Y-124928571D01*
X162076190Y-124976190D01*
X162457142Y-124976190D01*
X161028571Y-124452380D02*
X161219047Y-124452380D01*
X161314285Y-124500000D01*
X161361904Y-124547619D01*
X161457142Y-124690476D01*
X161504761Y-124880952D01*
X161504761Y-125261904D01*
X161457142Y-125357142D01*
X161409523Y-125404761D01*
X161314285Y-125452380D01*
X161123809Y-125452380D01*
X161028571Y-125404761D01*
X160980952Y-125357142D01*
X160933333Y-125261904D01*
X160933333Y-125023809D01*
X160980952Y-124928571D01*
X161028571Y-124880952D01*
X161123809Y-124833333D01*
X161314285Y-124833333D01*
X161409523Y-124880952D01*
X161457142Y-124928571D01*
X161504761Y-125023809D01*
X121666666Y-50157142D02*
X121714285Y-50204761D01*
X121857142Y-50252380D01*
X121952380Y-50252380D01*
X122095238Y-50204761D01*
X122190476Y-50109523D01*
X122238095Y-50014285D01*
X122285714Y-49823809D01*
X122285714Y-49680952D01*
X122238095Y-49490476D01*
X122190476Y-49395238D01*
X122095238Y-49300000D01*
X121952380Y-49252380D01*
X121857142Y-49252380D01*
X121714285Y-49300000D01*
X121666666Y-49347619D01*
X121333333Y-49252380D02*
X120714285Y-49252380D01*
X121047619Y-49633333D01*
X120904761Y-49633333D01*
X120809523Y-49680952D01*
X120761904Y-49728571D01*
X120714285Y-49823809D01*
X120714285Y-50061904D01*
X120761904Y-50157142D01*
X120809523Y-50204761D01*
X120904761Y-50252380D01*
X121190476Y-50252380D01*
X121285714Y-50204761D01*
X121333333Y-50157142D01*
X128066666Y-54952380D02*
X128400000Y-54476190D01*
X128638095Y-54952380D02*
X128638095Y-53952380D01*
X128257142Y-53952380D01*
X128161904Y-54000000D01*
X128114285Y-54047619D01*
X128066666Y-54142857D01*
X128066666Y-54285714D01*
X128114285Y-54380952D01*
X128161904Y-54428571D01*
X128257142Y-54476190D01*
X128638095Y-54476190D01*
X127209523Y-53952380D02*
X127400000Y-53952380D01*
X127495238Y-54000000D01*
X127542857Y-54047619D01*
X127638095Y-54190476D01*
X127685714Y-54380952D01*
X127685714Y-54761904D01*
X127638095Y-54857142D01*
X127590476Y-54904761D01*
X127495238Y-54952380D01*
X127304761Y-54952380D01*
X127209523Y-54904761D01*
X127161904Y-54857142D01*
X127114285Y-54761904D01*
X127114285Y-54523809D01*
X127161904Y-54428571D01*
X127209523Y-54380952D01*
X127304761Y-54333333D01*
X127495238Y-54333333D01*
X127590476Y-54380952D01*
X127638095Y-54428571D01*
X127685714Y-54523809D01*
X121666666Y-47657142D02*
X121714285Y-47704761D01*
X121857142Y-47752380D01*
X121952380Y-47752380D01*
X122095238Y-47704761D01*
X122190476Y-47609523D01*
X122238095Y-47514285D01*
X122285714Y-47323809D01*
X122285714Y-47180952D01*
X122238095Y-46990476D01*
X122190476Y-46895238D01*
X122095238Y-46800000D01*
X121952380Y-46752380D01*
X121857142Y-46752380D01*
X121714285Y-46800000D01*
X121666666Y-46847619D01*
X120809523Y-47085714D02*
X120809523Y-47752380D01*
X121047619Y-46704761D02*
X121285714Y-47419047D01*
X120666666Y-47419047D01*
M02*
